<?xml version="1.0" encoding="UTF-8" standalone="no"?>
<!-- Created with Inkscape (http://www.inkscape.org/) -->
<svg
   xmlns:dc="http://purl.org/dc/elements/1.1/"
   xmlns:cc="http://creativecommons.org/ns#"
   xmlns:rdf="http://www.w3.org/1999/02/22-rdf-syntax-ns#"
   xmlns:svg="http://www.w3.org/2000/svg"
   xmlns="http://www.w3.org/2000/svg"
   xmlns:sodipodi="http://sodipodi.sourceforge.net/DTD/sodipodi-0.dtd"
   xmlns:inkscape="http://www.inkscape.org/namespaces/inkscape"
   width="131.09132"
   height="111.153"
   id="svg2"
   sodipodi:version="0.32"
   inkscape:version="0.46"
   version="1.0"
   sodipodi:docbase="/home/mat/Travaux/Inkscape/Gcompris/boardicons"
   sodipodi:docname="doubleclick.svg"
   inkscape:output_extension="org.inkscape.output.svg.inkscape">
  <defs
     id="defs4">
    <inkscape:perspective
       sodipodi:type="inkscape:persp3d"
       inkscape:vp_x="0 : 50 : 1"
       inkscape:vp_y="0 : 1000 : 0"
       inkscape:vp_z="100 : 50 : 1"
       inkscape:persp3d-origin="50 : 33.333333 : 1"
       id="perspective4868" />
  </defs>
  <sodipodi:namedview
     id="base"
     pagecolor="#ffffff"
     bordercolor="#666666"
     borderopacity="1.0"
     inkscape:pageopacity="0.0"
     inkscape:pageshadow="2"
     inkscape:zoom="1.14875"
     inkscape:cx="-2.3939067"
     inkscape:cy="-55.638014"
     inkscape:document-units="px"
     inkscape:current-layer="layer1"
     width="100px"
     height="100px"
     inkscape:window-width="1123"
     inkscape:window-height="916"
     inkscape:window-x="82"
     inkscape:window-y="73"
     showgrid="false" />
  <metadata
     id="metadata7">
    <rdf:RDF>
      <cc:Work
         rdf:about="">
        <dc:format>image/svg+xml</dc:format>
        <dc:type
           rdf:resource="http://purl.org/dc/dcmitype/StillImage" />
      </cc:Work>
    </rdf:RDF>
  </metadata>
  <g
     inkscape:label="Calque 1"
     inkscape:groupmode="layer"
     id="layer1"
     transform="translate(-2.5651483,-1.17111)">
    <path
       style="fill:none;fill-opacity:1;fill-rule:evenodd;stroke:#000000;stroke-width:5;stroke-linecap:butt;stroke-linejoin:miter;stroke-miterlimit:4;stroke-dasharray:none;stroke-opacity:0.28695655"
       d="M 49.618344,85.191357 C 61.521735,90.686388 97.572763,50.03881 68.173661,38.701973 C 41.876969,28.561479 34.042975,79.606158 49.618344,85.191357 z"
       id="path3049"
       sodipodi:nodetypes="csc" />
    <path
       style="fill:#83cbc6;fill-opacity:1;fill-rule:evenodd;stroke:#000000;stroke-width:2.12582922;stroke-linecap:butt;stroke-linejoin:miter;stroke-miterlimit:4;stroke-dasharray:none;stroke-opacity:1"
       d="M 48.947537,82.193684 C 60.850928,87.688715 96.901948,47.041137 67.502854,35.704301 C 41.206162,25.563807 33.372168,76.608485 48.947537,82.193684 z"
       id="path2092"
       sodipodi:nodetypes="csc" />
    <path
       style="fill:#83cbc6;fill-opacity:1;fill-rule:evenodd;stroke:#000000;stroke-width:2.12582922;stroke-linecap:butt;stroke-linejoin:miter;stroke-miterlimit:4;stroke-dasharray:none;stroke-opacity:1"
       d="M 46.026801,46.412013 C 46.026801,46.412013 63.13088,61.443363 77.518386,57.073211"
       id="path2979"
       sodipodi:nodetypes="cc" />
    <path
       style="fill:none;fill-opacity:1;fill-rule:evenodd;stroke:#000000;stroke-width:2.12582922;stroke-linecap:butt;stroke-linejoin:miter;stroke-miterlimit:4;stroke-dasharray:none;stroke-opacity:1"
       d="M 48.51412,80.774465 C 60.417511,86.269496 96.468528,45.621918 67.069437,34.285082 C 40.772745,24.144587 32.938751,75.189266 48.51412,80.774465 z"
       id="path3035"
       sodipodi:nodetypes="csc" />
    <path
       style="fill:#83cbc6;fill-opacity:1;fill-rule:evenodd;stroke:#000000;stroke-width:2.12582922;stroke-linecap:butt;stroke-linejoin:miter;stroke-miterlimit:4;stroke-dasharray:none;stroke-opacity:1"
       d="M 46.274731,44.580978 C 46.274731,44.580978 63.37881,59.612328 77.766316,55.242176"
       id="path3039"
       sodipodi:nodetypes="cc" />
    <path
       style="fill:#83cbc6;fill-opacity:1;fill-rule:evenodd;stroke:#000000;stroke-width:2.12582922;stroke-linecap:butt;stroke-linejoin:miter;stroke-miterlimit:4;stroke-dasharray:none;stroke-opacity:1"
       d="M 67.451498,36.744501 L 59.902219,53.937426"
       id="path3037" />
    <path
       style="fill:#83cbc6;fill-opacity:1;fill-rule:evenodd;stroke:#000000;stroke-width:2.12582922;stroke-linecap:butt;stroke-linejoin:miter;stroke-miterlimit:4;stroke-dasharray:none;stroke-opacity:1"
       d="M 66.466811,36.515071 L 58.917532,53.707996"
       id="path2981" />
    <path
       style="fill:#000000;fill-opacity:0.27391304;fill-rule:evenodd;stroke:none;stroke-width:2.12582922;stroke-linecap:butt;stroke-linejoin:miter;stroke-miterlimit:4;stroke-dasharray:none;stroke-opacity:1"
       d="M 57.900016,80.222353 C 65.047953,78.27692 71.630111,70.442914 72.071937,66.377141 C 72.513763,62.311368 68.287555,73.240095 56.57932,73.300959 C 48.491996,71.267326 50.495452,73.303718 43.216984,74.959348 C 48.988296,83.590545 47.167737,81.570589 57.900016,80.222353 z"
       id="path3045"
       sodipodi:nodetypes="ccccc" />
    <path
       style="fill:none;fill-opacity:0.75;fill-rule:evenodd;stroke:#000000;stroke-width:1px;stroke-linecap:butt;stroke-linejoin:miter;stroke-opacity:1"
       d="M 67.812116,33.792355 C 68.52526,31.5379 69.426345,14.935135 91.818451,32.406661 C 110.04286,44.497631 113.40097,38.861493 120.63079,41.33788 C 140.9796,47.394876 132.89605,68.630906 121.91905,74.83264 C 115.60237,79.589842 101.2185,90.976629 110.4655,96.071366 C 123.54699,103.27876 135.90587,91.119931 126.70401,111.82411"
       id="path3071"
       sodipodi:nodetypes="ccccsc" />
    <g
       id="g22156"
       transform="translate(10.49012,19.13986)">
      <path
         id="path21267"
         d="M 20.980236,5.9570105 L 9.9380067,-2.3246617 L 4.4168919,-5.0852191 L 8.4657094,-10.790371 L 16.19527,-15.023226 L 24.66098,-6.005405 L 29.261909,-1.7725502 L 37.543581,-8.397888 L 39.56799,-6.1894421 L 40.120101,-2.692736 L 37.727618,13.318497 L 19.323902,14.790794 L 15.275084,12.214274 L 16.563345,9.4537166 L 20.980236,5.9570105 z"
         style="fill:#ff0000;fill-opacity:1;fill-rule:evenodd;stroke:#000000;stroke-width:1px;stroke-linecap:butt;stroke-linejoin:miter;stroke-opacity:1" />
      <path
         sodipodi:nodetypes="ccccccccccscccccccccccccccc"
         id="path20377"
         d="M 17.486149,-17.96875 L 7.734375,-12.357686 L -0.54510135,-4.90625 L 9.5782095,0.069425677 L 17.125,5.78125 L 11.40625,11.46875 L 16.75,17 L 39.1875,15.34375 L 42.875,-6 L 38.65625,-11.15625 C 38.65625,-11.15625 31.479222,-4.9166387 29.822889,-4.9166385 C 28.166554,-4.9166385 17.48615,-17.96875 17.486149,-17.96875 z M 16.1875,-12.09375 L 25.031166,-1.7742399 L 29.638851,0.62854729 L 36.0625,-5.09375 L 37.90625,-5.8125 L 38.84375,-3.0625 L 38.083361,0.26047297 L 35.902703,11.670186 L 26.5,12.78125 L 19.125,13.125 L 17.65625,12.03125 L 23.9375,7.8125 L 22.09375,2.84375 L 7.53125,-5.8125 L 16.1875,-12.09375 z"
         style="fill:#000000;fill-opacity:1;fill-rule:evenodd;stroke:none;stroke-width:1px;stroke-linecap:butt;stroke-linejoin:miter;stroke-opacity:1" />
    </g>
    <path
       style="fill:none;fill-opacity:0.75;fill-rule:evenodd;stroke:#000000;stroke-width:1px;stroke-linecap:butt;stroke-linejoin:miter;stroke-opacity:1"
       d="M 67.075966,33.056207 C 67.78911,30.801752 68.690195,14.198988 91.082301,31.670513 C 109.30671,43.761483 112.66482,38.125345 119.89464,40.601732 C 140.24345,46.658729 132.1599,67.894759 121.1829,74.096493 C 114.86622,78.853695 105.81424,88.499459 115.06124,93.594196 C 128.14273,100.80159 135.16972,90.383784 125.96786,111.08796"
       id="path22160"
       sodipodi:nodetypes="ccccsc" />
    <path
       style="fill:#d35f5f;fill-opacity:0.75;fill-rule:evenodd;stroke:none;stroke-width:1px;stroke-linecap:butt;stroke-linejoin:miter;stroke-opacity:1"
       d="M 47.348648,44.060744 L 51.949577,38.515504 L 56.859441,35.646133 L 63.022551,35.529277 L 65.650169,36.055839 L 58.690347,51.396683 L 52.285484,47.951074 L 47.348648,44.060744 z"
       id="path24915"
       sodipodi:nodetypes="cccccccc" />
    <path
       style="fill:#ffffff;fill-opacity:0.44868032;fill-rule:evenodd;stroke:none;stroke-width:2.12582922;stroke-linecap:butt;stroke-linejoin:miter;stroke-miterlimit:4;stroke-dasharray:none;stroke-opacity:1"
       d="M 65.205137,36.181089 C 63.335253,40.15093 64.396297,37.862893 62.813714,41.744628 C 63.25554,45.810401 57.064425,37.210535 47.761548,43.65254 C 53.900934,35.389417 56.129193,34.464778 65.205137,36.181089 z"
       id="path3047"
       sodipodi:nodetypes="cccc" />
    <text
       xml:space="preserve"
       style="font-size:47.05569839px;font-style:normal;font-variant:normal;font-weight:bold;font-stretch:normal;fill:#0fb8aa;fill-opacity:1;stroke:#000000;stroke-width:1.5954684;stroke-linecap:butt;stroke-linejoin:miter;stroke-miterlimit:4;stroke-dasharray:none;stroke-opacity:1;font-family:Mallige;-inkscape-font-specification:Mallige Bold"
       x="1.3986744"
       y="78.025269"
       id="text5611"
       transform="scale(0.9450394,1.0581569)"><tspan
         sodipodi:role="line"
         id="tspan5613"
         x="1.3986744"
         y="78.025269"
         style="font-style:normal;font-variant:normal;font-weight:bold;font-stretch:normal;stroke-width:1.5954684;font-family:Mallige;-inkscape-font-specification:Mallige Bold">2</tspan></text>
  </g>
</svg>
