<?xml version="1.0" encoding="UTF-8" standalone="no"?>
<!-- Created with Inkscape (http://www.inkscape.org/) -->
<svg
   xmlns:dc="http://purl.org/dc/elements/1.1/"
   xmlns:cc="http://web.resource.org/cc/"
   xmlns:rdf="http://www.w3.org/1999/02/22-rdf-syntax-ns#"
   xmlns:svg="http://www.w3.org/2000/svg"
   xmlns="http://www.w3.org/2000/svg"
   xmlns:xlink="http://www.w3.org/1999/xlink"
   xmlns:sodipodi="http://sodipodi.sourceforge.net/DTD/sodipodi-0.dtd"
   xmlns:inkscape="http://www.inkscape.org/namespaces/inkscape"
   width="464.44873"
   height="478.82144"
   id="svg2"
   sodipodi:version="0.32"
   inkscape:version="0.45.1"
   sodipodi:docbase="/home/yemanja/Desktop/site inkscape spip/IMG"
   sodipodi:docname="gcompris.svg"
   inkscape:output_extension="org.inkscape.output.svg.inkscape"
   version="1.0">
  <defs
     id="defs4">
    <linearGradient
       id="linearGradient3452">
      <stop
         style="stop-color:#e25d23;stop-opacity:1;"
         offset="0"
         id="stop3454" />
      <stop
         style="stop-color:#ffffff;stop-opacity:0;"
         offset="1"
         id="stop3456" />
    </linearGradient>
    <linearGradient
       inkscape:collect="always"
       id="linearGradient3412">
      <stop
         style="stop-color:#ffffff;stop-opacity:1;"
         offset="0"
         id="stop3414" />
      <stop
         style="stop-color:#ffffff;stop-opacity:0;"
         offset="1"
         id="stop3416" />
    </linearGradient>
    <linearGradient
       inkscape:collect="always"
       id="linearGradient3348">
      <stop
         style="stop-color:#ffffff;stop-opacity:1;"
         offset="0"
         id="stop3350" />
      <stop
         style="stop-color:#ffffff;stop-opacity:0;"
         offset="1"
         id="stop3352" />
    </linearGradient>
    <linearGradient
       inkscape:collect="always"
       id="linearGradient3260">
      <stop
         style="stop-color:#ffffff;stop-opacity:1;"
         offset="0"
         id="stop3262" />
      <stop
         style="stop-color:#ffffff;stop-opacity:0;"
         offset="1"
         id="stop3264" />
    </linearGradient>
    <linearGradient
       inkscape:collect="always"
       id="linearGradient3250">
      <stop
         style="stop-color:#ffffff;stop-opacity:1;"
         offset="0"
         id="stop3252" />
      <stop
         style="stop-color:#ffffff;stop-opacity:0;"
         offset="1"
         id="stop3254" />
    </linearGradient>
    <filter
       inkscape:collect="always"
       id="filter3288">
      <feGaussianBlur
         inkscape:collect="always"
         stdDeviation="2.8605062"
         id="feGaussianBlur3290" />
    </filter>
    <filter
       inkscape:collect="always"
       id="filter3340">
      <feGaussianBlur
         inkscape:collect="always"
         stdDeviation="7.9168828"
         id="feGaussianBlur3342" />
    </filter>
    <filter
       inkscape:collect="always"
       x="-0.13150574"
       width="1.2630115"
       y="-0.12738343"
       height="1.2547668"
       id="filter3406">
      <feGaussianBlur
         inkscape:collect="always"
         stdDeviation="5.1409004"
         id="feGaussianBlur3408" />
    </filter>
    <filter
       inkscape:collect="always"
       id="filter3436">
      <feGaussianBlur
         inkscape:collect="always"
         stdDeviation="3.5652412"
         id="feGaussianBlur3438" />
    </filter>
    <filter
       inkscape:collect="always"
       x="-0.095851988"
       width="1.191704"
       y="-0.16614439"
       height="1.3322887"
       id="filter3480">
      <feGaussianBlur
         inkscape:collect="always"
         stdDeviation="15.690374"
         id="feGaussianBlur3482" />
    </filter>
    <linearGradient
       inkscape:collect="always"
       xlink:href="#linearGradient3452"
       id="linearGradient3612"
       gradientUnits="userSpaceOnUse"
       x1="454.24945"
       y1="708.9259"
       x2="423.79697"
       y2="634.73743" />
    <linearGradient
       inkscape:collect="always"
       xlink:href="#linearGradient3412"
       id="linearGradient3614"
       gradientUnits="userSpaceOnUse"
       gradientTransform="translate(1.0414277,2.0828554)"
       x1="555.08099"
       y1="689.94531"
       x2="532.16956"
       y2="725.33588" />
    <linearGradient
       inkscape:collect="always"
       xlink:href="#linearGradient3250"
       id="linearGradient3616"
       gradientUnits="userSpaceOnUse"
       gradientTransform="translate(0,4.1728478)"
       x1="526.82202"
       y1="478.59561"
       x2="489.34393"
       y2="524.49695" />
    <radialGradient
       inkscape:collect="always"
       xlink:href="#linearGradient3260"
       id="radialGradient3618"
       gradientUnits="userSpaceOnUse"
       gradientTransform="matrix(0.2049923,0.3308668,-1.1674545,0.72331,1014.1163,75.477819)"
       cx="328.14725"
       cy="645.19574"
       fx="328.14725"
       fy="645.19574"
       r="119.41743" />
    <linearGradient
       inkscape:collect="always"
       xlink:href="#linearGradient3348"
       id="linearGradient3620"
       gradientUnits="userSpaceOnUse"
       gradientTransform="translate(-2.0828554,2.0828554)"
       x1="335.07855"
       y1="731.28638"
       x2="316.42657"
       y2="747.94922" />
    <filter
       inkscape:collect="always"
       x="-0.025338983"
       width="1.050678"
       y="-0.21496648"
       height="1.429933"
       id="filter4697">
      <feGaussianBlur
         inkscape:collect="always"
         stdDeviation="12.13659"
         id="feGaussianBlur4699" />
    </filter>
  </defs>
  <sodipodi:namedview
     id="base"
     pagecolor="#ffffff"
     bordercolor="#666666"
     borderopacity="1.0"
     inkscape:pageopacity="0.0"
     inkscape:pageshadow="2"
     inkscape:zoom="0.43086873"
     inkscape:cx="245.7039"
     inkscape:cy="869.17424"
     inkscape:document-units="px"
     inkscape:current-layer="layer1"
     inkscape:window-width="1291"
     inkscape:window-height="957"
     inkscape:window-x="0"
     inkscape:window-y="0" />
  <metadata
     id="metadata7">
    <rdf:RDF>
      <cc:Work
         rdf:about="">
        <dc:format>image/svg+xml</dc:format>
        <dc:type
           rdf:resource="http://purl.org/dc/dcmitype/StillImage" />
        <dc:title>icône Gcompris</dc:title>
        <dc:date>24 maris 2007</dc:date>
        <dc:creator>
          <cc:Agent>
            <dc:title>Elisa de Castro Guerra</dc:title>
          </cc:Agent>
        </dc:creator>
        <cc:license
           rdf:resource="http://creativecommons.org/licenses/GPL/2.0/" />
      </cc:Work>
      <cc:License
         rdf:about="http://creativecommons.org/licenses/GPL/2.0/">
        <cc:permits
           rdf:resource="http://web.resource.org/cc/Reproduction" />
        <cc:permits
           rdf:resource="http://web.resource.org/cc/Distribution" />
        <cc:requires
           rdf:resource="http://web.resource.org/cc/Notice" />
        <cc:permits
           rdf:resource="http://web.resource.org/cc/DerivativeWorks" />
        <cc:requires
           rdf:resource="http://web.resource.org/cc/ShareAlike" />
        <cc:requires
           rdf:resource="http://web.resource.org/cc/SourceCode" />
      </cc:License>
    </rdf:RDF>
  </metadata>
  <g
     inkscape:label="Calque 1"
     inkscape:groupmode="layer"
     id="layer1"
     style="display:inline"
     transform="translate(455.79673,-1568.6856)" />
  <g
     inkscape:groupmode="layer"
     id="layer2"
     style="display:inline"
     transform="translate(455.79673,-1568.6856)">
    <g
       id="g3580"
       transform="translate(-631.4037,1161.7828)">
      <g
         transform="matrix(1.0102135,0,0,1.019284,-3.8607059,-13.610229)"
         style="fill:#000b00;fill-opacity:1;stroke:none"
         id="g3550">
        <path
           style="fill:#000b00;fill-opacity:1;stroke:none;stroke-width:5;stroke-miterlimit:4;stroke-dasharray:none;stroke-opacity:1"
           d="M 351.46613,585.83886 C 347.83448,557.8062 377.41582,542.84489 394.89391,541.47259 C 438.34108,538.06132 505.06509,600.72138 496.8026,616.80573 C 483.74079,642.23275 436.45181,666.26393 419.37429,667.32356 C 401.42371,668.43737 349.14796,612.33699 351.46613,585.83886 z "
           id="path3552"
           sodipodi:nodetypes="csssc" />
        <path
           sodipodi:nodetypes="csssssc"
           id="path3554"
           d="M 303.09765,660.18101 C 303.24467,667.2864 441.92159,526.15576 463.6271,532.58384 C 523.3965,550.28453 601.06287,604.60452 590.55813,646.43725 C 577.40127,698.83144 460.38227,737.92681 442.00701,738.78072 C 407.63628,740.37796 241.21921,760.66765 230.04715,751.77943 C 205.09054,731.92458 181.99678,646.1119 239.56744,594.47713 C 256.1016,579.64774 281.13955,633.3315 303.09765,660.18101 z "
           style="fill:#000b00;fill-opacity:1;stroke:none;stroke-width:5;stroke-miterlimit:4;stroke-dasharray:none;stroke-opacity:1" />
        <path
           style="fill:#000b00;fill-opacity:1;stroke:none;stroke-width:5;stroke-miterlimit:4;stroke-dasharray:none;stroke-opacity:1;filter:url(#filter3480)"
           d="M 302.05622,665.38815 C 302.20324,672.49354 465.87443,576.14429 487.57994,582.57237 C 547.34934,600.27306 601.06287,604.60452 590.55813,646.43725 C 577.40127,698.83144 460.38227,737.92681 442.00701,738.78072 C 407.63628,740.37796 241.21921,760.66765 230.04715,751.77943 C 205.09054,731.92458 280.09812,638.53864 302.05622,665.38815 z "
           id="path3556"
           sodipodi:nodetypes="cssssc" />
        <path
           sodipodi:nodetypes="csssc"
           id="path3558"
           d="M 593.96971,738.7098 C 600.03063,766.31929 571.86575,783.80173 554.57376,786.69205 C 511.5892,793.87683 439.65815,737.27029 446.48743,720.52705 C 457.28353,694.05842 502.29823,665.99737 519.21842,663.45344 C 537.00363,660.77945 593.96971,712.11046 593.96971,738.7098 z "
           style="fill:#000b00;fill-opacity:1;stroke:none;stroke-width:5;stroke-miterlimit:4;stroke-dasharray:none;stroke-opacity:1" />
        <path
           style="fill:#000b00;fill-opacity:1;stroke:none;stroke-width:5;stroke-miterlimit:4;stroke-dasharray:none;stroke-opacity:1"
           d="M 355.62558,768.26733 C 356.08725,790.57974 335.63442,796.77168 321.79886,796.35941 C 287.4063,795.33455 255.52628,751.57818 263.38218,739.6576 C 275.80122,720.8129 301.83437,698.90942 315.32888,699.53299 C 329.51327,700.18843 359.70317,747.66639 355.62558,768.26733 z "
           id="path3560"
           sodipodi:nodetypes="csssc" />
        <path
           style="opacity:0.8627451;fill:#000b00;fill-opacity:1;stroke:none;stroke-width:5;stroke-miterlimit:4;stroke-dasharray:none;stroke-opacity:1;filter:url(#filter3436)"
           d="M 595.01114,740.79266 C 601.07206,768.40215 572.90718,785.88459 555.61519,788.77491 C 512.63063,795.95969 440.69958,739.35315 447.52886,722.60991 C 458.32496,696.14128 503.33966,668.08023 520.25985,665.5363 C 538.04506,662.86231 595.01114,714.19332 595.01114,740.79266 z "
           id="path3562"
           sodipodi:nodetypes="csssc" />
        <path
           id="path3564"
           d="M 551.54329,625.06766 L 540.43161,747.29611 L 562.65497,715.98139 L 566.69558,631.12857 L 551.54329,625.06766 z "
           style="fill:#000b00;fill-opacity:1;fill-rule:evenodd;stroke:none;stroke-width:2.0999999;stroke-linecap:butt;stroke-linejoin:miter;stroke-miterlimit:4;stroke-dasharray:none;stroke-opacity:1" />
        <path
           sodipodi:nodetypes="csssc"
           id="path3566"
           d="M 471.95244,570.13899 C 471.95244,586.90299 462.81065,584.60114 443.91778,598.08098 C 440.82784,600.28562 390.04431,584.54341 400.80084,576.21291 C 411.26767,568.10677 421.65046,556.61169 439.4136,546.71103 C 460.54148,534.93496 471.95244,553.37497 471.95244,570.13899 z "
           style="fill:#000b00;fill-opacity:1;stroke:none;stroke-width:4.15880203;stroke-miterlimit:4;stroke-opacity:1" />
        <path
           id="path3568"
           d="M 393.34375,412.5625 C 371.62507,412.18028 335.82755,432.78108 340.40625,451.8125 C 345.96023,474.89766 372.55177,510.78002 407.15625,546.03125 C 407.16139,546.03648 407.18236,546.02602 407.1875,546.03125 C 412.41167,543.61996 418.42108,542.25 424.78125,542.25 C 445.13381,542.24997 461.625,556.27676 461.625,573.5625 C 461.625,579.81975 459.47729,585.63847 455.75,590.53125 C 503.73255,630.02524 555.29676,659.87243 586.40625,655.375 C 607.89084,652.26903 633.36564,635.193 637.40625,614.46875 C 634.37579,559.39927 487.37918,427.98184 397.5,412.9375 C 396.19333,412.71878 394.79166,412.58798 393.34375,412.5625 z "
           style="fill:#000b00;fill-opacity:1;fill-rule:evenodd;stroke:none;stroke-width:4.9000001;stroke-linecap:butt;stroke-linejoin:miter;stroke-miterlimit:4;stroke-dasharray:none;stroke-opacity:1" />
        <path
           style="fill:#000b00;fill-opacity:1;fill-rule:evenodd;stroke:none;stroke-width:4.9000001;stroke-linecap:butt;stroke-linejoin:miter;stroke-miterlimit:4;stroke-dasharray:none;stroke-opacity:1;filter:url(#filter3340)"
           d="M 394.39037,416.73533 C 372.76483,416.35475 337.12082,436.8672 341.67989,455.81701 C 347.21005,478.80317 373.68756,514.53166 408.14364,549.63172 C 408.14876,549.63692 408.16964,549.62651 408.17476,549.63172 C 413.37653,547.23077 419.36016,545.86668 425.69306,545.86668 C 445.95834,545.86665 462.37881,559.83329 462.37881,577.0449 C 462.37881,583.27532 460.24031,589.06909 456.52901,593.94089 C 504.30579,633.26551 555.64887,662.98471 586.62496,658.50656 C 608.01741,655.41391 633.38297,638.41111 637.40625,617.77573 C 634.38879,562.94241 488.02255,432.08854 398.5288,417.10872 C 397.22773,416.89094 395.83208,416.7607 394.39037,416.73533 z "
           id="path3570" />
        <path
           sodipodi:nodetypes="cccc"
           id="path3572"
           d="M 224.35124,735.1972 C 224.35124,735.1972 429.28172,635.0774 463.18611,601.69462 C 431.10734,605.86747 403.46222,593.34893 395.37733,585.00323 C 350.25841,621.51565 224.35124,735.1972 224.35124,735.1972 z "
           style="opacity:0.86601305;fill:#000b00;fill-opacity:1;fill-rule:evenodd;stroke:none;stroke-width:1px;stroke-linecap:butt;stroke-linejoin:miter;stroke-opacity:1;filter:url(#filter3288)" />
        <path
           sodipodi:nodetypes="csssc"
           id="path3574"
           d="M 353.54272,770.35019 C 354.00439,792.6626 333.55156,798.85454 319.716,798.44227 C 285.32344,797.41741 253.44342,753.66104 261.29932,741.74046 C 273.71836,722.89576 299.75151,700.99228 313.24602,701.61585 C 327.43041,702.27129 357.62031,749.74925 353.54272,770.35019 z "
           style="opacity:0.78431373;fill:#000b00;fill-opacity:1;stroke:none;stroke-width:5;stroke-miterlimit:4;stroke-dasharray:none;stroke-opacity:1;filter:url(#filter3406)" />
        <path
           id="path3576"
           d="M 397.12613,415.64463 C 376.18093,415.27602 341.76389,434.98452 345.59423,453.35979 C 352.20065,439.09611 377.32606,426.4691 393.78582,426.75876 C 395.13828,426.78257 396.4522,426.91886 397.67273,427.12316 C 481.62652,441.17569 618.91622,563.92592 621.74689,615.36488 C 618.44443,632.30311 599.80455,646.63453 581.75425,651.89574 C 582.76795,651.82342 583.7569,651.73278 584.73016,651.59208 C 605.60731,648.57391 630.36186,631.98068 634.28823,611.84237 C 631.34345,558.32986 488.50289,430.62802 401.16487,416.00903 C 399.89514,415.79648 398.5331,415.66939 397.12613,415.64463 z "
           style="opacity:0.82352941;fill:#000b00;fill-opacity:1;fill-rule:evenodd;stroke:none;stroke-width:4.9000001;stroke-linecap:butt;stroke-linejoin:miter;stroke-miterlimit:4;stroke-dasharray:none;stroke-opacity:1" />
        <path
           sodipodi:nodetypes="cscscc"
           id="path3578"
           d="M 247.26178,596.34062 C 245.31824,596.44525 243.45562,597.22569 241.69538,598.80444 C 186.15339,648.61971 207.73976,731.10677 231.77926,751.37878 C 211.89182,721.86201 200.68238,652.24145 249.81686,608.17304 C 255.26315,603.28829 261.64887,606.06436 268.55406,612.85734 C 260.89155,602.94193 253.6329,595.99765 247.26178,596.34062 z "
           style="fill:#000b00;fill-opacity:1;stroke:none;stroke-width:5;stroke-miterlimit:4;stroke-dasharray:none;stroke-opacity:1" />
      </g>
      <g
         id="g3534">
        <path
           sodipodi:nodetypes="csssc"
           id="path3532"
           d="M 351.46613,585.83886 C 347.83448,557.8062 377.41582,542.84489 394.89391,541.47259 C 438.34108,538.06132 505.06509,600.72138 496.8026,616.80573 C 483.74079,642.23275 436.45181,666.26393 419.37429,667.32356 C 401.42371,668.43737 349.14796,612.33699 351.46613,585.83886 z "
           style="fill:#ffb400;fill-opacity:1;stroke:#000000;stroke-width:5;stroke-miterlimit:4;stroke-dasharray:none;stroke-opacity:1" />
        <path
           style="fill:#ffa900;fill-opacity:1;stroke:#000000;stroke-width:5;stroke-miterlimit:4;stroke-dasharray:none;stroke-opacity:1"
           d="M 303.09765,660.18101 C 303.24467,667.2864 441.92159,526.15576 463.6271,532.58384 C 523.3965,550.28453 601.06287,604.60452 590.55813,646.43725 C 577.40127,698.83144 460.38227,737.92681 442.00701,738.78072 C 407.63628,740.37796 241.21921,760.66765 230.04715,751.77943 C 205.09054,731.92458 181.99678,646.1119 239.56744,594.47713 C 256.1016,579.64774 281.13955,633.3315 303.09765,660.18101 z "
           id="path3243"
           sodipodi:nodetypes="csssssc" />
        <path
           sodipodi:nodetypes="cssssc"
           id="path3450"
           d="M 302.05622,665.38815 C 302.20324,672.49354 465.87443,576.14429 487.57994,582.57237 C 547.34934,600.27306 601.06287,604.60452 590.55813,646.43725 C 577.40127,698.83144 460.38227,737.92681 442.00701,738.78072 C 407.63628,740.37796 241.21921,760.66765 230.04715,751.77943 C 205.09054,731.92458 280.09812,638.53864 302.05622,665.38815 z "
           style="fill:url(#linearGradient3612);fill-opacity:1;stroke:#000000;stroke-width:5;stroke-miterlimit:4;stroke-dasharray:none;stroke-opacity:1;filter:url(#filter3480)" />
        <path
           style="fill:#ffb400;fill-opacity:1;stroke:#000000;stroke-width:5;stroke-miterlimit:4;stroke-dasharray:none;stroke-opacity:1"
           d="M 593.96971,738.7098 C 600.03063,766.31929 571.86575,783.80173 554.57376,786.69205 C 511.5892,793.87683 439.65815,737.27029 446.48743,720.52705 C 457.28353,694.05842 502.29823,665.99737 519.21842,663.45344 C 537.00363,660.77945 593.96971,712.11046 593.96971,738.7098 z "
           id="path3238"
           sodipodi:nodetypes="csssc" />
        <path
           sodipodi:nodetypes="csssc"
           id="path3241"
           d="M 355.62558,768.26733 C 356.08725,790.57974 335.63442,796.77168 321.79886,796.35941 C 287.4063,795.33455 255.52628,751.57818 263.38218,739.6576 C 275.80122,720.8129 301.83437,698.90942 315.32888,699.53299 C 329.51327,700.18843 359.70317,747.66639 355.62558,768.26733 z "
           style="fill:#ffb400;fill-opacity:1;stroke:#000000;stroke-width:5;stroke-miterlimit:4;stroke-dasharray:none;stroke-opacity:1" />
        <path
           sodipodi:nodetypes="csssc"
           id="path3410"
           d="M 595.01114,740.79266 C 601.07206,768.40215 572.90718,785.88459 555.61519,788.77491 C 512.63063,795.95969 440.69958,739.35315 447.52886,722.60991 C 458.32496,696.14128 503.33966,668.08023 520.25985,665.5363 C 538.04506,662.86231 595.01114,714.19332 595.01114,740.79266 z "
           style="opacity:0.8627451;fill:url(#linearGradient3614);fill-opacity:1;stroke:none;stroke-width:5;stroke-miterlimit:4;stroke-dasharray:none;stroke-opacity:1;filter:url(#filter3436)" />
        <path
           style="fill:#ffb400;fill-opacity:1;fill-rule:evenodd;stroke:#000000;stroke-width:2.0999999;stroke-linecap:butt;stroke-linejoin:miter;stroke-miterlimit:4;stroke-dasharray:none;stroke-opacity:1"
           d="M 551.54329,625.06766 L 540.43161,747.29611 L 562.65497,715.98139 L 566.69558,631.12857 L 551.54329,625.06766 z "
           id="path3236" />
        <path
           style="fill:#241c1c;fill-opacity:1;stroke:#000000;stroke-width:4.15880203;stroke-miterlimit:4;stroke-opacity:1"
           d="M 471.95244,570.13899 C 471.95244,586.90299 462.81065,584.60114 443.91778,598.08098 C 440.82784,600.28562 390.04431,584.54341 400.80084,576.21291 C 411.26767,568.10677 421.65046,556.61169 439.4136,546.71103 C 460.54148,534.93496 471.95244,553.37497 471.95244,570.13899 z "
           id="path3245"
           sodipodi:nodetypes="csssc" />
        <path
           style="fill:#ffa900;fill-opacity:1;fill-rule:evenodd;stroke:#000000;stroke-width:4.9000001;stroke-linecap:butt;stroke-linejoin:miter;stroke-miterlimit:4;stroke-dasharray:none;stroke-opacity:1"
           d="M 393.34375,412.5625 C 371.62507,412.18028 335.82755,432.78108 340.40625,451.8125 C 345.96023,474.89766 372.55177,510.78002 407.15625,546.03125 C 407.16139,546.03648 407.18236,546.02602 407.1875,546.03125 C 412.41167,543.61996 418.42108,542.25 424.78125,542.25 C 445.13381,542.24997 461.625,556.27676 461.625,573.5625 C 461.625,579.81975 459.47729,585.63847 455.75,590.53125 C 503.73255,630.02524 555.29676,659.87243 586.40625,655.375 C 607.89084,652.26903 633.36564,635.193 637.40625,614.46875 C 634.37579,559.39927 487.37918,427.98184 397.5,412.9375 C 396.19333,412.71878 394.79166,412.58798 393.34375,412.5625 z "
           id="path2221" />
        <path
           id="path3248"
           d="M 394.39037,416.73533 C 372.76483,416.35475 337.12082,436.8672 341.67989,455.81701 C 347.21005,478.80317 373.68756,514.53166 408.14364,549.63172 C 408.14876,549.63692 408.16964,549.62651 408.17476,549.63172 C 413.37653,547.23077 419.36016,545.86668 425.69306,545.86668 C 445.95834,545.86665 462.37881,559.83329 462.37881,577.0449 C 462.37881,583.27532 460.24031,589.06909 456.52901,593.94089 C 504.30579,633.26551 555.64887,662.98471 586.62496,658.50656 C 608.01741,655.41391 633.38297,638.41111 637.40625,617.77573 C 634.38879,562.94241 488.02255,432.08854 398.5288,417.10872 C 397.22773,416.89094 395.83208,416.7607 394.39037,416.73533 z "
           style="fill:url(#linearGradient3616);fill-opacity:1;fill-rule:evenodd;stroke:none;stroke-width:4.9000001;stroke-linecap:butt;stroke-linejoin:miter;stroke-miterlimit:4;stroke-dasharray:none;stroke-opacity:1;filter:url(#filter3340)" />
        <path
           style="opacity:0.86601305;fill:url(#radialGradient3618);fill-opacity:1;fill-rule:evenodd;stroke:none;stroke-width:1px;stroke-linecap:butt;stroke-linejoin:miter;stroke-opacity:1;filter:url(#filter3288)"
           d="M 224.35124,735.1972 C 224.35124,735.1972 429.28172,635.0774 463.18611,601.69462 C 431.10734,605.86747 403.46222,593.34893 395.37733,585.00323 C 350.25841,621.51565 224.35124,735.1972 224.35124,735.1972 z "
           id="path3258"
           sodipodi:nodetypes="cccc" />
        <path
           style="opacity:0.78431373;fill:url(#linearGradient3620);fill-opacity:1;stroke:none;stroke-width:5;stroke-miterlimit:4;stroke-dasharray:none;stroke-opacity:1;filter:url(#filter3406)"
           d="M 353.54272,770.35019 C 354.00439,792.6626 333.55156,798.85454 319.716,798.44227 C 285.32344,797.41741 253.44342,753.66104 261.29932,741.74046 C 273.71836,722.89576 299.75151,700.99228 313.24602,701.61585 C 327.43041,702.27129 357.62031,749.74925 353.54272,770.35019 z "
           id="path3346"
           sodipodi:nodetypes="csssc" />
        <path
           style="opacity:0.82352941;fill:#fcd23e;fill-opacity:1;fill-rule:evenodd;stroke:none;stroke-width:4.9000001;stroke-linecap:butt;stroke-linejoin:miter;stroke-miterlimit:4;stroke-dasharray:none;stroke-opacity:1"
           d="M 397.12613,415.64463 C 376.18093,415.27602 341.76389,434.98452 345.59423,453.35979 C 352.20065,439.09611 377.32606,426.4691 393.78582,426.75876 C 395.13828,426.78257 396.4522,426.91886 397.67273,427.12316 C 481.62652,441.17569 618.91622,563.92592 621.74689,615.36488 C 618.44443,632.30311 599.80455,646.63453 581.75425,651.89574 C 582.76795,651.82342 583.7569,651.73278 584.73016,651.59208 C 605.60731,648.57391 630.36186,631.98068 634.28823,611.84237 C 631.34345,558.32986 488.50289,430.62802 401.16487,416.00903 C 399.89514,415.79648 398.5331,415.66939 397.12613,415.64463 z "
           id="path3440" />
        <path
           style="fill:#fdcd3b;fill-opacity:1;stroke:none;stroke-width:5;stroke-miterlimit:4;stroke-dasharray:none;stroke-opacity:1"
           d="M 247.26178,596.34062 C 245.31824,596.44525 243.45562,597.22569 241.69538,598.80444 C 186.15339,648.61971 207.73976,731.10677 231.77926,751.37878 C 211.89182,721.86201 200.68238,652.24145 249.81686,608.17304 C 255.26315,603.28829 261.64887,606.06436 268.55406,612.85734 C 260.89155,602.94193 253.6329,595.99765 247.26178,596.34062 z "
           id="path3445"
           sodipodi:nodetypes="cscscc" />
      </g>
    </g>
    <g
       id="g4701"
       transform="matrix(0.5353055,0,0,0.5353055,797.08184,1909.2362)">
      <g
         id="g4661">
        <text
           xml:space="preserve"
           style="font-size:144px;font-style:normal;font-variant:normal;font-weight:normal;font-stretch:normal;text-align:start;line-height:125%;writing-mode:lr-tb;text-anchor:start;fill:#cc0000;fill-opacity:1;stroke:none;stroke-width:1px;stroke-linecap:butt;stroke-linejoin:miter;stroke-opacity:1;font-family:Arial Black"
           x="-2293.3032"
           y="184.69954"
           id="text3622"
           sodipodi:linespacing="125%"><tspan
             sodipodi:role="line"
             id="tspan3624"
             x="-2293.3032"
             y="184.69954">Gcompris</tspan></text>
        <path
           style="font-size:144px;font-style:normal;font-variant:normal;font-weight:normal;font-stretch:normal;text-align:start;line-height:125%;writing-mode:lr-tb;text-anchor:start;fill:#ef2929;fill-opacity:1;stroke:none;stroke-width:1px;stroke-linecap:butt;stroke-linejoin:miter;stroke-opacity:1;font-family:Arial Black"
           d="M -2230.0353,79.848563 C -2241.8479,79.848663 -2251.2385,81.520543 -2258.2228,84.848563 C -2267.176,89.161163 -2273.9884,95.504903 -2278.6291,103.84856 C -2283.2697,112.14551 -2285.5666,121.91112 -2285.5665,133.16106 C -2285.5666,133.93652 -2285.5888,134.71094 -2285.5665,135.47356 C -2285.4281,124.65795 -2283.1269,115.2339 -2278.6291,107.19231 C -2273.9884,98.848653 -2267.176,92.504913 -2258.2228,88.192313 C -2251.2385,84.864293 -2241.8479,83.223663 -2230.0353,83.223563 C -2218.6447,83.223663 -2210.1291,84.254913 -2204.5041,86.317313 C -2198.8323,88.379913 -2194.1448,91.583033 -2190.4415,95.942313 C -2187.3053,99.549193 -2184.8289,103.97734 -2183.0041,109.22356 L -2182.0041,109.03606 C -2183.8792,102.37989 -2186.6917,96.911153 -2190.4415,92.598563 C -2194.1448,88.239283 -2198.8323,85.004913 -2204.5041,82.942313 C -2210.1291,80.879913 -2218.6447,79.848663 -2230.0353,79.848563 z M -1665.9728,81.629813 L -1665.9728,84.973563 L -1637.3791,84.973563 L -1637.3791,81.629813 L -1665.9728,81.629813 z M -2123.3791,108.34856 C -2132.0978,108.34864 -2139.2385,109.48926 -2144.8165,111.78606 C -2148.3322,113.23926 -2151.7384,115.47363 -2155.0665,118.47356 C -2158.3947,121.42675 -2161.0197,124.75487 -2162.9415,128.50481 C -2165.5666,133.61424 -2166.8791,140.0361 -2166.8791,147.72356 C -2166.8791,148.47236 -2166.8701,149.19235 -2166.8478,149.91106 C -2166.7198,142.74438 -2165.4316,136.72664 -2162.9415,131.87981 C -2161.0197,128.12987 -2158.3947,124.7705 -2155.0665,121.81731 C -2151.7384,118.81738 -2148.3322,116.58301 -2144.8165,115.12981 C -2139.2385,112.83301 -2132.0978,111.69239 -2123.3791,111.69231 C -2111.1916,111.69239 -2101.9104,113.86426 -2095.5353,118.22356 C -2089.952,122.01381 -2085.807,127.32361 -2083.1291,134.16106 L -2082.0353,134.00481 C -2084.6135,125.61424 -2089.1135,119.23925 -2095.5353,114.87981 C -2101.9104,110.52051 -2111.1916,108.34864 -2123.3791,108.34856 z M -2028.0978,108.34856 C -2041.176,108.34864 -2051.5666,112.03613 -2059.2541,119.44231 C -2066.9416,126.80174 -2070.7853,136.17673 -2070.7853,147.56731 C -2070.7853,148.15402 -2070.7437,148.74138 -2070.7228,149.31731 C -2070.3744,138.65149 -2066.5757,129.79527 -2059.2541,122.78606 C -2051.5666,115.37988 -2041.176,111.69239 -2028.0978,111.69231 C -2013.1447,111.69239 -2001.8322,116.02051 -1994.1915,124.69231 C -1988.4348,131.24021 -1985.3952,139.20804 -1985.0353,148.59856 C -1985.0216,148.12033 -1985.0041,147.64666 -1985.0041,147.16106 C -1985.0041,136.94236 -1988.051,128.33299 -1994.1915,121.34856 C -2001.8322,112.67676 -2013.1447,108.34864 -2028.0978,108.34856 z M -1918.3478,108.34856 C -1923.8791,108.34864 -1928.5979,109.30176 -1932.5353,111.22356 C -1936.426,113.14551 -1940.2853,116.36425 -1944.1291,120.91106 L -1944.1291,124.28606 C -1940.2853,119.73925 -1936.426,116.48926 -1932.5353,114.56731 C -1928.5979,112.64551 -1923.8791,111.69239 -1918.3478,111.69231 C -1912.3947,111.69239 -1907.6604,112.73926 -1904.1915,114.84856 C -1900.7229,116.95801 -1897.8948,120.11425 -1895.6915,124.28606 C -1891.1916,119.41113 -1887.0823,116.08301 -1883.3791,114.34856 C -1879.676,112.56739 -1875.1292,111.69239 -1869.6915,111.69231 C -1861.676,111.69239 -1855.4104,114.06738 -1850.9103,118.84856 C -1846.4104,123.583 -1844.1604,131.03612 -1844.1603,141.16106 L -1844.1603,137.78606 C -1844.1604,127.66112 -1846.4104,120.23925 -1850.9103,115.50481 C -1855.4104,110.72363 -1861.676,108.34864 -1869.6915,108.34856 C -1875.1292,108.34864 -1879.676,109.22364 -1883.3791,111.00481 C -1887.0823,112.73926 -1891.1916,116.03613 -1895.6915,120.91106 C -1897.8948,116.73925 -1900.7229,113.61426 -1904.1915,111.50481 C -1907.6604,109.39551 -1912.3947,108.34864 -1918.3478,108.34856 z M -1776.0978,108.34856 C -1781.1604,108.34864 -1785.7697,109.42676 -1789.9415,111.62981 C -1793.0353,113.27051 -1796.426,116.42675 -1800.1291,121.06731 L -1800.1291,124.41106 C -1796.426,119.7705 -1793.0353,116.64551 -1789.9415,115.00481 C -1785.7697,112.80176 -1781.1604,111.69239 -1776.0978,111.69231 C -1766.1135,111.69239 -1758.4104,115.52051 -1752.9728,123.16106 C -1747.8313,130.3242 -1745.0755,139.07571 -1744.7541,149.41106 C -1744.7469,148.98787 -1744.7228,148.56002 -1744.7228,148.12981 C -1744.7229,136.87986 -1747.4885,127.42674 -1752.9728,119.78606 C -1758.4104,112.14551 -1766.1135,108.34864 -1776.0978,108.34856 z M -1685.6603,108.34856 C -1689.6916,108.34864 -1693.1135,109.33301 -1695.8791,111.34856 C -1698.5978,113.31738 -1701.2385,116.958 -1703.8165,122.25481 L -1703.8165,125.59856 C -1701.2385,120.30175 -1698.5978,116.69238 -1695.8791,114.72356 C -1693.1135,112.70801 -1689.6916,111.69239 -1685.6603,111.69231 C -1681.7756,111.69238 -1677.5646,112.81029 -1673.0041,115.03606 L -1671.8165,112.28606 C -1676.8322,109.66114 -1681.4416,108.34864 -1685.6603,108.34856 z M -1584.5665,108.34856 C -1593.0041,108.34864 -1599.7385,109.22364 -1604.7541,111.00481 C -1609.7697,112.73926 -1613.7072,115.37988 -1616.5665,118.94231 C -1619.4259,122.50487 -1620.8478,126.77049 -1620.8478,131.69231 C -1620.8478,132.21242 -1620.8204,132.7166 -1620.7853,133.22356 C -1620.4726,129.06564 -1619.0685,125.43455 -1616.5665,122.31731 C -1613.7072,118.75488 -1609.7697,116.08301 -1604.7541,114.34856 C -1599.7385,112.56739 -1593.0041,111.69239 -1584.5665,111.69231 C -1575.6604,111.69239 -1569.0979,112.36426 -1564.8791,113.72356 C -1560.6135,115.08301 -1557.0666,117.20801 -1554.2541,120.06731 C -1552.0559,122.26559 -1550.1518,125.05283 -1548.5353,128.44231 L -1547.1603,128.31731 C -1549.0354,123.44237 -1551.3948,119.55175 -1554.2541,116.69231 C -1557.0666,113.83301 -1560.6135,111.73926 -1564.8791,110.37981 C -1569.0979,109.02051 -1575.6604,108.34864 -1584.5665,108.34856 z M -1970.8478,110.03606 L -1970.8478,113.37981 L -1944.1291,113.37981 L -1944.1291,110.03606 L -1970.8478,110.03606 z M -1826.9415,110.03606 L -1826.9415,113.37981 L -1800.1291,113.37981 L -1800.1291,110.03606 L -1826.9415,110.03606 z M -1730.5978,110.03606 L -1730.5978,113.37981 L -1703.8165,113.37981 L -1703.8165,110.03606 L -1730.5978,110.03606 z M -1665.9728,110.03606 L -1665.9728,113.37981 L -1637.3791,113.37981 L -1637.3791,110.03606 L -1665.9728,110.03606 z M -2229.8165,125.91106 L -2229.8165,129.25481 L -2180.5978,129.25481 L -2180.5978,125.91106 L -2229.8165,125.91106 z M -1594.9415,130.97356 C -1595.1459,131.51628 -1595.2541,132.10835 -1595.2541,132.72356 C -1595.2541,134.55174 -1594.3166,135.91111 -1592.4415,136.84856 C -1590.5666,137.78611 -1586.4728,138.62986 -1580.1915,139.37981 C -1570.676,140.45798 -1563.6135,141.95798 -1558.9728,143.87981 C -1554.3322,145.80173 -1550.7854,148.56735 -1548.3478,152.12981 C -1546.2048,155.20294 -1544.986,158.53352 -1544.6915,162.12981 C -1544.6505,161.59441 -1544.6291,161.04387 -1544.6291,160.50481 C -1544.6291,156.23921 -1545.8635,152.31734 -1548.3478,148.75481 C -1550.7854,145.19235 -1554.3322,142.45798 -1558.9728,140.53606 C -1563.6135,138.61423 -1570.676,137.11423 -1580.1915,136.03606 C -1586.4728,135.28611 -1590.5666,134.44236 -1592.4415,133.50481 C -1593.7171,132.86707 -1594.5338,132.02353 -1594.9415,130.97356 z M -2253.6291,134.84856 C -2253.6364,135.283 -2253.6603,135.71645 -2253.6603,136.16106 C -2253.6603,147.31735 -2251.5822,155.28609 -2247.4103,160.06731 C -2243.1916,164.84858 -2237.3166,167.22358 -2229.8165,167.22356 C -2226.2541,167.22358 -2222.8635,166.72358 -2219.6291,165.69231 C -2216.3948,164.66108 -2212.676,162.89546 -2208.5041,160.41106 L -2208.5041,157.06731 C -2212.676,159.55171 -2216.3948,161.31733 -2219.6291,162.34856 C -2222.8635,163.37983 -2226.2541,163.87983 -2229.8165,163.87981 C -2237.3166,163.87983 -2243.1916,161.50483 -2247.4103,156.72356 C -2251.3215,152.24117 -2253.3846,144.93404 -2253.6291,134.84856 z M -1773.3791,148.69231 C -1773.5672,154.33309 -1774.68,158.43138 -1776.7228,160.94231 C -1778.9729,163.66108 -1781.7697,165.00483 -1785.0978,165.00481 C -1788.8947,165.00483 -1792.0197,163.58296 -1794.5041,160.72356 C -1796.7545,158.13349 -1798.0109,154.28243 -1798.2228,149.19231 C -1798.2438,149.75806 -1798.2541,150.31458 -1798.2541,150.91106 C -1798.2541,156.81734 -1796.9885,161.20796 -1794.5041,164.06731 C -1792.0197,166.92671 -1788.8947,168.34858 -1785.0978,168.34856 C -1781.7697,168.34858 -1778.9729,167.00483 -1776.7228,164.28606 C -1774.4729,161.52046 -1773.3479,156.84859 -1773.3478,150.28606 C -1773.3478,149.73551 -1773.3596,149.21605 -1773.3791,148.69231 z M -2013.7853,148.94231 C -2013.9952,154.98554 -2015.3118,159.47781 -2017.7541,162.34856 C -2020.3791,165.4892 -2023.7541,167.03608 -2027.8791,167.03606 C -2031.9572,167.03608 -2035.3478,165.44233 -2038.0665,162.25481 C -2040.5043,159.3467 -2041.8529,154.98782 -2042.0665,149.19231 C -2042.0872,149.73862 -2042.0978,150.27662 -2042.0978,150.84856 C -2042.0978,157.50484 -2040.7385,162.44234 -2038.0665,165.62981 C -2035.3478,168.81733 -2031.9572,170.41108 -2027.8791,170.41106 C -2023.7541,170.41108 -2020.3791,168.83295 -2017.7541,165.69231 C -2015.0822,162.55171 -2013.7541,157.50484 -2013.7541,150.56731 C -2013.7541,150.0068 -2013.7652,149.47783 -2013.7853,148.94231 z M -2138.3791,150.06731 C -2138.4021,150.65301 -2138.4103,151.23498 -2138.4103,151.84856 C -2138.4103,157.98922 -2136.9728,162.62984 -2134.0665,165.81731 C -2131.1603,169.00483 -2127.4416,170.59858 -2122.9415,170.59856 C -2119.1916,170.59858 -2116.0666,169.64545 -2113.5353,167.72356 C -2110.9572,165.80171 -2109.0197,162.86421 -2107.7541,158.87981 L -2081.5665,161.84856 C -2081.1977,160.7923 -2080.83,159.7127 -2080.5353,158.59856 L -2107.7541,155.50481 C -2109.0197,159.48921 -2110.9572,162.45796 -2113.5353,164.37981 C -2116.0666,166.3017 -2119.1916,167.25483 -2122.9415,167.25481 C -2127.4416,167.25483 -2131.1603,165.66108 -2134.0665,162.47356 C -2136.7156,159.56825 -2138.1446,155.4261 -2138.3791,150.06731 z M -1595.5978,161.34856 L -1624.0041,164.03606 C -1623.745,165.16845 -1623.4284,166.23547 -1623.0665,167.28606 L -1595.5978,164.69231 C -1594.426,168.06733 -1592.801,170.4892 -1590.6915,171.94231 C -1588.5822,173.39545 -1585.7697,174.12982 -1582.2541,174.12981 C -1578.4103,174.12982 -1575.426,173.3017 -1573.3165,171.66106 C -1571.676,170.44233 -1570.8479,168.9267 -1570.8478,167.09856 C -1570.8478,166.52117 -1570.9601,165.97748 -1571.1291,165.47356 C -1571.4947,166.55285 -1572.2261,167.50725 -1573.3165,168.31731 C -1575.426,169.95795 -1578.4103,170.78607 -1582.2541,170.78606 C -1585.7697,170.78607 -1588.5822,170.0517 -1590.6915,168.59856 C -1592.801,167.14545 -1594.426,164.72358 -1595.5978,161.34856 z "
           id="text4636" />
        <path
           style="font-size:144px;font-style:normal;font-variant:normal;font-weight:normal;font-stretch:normal;text-align:start;line-height:125%;writing-mode:lr-tb;text-anchor:start;fill:#a40000;fill-opacity:1;stroke:none;stroke-width:1px;stroke-linecap:butt;stroke-linejoin:miter;stroke-opacity:1;font-family:Arial Black"
           d="M -1642.9603,81.634509 L -1642.9603,97.759509 L -1668.2103,97.759509 L -1668.2103,101.10326 L -1639.5853,101.10326 L -1639.5853,81.634509 L -1642.9603,81.634509 z M -2196.0229,89.228259 C -2192.273,93.540849 -2189.4605,99.040839 -2187.5853,105.69701 L -2216.5853,110.85326 C -2215.9414,111.9729 -2215.3946,113.20595 -2214.9603,114.54076 L -2184.2416,109.04076 C -2186.1167,102.38459 -2188.9292,96.915839 -2192.6791,92.603259 C -2193.7111,91.388489 -2194.838,90.264689 -2196.0229,89.228259 z M -2236.3041,99.165759 C -2243.2885,99.165839 -2248.8823,101.60334 -2253.0541,106.47826 C -2257.1791,111.30646 -2259.2416,118.94707 -2259.2416,129.44701 C -2259.2416,140.6033 -2257.1635,148.57204 -2252.9916,153.35326 C -2252.195,154.25607 -2251.3114,155.05842 -2250.3979,155.79076 C -2254.0646,150.93483 -2255.8979,143.28103 -2255.8979,132.82201 C -2255.8979,122.32207 -2253.8354,114.6502 -2249.7103,109.82201 C -2245.5385,104.94709 -2239.9448,102.50959 -2232.9603,102.50951 C -2228.2729,102.50959 -2224.4292,103.54084 -2221.4291,105.60326 C -2221.2474,105.72627 -2221.0732,105.84875 -2220.8979,105.97826 C -2221.9682,104.51363 -2223.268,103.27822 -2224.7729,102.25951 C -2227.7729,100.19709 -2231.6167,99.165839 -2236.3041,99.165759 z M -1949.7103,110.04076 L -1949.7103,117.57201 C -1948.591,116.24796 -1947.4899,115.04847 -1946.3666,113.94701 L -1946.3666,110.04076 L -1949.7103,110.04076 z M -1805.7103,110.04076 L -1805.7103,117.72826 C -1804.5639,116.29157 -1803.4547,115.00242 -1802.3666,113.85326 L -1802.3666,110.04076 L -1805.7103,110.04076 z M -1709.3979,110.04076 L -1709.3979,118.91576 C -1708.2987,116.65745 -1707.1789,114.72537 -1706.0541,113.07201 L -1706.0541,110.04076 L -1709.3979,110.04076 z M -1642.9603,110.04076 L -1642.9603,181.35326 L -1668.2103,181.35326 L -1668.2103,184.69701 L -1639.5853,184.69701 L -1639.5853,110.04076 L -1642.9603,110.04076 z M -1678.0541,110.41576 L -1686.2729,129.32201 C -1689.6479,127.91581 -1692.3042,127.19706 -1694.2729,127.19701 C -1698.0229,127.19706 -1700.9291,128.75956 -1702.9916,131.85326 C -1705.9448,136.21268 -1707.4291,144.36892 -1707.4291,156.32201 L -1707.4291,181.35326 L -1732.8353,181.35326 L -1732.8353,184.69701 L -1704.0853,184.69701 L -1704.0853,159.66576 C -1704.0854,147.71267 -1702.601,139.55643 -1699.6479,135.19701 C -1697.5854,132.10331 -1694.6791,130.57206 -1690.9291,130.57201 C -1688.9604,130.57206 -1686.2729,131.25956 -1682.8979,132.66576 L -1674.0541,112.29076 C -1675.4191,111.57637 -1676.7481,110.93573 -1678.0541,110.41576 z M -1904.2103,113.10326 C -1903.1344,114.43583 -1902.1488,115.91348 -1901.2729,117.57201 C -1901.0304,117.3093 -1900.7943,117.0756 -1900.5541,116.82201 C -1901.6592,115.39607 -1902.8865,114.17277 -1904.2103,113.10326 z M -1855.3979,113.44701 C -1851.6352,118.19811 -1849.7417,125.18858 -1849.7416,134.44701 L -1849.7416,181.35326 L -1875.0853,181.35326 L -1875.0853,184.69701 L -1846.3979,184.69701 L -1846.3979,137.79076 C -1846.398,127.66582 -1848.648,120.24395 -1853.1479,115.50951 C -1853.8538,114.75944 -1854.6054,114.07941 -1855.3979,113.44701 z M -1760.0541,114.50951 C -1759.5324,115.13079 -1759.0396,115.76482 -1758.5541,116.44701 C -1753.0698,124.08769 -1750.3042,133.54081 -1750.3041,144.79076 C -1750.3042,157.21266 -1753.2886,166.69702 -1759.2416,173.25951 C -1765.1948,179.77514 -1772.7104,183.04076 -1781.8041,183.04076 C -1786.2104,183.04076 -1790.2417,182.29076 -1793.8979,180.79076 C -1797.5073,179.29076 -1800.7573,177.05639 -1803.6166,174.10326 L -1803.6166,209.75951 L -1829.1479,209.75951 L -1829.1479,213.10326 L -1800.2729,213.10326 L -1800.2729,177.44701 C -1797.4135,180.40014 -1794.1635,182.63451 -1790.5541,184.13451 C -1786.8979,185.63451 -1782.8667,186.38451 -1778.4603,186.38451 C -1769.3667,186.38451 -1761.8511,183.11888 -1755.8979,176.60326 C -1749.9448,170.04077 -1746.9604,160.5564 -1746.9603,148.13451 C -1746.9604,136.88456 -1749.6948,127.43144 -1755.1791,119.79076 C -1756.6316,117.74974 -1758.2771,116.00532 -1760.0541,114.50951 z M -1558.3353,115.04076 C -1556.1441,117.67932 -1554.2748,120.96091 -1552.7416,124.94701 L -1578.2103,127.47826 C -1577.4933,128.4359 -1576.9283,129.59991 -1576.5229,130.97826 L -1549.3979,128.32201 C -1551.2729,123.44707 -1553.6323,119.55645 -1556.4916,116.69701 C -1557.0707,116.10828 -1557.6946,115.56591 -1558.3353,115.04076 z M -2094.8353,117.10326 C -2091.6451,120.80724 -2089.2549,125.33409 -2087.6166,130.66576 L -2112.6479,133.97826 C -2112.036,135.0444 -2111.5374,136.24976 -2111.1791,137.60326 L -2084.2416,134.00951 C -2086.4107,126.95033 -2089.9457,121.3091 -2094.8353,117.10326 z M -1999.7103,118.07201 C -1993.6093,125.04433 -1990.5854,133.60496 -1990.5853,143.79076 C -1990.5854,155.27516 -1994.3823,164.71265 -2002.0229,172.07201 C -2009.6167,179.38451 -2020.1635,183.04076 -2033.6166,183.04076 C -2045.6166,183.04076 -2055.3041,179.97826 -2062.7103,173.88451 C -2063.1294,173.53676 -2063.5294,173.17971 -2063.9291,172.82201 C -2062.5586,174.37768 -2061.048,175.86409 -2059.3666,177.25951 C -2051.9604,183.35326 -2042.2416,186.38451 -2030.2416,186.38451 C -2016.7885,186.38451 -2006.2729,182.72826 -1998.6791,175.41576 C -1991.0386,168.0564 -1987.2104,158.65016 -1987.2103,147.16576 C -1987.2104,136.94706 -1990.2886,128.33769 -1996.4291,121.35326 C -1997.4579,120.18567 -1998.549,119.08239 -1999.7103,118.07201 z M -1591.5541,120.10326 C -1594.7885,120.10332 -1597.1479,120.68145 -1598.6479,121.85326 C -1600.101,122.97832 -1600.8354,124.36894 -1600.8353,126.00951 C -1600.8354,127.83769 -1599.8979,129.22831 -1598.0229,130.16576 C -1597.8255,130.26443 -1597.5815,130.35042 -1597.3353,130.44701 C -1597.4155,130.10714 -1597.4916,129.7312 -1597.4916,129.35326 C -1597.4916,127.71269 -1596.7573,126.35331 -1595.3041,125.22826 C -1593.8041,124.05645 -1591.4448,123.44707 -1588.2103,123.44701 C -1585.4213,123.44706 -1582.9692,124.01736 -1580.8979,125.16576 C -1581.5539,123.98634 -1582.3835,123.04888 -1583.3979,122.35326 C -1585.6479,120.85332 -1588.3666,120.10332 -1591.5541,120.10326 z M -2128.1166,124.60326 C -2132.851,124.60332 -2136.6948,126.30644 -2139.6479,129.72826 C -2142.5541,133.10331 -2143.9916,138.24393 -2143.9916,145.13451 C -2143.9916,151.27516 -2142.5541,155.94703 -2139.6479,159.13451 C -2138.9213,159.93139 -2138.1303,160.6306 -2137.3041,161.22826 C -2139.5292,158.11622 -2140.6479,153.85133 -2140.6479,148.47826 C -2140.6479,141.58768 -2139.1791,136.4783 -2136.2729,133.10326 C -2133.3198,129.68144 -2129.476,127.94706 -2124.7416,127.94701 C -2121.2721,127.94706 -2118.4808,128.66764 -2116.3353,130.07201 C -2117.1088,128.8767 -2118.0541,127.86891 -2119.1791,127.07201 C -2121.3823,125.43144 -2124.3667,124.60332 -2128.1166,124.60326 z M -2033.2416,124.66576 C -2037.4135,124.66582 -2040.8666,126.30644 -2043.5853,129.54076 C -2046.3041,132.72831 -2047.6791,137.6033 -2047.6791,144.16576 C -2047.6791,150.82204 -2046.3198,155.72829 -2043.6479,158.91576 C -2042.8146,159.89269 -2041.9213,160.707 -2040.9603,161.38451 C -2043.1919,158.19853 -2044.3041,153.59261 -2044.3041,147.50951 C -2044.3041,140.94705 -2042.9604,136.07205 -2040.2416,132.88451 C -2037.5229,129.65019 -2034.0698,128.04081 -2029.8979,128.04076 C -2027.1984,128.0408 -2024.815,128.79253 -2022.7103,130.29076 C -2022.913,130.00837 -2023.1145,129.70665 -2023.3353,129.44701 C -2026.0073,126.25957 -2029.3042,124.66582 -2033.2416,124.66576 z M -2186.1791,125.91576 L -2186.1791,166.50951 C -2195.6011,172.93139 -2203.9448,177.32201 -2211.2103,179.66576 C -2218.4292,181.96263 -2227.0229,183.10326 -2236.9603,183.10326 C -2249.1948,183.10326 -2259.1635,181.02513 -2266.8979,176.85326 C -2269.7807,175.28881 -2272.4337,173.4287 -2274.8353,171.29076 C -2271.607,174.89788 -2267.852,177.8646 -2263.5541,180.19701 C -2255.8198,184.36888 -2245.8198,186.44701 -2233.5853,186.44701 C -2223.6479,186.44701 -2215.0854,185.30638 -2207.8666,183.00951 C -2200.6011,180.66576 -2192.2573,176.27514 -2182.8353,169.85326 L -2182.8353,125.91576 L -2186.1791,125.91576 z M -1791.0229,126.00951 C -1794.6791,126.00957 -1797.7416,127.43144 -1800.1791,130.29076 C -1802.6166,133.15018 -1803.8354,137.80643 -1803.8353,144.22826 C -1803.8354,150.13454 -1802.5698,154.52516 -1800.0853,157.38451 C -1799.3244,158.26034 -1798.5007,158.96445 -1797.6166,159.57201 C -1799.5187,156.73682 -1800.4604,152.74 -1800.4603,147.57201 C -1800.4604,141.15018 -1799.2416,136.52518 -1796.8041,133.66576 C -1794.3666,130.80644 -1791.3354,129.35331 -1787.6791,129.35326 C -1785.5255,129.3533 -1783.6004,129.97017 -1781.8666,131.13451 C -1782.0587,130.85489 -1782.2492,130.54413 -1782.4603,130.29076 C -1784.8042,127.43144 -1787.6479,126.00957 -1791.0229,126.00951 z M -1936.4916,127.29076 C -1939.7729,127.29081 -1942.476,128.52519 -1944.5853,131.00951 C -1946.6948,133.49393 -1947.7416,137.55643 -1947.7416,143.22826 L -1947.7416,181.35326 L -1973.0853,181.35326 L -1973.0853,184.69701 L -1944.3979,184.69701 L -1944.3979,146.60326 C -1944.3979,140.93143 -1943.351,136.83768 -1941.2416,134.35326 C -1939.1323,131.86894 -1936.4291,130.63456 -1933.1479,130.63451 C -1931.5459,130.63455 -1930.1117,130.988 -1928.8353,131.72826 C -1929.4366,130.66435 -1930.2554,129.78048 -1931.2416,129.04076 C -1932.7417,127.86894 -1934.476,127.29081 -1936.4916,127.29076 z M -1887.5541,127.41576 C -1890.9292,127.41581 -1893.6479,128.63456 -1895.7103,131.07201 C -1897.7729,133.50956 -1898.8042,137.43143 -1898.8041,142.82201 L -1898.8041,181.35326 L -1924.1479,181.35326 L -1924.1479,184.69701 L -1895.4603,184.69701 L -1895.4603,146.16576 C -1895.4604,140.77518 -1894.4292,136.8533 -1892.3666,134.41576 C -1890.3042,131.97831 -1887.5854,130.75956 -1884.2103,130.75951 C -1882.6407,130.75954 -1881.2163,131.17007 -1879.9291,131.94701 C -1880.0726,131.71483 -1880.2338,131.49584 -1880.3979,131.29076 C -1882.3198,128.71269 -1884.6948,127.41581 -1887.5541,127.41576 z M -2232.0541,144.00951 L -2232.0541,147.35326 L -2214.0853,147.35326 L -2214.0853,144.00951 L -2232.0541,144.00951 z M -1554.8041,144.22826 C -1554.4953,144.61555 -1554.2089,145.00686 -1553.9291,145.41576 C -1551.4448,148.97829 -1550.2104,152.90016 -1550.2103,157.16576 C -1550.2104,161.47828 -1551.5229,165.6814 -1554.1479,169.75951 C -1556.7261,173.83764 -1560.8354,177.07201 -1566.4603,179.50951 C -1572.0385,181.90013 -1579.6479,183.10326 -1589.3041,183.10326 C -1602.9448,183.10326 -1612.6791,181.15013 -1618.4916,177.25951 C -1619.2123,176.77318 -1619.8978,176.26586 -1620.5541,175.72826 C -1619.0084,177.56462 -1617.2019,179.22737 -1615.1166,180.63451 C -1609.3041,184.52513 -1599.601,186.44701 -1585.9603,186.44701 C -1576.3042,186.44701 -1568.6635,185.27513 -1563.0853,182.88451 C -1557.4604,180.44701 -1553.3823,177.18139 -1550.8041,173.10326 C -1548.1792,169.02515 -1546.8667,164.82203 -1546.8666,160.50951 C -1546.8667,156.24391 -1548.1011,152.32204 -1550.5853,148.75951 C -1551.7462,147.06295 -1553.1436,145.55275 -1554.8041,144.22826 z M -1618.4916,144.50951 C -1615.9462,147.59881 -1612.9053,149.84735 -1609.3666,151.22826 C -1605.476,152.68142 -1598.5541,154.27516 -1588.6166,156.00951 C -1582.4353,157.0978 -1578.4854,158.02591 -1576.7103,158.79076 C -1577.145,157.49464 -1578.1265,156.41333 -1579.6791,155.60326 C -1581.226,154.80641 -1585.3041,153.83766 -1591.9603,152.66576 C -1601.8979,150.93141 -1608.8197,149.33767 -1612.7103,147.88451 C -1614.8106,147.06494 -1616.7413,145.93086 -1618.4916,144.50951 z M -2086.9916,158.13451 C -2088.5072,162.61184 -2090.6924,166.58983 -2093.5229,170.04076 C -2096.9448,174.16577 -2101.3042,177.36889 -2106.6479,179.66576 C -2111.9448,181.96263 -2118.6948,183.10326 -2126.8979,183.10326 C -2134.8198,183.10326 -2141.4448,182.36888 -2146.7416,180.91576 C -2151.9916,179.41576 -2156.5072,177.04076 -2160.3041,173.75951 C -2159.2653,174.92767 -2158.1641,176.04816 -2156.9603,177.10326 C -2153.1635,180.38451 -2148.6479,182.79076 -2143.3979,184.29076 C -2138.101,185.74388 -2131.476,186.44701 -2123.5541,186.44701 C -2115.351,186.44701 -2108.601,185.30638 -2103.3041,183.00951 C -2097.9604,180.71264 -2093.5698,177.50951 -2090.1479,173.38451 C -2086.7261,169.21265 -2084.2729,164.27515 -2082.7729,158.60326 L -2086.9916,158.13451 z M -1597.8353,161.35326 L -1599.5853,161.50951 C -1598.6495,163.10303 -1597.5551,164.37619 -1596.2729,165.25951 C -1596.1259,165.36075 -1595.9579,165.44657 -1595.8041,165.54076 C -1596.5815,164.36436 -1597.2735,162.97151 -1597.8353,161.35326 z "
           id="text4647" />
      </g>
      <g
         style="opacity:0.48039216;filter:url(#filter4697)"
         transform="matrix(1.0036063,-9.9572463e-3,-0.731965,0.7199052,90.927994,86.675229)"
         id="g4667">
        <text
           sodipodi:linespacing="125%"
           id="text4669"
           y="184.69954"
           x="-2293.3032"
           style="font-size:144px;font-style:normal;font-variant:normal;font-weight:normal;font-stretch:normal;text-align:start;line-height:125%;writing-mode:lr-tb;text-anchor:start;fill:#cc0000;fill-opacity:1;stroke:none;stroke-width:1px;stroke-linecap:butt;stroke-linejoin:miter;stroke-opacity:1;font-family:Arial Black"
           xml:space="preserve"><tspan
             y="184.69954"
             x="-2293.3032"
             id="tspan4671"
             sodipodi:role="line">Gcompris</tspan></text>
        <path
           id="path4673"
           d="M -2230.0353,79.848563 C -2241.8479,79.848663 -2251.2385,81.520543 -2258.2228,84.848563 C -2267.176,89.161163 -2273.9884,95.504903 -2278.6291,103.84856 C -2283.2697,112.14551 -2285.5666,121.91112 -2285.5665,133.16106 C -2285.5666,133.93652 -2285.5888,134.71094 -2285.5665,135.47356 C -2285.4281,124.65795 -2283.1269,115.2339 -2278.6291,107.19231 C -2273.9884,98.848653 -2267.176,92.504913 -2258.2228,88.192313 C -2251.2385,84.864293 -2241.8479,83.223663 -2230.0353,83.223563 C -2218.6447,83.223663 -2210.1291,84.254913 -2204.5041,86.317313 C -2198.8323,88.379913 -2194.1448,91.583033 -2190.4415,95.942313 C -2187.3053,99.549193 -2184.8289,103.97734 -2183.0041,109.22356 L -2182.0041,109.03606 C -2183.8792,102.37989 -2186.6917,96.911153 -2190.4415,92.598563 C -2194.1448,88.239283 -2198.8323,85.004913 -2204.5041,82.942313 C -2210.1291,80.879913 -2218.6447,79.848663 -2230.0353,79.848563 z M -1665.9728,81.629813 L -1665.9728,84.973563 L -1637.3791,84.973563 L -1637.3791,81.629813 L -1665.9728,81.629813 z M -2123.3791,108.34856 C -2132.0978,108.34864 -2139.2385,109.48926 -2144.8165,111.78606 C -2148.3322,113.23926 -2151.7384,115.47363 -2155.0665,118.47356 C -2158.3947,121.42675 -2161.0197,124.75487 -2162.9415,128.50481 C -2165.5666,133.61424 -2166.8791,140.0361 -2166.8791,147.72356 C -2166.8791,148.47236 -2166.8701,149.19235 -2166.8478,149.91106 C -2166.7198,142.74438 -2165.4316,136.72664 -2162.9415,131.87981 C -2161.0197,128.12987 -2158.3947,124.7705 -2155.0665,121.81731 C -2151.7384,118.81738 -2148.3322,116.58301 -2144.8165,115.12981 C -2139.2385,112.83301 -2132.0978,111.69239 -2123.3791,111.69231 C -2111.1916,111.69239 -2101.9104,113.86426 -2095.5353,118.22356 C -2089.952,122.01381 -2085.807,127.32361 -2083.1291,134.16106 L -2082.0353,134.00481 C -2084.6135,125.61424 -2089.1135,119.23925 -2095.5353,114.87981 C -2101.9104,110.52051 -2111.1916,108.34864 -2123.3791,108.34856 z M -2028.0978,108.34856 C -2041.176,108.34864 -2051.5666,112.03613 -2059.2541,119.44231 C -2066.9416,126.80174 -2070.7853,136.17673 -2070.7853,147.56731 C -2070.7853,148.15402 -2070.7437,148.74138 -2070.7228,149.31731 C -2070.3744,138.65149 -2066.5757,129.79527 -2059.2541,122.78606 C -2051.5666,115.37988 -2041.176,111.69239 -2028.0978,111.69231 C -2013.1447,111.69239 -2001.8322,116.02051 -1994.1915,124.69231 C -1988.4348,131.24021 -1985.3952,139.20804 -1985.0353,148.59856 C -1985.0216,148.12033 -1985.0041,147.64666 -1985.0041,147.16106 C -1985.0041,136.94236 -1988.051,128.33299 -1994.1915,121.34856 C -2001.8322,112.67676 -2013.1447,108.34864 -2028.0978,108.34856 z M -1918.3478,108.34856 C -1923.8791,108.34864 -1928.5979,109.30176 -1932.5353,111.22356 C -1936.426,113.14551 -1940.2853,116.36425 -1944.1291,120.91106 L -1944.1291,124.28606 C -1940.2853,119.73925 -1936.426,116.48926 -1932.5353,114.56731 C -1928.5979,112.64551 -1923.8791,111.69239 -1918.3478,111.69231 C -1912.3947,111.69239 -1907.6604,112.73926 -1904.1915,114.84856 C -1900.7229,116.95801 -1897.8948,120.11425 -1895.6915,124.28606 C -1891.1916,119.41113 -1887.0823,116.08301 -1883.3791,114.34856 C -1879.676,112.56739 -1875.1292,111.69239 -1869.6915,111.69231 C -1861.676,111.69239 -1855.4104,114.06738 -1850.9103,118.84856 C -1846.4104,123.583 -1844.1604,131.03612 -1844.1603,141.16106 L -1844.1603,137.78606 C -1844.1604,127.66112 -1846.4104,120.23925 -1850.9103,115.50481 C -1855.4104,110.72363 -1861.676,108.34864 -1869.6915,108.34856 C -1875.1292,108.34864 -1879.676,109.22364 -1883.3791,111.00481 C -1887.0823,112.73926 -1891.1916,116.03613 -1895.6915,120.91106 C -1897.8948,116.73925 -1900.7229,113.61426 -1904.1915,111.50481 C -1907.6604,109.39551 -1912.3947,108.34864 -1918.3478,108.34856 z M -1776.0978,108.34856 C -1781.1604,108.34864 -1785.7697,109.42676 -1789.9415,111.62981 C -1793.0353,113.27051 -1796.426,116.42675 -1800.1291,121.06731 L -1800.1291,124.41106 C -1796.426,119.7705 -1793.0353,116.64551 -1789.9415,115.00481 C -1785.7697,112.80176 -1781.1604,111.69239 -1776.0978,111.69231 C -1766.1135,111.69239 -1758.4104,115.52051 -1752.9728,123.16106 C -1747.8313,130.3242 -1745.0755,139.07571 -1744.7541,149.41106 C -1744.7469,148.98787 -1744.7228,148.56002 -1744.7228,148.12981 C -1744.7229,136.87986 -1747.4885,127.42674 -1752.9728,119.78606 C -1758.4104,112.14551 -1766.1135,108.34864 -1776.0978,108.34856 z M -1685.6603,108.34856 C -1689.6916,108.34864 -1693.1135,109.33301 -1695.8791,111.34856 C -1698.5978,113.31738 -1701.2385,116.958 -1703.8165,122.25481 L -1703.8165,125.59856 C -1701.2385,120.30175 -1698.5978,116.69238 -1695.8791,114.72356 C -1693.1135,112.70801 -1689.6916,111.69239 -1685.6603,111.69231 C -1681.7756,111.69238 -1677.5646,112.81029 -1673.0041,115.03606 L -1671.8165,112.28606 C -1676.8322,109.66114 -1681.4416,108.34864 -1685.6603,108.34856 z M -1584.5665,108.34856 C -1593.0041,108.34864 -1599.7385,109.22364 -1604.7541,111.00481 C -1609.7697,112.73926 -1613.7072,115.37988 -1616.5665,118.94231 C -1619.4259,122.50487 -1620.8478,126.77049 -1620.8478,131.69231 C -1620.8478,132.21242 -1620.8204,132.7166 -1620.7853,133.22356 C -1620.4726,129.06564 -1619.0685,125.43455 -1616.5665,122.31731 C -1613.7072,118.75488 -1609.7697,116.08301 -1604.7541,114.34856 C -1599.7385,112.56739 -1593.0041,111.69239 -1584.5665,111.69231 C -1575.6604,111.69239 -1569.0979,112.36426 -1564.8791,113.72356 C -1560.6135,115.08301 -1557.0666,117.20801 -1554.2541,120.06731 C -1552.0559,122.26559 -1550.1518,125.05283 -1548.5353,128.44231 L -1547.1603,128.31731 C -1549.0354,123.44237 -1551.3948,119.55175 -1554.2541,116.69231 C -1557.0666,113.83301 -1560.6135,111.73926 -1564.8791,110.37981 C -1569.0979,109.02051 -1575.6604,108.34864 -1584.5665,108.34856 z M -1970.8478,110.03606 L -1970.8478,113.37981 L -1944.1291,113.37981 L -1944.1291,110.03606 L -1970.8478,110.03606 z M -1826.9415,110.03606 L -1826.9415,113.37981 L -1800.1291,113.37981 L -1800.1291,110.03606 L -1826.9415,110.03606 z M -1730.5978,110.03606 L -1730.5978,113.37981 L -1703.8165,113.37981 L -1703.8165,110.03606 L -1730.5978,110.03606 z M -1665.9728,110.03606 L -1665.9728,113.37981 L -1637.3791,113.37981 L -1637.3791,110.03606 L -1665.9728,110.03606 z M -2229.8165,125.91106 L -2229.8165,129.25481 L -2180.5978,129.25481 L -2180.5978,125.91106 L -2229.8165,125.91106 z M -1594.9415,130.97356 C -1595.1459,131.51628 -1595.2541,132.10835 -1595.2541,132.72356 C -1595.2541,134.55174 -1594.3166,135.91111 -1592.4415,136.84856 C -1590.5666,137.78611 -1586.4728,138.62986 -1580.1915,139.37981 C -1570.676,140.45798 -1563.6135,141.95798 -1558.9728,143.87981 C -1554.3322,145.80173 -1550.7854,148.56735 -1548.3478,152.12981 C -1546.2048,155.20294 -1544.986,158.53352 -1544.6915,162.12981 C -1544.6505,161.59441 -1544.6291,161.04387 -1544.6291,160.50481 C -1544.6291,156.23921 -1545.8635,152.31734 -1548.3478,148.75481 C -1550.7854,145.19235 -1554.3322,142.45798 -1558.9728,140.53606 C -1563.6135,138.61423 -1570.676,137.11423 -1580.1915,136.03606 C -1586.4728,135.28611 -1590.5666,134.44236 -1592.4415,133.50481 C -1593.7171,132.86707 -1594.5338,132.02353 -1594.9415,130.97356 z M -2253.6291,134.84856 C -2253.6364,135.283 -2253.6603,135.71645 -2253.6603,136.16106 C -2253.6603,147.31735 -2251.5822,155.28609 -2247.4103,160.06731 C -2243.1916,164.84858 -2237.3166,167.22358 -2229.8165,167.22356 C -2226.2541,167.22358 -2222.8635,166.72358 -2219.6291,165.69231 C -2216.3948,164.66108 -2212.676,162.89546 -2208.5041,160.41106 L -2208.5041,157.06731 C -2212.676,159.55171 -2216.3948,161.31733 -2219.6291,162.34856 C -2222.8635,163.37983 -2226.2541,163.87983 -2229.8165,163.87981 C -2237.3166,163.87983 -2243.1916,161.50483 -2247.4103,156.72356 C -2251.3215,152.24117 -2253.3846,144.93404 -2253.6291,134.84856 z M -1773.3791,148.69231 C -1773.5672,154.33309 -1774.68,158.43138 -1776.7228,160.94231 C -1778.9729,163.66108 -1781.7697,165.00483 -1785.0978,165.00481 C -1788.8947,165.00483 -1792.0197,163.58296 -1794.5041,160.72356 C -1796.7545,158.13349 -1798.0109,154.28243 -1798.2228,149.19231 C -1798.2438,149.75806 -1798.2541,150.31458 -1798.2541,150.91106 C -1798.2541,156.81734 -1796.9885,161.20796 -1794.5041,164.06731 C -1792.0197,166.92671 -1788.8947,168.34858 -1785.0978,168.34856 C -1781.7697,168.34858 -1778.9729,167.00483 -1776.7228,164.28606 C -1774.4729,161.52046 -1773.3479,156.84859 -1773.3478,150.28606 C -1773.3478,149.73551 -1773.3596,149.21605 -1773.3791,148.69231 z M -2013.7853,148.94231 C -2013.9952,154.98554 -2015.3118,159.47781 -2017.7541,162.34856 C -2020.3791,165.4892 -2023.7541,167.03608 -2027.8791,167.03606 C -2031.9572,167.03608 -2035.3478,165.44233 -2038.0665,162.25481 C -2040.5043,159.3467 -2041.8529,154.98782 -2042.0665,149.19231 C -2042.0872,149.73862 -2042.0978,150.27662 -2042.0978,150.84856 C -2042.0978,157.50484 -2040.7385,162.44234 -2038.0665,165.62981 C -2035.3478,168.81733 -2031.9572,170.41108 -2027.8791,170.41106 C -2023.7541,170.41108 -2020.3791,168.83295 -2017.7541,165.69231 C -2015.0822,162.55171 -2013.7541,157.50484 -2013.7541,150.56731 C -2013.7541,150.0068 -2013.7652,149.47783 -2013.7853,148.94231 z M -2138.3791,150.06731 C -2138.4021,150.65301 -2138.4103,151.23498 -2138.4103,151.84856 C -2138.4103,157.98922 -2136.9728,162.62984 -2134.0665,165.81731 C -2131.1603,169.00483 -2127.4416,170.59858 -2122.9415,170.59856 C -2119.1916,170.59858 -2116.0666,169.64545 -2113.5353,167.72356 C -2110.9572,165.80171 -2109.0197,162.86421 -2107.7541,158.87981 L -2081.5665,161.84856 C -2081.1977,160.7923 -2080.83,159.7127 -2080.5353,158.59856 L -2107.7541,155.50481 C -2109.0197,159.48921 -2110.9572,162.45796 -2113.5353,164.37981 C -2116.0666,166.3017 -2119.1916,167.25483 -2122.9415,167.25481 C -2127.4416,167.25483 -2131.1603,165.66108 -2134.0665,162.47356 C -2136.7156,159.56825 -2138.1446,155.4261 -2138.3791,150.06731 z M -1595.5978,161.34856 L -1624.0041,164.03606 C -1623.745,165.16845 -1623.4284,166.23547 -1623.0665,167.28606 L -1595.5978,164.69231 C -1594.426,168.06733 -1592.801,170.4892 -1590.6915,171.94231 C -1588.5822,173.39545 -1585.7697,174.12982 -1582.2541,174.12981 C -1578.4103,174.12982 -1575.426,173.3017 -1573.3165,171.66106 C -1571.676,170.44233 -1570.8479,168.9267 -1570.8478,167.09856 C -1570.8478,166.52117 -1570.9601,165.97748 -1571.1291,165.47356 C -1571.4947,166.55285 -1572.2261,167.50725 -1573.3165,168.31731 C -1575.426,169.95795 -1578.4103,170.78607 -1582.2541,170.78606 C -1585.7697,170.78607 -1588.5822,170.0517 -1590.6915,168.59856 C -1592.801,167.14545 -1594.426,164.72358 -1595.5978,161.34856 z "
           style="font-size:144px;font-style:normal;font-variant:normal;font-weight:normal;font-stretch:normal;text-align:start;line-height:125%;writing-mode:lr-tb;text-anchor:start;fill:#ef2929;fill-opacity:1;stroke:none;stroke-width:1px;stroke-linecap:butt;stroke-linejoin:miter;stroke-opacity:1;font-family:Arial Black" />
        <path
           id="path4675"
           d="M -1642.9603,81.634509 L -1642.9603,97.759509 L -1668.2103,97.759509 L -1668.2103,101.10326 L -1639.5853,101.10326 L -1639.5853,81.634509 L -1642.9603,81.634509 z M -2196.0229,89.228259 C -2192.273,93.540849 -2189.4605,99.040839 -2187.5853,105.69701 L -2216.5853,110.85326 C -2215.9414,111.9729 -2215.3946,113.20595 -2214.9603,114.54076 L -2184.2416,109.04076 C -2186.1167,102.38459 -2188.9292,96.915839 -2192.6791,92.603259 C -2193.7111,91.388489 -2194.838,90.264689 -2196.0229,89.228259 z M -2236.3041,99.165759 C -2243.2885,99.165839 -2248.8823,101.60334 -2253.0541,106.47826 C -2257.1791,111.30646 -2259.2416,118.94707 -2259.2416,129.44701 C -2259.2416,140.6033 -2257.1635,148.57204 -2252.9916,153.35326 C -2252.195,154.25607 -2251.3114,155.05842 -2250.3979,155.79076 C -2254.0646,150.93483 -2255.8979,143.28103 -2255.8979,132.82201 C -2255.8979,122.32207 -2253.8354,114.6502 -2249.7103,109.82201 C -2245.5385,104.94709 -2239.9448,102.50959 -2232.9603,102.50951 C -2228.2729,102.50959 -2224.4292,103.54084 -2221.4291,105.60326 C -2221.2474,105.72627 -2221.0732,105.84875 -2220.8979,105.97826 C -2221.9682,104.51363 -2223.268,103.27822 -2224.7729,102.25951 C -2227.7729,100.19709 -2231.6167,99.165839 -2236.3041,99.165759 z M -1949.7103,110.04076 L -1949.7103,117.57201 C -1948.591,116.24796 -1947.4899,115.04847 -1946.3666,113.94701 L -1946.3666,110.04076 L -1949.7103,110.04076 z M -1805.7103,110.04076 L -1805.7103,117.72826 C -1804.5639,116.29157 -1803.4547,115.00242 -1802.3666,113.85326 L -1802.3666,110.04076 L -1805.7103,110.04076 z M -1709.3979,110.04076 L -1709.3979,118.91576 C -1708.2987,116.65745 -1707.1789,114.72537 -1706.0541,113.07201 L -1706.0541,110.04076 L -1709.3979,110.04076 z M -1642.9603,110.04076 L -1642.9603,181.35326 L -1668.2103,181.35326 L -1668.2103,184.69701 L -1639.5853,184.69701 L -1639.5853,110.04076 L -1642.9603,110.04076 z M -1678.0541,110.41576 L -1686.2729,129.32201 C -1689.6479,127.91581 -1692.3042,127.19706 -1694.2729,127.19701 C -1698.0229,127.19706 -1700.9291,128.75956 -1702.9916,131.85326 C -1705.9448,136.21268 -1707.4291,144.36892 -1707.4291,156.32201 L -1707.4291,181.35326 L -1732.8353,181.35326 L -1732.8353,184.69701 L -1704.0853,184.69701 L -1704.0853,159.66576 C -1704.0854,147.71267 -1702.601,139.55643 -1699.6479,135.19701 C -1697.5854,132.10331 -1694.6791,130.57206 -1690.9291,130.57201 C -1688.9604,130.57206 -1686.2729,131.25956 -1682.8979,132.66576 L -1674.0541,112.29076 C -1675.4191,111.57637 -1676.7481,110.93573 -1678.0541,110.41576 z M -1904.2103,113.10326 C -1903.1344,114.43583 -1902.1488,115.91348 -1901.2729,117.57201 C -1901.0304,117.3093 -1900.7943,117.0756 -1900.5541,116.82201 C -1901.6592,115.39607 -1902.8865,114.17277 -1904.2103,113.10326 z M -1855.3979,113.44701 C -1851.6352,118.19811 -1849.7417,125.18858 -1849.7416,134.44701 L -1849.7416,181.35326 L -1875.0853,181.35326 L -1875.0853,184.69701 L -1846.3979,184.69701 L -1846.3979,137.79076 C -1846.398,127.66582 -1848.648,120.24395 -1853.1479,115.50951 C -1853.8538,114.75944 -1854.6054,114.07941 -1855.3979,113.44701 z M -1760.0541,114.50951 C -1759.5324,115.13079 -1759.0396,115.76482 -1758.5541,116.44701 C -1753.0698,124.08769 -1750.3042,133.54081 -1750.3041,144.79076 C -1750.3042,157.21266 -1753.2886,166.69702 -1759.2416,173.25951 C -1765.1948,179.77514 -1772.7104,183.04076 -1781.8041,183.04076 C -1786.2104,183.04076 -1790.2417,182.29076 -1793.8979,180.79076 C -1797.5073,179.29076 -1800.7573,177.05639 -1803.6166,174.10326 L -1803.6166,209.75951 L -1829.1479,209.75951 L -1829.1479,213.10326 L -1800.2729,213.10326 L -1800.2729,177.44701 C -1797.4135,180.40014 -1794.1635,182.63451 -1790.5541,184.13451 C -1786.8979,185.63451 -1782.8667,186.38451 -1778.4603,186.38451 C -1769.3667,186.38451 -1761.8511,183.11888 -1755.8979,176.60326 C -1749.9448,170.04077 -1746.9604,160.5564 -1746.9603,148.13451 C -1746.9604,136.88456 -1749.6948,127.43144 -1755.1791,119.79076 C -1756.6316,117.74974 -1758.2771,116.00532 -1760.0541,114.50951 z M -1558.3353,115.04076 C -1556.1441,117.67932 -1554.2748,120.96091 -1552.7416,124.94701 L -1578.2103,127.47826 C -1577.4933,128.4359 -1576.9283,129.59991 -1576.5229,130.97826 L -1549.3979,128.32201 C -1551.2729,123.44707 -1553.6323,119.55645 -1556.4916,116.69701 C -1557.0707,116.10828 -1557.6946,115.56591 -1558.3353,115.04076 z M -2094.8353,117.10326 C -2091.6451,120.80724 -2089.2549,125.33409 -2087.6166,130.66576 L -2112.6479,133.97826 C -2112.036,135.0444 -2111.5374,136.24976 -2111.1791,137.60326 L -2084.2416,134.00951 C -2086.4107,126.95033 -2089.9457,121.3091 -2094.8353,117.10326 z M -1999.7103,118.07201 C -1993.6093,125.04433 -1990.5854,133.60496 -1990.5853,143.79076 C -1990.5854,155.27516 -1994.3823,164.71265 -2002.0229,172.07201 C -2009.6167,179.38451 -2020.1635,183.04076 -2033.6166,183.04076 C -2045.6166,183.04076 -2055.3041,179.97826 -2062.7103,173.88451 C -2063.1294,173.53676 -2063.5294,173.17971 -2063.9291,172.82201 C -2062.5586,174.37768 -2061.048,175.86409 -2059.3666,177.25951 C -2051.9604,183.35326 -2042.2416,186.38451 -2030.2416,186.38451 C -2016.7885,186.38451 -2006.2729,182.72826 -1998.6791,175.41576 C -1991.0386,168.0564 -1987.2104,158.65016 -1987.2103,147.16576 C -1987.2104,136.94706 -1990.2886,128.33769 -1996.4291,121.35326 C -1997.4579,120.18567 -1998.549,119.08239 -1999.7103,118.07201 z M -1591.5541,120.10326 C -1594.7885,120.10332 -1597.1479,120.68145 -1598.6479,121.85326 C -1600.101,122.97832 -1600.8354,124.36894 -1600.8353,126.00951 C -1600.8354,127.83769 -1599.8979,129.22831 -1598.0229,130.16576 C -1597.8255,130.26443 -1597.5815,130.35042 -1597.3353,130.44701 C -1597.4155,130.10714 -1597.4916,129.7312 -1597.4916,129.35326 C -1597.4916,127.71269 -1596.7573,126.35331 -1595.3041,125.22826 C -1593.8041,124.05645 -1591.4448,123.44707 -1588.2103,123.44701 C -1585.4213,123.44706 -1582.9692,124.01736 -1580.8979,125.16576 C -1581.5539,123.98634 -1582.3835,123.04888 -1583.3979,122.35326 C -1585.6479,120.85332 -1588.3666,120.10332 -1591.5541,120.10326 z M -2128.1166,124.60326 C -2132.851,124.60332 -2136.6948,126.30644 -2139.6479,129.72826 C -2142.5541,133.10331 -2143.9916,138.24393 -2143.9916,145.13451 C -2143.9916,151.27516 -2142.5541,155.94703 -2139.6479,159.13451 C -2138.9213,159.93139 -2138.1303,160.6306 -2137.3041,161.22826 C -2139.5292,158.11622 -2140.6479,153.85133 -2140.6479,148.47826 C -2140.6479,141.58768 -2139.1791,136.4783 -2136.2729,133.10326 C -2133.3198,129.68144 -2129.476,127.94706 -2124.7416,127.94701 C -2121.2721,127.94706 -2118.4808,128.66764 -2116.3353,130.07201 C -2117.1088,128.8767 -2118.0541,127.86891 -2119.1791,127.07201 C -2121.3823,125.43144 -2124.3667,124.60332 -2128.1166,124.60326 z M -2033.2416,124.66576 C -2037.4135,124.66582 -2040.8666,126.30644 -2043.5853,129.54076 C -2046.3041,132.72831 -2047.6791,137.6033 -2047.6791,144.16576 C -2047.6791,150.82204 -2046.3198,155.72829 -2043.6479,158.91576 C -2042.8146,159.89269 -2041.9213,160.707 -2040.9603,161.38451 C -2043.1919,158.19853 -2044.3041,153.59261 -2044.3041,147.50951 C -2044.3041,140.94705 -2042.9604,136.07205 -2040.2416,132.88451 C -2037.5229,129.65019 -2034.0698,128.04081 -2029.8979,128.04076 C -2027.1984,128.0408 -2024.815,128.79253 -2022.7103,130.29076 C -2022.913,130.00837 -2023.1145,129.70665 -2023.3353,129.44701 C -2026.0073,126.25957 -2029.3042,124.66582 -2033.2416,124.66576 z M -2186.1791,125.91576 L -2186.1791,166.50951 C -2195.6011,172.93139 -2203.9448,177.32201 -2211.2103,179.66576 C -2218.4292,181.96263 -2227.0229,183.10326 -2236.9603,183.10326 C -2249.1948,183.10326 -2259.1635,181.02513 -2266.8979,176.85326 C -2269.7807,175.28881 -2272.4337,173.4287 -2274.8353,171.29076 C -2271.607,174.89788 -2267.852,177.8646 -2263.5541,180.19701 C -2255.8198,184.36888 -2245.8198,186.44701 -2233.5853,186.44701 C -2223.6479,186.44701 -2215.0854,185.30638 -2207.8666,183.00951 C -2200.6011,180.66576 -2192.2573,176.27514 -2182.8353,169.85326 L -2182.8353,125.91576 L -2186.1791,125.91576 z M -1791.0229,126.00951 C -1794.6791,126.00957 -1797.7416,127.43144 -1800.1791,130.29076 C -1802.6166,133.15018 -1803.8354,137.80643 -1803.8353,144.22826 C -1803.8354,150.13454 -1802.5698,154.52516 -1800.0853,157.38451 C -1799.3244,158.26034 -1798.5007,158.96445 -1797.6166,159.57201 C -1799.5187,156.73682 -1800.4604,152.74 -1800.4603,147.57201 C -1800.4604,141.15018 -1799.2416,136.52518 -1796.8041,133.66576 C -1794.3666,130.80644 -1791.3354,129.35331 -1787.6791,129.35326 C -1785.5255,129.3533 -1783.6004,129.97017 -1781.8666,131.13451 C -1782.0587,130.85489 -1782.2492,130.54413 -1782.4603,130.29076 C -1784.8042,127.43144 -1787.6479,126.00957 -1791.0229,126.00951 z M -1936.4916,127.29076 C -1939.7729,127.29081 -1942.476,128.52519 -1944.5853,131.00951 C -1946.6948,133.49393 -1947.7416,137.55643 -1947.7416,143.22826 L -1947.7416,181.35326 L -1973.0853,181.35326 L -1973.0853,184.69701 L -1944.3979,184.69701 L -1944.3979,146.60326 C -1944.3979,140.93143 -1943.351,136.83768 -1941.2416,134.35326 C -1939.1323,131.86894 -1936.4291,130.63456 -1933.1479,130.63451 C -1931.5459,130.63455 -1930.1117,130.988 -1928.8353,131.72826 C -1929.4366,130.66435 -1930.2554,129.78048 -1931.2416,129.04076 C -1932.7417,127.86894 -1934.476,127.29081 -1936.4916,127.29076 z M -1887.5541,127.41576 C -1890.9292,127.41581 -1893.6479,128.63456 -1895.7103,131.07201 C -1897.7729,133.50956 -1898.8042,137.43143 -1898.8041,142.82201 L -1898.8041,181.35326 L -1924.1479,181.35326 L -1924.1479,184.69701 L -1895.4603,184.69701 L -1895.4603,146.16576 C -1895.4604,140.77518 -1894.4292,136.8533 -1892.3666,134.41576 C -1890.3042,131.97831 -1887.5854,130.75956 -1884.2103,130.75951 C -1882.6407,130.75954 -1881.2163,131.17007 -1879.9291,131.94701 C -1880.0726,131.71483 -1880.2338,131.49584 -1880.3979,131.29076 C -1882.3198,128.71269 -1884.6948,127.41581 -1887.5541,127.41576 z M -2232.0541,144.00951 L -2232.0541,147.35326 L -2214.0853,147.35326 L -2214.0853,144.00951 L -2232.0541,144.00951 z M -1554.8041,144.22826 C -1554.4953,144.61555 -1554.2089,145.00686 -1553.9291,145.41576 C -1551.4448,148.97829 -1550.2104,152.90016 -1550.2103,157.16576 C -1550.2104,161.47828 -1551.5229,165.6814 -1554.1479,169.75951 C -1556.7261,173.83764 -1560.8354,177.07201 -1566.4603,179.50951 C -1572.0385,181.90013 -1579.6479,183.10326 -1589.3041,183.10326 C -1602.9448,183.10326 -1612.6791,181.15013 -1618.4916,177.25951 C -1619.2123,176.77318 -1619.8978,176.26586 -1620.5541,175.72826 C -1619.0084,177.56462 -1617.2019,179.22737 -1615.1166,180.63451 C -1609.3041,184.52513 -1599.601,186.44701 -1585.9603,186.44701 C -1576.3042,186.44701 -1568.6635,185.27513 -1563.0853,182.88451 C -1557.4604,180.44701 -1553.3823,177.18139 -1550.8041,173.10326 C -1548.1792,169.02515 -1546.8667,164.82203 -1546.8666,160.50951 C -1546.8667,156.24391 -1548.1011,152.32204 -1550.5853,148.75951 C -1551.7462,147.06295 -1553.1436,145.55275 -1554.8041,144.22826 z M -1618.4916,144.50951 C -1615.9462,147.59881 -1612.9053,149.84735 -1609.3666,151.22826 C -1605.476,152.68142 -1598.5541,154.27516 -1588.6166,156.00951 C -1582.4353,157.0978 -1578.4854,158.02591 -1576.7103,158.79076 C -1577.145,157.49464 -1578.1265,156.41333 -1579.6791,155.60326 C -1581.226,154.80641 -1585.3041,153.83766 -1591.9603,152.66576 C -1601.8979,150.93141 -1608.8197,149.33767 -1612.7103,147.88451 C -1614.8106,147.06494 -1616.7413,145.93086 -1618.4916,144.50951 z M -2086.9916,158.13451 C -2088.5072,162.61184 -2090.6924,166.58983 -2093.5229,170.04076 C -2096.9448,174.16577 -2101.3042,177.36889 -2106.6479,179.66576 C -2111.9448,181.96263 -2118.6948,183.10326 -2126.8979,183.10326 C -2134.8198,183.10326 -2141.4448,182.36888 -2146.7416,180.91576 C -2151.9916,179.41576 -2156.5072,177.04076 -2160.3041,173.75951 C -2159.2653,174.92767 -2158.1641,176.04816 -2156.9603,177.10326 C -2153.1635,180.38451 -2148.6479,182.79076 -2143.3979,184.29076 C -2138.101,185.74388 -2131.476,186.44701 -2123.5541,186.44701 C -2115.351,186.44701 -2108.601,185.30638 -2103.3041,183.00951 C -2097.9604,180.71264 -2093.5698,177.50951 -2090.1479,173.38451 C -2086.7261,169.21265 -2084.2729,164.27515 -2082.7729,158.60326 L -2086.9916,158.13451 z M -1597.8353,161.35326 L -1599.5853,161.50951 C -1598.6495,163.10303 -1597.5551,164.37619 -1596.2729,165.25951 C -1596.1259,165.36075 -1595.9579,165.44657 -1595.8041,165.54076 C -1596.5815,164.36436 -1597.2735,162.97151 -1597.8353,161.35326 z "
           style="font-size:144px;font-style:normal;font-variant:normal;font-weight:normal;font-stretch:normal;text-align:start;line-height:125%;writing-mode:lr-tb;text-anchor:start;fill:#a40000;fill-opacity:1;stroke:none;stroke-width:1px;stroke-linecap:butt;stroke-linejoin:miter;stroke-opacity:1;font-family:Arial Black" />
      </g>
    </g>
  </g>
</svg>
