<?xml version="1.0" encoding="UTF-8" standalone="no"?>
<!-- Created with Inkscape (http://www.inkscape.org/) -->

<svg
   xmlns:dc="http://purl.org/dc/elements/1.1/"
   xmlns:cc="http://creativecommons.org/ns#"
   xmlns:rdf="http://www.w3.org/1999/02/22-rdf-syntax-ns#"
   xmlns:svg="http://www.w3.org/2000/svg"
   xmlns="http://www.w3.org/2000/svg"
   xmlns:xlink="http://www.w3.org/1999/xlink"
   xmlns:sodipodi="http://sodipodi.sourceforge.net/DTD/sodipodi-0.dtd"
   xmlns:inkscape="http://www.inkscape.org/namespaces/inkscape"
   width="400"
   height="300"
   id="svg2"
   version="1.1"
   inkscape:version="0.48.2 r9819"
   sodipodi:docname="one.svgz">
  <defs
     id="defs4">
    <filter
       height="1.1538924"
       y="-0.076946221"
       width="1.2016639"
       x="-0.1008319"
       id="filter4057"
       inkscape:collect="always"
       color-interpolation-filters="sRGB">
      <feGaussianBlur
         id="feGaussianBlur4059"
         stdDeviation="0.21692966"
         inkscape:collect="always" />
    </filter>
    <linearGradient
       gradientUnits="userSpaceOnUse"
       y2="503.67859"
       x2="308.5015"
       y1="445.38672"
       x1="224.0947"
       id="linearGradient4029"
       xlink:href="#linearGradient4023"
       inkscape:collect="always" />
    <linearGradient
       gradientUnits="userSpaceOnUse"
       y2="606.3974"
       x2="264.10092"
       y1="660.24036"
       x1="317.76202"
       id="linearGradient3977"
       xlink:href="#linearGradient3979"
       inkscape:collect="always" />
    <radialGradient
       gradientUnits="userSpaceOnUse"
       gradientTransform="matrix(0.5454562,-0.83813933,0.7937393,0.51656091,-382.98768,547.62995)"
       r="87.516502"
       fy="681.22241"
       fx="320.35266"
       cy="681.22241"
       cx="320.35266"
       id="radialGradient3967"
       xlink:href="#linearGradient3969"
       inkscape:collect="always" />
    <linearGradient
       gradientUnits="userSpaceOnUse"
       y2="668.84113"
       x2="230.92442"
       y1="655.93536"
       x1="230.92442"
       id="linearGradient3947"
       xlink:href="#linearGradient3941"
       inkscape:collect="always" />
    <linearGradient
       y2="19.5"
       x2="-4.5"
       y1="10"
       x1="-12.233939"
       gradientTransform="matrix(4.7665704,-0.57594828,0.57973124,4.7978783,-78.476485,294.83529)"
       gradientUnits="userSpaceOnUse"
       id="linearGradient7236"
       xlink:href="#linearGradient4294-4"
       inkscape:collect="always" />
    <linearGradient
       y2="8.0270262"
       x2="-6.8865299"
       y1="15.853858"
       x1="-10.614571"
       gradientTransform="matrix(4.7665704,-0.57594828,0.57973124,4.7978783,7.1947806,276.52684)"
       gradientUnits="userSpaceOnUse"
       id="linearGradient7234"
       xlink:href="#linearGradient4865-7"
       inkscape:collect="always" />
    <linearGradient
       id="linearGradient4294-4">
      <stop
         style="stop-color:#000000;stop-opacity:1;"
         offset="0"
         id="stop4296-8" />
      <stop
         style="stop-color:#000000;stop-opacity:0;"
         offset="1"
         id="stop4298-8" />
    </linearGradient>
    <linearGradient
       id="linearGradient4865-7"
       inkscape:collect="always">
      <stop
         id="stop4867-4"
         offset="0"
         style="stop-color:#ffdbc2;stop-opacity:1;" />
      <stop
         id="stop4869-0"
         offset="1"
         style="stop-color:#ffffff;stop-opacity:1" />
    </linearGradient>
    <linearGradient
       id="linearGradient4326">
      <stop
         style="stop-color:#552200;stop-opacity:1;"
         offset="0"
         id="stop4328" />
      <stop
         style="stop-color:#b6632c;stop-opacity:1;"
         offset="1"
         id="stop4330" />
    </linearGradient>
    <linearGradient
       y2="19.46875"
       x2="37"
       y1="16"
       x1="25"
       gradientTransform="matrix(16.804703,0,0,16.804703,-100.36823,167.94184)"
       gradientUnits="userSpaceOnUse"
       id="linearGradient4112"
       xlink:href="#linearGradient3679"
       inkscape:collect="always" />
    <linearGradient
       id="linearGradient4319">
      <stop
         style="stop-color:#552200;stop-opacity:1;"
         offset="0"
         id="stop4321" />
      <stop
         style="stop-color:#b6632c;stop-opacity:1;"
         offset="1"
         id="stop4323" />
    </linearGradient>
    <linearGradient
       y2="35"
       x2="45"
       y1="30"
       x1="9"
       gradientTransform="matrix(16.804703,0,0,16.804703,-100.36823,167.94184)"
       gradientUnits="userSpaceOnUse"
       id="linearGradient4109"
       xlink:href="#linearGradient3679"
       inkscape:collect="always" />
    <linearGradient
       id="linearGradient2868">
      <stop
         style="stop-color:#d700d7;stop-opacity:1;"
         offset="0"
         id="stop2870" />
      <stop
         style="stop-color:#6e006e;stop-opacity:1;"
         offset="1"
         id="stop2872" />
    </linearGradient>
    <radialGradient
       r="5.678896"
       fy="25.620546"
       fx="23"
       cy="25.620546"
       cx="23"
       gradientTransform="matrix(16.699298,-15.133222,13.695437,15.112728,1404.2241,-460.96744)"
       gradientUnits="userSpaceOnUse"
       id="radialGradient4187"
       xlink:href="#linearGradient2868"
       inkscape:collect="always" />
    <linearGradient
       id="linearGradient3764">
      <stop
         id="stop3766"
         offset="0"
         style="stop-color:#7ed249;stop-opacity:1;" />
      <stop
         id="stop3768"
         offset="1"
         style="stop-color:#286325;stop-opacity:1;" />
    </linearGradient>
    <radialGradient
       r="6.185452"
       fy="27.325857"
       fx="25"
       cy="27.325857"
       cx="25"
       gradientTransform="matrix(-13.302157,-17.188385,21.48548,-16.627696,141.73397,1627.6336)"
       gradientUnits="userSpaceOnUse"
       id="radialGradient3972"
       xlink:href="#linearGradient3764"
       inkscape:collect="always" />
    <linearGradient
       id="linearGradient3770">
      <stop
         id="stop3772"
         offset="0"
         style="stop-color:#d1f6f6;stop-opacity:1;" />
      <stop
         id="stop3774"
         offset="1"
         style="stop-color:#2adbdb;stop-opacity:1;" />
    </linearGradient>
    <radialGradient
       r="5.3856454"
       fy="28.307987"
       fx="12"
       cy="28.307987"
       cx="12"
       gradientTransform="matrix(16.804703,0,0,21.015484,1767.0712,-1005.6601)"
       gradientUnits="userSpaceOnUse"
       id="radialGradient4191"
       xlink:href="#linearGradient3770"
       inkscape:collect="always" />
    <linearGradient
       id="linearGradient3356"
       inkscape:collect="always">
      <stop
         id="stop3358"
         offset="0"
         style="stop-color:#efff3a;stop-opacity:1;" />
      <stop
         id="stop3360"
         offset="1"
         style="stop-color:#efff3a;stop-opacity:0;" />
    </linearGradient>
    <linearGradient
       y2="72.334557"
       x2="24.406153"
       y1="72.334557"
       x1="157.92969"
       spreadMethod="reflect"
       gradientTransform="translate(164.46429,62.54076)"
       gradientUnits="userSpaceOnUse"
       id="linearGradient4197"
       xlink:href="#linearGradient3356"
       inkscape:collect="always" />
    <linearGradient
       id="linearGradient3336">
      <stop
         id="stop3338"
         offset="0"
         style="stop-color:#e3e3e3;stop-opacity:1;" />
      <stop
         id="stop3340"
         offset="1"
         style="stop-color:#fdfdfd;stop-opacity:0;" />
    </linearGradient>
    <linearGradient
       y2="-62.812489"
       x2="157.95576"
       y1="429.75601"
       x1="157.95576"
       spreadMethod="pad"
       gradientTransform="translate(164.46429,62.54076)"
       gradientUnits="userSpaceOnUse"
       id="linearGradient4195"
       xlink:href="#linearGradient3336"
       inkscape:collect="always" />
    <linearGradient
       id="linearGradient3346"
       inkscape:collect="always">
      <stop
         id="stop3348"
         offset="0"
         style="stop-color:#ffbcbc;stop-opacity:1;" />
      <stop
         id="stop3350"
         offset="1"
         style="stop-color:#ffbcbc;stop-opacity:0;" />
    </linearGradient>
    <radialGradient
       r="158.39285"
       fy="567.24847"
       fx="144.85896"
       cy="567.24847"
       cx="144.85896"
       gradientTransform="matrix(1,0,0,1.3607667,164.46429,-142.10356)"
       gradientUnits="userSpaceOnUse"
       id="radialGradient4193"
       xlink:href="#linearGradient3346"
       inkscape:collect="always" />
    <linearGradient
       id="linearGradient3679">
      <stop
         style="stop-color:#552200;stop-opacity:1;"
         offset="0"
         id="stop3681" />
      <stop
         style="stop-color:#b6632c;stop-opacity:1;"
         offset="1"
         id="stop3683" />
    </linearGradient>
    <linearGradient
       y2="16"
       x2="18"
       y1="40.840546"
       x1="27.665552"
       gradientTransform="matrix(16.804703,0,0,16.804703,-100.36823,167.94184)"
       gradientUnits="userSpaceOnUse"
       id="linearGradient3741"
       xlink:href="#linearGradient3679"
       inkscape:collect="always" />
    <linearGradient
       id="linearGradient3275">
      <stop
         style="stop-color:#ff9f59;stop-opacity:1"
         offset="0"
         id="stop3277" />
      <stop
         style="stop-color:#d98ab6;stop-opacity:1"
         offset="1"
         id="stop3279" />
    </linearGradient>
    <radialGradient
       r="6.185452"
       fy="29.410728"
       fx="25.176691"
       cy="29.410728"
       cx="25.176691"
       gradientTransform="matrix(9.7067677,19.446507,-24.308132,12.13346,2525.5455,-1227.9843)"
       gradientUnits="userSpaceOnUse"
       id="radialGradient4201"
       xlink:href="#linearGradient3275"
       inkscape:collect="always" />
    <linearGradient
       id="linearGradient4244">
      <stop
         id="stop4246"
         offset="0"
         style="stop-color:#ffd73b;stop-opacity:1;" />
      <stop
         id="stop4248"
         offset="1"
         style="stop-color:#ee8400;stop-opacity:1;" />
    </linearGradient>
    <radialGradient
       r="4"
       fy="11.666667"
       fx="26"
       cy="11.666667"
       cx="26"
       gradientTransform="matrix(1,0,0,0.75,0,3.25)"
       gradientUnits="userSpaceOnUse"
       id="radialGradient4207"
       xlink:href="#linearGradient3669-9"
       inkscape:collect="always" />
    <linearGradient
       id="linearGradient4237">
      <stop
         id="stop4239"
         offset="0"
         style="stop-color:#ffd73b;stop-opacity:1;" />
      <stop
         id="stop4241"
         offset="1"
         style="stop-color:#ee8400;stop-opacity:1;" />
    </linearGradient>
    <radialGradient
       r="7.5"
       fy="10.317088"
       fx="14.318913"
       cy="10.317088"
       cx="14.318913"
       gradientTransform="matrix(30.654213,17.804761,-6.752151,11.625111,1686.983,-1081.0365)"
       gradientUnits="userSpaceOnUse"
       id="radialGradient4205"
       xlink:href="#linearGradient3669-9"
       inkscape:collect="always" />
    <linearGradient
       id="linearGradient3669-9">
      <stop
         id="stop3671-6"
         offset="0"
         style="stop-color:#ffd73b;stop-opacity:1;" />
      <stop
         id="stop3673-8"
         offset="1"
         style="stop-color:#ee8400;stop-opacity:1;" />
    </linearGradient>
    <radialGradient
       r="7.5"
       fy="8.5683317"
       fx="13.488825"
       cy="8.5683317"
       cx="13.488825"
       gradientTransform="matrix(62.176695,10.258356,1.7203354,-10.426952,1384.5093,-769.97007)"
       gradientUnits="userSpaceOnUse"
       id="radialGradient4203"
       xlink:href="#linearGradient3669-9"
       inkscape:collect="always" />
    <linearGradient
       inkscape:collect="always"
       id="linearGradient4294">
      <stop
         style="stop-color:#ffffff;stop-opacity:1"
         offset="0"
         id="stop4296" />
      <stop
         style="stop-color:#ffaa6e;stop-opacity:1"
         offset="1"
         id="stop4298" />
    </linearGradient>
    <linearGradient
       y2="19.5"
       x2="-4.5"
       y1="10"
       x1="-12.233939"
       gradientUnits="userSpaceOnUse"
       id="linearGradient4181"
       xlink:href="#linearGradient4294"
       inkscape:collect="always" />
    <linearGradient
       id="linearGradient4865"
       inkscape:collect="always">
      <stop
         id="stop4867"
         offset="0"
         style="stop-color:#ffdbc2;stop-opacity:1;" />
      <stop
         id="stop4869"
         offset="1"
         style="stop-color:#ffffff;stop-opacity:1" />
    </linearGradient>
    <linearGradient
       y2="8.0270262"
       x2="-6.8865299"
       y1="15.853858"
       x1="-10.614571"
       gradientUnits="userSpaceOnUse"
       id="linearGradient4179"
       xlink:href="#linearGradient4865"
       inkscape:collect="always" />
    <inkscape:perspective
       id="perspective101"
       inkscape:persp3d-origin="116.42237 : 84.653381 : 1"
       inkscape:vp_z="232.84474 : 126.98007 : 1"
       inkscape:vp_y="0 : 1000 : 0"
       inkscape:vp_x="0 : 126.98007 : 1"
       sodipodi:type="inkscape:persp3d" />
    <linearGradient
       id="linearGradient3941">
      <stop
         id="stop3943"
         offset="0"
         style="stop-color:#482107;stop-opacity:1;" />
      <stop
         id="stop3945"
         offset="1"
         style="stop-color:#924c1d;stop-opacity:0;" />
    </linearGradient>
    <linearGradient
       id="linearGradient3969">
      <stop
         id="stop3971"
         offset="0"
         style="stop-color:#000000;stop-opacity:0.75590551" />
      <stop
         id="stop3973"
         offset="1"
         style="stop-color:#000000;stop-opacity:0;" />
    </linearGradient>
    <linearGradient
       id="linearGradient3979">
      <stop
         style="stop-color:#000000;stop-opacity:0.75590551"
         offset="0"
         id="stop3981" />
      <stop
         style="stop-color:#000000;stop-opacity:0"
         offset="1"
         id="stop3983" />
    </linearGradient>
    <linearGradient
       id="linearGradient4023">
      <stop
         id="stop4025"
         offset="0"
         style="stop-color:#00fe00;stop-opacity:1;" />
      <stop
         style="stop-color:#00be00;stop-opacity:1;"
         offset="0.5"
         id="stop4031" />
      <stop
         id="stop4027"
         offset="1"
         style="stop-color:#00fe00;stop-opacity:1;" />
    </linearGradient>
  </defs>
  <sodipodi:namedview
     id="base"
     pagecolor="#ffffff"
     bordercolor="#666666"
     borderopacity="1.0"
     inkscape:pageopacity="0.0"
     inkscape:pageshadow="2"
     inkscape:zoom="0.35"
     inkscape:cx="375"
     inkscape:cy="520"
     inkscape:document-units="px"
     inkscape:current-layer="layer1"
     showgrid="false"
     inkscape:window-width="954"
     inkscape:window-height="563"
     inkscape:window-x="290"
     inkscape:window-y="77"
     inkscape:window-maximized="0" />
  <metadata
     id="metadata7">
    <rdf:RDF>
      <cc:Work
         rdf:about="">
        <dc:format>image/svg+xml</dc:format>
        <dc:type
           rdf:resource="http://purl.org/dc/dcmitype/StillImage" />
        <dc:title></dc:title>
      </cc:Work>
    </rdf:RDF>
  </metadata>
  <g
     inkscape:label="Calque 1"
     inkscape:groupmode="layer"
     id="layer1"
     transform="translate(0,-752.36218)">
    <g
       transform="translate(-22.446928,341.68025)"
       id="layer1-9"
       inkscape:label="Calque 1">
      <path
         style="fill:#ce0505;fill-opacity:1;stroke:#a61212;stroke-width:1.70000005;stroke-miterlimit:4;stroke-opacity:1;stroke-dasharray:none"
         d="m 317.76201,585.53178 c 0,38.2936 -29.30061,68.80932 -68.17055,74.35312 -6.55518,1.45337 -10.87604,-2.01945 -17.90997,-2.01945 -8.59071,0 -12.49503,1.86366 -20.47947,2.01945 -38.4256,-2.33903 -68.47301,-37.50185 -68.47301,-74.35312 0,-34.74045 26.98885,-64.60767 58.98817,-70.66622 19.89997,-4.65419 41.21544,-3.67941 61.08082,0.77968 32.66956,7.40683 54.96401,36.6637 54.96401,69.88654 z"
         id="path4033"
         inkscape:connector-curvature="0"
         sodipodi:nodetypes="ccscsccs" />
      <path
         sodipodi:nodetypes="csssccs"
         inkscape:connector-curvature="0"
         id="path8737"
         d="m 219.16639,477.69565 c -2.51398,-3.68632 -5.24755,-3.52324 -3.94291,-6.07313 0.79048,-1.54497 4.44707,-3.98525 5.59685,-2.29395 0.78502,1.15475 1.23068,3.67599 2.16105,5.29745 4.18366,7.29128 14.91988,32.56632 14.95237,41.48472 -7.01019,3.16611 -5.06817,0.10364 -5.06817,0.10364 -1.57366,-9.1944 -3.24824,-23.19418 -13.69919,-38.51873 z"
         style="fill:#924c1d;fill-opacity:1;stroke:none" />
      <path
         sodipodi:nodetypes="cscc"
         inkscape:connector-curvature="0"
         id="path4273"
         d="m 236.24689,516.77767 c 0,0 -5.28363,-52.78515 31.93399,-71.90577 24.31537,-12.49206 31.26523,-11.84343 31.26523,-11.84343 0,0 10.08238,62.72946 -63.19922,83.7492 z"
         style="fill:url(#linearGradient4029);fill-opacity:1;stroke:#0aa50a;stroke-opacity:1" />
      <path
         sodipodi:nodetypes="cc"
         inkscape:connector-curvature="0"
         id="path5043"
         d="m 236.81737,515.82687 c 0,0 34.03851,-32.13692 57.99858,-75.11292"
         style="fill:none;stroke:#008a00;stroke-width:1px;stroke-linecap:round;stroke-linejoin:round;stroke-opacity:1" />
      <path
         sodipodi:nodetypes="cc"
         inkscape:connector-curvature="0"
         id="path5045"
         d="m 248.03677,503.84683 c 0,0 2.28191,-19.5864 -3.42287,-21.29784"
         style="fill:none;stroke:#008a00;stroke-width:1px;stroke-linecap:round;stroke-linejoin:round;stroke-opacity:1" />
      <path
         sodipodi:nodetypes="cc"
         inkscape:connector-curvature="0"
         id="path5047"
         d="m 258.87585,491.67664 c 0,0 6.65557,-13.12099 -3.80319,-31.37628"
         style="fill:none;stroke:#008a00;stroke-width:1px;stroke-linecap:round;stroke-linejoin:round;stroke-opacity:1" />
      <path
         sodipodi:nodetypes="cc"
         inkscape:connector-curvature="0"
         id="path5047-5"
         d="m 272.66468,475.0377 c 0,0 0.95079,-9.69812 -4.56383,-24.7207"
         style="fill:none;stroke:#008a00;stroke-width:1px;stroke-linecap:round;stroke-linejoin:round;stroke-opacity:1" />
      <path
         sodipodi:nodetypes="cc"
         inkscape:connector-curvature="0"
         id="path5047-5-7"
         d="m 282.99482,460.30035 c 0,0 4.37366,-3.61302 -1.14096,-18.6356"
         style="fill:none;stroke:#008a00;stroke-width:1px;stroke-linecap:round;stroke-linejoin:round;stroke-opacity:1" />
      <path
         sodipodi:nodetypes="cc"
         inkscape:connector-curvature="0"
         id="path5047-5-7-0"
         d="m 294.5638,460.49051 c 0,0 0.57048,-2.66223 -10.2686,-2.2819"
         style="fill:none;stroke:#008a00;stroke-width:1px;stroke-linecap:round;stroke-linejoin:round;stroke-opacity:1" />
      <path
         sodipodi:nodetypes="cc"
         inkscape:connector-curvature="0"
         id="path5047-5-7-0-4"
         d="m 288.91842,477.62344 c 0,0 -4.94414,-3.61303 -15.78322,-3.2327"
         style="fill:none;stroke:#008a00;stroke-width:1px;stroke-linecap:round;stroke-linejoin:round;stroke-opacity:1" />
      <path
         sodipodi:nodetypes="cc"
         inkscape:connector-curvature="0"
         id="path5047-5-7-0-4-4"
         d="m 272.47224,494.25781 c 0,0 -2.47207,-3.23271 -13.31115,-2.85238"
         style="fill:none;stroke:#008a00;stroke-width:1px;stroke-linecap:round;stroke-linejoin:round;stroke-opacity:1" />
      <path
         sodipodi:nodetypes="cc"
         inkscape:connector-curvature="0"
         id="path5047-5-7-0-4-4-9"
         d="m 258.92183,504.50518 c 0,0 0.57048,-0.9508 -10.2686,-0.57047"
         style="fill:none;stroke:#008a00;stroke-width:1px;stroke-linecap:round;stroke-linejoin:round;stroke-opacity:1" />
      <path
         style="fill:#452007;fill-opacity:1;stroke:none"
         d="m 218.75291,472.36629 c -2.11528,1.63435 -4.83407,1.80612 -3.52943,-0.74377 0.79048,-1.54497 4.64717,-3.90031 5.41308,-2.33989 0.7428,1.51335 -1.13677,2.5066 -1.88365,3.08366 z"
         id="path3746"
         inkscape:connector-curvature="0"
         sodipodi:nodetypes="csss" />
      <path
         style="fill:#924c1d;fill-opacity:1;stroke:none"
         d="m 226.36895,659.2972 c 0,0 -0.88963,3.89813 -1.48753,6.85562 -0.59999,2.95646 3.73961,-9.06787 5.38512,-4.63166 0.75336,2.03102 -0.75119,1.4335 1.4056,5.81404 0,-6.20875 3.4911,-8.12465 3.788,-4.87235 0.29998,3.25232 0.0734,4.44154 1.2662,4.73635 1.23301,-8.60601 3.60093,-5.30091 -1.86101,-11.5368 -4.76053,0.58963 -7.30677,1.56485 -8.49638,3.6348 z"
         id="path3951"
         inkscape:connector-curvature="0"
         sodipodi:nodetypes="ccsccccc" />
      <path
         sodipodi:nodetypes="ccscccsssscc"
         inkscape:connector-curvature="0"
         id="path8739"
         d="m 223.28469,659.92532 c 0,0 -0.95271,4.17457 -1.59302,7.34178 -0.64253,3.16611 4.00481,-9.7109 5.76701,-4.9601 0.80677,2.17504 -0.80447,1.53514 1.50525,6.22632 0,-6.64903 3.73869,-8.70078 4.05663,-5.21785 0.32126,3.48294 0.0787,4.75649 1.356,5.07221 0.67576,0.16617 1.06731,-6.99366 2.3831,-6.06371 1.92368,1.35957 2.92698,8.09011 3.04569,6.17769 0.0312,-0.50335 0.57185,-3.47599 0.36549,-5.10121 -0.0863,-0.67932 -0.14121,-1.14293 -0.14121,-1.98486 0,-3.48293 -2.54905,-6.01648 -7.64606,-5.38282 -5.09811,0.63145 -7.82491,1.67583 -9.09888,3.89255 z"
         style="fill:#924c1d;fill-opacity:1;stroke:none" />
      <path
         style="fill:url(#linearGradient3947);fill-opacity:1;stroke:none"
         d="m 223.28469,659.92532 c 0,0 -0.95271,4.17457 -1.59302,7.34178 -0.64253,3.16611 4.00481,-9.7109 5.76701,-4.9601 0.80677,2.17504 -0.80447,1.53514 1.50525,6.22632 0,-6.64903 3.73869,-8.70078 4.05663,-5.21785 0.32126,3.48294 0.0787,4.75649 1.356,5.07221 0.67576,0.16617 1.06731,-6.99366 2.3831,-6.06371 1.92368,1.35957 2.92698,8.09011 3.04569,6.17769 0.0312,-0.50335 0.57185,-3.47599 0.36549,-5.10121 -0.0863,-0.67932 -0.14121,-1.14293 -0.14121,-1.98486 0,-3.48293 -2.54905,-6.01648 -7.64606,-5.38282 -5.09811,0.63145 -7.82491,1.67583 -9.09888,3.89255 z"
         id="path3939"
         inkscape:connector-curvature="0"
         sodipodi:nodetypes="ccscccsssscc" />
      <path
         sodipodi:nodetypes="ccscscsss"
         inkscape:connector-curvature="0"
         id="path8724"
         d="m 317.76201,585.53178 c 0,38.2936 -29.30061,68.80932 -68.17055,74.35312 -6.55518,1.45337 -10.87604,-2.01945 -17.90997,-2.01945 -8.59071,0 -12.49503,1.86366 -20.47947,2.01945 -38.4256,-2.33903 -68.47301,-37.50185 -68.47301,-74.35312 0,-34.74045 26.98885,-64.60767 58.98817,-70.66622 9.59874,-3.3555 21.37605,0.99661 32.2411,0.99661 12.50359,0 17.51119,-2.78533 28.83972,-0.21693 32.66956,7.40683 54.96401,36.6637 54.96401,69.88654 z"
         style="fill:#ff0000;fill-opacity:1;stroke:none" />
      <path
         sodipodi:nodetypes="ccscscsss"
         inkscape:connector-curvature="0"
         id="path3975"
         d="m 317.76201,585.53178 c 0,38.2936 -29.30061,68.80932 -68.17055,74.35312 -6.55518,1.45337 -10.87604,-2.01945 -17.90997,-2.01945 -8.59071,0 -12.49503,1.86366 -20.47947,2.01945 -38.4256,-2.33903 -68.47301,-37.50185 -68.47301,-74.35312 0,-34.74045 26.98885,-64.60767 58.98817,-70.66622 9.59874,-3.3555 21.37605,0.99661 32.2411,0.99661 12.50359,0 17.51119,-2.78533 28.83972,-0.21693 32.66956,7.40683 54.96401,36.6637 54.96401,69.88654 z"
         style="opacity:0.65748028;fill:url(#linearGradient3977);fill-opacity:1;stroke:none" />
      <path
         style="fill:none;stroke:#a61212;stroke-width:1.79999995;stroke-miterlimit:4;stroke-opacity:1;stroke-dasharray:none"
         d="m 317.76201,585.53178 c 0,38.2936 -29.30061,68.80932 -68.17055,74.35312 -6.55518,1.45337 -10.87604,-2.01945 -17.90997,-2.01945 -8.59071,0 -12.49503,1.86366 -20.47947,2.01945 -38.4256,-2.33903 -68.47301,-37.50185 -68.47301,-74.35312 0,-34.74045 26.98885,-64.60767 58.98817,-70.66622 9.59874,-3.3555 21.37605,0.99661 32.2411,0.99661 12.50359,0 17.51119,-2.78533 28.83972,-0.21693 32.66956,7.40683 54.96401,36.6637 54.96401,69.88654 z"
         id="path3965"
         inkscape:connector-curvature="0"
         sodipodi:nodetypes="ccscscsss" />
      <path
         transform="translate(110.89129,430.35453)"
         d="m 157.49411,154.68169 c 0,9.04264 -4.59611,16.37315 -10.2657,16.37315 -5.66959,0 -10.26571,-7.33051 -10.26571,-16.37315 0,-9.04264 4.59612,-16.37315 10.26571,-16.37315 5.66959,0 10.2657,7.33051 10.2657,16.37315 z"
         sodipodi:ry="16.37315"
         sodipodi:rx="10.265705"
         sodipodi:cy="154.68169"
         sodipodi:cx="147.22841"
         id="path3092"
         style="fill:#000000;fill-opacity:1;stroke:none"
         sodipodi:type="arc" />
      <path
         sodipodi:nodetypes="csssssssssssss"
         inkscape:connector-curvature="0"
         id="path3355"
         d="m 303.44601,571.30397 c -5.11365,4.39179 -9.38974,9.69739 -20.73227,13.76174 -9.70333,3.47694 -18.22971,-13.00036 -22.06189,-13.47906 -7.71249,-0.96339 -13.85387,12.38157 -4.10427,22.17272 7.42019,7.45027 10.69435,8.39326 17.70387,9.92331 8.08566,1.76499 15.43191,-1.09896 24.82245,-6.76988 5.26552,-3.17974 11.64947,-8.03281 14.66776,-11.98806 4.15028,-5.43872 9.6214,-4.22994 14.52679,-4.65404 6.02249,-0.52067 9.30059,-4.161 11.56515,-8.03938 2.95372,-5.05866 3.17663,-11.37785 0.99986,-17.77063 -1.45894,-4.28464 -5.73662,-8.84137 -10.02627,-10.85978 -4.76522,-2.24226 -11.49015,-0.31992 -15.93726,2.39777 -5.97727,3.65283 -7.49413,8.89608 -6.93638,14.94969 0.42316,4.59462 -1.50144,7.79104 -4.48754,10.3556 z"
         style="fill:#e1abb3;fill-opacity:1;stroke:none" />
      <path
         transform="matrix(-17.461406,2.580902,0.47100479,3.1866399,2939.4651,-3381.6032)"
         d="m 179.15169,1090.4611 c 0,0.9318 -0.0923,1.6872 -0.20622,1.6872 -0.1139,0 -0.20623,-0.7554 -0.20623,-1.6872 0,-0.9319 0.0923,-1.6873 0.20623,-1.6873 0.11389,0 0.20622,0.7554 0.20622,1.6873 z"
         sodipodi:ry="1.6872804"
         sodipodi:rx="0.20622316"
         sodipodi:cy="1090.4611"
         sodipodi:cx="178.94547"
         id="path4125"
         style="fill:#ffffff;fill-opacity:1;stroke:none"
         sodipodi:type="arc" />
      <path
         transform="matrix(-11.087679,1.4614993,0.29907959,1.8045133,1986.6926,-1671.6425)"
         d="m 179.15169,1090.4611 c 0,0.9318 -0.0923,1.6872 -0.20622,1.6872 -0.1139,0 -0.20623,-0.7554 -0.20623,-1.6872 0,-0.9319 0.0923,-1.6873 0.20623,-1.6873 0.11389,0 0.20622,0.7554 0.20622,1.6873 z"
         sodipodi:ry="1.6872804"
         sodipodi:rx="0.20622316"
         sodipodi:cy="1090.4611"
         sodipodi:cx="178.94547"
         id="path4125-1"
         style="fill:#000000;fill-opacity:1;stroke:none"
         sodipodi:type="arc" />
      <path
         sodipodi:nodetypes="cccsssscc"
         inkscape:connector-curvature="0"
         id="path4147"
         d="m 326.8908,546.91142 c -0.90234,0.0702 -1.42156,2.39728 -1.68734,2.62356 -0.26637,0.22676 -0.5581,0.34423 -0.82815,0.18166 -0.26975,-0.16308 -0.17883,-0.86341 -0.1563,-1.14445 0.0226,-0.28129 0.83699,-2.03534 1.39696,-2.85927 0.26456,-0.38926 0.99752,-0.50713 1.45286,-0.37335 0.87446,0.25692 2.82598,1.66631 3.13554,2.17981 0.33606,0.55747 0.41969,0.86758 -0.0378,1.29832 -0.5813,0.43687 -1.85545,-1.89967 -3.27575,-1.90628 z"
         style="fill:#000000;fill-opacity:1;stroke:none" />
      <path
         inkscape:connector-curvature="0"
         id="path4149"
         d="m 336.14299,571.81668 c -1.99053,0.61546 -4.16147,0.65448 -5.03179,0.36814 -1.60324,-0.52747 -2.63418,-2.26793 -3.18525,-1.81694 -0.81096,0.77559 -1.07515,0.65524 0.12653,2.04854 1.26381,1.46534 3.35681,1.69793 4.74075,1.62636 2.68662,-0.13893 4.91114,-1.02487 7.64246,-2.32249 0.29202,-0.13873 0.78365,-1.35118 1.05752,-2.07878 -1.59419,1.01295 -4.17028,1.81035 -5.35022,2.17517 z"
         style="fill:#000000;fill-opacity:1;stroke:none"
         sodipodi:nodetypes="cscssscs" />
      <g
         transform="matrix(0.98010067,0,0,1.0969825,5.0186597,-56.496038)"
         id="g3789">
        <path
           sodipodi:nodetypes="cc"
           inkscape:connector-curvature="0"
           id="path3773"
           d="m 280.64439,587.08747 c 0,0 -7.07227,8.27867 1.70989,14.96215"
           style="fill:none;stroke:#d88468;stroke-width:0.99684918;stroke-linecap:round;stroke-linejoin:round;stroke-miterlimit:4;stroke-opacity:1;stroke-dasharray:none" />
        <path
           style="fill:none;stroke:#d88468;stroke-width:1.0372622;stroke-linecap:round;stroke-linejoin:round;stroke-miterlimit:4;stroke-opacity:1;stroke-dasharray:none"
           d="m 273.20295,584.52008 c 0,0 -9.56493,6.31576 -3.81067,16.09672"
           id="path3775"
           inkscape:connector-curvature="0"
           sodipodi:nodetypes="cc" />
        <path
           sodipodi:nodetypes="cc"
           inkscape:connector-curvature="0"
           id="path3777"
           d="m 266.50431,579.34258 c 0,0 -10.69836,4.1136 -7.17955,14.90233"
           style="fill:none;stroke:#d88468;stroke-width:1.0372622;stroke-linecap:round;stroke-linejoin:round;stroke-miterlimit:4;stroke-opacity:1;stroke-dasharray:none" />
        <path
           style="fill:none;stroke:#d88468;stroke-width:1.0372622;stroke-linecap:round;stroke-linejoin:round;stroke-miterlimit:4;stroke-opacity:1;stroke-dasharray:none"
           d="m 262.18647,574.00092 c 0,0 -11.17161,2.56353 -9.20967,13.74072"
           id="path3779"
           inkscape:connector-curvature="0"
           sodipodi:nodetypes="cc" />
        <path
           style="fill:none;stroke:#d88468;stroke-width:0.99684918;stroke-linecap:round;stroke-linejoin:round;stroke-miterlimit:4;stroke-opacity:1;stroke-dasharray:none"
           d="m 288.44281,584.14992 c 0,0 -5.87994,9.16404 3.73001,14.59029"
           id="path3781"
           inkscape:connector-curvature="0"
           sodipodi:nodetypes="cc" />
        <path
           sodipodi:nodetypes="cc"
           inkscape:connector-curvature="0"
           id="path3783"
           d="m 296.19034,579.32522 c 0,0 -4.95629,9.69476 5.13792,14.15596"
           style="fill:none;stroke:#d88468;stroke-width:0.99684918;stroke-linecap:round;stroke-linejoin:round;stroke-miterlimit:4;stroke-opacity:1;stroke-dasharray:none" />
        <path
           style="fill:none;stroke:#d88468;stroke-width:1.01824367;stroke-linecap:round;stroke-linejoin:round;stroke-miterlimit:4;stroke-opacity:1;stroke-dasharray:none"
           d="m 303.36858,573.09512 c 0,0 -4.92803,10.17337 5.10862,14.85481"
           id="path3785"
           inkscape:connector-curvature="0"
           sodipodi:nodetypes="cc" />
        <path
           sodipodi:nodetypes="cc"
           inkscape:connector-curvature="0"
           id="path3787"
           d="m 309.20809,565.54741 c 0,0 -2.89796,12.03486 7.73869,15.02091"
           style="fill:none;stroke:#d88468;stroke-width:1.06393886;stroke-linecap:round;stroke-linejoin:round;stroke-miterlimit:4;stroke-opacity:1;stroke-dasharray:none" />
      </g>
      <path
         style="fill:none;stroke:#000000;stroke-width:1.55999994;stroke-linecap:butt;stroke-linejoin:miter;stroke-miterlimit:4;stroke-opacity:1;stroke-dasharray:none"
         d="m 303.44601,571.30397 c -5.11365,4.39179 -9.38974,9.69739 -20.73227,13.76174 -9.70333,3.47694 -18.22971,-13.00036 -22.06189,-13.47906 -7.71249,-0.96339 -13.85387,12.38157 -4.10427,22.17272 7.42019,7.45027 10.69435,8.39326 17.70387,9.92331 8.08566,1.76499 15.43191,-1.09896 24.82245,-6.76988 5.26552,-3.17974 11.64947,-8.03281 14.66776,-11.98806 4.15028,-5.43872 9.6214,-4.22994 14.52679,-4.65404 6.02249,-0.52067 9.30059,-4.161 11.56515,-8.03938 2.95372,-5.05866 3.17663,-11.37785 0.99986,-17.77063 -1.45894,-4.28464 -5.73662,-8.84137 -10.02627,-10.85978 -4.76522,-2.24226 -11.49015,-0.31992 -15.93726,2.39777 -5.97727,3.65283 -7.49413,8.89608 -6.93638,14.94969 0.42316,4.59462 -1.50144,7.79104 -4.48754,10.3556 z"
         id="path3799"
         inkscape:connector-curvature="0"
         sodipodi:nodetypes="csssssssssssss" />
      <g
         transform="translate(-1.470167,-0.73508351)"
         id="g4061">
        <path
           transform="matrix(6.3109619,10.946414,-6.4827546,5.1565005,-1980.2155,-10937.574)"
           d="m 828.11606,471.2807 c 0,2.71522 -0.43511,4.91633 -0.97183,4.91633 -0.53673,0 -0.97184,-2.20111 -0.97184,-4.91633 0,-2.71521 0.43511,-4.91633 0.97184,-4.91633 0.53672,0 0.97183,2.20112 0.97183,4.91633 z"
           sodipodi:ry="4.9163318"
           sodipodi:rx="0.97183299"
           sodipodi:cy="471.2807"
           sodipodi:cx="827.14423"
           id="path4047"
           style="opacity:0.37007877;fill:#ffffff;fill-opacity:1;stroke:none;filter:url(#filter4057)"
           sodipodi:type="arc" />
        <path
           sodipodi:type="arc"
           style="opacity:0.33858272;fill:#ffffff;fill-opacity:1;stroke:none"
           id="path8727"
           sodipodi:cx="827.14423"
           sodipodi:cy="471.2807"
           sodipodi:rx="0.97183299"
           sodipodi:ry="4.9163318"
           d="m 828.11606,471.2807 c 0,2.71522 -0.43511,4.91633 -0.97183,4.91633 -0.53673,0 -0.97184,-2.20111 -0.97184,-4.91633 0,-2.71521 0.43511,-4.91633 0.97184,-4.91633 0.53672,0 0.97183,2.20112 0.97183,4.91633 z"
           transform="matrix(5.7769369,10.123672,-5.9341927,4.7689336,-1796.6588,-10073.844)" />
      </g>
    </g>
  </g>
</svg>
