<?xml version="1.0" encoding="UTF-8" standalone="no"?>
<!-- Created with Inkscape (http://www.inkscape.org/) -->

<svg
   xmlns:dc="http://purl.org/dc/elements/1.1/"
   xmlns:cc="http://creativecommons.org/ns#"
   xmlns:rdf="http://www.w3.org/1999/02/22-rdf-syntax-ns#"
   xmlns:svg="http://www.w3.org/2000/svg"
   xmlns="http://www.w3.org/2000/svg"
   xmlns:xlink="http://www.w3.org/1999/xlink"
   xmlns:sodipodi="http://sodipodi.sourceforge.net/DTD/sodipodi-0.dtd"
   xmlns:inkscape="http://www.inkscape.org/namespaces/inkscape"
   width="128.00000px"
   height="128.00000px"
   id="svg2"
   sodipodi:version="0.32"
   inkscape:version="0.48.0 r9654"
   sodipodi:docname="tie.svg"
   inkscape:export-filename="/home/nicu/Desktop/potato_guy.png"
   inkscape:export-xdpi="90.000000"
   inkscape:export-ydpi="90.000000"
   version="1.1">
  <defs
     id="defs3">
    <linearGradient
       inkscape:collect="always"
       id="linearGradient14422">
      <stop
         style="stop-color: rgb(0, 0, 0); stop-opacity: 1;"
         offset="0"
         id="stop14424" />
      <stop
         style="stop-color: rgb(0, 0, 0); stop-opacity: 0;"
         offset="1"
         id="stop14426" />
    </linearGradient>
    <linearGradient
       inkscape:collect="always"
       id="linearGradient14414">
      <stop
         style="stop-color: rgb(0, 0, 0); stop-opacity: 1;"
         offset="0"
         id="stop14416" />
      <stop
         style="stop-color: rgb(0, 0, 0); stop-opacity: 0;"
         offset="1"
         id="stop14418" />
    </linearGradient>
    <linearGradient
       id="linearGradient2424">
      <stop
         style="stop-color: rgb(222, 193, 100); stop-opacity: 1;"
         offset="0"
         id="stop2426" />
      <stop
         style="stop-color: rgb(213, 168, 100); stop-opacity: 1;"
         offset="1.0000000"
         id="stop2428" />
    </linearGradient>
    <linearGradient
       inkscape:collect="always"
       xlink:href="#linearGradient2424"
       id="linearGradient7610"
       gradientUnits="userSpaceOnUse"
       gradientTransform="translate(84, 5)"
       x1="114.00000"
       y1="112.36218"
       x2="197.00000"
       y2="288.36218" />
    <linearGradient
       inkscape:collect="always"
       xlink:href="#linearGradient14414"
       id="linearGradient14441"
       gradientUnits="userSpaceOnUse"
       x1="359.40097"
       y1="501.27704"
       x2="392.05878"
       y2="543.17145" />
    <linearGradient
       inkscape:collect="always"
       xlink:href="#linearGradient14422"
       id="linearGradient14443"
       gradientUnits="userSpaceOnUse"
       x1="408.05783"
       y1="499.79263"
       x2="448.46774"
       y2="546.30530" />
    <linearGradient
       id="linearGradient912">
      <stop
         id="stop913"
         offset="0.0000000"
         style="stop-color: rgb(255, 255, 255); stop-opacity: 1;" />
      <stop
         id="stop914"
         offset="1.0000000"
         style="stop-color: rgb(255, 255, 255); stop-opacity: 0;" />
    </linearGradient>
    <radialGradient
       inkscape:collect="always"
       xlink:href="#linearGradient912"
       id="radialGradient17463"
       gradientUnits="userSpaceOnUse"
       gradientTransform="scale(1.02248, 0.978019)"
       cx="44.699298"
       cy="42.720970"
       fx="44.699298"
       fy="42.720970"
       r="12.239094" />
  </defs>
  <sodipodi:namedview
     id="base"
     pagecolor="#ffffff"
     bordercolor="#666666"
     borderopacity="1.0"
     inkscape:pageopacity="0.0"
     inkscape:pageshadow="2"
     inkscape:zoom="1"
     inkscape:cx="252.66113"
     inkscape:cy="75.159642"
     inkscape:document-units="px"
     inkscape:current-layer="layer1"
     inkscape:window-width="1152"
     inkscape:window-height="700"
     inkscape:window-x="0"
     inkscape:window-y="37"
     showguides="true"
     inkscape:guide-bbox="true"
     showgrid="false"
     inkscape:window-maximized="0" />
  <g
     inkscape:label="Layer 1"
     inkscape:groupmode="layer"
     id="layer1">
    <g
       id="g14511"
       transform="matrix(1.9151303,0,0,2.0425253,-212.321,-1134.8416)">
      <path
         sodipodi:nodetypes="cccccccccccccccccc"
         id="path14497"
         d="m 124.77459,575.27839 c -2.12859,0.0998 -2.38329,2.52746 -2.15694,4.37308 -0.0747,1.99407 0.99008,3.75139 0.8149,5.71767 -0.29207,2.10204 -1.67748,3.73124 -1.1889,5.92206 0.72127,1.78934 2.64548,0.64304 4.14865,0.68299 4.01107,-0.19916 7.51439,-0.92425 11.47382,-1.53621 1.73889,0.89346 2.29713,3.70893 4.70257,3.43861 2.6514,0.8134 4.51699,-1.0447 6.3934,-2.67243 4.71384,2.58727 10.23178,4.20207 15.57007,5.27888 1.88831,-0.0135 1.70359,-1.47828 1.75668,-3.00864 -0.014,-1.97763 0.0307,-3.9711 0.49391,-5.92923 0.40329,-2.59568 1.59346,-4.58505 1.15532,-7.2219 -0.65918,-2.41994 -3.69208,-3.25497 -5.83591,-2.37467 -4.17868,0.72444 -8.21328,2.09062 -12.15625,3.625 0.0823,-2.83805 -2.95768,-4.52366 -5.4929,-4.45094 -1.5384,0.0402 -3.35247,0.38008 -4.11625,1.89523 -0.51579,1.65273 -2.1564,1.89475 -3.23653,0.66718 -3.90931,-1.76631 -7.96579,-4.12502 -12.32564,-4.40668 z"
         style="fill:#54cb64;fill-opacity:1;fill-rule:evenodd;stroke:none"
         inkscape:connector-curvature="0" />
      <path
         id="path14499"
         d="m 137.76463,586.9689 c 0,0 1.08818,3.4822 -0.10882,3.4822 -1.19701,0 -6.74677,1.30583 -7.61732,1.41465 -0.87055,0.10882 -6.9644,0.97937 -7.61732,-0.21764 -0.65291,-1.19701 1.95874,-6.85559 5.22331,-6.63795 3.26456,0.21764 9.46723,1.52347 10.12015,1.95874 z"
         style="fill:#000000;fill-opacity:0.08235288;fill-rule:evenodd;stroke:none"
         inkscape:connector-curvature="0" />
      <path
         sodipodi:nodetypes="cccccc"
         id="path14501"
         d="m 136.77238,588.34611 c 0,0 1.74109,2.17637 0.54409,2.17637 -1.19701,0 -6.74677,1.30583 -7.61732,1.41465 -0.87055,0.10882 -5.87621,0.76173 -6.52913,-0.43528 -0.65291,-1.19701 3.04693,-5.54976 6.3115,-5.33212 3.26456,0.21764 6.63794,1.74111 7.29086,2.17638 z"
         style="fill:#000000;fill-opacity:0.08235288;fill-rule:evenodd;stroke:none"
         inkscape:connector-curvature="0" />
      <path
         sodipodi:nodetypes="cccccc"
         id="path14503"
         d="m 141.89974,577.39284 c 0,0 -0.65291,1.08819 -1.41464,2.06756 -0.76173,0.97937 -1.52347,0.97937 -1.52347,2.17638 0,1.19701 -0.87055,2.06756 -0.43527,2.82929 4.02629,-0.21764 7.29086,-4.13512 8.16141,-6.74677 -0.43528,-1.19701 -3.91748,-0.87055 -4.78803,-0.32646 z"
         style="fill:#000000;fill-opacity:0.08235288;fill-rule:evenodd;stroke:none"
         inkscape:connector-curvature="0" />
      <path
         sodipodi:nodetypes="cccccc"
         id="path14505"
         d="m 141.90627,577.148 c 0,0 -0.65291,1.08819 -1.41464,2.06756 -0.76173,0.97937 -1.52347,0.97937 -1.52347,2.17638 0,1.19701 -0.76173,1.19701 -0.32645,1.95874 4.02629,-0.21764 5.65858,-3.48221 6.52913,-6.09386 -0.43528,-1.19701 -2.39402,-0.65291 -3.26457,-0.10882 z"
         style="fill:#000000;fill-opacity:0.08235288;fill-rule:evenodd;stroke:none"
         inkscape:connector-curvature="0" />
      <path
         sodipodi:nodetypes="ccccc"
         id="path14507"
         d="m 149.1906,587.73063 c 0,0 -0.87055,2.72047 -0.43527,3.15575 0.43527,0.43527 9.14078,5.2233 11.31715,4.89684 2.17638,-0.32645 -6.20267,-9.24959 -7.50849,-9.79369 -1.30583,-0.54409 -3.37339,0.76173 -3.37339,1.7411 z"
         style="fill:#000000;fill-opacity:0.08235288;fill-rule:evenodd;stroke:none"
         inkscape:connector-curvature="0" />
      <path
         sodipodi:nodetypes="ccccc"
         id="path14509"
         d="m 149.18091,587.67785 c 0,0 -0.87055,2.72047 -0.43527,3.15575 0.43527,0.43527 7.29086,3.91747 9.90251,4.46156 2.17638,-0.32645 -5.54976,-7.83494 -6.85558,-8.37904 -1.30583,-0.54409 -2.61166,-0.21764 -2.61166,0.76173 z"
         style="fill:#000000;fill-opacity:0.08235288;fill-rule:evenodd;stroke:none"
         inkscape:connector-curvature="0" />
      <path
         sodipodi:nodetypes="cccccccccccccccccccccccccccccccccccccccccccccccccc"
         id="path14453"
         d="m 125.125,574.90625 c -2.12859,0.0998 -3.0362,2.41864 -2.80985,4.26426 -0.0747,1.99407 0.99008,3.86021 0.8149,5.82649 -0.29207,2.10204 -2.11276,3.94887 -1.62418,6.13969 0.72127,1.78934 2.86312,1.18714 4.36629,1.22709 4.01107,-0.19916 7.94966,-1.03307 11.90909,-1.64503 1.73889,0.89346 2.18831,3.92657 4.59375,3.65625 2.6514,0.8134 5.06109,-1.15352 6.9375,-2.78125 4.60502,3.02254 10.01414,4.52852 15.35243,5.60533 1.88831,-0.0135 1.81241,-2.89292 1.8655,-4.42328 -0.014,-1.97763 0.35711,-3.31819 0.82037,-5.27632 0.40329,-2.59568 1.267,-5.23796 0.82886,-7.87481 -0.65918,-2.41994 -3.69208,-3.25497 -5.83591,-2.37467 -4.17868,0.72444 -8.21328,2.09062 -12.15625,3.625 0.0823,-2.83805 -2.95768,-4.52366 -5.4929,-4.45094 -1.5384,0.0402 -3.35247,0.38008 -4.11625,1.89523 -0.51579,1.65273 -2.1564,1.89475 -3.23653,0.66718 -3.90931,-1.76631 -7.85697,-3.79856 -12.21682,-4.08022 z m -0.0776,0.56472 c 4.57324,0.3799 8.78334,3.04854 12.89007,4.90403 1.73302,0.64798 -0.88829,2.92236 0.99989,4.75071 -0.38547,-1.07862 -0.22935,-3.9047 0.76561,-4.51124 1.21933,-0.92091 1.29798,-2.70594 3.3762,-2.94677 2.25184,-0.74847 5.25486,0.13055 6.13955,2.48855 0.449,1.5994 1.62175,2.67624 0.71984,5.32253 1.65475,-1.26014 -0.58477,-4.09697 1.84995,-4.11079 4.16992,-1.53466 8.22457,-3.04733 12.71347,-3.25105 2.10333,-0.0417 3.60268,2.121 3.31783,3.84561 -0.28002,2.89753 -1.93878,5.90727 -1.69933,8.85716 -0.22122,1.625 0.58477,3.9173 -0.85853,5.03793 -2.14014,0.80874 -3.9475,-0.61811 -6.04434,-0.85875 -3.25505,-1.07885 -7.27817,-1.90411 -10.02792,-4.03236 -0.0477,-1.32255 1.70883,-2.18151 -0.0723,-3.69822 0.38332,1.57977 -0.40887,2.72204 -1.42992,4.35669 -1.97608,2.60097 -7.57859,2.6435 -8.76215,-0.6849 -0.43056,-0.68168 -1.03556,-2.60977 0.0393,-3.85559 -0.74809,-0.63524 -1.96045,-0.81852 -3.5529,-1.37533 -3.08797,-1.2511 -6.5467,-1.55683 -9.81801,-0.95918 2.67922,0.37181 9.16118,1.27596 11.71653,2.84375 0.48836,0.91099 1.04821,2.6142 -0.72528,2.35205 -2.85748,0.55809 -4.45558,1.28674 -7.33831,1.70411 -1.71417,-0.0112 -5.51397,0.29077 -6.73826,-0.76692 -0.26988,-2.39746 1.63355,-3.89421 1.20749,-6.32843 0.0576,-2.47566 -1.34012,-5.53796 0.0959,-7.88382 0.25784,-0.5261 0.66235,-1.21531 1.23557,-1.19977 z m 29.02767,10.31185 c -0.94445,0.006 -1.73007,-0.10775 -2.66768,0.1006 2.98343,1.34569 6.64008,0.30745 9.46268,-0.86535 1.59742,-0.7782 2.53314,-2.55777 3.84976,-3.74966 -3.04804,2.25283 -6.81733,4.41775 -10.64476,4.51441 z"
         style="fill:#000000;fill-opacity:1;fill-rule:evenodd;stroke:none"
         inkscape:connector-curvature="0" />
    </g>
  </g>
  <metadata
     id="metadata31">
    <rdf:RDF>
      <cc:Work
         rdf:about="">
        <dc:title></dc:title>
        <dc:description />
        <dc:subject>
          <rdf:Bag>
            <rdf:li>tie</rdf:li>
          </rdf:Bag>
        </dc:subject>
        <dc:publisher>
          <cc:Agent>
            <dc:title />
          </cc:Agent>
        </dc:publisher>
        <dc:creator>
          <cc:Agent>
            <dc:title>Nicu Buculei</dc:title>
          </cc:Agent>
        </dc:creator>
        <dc:rights>
          <cc:Agent>
            <dc:title>Nicu Buculei</dc:title>
          </cc:Agent>
        </dc:rights>
        <dc:date />
        <dc:format>image/svg+xml</dc:format>
        <dc:type
           rdf:resource="http://purl.org/dc/dcmitype/StillImage" />
        <cc:license
           rdf:resource="http://web.resource.org/cc/PublicDomain" />
        <dc:language>en</dc:language>
      </cc:Work>
      <cc:License
         rdf:about="http://web.resource.org/cc/PublicDomain">
        <cc:permits
           rdf:resource="http://web.resource.org/cc/Reproduction" />
        <cc:permits
           rdf:resource="http://web.resource.org/cc/Distribution" />
        <cc:permits
           rdf:resource="http://web.resource.org/cc/DerivativeWorks" />
      </cc:License>
    </rdf:RDF>
  </metadata>
</svg>
