<?xml version="1.0" encoding="UTF-8" standalone="no"?>
<!-- Created with Inkscape (http://www.inkscape.org/) -->
<svg
   xmlns:dc="http://purl.org/dc/elements/1.1/"
   xmlns:cc="http://creativecommons.org/ns#"
   xmlns:rdf="http://www.w3.org/1999/02/22-rdf-syntax-ns#"
   xmlns:svg="http://www.w3.org/2000/svg"
   xmlns="http://www.w3.org/2000/svg"
   xmlns:xlink="http://www.w3.org/1999/xlink"
   xmlns:sodipodi="http://sodipodi.sourceforge.net/DTD/sodipodi-0.dtd"
   xmlns:inkscape="http://www.inkscape.org/namespaces/inkscape"
   width="27.745049"
   height="26.202736"
   id="svg3258"
   sodipodi:version="0.32"
   inkscape:version="0.46"
   version="1.0"
   sodipodi:docname="difficulty5.svg"
   inkscape:output_extension="org.inkscape.output.svg.inkscape">
  <defs
     id="defs3260">
    <linearGradient
       inkscape:collect="always"
       xlink:href="#G1"
       id="linearGradient4787"
       gradientUnits="userSpaceOnUse"
       gradientTransform="translate(-60.236798,-12.32645)"
       x1="14.660452"
       y1="7.0243196"
       x2="24.030643"
       y2="34.826122" />
    <radialGradient
       inkscape:collect="always"
       xlink:href="#G2"
       id="radialGradient4785"
       gradientUnits="userSpaceOnUse"
       gradientTransform="matrix(2.4,0,0,0.67,-77.801947,17.283361)"
       cx="17.3125"
       cy="25.53125"
       fx="17.3125"
       fy="25.53125"
       r="9.6875" />
    <linearGradient
       id="G1">
      <stop
         offset="0"
         style="stop-color:#fcf9fb;stop-opacity:1"
         id="s3" />
      <stop
         offset="1"
         style="stop-color:#fcf9fb;stop-opacity:0"
         id="s4" />
    </linearGradient>
    <linearGradient
       inkscape:collect="always"
       xlink:href="#G1"
       id="linearGradient4783"
       gradientUnits="userSpaceOnUse"
       gradientTransform="translate(-60.236798,-12.32645)"
       x1="14.660452"
       y1="7.0243196"
       x2="24.030643"
       y2="34.826122" />
    <linearGradient
       id="G2">
      <stop
         offset="0"
         style="stop-color:#000000;stop-opacity:0.63"
         id="s5" />
      <stop
         offset="1"
         style="stop-color:#000000;stop-opacity:0"
         id="s6" />
    </linearGradient>
    <radialGradient
       inkscape:collect="always"
       xlink:href="#G2"
       id="radialGradient4781"
       gradientUnits="userSpaceOnUse"
       gradientTransform="matrix(2.4,0,0,0.67,-77.801947,17.283361)"
       cx="17.3125"
       cy="25.53125"
       fx="17.3125"
       fy="25.53125"
       r="9.6875" />
    <inkscape:perspective
       sodipodi:type="inkscape:persp3d"
       inkscape:vp_x="0 : 526.18109 : 1"
       inkscape:vp_y="0 : 1000 : 0"
       inkscape:vp_z="744.09448 : 526.18109 : 1"
       inkscape:persp3d-origin="372.04724 : 350.78739 : 1"
       id="perspective3266" />
  </defs>
  <sodipodi:namedview
     id="base"
     pagecolor="#ffffff"
     bordercolor="#666666"
     borderopacity="1.0"
     inkscape:pageopacity="0.0"
     inkscape:pageshadow="2"
     inkscape:zoom="0.35"
     inkscape:cx="375"
     inkscape:cy="520"
     inkscape:document-units="px"
     inkscape:current-layer="layer1"
     showgrid="false"
     inkscape:window-width="641"
     inkscape:window-height="719"
     inkscape:window-x="0"
     inkscape:window-y="277" />
  <metadata
     id="metadata3263">
    <rdf:RDF>
      <cc:Work
         rdf:about="">
        <dc:format>image/svg+xml</dc:format>
        <dc:type
           rdf:resource="http://purl.org/dc/dcmitype/StillImage" />
      </cc:Work>
    </rdf:RDF>
  </metadata>
  <g
     inkscape:label="Calque 1"
     inkscape:groupmode="layer"
     id="layer1"
     transform="translate(-460.41319,-547.83224)">
    <g
       style="display:inline"
       id="DIFFICULTY5"
       transform="matrix(1.1359334,0,0,1.1359334,-59.093537,183.08765)">
      <g
         id="g4623"
         transform="matrix(0.4346151,0,0,0.4346151,483.28644,323.90591)"
         style="display:inline">
        <path
           d="M -13.701947,34.383361 C -13.701947,37.973031 -23.999395,40.883361 -36.701947,40.883361 C -49.404498,40.883361 -59.701947,37.973031 -59.701947,34.383361 C -59.701947,30.793361 -49.404498,26.883361 -36.701947,26.883361 C -23.999395,26.883361 -13.701947,30.79333 -13.701947,34.383361 z"
           id="path4625"
           style="opacity:0.5;fill:url(#radialGradient4781)" />
        <path
           transform="matrix(2.0296314,0,0,2.0296314,-944.31106,-693.78219)"
           d="M 449.03467,341.6393 L 452.2971,340.1011 L 452.86596,343.66283 L 456.40945,344.336 L 454.77614,347.55187 L 457.2472,350.1793 L 454.03558,351.82095 L 454.49036,355.39904 L 450.92716,354.83942 L 449.19193,358.00146 L 446.63818,355.45433 L 443.37575,356.99253 L 442.80689,353.4308 L 439.2634,352.75763 L 440.89672,349.54176 L 438.42565,346.91433 L 441.63727,345.27268 L 441.18249,341.69459 L 444.74569,342.25421 L 446.48092,339.09217 L 449.03467,341.6393 z"
           inkscape:randomized="0"
           inkscape:rounded="0"
           inkscape:flatsided="false"
           sodipodi:arg2="-1.0848769"
           sodipodi:arg1="-1.3990362"
           sodipodi:r2="9.551322"
           sodipodi:r1="7.0106702"
           sodipodi:cy="348.54681"
           sodipodi:cx="447.83643"
           sodipodi:sides="10"
           id="path4627"
           style="opacity:1;fill:#f00d1d;fill-opacity:1;fill-rule:evenodd;stroke:#c4a000;stroke-width:0.89999998;stroke-linecap:round;stroke-linejoin:round;marker:none;marker-start:none;marker-mid:none;marker-end:none;stroke-miterlimit:4;stroke-dasharray:none;stroke-dashoffset:0;stroke-opacity:1;visibility:visible;display:inline;overflow:visible"
           sodipodi:type="star" />
        <path
           transform="matrix(1.7937732,0,0,1.7937732,-838.65643,-611.52362)"
           d="M 449.03467,341.6393 L 452.2971,340.1011 L 452.86596,343.66283 L 456.40945,344.336 L 454.77614,347.55187 L 457.2472,350.1793 L 454.03558,351.82095 L 454.49036,355.39904 L 450.92716,354.83942 L 449.19193,358.00146 L 446.63818,355.45433 L 443.37575,356.99253 L 442.80689,353.4308 L 439.2634,352.75763 L 440.89672,349.54176 L 438.42565,346.91433 L 441.63727,345.27268 L 441.18249,341.69459 L 444.74569,342.25421 L 446.48092,339.09217 L 449.03467,341.6393 z"
           inkscape:randomized="0"
           inkscape:rounded="0"
           inkscape:flatsided="false"
           sodipodi:arg2="-1.0848769"
           sodipodi:arg1="-1.3990362"
           sodipodi:r2="9.551322"
           sodipodi:r1="7.0106702"
           sodipodi:cy="348.54681"
           sodipodi:cx="447.83643"
           sodipodi:sides="10"
           id="path4629"
           style="opacity:1;fill:none;fill-opacity:1;fill-rule:evenodd;stroke:#fab4b9;stroke-width:0.89999998;stroke-linecap:round;stroke-linejoin:round;marker:none;marker-start:none;marker-mid:none;marker-end:none;stroke-miterlimit:4;stroke-dasharray:none;stroke-dashoffset:0;stroke-opacity:1;visibility:visible;display:inline;overflow:visible"
           sodipodi:type="star" />
        <path
           sodipodi:nodetypes="ccccccsccccccc"
           d="M -48.144873,0.5572597 L -41.228668,1.4615317 C -41.228668,1.4615317 -39.016649,-3.4465394 -37.917367,-4.2044265 C -36.585133,-3.7947218 -34.463591,-1.1095676 -33.007102,0.38674285 C -31.804473,-0.2353917 -28.60487,-1.8335235 -26.920341,-2.416278 C -26.166111,-0.5279284 -26.083873,1.9978651 -25.621402,4.1580802 C -24.141418,4.5158429 -22.193987,4.7696735 -21.197988,5.0503507 C -20.201989,5.3310279 -18.99455,5.7257672 -18.99455,5.7257672 L -21.974722,11.818526 C -38.412222,8.1310268 -31.837103,15.8411 -49.950375,17.86384 L -48.742744,15.671885 L -53.145873,10.567022 C -53.145873,10.567022 -49.628021,8.6896253 -47.214898,7.4518087 C -47.592671,4.9348322 -48.144873,0.5572597 -48.144873,0.5572597 z"
           id="path4631"
           style="opacity:0.8;fill:url(#linearGradient4783);stroke:none" />
      </g>
      <g
         id="g4637"
         transform="matrix(0.3532,0,0,0.3532,486.60349,329.72395)"
         style="display:inline">
        <path
           d="M -13.701947,34.383361 C -13.701947,37.973031 -23.999395,40.883361 -36.701947,40.883361 C -49.404498,40.883361 -59.701947,37.973031 -59.701947,34.383361 C -59.701947,30.793361 -49.404498,26.883361 -36.701947,26.883361 C -23.999395,26.883361 -13.701947,30.79333 -13.701947,34.383361 z"
           id="path4639"
           style="opacity:0.5;fill:url(#radialGradient4785)" />
        <path
           transform="matrix(2.0296314,0,0,2.0296314,-944.31106,-693.78219)"
           d="M 449.03467,341.6393 L 452.2971,340.1011 L 452.86596,343.66283 L 456.40945,344.336 L 454.77614,347.55187 L 457.2472,350.1793 L 454.03558,351.82095 L 454.49036,355.39904 L 450.92716,354.83942 L 449.19193,358.00146 L 446.63818,355.45433 L 443.37575,356.99253 L 442.80689,353.4308 L 439.2634,352.75763 L 440.89672,349.54176 L 438.42565,346.91433 L 441.63727,345.27268 L 441.18249,341.69459 L 444.74569,342.25421 L 446.48092,339.09217 L 449.03467,341.6393 z"
           inkscape:randomized="0"
           inkscape:rounded="0"
           inkscape:flatsided="false"
           sodipodi:arg2="-1.0848769"
           sodipodi:arg1="-1.3990362"
           sodipodi:r2="9.551322"
           sodipodi:r1="7.0106702"
           sodipodi:cy="348.54681"
           sodipodi:cx="447.83643"
           sodipodi:sides="10"
           id="path4641"
           style="opacity:1;fill:#f00d1d;fill-opacity:1;fill-rule:evenodd;stroke:#c4a000;stroke-width:0.89999998;stroke-linecap:round;stroke-linejoin:round;marker:none;marker-start:none;marker-mid:none;marker-end:none;stroke-miterlimit:4;stroke-dasharray:none;stroke-dashoffset:0;stroke-opacity:1;visibility:visible;display:inline;overflow:visible"
           sodipodi:type="star" />
        <path
           transform="matrix(1.7937732,0,0,1.7937732,-838.65643,-611.52362)"
           d="M 449.03467,341.6393 L 452.2971,340.1011 L 452.86596,343.66283 L 456.40945,344.336 L 454.77614,347.55187 L 457.2472,350.1793 L 454.03558,351.82095 L 454.49036,355.39904 L 450.92716,354.83942 L 449.19193,358.00146 L 446.63818,355.45433 L 443.37575,356.99253 L 442.80689,353.4308 L 439.2634,352.75763 L 440.89672,349.54176 L 438.42565,346.91433 L 441.63727,345.27268 L 441.18249,341.69459 L 444.74569,342.25421 L 446.48092,339.09217 L 449.03467,341.6393 z"
           inkscape:randomized="0"
           inkscape:rounded="0"
           inkscape:flatsided="false"
           sodipodi:arg2="-1.0848769"
           sodipodi:arg1="-1.3990362"
           sodipodi:r2="9.551322"
           sodipodi:r1="7.0106702"
           sodipodi:cy="348.54681"
           sodipodi:cx="447.83643"
           sodipodi:sides="10"
           id="path4643"
           style="opacity:1;fill:none;fill-opacity:1;fill-rule:evenodd;stroke:#fab4b9;stroke-width:0.89999998;stroke-linecap:round;stroke-linejoin:round;marker:none;marker-start:none;marker-mid:none;marker-end:none;stroke-miterlimit:4;stroke-dasharray:none;stroke-dashoffset:0;stroke-opacity:1;visibility:visible;display:inline;overflow:visible"
           sodipodi:type="star" />
        <path
           sodipodi:nodetypes="ccccccsccccccc"
           d="M -48.144873,0.5572597 L -41.228668,1.4615317 C -41.228668,1.4615317 -39.016649,-3.4465394 -37.917367,-4.2044265 C -36.585133,-3.7947218 -34.463591,-1.1095676 -33.007102,0.38674285 C -31.804473,-0.2353917 -28.60487,-1.8335235 -26.920341,-2.416278 C -26.166111,-0.5279284 -26.083873,1.9978651 -25.621402,4.1580802 C -24.141418,4.5158429 -22.193987,4.7696735 -21.197988,5.0503507 C -20.201989,5.3310279 -18.99455,5.7257672 -18.99455,5.7257672 L -21.974722,11.818526 C -38.412222,8.1310268 -31.837103,15.8411 -49.950375,17.86384 L -48.742744,15.671885 L -53.145873,10.567022 C -53.145873,10.567022 -49.628021,8.6896253 -47.214898,7.4518087 C -47.592671,4.9348322 -48.144873,0.5572597 -48.144873,0.5572597 z"
           id="path4645"
           style="opacity:0.8;fill:url(#linearGradient4787);stroke:none" />
      </g>
    </g>
  </g>
</svg>
