<?xml version="1.0" encoding="UTF-8" standalone="no"?>
<!-- Created with Inkscape (http://www.inkscape.org/) -->
<svg
   xmlns:dc="http://purl.org/dc/elements/1.1/"
   xmlns:cc="http://creativecommons.org/ns#"
   xmlns:rdf="http://www.w3.org/1999/02/22-rdf-syntax-ns#"
   xmlns:svg="http://www.w3.org/2000/svg"
   xmlns="http://www.w3.org/2000/svg"
   xmlns:xlink="http://www.w3.org/1999/xlink"
   xmlns:sodipodi="http://sodipodi.sourceforge.net/DTD/sodipodi-0.dtd"
   xmlns:inkscape="http://www.inkscape.org/namespaces/inkscape"
   width="25.745037"
   height="24.625687"
   id="svg2961"
   sodipodi:version="0.32"
   inkscape:version="0.46"
   version="1.0"
   sodipodi:docname="difficulty1.svg"
   inkscape:output_extension="org.inkscape.output.svg.inkscape">
  <defs
     id="defs2963">
    <linearGradient
       id="G1">
      <stop
         offset="0"
         style="stop-color:#fcf9fb;stop-opacity:1"
         id="s3" />
      <stop
         offset="1"
         style="stop-color:#fcf9fb;stop-opacity:0"
         id="s4" />
    </linearGradient>
    <linearGradient
       inkscape:collect="always"
       xlink:href="#G1"
       id="linearGradient4176"
       gradientUnits="userSpaceOnUse"
       x1="14.660452"
       y1="7.0243196"
       x2="24.030643"
       y2="34.826122" />
    <linearGradient
       id="G2">
      <stop
         offset="0"
         style="stop-color:#000000;stop-opacity:0.63"
         id="s5" />
      <stop
         offset="1"
         style="stop-color:#000000;stop-opacity:0"
         id="s6" />
    </linearGradient>
    <radialGradient
       inkscape:collect="always"
       xlink:href="#G2"
       id="radialGradient4172"
       gradientUnits="userSpaceOnUse"
       gradientTransform="matrix(2.4,0,0,0.67,-17.1,22.4)"
       cx="17.3125"
       cy="25.53125"
       fx="17.3125"
       fy="25.53125"
       r="9.6875" />
    <inkscape:perspective
       sodipodi:type="inkscape:persp3d"
       inkscape:vp_x="0 : 526.18109 : 1"
       inkscape:vp_y="0 : 1000 : 0"
       inkscape:vp_z="744.09448 : 526.18109 : 1"
       inkscape:persp3d-origin="372.04724 : 350.78739 : 1"
       id="perspective2969" />
  </defs>
  <sodipodi:namedview
     id="base"
     pagecolor="#ffffff"
     bordercolor="#666666"
     borderopacity="1.0"
     inkscape:pageopacity="0.0"
     inkscape:pageshadow="2"
     inkscape:zoom="0.35"
     inkscape:cx="375"
     inkscape:cy="520"
     inkscape:document-units="px"
     inkscape:current-layer="layer1"
     showgrid="false"
     inkscape:window-width="641"
     inkscape:window-height="719"
     inkscape:window-x="0"
     inkscape:window-y="277" />
  <metadata
     id="metadata2966">
    <rdf:RDF>
      <cc:Work
         rdf:about="">
        <dc:format>image/svg+xml</dc:format>
        <dc:type
           rdf:resource="http://purl.org/dc/dcmitype/StillImage" />
      </cc:Work>
    </rdf:RDF>
  </metadata>
  <g
     inkscape:label="Calque 1"
     inkscape:groupmode="layer"
     id="layer1"
     transform="translate(-164.27033,-300.04934)">
    <g
       style="display:inline"
       transform="matrix(0.5596747,0,0,0.5596747,163.71066,298.92999)"
       id="DIFFICULTY1">
      <path
         style="opacity:0.5;fill:url(#radialGradient4172)"
         id="s"
         d="M 47,39.5 C 47,43.08967 36.702552,46 24,46 C 11.297449,46 1,43.08967 1,39.5 C 1,35.91 11.297449,32 24,32 C 36.702552,32 47,35.909969 47,39.5 z" />
      <path
         style="fill:#2ea12e;fill-opacity:1;stroke:#c4a000"
         id="star"
         d="M 37.310531,41.5 L 24.030644,34.826121 L 10.735101,41.471448 L 13.289408,27.369086 L 2.5511635,17.368344 L 17.409702,15.326301 L 24.068641,2.5 L 30.697416,15.340488 L 45.551111,17.414249 L 34.789382,27.392039 L 37.310531,41.5 z" />
      <path
         style="opacity:0.8;fill:url(#linearGradient4176);stroke:none"
         id="hl"
         d="M 17.731857,15.79089 L 24.06374,3.5868195 L 30.369452,15.794804 L 44.440148,17.761498 L 40.820395,21.121507 C 24.382895,17.434007 31.36502,28.341981 13.251748,30.364721 L 13.819799,27.184324 L 3.6604518,17.718688 C 3.6604518,17.718688 17.731857,15.79089 17.731857,15.79089 z" />
      <path
         style="opacity:0.68999999;fill:none;stroke:#ffffff"
         id="ol"
         d="M 35.973752,39.712833 L 24.028333,33.709386 L 12.082531,39.678326 L 14.362768,27.008543 L 4.7776396,18.070249 L 18.056076,16.247921 L 24.062792,4.6783526 L 30.045232,16.255741 L 43.322959,18.11306 L 33.713703,27.034785 L 35.973752,39.712833 z" />
    </g>
  </g>
</svg>
