<?xml version="1.0" encoding="UTF-8" standalone="no"?>
<!-- Created with Inkscape (http://www.inkscape.org/) -->

<svg
   xmlns:dc="http://purl.org/dc/elements/1.1/"
   xmlns:cc="http://creativecommons.org/ns#"
   xmlns:rdf="http://www.w3.org/1999/02/22-rdf-syntax-ns#"
   xmlns:svg="http://www.w3.org/2000/svg"
   xmlns="http://www.w3.org/2000/svg"
   xmlns:sodipodi="http://sodipodi.sourceforge.net/DTD/sodipodi-0.dtd"
   xmlns:inkscape="http://www.inkscape.org/namespaces/inkscape"
   width="800"
   height="520"
   id="svg2"
   version="1.1"
   inkscape:version="0.47 r22583"
   inkscape:export-filename="/home/tef/Work/Gcompris/2010/src/boards/connect4/back.png"
   inkscape:export-xdpi="90"
   inkscape:export-ydpi="90"
   sodipodi:docname="connect4.svg">
  <defs
     id="defs4" />
  <sodipodi:namedview
     id="base"
     pagecolor="#ffffff"
     bordercolor="#666666"
     borderopacity="1.0"
     inkscape:pageopacity="0.0"
     inkscape:pageshadow="2"
     inkscape:zoom="0.7"
     inkscape:cx="460.2016"
     inkscape:cy="364.8275"
     inkscape:document-units="px"
     inkscape:current-layer="layer1"
     showgrid="false"
     inkscape:window-width="1280"
     inkscape:window-height="709"
     inkscape:window-x="0"
     inkscape:window-y="33"
     inkscape:window-maximized="1" />
  <metadata
     id="metadata7">
    <rdf:RDF>
      <cc:Work
         rdf:about="">
        <dc:format>image/svg+xml</dc:format>
        <dc:type
           rdf:resource="http://purl.org/dc/dcmitype/StillImage" />
        <dc:title />
      </cc:Work>
    </rdf:RDF>
  </metadata>
  <g
     inkscape:label="Calque 1"
     inkscape:groupmode="layer"
     id="layer1"
     transform="translate(0,-532.36218)">
    <g
       id="g4120">
      <rect
         y="533.36218"
         x="1.0000305"
         height="518"
         width="797.99994"
         id="rect4096"
         style="color:#000000;fill:#000000;fill-opacity:1;fill-rule:nonzero;stroke:#000000;stroke-width:2;stroke-linecap:round;stroke-linejoin:round;stroke-miterlimit:4;stroke-opacity:1;stroke-dasharray:none;stroke-dashoffset:0;marker:none;visibility:visible;display:inline;overflow:visible;enable-background:accumulate" />
      <rect
         ry="14.285714"
         rx="14.285714"
         y="533.36218"
         x="1.0000305"
         height="518"
         width="797.99994"
         id="rect4096-8"
         style="color:#000000;fill:#ffffff;fill-opacity:1;fill-rule:nonzero;stroke:#000000;stroke-width:2;stroke-linecap:round;stroke-linejoin:round;stroke-miterlimit:4;stroke-opacity:1;stroke-dasharray:none;stroke-dashoffset:0;marker:none;visibility:visible;display:inline;overflow:visible;enable-background:accumulate" />
    </g>
    <g
       id="g4083"
       transform="matrix(1,0,0,0.96652411,8.571429,33.799178)">
      <rect
         transform="matrix(1,0,-0.54721974,0.83698898,0,0)"
         y="1156.3501"
         x="769.63721"
         height="75.099129"
         width="44.810272"
         id="rect3995"
         style="color:#000000;fill:#0044aa;fill-opacity:1;fill-rule:nonzero;stroke:#000000;stroke-width:2.18610048;stroke-linecap:round;stroke-linejoin:round;stroke-miterlimit:4;stroke-opacity:1;stroke-dasharray:none;marker:none;visibility:visible;display:inline;overflow:visible;enable-background:accumulate" />
      <path
         sodipodi:nodetypes="ccccc"
         id="rect3995-0"
         d="m 181.70423,981.85228 -0.0344,-14 -41.09574,62.85722 -0.23699,20.6786 41.36714,-69.53582 z"
         style="color:#000000;fill:#002255;fill-opacity:1;fill-rule:nonzero;stroke:#000000;stroke-width:2;stroke-linecap:round;stroke-linejoin:round;stroke-miterlimit:4;stroke-opacity:1;stroke-dasharray:none;marker:none;visibility:visible;display:inline;overflow:visible;enable-background:accumulate" />
      <rect
         y="1031.0491"
         x="95.150162"
         height="20.413658"
         width="44.814865"
         id="rect4048"
         style="color:#000000;fill:#003380;fill-opacity:1;fill-rule:nonzero;stroke:#000000;stroke-width:2;stroke-linecap:round;stroke-linejoin:round;stroke-miterlimit:4;stroke-opacity:1;stroke-dasharray:none;stroke-dashoffset:0;marker:none;visibility:visible;display:inline;overflow:visible;enable-background:accumulate" />
    </g>
    <g
       id="g4088"
       transform="matrix(-1,0,0,0.96652411,789.71154,33.799178)">
      <rect
         style="color:#000000;fill:#0044aa;fill-opacity:1;fill-rule:nonzero;stroke:#000000;stroke-width:2.18610048;stroke-linecap:round;stroke-linejoin:round;stroke-miterlimit:4;stroke-opacity:1;stroke-dasharray:none;marker:none;visibility:visible;display:inline;overflow:visible;enable-background:accumulate"
         id="rect4090"
         width="44.810272"
         height="75.099129"
         x="769.63721"
         y="1156.3501"
         transform="matrix(1,0,-0.54721974,0.83698898,0,0)" />
      <path
         style="color:#000000;fill:#002255;fill-opacity:1;fill-rule:nonzero;stroke:#000000;stroke-width:2;stroke-linecap:round;stroke-linejoin:round;stroke-miterlimit:4;stroke-opacity:1;stroke-dasharray:none;marker:none;visibility:visible;display:inline;overflow:visible;enable-background:accumulate"
         d="m 181.70423,981.85228 -0.0344,-14 -41.09574,62.85722 -0.23699,20.6786 41.36714,-69.53582 z"
         id="path4092"
         sodipodi:nodetypes="ccccc" />
      <rect
         style="color:#000000;fill:#003380;fill-opacity:1;fill-rule:nonzero;stroke:#000000;stroke-width:2;stroke-linecap:round;stroke-linejoin:round;stroke-miterlimit:4;stroke-opacity:1;stroke-dasharray:none;stroke-dashoffset:0;marker:none;visibility:visible;display:inline;overflow:visible;enable-background:accumulate"
         id="rect4094"
         width="44.814865"
         height="20.413658"
         x="95.150162"
         y="1031.0491" />
    </g>
    <path
       style="color:#000000;fill:#002255;fill-opacity:1;fill-rule:nonzero;stroke:#000000;stroke-width:2;stroke-linecap:round;stroke-linejoin:round;stroke-miterlimit:4;stroke-opacity:1;stroke-dasharray:none;marker:none;visibility:visible;display:inline;overflow:visible;enable-background:accumulate"
       d="m 136.46875,567.39343 c -5.54,0 -10,4.46 -10,10 l 0,419.99997 c 0,5.54 4.46,10 10,10 l 525,0 c 5.54,0 10,-4.46 10,-10 l 0,-419.99997 c 0,-5.54 -4.46,-10 -10,-10 l -525,0 z m 52.75,12.28125 c 18.2254,0 33,14.7746 33,33 0,18.2254 -14.7746,33 -33,33 -18.2254,0 -33,-14.7746 -33,-33 0,-18.2254 14.7746,-33 33,-33 z m 70,0 c 18.2254,0 33,14.7746 33,33 0,18.2254 -14.7746,33 -33,33 -18.2254,0 -33,-14.7746 -33,-33 0,-18.2254 14.7746,-33 33,-33 z m 70,0 c 18.2254,0 33,14.7746 33,33 0,18.2254 -14.7746,33 -33,33 -18.2254,0 -33,-14.7746 -33,-33 0,-18.2254 14.7746,-33 33,-33 z m 70,0 c 18.2254,0 33,14.7746 33,33 0,18.2254 -14.7746,33 -33,33 -18.2254,0 -33,-14.7746 -33,-33 0,-18.2254 14.7746,-33 33,-33 z m 70,0 c 18.2254,0 33,14.7746 33,33 0,18.2254 -14.7746,33 -33,33 -18.2254,0 -33,-14.7746 -33,-33 0,-18.2254 14.7746,-33 33,-33 z m 70,0 c 18.2254,0 33,14.7746 33,33 0,18.2254 -14.7746,33 -33,33 -18.2254,0 -33,-14.7746 -33,-33 0,-18.2254 14.7746,-33 33,-33 z m 70,0 c 18.2254,0 33,14.7746 33,33 0,18.2254 -14.7746,33 -33,33 -18.2254,0 -33,-14.7746 -33,-33 0,-18.2254 14.7746,-33 33,-33 z m -420,70 c 18.2254,0 33,14.7746 33,33 0,18.2254 -14.7746,33 -33,33 -18.2254,0 -33,-14.7746 -33,-33 0,-18.2254 14.7746,-33 33,-33 z m 70,0 c 18.2254,0 33,14.7746 33,33 0,18.2254 -14.7746,33 -33,33 -18.2254,0 -33,-14.7746 -33,-33 0,-18.2254 14.7746,-33 33,-33 z m 70,0 c 18.2254,0 33,14.7746 33,33 0,18.2254 -14.7746,33 -33,33 -18.2254,0 -33,-14.7746 -33,-33 0,-18.2254 14.7746,-33 33,-33 z m 70,0 c 18.2254,0 33,14.7746 33,33 0,18.2254 -14.7746,33 -33,33 -18.2254,0 -33,-14.7746 -33,-33 0,-18.2254 14.7746,-33 33,-33 z m 70,0 c 18.2254,0 33,14.7746 33,33 0,18.2254 -14.7746,33 -33,33 -18.2254,0 -33,-14.7746 -33,-33 0,-18.2254 14.7746,-33 33,-33 z m 70,0 c 18.2254,0 33,14.7746 33,33 0,18.2254 -14.7746,33 -33,33 -18.2254,0 -33,-14.7746 -33,-33 0,-18.2254 14.7746,-33 33,-33 z m 70,0 c 18.2254,0 33,14.7746 33,33 0,18.2254 -14.7746,33 -33,33 -18.2254,0 -33,-14.7746 -33,-33 0,-18.2254 14.7746,-33 33,-33 z m -420,70 c 18.2254,0 33,14.7746 33,33 0,18.2254 -14.7746,33 -33,33 -18.2254,0 -33,-14.7746 -33,-33 0,-18.2254 14.7746,-33 33,-33 z m 70,0 c 18.2254,0 33,14.7746 33,33 0,18.2254 -14.7746,33 -33,33 -18.2254,0 -33,-14.7746 -33,-33 0,-18.2254 14.7746,-33 33,-33 z m 70,0 c 18.2254,0 33,14.7746 33,33 0,18.2254 -14.7746,33 -33,33 -18.2254,0 -33,-14.7746 -33,-33 0,-18.2254 14.7746,-33 33,-33 z m 70,0 c 18.2254,0 33,14.7746 33,33 0,18.2254 -14.7746,33 -33,33 -18.2254,0 -33,-14.7746 -33,-33 0,-18.2254 14.7746,-33 33,-33 z m 70,0 c 18.2254,0 33,14.7746 33,33 0,18.2254 -14.7746,33 -33,33 -18.2254,0 -33,-14.7746 -33,-33 0,-18.2254 14.7746,-33 33,-33 z m 70,0 c 18.2254,0 33,14.7746 33,33 0,18.2254 -14.7746,33 -33,33 -18.2254,0 -33,-14.7746 -33,-33 0,-18.2254 14.7746,-33 33,-33 z m 70,0 c 18.2254,0 33,14.7746 33,33 0,18.2254 -14.7746,33 -33,33 -18.2254,0 -33,-14.7746 -33,-33 0,-18.2254 14.7746,-33 33,-33 z m -420,70 c 18.2254,0 33,14.7746 33,33 0,18.2254 -14.7746,33 -33,33 -18.2254,0 -33,-14.7746 -33,-33 0,-18.2254 14.7746,-33 33,-33 z m 70,0 c 18.2254,0 33,14.7746 33,33 0,18.2254 -14.7746,33 -33,33 -18.2254,0 -33,-14.7746 -33,-33 0,-18.2254 14.7746,-33 33,-33 z m 70,0 c 18.2254,0 33,14.7746 33,33 0,18.2254 -14.7746,33 -33,33 -18.2254,0 -33,-14.7746 -33,-33 0,-18.2254 14.7746,-33 33,-33 z m 70,0 c 18.2254,0 33,14.7746 33,33 0,18.2254 -14.7746,33 -33,33 -18.2254,0 -33,-14.7746 -33,-33 0,-18.2254 14.7746,-33 33,-33 z m 70,0 c 18.2254,0 33,14.7746 33,33 0,18.2254 -14.7746,33 -33,33 -18.2254,0 -33,-14.7746 -33,-33 0,-18.2254 14.7746,-33 33,-33 z m 70,0 c 18.2254,0 33,14.7746 33,33 0,18.2254 -14.7746,33 -33,33 -18.2254,0 -33,-14.7746 -33,-33 0,-18.2254 14.7746,-33 33,-33 z m 70,0 c 18.2254,0 33,14.7746 33,33 0,18.2254 -14.7746,33 -33,33 -18.2254,0 -33,-14.7746 -33,-33 0,-18.2254 14.7746,-33 33,-33 z m -420,70 c 18.2254,0 33,14.7746 33,33 0,18.2254 -14.7746,33 -33,33 -18.2254,0 -33,-14.7746 -33,-33 0,-18.2254 14.7746,-33 33,-33 z m 70,0 c 18.2254,0 33,14.7746 33,33 0,18.2254 -14.7746,33 -33,33 -18.2254,0 -33,-14.7746 -33,-33 0,-18.2254 14.7746,-33 33,-33 z m 70,0 c 18.2254,0 33,14.7746 33,33 0,18.2254 -14.7746,33 -33,33 -18.2254,0 -33,-14.7746 -33,-33 0,-18.2254 14.7746,-33 33,-33 z m 70,0 c 18.2254,0 33,14.7746 33,33 0,18.2254 -14.7746,33 -33,33 -18.2254,0 -33,-14.7746 -33,-33 0,-18.2254 14.7746,-33 33,-33 z m 70,0 c 18.2254,0 33,14.7746 33,33 0,18.2254 -14.7746,33 -33,33 -18.2254,0 -33,-14.7746 -33,-33 0,-18.2254 14.7746,-33 33,-33 z m 70,0 c 18.2254,0 33,14.7746 33,33 0,18.2254 -14.7746,33 -33,33 -18.2254,0 -33,-14.7746 -33,-33 0,-18.2254 14.7746,-33 33,-33 z m 70,0 c 18.2254,0 33,14.7746 33,33 0,18.2254 -14.7746,33 -33,33 -18.2254,0 -33,-14.7746 -33,-33 0,-18.2254 14.7746,-33 33,-33 z m -420,70 c 18.2254,0 33,14.7746 33,33 0,18.2254 -14.7746,33 -33,33 -18.2254,0 -33,-14.7746 -33,-33 0,-18.2254 14.7746,-33 33,-33 z m 70,0 c 18.2254,0 33,14.7746 33,33 0,18.2254 -14.7746,33 -33,33 -18.2254,0 -33,-14.7746 -33,-33 0,-18.2254 14.7746,-33 33,-33 z m 70,0 c 18.2254,0 33,14.7746 33,33 0,18.2254 -14.7746,33 -33,33 -18.2254,0 -33,-14.7746 -33,-33 0,-18.2254 14.7746,-33 33,-33 z m 70,0 c 18.2254,0 33,14.7746 33,33 0,18.2254 -14.7746,33 -33,33 -18.2254,0 -33,-14.7746 -33,-33 0,-18.2254 14.7746,-33 33,-33 z m 70,0 c 18.2254,0 33,14.7746 33,33 0,18.2254 -14.7746,33 -33,33 -18.2254,0 -33,-14.7746 -33,-33 0,-18.2254 14.7746,-33 33,-33 z m 70,0 c 18.2254,0 33,14.7746 33,33 0,18.2254 -14.7746,33 -33,33 -18.2254,0 -33,-14.7746 -33,-33 0,-18.2254 14.7746,-33 33,-33 z m 70,0 c 18.2254,0 33,14.7746 33,33 0,18.2254 -14.7746,33 -33,33 -18.2254,0 -33,-14.7746 -33,-33 0,-18.2254 14.7746,-33 33,-33 z"
       id="rect2916-4" />
    <path
       style="color:#000000;fill:#0044aa;fill-opacity:1;fill-rule:nonzero;stroke:#000000;stroke-width:2;stroke-linecap:round;stroke-linejoin:round;stroke-miterlimit:4;stroke-opacity:1;stroke-dasharray:none;marker:none;visibility:visible;display:inline;overflow:visible;enable-background:accumulate"
       d="m 136.46875,571.39343 c -5.54,0 -10,4.46 -10,10 l 0,419.99997 c 0,5.54 4.46,10 10,10 l 525,0 c 5.54,0 10,-4.46 10,-10 l 0,-419.99997 c 0,-5.54 -4.46,-10 -10,-10 l -525,0 z m 52.75,12.28125 c 18.2254,0 33,14.7746 33,33 0,18.2254 -14.7746,33 -33,33 -18.2254,0 -33,-14.7746 -33,-33 0,-18.2254 14.7746,-33 33,-33 z m 70,0 c 18.2254,0 33,14.7746 33,33 0,18.2254 -14.7746,33 -33,33 -18.2254,0 -33,-14.7746 -33,-33 0,-18.2254 14.7746,-33 33,-33 z m 70,0 c 18.2254,0 33,14.7746 33,33 0,18.2254 -14.7746,33 -33,33 -18.2254,0 -33,-14.7746 -33,-33 0,-18.2254 14.7746,-33 33,-33 z m 70,0 c 18.2254,0 33,14.7746 33,33 0,18.2254 -14.7746,33 -33,33 -18.2254,0 -33,-14.7746 -33,-33 0,-18.2254 14.7746,-33 33,-33 z m 70,0 c 18.2254,0 33,14.7746 33,33 0,18.2254 -14.7746,33 -33,33 -18.2254,0 -33,-14.7746 -33,-33 0,-18.2254 14.7746,-33 33,-33 z m 70,0 c 18.2254,0 33,14.7746 33,33 0,18.2254 -14.7746,33 -33,33 -18.2254,0 -33,-14.7746 -33,-33 0,-18.2254 14.7746,-33 33,-33 z m 70,0 c 18.2254,0 33,14.7746 33,33 0,18.2254 -14.7746,33 -33,33 -18.2254,0 -33,-14.7746 -33,-33 0,-18.2254 14.7746,-33 33,-33 z m -420,70 c 18.2254,0 33,14.7746 33,33 0,18.2254 -14.7746,33 -33,33 -18.2254,0 -33,-14.7746 -33,-33 0,-18.2254 14.7746,-33 33,-33 z m 70,0 c 18.2254,0 33,14.7746 33,33 0,18.2254 -14.7746,33 -33,33 -18.2254,0 -33,-14.7746 -33,-33 0,-18.2254 14.7746,-33 33,-33 z m 70,0 c 18.2254,0 33,14.7746 33,33 0,18.2254 -14.7746,33 -33,33 -18.2254,0 -33,-14.7746 -33,-33 0,-18.2254 14.7746,-33 33,-33 z m 70,0 c 18.2254,0 33,14.7746 33,33 0,18.2254 -14.7746,33 -33,33 -18.2254,0 -33,-14.7746 -33,-33 0,-18.2254 14.7746,-33 33,-33 z m 70,0 c 18.2254,0 33,14.7746 33,33 0,18.2254 -14.7746,33 -33,33 -18.2254,0 -33,-14.7746 -33,-33 0,-18.2254 14.7746,-33 33,-33 z m 70,0 c 18.2254,0 33,14.7746 33,33 0,18.2254 -14.7746,33 -33,33 -18.2254,0 -33,-14.7746 -33,-33 0,-18.2254 14.7746,-33 33,-33 z m 70,0 c 18.2254,0 33,14.7746 33,33 0,18.2254 -14.7746,33 -33,33 -18.2254,0 -33,-14.7746 -33,-33 0,-18.2254 14.7746,-33 33,-33 z m -420,70 c 18.2254,0 33,14.7746 33,33 0,18.2254 -14.7746,33 -33,33 -18.2254,0 -33,-14.7746 -33,-33 0,-18.2254 14.7746,-33 33,-33 z m 70,0 c 18.2254,0 33,14.7746 33,33 0,18.2254 -14.7746,33 -33,33 -18.2254,0 -33,-14.7746 -33,-33 0,-18.2254 14.7746,-33 33,-33 z m 70,0 c 18.2254,0 33,14.7746 33,33 0,18.2254 -14.7746,33 -33,33 -18.2254,0 -33,-14.7746 -33,-33 0,-18.2254 14.7746,-33 33,-33 z m 70,0 c 18.2254,0 33,14.7746 33,33 0,18.2254 -14.7746,33 -33,33 -18.2254,0 -33,-14.7746 -33,-33 0,-18.2254 14.7746,-33 33,-33 z m 70,0 c 18.2254,0 33,14.7746 33,33 0,18.2254 -14.7746,33 -33,33 -18.2254,0 -33,-14.7746 -33,-33 0,-18.2254 14.7746,-33 33,-33 z m 70,0 c 18.2254,0 33,14.7746 33,33 0,18.2254 -14.7746,33 -33,33 -18.2254,0 -33,-14.7746 -33,-33 0,-18.2254 14.7746,-33 33,-33 z m 70,0 c 18.2254,0 33,14.7746 33,33 0,18.2254 -14.7746,33 -33,33 -18.2254,0 -33,-14.7746 -33,-33 0,-18.2254 14.7746,-33 33,-33 z m -420,70 c 18.2254,0 33,14.7746 33,33 0,18.2254 -14.7746,33 -33,33 -18.2254,0 -33,-14.7746 -33,-33 0,-18.2254 14.7746,-33 33,-33 z m 70,0 c 18.2254,0 33,14.7746 33,33 0,18.2254 -14.7746,33 -33,33 -18.2254,0 -33,-14.7746 -33,-33 0,-18.2254 14.7746,-33 33,-33 z m 70,0 c 18.2254,0 33,14.7746 33,33 0,18.2254 -14.7746,33 -33,33 -18.2254,0 -33,-14.7746 -33,-33 0,-18.2254 14.7746,-33 33,-33 z m 70,0 c 18.2254,0 33,14.7746 33,33 0,18.2254 -14.7746,33 -33,33 -18.2254,0 -33,-14.7746 -33,-33 0,-18.2254 14.7746,-33 33,-33 z m 70,0 c 18.2254,0 33,14.7746 33,33 0,18.2254 -14.7746,33 -33,33 -18.2254,0 -33,-14.7746 -33,-33 0,-18.2254 14.7746,-33 33,-33 z m 70,0 c 18.2254,0 33,14.7746 33,33 0,18.2254 -14.7746,33 -33,33 -18.2254,0 -33,-14.7746 -33,-33 0,-18.2254 14.7746,-33 33,-33 z m 70,0 c 18.2254,0 33,14.7746 33,33 0,18.2254 -14.7746,33 -33,33 -18.2254,0 -33,-14.7746 -33,-33 0,-18.2254 14.7746,-33 33,-33 z m -420,70 c 18.2254,0 33,14.7746 33,33 0,18.2254 -14.7746,33 -33,33 -18.2254,0 -33,-14.7746 -33,-33 0,-18.2254 14.7746,-33 33,-33 z m 70,0 c 18.2254,0 33,14.7746 33,33 0,18.2254 -14.7746,33 -33,33 -18.2254,0 -33,-14.7746 -33,-33 0,-18.2254 14.7746,-33 33,-33 z m 70,0 c 18.2254,0 33,14.7746 33,33 0,18.2254 -14.7746,33 -33,33 -18.2254,0 -33,-14.7746 -33,-33 0,-18.2254 14.7746,-33 33,-33 z m 70,0 c 18.2254,0 33,14.7746 33,33 0,18.2254 -14.7746,33 -33,33 -18.2254,0 -33,-14.7746 -33,-33 0,-18.2254 14.7746,-33 33,-33 z m 70,0 c 18.2254,0 33,14.7746 33,33 0,18.2254 -14.7746,33 -33,33 -18.2254,0 -33,-14.7746 -33,-33 0,-18.2254 14.7746,-33 33,-33 z m 70,0 c 18.2254,0 33,14.7746 33,33 0,18.2254 -14.7746,33 -33,33 -18.2254,0 -33,-14.7746 -33,-33 0,-18.2254 14.7746,-33 33,-33 z m 70,0 c 18.2254,0 33,14.7746 33,33 0,18.2254 -14.7746,33 -33,33 -18.2254,0 -33,-14.7746 -33,-33 0,-18.2254 14.7746,-33 33,-33 z m -420,70 c 18.2254,0 33,14.7746 33,33 0,18.2254 -14.7746,33 -33,33 -18.2254,0 -33,-14.7746 -33,-33 0,-18.2254 14.7746,-33 33,-33 z m 70,0 c 18.2254,0 33,14.7746 33,33 0,18.2254 -14.7746,33 -33,33 -18.2254,0 -33,-14.7746 -33,-33 0,-18.2254 14.7746,-33 33,-33 z m 70,0 c 18.2254,0 33,14.7746 33,33 0,18.2254 -14.7746,33 -33,33 -18.2254,0 -33,-14.7746 -33,-33 0,-18.2254 14.7746,-33 33,-33 z m 70,0 c 18.2254,0 33,14.7746 33,33 0,18.2254 -14.7746,33 -33,33 -18.2254,0 -33,-14.7746 -33,-33 0,-18.2254 14.7746,-33 33,-33 z m 70,0 c 18.2254,0 33,14.7746 33,33 0,18.2254 -14.7746,33 -33,33 -18.2254,0 -33,-14.7746 -33,-33 0,-18.2254 14.7746,-33 33,-33 z m 70,0 c 18.2254,0 33,14.7746 33,33 0,18.2254 -14.7746,33 -33,33 -18.2254,0 -33,-14.7746 -33,-33 0,-18.2254 14.7746,-33 33,-33 z m 70,0 c 18.2254,0 33,14.7746 33,33 0,18.2254 -14.7746,33 -33,33 -18.2254,0 -33,-14.7746 -33,-33 0,-18.2254 14.7746,-33 33,-33 z"
       id="rect2916" />
    <path
       style="opacity:0.8;color:#000000;fill:#003380;fill-opacity:1;fill-rule:nonzero;stroke:none;stroke-width:2;marker:none;visibility:visible;display:inline;overflow:visible;enable-background:accumulate"
       d="m 659.34375,575.125 c -60.3793,0.65758 -120.88473,0.0932 -181.3125,0.28125 -114.47118,0.12423 -229.08965,-0.25756 -343.46875,0.21875 -4.27813,1.54003 -5.52081,8.10776 -3.65625,11.59375 6.14568,1.06356 12.54188,-0.62628 18.78125,0.125 7.49692,-0.35098 16.09638,2.01858 22.21875,-3.4375 12.45707,-6.62308 28.88438,-5.37271 39.9375,3.46875 8.60093,-0.67086 17.9261,1.46017 26.09375,-1 12.75112,-9.26652 31.62954,-8.81961 43.90625,1 8.60093,-0.67086 17.9261,1.46017 26.09375,-1 12.75112,-9.26652 31.62954,-8.81961 43.90625,1 8.60093,-0.67086 17.9261,1.46017 26.09375,-1 12.75112,-9.26652 31.62954,-8.81961 43.90625,1 8.60093,-0.67086 17.9261,1.46017 26.09375,-1 12.75112,-9.26652 31.62954,-8.81961 43.90625,1 8.60093,-0.67086 17.9261,1.46017 26.09375,-1 12.75112,-9.26652 31.62954,-8.81961 43.90625,1 8.60093,-0.67086 17.9261,1.46017 26.09375,-1 12.75112,-9.26652 31.62954,-8.81961 43.90625,1 8.25351,-0.85552 19.93799,-0.34605 22.6875,9.3125 2.60949,10.35362 -0.11644,21.17395 0.9375,31.71875 0,126.38542 0,252.77083 0,379.15625 5.02801,0.8368 13.46363,-0.654 11.81969,-7.625 0.31094,-140.07409 0.26476,-280.22035 0.0241,-420.25 -1.05776,-3.20531 -4.77474,-4.8486 -7.96875,-4.5625 z m -507.3125,38.0625 c -15.01981,10.47879 -15.87111,35.51085 -0.6875,46.3125 3.07313,1.7959 7.92337,6.79748 10.4375,2.375 4.11612,-4.60283 9.48102,-8.10042 15.28125,-10.15625 -15.58545,-5.54478 -26.91131,-22.15345 -24.65625,-38.78125 l -0.375,0.25 z m 71.9375,16.15625 c -2.0406,6.85034 -7.64188,12.44255 -12.03125,17.1875 2.87322,8.15985 9.74269,14.88256 17.9375,17.59375 3.93077,-5.82675 11.9401,-10.25435 16.78125,-12.59375 C 236.36238,647.75337 227.78906,639.13032 224.1875,628.75 l -0.21875,0.59375 z m 70,0 c -2.0406,6.85034 -7.64188,12.44255 -12.03125,17.1875 2.87322,8.15985 9.74269,14.88256 17.9375,17.59375 3.93077,-5.82675 11.9401,-10.25435 16.78125,-12.59375 C 306.36238,647.75337 297.78906,639.13032 294.1875,628.75 l -0.21875,0.59375 z m 70,0 c -2.0406,6.85034 -7.64188,12.44255 -12.03125,17.1875 2.87322,8.15985 9.74269,14.88256 17.9375,17.59375 3.93077,-5.82675 11.9401,-10.25435 16.78125,-12.59375 C 376.36238,647.75337 367.78906,639.13032 364.1875,628.75 l -0.21875,0.59375 z m 70,0 c -2.0406,6.85034 -7.64188,12.44255 -12.03125,17.1875 2.87322,8.15985 9.74269,14.88256 17.9375,17.59375 3.93077,-5.82675 11.9401,-10.25435 16.78125,-12.59375 C 446.36238,647.75337 437.78906,639.13032 434.1875,628.75 l -0.21875,0.59375 z m 70,0 c -2.0406,6.85034 -7.64188,12.44255 -12.03125,17.1875 2.87322,8.15985 9.74269,14.88256 17.9375,17.59375 3.93077,-5.82675 11.9401,-10.25435 16.78125,-12.59375 C 516.36238,647.75337 507.78906,639.13032 504.1875,628.75 l -0.21875,0.59375 z m 70,0 c -2.0406,6.85034 -7.64188,12.44255 -12.03125,17.1875 2.87322,8.15985 9.74269,14.88256 17.9375,17.59375 3.93077,-5.82675 11.9401,-10.25435 16.78125,-12.59375 C 586.36238,647.75337 577.78906,639.13032 574.1875,628.75 l -0.21875,0.59375 z m -421.9375,53.84375 c -15.01981,10.47879 -15.87111,35.51085 -0.6875,46.3125 3.07313,1.7959 7.92337,6.79748 10.4375,2.375 4.11612,-4.60283 9.48102,-8.10042 15.28125,-10.15625 -15.58545,-5.54478 -26.91131,-22.15345 -24.65625,-38.78125 l -0.375,0.25 z m 71.9375,16.15625 c -2.0406,6.85034 -7.64188,12.44255 -12.03125,17.1875 2.87322,8.15985 9.74269,14.88256 17.9375,17.59375 3.93077,-5.82675 11.9401,-10.25435 16.78125,-12.59375 C 236.36238,717.75337 227.78906,709.13032 224.1875,698.75 l -0.21875,0.59375 z m 70,0 c -2.0406,6.85034 -7.64188,12.44255 -12.03125,17.1875 2.87322,8.15985 9.74269,14.88256 17.9375,17.59375 3.93077,-5.82675 11.9401,-10.25435 16.78125,-12.59375 C 306.36238,717.75337 297.78906,709.13032 294.1875,698.75 l -0.21875,0.59375 z m 70,0 c -2.0406,6.85034 -7.64188,12.44255 -12.03125,17.1875 2.87322,8.15985 9.74269,14.88256 17.9375,17.59375 3.93077,-5.82675 11.9401,-10.25435 16.78125,-12.59375 C 376.36238,717.75337 367.78906,709.13032 364.1875,698.75 l -0.21875,0.59375 z m 70,0 c -2.0406,6.85034 -7.64188,12.44255 -12.03125,17.1875 2.87322,8.15985 9.74269,14.88256 17.9375,17.59375 3.93077,-5.82675 11.9401,-10.25435 16.78125,-12.59375 C 446.36238,717.75337 437.78906,709.13032 434.1875,698.75 l -0.21875,0.59375 z m 70,0 c -2.0406,6.85034 -7.64188,12.44255 -12.03125,17.1875 2.87322,8.15985 9.74269,14.88256 17.9375,17.59375 3.93077,-5.82675 11.9401,-10.25435 16.78125,-12.59375 C 516.36238,717.75337 507.78906,709.13032 504.1875,698.75 l -0.21875,0.59375 z m 70,0 c -2.0406,6.85034 -7.64188,12.44255 -12.03125,17.1875 2.87322,8.15985 9.74269,14.88256 17.9375,17.59375 3.93077,-5.82675 11.9401,-10.25435 16.78125,-12.59375 C 586.36238,717.75337 577.78906,709.13032 574.1875,698.75 l -0.21875,0.59375 z m -421.9375,53.84375 c -15.01981,10.47879 -15.87111,35.51085 -0.6875,46.3125 3.07313,1.7959 7.92337,6.79748 10.4375,2.375 4.11612,-4.60283 9.48102,-8.10042 15.28125,-10.15625 -15.58545,-5.54478 -26.91131,-22.15345 -24.65625,-38.78125 l -0.375,0.25 z m 71.9375,16.15625 c -2.0406,6.85034 -7.64188,12.44255 -12.03125,17.1875 2.87322,8.15985 9.74269,14.88256 17.9375,17.59375 3.93077,-5.82675 11.9401,-10.25435 16.78125,-12.59375 C 236.36238,787.75337 227.78906,779.13032 224.1875,768.75 l -0.21875,0.59375 z m 70,0 c -2.0406,6.85034 -7.64188,12.44255 -12.03125,17.1875 2.87322,8.15985 9.74269,14.88256 17.9375,17.59375 3.93077,-5.82675 11.9401,-10.25435 16.78125,-12.59375 C 306.36238,787.75337 297.78906,779.13032 294.1875,768.75 l -0.21875,0.59375 z m 70,0 c -2.0406,6.85034 -7.64188,12.44255 -12.03125,17.1875 2.87322,8.15985 9.74269,14.88256 17.9375,17.59375 3.93077,-5.82675 11.9401,-10.25435 16.78125,-12.59375 C 376.36238,787.75337 367.78906,779.13032 364.1875,768.75 l -0.21875,0.59375 z m 70,0 c -2.0406,6.85034 -7.64188,12.44255 -12.03125,17.1875 2.87322,8.15985 9.74269,14.88256 17.9375,17.59375 3.93077,-5.82675 11.9401,-10.25435 16.78125,-12.59375 C 446.36238,787.75337 437.78906,779.13032 434.1875,768.75 l -0.21875,0.59375 z m 70,0 c -2.0406,6.85034 -7.64188,12.44255 -12.03125,17.1875 2.87322,8.15985 9.74269,14.88256 17.9375,17.59375 3.93077,-5.82675 11.9401,-10.25435 16.78125,-12.59375 C 516.36238,787.75337 507.78906,779.13032 504.1875,768.75 l -0.21875,0.59375 z m 70,0 c -2.0406,6.85034 -7.64188,12.44255 -12.03125,17.1875 2.87322,8.15985 9.74269,14.88256 17.9375,17.59375 3.93077,-5.82675 11.9401,-10.25435 16.78125,-12.59375 C 586.36238,787.75337 577.78906,779.13032 574.1875,768.75 l -0.21875,0.59375 z m -421.9375,53.84375 c -15.01981,10.47879 -15.87111,35.51085 -0.6875,46.3125 3.07313,1.7959 7.92337,6.79748 10.4375,2.375 4.11612,-4.60283 9.48102,-8.10042 15.28125,-10.15625 -15.58545,-5.54478 -26.91131,-22.15345 -24.65625,-38.78125 l -0.375,0.25 z m 71.9375,16.15625 c -2.0406,6.85034 -7.64188,12.44255 -12.03125,17.1875 2.87322,8.15985 9.74269,14.88256 17.9375,17.59375 3.93077,-5.82675 11.9401,-10.25435 16.78125,-12.59375 C 236.36238,857.75337 227.78906,849.13032 224.1875,838.75 l -0.21875,0.59375 z m 70,0 c -2.0406,6.85034 -7.64188,12.44255 -12.03125,17.1875 2.87322,8.15985 9.74269,14.88256 17.9375,17.59375 3.93077,-5.82675 11.9401,-10.25435 16.78125,-12.59375 C 306.36238,857.75337 297.78906,849.13032 294.1875,838.75 l -0.21875,0.59375 z m 70,0 c -2.0406,6.85034 -7.64188,12.44255 -12.03125,17.1875 2.87322,8.15985 9.74269,14.88256 17.9375,17.59375 3.93077,-5.82675 11.9401,-10.25435 16.78125,-12.59375 C 376.36238,857.75337 367.78906,849.13032 364.1875,838.75 l -0.21875,0.59375 z m 70,0 c -2.0406,6.85034 -7.64188,12.44255 -12.03125,17.1875 2.87322,8.15985 9.74269,14.88256 17.9375,17.59375 3.93077,-5.82675 11.9401,-10.25435 16.78125,-12.59375 C 446.36238,857.75337 437.78906,849.13032 434.1875,838.75 l -0.21875,0.59375 z m 70,0 c -2.0406,6.85034 -7.64188,12.44255 -12.03125,17.1875 2.87322,8.15985 9.74269,14.88256 17.9375,17.59375 3.93077,-5.82675 11.9401,-10.25435 16.78125,-12.59375 C 516.36238,857.75337 507.78906,849.13032 504.1875,838.75 l -0.21875,0.59375 z m 70,0 c -2.0406,6.85034 -7.64188,12.44255 -12.03125,17.1875 2.87322,8.15985 9.74269,14.88256 17.9375,17.59375 3.93077,-5.82675 11.9401,-10.25435 16.78125,-12.59375 C 586.36238,857.75337 577.78906,849.13032 574.1875,838.75 l -0.21875,0.59375 z m -421.9375,53.84375 c -15.01981,10.47879 -15.87111,35.51085 -0.6875,46.3125 3.07313,1.7959 7.92337,6.79748 10.4375,2.375 4.11612,-4.60283 9.48102,-8.10042 15.28125,-10.15625 -15.58545,-5.54478 -26.91131,-22.15345 -24.65625,-38.78125 l -0.375,0.25 z m 71.9375,16.15625 c -2.0406,6.85034 -7.64188,12.44255 -12.03125,17.1875 2.87322,8.15985 9.74269,14.88256 17.9375,17.59375 3.93077,-5.82675 11.9401,-10.25435 16.78125,-12.59375 C 236.36238,927.75337 227.78906,919.13032 224.1875,908.75 l -0.21875,0.59375 z m 70,0 c -2.0406,6.85034 -7.64188,12.44255 -12.03125,17.1875 2.87322,8.15985 9.74269,14.88256 17.9375,17.59375 3.93077,-5.82675 11.9401,-10.25435 16.78125,-12.59375 C 306.36238,927.75337 297.78906,919.13032 294.1875,908.75 l -0.21875,0.59375 z m 70,0 c -2.0406,6.85034 -7.64188,12.44255 -12.03125,17.1875 2.87322,8.15985 9.74269,14.88256 17.9375,17.59375 3.93077,-5.82675 11.9401,-10.25435 16.78125,-12.59375 C 376.36238,927.75337 367.78906,919.13032 364.1875,908.75 l -0.21875,0.59375 z m 70,0 c -2.0406,6.85034 -7.64188,12.44255 -12.03125,17.1875 2.87322,8.15985 9.74269,14.88256 17.9375,17.59375 3.93077,-5.82675 11.9401,-10.25435 16.78125,-12.59375 C 446.36238,927.75337 437.78906,919.13032 434.1875,908.75 l -0.21875,0.59375 z m 70,0 c -2.0406,6.85034 -7.64188,12.44255 -12.03125,17.1875 2.87322,8.15985 9.74269,14.88256 17.9375,17.59375 3.93077,-5.82675 11.9401,-10.25435 16.78125,-12.59375 C 516.36238,927.75337 507.78906,919.13032 504.1875,908.75 l -0.21875,0.59375 z m 70,0 c -2.0406,6.85034 -7.64188,12.44255 -12.03125,17.1875 2.87322,8.15985 9.74269,14.88256 17.9375,17.59375 3.93077,-5.82675 11.9401,-10.25435 16.78125,-12.59375 C 586.36238,927.75337 577.78906,919.13032 574.1875,908.75 l -0.21875,0.59375 z M 152,963.21875 c -13.80292,9.60829 -16.2223,33.06065 -2.8125,44.03125 6.39968,0.8131 12.9878,-0.5572 19.46875,0.125 7.02599,-0.1806 14.51083,0.5932 21.28125,-0.4375 2.2366,-2.0203 4.00627,-4.2527 -0.3125,-3.1563 -20.91124,0.467 -39.66542,-18.9253 -37.3125,-40.0312 -0.0204,-0.40122 0.3979,-1.24463 -0.3125,-0.53125 z m 71.96875,16.15625 c -2.40627,6.5528 -6.64325,12.3582 -12.15625,16.625 2.04454,5.3534 5.23953,13.2261 12.5,11.375 11.8144,-0.2237 24.06633,0.6263 35.625,-0.4375 2.2366,-2.0203 4.00627,-4.2527 -0.3125,-3.1563 -15.56653,0.1358 -30.37578,-10.2639 -35.46875,-24.93745 l -0.1875,0.53125 z m 70,0 c -2.40627,6.5528 -6.64325,12.3582 -12.15625,16.625 2.04454,5.3534 5.23953,13.2261 12.5,11.375 11.8144,-0.2237 24.06633,0.6263 35.625,-0.4375 2.2366,-2.0203 4.00627,-4.2527 -0.3125,-3.1563 -15.56653,0.1358 -30.37578,-10.2639 -35.46875,-24.93745 l -0.1875,0.53125 z m 70,0 c -2.40627,6.5528 -6.64325,12.3582 -12.15625,16.625 2.04454,5.3534 5.23953,13.2261 12.5,11.375 11.8144,-0.2237 24.06633,0.6263 35.625,-0.4375 2.2366,-2.0203 4.00627,-4.2527 -0.3125,-3.1563 -15.56653,0.1358 -30.37578,-10.2639 -35.46875,-24.93745 l -0.1875,0.53125 z m 70,0 c -2.40627,6.5528 -6.64325,12.3582 -12.15625,16.625 2.04454,5.3534 5.23953,13.2261 12.5,11.375 11.8144,-0.2237 24.06633,0.6263 35.625,-0.4375 2.2366,-2.0203 4.00627,-4.2527 -0.3125,-3.1563 -15.56653,0.1358 -30.37578,-10.2639 -35.46875,-24.93745 l -0.1875,0.53125 z m 70,0 c -2.40627,6.5528 -6.64325,12.3582 -12.15625,16.625 2.04454,5.3534 5.23953,13.2261 12.5,11.375 11.8144,-0.2237 24.06633,0.6263 35.625,-0.4375 2.2366,-2.0203 4.00627,-4.2527 -0.3125,-3.1563 -15.56653,0.1358 -30.37578,-10.2639 -35.46875,-24.93745 l -0.1875,0.53125 z m 70,0 c -2.40627,6.5528 -6.64325,12.3582 -12.15625,16.625 2.04454,5.3534 5.23953,13.2261 12.5,11.375 11.8144,-0.2237 24.06633,0.6263 35.625,-0.4375 2.2366,-2.0203 4.00627,-4.2527 -0.3125,-3.1563 -15.56653,0.1358 -30.37578,-10.2639 -35.46875,-24.93745 l -0.1875,0.53125 z"
       id="rect2916-2" />
    <g
       id="g16856-1-8"
       transform="matrix(0.57696811,0,0,0.57696811,398.31114,794.67623)">
      <g
         transform="matrix(0.59659256,-0.00376574,0.00369105,0.60866517,325.80821,-99.284538)"
         id="g16242-5-3-7">
        <g
           id="g4344"
           transform="matrix(1.0291679,0,0,1.0291679,553.03675,-5.3024606)"
           inkscape:export-filename="/home/tef/Work/Gcompris/2010/src/boards/connect4/stone_1.png"
           inkscape:export-xdpi="90"
           inkscape:export-ydpi="90">
          <path
             transform="matrix(2.7991988,0.01731831,-0.01697482,2.7436779,165.3959,-549.03349)"
             d="m 95.714283,235.71428 c 0,18.93548 -15.350237,34.28571 -34.285713,34.28571 -18.935477,0 -34.285713,-15.35023 -34.285713,-34.28571 0,-18.93548 15.350236,-34.28571 34.285713,-34.28571 18.935476,0 34.285713,15.35023 34.285713,34.28571 z"
             sodipodi:ry="34.285713"
             sodipodi:rx="34.285713"
             sodipodi:cy="235.71428"
             sodipodi:cx="61.42857"
             id="path4124"
             style="color:#000000;fill:#2eda27;fill-opacity:1;fill-rule:nonzero;stroke:#000000;stroke-width:2.01680422;stroke-linecap:round;stroke-linejoin:round;stroke-miterlimit:4;stroke-opacity:1;stroke-dasharray:none;stroke-dashoffset:0;marker:none;visibility:visible;display:inline;overflow:visible;enable-background:accumulate"
             sodipodi:type="arc" />
          <path
             transform="matrix(2.0410825,0.01262794,-0.01237747,2.0005985,210.88224,-373.59092)"
             d="m 95.714283,235.71428 c 0,18.93548 -15.350237,34.28571 -34.285713,34.28571 -18.935477,0 -34.285713,-15.35023 -34.285713,-34.28571 0,-18.93548 15.350236,-34.28571 34.285713,-34.28571 18.935476,0 34.285713,15.35023 34.285713,34.28571 z"
             sodipodi:ry="34.285713"
             sodipodi:rx="34.285713"
             sodipodi:cy="235.71428"
             sodipodi:cx="61.42857"
             id="path4124-74"
             style="color:#000000;fill:#2eda27;fill-opacity:1;fill-rule:nonzero;stroke:#00ac00;stroke-width:2.76590323;stroke-linecap:round;stroke-linejoin:round;stroke-miterlimit:4;stroke-opacity:1;stroke-dasharray:none;stroke-dashoffset:0;marker:none;visibility:visible;display:inline;overflow:visible;enable-background:accumulate"
             sodipodi:type="arc" />
          <path
             id="path4124-6"
             d="m -12.5625,748.89343 c 5.4852633,19.30812 -8.151758,41.0331 -27.875,44.53125 -6.322216,1.28377 -13.010414,0.84478 -19.09375,-1.25 14.719503,12.84387 40.049029,7.79001 48.78125,-9.65625 5.7771399,-10.27464 5.0844516,-24.13872 -1.8125,-33.625 z"
             style="color:#000000;fill:#00a500;fill-opacity:1;fill-rule:nonzero;stroke:none;stroke-width:2;marker:none;visibility:visible;display:inline;overflow:visible;enable-background:accumulate"
             transform="matrix(2.7991988,0.01731831,-0.01697482,2.7436779,455.93632,-2005.3744)" />
          <path
             id="path4124-68"
             d="m -40.75,734.89343 c -15.49047,0.20058 -29.523895,14.14727 -30.4375,28.78125 4.863545,-19.15278 27.043772,-31.10849 45.75,-24.71875 1.338483,0.0994 6.501731,2.91483 4.375,1.4375 -5.792998,-3.91524 -12.730389,-5.86117 -19.6875,-5.5 z"
             style="color:#000000;fill:#85ff7f;fill-opacity:1;fill-rule:nonzero;stroke:none;stroke-width:2;marker:none;visibility:visible;display:inline;overflow:visible;enable-background:accumulate"
             transform="matrix(2.7991988,0.01731831,-0.01697482,2.7436779,455.93632,-2005.3744)" />
          <path
             sodipodi:nodetypes="csssscccsss"
             id="path8810-6-6-4"
             d="m 363.06274,66.253686 c 0,0 -11.92655,-11.541818 -32.3171,-11.541808 -20.39059,0 -40.78117,24.622568 -40.78117,45.397842 0,20.77529 11.92659,44.62841 43.47425,44.62841 31.54765,0 46.16729,-16.5433 40.78113,-55.016034 l -38.85751,12.311274 7.30983,7.69454 4.61673,-1.15417 c 0,0 7.69457,9.61819 -3.84728,11.1571 -11.54181,1.53891 -21.92946,-1.53891 -23.46838,-16.15855 -1.53891,-14.619654 10.00294,-25.007294 23.46838,-19.236384 l 19.62112,-18.08222 z"
             style="fill:#2eda27;fill-opacity:1;fill-rule:evenodd;stroke:#00ab00;stroke-width:4.57832718px;stroke-linecap:butt;stroke-linejoin:miter;stroke-opacity:1;display:inline" />
        </g>
        <g
           id="g4333"
           transform="matrix(1.0291675,0,0,1.0291675,553.05737,-8.6272434)"
           inkscape:export-filename="/home/tef/Work/Gcompris/2010/src/boards/connect4/stone_2.png"
           inkscape:export-xdpi="90"
           inkscape:export-ydpi="90">
          <path
             transform="matrix(2.7991988,0.01731831,-0.01697482,2.7436779,164.03791,-329.53926)"
             d="m 95.714283,235.71428 c 0,18.93548 -15.350237,34.28571 -34.285713,34.28571 -18.935477,0 -34.285713,-15.35023 -34.285713,-34.28571 0,-18.93548 15.350236,-34.28571 34.285713,-34.28571 18.935476,0 34.285713,15.35023 34.285713,34.28571 z"
             sodipodi:ry="34.285713"
             sodipodi:rx="34.285713"
             sodipodi:cy="235.71428"
             sodipodi:cx="61.42857"
             id="path4124-7"
             style="color:#000000;fill:#dad003;fill-opacity:1;fill-rule:nonzero;stroke:#000000;stroke-width:2.01680446;stroke-linecap:round;stroke-linejoin:round;stroke-miterlimit:4;stroke-opacity:1;stroke-dasharray:none;stroke-dashoffset:0;marker:none;visibility:visible;display:inline;overflow:visible;enable-background:accumulate"
             sodipodi:type="arc" />
          <path
             id="path4124-7-0"
             d="m -12.5625,828.89343 c 5.4852633,19.30812 -8.151758,41.0331 -27.875,44.53125 -6.322216,1.28377 -13.010414,0.84478 -19.09375,-1.25 14.719503,12.84387 40.049029,7.79001 48.78125,-9.65625 5.7771399,-10.27464 5.0844516,-24.13872 -1.8125,-33.625 z"
             style="color:#000000;fill:#9e9600;fill-opacity:1;fill-rule:nonzero;stroke:none;stroke-width:2;marker:none;visibility:visible;display:inline;overflow:visible;enable-background:accumulate"
             transform="matrix(2.7991988,0.01731831,-0.01697482,2.7436779,455.93632,-2005.3744)" />
          <path
             id="path4124-7-2"
             d="m -40.75,814.89343 c -15.49047,0.20058 -29.523895,14.14727 -30.4375,28.78125 4.863545,-19.15278 27.043772,-31.10849 45.75,-24.71875 1.338483,0.0994 6.501731,2.91483 4.375,1.4375 -5.792998,-3.91524 -12.730389,-5.86117 -19.6875,-5.5 z"
             style="color:#000000;fill:#ece546;fill-opacity:1;fill-rule:nonzero;stroke:none;stroke-width:2;marker:none;visibility:visible;display:inline;overflow:visible;enable-background:accumulate"
             transform="matrix(2.7991988,0.01731831,-0.01697482,2.7436779,455.93632,-2005.3744)" />
          <path
             transform="matrix(2.0410825,0.01262794,-0.01237747,2.0005985,209.52426,-154.09668)"
             d="m 95.714283,235.71428 c 0,18.93548 -15.350237,34.28571 -34.285713,34.28571 -18.935477,0 -34.285713,-15.35023 -34.285713,-34.28571 0,-18.93548 15.350236,-34.28571 34.285713,-34.28571 18.935476,0 34.285713,15.35023 34.285713,34.28571 z"
             sodipodi:ry="34.285713"
             sodipodi:rx="34.285713"
             sodipodi:cy="235.71428"
             sodipodi:cx="61.42857"
             id="path4124-74-3"
             style="color:#000000;fill:#dad003;fill-opacity:1;fill-rule:nonzero;stroke:#9c9400;stroke-width:2.76590395;stroke-linecap:round;stroke-linejoin:round;stroke-miterlimit:4;stroke-opacity:1;stroke-dasharray:none;stroke-dashoffset:0;marker:none;visibility:visible;display:inline;overflow:visible;enable-background:accumulate"
             sodipodi:type="arc" />
          <path
             sodipodi:nodetypes="csssscccsss"
             id="path8810-6-6-4-6"
             d="m 361.70473,285.74793 c 0,0 -11.92654,-11.54181 -32.3171,-11.5418 -20.39058,0 -40.78116,24.62256 -40.78116,45.39784 10e-6,20.77529 11.92659,44.62841 43.47425,44.62841 31.54765,-10e-6 46.16729,-16.5433 40.78113,-55.01604 l -38.85751,12.31128 7.30983,7.69454 4.61673,-1.15417 c 0,0 7.69457,9.61819 -3.84728,11.1571 -11.54181,1.53891 -21.92946,-1.53891 -23.46838,-16.15855 -1.53891,-14.61966 10.00294,-25.0073 23.46838,-19.23638 l 19.62111,-18.08223 z"
             style="fill:#dad003;fill-opacity:1;fill-rule:evenodd;stroke:#9c9400;stroke-width:4.57832766px;stroke-linecap:butt;stroke-linejoin:miter;stroke-opacity:1;display:inline" />
        </g>
      </g>
    </g>
    <g
       id="g4480"
       transform="translate(-2,0)">
      <rect
         ry="10"
         rx="10"
         y="565.71106"
         x="128.48715"
         height="451.37833"
         width="24.997696"
         id="rect2916-9"
         style="color:#000000;fill:#0044aa;fill-opacity:1;fill-rule:nonzero;stroke:#000000;stroke-width:2;stroke-linecap:round;stroke-linejoin:round;stroke-miterlimit:4;stroke-opacity:1;stroke-dasharray:none;marker:none;visibility:visible;display:inline;overflow:visible;enable-background:accumulate" />
      <path
         id="rect2916-9-47"
         d="m 137.71875,567.76843 c -6.75417,0.42414 -8.3826,8.47076 -7.21875,13.9375 0.0835,142.23793 -0.16685,284.57225 0.125,426.74997 0.3491,2.3668 1.92859,4.3998 3.9375,5.625 0.0835,-143.35153 -0.16689,-286.72388 0.125,-430.06247 0.87667,-7.81268 9.6392,-11.65301 16.5625,-10.3125 -1.41646,-6.09577 -8.34047,-6.71479 -13.53125,-5.9375 z"
         style="color:#000000;fill:#003380;fill-opacity:1;fill-rule:nonzero;stroke:none;stroke-width:2;marker:none;visibility:visible;display:inline;overflow:visible;enable-background:accumulate" />
    </g>
    <g
       id="g4484"
       transform="translate(-2,0)">
      <rect
         ry="10"
         rx="10"
         y="565.71106"
         x="648.43927"
         height="451.37833"
         width="24.997696"
         id="rect2916-9-4"
         style="color:#000000;fill:#0044aa;fill-opacity:1;fill-rule:nonzero;stroke:#000000;stroke-width:2;stroke-linecap:round;stroke-linejoin:round;stroke-miterlimit:4;stroke-opacity:1;stroke-dasharray:none;marker:none;visibility:visible;display:inline;overflow:visible;enable-background:accumulate" />
      <path
         id="rect2916-9-47-3"
         d="m 663.68618,567.76843 c 6.75417,0.42414 8.3826,8.47076 7.21875,13.9375 -0.0835,142.23793 0.16685,284.57225 -0.125,426.74997 -0.3491,2.3668 -1.92859,4.3998 -3.9375,5.625 -0.0835,-143.35153 0.16689,-286.72388 -0.125,-430.06247 -0.87667,-7.81268 -9.6392,-11.65301 -16.5625,-10.3125 1.41646,-6.09577 8.34047,-6.71479 13.53125,-5.9375 z"
         style="color:#000000;fill:#003380;fill-opacity:1;fill-rule:nonzero;stroke:none;stroke-width:2;marker:none;visibility:visible;display:inline;overflow:visible;enable-background:accumulate" />
    </g>
  </g>
</svg>
