<?xml version="1.0" encoding="UTF-8" standalone="no"?>
<!-- Created with Inkscape (http://www.inkscape.org/) -->
<svg
   xmlns:dc="http://purl.org/dc/elements/1.1/"
   xmlns:cc="http://web.resource.org/cc/"
   xmlns:rdf="http://www.w3.org/1999/02/22-rdf-syntax-ns#"
   xmlns:svg="http://www.w3.org/2000/svg"
   xmlns="http://www.w3.org/2000/svg"
   xmlns:sodipodi="http://sodipodi.sourceforge.net/DTD/sodipodi-0.dtd"
   xmlns:inkscape="http://www.inkscape.org/namespaces/inkscape"
   width="100"
   height="100"
   id="svg9131"
   sodipodi:version="0.32"
   inkscape:version="0.44.1"
   version="1.0"
   sodipodi:docbase="/home/mat/Travaux/Inkscape/Gcompris/boardicons"
   sodipodi:docname="read_colors2.svg">
  <defs
     id="defs9133" />
  <sodipodi:namedview
     id="base"
     pagecolor="#ffffff"
     bordercolor="#666666"
     borderopacity="1.0"
     inkscape:pageopacity="0.0"
     inkscape:pageshadow="2"
     inkscape:zoom="6.305571"
     inkscape:cx="70.417337"
     inkscape:cy="54.769098"
     inkscape:document-units="px"
     inkscape:current-layer="layer1"
     height="100px"
     width="100px"
     inkscape:window-width="1153"
     inkscape:window-height="945"
     inkscape:window-x="60"
     inkscape:window-y="-11" />
  <metadata
     id="metadata9136">
    <rdf:RDF>
      <cc:Work
         rdf:about="">
        <dc:format>image/svg+xml</dc:format>
        <dc:type
           rdf:resource="http://purl.org/dc/dcmitype/StillImage" />
      </cc:Work>
    </rdf:RDF>
  </metadata>
  <g
     inkscape:label="Calque 1"
     inkscape:groupmode="layer"
     id="layer1">
    <path
       style="fill:black;fill-opacity:1;fill-rule:evenodd;stroke:none;stroke-width:1px;stroke-linecap:butt;stroke-linejoin:miter;stroke-opacity:1"
       d="M 45.744672,38.487964 L 45.696799,86.241596 L 48.516557,86.229836 L 48.093581,37.282595 L 45.744672,38.487964 z "
       id="path20169"
       sodipodi:nodetypes="ccccc" />
    <path
       style="fill:#2165cd;fill-opacity:1;fill-rule:evenodd;stroke:none;stroke-width:1px;stroke-linecap:butt;stroke-linejoin:miter;stroke-opacity:1"
       d="M 64.704688,18.167601 L 60.26417,22.608119 L 59.47122,29.268895 L 60.73994,35.453902 L 64.704688,44.176348 L 65.180458,47.823916 L 62.960199,50.044175 L 60.89853,52.581614 L 68.352256,55.594822 L 68.035076,51.788664 L 68.193666,48.775456 L 69.462385,46.872377 L 76.598932,44.017758 L 85.479967,37.039801 L 88.175996,29.110305 L 87.065867,21.339399 L 81.990989,15.471573 L 79.92932,13.885673 L 73.427133,14.202853 L 66.766357,15.312983 L 64.704688,18.167601 z "
       id="path15702" />
    <path
       style="fill:white;fill-opacity:0.52199414;fill-rule:evenodd;stroke:none;stroke-width:1px;stroke-linecap:butt;stroke-linejoin:miter;stroke-opacity:1"
       d="M 65.707365,17.004326 L 61.77339,21.024711 L 63.928007,24.352903 L 69.830809,26.350326 C 69.830809,26.350326 74.113487,26.487193 75.073693,26.394553 C 76.033899,26.301913 78.259809,26.296703 78.914518,26.023994 C 79.569227,25.751283 83.655697,24.125949 83.655697,24.125949 L 84.741839,19.908844 L 82.767293,16.275157 L 75.757001,14.20123 L 70.955969,14.66443 L 65.707365,17.004326 z "
       id="path16591"
       sodipodi:nodetypes="ccccsscccccc" />
    <path
       style="fill:white;fill-opacity:0.7741935;fill-rule:evenodd;stroke:none;stroke-width:1px;stroke-linecap:butt;stroke-linejoin:miter;stroke-opacity:1"
       d="M 71.347024,14.095745 L 78.638165,14.629272 L 82.128274,18.316909 L 81.237847,20.11448 L 76.778301,21.095514 L 74.243202,20.903109 L 70.451474,20.535963 L 68.87651,19.196144 L 68.706892,15.810125 L 71.347024,14.095745 z "
       id="path16589" />
    <path
       style="fill:black;fill-opacity:1;fill-rule:evenodd;stroke:none;stroke-width:1px;stroke-linecap:butt;stroke-linejoin:miter;stroke-opacity:1"
       d="M 69.608621,12.609976 L 63.358621,16.266226 L 58.983621,21.172476 L 58.452371,25.953726 L 57.889871,30.703726 L 61.139871,38.797476 L 64.389871,46.859976 L 58.827371,53.203726 L 69.296121,57.172476 L 69.139871,48.922476 L 73.108621,47.422476 L 77.077371,45.922476 L 81.764871,42.266226 L 86.421121,38.641226 L 88.171121,35.297476 L 89.296121,31.797476 L 89.202371,26.484976 L 88.483621,21.016226 L 85.639871,16.172476 L 80.889871,12.922476 L 75.264871,12.766226 L 69.608621,12.609976 z M 70.702371,15.391226 L 75.233621,15.547476 L 79.796121,15.672476 L 83.639871,18.578726 L 85.952371,22.891226 L 86.514871,27.797476 L 85.796121,33.016226 L 83.639871,36.766226 L 80.796121,39.422476 L 77.014871,42.203726 L 71.452371,44.891226 L 68.108621,46.234976 L 66.983621,50.016226 L 66.952371,54.078726 L 62.296121,52.453726 L 65.171121,49.297476 L 66.796121,46.141226 L 65.733621,41.609976 L 62.483621,35.516226 L 61.358621,30.141226 L 62.108621,23.047476 L 65.639871,18.641226 L 70.702371,15.391226 z "
       id="path14812" />
    <path
       style="fill:#85c751;fill-opacity:1;fill-rule:evenodd;stroke:none;stroke-width:1px;stroke-linecap:butt;stroke-linejoin:miter;stroke-opacity:1"
       d="M 36.007185,18.413097 L 40.447703,22.853615 L 41.240653,29.514391 L 39.971933,35.699398 L 36.007185,44.421844 L 35.531415,48.069412 L 37.751674,50.289671 L 39.813343,52.82711 L 32.359617,55.840318 L 32.676797,52.03416 L 32.518207,49.020952 L 31.249488,47.117873 L 24.112941,44.263254 L 15.231906,37.285297 L 12.535877,29.355801 L 13.646006,21.584895 L 18.720884,15.717069 L 20.782553,14.13117 L 27.28474,14.44835 L 33.945516,15.558479 L 36.007185,18.413097 z "
       id="path18363" />
    <path
       style="fill:white;fill-opacity:0.52199414;fill-rule:evenodd;stroke:none;stroke-width:1px;stroke-linecap:butt;stroke-linejoin:miter;stroke-opacity:1"
       d="M 35.214236,17.778737 L 38.861804,22.060665 L 36.482955,25.232464 L 30.456538,26.818362 C 30.456538,26.818362 26.17461,26.659773 25.22307,26.501183 C 24.271531,26.342593 22.051272,26.184003 21.416912,25.866824 C 20.782553,25.549644 16.817804,23.646565 16.817804,23.646565 L 16.024855,19.364636 L 18.245114,15.875659 L 25.38166,14.28976 L 30.139358,15.08271 L 35.214236,17.778737 z "
       id="path18365"
       sodipodi:nodetypes="ccccsscccccc" />
    <path
       style="fill:white;fill-opacity:0.7741935;fill-rule:evenodd;stroke:none;stroke-width:1px;stroke-linecap:butt;stroke-linejoin:miter;stroke-opacity:1"
       d="M 31.249488,15.08271 L 23.954351,14.60694 L 19.989603,17.778737 L 20.623963,19.681816 L 24.905891,21.267716 L 27.443329,21.426305 L 31.249488,21.584895 L 32.993977,20.474766 L 33.628336,17.144379 L 31.249488,15.08271 z "
       id="path18367" />
    <path
       style="fill:black;fill-opacity:1;fill-rule:evenodd;stroke:none;stroke-width:1px;stroke-linecap:butt;stroke-linejoin:miter;stroke-opacity:1"
       d="M 31.103252,12.855473 L 37.353252,16.511723 L 41.728252,21.417972 L 42.259502,26.199222 L 42.822002,30.949222 L 39.572002,39.042972 L 36.322002,47.105472 L 41.884502,53.449222 L 31.415752,57.417972 L 31.572002,49.167972 L 27.603252,47.667972 L 23.634502,46.167972 L 18.947002,42.511722 L 14.290752,38.886722 L 12.540752,35.542972 L 11.415752,32.042972 L 11.509502,26.730472 L 12.228252,21.261722 L 15.072002,16.417973 L 19.822002,13.167973 L 25.447002,13.011723 L 31.103252,12.855473 z M 30.009502,15.636723 L 25.478252,15.792973 L 20.915752,15.917973 L 17.072002,18.824222 L 14.759502,23.136722 L 14.197002,28.042972 L 14.915752,33.261722 L 17.072002,37.011722 L 19.915752,39.667972 L 23.697002,42.449222 L 29.259502,45.136722 L 32.603252,46.480472 L 33.728252,50.261722 L 33.759502,54.324222 L 38.415752,52.699222 L 35.540752,49.542972 L 33.915752,46.386722 L 34.978252,41.855472 L 38.228252,35.761722 L 39.353252,30.386722 L 38.603252,23.292972 L 35.072002,18.886722 L 30.009502,15.636723 z "
       id="path18369" />
    <path
       style="fill:#ff140e;fill-opacity:1;fill-rule:evenodd;stroke:none;stroke-width:1px;stroke-linecap:butt;stroke-linejoin:miter;stroke-opacity:1"
       d="M 42.336237,8.5805225 L 37.895719,13.021041 L 37.102769,19.681816 L 38.371489,25.866823 L 42.336237,34.589269 L 42.812007,38.236837 L 40.591748,40.457096 L 38.530079,42.994535 L 45.983805,46.007743 L 45.666625,42.201585 L 45.825215,39.188377 L 47.093934,37.285298 L 54.230481,34.430679 L 63.111516,27.452722 L 65.807545,19.523226 L 64.697416,11.752321 L 59.622538,5.8844935 L 57.560869,4.2985945 L 51.058682,4.6157745 L 44.397906,5.7259035 L 42.336237,8.5805225 z "
       id="path18371" />
    <path
       style="fill:white;fill-opacity:0.52199414;fill-rule:evenodd;stroke:none;stroke-width:1px;stroke-linecap:butt;stroke-linejoin:miter;stroke-opacity:1"
       d="M 43.129186,7.9461625 L 39.481618,12.228091 L 41.860467,15.39989 L 47.886884,16.985788 C 47.886884,16.985788 52.168812,16.827199 53.120352,16.668609 C 54.071891,16.510019 56.29215,16.351429 56.92651,16.03425 C 57.560869,15.71707 61.525618,13.813991 61.525618,13.813991 L 62.318567,9.5320615 L 60.098308,6.0430835 L 52.961762,4.4571845 L 48.204064,5.2501345 L 43.129186,7.9461625 z "
       id="path18373"
       sodipodi:nodetypes="ccccsscccccc" />
    <path
       style="fill:white;fill-opacity:0.7741935;fill-rule:evenodd;stroke:none;stroke-width:1px;stroke-linecap:butt;stroke-linejoin:miter;stroke-opacity:1"
       d="M 47.093934,5.2501345 L 54.389071,4.7743645 L 58.353819,7.9461625 L 57.719459,9.8492415 L 53.437531,11.435142 L 50.900093,11.593731 L 47.093934,11.752321 L 45.349445,10.642192 L 44.715086,7.3118035 L 47.093934,5.2501345 z "
       id="path18375" />
    <path
       style="fill:black;fill-opacity:1;fill-rule:evenodd;stroke:none;stroke-width:1px;stroke-linecap:butt;stroke-linejoin:miter;stroke-opacity:1"
       d="M 47.24017,3.0228975 L 40.99017,6.6791475 L 36.61517,11.585398 L 36.08392,16.366648 L 35.52142,21.116647 L 38.77142,29.210397 L 42.02142,37.272897 L 36.45892,43.616647 L 46.92767,47.585397 L 46.77142,39.335397 L 50.74017,37.835397 L 54.70892,36.335397 L 59.39642,32.679147 L 64.05267,29.054147 L 65.80267,25.710397 L 66.92767,22.210397 L 66.83392,16.897898 L 66.11517,11.429148 L 63.27142,6.5853975 L 58.52142,3.3353975 L 52.89642,3.1791475 L 47.24017,3.0228975 z M 48.33392,5.8041475 L 52.86517,5.9603975 L 57.42767,6.0853975 L 61.27142,8.9916475 L 63.58392,13.304148 L 64.14642,18.210397 L 63.42767,23.429147 L 61.27142,27.179147 L 58.42767,29.835397 L 54.64642,32.616647 L 49.08392,35.304147 L 45.74017,36.647897 L 44.61517,40.429147 L 44.58392,44.491647 L 39.92767,42.866647 L 42.80267,39.710397 L 44.42767,36.554147 L 43.36517,32.022897 L 40.11517,25.929147 L 38.99017,20.554147 L 39.74017,13.460398 L 43.27142,9.0541475 L 48.33392,5.8041475 z "
       id="path18377" />
    <path
       style="fill:#ffba0e;fill-opacity:1;fill-rule:evenodd;stroke:none;stroke-width:1px;stroke-linecap:butt;stroke-linejoin:miter;stroke-opacity:1"
       d="M 61.965605,36.711039 L 65.086837,42.160287 L 64.106047,48.796006 L 61.260396,54.432159 L 55.147844,61.810303 L 53.732562,65.205606 L 55.293178,67.930231 L 56.617605,70.919375 L 48.634663,71.873338 L 49.938472,68.283423 L 50.57529,65.33401 L 49.849797,63.164905 L 43.711094,58.53938 L 36.96977,49.477415 L 36.446602,41.118481 L 39.554925,33.910313 L 45.990497,29.577969 L 48.39579,28.587958 L 54.587462,30.598488 L 60.72432,33.415809 L 61.965605,36.711039 z "
       id="path18379" />
    <path
       style="fill:white;fill-opacity:0.52199414;fill-rule:evenodd;stroke:none;stroke-width:1px;stroke-linecap:butt;stroke-linejoin:miter;stroke-opacity:1"
       d="M 58.051115,32.166032 L 61.922001,36.247196 L 59.715814,39.541428 L 53.78262,41.446682 C 53.78262,41.446682 49.498331,41.516835 48.539683,41.409252 C 47.581037,41.30167 45.355478,41.261795 44.705095,40.978923 C 44.054713,40.696049 39.994051,39.007272 39.994051,39.007272 L 38.973716,34.773762 L 41.004613,31.171266 L 48.046353,29.206766 L 52.83959,29.744679 L 58.051115,32.166032 z "
       id="path18381"
       sodipodi:nodetypes="ccccsscccccc" />
    <path
       style="fill:white;fill-opacity:0.7741935;fill-rule:evenodd;stroke:none;stroke-width:1px;stroke-linecap:butt;stroke-linejoin:miter;stroke-opacity:1"
       d="M 53.542345,30.110365 L 46.23912,30.439438 L 42.647079,34.02786 L 43.486801,35.84967 L 47.917116,36.955243 L 50.45661,36.833928 L 54.257134,36.573144 L 55.869013,35.27797 L 56.133415,31.898031 L 53.542345,30.110365 z "
       id="path18383" />
    <path
       style="fill:black;fill-opacity:1;fill-rule:evenodd;stroke:none;stroke-width:1px;stroke-linecap:butt;stroke-linejoin:miter;stroke-opacity:1"
       d="M 58.689994,30.06227 L 63.763016,35.229001 L 66.698938,41.110521 L 65.958286,45.863837 L 65.255982,50.595187 L 59.997987,57.553979 L 54.748184,64.482613 L 58.453263,72.06265 L 47.310247,73.14841 L 49.623633,65.227857 L 46.186864,62.739968 L 42.750095,60.252078 L 39.184934,55.494931 L 35.641739,50.776133 L 34.829442,47.090575 L 34.661249,43.418064 L 36.144304,38.315908 L 38.271462,33.2268 L 42.28548,29.29787 L 47.721314,27.40665 L 53.190575,28.730364 L 58.689994,30.06227 z M 56.905432,32.459556 L 52.491674,31.42255 L 48.05595,30.347196 L 43.584785,32.144244 L 40.222699,35.699759 L 38.393776,40.286996 L 37.719384,45.511663 L 38.817234,49.695757 L 40.86525,53.004564 L 43.785218,56.67975 L 48.448723,60.73139 L 51.323306,62.90466 L 51.417774,66.848586 L 50.383015,70.777219 L 55.30241,70.429601 L 53.355303,66.630086 L 52.614485,63.158238 L 54.827623,59.063955 L 59.561351,54.035227 L 62.055979,49.143082 L 63.191714,42.100789 L 60.938971,36.922959 L 56.905432,32.459556 z "
       id="path18385" />
    <path
       style="fill:black;fill-opacity:1;fill-rule:evenodd;stroke:none;stroke-width:1px;stroke-linecap:butt;stroke-linejoin:miter;stroke-opacity:1"
       d="M 31.242214,46.713787 L 36.634272,45.286478 L 36.951451,47.823916 L 31.242214,49.092636 L 31.242214,46.713787 z "
       id="path18387" />
    <path
       style="fill:black;fill-opacity:1;fill-rule:evenodd;stroke:none;stroke-width:1px;stroke-linecap:butt;stroke-linejoin:miter;stroke-opacity:1"
       d="M 49.321466,63.841498 L 54.713524,62.414189 L 55.030703,64.951627 L 49.321466,66.220347 L 49.321466,63.841498 z "
       id="path19274" />
    <path
       style="fill:black;fill-opacity:1;fill-rule:evenodd;stroke:none;stroke-width:1px;stroke-linecap:butt;stroke-linejoin:miter;stroke-opacity:1"
       d="M 65.522637,44.98663 L 70.874181,46.559041 L 69.831002,48.893773 L 64.29031,47.021401 L 65.522637,44.98663 z "
       id="path19276" />
    <path
       style="fill:black;fill-opacity:1;fill-rule:evenodd;stroke:none;stroke-width:1px;stroke-linecap:butt;stroke-linejoin:miter;stroke-opacity:1"
       d="M 32.37828,47.876865 L 45.692667,85.38655 L 41.514583,93.579767 L 44.666323,94.826093 L 48.618064,85.08565 L 34.4806,46.687232 L 32.37828,47.876865 z "
       id="path19278"
       sodipodi:nodetypes="ccccccc" />
    <path
       style="fill:black;fill-opacity:1;fill-rule:evenodd;stroke:none;stroke-width:1px;stroke-linecap:butt;stroke-linejoin:miter;stroke-opacity:1"
       d="M 67.98507,47.878426 L 49.117109,85.534219 L 51.521992,94.219168 L 48.266294,94.938237 L 46.312124,85.705683 L 66.033068,46.455518 L 67.98507,47.878426 z "
       id="path20165" />
    <path
       style="fill:black;fill-opacity:1;fill-rule:evenodd;stroke:none;stroke-width:1px;stroke-linecap:butt;stroke-linejoin:miter;stroke-opacity:1"
       d="M 50.108931,63.089472 L 45.96019,84.29937 L 38.65933,87.296119 L 40.966372,88.626397 L 48.729707,84.829311 L 52.51868,62.999678 L 50.108931,63.089472 z "
       id="path20167"
       sodipodi:nodetypes="ccccccc" />
    <path
       style="fill:#0fb819;fill-opacity:1;fill-rule:evenodd;stroke:black;stroke-width:2.38748288px;stroke-linecap:butt;stroke-linejoin:miter;stroke-opacity:1"
       d="M 73.035718,62.031088 L 67.345458,64.695194 L 64.399583,70.450348 L 65.101898,78.089035 L 68.013222,86.675046 L 74.054371,91.33941 L 81.685688,92.059893 L 87.827848,88.792029 L 91.058157,83.956407 L 88.816183,76.295488 L 74.557309,79.751284 L 74.323381,74.865638 L 76.247957,74.893429 L 87.427509,71.393166 L 86.842159,66.197303 L 83.010019,62.480263 L 78.106603,61.49403 L 73.035718,62.031088 z "
       id="path3875" />
    <path
       style="fill:#ff140e;fill-opacity:1;fill-rule:evenodd;stroke:none;stroke-width:1px;stroke-linecap:butt;stroke-linejoin:miter;stroke-opacity:1"
       d="M 38.845252,60.927079 L 39.412002,90.839158 L 51.227409,88.568644 L 57.219114,83.162614 L 59.428651,77.091685 L 55.412558,71.541139 L 58.123976,67.918591 L 55.195642,62.994036 L 46.125146,61.337345 L 38.845252,60.927079 z "
       id="path3873" />
    <path
       style="fill:#004aff;fill-opacity:1;fill-rule:evenodd;stroke:none;stroke-width:1px;stroke-linecap:butt;stroke-linejoin:miter;stroke-opacity:1"
       d="M 23.900546,60.100986 L 12.484951,86.788617 L 20.166242,90.56124 L 27.262185,89.138 L 34.107191,86.490569 L 23.900546,60.100986 z "
       id="path3871" />
    <path
       transform="matrix(1.167548,1.685993e-2,-9.401327e-2,0.855138,0,0)"
       style="font-size:42.93717575px;font-style:normal;font-variant:normal;font-weight:normal;font-stretch:normal;text-align:start;line-height:100%;writing-mode:lr-tb;text-anchor:start;fill:black;fill-opacity:1;stroke:none;stroke-width:1px;stroke-linecap:butt;stroke-linejoin:miter;stroke-opacity:1;font-family:Indigo Joker"
       d="M 40.25255,101.85665 C 40.252527,101.94252 40.009217,102.28602 39.522618,102.88714 C 39.150474,103.40238 38.778352,103.90332 38.406251,104.38994 C 37.919609,105.01968 37.418676,105.49199 36.90345,105.80687 C 36.788932,105.89274 35.901564,106.57973 34.241345,107.86785 C 33.182212,108.64071 32.452281,109.02715 32.051549,109.02715 C 31.96566,109.02715 31.579226,108.72659 30.892245,108.12547 C 30.233863,107.55297 29.847428,107.26672 29.732942,107.26673 C 29.647055,107.26672 29.260621,107.71041 28.573638,108.59778 C 27.915257,109.48514 27.442949,109.92883 27.156711,109.92883 C 27.070827,109.92883 26.770267,109.7857 26.25503,109.49946 C 25.768401,109.21321 25.439216,109.04146 25.267475,108.98422 C 24.265601,108.61209 22.862988,107.68178 21.059632,106.1933 C 19.084521,104.59031 18.096966,103.40238 18.096967,102.62951 C 18.096966,102.51502 18.125591,102.30033 18.182841,101.98546 C 18.268715,101.67059 18.311652,101.4559 18.311653,101.3414 C 18.397526,99.280418 18.640837,97.205123 19.041585,95.115509 C 19.38508,93.369406 19.728578,91.623296 20.072077,89.877174 C 20.272448,88.732196 20.730444,86.785712 21.446067,84.037718 C 22.161682,81.289759 23.306672,77.024671 24.881041,71.242439 C 25.052782,70.870348 25.267468,70.312166 25.525099,69.567889 C 25.811338,69.510673 26.212085,69.424798 26.727339,69.310266 C 28.358941,71.943777 30.119364,75.607745 32.008612,80.302183 C 32.008597,80.33083 33.339649,83.851675 36.001769,90.864729 C 36.087625,91.265487 36.245061,91.852294 36.474078,92.625153 C 36.731682,93.398031 37.332802,94.800644 38.27744,96.832996 C 39.136162,98.664986 39.680032,100.01035 39.909052,100.86909 C 40.138028,101.69921 40.252527,102.02839 40.25255,101.85665 M 36.431141,99.623912 C 36.431122,99.022795 36.287998,98.350113 36.001769,97.605865 C 35.772753,97.176498 35.500818,96.546754 35.185963,95.716629 C 34.384452,92.510663 33.382586,89.447815 32.180361,86.528074 C 31.407478,84.810604 30.591672,82.907058 29.732942,80.817429 C 28.988686,78.298472 27.943882,76.008492 26.598528,73.947481 C 26.512644,73.918885 26.355208,73.904572 26.126219,73.904544 C 26.18346,74.505692 26.054648,75.350123 25.739784,76.437838 C 25.310405,77.840476 25.067094,78.756468 25.009852,79.185817 C 24.637723,81.361321 24.122477,83.808738 23.464114,86.528074 C 23.177861,87.730329 22.93455,89.390565 22.734182,91.508786 C 22.505179,93.941901 22.347743,95.430388 22.261873,95.974252 C 21.775248,98.69361 21.531937,99.924475 21.531941,99.66685 C 21.531937,100.86909 22.247556,101.84233 23.6788,102.58658 C 24.279914,102.93007 25.510778,103.38807 27.371397,103.96057 C 27.62901,103.44532 27.815071,102.74401 27.92958,101.85665 C 28.015444,101.31278 28.115631,100.78322 28.230141,100.26797 C 28.344629,99.752726 28.602252,99.495104 29.00301,99.495101 C 29.460994,99.495104 30.076427,100.01035 30.849308,101.04084 C 31.622163,102.04271 32.123097,102.54364 32.352109,102.54364 C 32.609717,102.54364 33.325336,102.18583 34.498968,101.47021 C 35.787065,100.66872 36.431122,100.05329 36.431141,99.623912 M 30.591685,96.790059 C 30.477173,96.904563 29.990552,96.990438 29.131821,97.047682 C 28.645189,97.076312 28.258755,97.24806 27.972518,97.562928 C 27.600385,97.419809 27.414324,97.176498 27.414334,96.832996 C 27.414324,96.346381 27.800758,95.416076 28.573638,94.04208 L 29.00301,94.04208 C 29.346495,94.500084 29.67568,94.95808 29.990565,95.416069 C 30.391299,96.017196 30.591672,96.475192 30.591685,96.790059 M 60.269324,92.711027 C 60.269302,95.287265 59.825618,97.434121 58.938271,99.151603 C 57.993634,101.01222 56.118713,103.1877 53.313501,105.67805 C 53.113113,105.87842 51.982435,106.47954 49.921464,107.48142 C 49.778329,107.59591 49.606581,107.73903 49.406218,107.91079 C 48.289842,108.36878 47.173477,108.82677 46.057119,109.28478 C 44.597249,109.85727 43.380697,110.20076 42.407459,110.31527 C 42.350205,110.25801 42.264331,110.15782 42.149836,110.01471 C 41.663211,105.86411 41.248152,101.59902 40.904658,97.219431 C 40.647032,95.988571 40.317848,94.156587 39.917102,91.723472 C 39.287357,86.828649 38.972484,83.694239 38.972485,82.320231 L 38.972485,78.155325 C 38.972484,78.069474 38.88661,77.697353 38.714862,77.038958 C 38.543113,76.266115 38.428614,75.722244 38.371364,75.407345 C 38.199616,74.119258 37.884744,72.287274 37.426746,69.911387 C 38.428614,69.25305 39.759665,68.923865 41.419904,68.923832 C 43.709881,68.923865 46.185923,69.338924 48.848035,70.16901 C 51.853624,71.085034 54.429852,72.344523 56.576727,73.947481 C 57.578575,74.691753 58.265569,75.822431 58.637711,77.339518 C 58.838064,78.169661 58.938251,78.856655 58.938271,79.400503 C 58.938251,80.144769 58.694941,80.917638 58.208339,81.71911 C 57.721699,82.491999 57.235078,83.250555 56.748475,83.99478 C 59.095687,85.998532 60.269302,88.903944 60.269324,92.711027 M 56.490852,91.766409 C 56.490834,91.508797 56.419273,91.093738 56.276166,90.521231 C 56.075775,89.548001 55.546217,88.560447 54.687491,87.558566 C 53.828732,86.556714 52.941365,85.92697 52.025386,85.66933 C 51.853624,85.497598 51.76775,85.354475 51.767763,85.239959 C 51.76775,85.383099 51.824999,85.239976 51.939512,84.810587 C 52.168496,84.638856 52.440432,84.381233 52.755318,84.037718 C 53.327799,83.236243 53.685608,82.62081 53.828747,82.191419 C 54.286728,80.731577 54.515726,79.615211 54.515742,78.842319 C 54.515726,77.697353 53.81442,76.523738 52.411821,75.321471 C 51.066443,74.205132 49.792642,73.618325 48.590412,73.561047 C 48.390029,73.561075 48.003594,73.532451 47.431108,73.475172 C 46.858604,73.417952 46.52942,73.389327 46.443553,73.389298 C 46.329046,73.389327 45.656365,73.460889 44.425506,73.603984 C 43.022887,73.775761 42.035333,73.89026 41.462841,73.947481 C 41.691836,74.462755 41.820647,75.121125 41.849275,75.922591 C 41.849272,76.523738 41.863585,77.13917 41.892213,77.76889 C 42.035333,78.484533 42.221394,79.4864 42.450396,80.774492 C 42.479017,81.604632 42.550579,82.649435 42.665082,83.908906 C 42.9227,84.739042 43.180323,86.313404 43.437951,88.631995 C 43.638319,90.578492 43.838693,92.524976 44.039071,94.471451 C 44.039066,95.129828 44.067691,96.088758 44.124946,97.348242 C 44.325313,98.80811 44.582936,100.81184 44.897815,103.35945 C 45.241306,103.73157 45.599115,103.91763 45.971244,103.91763 C 46.085736,103.91763 46.329046,103.83175 46.701176,103.66001 C 47.101915,103.51688 47.345225,103.44532 47.431108,103.44532 C 48.146718,103.33082 49.11996,102.90145 50.350836,102.15721 C 51.724813,101.32709 52.826866,100.46835 53.656999,99.580975 C 54.916473,98.235614 55.746591,96.618316 56.147355,94.729074 C 56.376335,93.75584 56.490834,92.768286 56.490852,91.766409 M 49.577967,82.234356 C 49.577956,82.949995 49.191522,83.536803 48.418663,83.99478 C 47.788909,84.366921 47.144852,84.567294 46.48649,84.595901 C 46.22886,84.48142 46.085736,84.166547 46.057119,83.651283 C 46.028486,83.250555 45.999862,82.849808 45.971244,82.449042 C 45.828113,81.790693 45.756551,81.547382 45.756558,81.71911 C 45.756551,81.318384 45.999862,80.989199 46.48649,80.731555 C 46.887229,80.531203 47.302288,80.431017 47.731668,80.430995 C 48.246905,80.431017 48.676276,80.63139 49.019784,81.032115 C 49.391895,81.404258 49.577956,81.805005 49.577967,82.234356 M 50.994894,97.133556 C 50.994881,97.706056 50.551198,98.20699 49.663841,98.636357 C 49.06271,98.951233 48.475903,99.137294 47.903417,99.194541 C 47.788909,98.99417 47.688722,98.593424 47.602857,97.9923 C 47.488349,97.190811 47.416787,96.76144 47.388171,96.704184 C 47.359538,96.618316 47.3166,96.532441 47.25936,96.446561 C 47.230726,96.332068 47.216414,96.217569 47.216422,96.103064 C 47.216414,95.959946 47.273663,95.730948 47.388171,95.416069 C 47.502661,95.072579 47.645785,94.90083 47.817543,94.900823 C 48.017907,94.90083 48.661964,95.058267 49.749716,95.373132 C 50.179076,95.459013 50.493948,95.673699 50.694334,96.01719 C 50.894695,96.360693 50.994881,96.732815 50.994894,97.133556 M 87.13793,96.188938 C 87.137903,97.190811 86.923218,98.478925 86.493872,100.05328 C 86.236223,100.9979 85.964288,101.92821 85.678066,102.8442 C 85.19142,104.99106 83.974868,106.73717 82.028406,108.08254 C 80.282274,109.28477 78.464602,109.88589 76.575385,109.8859 C 73.111773,109.88589 70.277922,108.45465 68.073824,105.59218 C 66.356331,103.4167 65.111154,101.31278 64.33829,99.280415 C 63.594042,97.219436 62.735299,94.35696 61.762059,90.69298 C 61.361311,89.175879 61.118001,87.515644 61.032127,85.712267 C 60.946252,83.8803 60.903315,82.520624 60.903315,81.633236 C 60.903315,81.719131 61.075064,80.803138 61.418562,78.885257 C 62.592176,71.929464 66.198895,68.451557 72.23873,68.451523 C 73.383708,68.451557 74.099327,68.508806 74.385589,68.623272 C 77.076302,69.825545 79.037097,71.24247 80.267982,72.874052 C 81.498826,74.477068 82.529318,76.523738 83.359458,79.014068 C 83.874681,80.588453 84.132304,81.418571 84.132328,81.504424 C 84.132304,81.790693 84.146616,82.148502 84.175265,82.577854 C 84.203866,82.97862 84.218178,83.250555 84.218202,83.39366 C 84.218178,84.252421 83.602746,84.982353 82.371903,85.583456 C 81.713512,85.898345 78.478915,87.157834 72.668102,89.361927 L 72.753976,89.877174 C 73.097461,89.877186 74.800634,89.290378 77.8635,88.116749 C 80.926331,86.943148 82.48638,86.356341 82.543652,86.356325 C 83.001626,86.356341 83.659995,86.556714 84.518762,86.957446 C 84.776361,87.07196 85.076921,87.658767 85.420443,88.71787 C 85.706665,89.462127 86.078787,90.56418 86.536809,92.024032 C 86.93753,93.856027 87.137903,95.244327 87.13793,96.188938 M 84.003516,95.845441 C 84.003492,95.730948 83.588434,93.712903 82.758338,89.791299 C 79.552343,91.022176 77.104926,91.995418 75.416081,92.711027 C 75.330192,92.768286 75.244317,92.868473 75.158458,93.011587 C 75.387441,93.784465 75.444691,94.543021 75.330207,95.287258 C 75.187068,96.346381 75.029632,97.047687 74.857898,97.391179 C 74.628885,97.84918 74.228139,98.078178 73.655657,98.078174 C 71.966783,98.078178 70.750231,96.346381 70.005997,92.882776 C 69.519366,90.821803 69.276056,88.717883 69.276065,86.571011 C 69.276056,83.422304 69.905801,81.847942 71.1653,81.847922 C 71.737785,81.847942 72.224406,82.205751 72.625164,82.921351 C 72.711027,83.236243 72.825526,83.679926 72.968662,84.252403 C 73.254897,85.053915 73.627019,85.655034 74.085028,86.055765 C 75.344504,85.683659 76.231871,85.340162 76.747133,85.025273 C 77.519985,84.710418 78.307166,84.395545 79.108678,84.080655 C 80.110526,83.622677 80.611459,82.964308 80.611479,82.105545 C 80.611459,79.901459 79.967402,77.954975 78.679306,76.266089 C 77.24805,74.319631 75.358816,73.34639 73.011599,73.346361 C 72.324592,73.34639 71.079416,73.64695 69.276065,74.248042 C 68.417313,74.534317 67.558571,75.063875 66.699834,75.836717 C 65.86971,76.609612 65.282903,77.625791 64.93941,78.885257 C 64.882156,79.085653 64.710407,79.629524 64.424164,80.516869 C 64.166537,81.261135 64.037726,81.690506 64.037729,81.804984 L 64.037729,86.012828 C 64.037726,86.871587 64.137912,87.658767 64.33829,88.374372 C 64.538659,88.861007 64.739032,89.490752 64.93941,90.263608 C 64.96803,90.721616 65.082529,91.279799 65.282907,91.938158 C 65.597775,92.940035 65.755211,93.483905 65.755216,93.569771 C 65.86971,94.314023 66.084396,95.272952 66.399274,96.446561 C 69.404867,102.45777 72.639465,105.46337 76.103076,105.46337 C 77.362549,105.46337 78.75085,104.96243 80.267982,103.96057 C 82.014072,102.8442 83.216312,101.47021 83.874704,99.838598 C 83.98918,99.523728 84.060742,99.037108 84.08939,98.378734 C 84.117992,97.920742 84.103679,97.391184 84.046453,96.790059 C 84.017805,96.074445 84.003492,95.759573 84.003516,95.845441"
       id="text3867" />
  </g>
</svg>
