/* XPM */
static char * BOARD_OFF_XPM[] = {
"15 15 176 2",
"  	c None",
". 	c #0C0302",
"+ 	c #110504",
"@ 	c #160504",
"# 	c #0F0403",
"$ 	c #090201",
"% 	c #150807",
"& 	c #2D0E0B",
"* 	c #6E201B",
"= 	c #A7332A",
"- 	c #C52A20",
"; 	c #8C231B",
"> 	c #52110C",
", 	c #1A0604",
"' 	c #0B0101",
") 	c #260F0E",
"! 	c #652826",
"~ 	c #C84E47",
"{ 	c #EC6056",
"] 	c #EB5549",
"^ 	c #DF3827",
"/ 	c #C5291F",
"( 	c #A6271E",
"_ 	c #7D1D16",
": 	c #380A07",
"< 	c #100201",
"[ 	c #150A07",
"} 	c #652926",
"| 	c #D66760",
"1 	c #F68984",
"2 	c #F78D89",
"3 	c #F17169",
"4 	c #E6483B",
"5 	c #CC281D",
"6 	c #A7271E",
"7 	c #96231C",
"8 	c #7C1811",
"9 	c #360803",
"0 	c #0A0100",
"a 	c #33110F",
"b 	c #CB544D",
"c 	c #F7908B",
"d 	c #FAB2AE",
"e 	c #F9ADAB",
"f 	c #F5827D",
"g 	c #E84B41",
"h 	c #C8281C",
"i 	c #A6251C",
"j 	c #992018",
"k 	c #8B1C13",
"l 	c #6B1209",
"m 	c #160301",
"n 	c #0C0403",
"o 	c #732923",
"p 	c #F06F67",
"q 	c #F9A3A0",
"r 	c #FBC5C8",
"s 	c #FABCBF",
"t 	c #F48382",
"u 	c #E8463E",
"v 	c #C2271E",
"w 	c #A4221B",
"x 	c #971D15",
"y 	c #8B1911",
"z 	c #80130C",
"A 	c #3D0705",
"B 	c #070100",
"C 	c #130505",
"D 	c #B63934",
"E 	c #F17268",
"F 	c #F79591",
"G 	c #F8A6A6",
"H 	c #F79994",
"I 	c #F06961",
"J 	c #E33A2E",
"K 	c #BA241D",
"L 	c #A12117",
"M 	c #961C12",
"N 	c #8B170E",
"O 	c #83160E",
"P 	c #67110A",
"Q 	c #0B0201",
"R 	c #190504",
"S 	c #DA372C",
"T 	c #EB5F56",
"U 	c #F16F69",
"V 	c #F16E69",
"W 	c #EF5F57",
"X 	c #E9423A",
"Y 	c #CD2A1E",
"Z 	c #A6241B",
"` 	c #9B1D15",
" .	c #961911",
"..	c #8E1A14",
"+.	c #90261E",
"@.	c #902D27",
"#.	c #110505",
"$.	c #100505",
"%.	c #9C312A",
"&.	c #E2443A",
"*.	c #E74B41",
"=.	c #E34336",
"-.	c #DE3729",
";.	c #D22620",
">.	c #AB241C",
",.	c #9A1F15",
"'.	c #961A11",
").	c #911A12",
"!.	c #9C281F",
"~.	c #BE352D",
"{.	c #9B332C",
"].	c #110605",
"^.	c #0B0202",
"/.	c #621814",
"(.	c #CB3326",
"_.	c #D33227",
":.	c #CA2F24",
"<.	c #BC2A1F",
"[.	c #AB261E",
"}.	c #9A2217",
"|.	c #901A11",
"1.	c #931B14",
"2.	c #9D281D",
"3.	c #BD362E",
"4.	c #D33F39",
"5.	c #6A201C",
"6.	c #0C0303",
"7.	c #220806",
"8.	c #92271F",
"9.	c #B13025",
"0.	c #AF2C23",
"a.	c #A72921",
"b.	c #9C261E",
"c.	c #931E16",
"d.	c #911E15",
"e.	c #A62720",
"f.	c #C4362E",
"g.	c #D54239",
"h.	c #B2342D",
"i.	c #280A09",
"j.	c #0D0302",
"k.	c #40110C",
"l.	c #89271F",
"m.	c #9B2923",
"n.	c #962923",
"o.	c #92241E",
"p.	c #92231D",
"q.	c #A62A23",
"r.	c #C9372F",
"s.	c #D9433A",
"t.	c #B83831",
"u.	c #501715",
"v.	c #100404",
"w.	c #130503",
"x.	c #3C0E0B",
"y.	c #731E1A",
"z.	c #892822",
"A.	c #912C27",
"B.	c #A9302A",
"C.	c #C73530",
"D.	c #D23D3A",
"E.	c #AC342E",
"F.	c #501713",
"G.	c #160706",
"H.	c #0C0202",
"I.	c #170605",
"J.	c #4C1410",
"K.	c #7F2C26",
"L.	c #AD3733",
"M.	c #9E332E",
"N.	c #651E1D",
"O.	c #260A09",
"P.	c #090202",
"Q.	c #0E0504",
"R.	c #140706",
"S.	c #0B0303",
"          . + @ # $           ",
"      % & * = - ; > , '       ",
"    ) ! ~ { ] ^ / ( _ : <     ",
"  [ } | 1 2 3 4 5 6 7 8 9 0   ",
"  a b c d e f g h i j k l m   ",
"n o p q r s t u v w x y z A B ",
"C D E F G H I J K L M N O P Q ",
"R S T U V W X Y Z `  ...+.@.#.",
"$.%.&.*.=.-.;.>.,.'.).!.~.{.].",
"^./.(._.:.<.[.}.|.1.2.3.4.5.6.",
"  7.8.9.0.a.b.c.d.e.f.g.h.i.  ",
"  j.k.l.m.n.o.p.q.r.s.t.u.v.  ",
"    w.x.y.z.A.B.C.D.E.F.G.    ",
"      H.I.J.K.L.M.N.O.#       ",
"          P.Q.R.].S.          "};
