/* XPM */
static char * BOARD_ON_XPM[] = {
"15 15 172 2",
"  	c None",
". 	c #040B03",
"+ 	c #070F06",
"@ 	c #071405",
"# 	c #050E04",
"$ 	c #020802",
"% 	c #0A1508",
"& 	c #122D0E",
"* 	c #296822",
"= 	c #409937",
"- 	c #41B52F",
"; 	c #308527",
"> 	c #194C13",
", 	c #091A07",
"' 	c #030B02",
") 	c #12240F",
"! 	c #306129",
"~ 	c #5BC250",
"{ 	c #6EE360",
"] 	c #64E257",
"^ 	c #4CD236",
"/ 	c #41B72E",
"( 	c #3D9B2D",
"_ 	c #2C7320",
": 	c #11350B",
"< 	c #040F03",
"[ 	c #081708",
"} 	c #2E6229",
"| 	c #70CF64",
"1 	c #95F188",
"2 	c #9AF18C",
"3 	c #7EEB72",
"4 	c #5DDC46",
"5 	c #41BB2D",
"6 	c #3C9A2C",
"7 	c #358827",
"8 	c #28711D",
"9 	c #0F320A",
"0 	c #030901",
"a 	c #133210",
"b 	c #60C352",
"c 	c #98F28F",
"d 	c #B8F8B3",
"e 	c #B5F7AA",
"f 	c #8DEF80",
"g 	c #5EDD4B",
"h 	c #3FB82B",
"i 	c #3B9A2B",
"j 	c #348B27",
"k 	c #2C7F21",
"l 	c #1F6114",
"m 	c #061503",
"n 	c #050C04",
"o 	c #316F28",
"p 	c #80E96B",
"q 	c #ABF5A0",
"r 	c #CBFAC7",
"s 	c #C4F9BB",
"t 	c #93F086",
"u 	c #5ADC46",
"v 	c #3FB42C",
"w 	c #379728",
"x 	c #348B24",
"y 	c #2C7F1F",
"z 	c #277317",
"A 	c #113A0A",
"B 	c #020701",
"C 	c #071206",
"D 	c #4CA93D",
"E 	c #81EC73",
"F 	c #A1F394",
"G 	c #B1F7A5",
"H 	c #A3F497",
"I 	c #78E96A",
"J 	c #53D63B",
"K 	c #3BAA2C",
"L 	c #369128",
"M 	c #2F8821",
"N 	c #2B7E1D",
"O 	c #29761B",
"P 	c #1D5E15",
"Q 	c #030A02",
"R 	c #071706",
"S 	c #46C83A",
"T 	c #6CE25E",
"U 	c #7EE971",
"V 	c #80EA6D",
"W 	c #72E55B",
"X 	c #59DC44",
"Y 	c #42BE2D",
"Z 	c #3A9B29",
"` 	c #308D23",
" .	c #2C8620",
"..	c #2D8021",
"+.	c #35872B",
"@.	c #3B862E",
"#.	c #071005",
"$.	c #3F9733",
"%.	c #58D944",
"&.	c #5EDB4A",
"*.	c #57D840",
"=.	c #48CF37",
"-.	c #3BBF2F",
";.	c #3AA02A",
">.	c #358E23",
",.	c #2D851D",
"'.	c #2D8221",
").	c #37922D",
"!.	c #47B337",
"~.	c #419137",
"{.	c #040A03",
"].	c #235C1A",
"^.	c #48BF33",
"/.	c #47C533",
"(.	c #43BE2F",
"_.	c #3EAE2C",
":.	c #3B9C2B",
"<.	c #358E28",
"[.	c #2F8722",
"}.	c #2D8621",
"|.	c #37912C",
"1.	c #45B139",
"2.	c #50C743",
"3.	c #286322",
"4.	c #040B04",
"5.	c #0B1E08",
"6.	c #338929",
"7.	c #3EA532",
"8.	c #3EA031",
"9.	c #3D992E",
"0.	c #398E2A",
"a.	c #308723",
"b.	c #318424",
"c.	c #39952C",
"d.	c #43B538",
"e.	c #52C943",
"f.	c #41A736",
"g.	c #0C240B",
"h.	c #040D03",
"i.	c #153C11",
"j.	c #327C28",
"k.	c #388B2D",
"l.	c #37892D",
"m.	c #37862A",
"n.	c #348427",
"o.	c #3C982E",
"p.	c #46B938",
"q.	c #50CC43",
"r.	c #48AE3B",
"s.	c #1E4C1A",
"t.	c #050F05",
"u.	c #061205",
"v.	c #14370F",
"w.	c #2A6A22",
"x.	c #35802C",
"y.	c #3D8830",
"z.	c #439A33",
"A.	c #47B83A",
"B.	c #4FC543",
"C.	c #40A236",
"D.	c #1D4A18",
"E.	c #091507",
"F.	c #091807",
"G.	c #1B4716",
"H.	c #35772D",
"I.	c #47A53A",
"J.	c #3F9137",
"K.	c #255E1F",
"L.	c #0D220A",
"M.	c #030802",
"N.	c #060D05",
"O.	c #081307",
"          . + @ # $           ",
"      % & * = - ; > , '       ",
"    ) ! ~ { ] ^ / ( _ : <     ",
"  [ } | 1 2 3 4 5 6 7 8 9 0   ",
"  a b c d e f g h i j k l m   ",
"n o p q r s t u v w x y z A B ",
"C D E F G H I J K L M N O P Q ",
"R S T U V W X Y Z `  ...+.@.#.",
"+ $.%.&.*.=.-.;.>.,.'.).!.~.+ ",
"{.].^./.(._.:.<.[.}.|.1.2.3.4.",
"  5.6.7.8.9.0.a.b.c.d.e.f.g.  ",
"  h.i.j.k.l.m.n.o.p.q.r.s.t.  ",
"    u.v.w.x.y.z.A.B.C.D.E.    ",
"      . F.G.H.I.J.K.L.#       ",
"          M.N.O.+ {.          "};
