<?xml version="1.0" encoding="UTF-8" standalone="no"?>
<!-- Created with Inkscape (http://www.inkscape.org/) -->

<svg
   xmlns:dc="http://purl.org/dc/elements/1.1/"
   xmlns:cc="http://creativecommons.org/ns#"
   xmlns:rdf="http://www.w3.org/1999/02/22-rdf-syntax-ns#"
   xmlns:svg="http://www.w3.org/2000/svg"
   xmlns="http://www.w3.org/2000/svg"
   xmlns:xlink="http://www.w3.org/1999/xlink"
   xmlns:sodipodi="http://sodipodi.sourceforge.net/DTD/sodipodi-0.dtd"
   xmlns:inkscape="http://www.inkscape.org/namespaces/inkscape"
   width="106.29778"
   height="106.29814"
   id="svg5070"
   sodipodi:version="0.32"
   inkscape:version="0.48.0 r9654"
   sodipodi:docname="dicey.svg"
   inkscape:export-filename="/home/franck/Gcompris/gartoon/level9.png"
   inkscape:export-xdpi="8.5762272"
   inkscape:export-ydpi="8.5762272"
   inkscape:output_extension="org.inkscape.output.svg.inkscape"
   version="1.0">
  <defs
     id="defs3">
    <inkscape:perspective
       sodipodi:type="inkscape:persp3d"
       inkscape:vp_x="0 : 53.149071 : 1"
       inkscape:vp_y="0 : 1000 : 0"
       inkscape:vp_z="106.29778 : 53.149071 : 1"
       inkscape:persp3d-origin="53.148891 : 35.432714 : 1"
       id="perspective100" />
    <linearGradient
       inkscape:collect="always"
       id="linearGradient2815">
      <stop
         style="stop-color:#000000;stop-opacity:1;"
         offset="0"
         id="stop2817" />
      <stop
         style="stop-color:#000000;stop-opacity:0;"
         offset="1"
         id="stop2819" />
    </linearGradient>
    <linearGradient
       id="linearGradient16033">
      <stop
         id="stop16035"
         offset="0.0000000"
         style="stop-color:#ff0000;stop-opacity:1.0000000;" />
      <stop
         id="stop16037"
         offset="1.0000000"
         style="stop-color:#b01810;stop-opacity:1.0000000;" />
    </linearGradient>
    <linearGradient
       id="linearGradient10915">
      <stop
         style="stop-color:#ffe7ba;stop-opacity:1;"
         offset="0"
         id="stop10917" />
      <stop
         style="stop-color:#f2e46b;stop-opacity:1.0000000;"
         offset="1.0000000"
         id="stop10919" />
    </linearGradient>
    <linearGradient
       inkscape:collect="always"
       xlink:href="#linearGradient2815"
       id="linearGradient2821"
       x1="282.09094"
       y1="313.75546"
       x2="374.28571"
       y2="313.75546"
       gradientUnits="userSpaceOnUse" />
    <linearGradient
       inkscape:collect="always"
       xlink:href="#linearGradient2815"
       id="linearGradient2831"
       gradientUnits="userSpaceOnUse"
       x1="282.09094"
       y1="313.75546"
       x2="374.28571"
       y2="313.75546" />
    <linearGradient
       inkscape:collect="always"
       xlink:href="#linearGradient2815"
       id="linearGradient2833"
       gradientUnits="userSpaceOnUse"
       x1="282.09094"
       y1="313.75546"
       x2="374.28571"
       y2="313.75546" />
    <linearGradient
       inkscape:collect="always"
       xlink:href="#linearGradient2815"
       id="linearGradient2843"
       gradientUnits="userSpaceOnUse"
       x1="282.09094"
       y1="313.75546"
       x2="374.28571"
       y2="313.75546" />
    <linearGradient
       inkscape:collect="always"
       xlink:href="#linearGradient2815"
       id="linearGradient2845"
       gradientUnits="userSpaceOnUse"
       x1="282.09094"
       y1="313.75546"
       x2="374.28571"
       y2="313.75546" />
    <linearGradient
       inkscape:collect="always"
       xlink:href="#linearGradient16033"
       id="linearGradient8199"
       x1="60.891617"
       y1="468.80392"
       x2="687.46136"
       y2="468.80392"
       gradientUnits="userSpaceOnUse" />
    <linearGradient
       inkscape:collect="always"
       xlink:href="#linearGradient2815"
       id="linearGradient8209"
       gradientUnits="userSpaceOnUse"
       x1="282.09094"
       y1="313.75546"
       x2="374.28571"
       y2="313.75546" />
    <linearGradient
       inkscape:collect="always"
       xlink:href="#linearGradient2815"
       id="linearGradient8211"
       gradientUnits="userSpaceOnUse"
       x1="282.09094"
       y1="313.75546"
       x2="374.28571"
       y2="313.75546" />
    <linearGradient
       inkscape:collect="always"
       xlink:href="#linearGradient2815"
       id="linearGradient8274"
       gradientUnits="userSpaceOnUse"
       x1="282.09094"
       y1="313.75546"
       x2="374.28571"
       y2="313.75546" />
    <linearGradient
       inkscape:collect="always"
       xlink:href="#linearGradient2815"
       id="linearGradient8276"
       gradientUnits="userSpaceOnUse"
       x1="282.09094"
       y1="313.75546"
       x2="374.28571"
       y2="313.75546" />
    <linearGradient
       inkscape:collect="always"
       xlink:href="#linearGradient2815"
       id="linearGradient8278"
       gradientUnits="userSpaceOnUse"
       x1="282.09094"
       y1="313.75546"
       x2="374.28571"
       y2="313.75546" />
    <linearGradient
       inkscape:collect="always"
       xlink:href="#linearGradient2815"
       id="linearGradient8280"
       gradientUnits="userSpaceOnUse"
       x1="282.09094"
       y1="313.75546"
       x2="374.28571"
       y2="313.75546" />
    <linearGradient
       inkscape:collect="always"
       xlink:href="#linearGradient2815"
       id="linearGradient8296"
       gradientUnits="userSpaceOnUse"
       x1="282.09094"
       y1="313.75546"
       x2="374.28571"
       y2="313.75546" />
    <linearGradient
       inkscape:collect="always"
       xlink:href="#linearGradient2815"
       id="linearGradient8298"
       gradientUnits="userSpaceOnUse"
       x1="282.09094"
       y1="313.75546"
       x2="374.28571"
       y2="313.75546" />
    <linearGradient
       inkscape:collect="always"
       xlink:href="#linearGradient2815"
       id="linearGradient8751"
       gradientUnits="userSpaceOnUse"
       x1="282.09094"
       y1="313.75546"
       x2="374.28571"
       y2="313.75546" />
    <linearGradient
       inkscape:collect="always"
       xlink:href="#linearGradient2815"
       id="linearGradient8753"
       gradientUnits="userSpaceOnUse"
       x1="282.09094"
       y1="313.75546"
       x2="374.28571"
       y2="313.75546" />
    <linearGradient
       inkscape:collect="always"
       xlink:href="#linearGradient16033"
       id="linearGradient13580"
       gradientUnits="userSpaceOnUse"
       x1="60.891617"
       y1="468.80392"
       x2="687.46136"
       y2="468.80392" />
    <linearGradient
       inkscape:collect="always"
       xlink:href="#linearGradient2815"
       id="linearGradient13582"
       gradientUnits="userSpaceOnUse"
       x1="282.09094"
       y1="313.75546"
       x2="374.28571"
       y2="313.75546" />
    <linearGradient
       inkscape:collect="always"
       xlink:href="#linearGradient2815"
       id="linearGradient13584"
       gradientUnits="userSpaceOnUse"
       x1="282.09094"
       y1="313.75546"
       x2="374.28571"
       y2="313.75546" />
    <linearGradient
       inkscape:collect="always"
       xlink:href="#linearGradient2815"
       id="linearGradient13586"
       gradientUnits="userSpaceOnUse"
       x1="282.09094"
       y1="313.75546"
       x2="374.28571"
       y2="313.75546" />
    <linearGradient
       inkscape:collect="always"
       xlink:href="#linearGradient2815"
       id="linearGradient13588"
       gradientUnits="userSpaceOnUse"
       x1="282.09094"
       y1="313.75546"
       x2="374.28571"
       y2="313.75546" />
    <linearGradient
       inkscape:collect="always"
       xlink:href="#linearGradient2815"
       id="linearGradient13590"
       gradientUnits="userSpaceOnUse"
       x1="282.09094"
       y1="313.75546"
       x2="374.28571"
       y2="313.75546" />
    <linearGradient
       inkscape:collect="always"
       xlink:href="#linearGradient2815"
       id="linearGradient13592"
       gradientUnits="userSpaceOnUse"
       x1="282.09094"
       y1="313.75546"
       x2="374.28571"
       y2="313.75546" />
    <linearGradient
       inkscape:collect="always"
       xlink:href="#linearGradient2815"
       id="linearGradient13594"
       gradientUnits="userSpaceOnUse"
       x1="282.09094"
       y1="313.75546"
       x2="374.28571"
       y2="313.75546" />
    <linearGradient
       inkscape:collect="always"
       xlink:href="#linearGradient2815"
       id="linearGradient13596"
       gradientUnits="userSpaceOnUse"
       x1="282.09094"
       y1="313.75546"
       x2="374.28571"
       y2="313.75546" />
    <linearGradient
       inkscape:collect="always"
       xlink:href="#linearGradient2815"
       id="linearGradient13598"
       gradientUnits="userSpaceOnUse"
       x1="282.09094"
       y1="313.75546"
       x2="374.28571"
       y2="313.75546" />
    <linearGradient
       inkscape:collect="always"
       xlink:href="#linearGradient2815"
       id="linearGradient13600"
       gradientUnits="userSpaceOnUse"
       x1="282.09094"
       y1="313.75546"
       x2="374.28571"
       y2="313.75546" />
    <linearGradient
       inkscape:collect="always"
       xlink:href="#linearGradient16033"
       id="linearGradient14352"
       gradientUnits="userSpaceOnUse"
       x1="60.891617"
       y1="468.80392"
       x2="687.46136"
       y2="468.80392"
       gradientTransform="matrix(1,0,0,0.937431,0,57.48128)" />
    <linearGradient
       inkscape:collect="always"
       xlink:href="#linearGradient2815"
       id="linearGradient14362"
       gradientUnits="userSpaceOnUse"
       x1="282.09094"
       y1="313.75546"
       x2="374.28571"
       y2="313.75546" />
    <linearGradient
       inkscape:collect="always"
       xlink:href="#linearGradient2815"
       id="linearGradient14364"
       gradientUnits="userSpaceOnUse"
       x1="282.09094"
       y1="313.75546"
       x2="374.28571"
       y2="313.75546" />
    <linearGradient
       inkscape:collect="always"
       xlink:href="#linearGradient2815"
       id="linearGradient14366"
       gradientUnits="userSpaceOnUse"
       x1="282.09094"
       y1="313.75546"
       x2="374.28571"
       y2="313.75546" />
    <linearGradient
       inkscape:collect="always"
       xlink:href="#linearGradient2815"
       id="linearGradient14368"
       gradientUnits="userSpaceOnUse"
       x1="282.09094"
       y1="313.75546"
       x2="374.28571"
       y2="313.75546" />
    <linearGradient
       inkscape:collect="always"
       xlink:href="#linearGradient2815"
       id="linearGradient14370"
       gradientUnits="userSpaceOnUse"
       x1="282.09094"
       y1="313.75546"
       x2="374.28571"
       y2="313.75546" />
    <linearGradient
       inkscape:collect="always"
       xlink:href="#linearGradient16033"
       id="linearGradient14401"
       gradientUnits="userSpaceOnUse"
       gradientTransform="matrix(1,0,0,0.937431,0,57.48128)"
       x1="60.891617"
       y1="468.80392"
       x2="687.46136"
       y2="468.80392" />
    <linearGradient
       inkscape:collect="always"
       xlink:href="#linearGradient2815"
       id="linearGradient14419"
       gradientUnits="userSpaceOnUse"
       x1="282.09094"
       y1="313.75546"
       x2="374.28571"
       y2="313.75546" />
    <linearGradient
       inkscape:collect="always"
       xlink:href="#linearGradient2815"
       id="linearGradient14421"
       gradientUnits="userSpaceOnUse"
       x1="282.09094"
       y1="313.75546"
       x2="374.28571"
       y2="313.75546" />
    <linearGradient
       inkscape:collect="always"
       xlink:href="#linearGradient2815"
       id="linearGradient14423"
       gradientUnits="userSpaceOnUse"
       x1="282.09094"
       y1="313.75546"
       x2="374.28571"
       y2="313.75546" />
    <linearGradient
       inkscape:collect="always"
       xlink:href="#linearGradient2815"
       id="linearGradient14425"
       gradientUnits="userSpaceOnUse"
       x1="282.09094"
       y1="313.75546"
       x2="374.28571"
       y2="313.75546" />
    <linearGradient
       inkscape:collect="always"
       xlink:href="#linearGradient16033"
       id="linearGradient14579"
       gradientUnits="userSpaceOnUse"
       gradientTransform="matrix(1,0,0,0.937431,-31.19854,53.02434)"
       x1="60.891617"
       y1="468.80392"
       x2="687.46136"
       y2="468.80392" />
    <linearGradient
       inkscape:collect="always"
       xlink:href="#linearGradient2815"
       id="linearGradient14596"
       gradientUnits="userSpaceOnUse"
       x1="282.09094"
       y1="313.75546"
       x2="374.28571"
       y2="313.75546" />
    <linearGradient
       inkscape:collect="always"
       xlink:href="#linearGradient2815"
       id="linearGradient14598"
       gradientUnits="userSpaceOnUse"
       x1="282.09094"
       y1="313.75546"
       x2="374.28571"
       y2="313.75546" />
    <linearGradient
       inkscape:collect="always"
       xlink:href="#linearGradient2815"
       id="linearGradient14600"
       gradientUnits="userSpaceOnUse"
       x1="282.09094"
       y1="313.75546"
       x2="374.28571"
       y2="313.75546" />
    <linearGradient
       inkscape:collect="always"
       xlink:href="#linearGradient2815"
       id="linearGradient14602"
       gradientUnits="userSpaceOnUse"
       x1="282.09094"
       y1="313.75546"
       x2="374.28571"
       y2="313.75546" />
    <linearGradient
       inkscape:collect="always"
       xlink:href="#linearGradient2815"
       id="linearGradient14612"
       gradientUnits="userSpaceOnUse"
       x1="282.09094"
       y1="313.75546"
       x2="374.28571"
       y2="313.75546" />
    <linearGradient
       inkscape:collect="always"
       xlink:href="#linearGradient2815"
       id="linearGradient14614"
       gradientUnits="userSpaceOnUse"
       x1="282.09094"
       y1="313.75546"
       x2="374.28571"
       y2="313.75546" />
    <linearGradient
       inkscape:collect="always"
       xlink:href="#linearGradient2815"
       id="linearGradient14829"
       gradientUnits="userSpaceOnUse"
       x1="282.09094"
       y1="313.75546"
       x2="374.28571"
       y2="313.75546" />
    <linearGradient
       inkscape:collect="always"
       xlink:href="#linearGradient2815"
       id="linearGradient14831"
       gradientUnits="userSpaceOnUse"
       x1="282.09094"
       y1="313.75546"
       x2="374.28571"
       y2="313.75546" />
    <linearGradient
       inkscape:collect="always"
       xlink:href="#linearGradient2815"
       id="linearGradient14833"
       gradientUnits="userSpaceOnUse"
       x1="282.09094"
       y1="313.75546"
       x2="374.28571"
       y2="313.75546" />
  </defs>
  <sodipodi:namedview
     inkscape:document-units="px"
     id="base"
     pagecolor="#ffffff"
     bordercolor="#666666"
     borderopacity="1.0"
     inkscape:pageopacity="0.0"
     inkscape:pageshadow="2"
     inkscape:zoom="6.4911984"
     inkscape:cx="53.148891"
     inkscape:cy="184.17318"
     inkscape:current-layer="layer1"
     inkscape:window-width="819"
     inkscape:window-height="700"
     inkscape:window-x="30"
     inkscape:window-y="37"
     showguides="true"
     inkscape:guide-bbox="true"
     showgrid="false"
     inkscape:window-maximized="0" />
  <metadata
     id="metadata4">
    <rdf:RDF>
      <cc:Work
         rdf:about="">
        <dc:format>image/svg+xml</dc:format>
        <dc:type
           rdf:resource="http://purl.org/dc/dcmitype/StillImage" />
        <dc:title></dc:title>
      </cc:Work>
    </rdf:RDF>
  </metadata>
  <g
     inkscape:label="Layer 1"
     inkscape:groupmode="layer"
     id="layer1"
     transform="translate(-12.487489,-15.098397)">
    <path
       style="fill:#000000;fill-opacity:0.29487179;fill-rule:evenodd;stroke:none;stroke-width:1pt;stroke-linecap:butt;stroke-linejoin:miter;stroke-opacity:1"
       d="M 21.182085,51.46997 C 21.182085,51.46997 37.980216,36.511509 49.435112,30.005852 C 56.544297,25.96829 66.10146,24.280505 74.431114,25.432602 C 89.456109,27.510756 109.90486,35.353919 109.90486,35.353919 C 115.86477,36.944614 120.08331,43.323699 118.4197,51.355914 C 115.41436,65.8663 113.81007,76.045148 110.09719,88.694669 C 108.78971,93.149159 107.16102,97.712044 104.87588,101.36776 L 96.672742,114.49099 C 93.590936,119.42121 90.499773,120.25175 84.300885,121.07313 C 71.778295,122.73245 53.509615,117.84404 38.077465,110.13711 C 31.816391,107.01028 29.053429,104.86425 25.817017,99.054715 C 19.803428,88.259999 18.371621,78.174177 16.400715,66.131425 C 15.335208,59.620879 17.421905,56.242053 21.182085,51.46997 z "
       id="path5827"
       sodipodi:nodetypes="csscssssssssc" />
    <path
       style="fill:#000000;fill-opacity:1;fill-rule:evenodd;stroke:#000000;stroke-width:0.14504871pt;stroke-linecap:butt;stroke-linejoin:miter;stroke-opacity:1"
       d="M 18.317937,41.227522 C 18.317937,41.227522 30.014659,26.486079 40.977926,19.813289 C 47.781984,15.672001 56.928964,13.940855 64.901112,15.122553 C 79.281248,17.254095 99.577503,25.350851 99.577503,25.350851 C 105.28162,26.98241 110.02809,30.391963 109.24514,38.737056 C 107.90367,53.034792 103.44781,63.257787 101.14584,76.83359 C 100.66652,81.535588 96.692572,88.899713 94.789351,92.792723 L 88.691254,105.26627 C 86.124511,110.5165 80.344127,113.28918 74.347283,113.22013 C 65.491042,113.11816 48.383479,108.48967 34.865228,101.75561 C 28.773045,98.720815 24.511776,94.96591 22.728093,89.998513 C 18.675975,78.713735 12.156776,69.234952 12.147794,56.882818 C 12.142887,50.133503 14.719139,46.122203 18.317937,41.227522 z"
       id="rect5098"
       sodipodi:nodetypes="csscssssssssc" />
    <path
       style="fill:#ffffff;fill-opacity:1;fill-rule:evenodd;stroke:none;stroke-width:1pt;stroke-linecap:butt;stroke-linejoin:miter;stroke-opacity:1"
       d="M 20.606073,42.47922 C 20.606073,42.47922 31.857101,28.152462 42.402629,21.66738 C 48.947426,17.642588 56.478993,17.579345 64.147362,18.7278 C 77.979567,20.799379 94.558246,27.003599 94.558246,27.003599 C 100.04502,28.589261 107.41655,29.860225 107.19206,36.422404 C 106.78403,48.34885 103.40762,62.97428 100.20525,76.168187 C 99.119926,80.639807 97.094398,87.49059 95.184853,91.229995 L 88.29788,104.71652 C 85.722613,109.7596 78.157355,113.32334 72.389015,113.25624 C 63.870235,113.15713 49.427117,107.92066 36.423957,102.57567 C 30.348271,100.07824 25.07575,94.073556 22.831231,87.972014 C 18.657847,76.627051 15.137932,69.435513 13.482433,57.746583 C 12.561869,51.246758 17.144408,47.236212 20.606073,42.47922 z"
       id="path12391"
       sodipodi:nodetypes="csscssssssssc" />
    <path
       style="fill:#800080;fill-opacity:1;fill-rule:evenodd;stroke:none;stroke-width:1.3365448pt;stroke-linecap:butt;stroke-linejoin:miter;stroke-opacity:1"
       d="M 62.195287,17.938135 C 76.773787,19.556799 84.730297,23.572048 96.899058,27.687282 C 103.22761,29.827469 108.58856,34.33049 102.29419,45.118845 L 84.853457,75.011694 C 81.051937,81.582014 70.317397,82.881524 63.540147,80.995864 L 26.254407,66.874674 C 19.477147,64.989008 12.662541,55.66898 16.66099,49.120828 C 22.304837,39.878052 31.621897,30.534832 40.535867,22.570657 C 45.956017,17.728037 55.280917,17.170426 62.195287,17.938135 z"
       id="rect5076"
       sodipodi:nodetypes="csscccsss" />
    <path
       style="fill:#800080;fill-opacity:1;fill-rule:evenodd;stroke:none;stroke-width:1.30550385pt;stroke-linecap:butt;stroke-linejoin:miter;stroke-opacity:1"
       d="M 64.879404,110.14636 C 52.90599,107.9074 44.940613,103.49714 35.576467,99.340897 C 30.410542,97.048008 26.143092,91.63612 24.966248,87.376824 L 20.488715,74.369691 C 18.335788,68.115484 21.997581,68.291375 28.49737,70.926818 L 64.065701,83.999015 C 69.608852,85.68447 74.361245,89.626559 74.367578,96.30082 C 74.370479,99.359597 74.320647,101.59833 73.856658,105.74193 C 73.549477,108.48515 70.776985,111.24918 64.879404,110.14636 z"
       id="path6555"
       sodipodi:nodetypes="cscsccsss" />
    <path
       style="fill:#800080;fill-opacity:1;fill-rule:evenodd;stroke:none;stroke-width:1.29940939pt;stroke-linecap:butt;stroke-linejoin:miter;stroke-opacity:1"
       d="M 92.659044,90.178761 C 89.475073,96.295197 90.632057,97.094511 86.61551,103.26579 C 82.861353,109.03393 75.590635,109.67621 75.91244,105.52102 L 76.681919,95.585466 C 77.218852,88.652446 81.096168,80.929208 83.328272,77.397512 C 89.397148,67.795197 96.848624,57.112039 102.32932,48.6391 C 104.48671,45.303881 105.74159,49.784542 104.97762,52.399412 L 98.285544,75.304815 C 97.020204,79.635807 94.203041,87.212752 92.659044,90.178761 z"
       id="path7283"
       sodipodi:nodetypes="cssssssss" />
    <g
       id="g2478"
       transform="matrix(9.1170573e-2,4.6980586e-2,-3.77047e-2,0.1286404,114.35039,11.74266)"
       style="fill:#ffffff;fill-opacity:1">
      <path
         transform="translate(-14.28571,-51.42857)"
         sodipodi:open="true"
         sodipodi:end="5.9206252"
         sodipodi:start="0"
         d="m 388.57143,368.07648 c 0,11.83467 -20.46698,21.42857 -45.71428,21.42857 -25.24731,0 -45.71429,-9.5939 -45.71429,-21.42857 0,-11.83468 20.46698,-21.42857 45.71429,-21.42857 18.99238,0 36.00647,5.50458 42.74248,13.82852"
         sodipodi:ry="21.428572"
         sodipodi:rx="45.714287"
         sodipodi:cy="368.07648"
         sodipodi:cx="342.85715"
         id="path2480"
         style="fill:#ffffff;fill-opacity:1;fill-rule:evenodd;stroke:none;stroke-width:1pt;stroke-linecap:butt;stroke-linejoin:miter;stroke-opacity:1"
         sodipodi:type="arc" />
      <path
         sodipodi:nodetypes="cscsc"
         id="path2482"
         d="M 341.22761,333.73564 C 388.67601,320.61754 363.80364,295.90455 330.57164,296.05283 C 297.33965,296.20111 282.5862,311.14895 294.82609,331.00918 C 263.81252,312.39925 295.1008,289.58313 328.33279,289.43484 C 361.25469,289.28795 404.78537,326.99024 341.22761,333.73564 z"
         style="fill:#ffffff;fill-opacity:1;fill-rule:evenodd;stroke:none;stroke-width:1pt;stroke-linecap:butt;stroke-linejoin:miter;stroke-opacity:1" />
    </g>
    <path
       style="fill:#2b0000;fill-opacity:0.00192297"
       id="path2490"
       d="M 157.41008,72.474109 C 158.43392,72.459233 158.94825,72.828979 159.43436,73.383924 C 160.44652,74.618447 160.95149,73.332222 155.61773,75.16694 C 155.58713,75.177464 155.69142,75.15261 155.70674,75.131977 C 155.73699,75.091244 155.73119,75.042465 155.74341,74.997709 C 155.81858,74.559281 155.53708,74.145599 155.27071,73.75576 C 155.01083,73.403867 154.64706,73.096768 154.27825,72.794683 L 158.29651,71.182125 C 158.68677,71.505021 159.06945,71.833776 159.35455,72.205005 C 159.6663,72.63172 159.99614,73.087965 159.99291,73.572335 C 159.99452,73.626502 159.99221,73.680785 159.99774,73.734836 C 160.00366,73.792644 160.10153,73.877877 160.02725,73.907538 C 155.9537,75.534243 156.34802,76.343318 155.37784,74.956232 C 154.91335,74.427206 154.46882,74.299016 153.55857,74.34939 L 157.41008,72.474109 z" />
    <path
       style="fill:#000000;fill-opacity:0.00192297"
       id="path2492"
       d="M 130.98399,44.751229 C 131.24174,45.351823 131.5091,45.956726 131.8853,46.49301 C 132.3588,46.989599 133.045,47.042944 133.69185,47.094156 C 133.79367,47.086361 133.89878,47.097597 133.99731,47.070771 C 134.07743,47.048958 134.28856,46.911112 134.21599,46.951457 C 133.36293,47.425673 132.5289,47.936033 131.65587,48.372388 C 131.60524,48.397693 131.71663,48.262948 131.70074,48.208622 C 131.6517,48.040909 131.56199,47.886528 131.4703,47.737779 C 131.32596,47.50361 131.15329,47.288135 130.99479,47.063313 C 129.80979,45.49096 128.3595,44.164128 126.86457,42.896284 C 126.70008,42.778396 126.36014,42.484781 126.11028,42.44852 C 126.05387,42.440333 125.90098,42.538006 125.95088,42.510443 C 126.84236,42.026692 127.73384,41.542941 128.62532,41.059191 C 128.61328,41.106616 128.58659,41.152608 128.58921,41.201466 C 128.59428,41.296065 128.62829,41.386862 128.64783,41.47956 C 128.84717,42.196649 129.04973,42.912054 129.28228,43.619121 C 129.51749,44.197918 129.75862,44.782736 130.07987,45.319794 C 130.63239,46.072644 131.20579,46.542804 132.07954,46.866795 C 132.79469,47.054218 133.54724,47.184403 134.2731,46.999918 C 134.35187,46.959442 134.43064,46.918966 134.50941,46.87849 C 133.6727,47.346341 132.8483,47.836928 131.99927,48.282044 C 131.92875,48.319017 132.11869,48.174353 132.16337,48.108442 C 132.34163,47.845468 132.34341,47.565142 132.3387,47.261838 C 132.27562,46.647478 132.11348,46.139445 131.58382,45.788948 C 130.9374,45.508148 130.21689,45.503681 129.5236,45.487799 C 129.22105,45.483631 128.91849,45.487872 128.61597,45.491694 L 131.16247,43.640981 C 131.46118,43.643921 131.75993,43.647037 132.05839,43.661001 C 132.80107,43.701107 133.57517,43.727299 134.23584,44.107926 C 134.81776,44.57148 135.02854,45.094136 135.12035,45.824647 C 135.14734,46.118302 135.17724,46.241892 135.13117,46.53546 C 134.90332,47.987563 133.08391,48.5496 131.766,48.888867 C 131.00068,48.967217 130.22869,48.833022 129.50077,48.592998 C 128.62301,48.20992 127.9701,47.654522 127.38652,46.894207 C 127.00978,46.356546 126.79194,45.728909 126.54751,45.121885 C 126.32194,44.409557 126.11453,43.693378 125.89255,42.980177 C 125.81978,42.768202 125.67725,42.378094 125.7126,42.352373 C 128.06278,40.642555 128.02121,40.013557 129.42231,41.308885 C 130.86003,42.659751 132.26721,44.043992 133.55799,45.538227 C 133.76391,45.785873 134.33128,46.426903 134.49489,46.760919 C 134.55376,46.88109 134.68389,47.07236 134.57766,47.15373 C 133.15562,48.242996 132.53729,48.974551 131.1408,48.907236 C 130.41122,48.812511 129.68104,48.677298 129.18899,48.076202 C 128.82097,47.518947 128.55392,46.903255 128.20807,46.331792 L 130.98399,44.751229 z" />
    <path
       sodipodi:type="arc"
       style="fill:#311e1e;fill-opacity:0.00192297"
       id="path2483"
       sodipodi:cx="-29.694622"
       sodipodi:cy="27.650427"
       sodipodi:rx="4.7339253"
       sodipodi:ry="5.4870496"
       d="m -24.960697,27.650427 c 0,3.030414 -2.11945,5.487049 -4.733925,5.487049 -2.614475,0 -4.733925,-2.456635 -4.733925,-5.487049 0,-3.030414 2.11945,-5.48705 4.733925,-5.48705 2.614475,0 4.733925,2.456636 4.733925,5.48705 z"
       transform="translate(12.487489,15.098397)" />
    <path
       sodipodi:type="star"
       style="fill:#311e1e;fill-opacity:0.00192297"
       id="path3257"
       sodipodi:sides="5"
       sodipodi:cx="-19.581237"
       sodipodi:cy="41.099079"
       sodipodi:r1="11.858264"
       sodipodi:r2="5.9291322"
       sodipodi:arg1="1.3698421"
       sodipodi:arg2="1.9981606"
       inkscape:flatsided="false"
       inkscape:rounded="0"
       inkscape:randomized="0"
       d="m -17.214276,52.718714 -4.82443,-6.223761 -7.86203,0.445906 4.428318,-6.511555 -2.853582,-7.339441 7.561281,2.199399 6.098419,-4.98193 0.244811,7.870857 6.6226122,4.26044 -7.4099792,2.665058 z"
       transform="translate(12.487489,15.098397)" />
  </g>
</svg>
