<?xml version="1.0" encoding="UTF-8" standalone="no"?>
<!-- Created with Sodipodi ("http://www.sodipodi.com/") -->

<svg
   xmlns:dc="http://purl.org/dc/elements/1.1/"
   xmlns:cc="http://creativecommons.org/ns#"
   xmlns:rdf="http://www.w3.org/1999/02/22-rdf-syntax-ns#"
   xmlns:svg="http://www.w3.org/2000/svg"
   xmlns="http://www.w3.org/2000/svg"
   xmlns:xlink="http://www.w3.org/1999/xlink"
   xmlns:sodipodi="http://sodipodi.sourceforge.net/DTD/sodipodi-0.dtd"
   xmlns:inkscape="http://www.inkscape.org/namespaces/inkscape"
   id="svg602"
   sodipodi:version="0.32"
   width="83.127678"
   height="65.000015"
   xml:space="preserve"
   sodipodi:docname="divide1.svg"
   inkscape:version="0.48.0 r9654"
   inkscape:output_extension="org.inkscape.output.svg.inkscape"
   sodipodi:modified="true"
   version="1.0"><metadata
   id="metadata28"><rdf:RDF><cc:Work
       rdf:about=""><dc:format>image/svg+xml</dc:format><dc:type
         rdf:resource="http://purl.org/dc/dcmitype/StillImage" /><dc:title></dc:title></cc:Work></rdf:RDF></metadata><defs
   id="defs604"><linearGradient
   id="linearGradient3294"><stop
     id="stop3296"
     offset="0"
     style="stop-color:#cf4700;stop-opacity:0.29019609;" /><stop
     id="stop3298"
     offset="1"
     style="stop-color:#ffffff;stop-opacity:1;" /></linearGradient><inkscape:perspective
   sodipodi:type="inkscape:persp3d"
   inkscape:vp_x="0 : 32.500008 : 1"
   inkscape:vp_y="6.1230318e-14 : 1000 : 0"
   inkscape:vp_z="83.127678 : 32.500008 : 1"
   inkscape:persp3d-origin="41.563839 : 21.666672 : 1"
   id="perspective2440" /><linearGradient
   id="linearGradient641"><stop
     style="stop-color:#005d00;stop-opacity:0.2902;"
     offset="0"
     id="stop642" /><stop
     style="stop-color:#ffffff;stop-opacity:1;"
     offset="1"
     id="stop643" /></linearGradient><linearGradient
   id="linearGradient612"><stop
     style="stop-color:#00cf00;stop-opacity:0.2902;"
     offset="0"
     id="stop613" /><stop
     style="stop-color:#ffffff;stop-opacity:1;"
     offset="1"
     id="stop614" /></linearGradient><linearGradient
   id="linearGradient608"><stop
     style="stop-color:#d7d7d5;stop-opacity:1;"
     offset="0"
     id="stop609" /><stop
     style="stop-color:#ffffff;stop-opacity:1;"
     offset="1"
     id="stop610" /></linearGradient><linearGradient
   xlink:href="#linearGradient612"
   id="linearGradient611"
   x1="0.49664423"
   y1="0.98913556"
   x2="0.48993284"
   y2="-0.22826068" /><linearGradient
   xlink:href="#linearGradient641"
   id="linearGradient634" /><linearGradient
   xlink:href="#linearGradient641"
   id="linearGradient635"
   x1="0.015384111"
   y1="0.023437124"
   x2="0.98461509"
   y2="0.9843747" /><linearGradient
   xlink:href="#linearGradient641"
   id="linearGradient644"
   x1="0.011364"
   y1="0.0078126118"
   x2="1.0454547"
   y2="1.0000002" /><radialGradient
   xlink:href="#linearGradient608"
   id="radialGradient646" /><radialGradient
   xlink:href="#linearGradient608"
   id="radialGradient647"
   cx="0.50781542"
   cy="0.5"
   r="0.3381981"
   fx="0.50781542"
   fy="0.5" /><linearGradient
   xlink:href="#linearGradient641"
   id="linearGradient770" /><radialGradient
   xlink:href="#linearGradient608"
   id="radialGradient784"
   cx="0.50000006"
   cy="0.5"
   r="0.5"
   fx="0.50000006"
   fy="0.5"
   spreadMethod="pad" /><linearGradient
   inkscape:collect="always"
   xlink:href="#linearGradient612"
   id="linearGradient2188"
   x1="234.46304"
   y1="735.4422"
   x2="233.05591"
   y2="480.19824"
   gradientTransform="scale(1.8041932,0.5542644)"
   gradientUnits="userSpaceOnUse" /><linearGradient
   inkscape:collect="always"
   xlink:href="#linearGradient641"
   id="linearGradient2190"
   x1="67.778114"
   y1="71.016434"
   x2="104.75815"
   y2="107.68004"
   gradientTransform="scale(1.0001571,0.9998429)"
   gradientUnits="userSpaceOnUse" /><radialGradient
   inkscape:collect="always"
   xlink:href="#linearGradient608"
   id="radialGradient2192"
   cx="93.844109"
   cy="89.748573"
   fx="93.844109"
   fy="89.748573"
   r="14.205347"
   gradientTransform="scale(0.9547881,1.0473528)"
   gradientUnits="userSpaceOnUse" />
<radialGradient
   inkscape:collect="always"
   xlink:href="#linearGradient608"
   id="radialGradient2454"
   gradientUnits="userSpaceOnUse"
   gradientTransform="matrix(0.9424924,0,0,1.0338651,-46.984201,-58.319797)"
   cx="91.066788"
   cy="89.851685"
   fx="91.066788"
   fy="89.851685"
   r="14.205347" /><linearGradient
   inkscape:collect="always"
   xlink:href="#linearGradient612"
   id="linearGradient2460"
   gradientUnits="userSpaceOnUse"
   gradientTransform="matrix(0.3737772,0,0,0.1148277,-46.724535,-58.643902)"
   x1="234.46304"
   y1="735.4422"
   x2="233.05591"
   y2="480.19824" /></defs><sodipodi:namedview
   id="base"
   inkscape:zoom="5.7622747"
   inkscape:cx="55.252402"
   inkscape:cy="36.53241"
   inkscape:window-width="822"
   inkscape:window-height="700"
   inkscape:window-x="197"
   inkscape:window-y="37"
   inkscape:current-layer="svg602"
   showgrid="false"
   inkscape:window-maximized="0" /><g
   id="g2422"
   transform="translate(-0.5206277,0.3470856)"><g
     transform="translate(0.6941703,-0.1735426)"
     style="opacity:0.7;fill:#800080"
     id="g2464"><rect
       style="font-size:12px;fill:#800080;fill-opacity:1;fill-rule:evenodd"
       id="rect2446"
       width="83.127678"
       height="65.000015"
       x="-0.26069063"
       y="0.047550984"
       ry="9.5005054"
       rx="9.5005054" /><rect
       style="font-size:12px;fill:#800080;fill-opacity:1;fill-rule:evenodd"
       id="rect2448"
       width="78.367561"
       height="60.06572"
       x="1.7308865"
       y="2.0391586"
       ry="6.7028937"
       rx="6.7028937" /><rect
       style="font-size:12px;fill:#800080;fill-opacity:1;fill-rule:evenodd"
       id="rect2450"
       width="78.367561"
       height="24.07522"
       x="1.7308865"
       y="2.0391586"
       ry="7.2771926"
       rx="7.2771926" /></g></g><path
   style="font-size:72px;font-weight:bold;fill:#cccccc;stroke-width:1;font-family:Courier"
   d="M -19.900433,31.947129 L -19.961601,20.626508 L -8.1616362,20.626508 C -5.8162992,20.626508 -4.2038802,19.157902 -4.2038802,16.881562 C -4.2038802,14.678652 -5.7551202,12.708384 -8.1004572,12.708384 L -19.900433,12.708384 L -19.900433,0.95954189 C -19.900433,-1.3902281 -21.366269,-2.9322747 -23.638314,-2.9322747 C -25.837067,-2.9322747 -27.731131,-1.3902281 -27.731131,0.95954189 L -27.731131,12.708384 L -39.029588,12.708384 C -41.374925,12.708384 -43.048512,14.605212 -43.048512,16.881562 C -43.048512,19.084471 -41.436093,20.626508 -39.090756,20.626508 L -27.73112,20.68767 L -27.669952,32.008321 C -27.669952,34.358091 -26.204127,35.973558 -23.932072,35.973558 C -21.733318,35.973558 -19.900433,34.296899 -19.900433,31.947129 z"
   id="path1103"
   sodipodi:nodetypes="ccccccccccccccccc" /><text
   style="font-size:71.07279204999998967px;font-style:normal;font-weight:bold;writing-mode:lr-tb;text-anchor:start;fill:url(#radialGradient2454);fill-opacity:1;stroke:none;stroke-width:1pt;stroke-linecap:butt;stroke-linejoin:miter;stroke-opacity:1;font-family:Courier"
   x="19.654245"
   y="54.475109"
   id="text1097"
   transform="scale(0.9944733,1.0055574)"><tspan
     id="tspan1098"
     style="fill:url(#radialGradient2454)" /></text>





<path
   sodipodi:type="arc"
   style="opacity:0.82743363;fill:#ffffff;fill-opacity:0.92920353"
   id="path2567"
   sodipodi:cx="43.906273"
   sodipodi:cy="38.448002"
   sodipodi:rx="1.2147981"
   sodipodi:ry="0"
   d="M 45.121071,38.448002 A 1.2147981,0 0 1 1 42.691475,38.448002 A 1.2147981,0 0 1 1 45.121071,38.448002 z" /><path
   style="opacity:0.82743363;fill:#800080;fill-opacity:0.92920353"
   d="M 8.2703702,65.058008 C 4.7957532,64.649801 1.9157862,62.354654 0.53023225,58.889619 L 0.11386925,57.848364 L 0.067571249,33.244912 C 0.016451249,6.0776855 -0.035321751,7.4657365 1.1105222,5.2828425 C 1.9311642,3.7194845 3.6464762,2.0694745 5.2333752,1.3169555 C 5.9492382,0.97749155 6.9487832,0.61407555 7.4545852,0.50937055 C 8.1031902,0.37510555 18.155666,0.31899955 41.562625,0.31899955 C 77.7472,0.31899955 75.6049,0.26186755 77.713566,1.2831065 C 80.338958,2.5545995 82.298863,5.1930395 82.801947,8.1331205 C 82.937945,8.9279365 82.979469,16.336247 82.94392,33.465632 L 82.893678,57.674821 L 82.442461,58.833862 C 81.271517,61.841711 79.080358,63.874633 75.951975,64.85564 C 75.178031,65.098331 71.530461,65.13058 42.197944,65.154038 C 24.110469,65.168503 8.8430612,65.125287 8.2703702,65.058006 L 8.2703702,65.058008 z"
   id="path2575" /><path
   style="opacity:0.82743363000000003;fill:#e3dbdb;fill-opacity:0.92920353000000000"
   d="M -22.640355,68.015682 C -23.421704,67.660857 -24.110637,66.854904 -24.418439,65.935584 C -24.53263,65.594519 -24.615948,64.197072 -24.615948,62.622796 C -24.615948,61.125211 -24.66737,58.364523 -24.730219,56.487931 L -24.844491,53.075943 L -30.535355,53.075943 C -36.707414,53.075943 -37.574634,52.983856 -38.634764,52.215903 C -39.577269,51.533155 -39.976314,50.646828 -39.966474,49.258007 C -39.957572,48.001439 -39.573033,47.071662 -38.732175,46.273604 C -37.699519,45.29351 -37.488864,45.266527 -30.869055,45.266527 L -24.789491,45.266527 L -24.785249,39.322694 C -24.782802,35.8962 -24.705536,33.048115 -24.602809,32.597919 C -24.189073,30.784735 -22.690273,29.647696 -20.713939,29.647696 C -18.892089,29.647696 -17.616594,30.573689 -17.156399,32.23042 C -17.054642,32.596753 -16.981607,35.439693 -16.981043,39.056412 L -16.980075,45.254594 L -10.415882,45.303945 L -3.8516965,45.353299 L -3.1366905,45.826653 C -1.8074465,46.706656 -1.1630635,48.372801 -1.4393685,50.21533 C -1.5354425,50.855978 -1.7263585,51.191734 -2.3718075,51.855151 C -3.5125125,53.027612 -3.8541745,53.075943 -11.001397,53.075943 L -16.980075,53.075943 L -16.980075,58.899544 C -16.980075,62.747544 -17.048475,64.994781 -17.181702,65.523873 C -17.444669,66.568214 -18.692928,67.888557 -19.669985,68.155851 C -20.69483,68.436219 -21.832532,68.38253 -22.640355,68.015682 z"
   id="path2577" /><path
   style="opacity:0.82743363;fill:#f9f9f9;fill-opacity:0.92920353"
   d="M -7.6087756,3.6000642 C -7.4048546,3.4555552 -7.4505366,3.4318692 -7.8196496,3.4907272 C -8.0788016,3.5320512 -8.3130866,3.5049752 -8.3402766,3.4305582 C -8.3674676,3.3561422 -8.5037226,3.2698742 -8.6430616,3.2388532 C -8.7824006,3.2078302 -9.1626296,2.8700752 -9.4880146,2.4882812 C -9.8133986,2.1064882 -10.128915,1.7550642 -10.189156,1.7073402 C -10.249397,1.6596152 -10.321627,1.4643802 -10.349663,1.2734832 C -10.392196,0.98390317 -10.691319,-8.7188898 -10.722833,-10.831112 L -10.732543,-11.481896 L -16.242519,-11.506524 C -19.273007,-11.520067 -21.44012,-11.581064 -21.058326,-11.642071 C -20.490755,-11.732764 -20.650933,-11.771433 -21.936628,-11.854102 C -22.801485,-11.909712 -23.668641,-12.040591 -23.863633,-12.144949 C -24.467193,-12.467965 -25.646479,-13.517285 -25.533225,-13.630539 C -25.47415,-13.689615 -25.497401,-13.738024 -25.584894,-13.738115 C -25.672389,-13.738205 -25.769084,-14.319548 -25.799771,-15.029986 C -25.843087,-16.032719 -25.778031,-16.496976 -25.508983,-17.105207 C -25.158707,-17.897071 -24.199795,-18.975768 -23.738594,-19.096759 C -22.890866,-19.31915 -20.079744,-19.444398 -15.721892,-19.453935 L -10.732543,-19.464855 L -10.689157,-24.19389 C -10.665295,-26.794859 -10.645771,-29.716075 -10.645771,-30.685482 C -10.645771,-31.654889 -10.578834,-32.406528 -10.497023,-32.35579 C -10.415208,-32.305054 -10.404053,-32.439288 -10.472229,-32.65409 C -10.540405,-32.868892 -10.529248,-33.005444 -10.447435,-32.957536 C -10.365625,-32.90963 -10.027266,-33.245402 -9.6955266,-33.703696 C -9.3637876,-34.161991 -9.0514126,-34.527361 -9.0013556,-34.515628 C -8.7978566,-34.467926 -8.1295096,-34.769958 -8.1967156,-34.879253 C -8.3394906,-35.111444 -6.2892496,-35.069768 -5.4264016,-34.82294 C -4.7844626,-34.639308 -4.3584756,-34.365367 -3.8556056,-33.812811 C -3.4761106,-33.39582 -3.1956576,-32.964523 -3.2323756,-32.854369 C -3.2690936,-32.744218 -3.2340576,-32.654274 -3.1545156,-32.654498 C -3.0749746,-32.654722 -3.0199696,-32.010445 -3.0322806,-31.222772 C -3.0526996,-29.916541 -3.0435456,-29.874549 -2.9281816,-30.745122 C -2.8586136,-31.270088 -2.8094956,-28.946752 -2.8190266,-25.582154 L -2.8363546,-19.4647 L -0.31998764,-19.452896 C 1.0640144,-19.446402 4.1044214,-19.403907 6.4364714,-19.358461 L 10.676562,-19.275832 L 11.261401,-18.632789 C 12.17442,-17.628903 12.527215,-16.709191 12.570722,-15.219484 C 12.591736,-14.499819 12.545755,-13.911116 12.468535,-13.911249 C 12.391316,-13.911383 12.353895,-13.852922 12.385377,-13.781335 C 12.47156,-13.585369 10.86167,-12.09725 10.496923,-12.035723 C 9.1007974,-11.80021 6.1321084,-11.671009 1.9527314,-11.663866 L -2.9765686,-11.655439 L -2.8858836,-5.7983768 C -2.8360116,-2.5769928 -2.8537286,-0.37083283 -2.9252576,-0.89579883 C -3.0497606,-1.8095408 -3.0543396,-1.7928558 -3.0326036,-0.50492383 C -3.0201176,0.23502517 -3.0632066,0.84025317 -3.1283596,0.84003117 C -3.1935126,0.83981117 -3.2980336,1.0009802 -3.3606256,1.1981882 C -3.5055486,1.6548072 -4.9389186,3.2780932 -5.0760776,3.1409332 C -5.1327836,3.0842262 -5.1791796,3.1335512 -5.1791796,3.2505412 C -5.1791796,3.3675292 -5.2572736,3.4149852 -5.3527226,3.3559942 C -5.4481706,3.2970042 -5.5262646,3.3329302 -5.5262646,3.4358312 C -5.5262646,3.5515442 -5.7016576,3.5788992 -5.9860056,3.5075332 C -6.3095576,3.4263292 -6.4093396,3.4510522 -6.3228496,3.5909992 C -6.2369196,3.7300302 -6.4510126,3.7890512 -7.0345196,3.7871942 C -7.6718986,3.7851652 -7.8075826,3.7409502 -7.6087756,3.6000642 z"
   id="path2579" /><path
   style="fill:none;fill-rule:evenodd;stroke:#000000;stroke-width:1px;stroke-linecap:butt;stroke-linejoin:miter;stroke-opacity:1"
   d="M -9.024214,62.049791 C -9.0820615,62.107639 -9.139909,62.165487 -9.024214,62.049791 z"
   id="path2601" /><path
   style="fill:#800080;fill-rule:evenodd;stroke:#000000;stroke-width:1px;stroke-linecap:butt;stroke-linejoin:miter;stroke-opacity:1"
   d="M 37.311654,30.638585 C 37.369502,30.638585 37.427349,30.638585 37.311654,30.638585 z"
   id="path2603" /><path
   style="fill:none;fill-rule:evenodd;stroke:#000000;stroke-width:1px;stroke-linecap:butt;stroke-linejoin:miter;stroke-opacity:1"
   d="M -27.766812,43.827821 C -24.909791,43.828985 -20.060138,44.44702 -16.486545,45.042619 C -13.116576,45.60428 -26.364773,43.672039 -27.766812,43.827821 C -28.386503,43.896675 -24.165465,44.174906 -20.825109,44.174906 C -18.444468,44.174906 -13.443802,41.05114 -21.692822,41.05114 C -35.911623,41.05114 -42.595738,40.356969 -24.643046,40.356969 C -23.775333,40.356969 -22.90762,40.356969 -22.039907,40.356969 C -18.049461,40.356969 -13.55907,40.009884 -9.3712992,40.009884"
   id="path2607" /><path
   style="fill:none;fill-rule:evenodd;stroke:#000000;stroke-width:1px;stroke-linecap:butt;stroke-linejoin:miter;stroke-opacity:1"
   d="M -16.660087,42.786565 C -16.554269,42.786565 -19.362218,44.695534 -23.775333,44.695534 C -25.383869,44.695534 -26.606591,44.001363 -28.113897,44.001363 C -29.231119,44.001363 -25.989404,44.716525 -24.990131,45.216161 C -23.087987,46.167234 -21.233397,44.521991 -19.610311,44.521991 C -18.395513,44.521991 -17.180715,44.521991 -15.965917,44.521991"
   id="path2609" /><path
   style="fill:none;fill-rule:evenodd;stroke:#000000;stroke-width:1px;stroke-linecap:butt;stroke-linejoin:miter;stroke-opacity:1"
   d="M -25.163674,53.372663 C -24.380525,53.372663 -22.340363,52.678492 -20.825109,52.678492 C -18.742598,52.678492 -16.660087,52.678492 -14.577576,52.678492 C -12.610761,52.678492 -10.643945,52.678492 -8.6771288,52.678492"
   id="path2611" /><rect
   style="opacity:0.82743363;fill:#e3dbdb;fill-opacity:0.92920353"
   id="rect2613"
   width="34.187889"
   height="8.3300438"
   x="-101.34887"
   y="30.2915"
   rx="7.2771926"
   ry="7.2771926" /><rect
   style="opacity:0.82743363;fill:#ffffff;fill-opacity:0.92920353"
   id="rect2633"
   width="42.865017"
   height="9.5448418"
   x="88.853798"
   y="34.456524"
   rx="7.2771926"
   ry="0.52062774" /><rect
   style="opacity:0.82743363;fill:#ffffff;fill-opacity:0.92920353"
   id="rect2637"
   width="36.964569"
   height="5.0327349"
   x="23.688564"
   y="30.204729"
   rx="6.2754741"
   ry="0.27451283" /><rect
   style="opacity:0.82743363;fill:#ffffff;fill-opacity:0.92920353"
   id="rect2423"
   width="36.443943"
   height="5.0327349"
   x="23.688562"
   y="30.204731"
   rx="6.1870871"
   ry="0.27451283" /><path
   sodipodi:type="arc"
   style="opacity:0.82743363;fill:#ffffff;fill-opacity:0.92920353"
   id="path2445"
   sodipodi:cx="41.129589"
   sodipodi:cy="25.60585"
   sodipodi:rx="3.9914792"
   sodipodi:ry="3.2973089"
   d="m 45.121068,25.60585 a 3.9914792,3.2973089 0 1 1 -7.982958,0 3.9914792,3.2973089 0 1 1 7.982958,0 z"
   transform="translate(0.17354262,-4.512107)" /><path
   sodipodi:type="arc"
   style="opacity:0.82743363;fill:#ffffff;fill-opacity:0.92920353"
   id="path2451"
   sodipodi:cx="41.129589"
   sodipodi:cy="25.60585"
   sodipodi:rx="3.9914792"
   sodipodi:ry="3.2973089"
   d="m 45.121068,25.60585 a 3.9914792,3.2973089 0 1 1 -7.982958,0 3.9914792,3.2973089 0 1 1 7.982958,0 z"
   transform="translate(0.8677144,18.395513)" /><path
   sodipodi:type="arc"
   style="opacity:0.82743363;fill:#ffffff;fill-opacity:0.92920353"
   id="path2453"
   sodipodi:cx="41.129589"
   sodipodi:cy="25.60585"
   sodipodi:rx="3.9914792"
   sodipodi:ry="3.2973089"
   d="m 45.121068,25.60585 a 3.9914792,3.2973089 0 1 1 -7.982958,0 3.9914792,3.2973089 0 1 1 7.982958,0 z"
   transform="matrix(1,0,0,0.86842105,0.34708649,-1.0561447)" /><path
   sodipodi:type="arc"
   style="opacity:0.82743363;fill:#ffffff;fill-opacity:0.92920353"
   id="path2455"
   sodipodi:cx="41.129589"
   sodipodi:cy="25.60585"
   sodipodi:rx="3.9914792"
   sodipodi:ry="3.2973089"
   d="m 45.121068,25.60585 a 3.9914792,3.2973089 0 1 1 -7.982958,0 3.9914792,3.2973089 0 1 1 7.982958,0 z"
   transform="matrix(1,0,0,0.86842105,0.69417175,21.677932)" /></svg>