<?xml version="1.0" encoding="UTF-8" standalone="no"?>
<!-- Created with Sodipodi ("http://www.sodipodi.com/") -->

<svg
   xmlns:dc="http://purl.org/dc/elements/1.1/"
   xmlns:cc="http://creativecommons.org/ns#"
   xmlns:rdf="http://www.w3.org/1999/02/22-rdf-syntax-ns#"
   xmlns:svg="http://www.w3.org/2000/svg"
   xmlns="http://www.w3.org/2000/svg"
   xmlns:xlink="http://www.w3.org/1999/xlink"
   xmlns:sodipodi="http://sodipodi.sourceforge.net/DTD/sodipodi-0.dtd"
   xmlns:inkscape="http://www.inkscape.org/namespaces/inkscape"
   id="svg602"
   sodipodi:version="0.32"
   width="83.127678"
   height="65.000015"
   xml:space="preserve"
   sodipodi:docname="multiply.svg"
   inkscape:version="0.48.0 r9654"
   inkscape:output_extension="org.inkscape.output.svg.inkscape"
   sodipodi:modified="true"
   version="1.0"><metadata
   id="metadata28"><rdf:RDF><cc:Work
       rdf:about=""><dc:format>image/svg+xml</dc:format><dc:type
         rdf:resource="http://purl.org/dc/dcmitype/StillImage" /><dc:title></dc:title></cc:Work></rdf:RDF></metadata><defs
   id="defs604"><linearGradient
   id="linearGradient3294"><stop
     id="stop3296"
     offset="0"
     style="stop-color:#cf4700;stop-opacity:0.29019609;" /><stop
     id="stop3298"
     offset="1"
     style="stop-color:#ffffff;stop-opacity:1;" /></linearGradient><inkscape:perspective
   sodipodi:type="inkscape:persp3d"
   inkscape:vp_x="0 : 32.500008 : 1"
   inkscape:vp_y="6.1230318e-14 : 1000 : 0"
   inkscape:vp_z="83.127678 : 32.500008 : 1"
   inkscape:persp3d-origin="41.563839 : 21.666672 : 1"
   id="perspective2440" /><linearGradient
   id="linearGradient641"><stop
     style="stop-color:#005d00;stop-opacity:0.2902;"
     offset="0"
     id="stop642" /><stop
     style="stop-color:#ffffff;stop-opacity:1;"
     offset="1"
     id="stop643" /></linearGradient><linearGradient
   id="linearGradient612"><stop
     style="stop-color:#00cf00;stop-opacity:0.2902;"
     offset="0"
     id="stop613" /><stop
     style="stop-color:#ffffff;stop-opacity:1;"
     offset="1"
     id="stop614" /></linearGradient><linearGradient
   id="linearGradient608"><stop
     style="stop-color:#d7d7d5;stop-opacity:1;"
     offset="0"
     id="stop609" /><stop
     style="stop-color:#ffffff;stop-opacity:1;"
     offset="1"
     id="stop610" /></linearGradient><linearGradient
   xlink:href="#linearGradient612"
   id="linearGradient611"
   x1="0.49664423"
   y1="0.98913556"
   x2="0.48993284"
   y2="-0.22826068" /><linearGradient
   xlink:href="#linearGradient641"
   id="linearGradient634" /><linearGradient
   xlink:href="#linearGradient641"
   id="linearGradient635"
   x1="0.015384111"
   y1="0.023437124"
   x2="0.98461509"
   y2="0.9843747" /><linearGradient
   xlink:href="#linearGradient641"
   id="linearGradient644"
   x1="0.011364"
   y1="0.0078126118"
   x2="1.0454547"
   y2="1.0000002" /><radialGradient
   xlink:href="#linearGradient608"
   id="radialGradient646" /><radialGradient
   xlink:href="#linearGradient608"
   id="radialGradient647"
   cx="0.50781542"
   cy="0.5"
   r="0.3381981"
   fx="0.50781542"
   fy="0.5" /><linearGradient
   xlink:href="#linearGradient641"
   id="linearGradient770" /><radialGradient
   xlink:href="#linearGradient608"
   id="radialGradient784"
   cx="0.50000006"
   cy="0.5"
   r="0.5"
   fx="0.50000006"
   fy="0.5"
   spreadMethod="pad" /><linearGradient
   inkscape:collect="always"
   xlink:href="#linearGradient612"
   id="linearGradient2188"
   x1="234.46304"
   y1="735.4422"
   x2="233.05591"
   y2="480.19824"
   gradientTransform="scale(1.8041932,0.5542644)"
   gradientUnits="userSpaceOnUse" /><linearGradient
   inkscape:collect="always"
   xlink:href="#linearGradient641"
   id="linearGradient2190"
   x1="67.778114"
   y1="71.016434"
   x2="104.75815"
   y2="107.68004"
   gradientTransform="scale(1.0001571,0.9998429)"
   gradientUnits="userSpaceOnUse" /><radialGradient
   inkscape:collect="always"
   xlink:href="#linearGradient608"
   id="radialGradient2192"
   cx="93.844109"
   cy="89.748573"
   fx="93.844109"
   fy="89.748573"
   r="14.205347"
   gradientTransform="scale(0.9547881,1.0473528)"
   gradientUnits="userSpaceOnUse" />
<radialGradient
   inkscape:collect="always"
   xlink:href="#linearGradient608"
   id="radialGradient2454"
   gradientUnits="userSpaceOnUse"
   gradientTransform="matrix(0.9424924,0,0,1.0338651,-46.984201,-58.319797)"
   cx="91.066788"
   cy="89.851685"
   fx="91.066788"
   fy="89.851685"
   r="14.205347" /><linearGradient
   inkscape:collect="always"
   xlink:href="#linearGradient612"
   id="linearGradient2460"
   gradientUnits="userSpaceOnUse"
   gradientTransform="matrix(0.3737772,0,0,0.1148277,-46.724535,-58.643902)"
   x1="234.46304"
   y1="735.4422"
   x2="233.05591"
   y2="480.19824" /></defs><sodipodi:namedview
   id="base"
   inkscape:zoom="5.7622747"
   inkscape:cx="50.906599"
   inkscape:cy="40.607927"
   inkscape:window-width="822"
   inkscape:window-height="700"
   inkscape:window-x="197"
   inkscape:window-y="37"
   inkscape:current-layer="svg602"
   showgrid="false"
   inkscape:window-maximized="0" /><rect
   style="opacity:0.82743363;fill:#ffffff;fill-opacity:0.92920353"
   id="rect2637"
   width="42.865017"
   height="9.5448418"
   x="20.73834"
   y="28.469303"
   rx="7.2771926"
   ry="0.52062774" /><g
   id="g2422"
   transform="translate(-0.5206277,0.3470856)"><g
     transform="translate(0.6941703,-0.1735426)"
     style="opacity:0.7;fill:#800080"
     id="g2464"><rect
       style="font-size:12px;fill:#800080;fill-opacity:1;fill-rule:evenodd"
       id="rect2446"
       width="83.127678"
       height="65.000015"
       x="-0.26069063"
       y="0.047550984"
       ry="9.5005054"
       rx="9.5005054" /><rect
       style="font-size:12px;fill:#800080;fill-opacity:1;fill-rule:evenodd"
       id="rect2448"
       width="78.367561"
       height="60.06572"
       x="1.7308865"
       y="2.0391586"
       ry="6.7028937"
       rx="6.7028937" /><rect
       style="font-size:12px;fill:#800080;fill-opacity:1;fill-rule:evenodd"
       id="rect2450"
       width="78.367561"
       height="24.07522"
       x="1.7308865"
       y="2.0391586"
       ry="7.2771926"
       rx="7.2771926" /></g></g><path
   style="font-size:72px;font-weight:bold;fill:#b3b3b3;stroke-width:1;font-family:Courier"
   d="M 34.605707,47.054801 L 42.136152,39.361656 L 50.112392,47.254054 C 51.697742,48.822731 53.769942,48.908484 55.292462,47.36978 C 56.765882,45.880711 57.035122,43.511353 55.449782,41.942676 L 47.473522,34.050271 L 55.331732,26.10858 C 56.903372,24.520241 56.943932,22.497462 55.408132,20.977807 C 53.921872,19.507173 51.610172,19.282684 50.038532,20.871024 L 42.180322,28.812715 L 34.543074,21.25575 C 32.957732,19.687074 30.55777,19.849867 29.035235,21.388578 C 27.561821,22.877645 27.620354,24.998459 29.205697,26.567136 L 36.843394,34.206362 L 29.312932,41.899528 C 27.74129,43.487867 27.651618,45.560266 29.187426,47.079928 C 30.673685,48.550563 33.034065,48.643141 34.605707,47.054801 z"
   id="path1103"
   sodipodi:nodetypes="ccccccccccccccccc" /><text
   style="font-size:71.07279204999998967px;font-style:normal;font-weight:bold;writing-mode:lr-tb;text-anchor:start;fill:url(#radialGradient2454);fill-opacity:1;stroke:none;stroke-width:1pt;stroke-linecap:butt;stroke-linejoin:miter;stroke-opacity:1;font-family:Courier"
   x="19.654245"
   y="54.475109"
   id="text1097"
   transform="scale(0.9944733,1.0055574)"><tspan
     id="tspan1098"
     style="fill:url(#radialGradient2454)" /></text>




<path
   sodipodi:type="arc"
   style="opacity:0.82743363;fill:#ffffff;fill-opacity:0.92920353"
   id="path2567"
   sodipodi:cx="43.906273"
   sodipodi:cy="38.448002"
   sodipodi:rx="1.2147981"
   sodipodi:ry="0"
   d="M 45.121071,38.448002 A 1.2147981,0 0 1 1 42.691475,38.448002 A 1.2147981,0 0 1 1 45.121071,38.448002 z" /><path
   style="opacity:0.82743363;fill:#800080;fill-opacity:0.92920353"
   d="M 8.4439117,64.710923 C 4.9692948,64.302716 2.0893278,62.007569 0.70377493,58.542534 L 0.28741093,57.501279 L 0.24111393,32.897827 C 0.18999293,5.7306003 0.13821993,7.1186513 1.2840649,4.9357583 C 2.1047058,3.3724003 3.8200178,1.7223903 5.4069168,0.96987132 C 6.1227807,0.63040632 7.1223247,0.26699032 7.6281267,0.16228532 C 8.2767317,0.028021319 18.329208,-0.028085681 41.736164,-0.028085681 C 77.920744,-0.028085681 75.778444,-0.085217681 77.887104,0.93602132 C 80.512504,2.2075143 82.472404,4.8459553 82.975484,7.7860353 C 83.111484,8.5808523 83.153014,15.989162 83.117464,33.118547 L 83.067224,57.327736 L 82.616004,58.486777 C 81.445054,61.494626 79.253904,63.527548 76.125514,64.508555 C 75.351574,64.751246 71.704004,64.783495 42.371484,64.806953 C 24.284011,64.821418 9.0166027,64.778202 8.4439117,64.710921 L 8.4439117,64.710923 z"
   id="path2575"
   inkscape:transform-center-x="7.4623308"
   inkscape:transform-center-y="5.5533625" /><path
   style="opacity:0.82743363;fill:#e3dbdb;fill-opacity:0.92920353"
   d="M -28.36726,57.603127 C -29.148609,57.248302 -29.837542,56.442349 -30.145344,55.523029 C -30.259535,55.181964 -30.342853,53.784517 -30.342853,52.210241 C -30.342853,50.712656 -30.394275,47.951968 -30.457124,46.075376 L -30.571396,42.663388 L -36.26226,42.663388 C -42.434319,42.663388 -43.301539,42.571301 -44.361669,41.803348 C -45.304174,41.1206 -45.703219,40.234273 -45.693379,38.845452 C -45.684477,37.588884 -45.299938,36.659107 -44.45908,35.861049 C -43.426424,34.880955 -43.215769,34.853972 -36.59596,34.853972 L -30.516396,34.853972 L -30.512154,28.910139 C -30.509707,25.483645 -30.432441,22.63556 -30.329714,22.185364 C -29.915978,20.37218 -28.417178,19.235141 -26.440844,19.235141 C -24.618994,19.235141 -23.343499,20.161134 -22.883304,21.817865 C -22.781547,22.184198 -22.708512,25.027138 -22.707948,28.643857 L -22.70698,34.842039 L -16.142787,34.89139 L -9.5786015,34.940744 L -8.8635955,35.414098 C -7.5343515,36.294101 -6.8899685,37.960246 -7.1662735,39.802775 C -7.2623475,40.443423 -7.4532635,40.779179 -8.0987125,41.442596 C -9.2394175,42.615057 -9.5810795,42.663388 -16.728302,42.663388 L -22.70698,42.663388 L -22.70698,48.486989 C -22.70698,52.334989 -22.77538,54.582226 -22.908607,55.111318 C -23.171574,56.155659 -24.419833,57.476002 -25.39689,57.743296 C -26.421735,58.023664 -27.559437,57.969975 -28.36726,57.603127 z"
   id="path2577" /><path
   style="opacity:0.82743363;fill:#f9f9f9;fill-opacity:0.92920353"
   d="M -7.6087756,3.6000642 C -7.4048546,3.4555552 -7.4505366,3.4318692 -7.8196496,3.4907272 C -8.0788016,3.5320512 -8.3130866,3.5049752 -8.3402766,3.4305582 C -8.3674676,3.3561422 -8.5037226,3.2698742 -8.6430616,3.2388532 C -8.7824006,3.2078302 -9.1626296,2.8700752 -9.4880146,2.4882812 C -9.8133986,2.1064882 -10.128915,1.7550642 -10.189156,1.7073402 C -10.249397,1.6596152 -10.321627,1.4643802 -10.349663,1.2734832 C -10.392196,0.98390317 -10.691319,-8.7188898 -10.722833,-10.831112 L -10.732543,-11.481896 L -16.242519,-11.506524 C -19.273007,-11.520067 -21.44012,-11.581064 -21.058326,-11.642071 C -20.490755,-11.732764 -20.650933,-11.771433 -21.936628,-11.854102 C -22.801485,-11.909712 -23.668641,-12.040591 -23.863633,-12.144949 C -24.467193,-12.467965 -25.646479,-13.517285 -25.533225,-13.630539 C -25.47415,-13.689615 -25.497401,-13.738024 -25.584894,-13.738115 C -25.672389,-13.738205 -25.769084,-14.319548 -25.799771,-15.029986 C -25.843087,-16.032719 -25.778031,-16.496976 -25.508983,-17.105207 C -25.158707,-17.897071 -24.199795,-18.975768 -23.738594,-19.096759 C -22.890866,-19.31915 -20.079744,-19.444398 -15.721892,-19.453935 L -10.732543,-19.464855 L -10.689157,-24.19389 C -10.665295,-26.794859 -10.645771,-29.716075 -10.645771,-30.685482 C -10.645771,-31.654889 -10.578834,-32.406528 -10.497023,-32.35579 C -10.415208,-32.305054 -10.404053,-32.439288 -10.472229,-32.65409 C -10.540405,-32.868892 -10.529248,-33.005444 -10.447435,-32.957536 C -10.365625,-32.90963 -10.027266,-33.245402 -9.6955266,-33.703696 C -9.3637876,-34.161991 -9.0514126,-34.527361 -9.0013556,-34.515628 C -8.7978566,-34.467926 -8.1295096,-34.769958 -8.1967156,-34.879253 C -8.3394906,-35.111444 -6.2892496,-35.069768 -5.4264016,-34.82294 C -4.7844626,-34.639308 -4.3584756,-34.365367 -3.8556056,-33.812811 C -3.4761106,-33.39582 -3.1956576,-32.964523 -3.2323756,-32.854369 C -3.2690936,-32.744218 -3.2340576,-32.654274 -3.1545156,-32.654498 C -3.0749746,-32.654722 -3.0199696,-32.010445 -3.0322806,-31.222772 C -3.0526996,-29.916541 -3.0435456,-29.874549 -2.9281816,-30.745122 C -2.8586136,-31.270088 -2.8094956,-28.946752 -2.8190266,-25.582154 L -2.8363546,-19.4647 L -0.31998764,-19.452896 C 1.0640144,-19.446402 4.1044214,-19.403907 6.4364714,-19.358461 L 10.676562,-19.275832 L 11.261401,-18.632789 C 12.17442,-17.628903 12.527215,-16.709191 12.570722,-15.219484 C 12.591736,-14.499819 12.545755,-13.911116 12.468535,-13.911249 C 12.391316,-13.911383 12.353895,-13.852922 12.385377,-13.781335 C 12.47156,-13.585369 10.86167,-12.09725 10.496923,-12.035723 C 9.1007974,-11.80021 6.1321084,-11.671009 1.9527314,-11.663866 L -2.9765686,-11.655439 L -2.8858836,-5.7983768 C -2.8360116,-2.5769928 -2.8537286,-0.37083283 -2.9252576,-0.89579883 C -3.0497606,-1.8095408 -3.0543396,-1.7928558 -3.0326036,-0.50492383 C -3.0201176,0.23502517 -3.0632066,0.84025317 -3.1283596,0.84003117 C -3.1935126,0.83981117 -3.2980336,1.0009802 -3.3606256,1.1981882 C -3.5055486,1.6548072 -4.9389186,3.2780932 -5.0760776,3.1409332 C -5.1327836,3.0842262 -5.1791796,3.1335512 -5.1791796,3.2505412 C -5.1791796,3.3675292 -5.2572736,3.4149852 -5.3527226,3.3559942 C -5.4481706,3.2970042 -5.5262646,3.3329302 -5.5262646,3.4358312 C -5.5262646,3.5515442 -5.7016576,3.5788992 -5.9860056,3.5075332 C -6.3095576,3.4263292 -6.4093396,3.4510522 -6.3228496,3.5909992 C -6.2369196,3.7300302 -6.4510126,3.7890512 -7.0345196,3.7871942 C -7.6718986,3.7851652 -7.8075826,3.7409502 -7.6087756,3.6000642 z"
   id="path2579" /><path
   style="fill:none;fill-rule:evenodd;stroke:#000000;stroke-width:1px;stroke-linecap:butt;stroke-linejoin:miter;stroke-opacity:1"
   d="M -9.024214,62.049791 C -9.0820615,62.107639 -9.139909,62.165487 -9.024214,62.049791 z"
   id="path2601" /><path
   style="fill:#800080;fill-rule:evenodd;stroke:#000000;stroke-width:1px;stroke-linecap:butt;stroke-linejoin:miter;stroke-opacity:1"
   d="M 37.311654,30.638585 C 37.369502,30.638585 37.427349,30.638585 37.311654,30.638585 z"
   id="path2603" /><path
   style="fill:none;fill-rule:evenodd;stroke:#000000;stroke-width:1px;stroke-linecap:butt;stroke-linejoin:miter;stroke-opacity:1"
   d="M -30.369951,22.829169 C -27.51293,22.830333 -22.663277,23.448368 -19.089684,24.043967 C -15.719715,24.605628 -28.967912,22.673387 -30.369951,22.829169 C -30.989642,22.898023 -26.768604,23.176254 -23.428248,23.176254 C -21.047607,23.176254 -16.046941,20.052488 -24.295961,20.052488 C -38.514762,20.052488 -45.198877,19.358317 -27.246185,19.358317 C -26.378472,19.358317 -25.510759,19.358317 -24.643046,19.358317 C -20.6526,19.358317 -16.162209,19.011232 -11.974438,19.011232"
   id="path2607" /><path
   style="fill:none;fill-rule:evenodd;stroke:#000000;stroke-width:1px;stroke-linecap:butt;stroke-linejoin:miter;stroke-opacity:1"
   d="M -16.660087,42.786565 C -16.554269,42.786565 -19.362218,44.695534 -23.775333,44.695534 C -25.383869,44.695534 -26.606591,44.001363 -28.113897,44.001363 C -29.231119,44.001363 -25.989404,44.716525 -24.990131,45.216161 C -23.087987,46.167234 -21.233397,44.521991 -19.610311,44.521991 C -18.395513,44.521991 -17.180715,44.521991 -15.965917,44.521991"
   id="path2609" /><path
   style="fill:none;fill-rule:evenodd;stroke:#000000;stroke-width:1px;stroke-linecap:butt;stroke-linejoin:miter;stroke-opacity:1"
   d="M -66.813892,46.778045 C -66.030743,46.778045 -63.990581,46.083874 -62.475327,46.083874 C -60.392816,46.083874 -58.310305,46.083874 -56.227794,46.083874 C -54.260979,46.083874 -52.294163,46.083874 -50.327347,46.083874"
   id="path2611" /><rect
   style="opacity:0.82743363;fill:#e3dbdb;fill-opacity:0.92920353"
   id="rect2613"
   width="34.187889"
   height="8.3300438"
   x="-41.823761"
   y="8.2515926"
   rx="7.2771926"
   ry="7.2771926" /><path
   sodipodi:type="arc"
   style="opacity:0.82743363;fill:#ffffff;fill-opacity:0.92920353"
   id="path2661"
   sodipodi:cx="41.736988"
   sodipodi:cy="22.308542"
   sodipodi:rx="5.2930484"
   sodipodi:ry="3.4708514"
   d="M 47.030036,22.308542 A 5.2930484,3.4708514 0 1 1 36.44394,22.308542 A 5.2930484,3.4708514 0 1 1 47.030036,22.308542 z"
   transform="translate(46.769726,26.899099)" /><path
   sodipodi:type="arc"
   style="opacity:0.82743363;fill:#ffffff;fill-opacity:0.92920353"
   id="path2663"
   sodipodi:cx="91.804024"
   sodipodi:cy="51.203381"
   sodipodi:rx="2.2560534"
   sodipodi:ry="1.6486545"
   d="M 94.060077,51.203381 A 2.2560534,1.6486545 0 1 1 89.54797,51.203381 A 2.2560534,1.6486545 0 1 1 94.060077,51.203381 z" /><path
   style="font-size:72px;font-weight:bold;fill:#0000ff;stroke-width:1;font-family:Courier"
   d="M 35.737621,47.038059 L 43.268063,39.344914 L 51.244313,47.237312 C 52.829653,48.805989 54.901853,48.891742 56.424383,47.353038 C 57.897793,45.863969 58.167033,43.494611 56.581693,41.925934 L 48.605443,34.033529 L 56.463643,26.091838 C 58.035283,24.503499 58.075843,22.48072 56.540043,20.961065 C 55.053783,19.490431 52.742083,19.265942 51.170443,20.854282 L 43.312243,28.795973 L 35.674988,21.239008 C 34.089646,19.670332 31.689684,19.833125 30.167149,21.371836 C 28.693735,22.860903 28.752268,24.981717 30.337611,26.550394 L 37.975308,34.18962 L 30.444846,41.882786 C 28.873204,43.471125 28.783532,45.543524 30.31934,47.063186 C 31.805599,48.533821 34.165979,48.626399 35.737621,47.038059 z"
   id="path3141"
   sodipodi:nodetypes="ccccccccccccccccc" /></svg>