<?xml version="1.0" encoding="UTF-8" standalone="no"?>
<!-- Created with Inkscape (http://www.inkscape.org/) -->

<svg
   xmlns:dc="http://purl.org/dc/elements/1.1/"
   xmlns:cc="http://creativecommons.org/ns#"
   xmlns:rdf="http://www.w3.org/1999/02/22-rdf-syntax-ns#"
   xmlns:svg="http://www.w3.org/2000/svg"
   xmlns="http://www.w3.org/2000/svg"
   xmlns:xlink="http://www.w3.org/1999/xlink"
   xmlns:sodipodi="http://sodipodi.sourceforge.net/DTD/sodipodi-0.dtd"
   xmlns:inkscape="http://www.inkscape.org/namespaces/inkscape"
   width="86"
   height="95"
   id="svg2"
   sodipodi:version="0.32"
   inkscape:version="0.48.0 r9654"
   sodipodi:docname="lily.svg"
   inkscape:export-filename="/home/nicu/Desktop/potato_guy.png"
   inkscape:export-xdpi="90.000000"
   inkscape:export-ydpi="90.000000"
   version="1.1">
  <defs
     id="defs3">
    <linearGradient
       inkscape:collect="always"
       id="linearGradient14422">
      <stop
         style="stop-color: rgb(0, 0, 0); stop-opacity: 1;"
         offset="0"
         id="stop14424" />
      <stop
         style="stop-color: rgb(0, 0, 0); stop-opacity: 0;"
         offset="1"
         id="stop14426" />
    </linearGradient>
    <linearGradient
       inkscape:collect="always"
       id="linearGradient14414">
      <stop
         style="stop-color: rgb(0, 0, 0); stop-opacity: 1;"
         offset="0"
         id="stop14416" />
      <stop
         style="stop-color: rgb(0, 0, 0); stop-opacity: 0;"
         offset="1"
         id="stop14418" />
    </linearGradient>
    <linearGradient
       id="linearGradient2424">
      <stop
         style="stop-color: rgb(222, 193, 100); stop-opacity: 1;"
         offset="0"
         id="stop2426" />
      <stop
         style="stop-color: rgb(213, 168, 100); stop-opacity: 1;"
         offset="1.0000000"
         id="stop2428" />
    </linearGradient>
    <linearGradient
       inkscape:collect="always"
       xlink:href="#linearGradient2424"
       id="linearGradient7610"
       gradientUnits="userSpaceOnUse"
       gradientTransform="translate(84,5)"
       x1="114"
       y1="112.36218"
       x2="197"
       y2="288.36218" />
    <linearGradient
       inkscape:collect="always"
       xlink:href="#linearGradient14414"
       id="linearGradient14441"
       gradientUnits="userSpaceOnUse"
       x1="359.40097"
       y1="501.27704"
       x2="392.05878"
       y2="543.17145" />
    <linearGradient
       inkscape:collect="always"
       xlink:href="#linearGradient14422"
       id="linearGradient14443"
       gradientUnits="userSpaceOnUse"
       x1="408.05783"
       y1="499.79263"
       x2="448.46774"
       y2="546.3053" />
    <linearGradient
       id="linearGradient912">
      <stop
         id="stop913"
         offset="0.0000000"
         style="stop-color: rgb(255, 255, 255); stop-opacity: 1;" />
      <stop
         id="stop914"
         offset="1.0000000"
         style="stop-color: rgb(255, 255, 255); stop-opacity: 0;" />
    </linearGradient>
    <radialGradient
       inkscape:collect="always"
       xlink:href="#linearGradient912"
       id="radialGradient17463"
       gradientUnits="userSpaceOnUse"
       gradientTransform="scale(1.02248,0.978019)"
       cx="44.699299"
       cy="42.72097"
       fx="44.699299"
       fy="42.72097"
       r="12.239094" />
    <linearGradient
       id="linearGradient5873">
      <stop
         id="stop5875"
         offset="0.0000000"
         style="stop-color: rgb(0, 29, 205); stop-opacity: 1;" />
      <stop
         id="stop5877"
         offset="1.0000000"
         style="stop-color: rgb(0, 12, 93); stop-opacity: 1;" />
    </linearGradient>
    <linearGradient
       id="linearGradient6641">
      <stop
         id="stop6643"
         offset="0.0000000"
         style="stop-color: rgb(205, 205, 205); stop-opacity: 1;" />
      <stop
         id="stop6645"
         offset="1.0000000"
         style="stop-color: rgb(126, 126, 126); stop-opacity: 1;" />
    </linearGradient>
    <linearGradient
       id="linearGradient7409">
      <stop
         id="stop7411"
         offset="0.0000000"
         style="stop-color: rgb(255, 255, 255); stop-opacity: 1;" />
      <stop
         id="stop7413"
         offset="1.0000000"
         style="stop-color: rgb(218, 218, 218); stop-opacity: 1;" />
    </linearGradient>
    <linearGradient
       inkscape:collect="always"
       xlink:href="#linearGradient2411"
       id="linearGradient2230"
       gradientUnits="userSpaceOnUse"
       gradientTransform="matrix(1.66537,-0.592628,0.592628,1.66537,-143.919,-237.259)"
       x1="118.01691"
       y1="432.28888"
       x2="130.0639"
       y2="432.28888" />
    <linearGradient
       id="linearGradient2411">
      <stop
         style="stop-color: rgb(92, 27, 21); stop-opacity: 1;"
         offset="0"
         id="stop2413" />
      <stop
         style="stop-color: rgb(231, 198, 147); stop-opacity: 1;"
         offset="1.0000000"
         id="stop2415" />
    </linearGradient>
    <linearGradient
       inkscape:collect="always"
       xlink:href="#linearGradient2139"
       id="linearGradient2227"
       gradientUnits="userSpaceOnUse"
       gradientTransform="matrix(1.76767,0,0,1.76767,-123.583,-189.357)"
       x1="178.88847"
       y1="247.42438"
       x2="190.73177"
       y2="234.97426" />
    <linearGradient
       id="linearGradient2139">
      <stop
         id="stop2141"
         offset="0.0000000"
         style="stop-color: rgb(148, 159, 78); stop-opacity: 1;" />
      <stop
         style="stop-color: rgb(212, 225, 131); stop-opacity: 1;"
         offset="0.50000000"
         id="stop2145" />
      <stop
         id="stop2143"
         offset="1.0000000"
         style="stop-color: rgb(249, 253, 220); stop-opacity: 1;" />
    </linearGradient>
    <linearGradient
       inkscape:collect="always"
       xlink:href="#linearGradient2103"
       id="linearGradient2224"
       gradientUnits="userSpaceOnUse"
       gradientTransform="matrix(1.76767,0,0,1.76767,-123.583,-189.357)"
       x1="169.38705"
       y1="255.97105"
       x2="192.97676"
       y2="236.31299" />
    <linearGradient
       id="linearGradient2103">
      <stop
         id="stop2105"
         offset="0.0000000"
         style="stop-color: rgb(67, 74, 30); stop-opacity: 1;" />
      <stop
         id="stop2107"
         offset="1.0000000"
         style="stop-color: rgb(244, 250, 189); stop-opacity: 1;" />
    </linearGradient>
    <linearGradient
       inkscape:collect="always"
       xlink:href="#linearGradient2109"
       id="linearGradient2221"
       gradientUnits="userSpaceOnUse"
       gradientTransform="matrix(1.76767,0,0,1.76767,-125.221,-189.357)"
       x1="206.27116"
       y1="330.84174"
       x2="210.35875"
       y2="310.22971" />
    <linearGradient
       id="linearGradient2109">
      <stop
         id="stop2111"
         offset="0.0000000"
         style="stop-color: rgb(67, 74, 30); stop-opacity: 1;" />
      <stop
         id="stop2113"
         offset="1.0000000"
         style="stop-color: rgb(222, 234, 120); stop-opacity: 1;" />
    </linearGradient>
    <linearGradient
       inkscape:collect="always"
       xlink:href="#linearGradient2109"
       id="linearGradient2218"
       gradientUnits="userSpaceOnUse"
       gradientTransform="matrix(1.76767,0,0,1.76767,-123.583,-189.357)"
       x1="234.91397"
       y1="237.52748"
       x2="301.09616"
       y2="221.80101" />
    <linearGradient
       id="linearGradient3132">
      <stop
         id="stop3134"
         offset="0.0000000"
         style="stop-color: rgb(67, 74, 30); stop-opacity: 1;" />
      <stop
         id="stop3136"
         offset="1.0000000"
         style="stop-color: rgb(222, 234, 120); stop-opacity: 1;" />
    </linearGradient>
    <linearGradient
       inkscape:collect="always"
       xlink:href="#linearGradient2157"
       id="linearGradient2215"
       gradientUnits="userSpaceOnUse"
       gradientTransform="matrix(1.76767,0,0,1.76767,-123.583,-189.357)"
       x1="201.57849"
       y1="239.35637"
       x2="242.83888"
       y2="234.28432" />
    <linearGradient
       id="linearGradient2157">
      <stop
         style="stop-color: rgb(148, 159, 78); stop-opacity: 1;"
         offset="0.0000000"
         id="stop2159" />
      <stop
         id="stop2161"
         offset="0.50000000"
         style="stop-color: rgb(212, 225, 131); stop-opacity: 1;" />
      <stop
         style="stop-color: rgb(253, 255, 242); stop-opacity: 1;"
         offset="1.0000000"
         id="stop2163" />
    </linearGradient>
    <linearGradient
       inkscape:collect="always"
       xlink:href="#linearGradient2157"
       id="linearGradient2212"
       gradientUnits="userSpaceOnUse"
       gradientTransform="matrix(1.76767,0,0,1.76767,-123.583,-189.357)"
       x1="268.62442"
       y1="319.47238"
       x2="289.51697"
       y2="253.61783" />
    <linearGradient
       id="linearGradient3144">
      <stop
         style="stop-color: rgb(148, 159, 78); stop-opacity: 1;"
         offset="0.0000000"
         id="stop3146" />
      <stop
         id="stop3148"
         offset="0.50000000"
         style="stop-color: rgb(212, 225, 131); stop-opacity: 1;" />
      <stop
         style="stop-color: rgb(253, 255, 242); stop-opacity: 1;"
         offset="1.0000000"
         id="stop3150" />
    </linearGradient>
    <linearGradient
       inkscape:collect="always"
       xlink:href="#linearGradient2139"
       id="linearGradient2209"
       gradientUnits="userSpaceOnUse"
       gradientTransform="matrix(1.76767,0,0,1.76767,-123.583,-189.357)"
       x1="258.98334"
       y1="326.36765"
       x2="310.05603"
       y2="292.96024" />
    <linearGradient
       id="linearGradient3153">
      <stop
         id="stop3155"
         offset="0.0000000"
         style="stop-color: rgb(148, 159, 78); stop-opacity: 1;" />
      <stop
         style="stop-color: rgb(212, 225, 131); stop-opacity: 1;"
         offset="0.50000000"
         id="stop3157" />
      <stop
         id="stop3159"
         offset="1.0000000"
         style="stop-color: rgb(249, 253, 220); stop-opacity: 1;" />
    </linearGradient>
    <linearGradient
       inkscape:collect="always"
       xlink:href="#linearGradient2157"
       id="linearGradient2206"
       gradientUnits="userSpaceOnUse"
       gradientTransform="matrix(1.76767,0,0,1.76767,-123.583,-189.357)"
       x1="179.02625"
       y1="252.29132"
       x2="209.08774"
       y2="223.45949" />
    <linearGradient
       id="linearGradient3162">
      <stop
         style="stop-color: rgb(148, 159, 78); stop-opacity: 1;"
         offset="0.0000000"
         id="stop3164" />
      <stop
         id="stop3166"
         offset="0.50000000"
         style="stop-color: rgb(212, 225, 131); stop-opacity: 1;" />
      <stop
         style="stop-color: rgb(253, 255, 242); stop-opacity: 1;"
         offset="1.0000000"
         id="stop3168" />
    </linearGradient>
    <linearGradient
       inkscape:collect="always"
       xlink:href="#linearGradient2211"
       id="linearGradient2358"
       gradientUnits="userSpaceOnUse"
       x1="223.82855"
       y1="266.73706"
       x2="255.22733"
       y2="249.04482" />
    <linearGradient
       id="linearGradient2211">
      <stop
         style="stop-color: rgb(195, 196, 54); stop-opacity: 1;"
         offset="0.0000000"
         id="stop2213" />
      <stop
         style="stop-color: rgb(238, 239, 108); stop-opacity: 0;"
         offset="1"
         id="stop2215" />
    </linearGradient>
    <linearGradient
       inkscape:collect="always"
       xlink:href="#linearGradient2246"
       id="linearGradient2360"
       gradientUnits="userSpaceOnUse"
       x1="263.14471"
       y1="229.38672"
       x2="213.94537"
       y2="253.6317" />
    <linearGradient
       id="linearGradient2246">
      <stop
         id="stop2248"
         offset="0.0000000"
         style="stop-color: rgb(255, 255, 255); stop-opacity: 1;" />
      <stop
         id="stop2250"
         offset="1"
         style="stop-color: rgb(188, 184, 57); stop-opacity: 0;" />
    </linearGradient>
    <linearGradient
       inkscape:collect="always"
       xlink:href="#linearGradient2095"
       id="linearGradient2198"
       gradientUnits="userSpaceOnUse"
       gradientTransform="matrix(1.76767,0,0,1.76767,-123.583,-189.357)"
       x1="172.50716"
       y1="353.74036"
       x2="281.86826"
       y2="226.59734" />
    <linearGradient
       id="linearGradient2095">
      <stop
         style="stop-color: rgb(101, 110, 45); stop-opacity: 1;"
         offset="0.0000000"
         id="stop2097" />
      <stop
         style="stop-color: rgb(241, 249, 176); stop-opacity: 1;"
         offset="1.0000000"
         id="stop2099" />
    </linearGradient>
    <linearGradient
       inkscape:collect="always"
       xlink:href="#linearGradient2210"
       id="linearGradient2208"
       x1="223.43185"
       y1="315.53705"
       x2="266.64297"
       y2="326.17712"
       gradientUnits="userSpaceOnUse" />
    <linearGradient
       id="linearGradient2210">
      <stop
         id="stop2212"
         offset="0.0000000"
         style="stop-color: rgb(230, 232, 201); stop-opacity: 0.425926;" />
      <stop
         id="stop2214"
         offset="1"
         style="stop-color: rgb(230, 232, 201); stop-opacity: 0;" />
    </linearGradient>
    <linearGradient
       inkscape:collect="always"
       xlink:href="#linearGradient2246"
       id="linearGradient2190"
       gradientUnits="userSpaceOnUse"
       gradientTransform="matrix(1.76767,0,0,1.76767,-118.95,-178.932)"
       x1="219.18752"
       y1="252.93388"
       x2="204.77161"
       y2="288.31842" />
    <linearGradient
       id="linearGradient3187">
      <stop
         id="stop3189"
         offset="0.0000000"
         style="stop-color: rgb(255, 255, 255); stop-opacity: 1;" />
      <stop
         id="stop3191"
         offset="1"
         style="stop-color: rgb(188, 184, 57); stop-opacity: 0;" />
    </linearGradient>
    <linearGradient
       inkscape:collect="always"
       xlink:href="#linearGradient2246"
       id="linearGradient2187"
       gradientUnits="userSpaceOnUse"
       gradientTransform="matrix(1.76767,0,0,1.76767,-128.217,-187.04)"
       x1="251.78502"
       y1="252.27863"
       x2="245.88219"
       y2="282.74863" />
    <linearGradient
       id="linearGradient3194">
      <stop
         id="stop3196"
         offset="0.0000000"
         style="stop-color: rgb(255, 255, 255); stop-opacity: 1;" />
      <stop
         id="stop3198"
         offset="1"
         style="stop-color: rgb(188, 184, 57); stop-opacity: 0;" />
    </linearGradient>
    <linearGradient
       inkscape:collect="always"
       xlink:href="#linearGradient2246"
       id="linearGradient2184"
       gradientUnits="userSpaceOnUse"
       gradientTransform="matrix(1.76767,0,0,1.76767,-125.9,-190.515)"
       x1="206.78537"
       y1="307.63101"
       x2="288.57275"
       y2="299.76779" />
    <linearGradient
       id="linearGradient3201">
      <stop
         id="stop3203"
         offset="0.0000000"
         style="stop-color: rgb(255, 255, 255); stop-opacity: 1;" />
      <stop
         id="stop3205"
         offset="1"
         style="stop-color: rgb(188, 184, 57); stop-opacity: 0;" />
    </linearGradient>
    <linearGradient
       inkscape:collect="always"
       xlink:href="#linearGradient2246"
       id="linearGradient2180"
       gradientUnits="userSpaceOnUse"
       gradientTransform="matrix(1.76767,0,0,1.76767,-127.058,-190.515)"
       x1="259.20035"
       y1="276.98492"
       x2="248.67464"
       y2="299.85248" />
    <linearGradient
       id="linearGradient3208">
      <stop
         id="stop3210"
         offset="0.0000000"
         style="stop-color: rgb(255, 255, 255); stop-opacity: 1;" />
      <stop
         id="stop3212"
         offset="1"
         style="stop-color: rgb(188, 184, 57); stop-opacity: 0;" />
    </linearGradient>
    <linearGradient
       inkscape:collect="always"
       xlink:href="#linearGradient2109"
       id="linearGradient2177"
       gradientUnits="userSpaceOnUse"
       gradientTransform="matrix(1.76767,0,0,1.76767,-123.583,-189.357)"
       x1="214.35915"
       y1="343.08273"
       x2="218.62119"
       y2="323.42465" />
    <linearGradient
       id="linearGradient3215">
      <stop
         id="stop3217"
         offset="0.0000000"
         style="stop-color: rgb(67, 74, 30); stop-opacity: 1;" />
      <stop
         id="stop3219"
         offset="1.0000000"
         style="stop-color: rgb(222, 234, 120); stop-opacity: 1;" />
    </linearGradient>
    <linearGradient
       inkscape:collect="always"
       xlink:href="#linearGradient2109"
       id="linearGradient2174"
       gradientUnits="userSpaceOnUse"
       gradientTransform="matrix(1.76767,0,0,1.76767,-125.9,-187.04)"
       x1="297.49219"
       y1="323.0477"
       x2="287.94507"
       y2="307.32123" />
    <linearGradient
       id="linearGradient3222">
      <stop
         id="stop3224"
         offset="0.0000000"
         style="stop-color: rgb(67, 74, 30); stop-opacity: 1;" />
      <stop
         id="stop3226"
         offset="1.0000000"
         style="stop-color: rgb(222, 234, 120); stop-opacity: 1;" />
    </linearGradient>
    <linearGradient
       inkscape:collect="always"
       xlink:href="#linearGradient2199"
       id="linearGradient2750"
       gradientUnits="userSpaceOnUse"
       x1="307.77158"
       y1="348.36035"
       x2="290.96765"
       y2="94.694733" />
    <linearGradient
       inkscape:collect="always"
       id="linearGradient2199">
      <stop
         style="stop-color: rgb(0, 0, 0); stop-opacity: 1;"
         offset="0"
         id="stop2201" />
      <stop
         style="stop-color: rgb(0, 0, 0); stop-opacity: 0;"
         offset="1"
         id="stop2203" />
    </linearGradient>
    <linearGradient
       inkscape:collect="always"
       xlink:href="#linearGradient2188"
       id="linearGradient2245"
       x1="169.1572"
       y1="285.04037"
       x2="262.87698"
       y2="365.3429"
       gradientUnits="userSpaceOnUse" />
    <linearGradient
       id="linearGradient2188">
      <stop
         style="stop-color: rgb(255, 255, 255); stop-opacity: 0.351852;"
         offset="0.0000000"
         id="stop2190" />
      <stop
         style="stop-color: rgb(188, 184, 57); stop-opacity: 0;"
         offset="1"
         id="stop2192" />
    </linearGradient>
    <linearGradient
       inkscape:collect="always"
       xlink:href="#linearGradient2154"
       id="linearGradient2160"
       x1="442.92444"
       y1="299.87665"
       x2="424.87729"
       y2="285.1683"
       gradientUnits="userSpaceOnUse" />
    <linearGradient
       id="linearGradient2154">
      <stop
         style="stop-color: rgb(160, 153, 38); stop-opacity: 1;"
         offset="0.0000000"
         id="stop2156" />
      <stop
         style="stop-color: rgb(105, 101, 27); stop-opacity: 0;"
         offset="1.0000000"
         id="stop2158" />
    </linearGradient>
    <linearGradient
       inkscape:collect="always"
       xlink:href="#linearGradient2157"
       id="linearGradient2193"
       gradientUnits="userSpaceOnUse"
       gradientTransform="matrix(1.76767,0,0,1.76767,-123.583,-189.357)"
       x1="211.97955"
       y1="249.3299"
       x2="198.53685"
       y2="264.12857" />
    <linearGradient
       id="linearGradient3241">
      <stop
         style="stop-color: rgb(148, 159, 78); stop-opacity: 1;"
         offset="0.0000000"
         id="stop3243" />
      <stop
         id="stop3245"
         offset="0.50000000"
         style="stop-color: rgb(212, 225, 131); stop-opacity: 1;" />
      <stop
         style="stop-color: rgb(253, 255, 242); stop-opacity: 1;"
         offset="1.0000000"
         id="stop3247" />
    </linearGradient>
    <linearGradient
       inkscape:collect="always"
       xlink:href="#linearGradient2210"
       id="linearGradient2225"
       x1="246.44319"
       y1="286.62564"
       x2="274.60806"
       y2="295.23157"
       gradientUnits="userSpaceOnUse"
       spreadMethod="pad" />
    <linearGradient
       id="linearGradient3250">
      <stop
         id="stop3252"
         offset="0.0000000"
         style="stop-color: rgb(230, 232, 201); stop-opacity: 0.425926;" />
      <stop
         id="stop3254"
         offset="1"
         style="stop-color: rgb(230, 232, 201); stop-opacity: 0;" />
    </linearGradient>
    <linearGradient
       inkscape:collect="always"
       xlink:href="#linearGradient2246"
       id="linearGradient2261"
       x1="295.70102"
       y1="201.29819"
       x2="271.29471"
       y2="240.68681"
       gradientUnits="userSpaceOnUse" />
    <linearGradient
       id="linearGradient3257">
      <stop
         id="stop3259"
         offset="0.0000000"
         style="stop-color: rgb(255, 255, 255); stop-opacity: 1;" />
      <stop
         id="stop3261"
         offset="1"
         style="stop-color: rgb(188, 184, 57); stop-opacity: 0;" />
    </linearGradient>
    <linearGradient
       inkscape:collect="always"
       xlink:href="#linearGradient2211"
       id="linearGradient2277"
       x1="266.94077"
       y1="233.66713"
       x2="333.59772"
       y2="240.86482"
       gradientUnits="userSpaceOnUse" />
    <linearGradient
       id="linearGradient3264">
      <stop
         style="stop-color: rgb(195, 196, 54); stop-opacity: 1;"
         offset="0.0000000"
         id="stop3266" />
      <stop
         style="stop-color: rgb(238, 239, 108); stop-opacity: 0;"
         offset="1"
         id="stop3268" />
    </linearGradient>
    <linearGradient
       inkscape:collect="always"
       xlink:href="#linearGradient2263"
       id="linearGradient2289"
       x1="259.47806"
       y1="278.8197"
       x2="234.12964"
       y2="268.33612"
       gradientUnits="userSpaceOnUse" />
    <linearGradient
       id="linearGradient2263">
      <stop
         style=""
         offset="0.0000000"
         id="stop2265" />
      <stop
         style="stop-color: rgb(188, 184, 57); stop-opacity: 0;"
         offset="1"
         id="stop2267" />
    </linearGradient>
    <linearGradient
       inkscape:collect="always"
       xlink:href="#linearGradient2188"
       id="linearGradient2299"
       x1="221.89732"
       y1="238.42915"
       x2="242.32558"
       y2="257.44046"
       gradientUnits="userSpaceOnUse" />
    <linearGradient
       id="linearGradient3275">
      <stop
         style="stop-color: rgb(255, 255, 255); stop-opacity: 0.351852;"
         offset="0.0000000"
         id="stop3277" />
      <stop
         style="stop-color: rgb(188, 184, 57); stop-opacity: 0;"
         offset="1"
         id="stop3279" />
    </linearGradient>
    <linearGradient
       inkscape:collect="always"
       xlink:href="#linearGradient2319"
       id="linearGradient2317"
       x1="265.21158"
       y1="253.50258"
       x2="271.08725"
       y2="253.50258"
       gradientUnits="userSpaceOnUse" />
    <linearGradient
       id="linearGradient2319">
      <stop
         id="stop2321"
         offset="0.0000000"
         style="stop-color: rgb(237, 237, 61); stop-opacity: 1;" />
      <stop
         id="stop2323"
         offset="1.0000000"
         style="stop-color: rgb(171, 178, 44); stop-opacity: 0;" />
    </linearGradient>
    <linearGradient
       inkscape:collect="always"
       xlink:href="#linearGradient2319"
       id="linearGradient2327"
       gradientUnits="userSpaceOnUse"
       x1="265.21158"
       y1="253.50258"
       x2="271.08725"
       y2="253.50258"
       gradientTransform="translate(15.0473,-7.0811)" />
    <linearGradient
       id="linearGradient3286">
      <stop
         id="stop3288"
         offset="0.0000000"
         style="stop-color: rgb(237, 237, 61); stop-opacity: 1;" />
      <stop
         id="stop3290"
         offset="1.0000000"
         style="stop-color: rgb(171, 178, 44); stop-opacity: 0;" />
    </linearGradient>
    <linearGradient
       inkscape:collect="always"
       xlink:href="#linearGradient2319"
       id="linearGradient2331"
       gradientUnits="userSpaceOnUse"
       gradientTransform="translate(19.473,-5.31083)"
       x1="265.21158"
       y1="253.50258"
       x2="271.08725"
       y2="253.50258" />
    <linearGradient
       id="linearGradient3293">
      <stop
         id="stop3295"
         offset="0.0000000"
         style="stop-color: rgb(237, 237, 61); stop-opacity: 1;" />
      <stop
         id="stop3297"
         offset="1.0000000"
         style="stop-color: rgb(171, 178, 44); stop-opacity: 0;" />
    </linearGradient>
    <linearGradient
       inkscape:collect="always"
       xlink:href="#linearGradient2319"
       id="linearGradient2335"
       gradientUnits="userSpaceOnUse"
       gradientTransform="translate(-5.31083,1.77027)"
       x1="264.75015"
       y1="255.25926"
       x2="271.08725"
       y2="253.50258" />
    <linearGradient
       id="linearGradient3300">
      <stop
         id="stop3302"
         offset="0.0000000"
         style="stop-color: rgb(237, 237, 61); stop-opacity: 1;" />
      <stop
         id="stop3304"
         offset="1.0000000"
         style="stop-color: rgb(171, 178, 44); stop-opacity: 0;" />
    </linearGradient>
    <linearGradient
       inkscape:collect="always"
       xlink:href="#linearGradient2319"
       id="linearGradient2339"
       gradientUnits="userSpaceOnUse"
       gradientTransform="translate(6.19596,1.77027)"
       x1="266.93277"
       y1="253.50258"
       x2="271.08725"
       y2="253.50258" />
    <linearGradient
       id="linearGradient3307">
      <stop
         id="stop3309"
         offset="0.0000000"
         style="stop-color: rgb(237, 237, 61); stop-opacity: 1;" />
      <stop
         id="stop3311"
         offset="1.0000000"
         style="stop-color: rgb(171, 178, 44); stop-opacity: 0;" />
    </linearGradient>
    <linearGradient
       y2="253.50258"
       x2="271.08725"
       y1="253.50258"
       x1="266.93277"
       gradientTransform="translate(6.19596,1.77027)"
       gradientUnits="userSpaceOnUse"
       id="linearGradient3357"
       xlink:href="#linearGradient2319"
       inkscape:collect="always" />
  </defs>
  <sodipodi:namedview
     id="base"
     pagecolor="#ffffff"
     bordercolor="#666666"
     borderopacity="1.0"
     inkscape:pageopacity="0.0"
     inkscape:pageshadow="2"
     inkscape:zoom="1"
     inkscape:cx="252.66113"
     inkscape:cy="75.159642"
     inkscape:document-units="px"
     inkscape:current-layer="layer1"
     inkscape:window-width="1152"
     inkscape:window-height="700"
     inkscape:window-x="0"
     inkscape:window-y="37"
     showguides="true"
     inkscape:guide-bbox="true"
     showgrid="false"
     inkscape:window-maximized="0" />
  <g
     inkscape:label="Layer 1"
     inkscape:groupmode="layer"
     id="layer1"
     transform="translate(0,-33)">
    <g
       id="g1635"
       transform="matrix(0.2575903,0,0,0.25496778,-35.776527,10.777323)">
      <path
         sodipodi:nodetypes="ccccc"
         id="rect1665"
         d="m 302.219,394.20232 20.06269,-7.13938 8.17329,28.2764 c -12.52917,3.2143 -7.53351,30.21232 -2.53785,44.69259 L 302.219,394.20232 z"
         style="fill:url(#linearGradient2230);fill-opacity:1;fill-rule:nonzero;stroke:none"
         inkscape:connector-curvature="0" />
      <path
         sodipodi:nodetypes="ccssc"
         id="path2129"
         d="m 183.36615,213.73169 33.59069,15.0579 c 0,0 4.20749,18.46372 3.47491,24.32431 -1.1583,9.26639 -14.13933,-0.69873 -23.166,-10.4247 -6.82961,-7.35873 -12.7413,-28.95751 -13.8996,-28.95751 z"
         style="fill:url(#linearGradient2227);fill-opacity:1;fill-rule:evenodd;stroke:none"
         inkscape:connector-curvature="0" />
      <path
         sodipodi:nodetypes="ccscsc"
         id="path2117"
         d="m 175.83719,251.95559 4.63321,-38.2239 c 0,0 9.93645,-1.90438 13.8996,19.69109 1.7141,9.34016 26.64091,22.0077 26.64091,22.0077 0,0 -2.3166,11.58302 -3.47491,15.05791 -1.1583,3.4749 -41.69881,-19.6911 -41.69881,-18.5328 z"
         style="fill:url(#linearGradient2224);fill-opacity:1;fill-rule:evenodd;stroke:none"
         inkscape:connector-curvature="0" />
      <path
         sodipodi:nodetypes="csssc"
         id="path2441"
         d="m 307.23265,393.98695 c -14.74275,-11.4666 -46.68539,-28.66646 -81.90419,-33.58071 -35.47942,-4.95061 -66.3577,3.47877 -57.33294,16.38083 8.96983,12.82353 61.31789,17.09074 100.74215,26.20935 22.40025,5.18104 37.67595,-4.09522 38.49498,-9.00947 z"
         style="fill:url(#linearGradient2221);fill-opacity:1;fill-rule:evenodd;stroke:none"
         inkscape:connector-curvature="0" />
      <path
         id="path2187"
         d="m 356.53202,213.15253 c 0,0 19.69112,-4.63319 28.95751,-15.05791 9.2664,-10.4247 16.21621,-27.79919 27.79921,-26.6409 11.583,1.1583 17.37449,31.27411 17.37449,41.69881 0,10.4247 -35.9073,45.17371 -52.12351,44.01541 -16.21619,-1.1583 -20.84939,-44.01541 -22.0077,-44.01541 z"
         style="fill:url(#linearGradient2218);fill-opacity:1;fill-rule:evenodd;stroke:none"
         inkscape:connector-curvature="0" />
      <path
         sodipodi:nodetypes="cscsssc"
         id="path2165"
         d="m 254.02247,187.66992 c 0,0 10.42469,-57.915 30.11579,-61.3899 19.69111,-3.47491 35.9073,45.1737 35.9073,45.1737 0,0 17.37451,-18.5328 31.27411,-18.5328 13.89961,0 25.48261,92.66402 25.48261,97.29721 0,4.63321 -0.91956,59.71679 -5.79151,59.07332 -122.77981,-16.21621 -115.83,-119.30492 -116.9883,-121.62153 z"
         style="fill:url(#linearGradient2215);fill-opacity:1;fill-rule:evenodd;stroke:none"
         inkscape:connector-curvature="0" />
      <path
         sodipodi:nodetypes="cssssc"
         id="path2175"
         d="m 346.10733,284.38799 c 0,0 31.27411,-40.54051 45.17369,-53.28181 13.89961,-12.7413 46.2182,-37.95922 57.91502,-25.4826 17.37451,18.53281 -4.63321,69.49801 -32.43241,106.56362 -27.79919,37.0656 -52.12349,54.44011 -54.4401,54.44011 -2.3166,0 -17.37451,-82.23932 -16.2162,-82.23932 z"
         style="fill:url(#linearGradient2212);fill-opacity:1;fill-rule:evenodd;stroke:none"
         inkscape:connector-curvature="0" />
      <path
         sodipodi:nodetypes="csssc"
         id="path2419"
         d="m 315.83261,397.91835 c 0,0 8.21169,15.739 35.6283,3.43998 32.75548,-14.69401 68.39961,-56.90345 78.62802,-65.52335 6.25019,-5.26729 1.6381,-27.84743 -36.03784,3.27616 -9.1069,7.52309 -79.85657,40.78829 -78.21848,58.80721 z"
         style="fill:url(#linearGradient2209);fill-opacity:1;fill-rule:evenodd;stroke:none"
         inkscape:connector-curvature="0" />
      <path
         sodipodi:nodetypes="csssssc"
         id="path2147"
         d="m 219.85261,254.85134 c -3.47491,-10.4247 -5.79151,-84.55591 8.10809,-88.03081 13.89961,-3.47491 44.01542,25.4826 46.33202,30.11581 1.15829,2.31659 1.61727,3.90105 1.93967,3.27266 1.13709,-2.21635 -6.57288,7.15204 -7.73118,9.46864 -2.3166,4.63319 -25.4826,40.54049 -23.166,52.12349 2.31661,11.58302 -25.4826,-6.94979 -25.4826,-6.94979 z"
         style="fill:url(#linearGradient2206);fill-opacity:1;fill-rule:evenodd;stroke:none"
         inkscape:connector-curvature="0" />
      <g
         transform="matrix(1.76767,0,0,1.76767,-123.583,-189.357)"
         id="g2219">
        <path
           style="fill:none;stroke:#000000;stroke-width:0.25pt;stroke-linecap:butt;stroke-linejoin:miter;stroke-opacity:1"
           d="m 272.26431,227.70602 0,0 z"
           id="path2189"
           inkscape:connector-curvature="0" />
        <path
           style="fill:#eeef6c;fill-opacity:1;fill-rule:evenodd;stroke:none"
           d="m 194.61492,247.69173 c 0,0 -2.29344,-6.22506 0.32764,-7.53559 2.62107,-1.31054 12.45011,4.58688 14.41592,4.58688 1.9658,0 0.65527,-14.41592 5.24215,-17.037 4.58688,-2.62107 10.48431,0 14.41592,3.27635 3.93161,3.27634 4.58688,5.24215 4.58688,5.24215 0,0 -1.9658,-5.24215 5.24216,-7.20796 7.20796,-1.96581 11.79484,0.65527 14.41592,4.58688 2.62107,3.93162 5.24215,21.62388 5.24215,21.62388 0,0 0.65527,7.86323 0.65527,9.82904 0,1.96581 -47.83465,9.17377 -51.11099,5.24215 -3.27635,-3.93161 -13.76065,-22.27915 -13.43302,-22.60678 z"
           id="path2199"
           inkscape:connector-curvature="0" />
        <path
           id="path2201"
           d="m 194.61492,247.69173 c 0,0 -2.29344,-6.22506 0.32764,-7.53559 2.62107,-1.31054 12.45011,4.58688 14.41592,4.58688 1.9658,0 0.65527,-14.41592 5.24215,-17.037 4.58688,-2.62107 10.48431,0 14.41592,3.27635 3.93161,3.27634 4.58688,5.24215 4.58688,5.24215 0,0 -1.9658,-5.24215 5.24216,-7.20796 7.20796,-1.96581 11.79484,0.65527 14.41592,4.58688 2.62107,3.93162 5.24215,21.62388 5.24215,21.62388 0,0 0.65527,7.86323 0.65527,9.82904 0,1.96581 -47.83465,9.17377 -51.11099,5.24215 -3.27635,-3.93161 -13.76065,-22.27915 -13.43302,-22.60678 z"
           style="fill:url(#linearGradient2358);fill-opacity:1;fill-rule:evenodd;stroke:none"
           inkscape:connector-curvature="0" />
        <path
           style="fill:url(#linearGradient2360);fill-opacity:1;fill-rule:evenodd;stroke:none"
           d="m 194.61492,247.69173 c 0,0 -2.29344,-6.22506 0.32764,-7.53559 2.62107,-1.31054 12.45011,4.58688 14.41592,4.58688 1.9658,0 0.65527,-14.41592 5.24215,-17.037 4.58688,-2.62107 10.48431,0 14.41592,3.27635 3.93161,3.27634 4.58688,5.24215 4.58688,5.24215 0,0 -1.9658,-5.24215 5.24216,-7.20796 7.20796,-1.96581 11.79484,0.65527 14.41592,4.58688 2.62107,3.93162 5.24215,21.62388 5.24215,21.62388 0,0 0.65527,7.86323 0.65527,9.82904 0,1.96581 -47.83465,9.17377 -51.11099,5.24215 -3.27635,-3.93161 -13.76065,-22.27915 -13.43302,-22.60678 z"
           id="path2308"
           inkscape:connector-curvature="0" />
      </g>
      <path
         sodipodi:nodetypes="cscscssscccsssc"
         id="path1359"
         d="m 305.56682,393.84736 c -34.749,-5.79149 -74.91169,-31.52866 -93.82232,-48.64861 -24.99491,-22.62809 -52.12351,-98.45551 -52.12351,-98.45551 0,0 12.09075,-12.08609 22.25477,-6.03856 20.52123,12.20999 36.81855,22.25475 36.81855,22.25475 0,0 4.81497,36.60386 12.7413,31.27412 11.65404,-7.8363 6.94979,-16.21621 12.7413,-18.53281 5.48376,-2.19351 30.44743,-4.04033 39.38221,-10.4247 4.78478,-3.41898 -2.31661,-16.21621 -2.31661,-16.21621 l 17.37451,4.63321 6.9498,-9.2664 c 0,0 11.583,17.37449 20.84939,22.0077 9.26642,4.63321 11.58302,-15.05791 24.32432,-13.8996 12.7413,1.1583 36.55128,64.34133 23.166,91.50571 -21.78145,44.20376 -68.33971,50.96521 -68.33971,49.80691 z"
         style="fill:url(#linearGradient2198);fill-opacity:1;fill-rule:evenodd;stroke:none"
         inkscape:connector-curvature="0" />
      <path
         sodipodi:nodetypes="ccscssc"
         id="path2176"
         d="m 222.50279,289.09313 28.16491,-15.02128 c 0,0 3.34766,20.90954 6.88475,34.73672 6.45163,25.22071 9.54478,33.79789 9.54478,33.79789 0,0 1.26202,30.79936 1.09529,30.66846 -22.63363,-17.76973 -33.64409,-44.12112 -36.61437,-52.41803 -2.08468,-5.82314 -9.38831,-31.92023 -9.07536,-31.76376 z"
         style="fill:url(#linearGradient2208);fill-opacity:1;fill-rule:evenodd;stroke:none"
         inkscape:connector-curvature="0" />
      <path
         sodipodi:nodetypes="cssscssccsssc"
         id="path2224"
         d="m 253.44331,253.69304 c 3.76448,-3.18533 6.14055,4.94281 4.95003,-0.97524 -3.02969,-15.04726 5.902,0.71719 6.1915,-0.58189 0.62818,-2.81878 0.1599,-5.86528 0.86459,-7.89414 0.12709,-0.36589 3.05178,-4.44834 3.05178,-4.44834 0,0 0.93702,13.3014 3.25363,13.3014 1.1583,0 0.52991,-7.38709 2.26736,-6.80794 1.73744,0.57915 6.06201,6.24785 6.06201,6.24785 l 1.1583,-22.0077 c 0,0 6.9498,11.583 9.2664,19.69109 2.3166,8.10811 -5.79149,16.21621 -12.7413,16.21621 -6.94979,0 -10.4247,2.3166 -16.21619,2.3166 -5.79151,0 -8.10811,-15.0579 -8.10811,-15.0579 z"
         style="fill:#bcb839;fill-opacity:1;fill-rule:evenodd;stroke:none"
         inkscape:connector-curvature="0" />
      <path
         sodipodi:nodetypes="cscsscssc"
         id="path2236"
         d="m 251.70586,250.21813 c -1.1583,8.10811 -3.4749,17.37451 0,23.166 3.47491,5.79151 15.05791,13.89961 15.05791,13.89961 0,0 -1.1583,-2.31661 2.3166,-5.7915 3.47491,-3.4749 11.583,-3.4749 17.37449,-5.7915 5.79151,-2.31661 -2.31658,-16.21621 -2.31658,-16.21621 0,0 -8.10812,0 -11.583,4.63321 -3.47491,4.6332 -3.47491,3.4749 -9.26642,1.1583 -5.79149,-2.31659 -11.583,-15.05791 -11.583,-15.05791 z"
         style="fill:url(#linearGradient2190);fill-opacity:1;fill-rule:evenodd;stroke:none"
         inkscape:connector-curvature="0" />
      <path
         sodipodi:nodetypes="cccscscssc"
         id="path2252"
         d="m 296.87956,246.74324 c -5.79151,0 -11.583,17.37451 -11.583,17.37451 l 9.2664,-6.94979 c 0,0 8.29256,3.63055 11.93379,2.81962 4.16071,-0.92662 1.96581,-7.45284 1.96581,-7.45284 0,0 6.94979,3.4749 10.4247,11.583 3.47491,8.10811 3.47491,20.84941 3.47491,20.84941 0,0 8.10809,-11.583 8.10809,-18.53281 0,-6.94979 -12.7413,-15.05791 -17.37449,-17.37449 -4.63321,-2.31661 -16.21621,-2.31661 -16.21621,-2.31661 z"
         style="fill:url(#linearGradient2187);fill-opacity:1;fill-rule:evenodd;stroke:none"
         inkscape:connector-curvature="0" />
      <path
         sodipodi:nodetypes="csssssssc"
         id="path2272"
         d="m 291.66721,293.07524 c 0,0 -9.26639,3.47491 -13.8996,10.4247 -4.63321,6.94981 -16.21621,54.44012 -11.583,64.86481 4.63321,10.4247 16.21621,25.48261 27.79921,25.48261 11.583,0 27.7992,-2.89575 37.0656,-6.9498 9.2664,-4.05406 19.69109,-16.2162 23.166,-31.27411 3.47491,-15.0579 -2.3166,-38.2239 -10.4247,-47.4903 -8.10809,-9.26641 -24.3243,-19.69109 -30.11581,-18.53279 -5.79149,1.15828 -20.8494,1.15828 -22.0077,3.47488 z"
         style="fill:url(#linearGradient2184);fill-opacity:1;fill-rule:evenodd;stroke:none"
         inkscape:connector-curvature="0" />
      <path
         sodipodi:nodetypes="cscsscsc"
         id="path2262"
         d="m 302.67109,290.75864 c 6.94979,-3.4749 20.60588,-3.25605 28.95749,5.79151 13.89962,15.05789 6.94981,35.9073 6.94981,35.9073 0,0 -10.4247,-20.84941 -17.37451,-26.6409 -6.94979,-5.79151 -15.0579,-12.74131 -18.53279,-10.4247 -3.47491,2.3166 -3.47491,12.7413 -3.47491,12.7413 0,0 -6.8213,-10.77611 -4.6332,-13.8996 1.19038,-1.69927 3.4749,-1.15831 8.10811,-3.47491 z"
         style="fill:url(#linearGradient2180);fill-opacity:1;fill-rule:evenodd;stroke:none"
         inkscape:connector-curvature="0" />
      <path
         sodipodi:nodetypes="csszsssc"
         id="path2282"
         d="m 171.07903,365.65595 c 1.48648,2.06666 -3.92908,11.39607 19.23693,17.18757 11.583,2.89575 42.89986,12.04408 58.72812,15.73429 37.27017,8.68918 51.71668,0.84159 51.54626,1.60301 -0.11678,0.52178 -15.29378,9.30359 -31.50999,11.62019 -16.21619,2.3166 -85.13504,-19.11195 -95.55976,-24.90345 -10.4247,-5.7915 -8.50084,-12.33859 -6.94979,-16.2162 2.3166,-5.79151 4.16377,-4.77444 4.50823,-5.02541 z"
         style="fill:url(#linearGradient2177);fill-opacity:1;fill-rule:evenodd;stroke:none"
         inkscape:connector-curvature="0" />
      <path
         sodipodi:nodetypes="cssssss"
         id="path2292"
         d="m 323.66691,404.38871 c 8.6489,-3.27842 20.74475,-2.65177 36.04267,-9.43872 15.29792,-6.78694 36.01643,-26.44531 38.21816,-28.36486 16.72359,-14.58023 34.63563,-37.52999 34.57231,-37.12278 -1.59661,10.26712 0.81904,5.99023 -5.31172,22.68621 -3.43457,9.35341 -34.16832,34.44688 -47.49031,42.8571 -18.31109,11.55985 -56.98565,9.74488 -56.03111,9.38305 z"
         style="fill:url(#linearGradient2174);fill-opacity:1;fill-rule:evenodd;stroke:none"
         inkscape:connector-curvature="0" />
      <path
         sodipodi:nodetypes="csscssssscssssssssscssssssssssscsssssssssssssccsssssssssssssssssscsssscssssssscssssscssccsscscssssscscssssssscssscssssscscsssssssssssssssssssssssssscccsssssssssssssssssscssscsssssssssssssssssssssssscscssssscscscssc"
         id="path2312"
         d="m 282.34375,126.8125 c -3.84933,0.317 -7.2939,3.91987 -10.46875,8.9375 -3.17485,5.01763 -6.08051,11.54597 -8.53125,18.03125 -4.56659,12.08437 -7.32351,23.11165 -7.71875,24.6875 -0.93388,-1.08851 -3.92205,-4.45788 -8.84375,-7.75 -5.77495,-3.86285 -13.60926,-6.91111 -21.40625,-3.3125 -1.45001,0.66924 -2.54529,2.19417 -3.46875,4.28125 -0.92346,2.08708 -1.65257,4.77366 -2.28125,7.84375 -1.25737,6.14018 -2.01787,13.86483 -2.46875,21.4375 -0.84502,14.19233 -0.62501,26.89599 -0.59375,28.5625 -1.29245,-0.81895 -7.18977,-4.51981 -14.5625,-8.40625 -4.1111,-2.16711 -8.45256,-4.25053 -12.25,-5.625 -3.79744,-1.37447 -6.99609,-2.11664 -9.15625,-1.28125 -0.35666,0.13793 -0.57945,0.40034 -0.75,0.6875 -0.17055,0.28716 -0.31384,0.6083 -0.4375,1 -0.24732,0.78341 -0.44951,1.79435 -0.625,2.96875 -0.35098,2.3488 -0.59347,5.34153 -0.8125,8.3125 -0.21903,2.97097 -0.40432,5.9221 -0.625,8.09375 -0.11034,1.08582 -0.21692,1.97463 -0.34375,2.5625 -0.0538,0.24944 -0.11424,0.42258 -0.15625,0.53125 -3.74014,-0.005 -8.05722,1.68194 -11.53125,3.53125 -1.78403,0.94968 -3.34253,1.94048 -4.46875,2.78125 -0.56311,0.42039 -1.0085,0.7878 -1.34375,1.125 -0.16763,0.1686 -0.29398,0.33551 -0.40625,0.5 -0.11227,0.16449 -0.25,0.31574 -0.25,0.625 0,0.4684 0.15411,0.99164 0.40625,1.8125 0.25214,0.82086 0.62096,1.87105 1.09375,3.15625 0.94557,2.5704 2.33063,6.02549 4.03125,10.09375 3.40125,8.13653 8.10448,18.739 13.4375,29.71875 5.33302,10.97975 11.28519,22.33774 17.09375,31.9375 5.80856,9.59976 11.45379,17.4517 16.375,21.5 9.24924,7.60861 17.49591,13.7939 19.5,15.3125 -3.04056,-0.84484 -9.90298,-2.51615 -22.3125,-2.46875 -7.89136,0.0301 -17.36248,0.89314 -25.28125,2.53125 -3.95939,0.81906 -7.54972,1.82866 -10.34375,3.0625 -2.79403,1.23384 -4.84693,2.65073 -5.6875,4.5 -1.47744,3.25036 -2.10269,6.06374 -1.90625,8.5625 0.19644,2.49876 1.23741,4.6796 2.90625,6.5625 3.33768,3.76581 9.19818,6.49453 16.71875,9.46875 4.74189,1.87531 23.04767,7.19573 41.75,11.8125 9.35116,2.30838 18.7662,4.44096 26.59375,5.84375 7.82755,1.40279 13.99875,2.1315 17.15625,1.5 11.65072,-2.33015 16.36789,-5.27827 25.71875,-8.71875 5.00402,-1.84114 7.87892,-4.09521 9.5,-5.90625 0.81054,-0.90552 1.329,-1.70014 1.625,-2.28125 0.18028,-0.35393 0.16058,-0.42168 0.21875,-0.59375 l 8.375,-2.09375 c -0.0606,0.79697 -0.16892,1.93242 -0.4375,3.8125 -0.30886,2.162 1.21268,3.83598 2.32238,5.17237 1.08622,1.3081 2.32619,2.09134 3.76941,2.91479 2.05691,1.17361 2.67993,1.18519 4.1299,1.51283 0.35919,0.0812 3.4371,0.76971 4.60594,0.66283 1.16884,-0.10688 2.37166,0.47702 4.20362,0.26843 3.66392,-0.41718 8.45287,-1.04572 13.53125,-1.84375 10.15676,-1.59606 21.44215,-3.89295 27.40625,-6.875 5.98359,-2.9918 15.75118,-9.2559 26.7184,-18.79043 5.48361,-4.76727 10.66837,-9.46357 14.5625,-13.1875 1.94707,-1.86196 5.92936,-7.0013 7.12535,-8.27207 0.598,-0.63538 1.09701,-1.17046 1.46875,-1.625 0.37174,-0.45454 3.89287,-8.6742 4.0576,-9.01948 0.82664,-1.73276 1.32473,-4.16086 2.41115,-10.41802 0.54321,-3.12858 0.7446,-6.05539 0.34375,-8.5 -0.40085,-2.44461 -1.4441,-4.45643 -3.40625,-5.4375 -2.0753,-1.03765 -5.03108,-0.39169 -8.40625,0.90625 -3.37517,1.29794 -7.17978,3.35477 -10.75,5.5 -4.0687,2.44475 -7.43708,4.72928 -9.9375,6.5 6.52156,-8.40865 36.59953,-47.81559 49.09375,-76.96875 6.97758,-16.28103 8.72804,-27.94302 7.84375,-36.34375 -0.88429,-8.40073 -4.4454,-13.5118 -8.03125,-16.5 -3.07354,-2.56128 -7.57457,-2.78359 -11.28125,-2.4375 -3.08643,0.28818 -5.25408,0.89588 -6.03125,1.125 -0.21269,-0.93935 -1.79821,-7.78303 -4.65625,-15.4375 -1.52972,-4.09693 -3.37264,-8.25937 -5.53125,-11.59375 -2.15861,-3.33438 -4.61426,-5.88998 -7.5,-6.53125 -2.82471,-0.62771 -5.61495,0.33676 -8.1875,2.15625 -2.57255,1.81949 -4.97701,4.49723 -7.21875,7.4375 -4.48349,5.88054 -8.96638,12.30736 -11.40235,15.55533 -1.59197,2.12261 -5.06882,5.5117 -8.78515,7.69467 -3.29812,1.93731 -5.59442,3.03408 -6.21875,3.34375 -0.1202,-1.39866 -1.10326,-12.3723 -4.25,-24.75 -1.67619,-6.59328 -3.92371,-13.35368 -6.96875,-18.84375 -3.04504,-5.49007 -6.89789,-9.74399 -11.8125,-11.125 -2.55518,-0.71801 -5.58376,0.11549 -8.6875,1.65625 -3.10374,1.54076 -6.29722,3.83702 -9.21875,6.1875 -5.16089,4.15213 -8.89073,8.02961 -9.8125,9 -0.43625,-1.39412 -3.51679,-11.0883 -9.59375,-21.375 -3.26289,-5.52321 -7.30273,-11.00677 -12.125,-15 -4.82227,-3.99323 -10.46498,-6.49148 -16.8125,-5.96875 z m 0.0937,1.25 c 5.95942,-0.49077 11.25399,1.83505 15.90625,5.6875 4.65226,3.85245 8.6274,9.24306 11.84375,14.6875 6.43271,10.88889 9.84375,22.03125 9.84375,22.03125 0.0645,0.21594 0.23952,0.38091 0.45889,0.43253 0.21937,0.0516 0.4496,-0.018 0.60361,-0.18253 0,0 4.61731,-4.96147 10.375,-9.59375 2.87884,-2.31614 6.02931,-4.55653 9,-6.03125 2.97069,-1.47472 5.73871,-2.13645 7.78125,-1.5625 4.42627,1.24379 8.10246,5.19443 11.0625,10.53125 2.96004,5.33682 5.1836,12.00107 6.84375,18.53125 3.32029,13.06036 4.3125,25.5 4.3125,25.5 0.0209,0.2055 3.78713,22.03507 3.96799,22.13486 0.18086,0.0998 -3.24671,-21.54292 -3.06174,-21.63486 0,0 3.33082,-1.60216 7.09375,-3.8125 3.76293,-2.21034 7.27721,-5.52784 9.16015,-8.03842 2.57559,-3.43413 7.0036,-9.78593 11.40235,-15.55533 2.19937,-2.8847 4.5378,-5.45901 6.9375,-7.15625 2.3997,-1.69724 4.79986,-2.49933 7.1875,-1.96875 2.32662,0.51703 4.64233,2.76134 6.71875,5.96875 2.07642,3.20741 3.89543,7.32869 5.40625,11.375 3.02163,8.09262 4.09765,15.05175 4.09765,15.05175 0.0189,0.084 -8.54747,3.75116 -15.96073,8.54776 -7.41326,4.7966 -13.67345,10.72262 -13.59964,10.7669 0.0738,0.0443 6.53535,-5.63844 14.13852,-10.19861 7.60318,-4.56018 16.34799,-7.9978 16.43097,-8.02067 0,0 3.33708,-0.69009 6.89323,-1.02213 3.55615,-0.33204 7.71957,-0.0306 10.34375,2.15625 3.36395,2.80328 6.74059,7.5512 7.59375,15.65625 0.85316,8.10505 -0.82798,19.59862 -7.75,35.75 -13.78023,32.15386 -51.45362,78.67422 -51.73388,78.9546 -0.49227,0.49247 -4.10728,3.37009 -4.10728,3.37009 -0.25025,0.24162 -21.39368,12.24066 -21.06615,12.35783 0.24163,0.0864 25.86824,-13.99485 26.11849,-14.23647 0,0 6.37576,-4.19832 13.44507,-8.44605 3.53466,-2.12386 7.27467,-4.12266 10.53125,-5.375 3.25658,-1.25234 6.00664,-1.66856 7.40625,-0.96875 1.51274,0.75637 2.35531,2.31477 2.71875,4.53125 0.0909,0.55412 0.22009,1.1844 0.004,1.77127 -1.19382,3.24513 -19.18856,22.59466 -19.21727,23.27742 -0.0287,0.68277 18.73953,-20.96205 18.87429,-20.24145 0.26692,1.42724 0.15854,2.52481 0.0263,3.28651 -1.05802,6.09356 -1.87811,8.27567 -2.34865,10.10552 -0.0218,0.0846 -3.52791,8.28857 -3.8701,8.70698 -0.34219,0.41841 -0.82088,0.94053 -1.40625,1.5625 -1.17074,1.24393 -5.1571,6.38848 -7.0941,8.24082 -3.87399,3.70467 -9.02967,8.40053 -14.5,13.15625 -10.94066,9.51144 -20.86899,15.80322 -26.4684,18.60293 -5.61889,2.80944 -16.91775,5.16073 -27.03125,6.75 -5.05675,0.79463 -9.82089,1.4284 -13.46875,1.84375 -1.82393,0.20768 -3.0468,-0.37421 -4.20362,-0.26843 -1.15682,0.10578 -2.1404,0.19721 -4.48094,-0.66283 -0.89032,-0.32716 -0.87898,0.16369 -3.5049,-1.35658 -1.31296,-0.76014 -2.30733,-1.3476 -3.33191,-2.50854 -0.97053,-1.09971 -2.40517,-2.40532 -2.13488,-4.29737 0.29076,-2.03533 0.90393,-3.34343 0.9602,-4.1875 0.0281,-0.42203 5.57861,-1.79583 5.80581,-1.86974 8.67531,-2.82224 11.28927,-5.44434 11.19023,-5.39084 -5.10441,2.7573 -6.48215,3.44606 -17.46051,5.90071 -0.22968,0.0514 -1.47222,0.0206 -1.52698,0.14112 -0.0285,0.0627 -0.0391,0.067 -0.0625,0.125 l -8.6875,2.21875 c -0.23255,0.0546 -0.41412,0.2362 -0.46875,0.46875 0,0 -0.0324,0.23013 -0.28125,0.71875 -0.24889,0.48862 -0.70114,1.20861 -1.4375,2.03125 -1.47271,1.64528 -4.15928,3.75019 -9,5.53125 -9.43937,3.47304 -14.01597,6.35318 -25.53125,8.65625 -2.634,0.5268 -8.87304,-0.10516 -16.65625,-1.5 -7.78321,-1.39484 -17.19689,-3.50826 -26.53125,-5.8125 -18.66871,-4.60847 -37.13265,-9.98574 -41.59375,-11.75 -7.47913,-2.95783 -13.20248,-5.71782 -16.25,-9.15625 -1.52376,-1.71922 -2.38789,-3.59142 -2.5625,-5.8125 -0.17461,-2.22108 0.36293,-4.81721 1.78125,-7.9375 0.15183,-0.33402 1.9423,-1.8432 2.23719,-2.17717 0.14744,-0.16699 0.041,4.09862 1.93366,7.00503 1.89271,2.9064 6.09756,5.0795 5.94881,4.9522 -0.13601,-0.11639 -3.71697,-2.16695 -5.31726,-5.16649 -1.60029,-2.99954 -1.53285,-7.73043 -1.25681,-7.88747 0.55208,-0.31406 0.8507,-0.3069 1.51691,-0.6011 2.66485,-1.17679 6.15922,-2.19255 10.0625,-3 7.80655,-1.6149 17.22557,-2.43892 25.03125,-2.46875 15.61135,-0.0596 24.75,3.0625 24.75,3.0625 0.14301,0.0381 12.51037,8.07452 18.60374,11.66667 6.09337,3.59214 24.2149,11.08028 24.28259,10.94866 0.0677,-0.13162 -18.04345,-7.8652 -24.03724,-11.65098 -5.99379,-3.78578 -18.17237,-11.96397 -18.28659,-12.0581 0,0 -11.39694,-8.59728 -21.6875,-17.0625 -4.66628,-3.83858 -10.3473,-11.63874 -16.125,-21.1875 -5.7777,-9.54876 -11.67843,-20.85631 -17,-31.8125 -5.32157,-10.95619 -10.04624,-21.57488 -13.4375,-29.6875 -1.69563,-4.05631 -3.0643,-7.48769 -4,-10.03125 -0.46785,-1.27178 -0.82143,-2.3089 -1.0625,-3.09375 -0.23116,-0.75257 -0.33528,-1.28189 -0.34375,-1.375 0.0445,-0.0652 0.11746,-0.17919 0.25,-0.3125 0.26508,-0.26662 0.68851,-0.60416 1.21875,-1 1.06047,-0.79169 2.58161,-1.76611 4.3125,-2.6875 3.46177,-1.84278 8.02545,-3.83515 11.34228,-3.15919 0.62297,0.12696 2.50185,-0.21361 4.85757,1.15901 5.21703,3.03984 17.04718,10.14081 17.10692,10.07931 0.0597,-0.0615 -11.53477,-7.47441 -16.7135,-10.44029 -5.17873,-2.96589 -4.55934,-1.60829 -4.53077,-1.67009 0.11425,-0.2472 0.17643,-0.50274 0.25,-0.84375 0.14715,-0.68202 0.26255,-1.61212 0.375,-2.71875 0.22491,-2.21326 0.40656,-5.16203 0.625,-8.125 0.21844,-2.96297 0.47192,-5.93955 0.8125,-8.21875 0.17029,-1.1396 0.38261,-2.11245 0.59375,-2.78125 0.10557,-0.3344 0.2195,-0.59342 0.3125,-0.75 0.093,-0.15658 0.14845,-0.1774 0.0937,-0.15625 1.45527,-0.56279 4.60946,-0.0278 8.3125,1.3125 3.70304,1.3403 7.98068,3.41082 12.0625,5.5625 8.16364,4.30335 15.4375,8.9375 15.4375,8.9375 0.1939,0.12417 1.67543,18.22973 1.87731,18.11902 0.20189,-0.11071 -0.9081,-18.42002 -0.90856,-18.65027 0,0 -0.30414,-14.54475 0.59375,-29.625 0.44894,-7.54012 1.20198,-15.2165 2.4375,-21.25 0.61776,-3.01675 1.3546,-5.60946 2.21875,-7.5625 0.86415,-1.95304 1.86974,-3.20671 2.84375,-3.65625 7.26093,-3.3512 14.56165,-0.55472 20.15625,3.1875 5.5946,3.74222 9.375,8.375 9.375,8.375 0.0759,0.0909 6.56671,5.19059 10.84392,8.77856 4.27721,3.58796 6.34077,5.66423 6.45621,5.63784 0.11544,-0.0264 -1.63436,-2.40026 -5.62937,-6.27861 -3.99501,-3.87834 -10.23523,-9.26117 -10.20642,-9.37603 0,0 2.76173,-11.78689 7.62941,-24.66801 2.43384,-6.44056 5.31128,-12.88986 8.40625,-17.78125 3.09497,-4.89139 6.39897,-8.11962 9.5,-8.375 z"
         style="fill:url(#linearGradient2750);fill-opacity:0.61256498;fill-rule:evenodd;stroke:none"
         inkscape:connector-curvature="0" />
      <path
         sodipodi:nodetypes="cssssscsssssss"
         id="path2223"
         d="m 265.93441,367.86092 c 0.57739,1.79209 1.00383,3.44815 5.88561,10.67033 1.67291,2.47493 5.53345,7.89569 9.58623,11.28125 4.05278,3.38556 9.10272,5.66741 15.84375,4.65625 4.84446,-0.72667 7.12889,-0.89203 8.125,-0.875 0.49805,0.009 0.78283,0.83714 0.82542,0.72627 l 0.42885,-1.1164 c 0,0 -0.10815,-0.28231 -0.32429,-0.43529 -0.42218,-0.29882 -0.31838,-0.47716 -0.89873,-0.48708 -1.1607,-0.0198 -3.46792,0.14363 -8.34375,0.875 -6.36434,0.95466 -10.94164,-1.14141 -14.8125,-4.375 -3.87086,-3.23359 -9.65842,-10.10633 -10.15625,-10.89333 -2.4426,-3.86137 -6.11047,-6.60813 -7.07002,-16.59375 -0.0149,-0.15476 0.008,3.76436 0.91068,6.56675 z"
         style="fill:#000000;fill-opacity:0.65968604;fill-rule:evenodd;stroke:none"
         inkscape:connector-curvature="0" />
      <path
         sodipodi:nodetypes="ccsssccsssc"
         id="path2227"
         d="m 220.66942,391.19456 6.49975,1.91752 c 0,0 7.03757,1.73145 15.16166,3.73707 4.06204,1.00281 8.979,2.48444 12.47627,3.27585 3.49727,0.79141 5.79379,1.35909 7.0679,1.46875 15.43104,1.32814 24.85631,3.28282 36.41052,-0.63684 l 2.06359,-1.10667 c -11.32346,3.84139 -22.94051,2.16884 -38.41161,0.83726 -1.10939,-0.0955 -3.88785,-0.67963 -7.375,-1.46875 -3.48715,-0.78912 -8.18584,-1.8105 -12.2446,-2.8125 -8.11752,-2.004 -21.64848,-5.21169 -21.64848,-5.21169 z"
         style="fill:#000000;fill-opacity:0.712042;fill-rule:evenodd;stroke:none"
         inkscape:connector-curvature="0" />
      <path
         sodipodi:nodetypes="csssssscsssc"
         id="path2237"
         d="m 277.42436,385.0103 c 0,0 -17.52483,-6.88476 -25.34842,-10.95302 -7.82358,-4.06827 -36.49515,-24.38922 -41.62148,-30.19905 -18.7766,-21.28015 -40.52617,-67.90872 -41.465,-73.5417 -0.46941,-2.81649 -6.76053,-17.07632 -8.76242,-22.37546 -0.665,-1.76031 3.12943,-2.50355 7.98006,-6.25887 9.70125,-7.51065 21.5931,3.44238 25.66136,6.25887 4.06827,2.81649 25.19195,15.17776 25.19195,15.17776 0,0 0.15647,14.39539 3.91179,27.22608 3.75532,12.83068 7.66712,30.82492 14.86481,44.59444 7.1977,13.76951 24.09665,35.51908 30.04257,37.39674 5.94593,1.87766 9.70125,12.83068 9.54478,12.67421 z"
         style="fill:url(#linearGradient2245);fill-opacity:1;fill-rule:evenodd;stroke:none"
         inkscape:connector-curvature="0" />
      <path
         sodipodi:nodetypes="ccsccsc"
         id="path2235"
         d="m 222.39694,289.10815 2.64028,10.41568 c 0,0 6.29166,25.78083 14.58778,40.28867 10.83351,18.94513 23.7869,29.33246 23.7869,29.33246 l 0.24435,0.0113 c 0,0 -12.49181,-10.96785 -23.25,-29.78125 -8.12902,-14.21564 -18.00931,-50.26685 -18.00931,-50.26685 z"
         style="fill:#000000;fill-opacity:0.06806282;fill-rule:evenodd;stroke:none"
         inkscape:connector-curvature="0" />
      <path
         sodipodi:nodetypes="ccssccssc"
         id="path2239"
         d="m 372.28125,287.375 -0.36371,-0.0369 c 0,0 2.52918,9.41238 4.18186,21.06815 1.65268,11.65577 1.70469,25.89301 -3.0994,36.1875 -9.7033,20.79278 -30.91453,35.40888 -30.91453,35.40888 l 3.76957,-2.20707 c 0,0 18.28205,-11.59826 28.14496,-32.73306 4.97901,-10.6693 4.51033,-25.05871 2.84375,-36.8125 -1.66658,-11.75379 -4.5625,-20.875 -4.5625,-20.875 z"
         style="fill:#000000;fill-opacity:0.20942401;fill-rule:evenodd;stroke:none"
         inkscape:connector-curvature="0" />
      <path
         sodipodi:nodetypes="ccsscsssc"
         id="path2243"
         d="m 341.9631,306.48569 -0.49435,-0.51694 c 0,0 3.89296,5.90992 7.5,13.90625 3.60704,7.99633 6.88312,18.08271 5.6875,26.28125 -2.42829,16.65115 -10.40625,29.5 -10.40625,29.5 0,0 1.25919,-1.14876 4.33771,-6.80608 1.81527,-3.33585 4.60529,-5.64677 7.06854,-22.53767 1.25016,-8.57249 -2.80585,-18.76784 -6.44879,-26.84375 -3.64294,-8.07591 -7.24436,-12.98306 -7.24436,-12.98306 z"
         style="fill:#000000;fill-opacity:0.14659699;fill-rule:evenodd;stroke:none"
         inkscape:connector-curvature="0" />
      <path
         sodipodi:nodetypes="cssccsscc"
         id="path2247"
         d="m 399.05121,365.64194 c 0,0 -13.96808,12.21825 -22.32117,18.48306 -8.41551,6.31163 -5.00151,4.85268 -21.41754,12.1875 -16.28867,7.27792 -34.1875,5.90625 -34.1875,5.90625 l -0.0625,0.90625 c 0,0 18.07041,1.39674 34.625,-6 16.42724,-7.33983 12.51947,-6.01462 20.875,-12.28125 8.41794,-6.31345 26.22703,-22.35767 26.22703,-22.35767 l -3.73832,3.15586 z"
         style="fill:#000000;fill-opacity:0.54450295;fill-rule:evenodd;stroke:none"
         inkscape:connector-curvature="0" />
      <path
         sodipodi:nodetypes="cssssccsssc"
         id="path1423"
         d="m 451.78125,220.48049 c 0,0 -0.6855,10.88382 -2.28036,18.30697 -1.59486,7.42315 -3.389,8.7264 -4.09907,11.38564 -1.06001,3.96973 -6.08153,11.71929 -9.13299,16.97496 -9.17322,15.7995 -7.22079,11.46819 -25.30451,35.78767 -13.87973,18.66584 -41.26863,50.04987 -41.26863,50.04987 L 388.25,342.875 c 0,0 14.27957,-18.23374 28.1875,-36.9375 18.21773,-24.4997 27.06041,-42.32297 31.34375,-54.0625 2.14167,-5.86977 5.03707,-15.21707 5.50266,-18.1321 0.46559,-2.91503 -1.50266,-13.26241 -1.50266,-13.26241 z"
         style="fill:url(#linearGradient2160);fill-opacity:1;fill-rule:evenodd;stroke:none"
         inkscape:connector-curvature="0" />
      <path
         sodipodi:nodetypes="cssscsc"
         id="path2226"
         d="m 222.16921,251.37643 c -5.16563,11.27417 -2.16329,22.93836 -1.78419,25.29566 0.5645,3.51012 -1.15829,13.02172 8.10809,17.65492 6.76286,3.38144 7.57571,-4.72667 14.5255,-12.83477 6.94981,-8.10809 8.10809,-6.94981 8.10809,-6.94981 0,0 -10.4247,-11.58298 -13.8996,-15.05788 -6.94979,-6.94981 -15.05789,-8.10812 -15.05789,-8.10812 z"
         style="fill:url(#linearGradient2193);fill-opacity:1;fill-rule:evenodd;stroke:none"
         inkscape:connector-curvature="0" />
      <path
         sodipodi:nodetypes="ccssscs"
         id="path2216"
         d="m 251.91947,273.91537 c -0.33762,-0.43217 -0.93883,1.25178 -0.93883,1.25178 0,0 2.97297,20.81074 5.78945,32.38964 1.95832,8.05087 10.5368,33.36202 10.64008,32.54612 1.39263,-11.00159 4.89412,-19.73875 4.85062,-19.8719 -6.2199,-19.0413 -5.63298,-32.85907 -5.63298,-32.85907 0,0 -8.1143,-5.01572 -14.70834,-13.45657 z"
         style="fill:url(#linearGradient2225);fill-opacity:1;fill-rule:evenodd;stroke:none"
         inkscape:connector-curvature="0" />
      <path
         sodipodi:nodetypes="csscscsc"
         id="path2253"
         d="m 267.09031,211.70264 c 0,0 3.98312,-6.63854 7.96623,-10.17909 3.98312,-3.54055 4.86826,-3.54055 10.62166,-3.98312 5.75339,-0.44256 14.60477,17.26019 14.60477,17.26019 0,0 -5.58969,0.55032 -7.96624,3.98312 -3.98312,5.75339 -3.09798,9.29395 -3.09798,9.29395 0,0 -3.98312,-5.7534 -11.06422,-11.5068 -4.60832,-3.74426 -11.06422,-4.86825 -11.06422,-4.86825 z"
         style="fill:url(#linearGradient2261);fill-opacity:1;fill-rule:evenodd;stroke:none"
         inkscape:connector-curvature="0" />
      <path
         sodipodi:nodetypes="csssccsscc"
         id="path2269"
         d="m 288.8468,245.75047 c 0,0 0.46941,-13.92599 0.46941,-17.68131 0,-3.75532 0.62589,-11.89185 11.89185,-13.14362 11.26597,-1.25178 21.12368,2.66002 24.879,12.36126 3.75533,9.70125 7.51065,38.1791 7.51065,38.1791 l -3.12944,1.56472 c 0,0 1.83743,-4.85377 -11.89185,-14.70834 -5.4408,-3.90529 -15.33423,-5.94593 -20.96721,-5.63298 -4.24993,0.23611 -6.88475,5.63298 -6.88475,5.63298 l -1.87766,-6.57181 z"
         style="fill:url(#linearGradient2277);fill-opacity:1;fill-rule:evenodd;stroke:none"
         inkscape:connector-curvature="0" />
      <path
         sodipodi:nodetypes="cssscccccccsscc"
         id="path2279"
         d="m 251.50089,250.15625 c 0,0 -0.55932,3.15509 -1.03125,6.8125 -0.47193,3.65741 -0.62167,5.86563 -1.81428,7.84065 -1.13189,1.87446 -1.4673,1.9406 -4.31338,0.62588 -1.76474,-0.81521 -3.31561,-2.12943 -3.31561,-2.12943 l 9.37988,11.56915 0.34375,0.375 0.46875,-0.15625 0.9375,-0.3125 0.75,-0.25 -0.28125,-0.75 c 0,0 -1.23203,-3.05513 -1.84375,-7.03125 -0.27507,-1.78794 0.0956,-5.97522 0.5625,-9.59375 0.46691,-3.61853 0.37411,-6.75 0.37411,-6.75 l -0.21697,-0.25 z"
         style="fill:url(#linearGradient2289);fill-opacity:1;fill-rule:evenodd;stroke:none"
         inkscape:connector-curvature="0" />
      <path
         sodipodi:nodetypes="csccsccsc"
         id="path2291"
         d="m 223.51986,251.69639 c 0,0 -2.72458,-4.55129 -2.19061,-11.42244 0.58255,-7.49628 14.55187,0.31295 14.55187,0.31295 l 10.87478,4.06826 c 0,0 5.32004,1.25178 4.85063,5.63298 -0.46942,4.38121 -1.87766,14.23893 -1.87766,14.23893 l -7.98006,-0.31294 c 0,0 -7.58888,-7.90182 -8.99713,-8.52771 -1.40824,-0.62589 -3.75531,-3.59886 -9.23182,-3.99003 z"
         style="fill:url(#linearGradient2299);fill-opacity:1;fill-rule:evenodd;stroke:none"
         inkscape:connector-curvature="0" />
      <path
         sodipodi:nodetypes="cccscsccs"
         id="path2301"
         d="m 269.20959,245.12458 c 0.62589,2.46443 1.87767,4.53768 1.87767,4.53768 l 0,-0.0782 c 0,0 0,17.52483 -1.72119,17.68131 -1.72119,0.15647 -3.75532,-1.09531 -3.75532,-1.09531 0,0 -0.78236,-6.88475 -0.15648,-12.83068 0.62589,-5.94592 2.97297,-13.61304 2.97297,-13.61304 l 0.15647,0.0782 c 0,0 -10e-6,2.85561 0.62588,5.32004 z"
         style="fill:url(#linearGradient2317);fill-opacity:1;fill-rule:evenodd;stroke:none"
         inkscape:connector-curvature="0" />
      <path
         style="fill:url(#linearGradient2327);fill-opacity:1;fill-rule:evenodd;stroke:none"
         d="m 283.00515,246.02354 c 0.55898,2.48046 3.12945,-3.44238 3.12945,-3.44238 l 0,-0.0782 c 0,0 -0.46942,16.74247 -2.19061,16.89895 -1.72119,0.15647 -3.2859,0.31294 -3.2859,0.31294 0,0 -1.25178,-1.0953 -0.6259,-7.04123 0.62589,-5.94592 1.09531,-21.90604 1.09531,-21.90604 l 0.62589,5.55475 c 0,0 0.62587,6.92387 1.25176,9.70125 z"
         id="path2325"
         sodipodi:nodetypes="cccscsccs"
         inkscape:connector-curvature="0" />
      <path
         sodipodi:nodetypes="cccscsccs"
         id="path2329"
         d="m 287.1179,247.95029 c 0.62589,2.46443 3.44239,-3.59885 3.44239,-3.59885 l 0,-0.0782 c 0,0 0,17.52483 -1.72119,17.68131 -1.72119,0.15647 -3.12943,0.31294 -3.12943,0.31294 0,0 -1.40825,-8.293 -0.78237,-14.23893 0.62589,-5.94592 -1.40824,-13.45657 -1.40824,-13.45657 l 1.40825,4.61592 c 0,0 1.5647,6.29799 2.19059,8.76242 z"
         style="fill:url(#linearGradient2331);fill-opacity:1;fill-rule:evenodd;stroke:none"
         inkscape:connector-curvature="0" />
      <path
         style="fill:url(#linearGradient2335);fill-opacity:1;fill-rule:evenodd;stroke:none"
         d="m 262.88169,254.95315 c 0.62589,2.46443 2.89474,-3.52061 2.89474,-3.52061 l 0,-0.0782 c 0,0 0.62589,14.08245 -1.0953,14.23893 -1.72119,0.15647 -5.16357,-2.66003 -5.16357,-2.66003 0,0 0.46942,-0.31293 1.0953,-6.25886 0.62589,-5.94592 -1.17354,-8.21477 -1.17354,-8.21477 l 0.86059,1.25178 c 0,0 1.95589,2.77737 2.58178,5.2418 z"
         id="path2333"
         sodipodi:nodetypes="cccscsccs"
         inkscape:connector-curvature="0" />
      <path
         sodipodi:nodetypes="cccscsccs"
         id="path2337"
         d="m 275.71849,255.34433 c 0.62589,2.46443 1.56473,-3.91179 1.56473,-3.91179 l 0,-0.0782 c 0,0 1.17354,9.31006 -0.54765,9.46654 -1.72119,0.15647 -5.2418,4.61591 -5.2418,4.61591 0,0 1.72118,-2.50354 2.34706,-8.44947 0.62589,-5.94592 -1.40823,-6.72828 -1.40823,-6.72828 l 2.1906,1.9559 c 0,0 0.4694,0.665 1.09529,3.12943 z"
         style="fill:url(#linearGradient3357);fill-opacity:1;fill-rule:evenodd;stroke:none"
         inkscape:connector-curvature="0" />
    </g>
  </g>
  <metadata
     id="metadata31">
    <rdf:RDF>
      <cc:Work
         rdf:about="">
        <dc:title />
        <dc:description />
        <dc:subject>
          <rdf:Bag>
            <rdf:li>tie</rdf:li>
          </rdf:Bag>
        </dc:subject>
        <dc:publisher>
          <cc:Agent>
            <dc:title />
          </cc:Agent>
        </dc:publisher>
        <dc:creator>
          <cc:Agent>
            <dc:title>Nicu Buculei</dc:title>
          </cc:Agent>
        </dc:creator>
        <dc:rights>
          <cc:Agent>
            <dc:title>Nicu Buculei</dc:title>
          </cc:Agent>
        </dc:rights>
        <dc:date />
        <dc:format>image/svg+xml</dc:format>
        <dc:type
           rdf:resource="http://purl.org/dc/dcmitype/StillImage" />
        <cc:license
           rdf:resource="http://web.resource.org/cc/PublicDomain" />
        <dc:language>en</dc:language>
      </cc:Work>
      <cc:License
         rdf:about="http://web.resource.org/cc/PublicDomain">
        <cc:permits
           rdf:resource="http://web.resource.org/cc/Reproduction" />
        <cc:permits
           rdf:resource="http://web.resource.org/cc/Distribution" />
        <cc:permits
           rdf:resource="http://web.resource.org/cc/DerivativeWorks" />
      </cc:License>
    </rdf:RDF>
  </metadata>
</svg>
