<?xml version="1.0" encoding="UTF-8" standalone="no"?>
<!-- Created with Inkscape (http://www.inkscape.org/) -->

<svg
   xmlns:dc="http://purl.org/dc/elements/1.1/"
   xmlns:cc="http://creativecommons.org/ns#"
   xmlns:rdf="http://www.w3.org/1999/02/22-rdf-syntax-ns#"
   xmlns:svg="http://www.w3.org/2000/svg"
   xmlns="http://www.w3.org/2000/svg"
   xmlns:xlink="http://www.w3.org/1999/xlink"
   xmlns:sodipodi="http://sodipodi.sourceforge.net/DTD/sodipodi-0.dtd"
   xmlns:inkscape="http://www.inkscape.org/namespaces/inkscape"
   width="78"
   height="95"
   id="svg2"
   sodipodi:version="0.32"
   inkscape:version="0.48.0 r9654"
   sodipodi:docname="rosa.svg"
   inkscape:export-filename="/home/nicu/Desktop/potato_guy.png"
   inkscape:export-xdpi="90.000000"
   inkscape:export-ydpi="90.000000"
   version="1.1">
  <defs
     id="defs3">
    <linearGradient
       inkscape:collect="always"
       id="linearGradient14422">
      <stop
         style="stop-color: rgb(0, 0, 0); stop-opacity: 1;"
         offset="0"
         id="stop14424" />
      <stop
         style="stop-color: rgb(0, 0, 0); stop-opacity: 0;"
         offset="1"
         id="stop14426" />
    </linearGradient>
    <linearGradient
       inkscape:collect="always"
       id="linearGradient14414">
      <stop
         style="stop-color: rgb(0, 0, 0); stop-opacity: 1;"
         offset="0"
         id="stop14416" />
      <stop
         style="stop-color: rgb(0, 0, 0); stop-opacity: 0;"
         offset="1"
         id="stop14418" />
    </linearGradient>
    <linearGradient
       id="linearGradient2424">
      <stop
         style="stop-color: rgb(222, 193, 100); stop-opacity: 1;"
         offset="0"
         id="stop2426" />
      <stop
         style="stop-color: rgb(213, 168, 100); stop-opacity: 1;"
         offset="1.0000000"
         id="stop2428" />
    </linearGradient>
    <linearGradient
       inkscape:collect="always"
       xlink:href="#linearGradient2424"
       id="linearGradient7610"
       gradientUnits="userSpaceOnUse"
       gradientTransform="translate(84,5)"
       x1="114"
       y1="112.36218"
       x2="197"
       y2="288.36218" />
    <linearGradient
       inkscape:collect="always"
       xlink:href="#linearGradient14414"
       id="linearGradient14441"
       gradientUnits="userSpaceOnUse"
       x1="359.40097"
       y1="501.27704"
       x2="392.05878"
       y2="543.17145" />
    <linearGradient
       inkscape:collect="always"
       xlink:href="#linearGradient14422"
       id="linearGradient14443"
       gradientUnits="userSpaceOnUse"
       x1="408.05783"
       y1="499.79263"
       x2="448.46774"
       y2="546.3053" />
    <linearGradient
       id="linearGradient912">
      <stop
         id="stop913"
         offset="0.0000000"
         style="stop-color: rgb(255, 255, 255); stop-opacity: 1;" />
      <stop
         id="stop914"
         offset="1.0000000"
         style="stop-color: rgb(255, 255, 255); stop-opacity: 0;" />
    </linearGradient>
    <radialGradient
       inkscape:collect="always"
       xlink:href="#linearGradient912"
       id="radialGradient17463"
       gradientUnits="userSpaceOnUse"
       gradientTransform="scale(1.02248,0.978019)"
       cx="44.699299"
       cy="42.72097"
       fx="44.699299"
       fy="42.72097"
       r="12.239094" />
    <linearGradient
       id="linearGradient5873">
      <stop
         id="stop5875"
         offset="0.0000000"
         style="stop-color: rgb(0, 29, 205); stop-opacity: 1;" />
      <stop
         id="stop5877"
         offset="1.0000000"
         style="stop-color: rgb(0, 12, 93); stop-opacity: 1;" />
    </linearGradient>
    <linearGradient
       id="linearGradient6641">
      <stop
         id="stop6643"
         offset="0.0000000"
         style="stop-color: rgb(205, 205, 205); stop-opacity: 1;" />
      <stop
         id="stop6645"
         offset="1.0000000"
         style="stop-color: rgb(126, 126, 126); stop-opacity: 1;" />
    </linearGradient>
    <linearGradient
       id="linearGradient7409">
      <stop
         id="stop7411"
         offset="0.0000000"
         style="stop-color: rgb(255, 255, 255); stop-opacity: 1;" />
      <stop
         id="stop7413"
         offset="1.0000000"
         style="stop-color: rgb(218, 218, 218); stop-opacity: 1;" />
    </linearGradient>
  </defs>
  <sodipodi:namedview
     id="base"
     pagecolor="#ffffff"
     bordercolor="#666666"
     borderopacity="1.0"
     inkscape:pageopacity="0.0"
     inkscape:pageshadow="2"
     inkscape:zoom="1"
     inkscape:cx="252.66113"
     inkscape:cy="75.159642"
     inkscape:document-units="px"
     inkscape:current-layer="layer1"
     inkscape:window-width="1152"
     inkscape:window-height="700"
     inkscape:window-x="0"
     inkscape:window-y="37"
     showguides="true"
     inkscape:guide-bbox="true"
     showgrid="false"
     inkscape:window-maximized="0" />
  <g
     inkscape:label="Layer 1"
     inkscape:groupmode="layer"
     id="layer1"
     transform="translate(0,-33)">
    <path
       d="m 20.414955,75.58717 c 1.53198,0.911479 3.151647,1.915465 4.744583,2.701072 0.344873,0.170027 1.219306,-0.0057 1.460293,0.179018 0.242808,0.186012 0.447949,1.113076 0.726602,1.440745 1.486416,1.748434 5.986571,3.406158 8.395415,3.240126 -2.161987,1.371015 -3.134637,4.606947 -5.838132,5.940799 -3.869744,1.909471 -7.22309,5.409734 -9.125662,9.182523 -1.80152,3.572787 -2.553842,8.674437 -2.553842,12.602467 0,3.9516 -3.020016,7.1222 -3.651034,10.80269 -0.937009,-2.88009 -1.874018,-5.75999 -2.811027,-8.64008 -0.654306,-2.01137 0.257186,-1.8711 0.257186,-3.88347 0,-4.22273 2.362673,-10.138958 4.267269,-13.896562 1.939025,-3.825535 1.963325,-8.386128 0.938427,-12.455216 -1.398526,-5.55279 -6.655052,-5.052696 -11.4069259,-5.052696 2.6964071,-0.437357 5.1556769,-3.469894 7.6653709,-3.962397 1.405816,-0.275921 0.817731,0.09311 2.186894,0.722271 1.592531,0.731861 3.513328,0.408787 5.107884,1.438945 -0.1211,-0.120078 -0.2422,-0.240157 -0.363301,-0.360235"
       id="path3"
       style="fill:#006b33;overflow:visible"
       inkscape:connector-curvature="0" />
    <path
       d="m 23.69884,82.067422 c 2.212006,3.115654 3.836331,3.617347 7.665574,2.88189 -5.475236,6.074063 -16.650695,11.045441 -15.694042,20.523258 0,-4.5504 0.295865,-8.968732 1.059122,-13.456398 0.378287,-2.223953 2.539665,-3.654908 3.227993,-5.707234 0.634663,-1.892288 1.440244,-4.111247 1.554662,-6.040497 0.729032,0.599395 1.457862,1.199189 2.186691,1.798981"
       id="path5"
       style="fill:#00a33d;overflow:visible"
       inkscape:connector-curvature="0" />
    <path
       d="m 38.295891,80.628477 c 0.89347,-0.433363 3.675943,-2.519455 4.56273,-2.519455 0.688531,0 3.476674,-3.841518 3.465536,-4.682869 6.426218,3.323443 10.949662,10.164731 10.949662,17.811605 0,4.436318 -1.793015,9.247262 -2.772551,13.592472 -0.90724,4.02513 -1.923836,8.42868 -2.335333,12.52435 1.173944,-4.23633 1.145188,-9.28003 1.460697,-13.68478 0.208786,-2.91626 0.313483,-5.044704 -0.363301,-7.921199 -0.264477,-1.123465 -1.460697,-3.665897 -1.460697,-4.158399 0,4.076482 -0.593555,5.609733 -2.557689,9.201508 3.403973,-6.016325 -0.921012,-14.072786 -2.920788,-19.802597 -0.105304,2.459115 1.463937,4.975174 1.463937,7.560761 0,1.827154 -2.421399,5.461682 -3.650629,6.840489 1.198854,-3.749411 3.304137,-7.09723 2.186692,-10.802686 -1.153086,-3.824337 -4.564552,-3.9592 -8.028266,-3.9592"
       id="path7"
       style="fill:#006b33;overflow:visible"
       inkscape:connector-curvature="0" />
    <path
       d="m 21.512149,50.022798 c 2.174744,3.338427 -7.444231,3.526037 -8.989982,4.035323 -4.8000704,1.581602 -5.6068662,3.833727 -5.6068662,8.566745 0,3.664098 -0.7711542,8.267647 3.1453692,10.1947 3.76282,1.85133 7.857147,2.935434 11.753015,4.473081 3.755124,1.482103 7.509843,3.233333 11.374322,4.416338 1.619059,0.4955 3.88797,1.439146 5.557252,1.439146 0.807605,0 3.024269,-3.519244 3.568613,-4.321034 1.025505,-1.510474 2.002206,-2.996973 3.112563,-4.455898 1.619262,-2.127052 2.859022,-0.945445 4.900515,-0.945445 4.375814,0 6.750232,-3.481283 7.853704,-7.26646 1.115015,-3.825334 1.47467,-8.327186 0.190155,-12.176098 -0.443292,-1.328458 -2.403173,-4.033125 -4.242563,-3.12784 -0.944906,0.465131 -2.19621,0.768224 -3.059303,1.32666 -0.854993,0.553042 -1.276212,1.443741 -2.187097,1.80118 1.606504,-3.192374 4.604042,-8.438674 1.097396,-11.523157 -3.256345,-2.864507 -8.273504,-1.799183 -12.06103,-1.799183 -2.735289,0 -3.110538,2.0787 -5.093506,3.061906 -1.68042,0.832959 -2.714633,0.898692 -4.665808,0.898692 -3.293201,-1.99e-4 -9.050734,0.512283 -6.646749,5.401344"
       id="path9"
       style="fill:#bf0000;overflow:visible"
       inkscape:connector-curvature="0" />
    <path
       d="m 21.512149,50.022798 c 2.174744,3.338427 -7.444231,3.526037 -8.989982,4.035323 -4.8000704,1.581602 -5.6068662,3.833727 -5.6068662,8.566745 0,3.664098 -0.7711542,8.267647 3.1453692,10.1947 3.76282,1.85133 7.857147,2.935434 11.753015,4.473081 3.755124,1.482103 7.509843,3.233333 11.374322,4.416338 1.619059,0.4955 3.88797,1.439146 5.557252,1.439146 0.807605,0 3.024269,-3.519244 3.568613,-4.321034 1.025505,-1.510474 2.002206,-2.996973 3.112563,-4.455898 1.619262,-2.127052 2.859022,-0.945445 4.900515,-0.945445 4.375814,0 6.750232,-3.481283 7.853704,-7.26646 1.115015,-3.825334 1.47467,-8.327186 0.190155,-12.176098 -0.443292,-1.328458 -2.403173,-4.033125 -4.242563,-3.12784 -0.944906,0.465131 -2.19621,0.768224 -3.059303,1.32666 -0.854993,0.553042 -1.276212,1.443741 -2.187097,1.80118 1.606504,-3.192374 4.604042,-8.438674 1.097396,-11.523157 -3.256345,-2.864507 -8.273504,-1.799183 -12.06103,-1.799183 -2.735289,0 -3.110538,2.0787 -5.093506,3.061906 -1.68042,0.832959 -2.714633,0.898692 -4.665808,0.898692 -3.293201,-1.99e-4 -9.050734,0.512283 -6.646749,5.401344"
       id="path11"
       style="fill:none;stroke:#802600;stroke-width:0.04022981;stroke-linecap:square;stroke-miterlimit:10;overflow:visible"
       inkscape:connector-curvature="0" />
    <path
       d="m 36.472095,43.902581 c 1.766081,-0.692701 4.877834,-1.210577 5.841979,0.718674 0.621703,1.244143 0,4.828921 0,6.302032 0,2.675698 -7.721667,0.739654 -8.841542,0.0062 -1.965755,-1.2875 -1.542713,-2.453721 -0.284525,-4.146811 0.70068,-0.942848 1.092941,-1.436749 2.190742,-1.981199 0.696429,-0.34565 1.585645,-0.546048 1.093346,-0.898891"
       id="path13"
       style="fill:#8f0000;overflow:visible"
       inkscape:connector-curvature="0" />
    <path
       d="m 36.472095,43.902581 c 1.766081,-0.692701 4.877834,-1.210577 5.841979,0.718674 0.415346,0.83096 0.424662,5.17677 0,6.121815 -1.090308,2.427148 -5.903744,1.508676 -8.028671,0.718674 -1.938011,-0.720472 -2.656715,-2.119459 -1.823593,-3.9588 0.87342,-1.927853 2.920584,-2.337839 4.377636,-3.600363"
       id="path15"
       style="fill:none;stroke:#802600;stroke-width:0.04022981;stroke-linecap:square;stroke-miterlimit:10;overflow:visible"
       inkscape:connector-curvature="0" />
    <path
       d="m 39.392882,45.701963 c 1.664017,0.193405 1.906622,-1.224363 0.363099,-1.440745 -1.691963,-0.23716 -1.900546,1.552831 -0.363099,1.440745"
       id="path17"
       style="fill:#a700a7;overflow:visible"
       inkscape:connector-curvature="0" />
    <path
       d="m 39.392882,45.701963 c 1.664017,0.193405 1.906622,-1.224363 0.363099,-1.440745 -1.691963,-0.23716 -1.900546,1.552831 -0.363099,1.440745"
       id="path19"
       style="fill:#bf0000;stroke:#802600;stroke-width:0.04022981;stroke-linecap:square;stroke-miterlimit:10;overflow:visible"
       inkscape:connector-curvature="0" />
    <path
       d="m 40.490076,42.820074 c 3.091502,-0.34605 6.93168,0.428567 6.93168,3.882678 0,3.61275 -1.069855,5.387157 -4.758962,6.29484 -1.963324,0.482912 -3.920371,1.044545 -5.82355,1.706476 -2.230637,0.775816 -3.525276,1.687694 -5.47483,2.87989 -2.051417,1.254333 -2.890007,0.794198 -5.107885,0.360237 -1.678192,-0.328269 -4.014133,-1.051339 -4.014133,1.160827 0,1.846534 0.920809,3.384581 1.274997,5.141206 0.442684,2.196181 2.206538,2.445529 3.832685,3.239327 1.648423,0.804588 2.076122,1.940839 4.241753,1.5842 2.080982,-0.342455 4.015551,-1.007183 6.042058,-1.577207 3.850911,-1.083106 7.55561,-2.645327 11.421913,-3.733428 2.100017,-0.591004 3.473433,0.165433 3.473433,-2.294682 0,-1.837743 -1.064184,-2.97939 -1.823593,-4.601151 -0.28493,-0.608585 -0.505665,-1.245343 -0.7264,-1.80098 -1.000799,2.196181 -2.893246,5.747993 -5.342997,6.956371 -3.279633,1.617965 -5.998113,0.826965 -9.439349,1.506878 -1.550207,0.30629 -7.948478,2.765806 -8.671435,0.618975 -1.376655,-4.088469 2.900942,-5.310236 5.935944,-6.200536 3.068416,-0.900091 6.02363,-2.211566 9.133762,-2.974595 1.628983,-0.399596 2.905802,-1.103685 4.446491,-1.612971 1.871588,-0.618574 1.711808,-1.788392 2.204107,-3.253512 0.77804,-2.315262 0.585252,-5.532411 -1.189335,-7.282443 -1.206143,-1.189998 -5.119833,-0.214783 -6.566354,-4e-4"
       id="path21"
       style="fill:#8f0000;overflow:visible"
       inkscape:connector-curvature="0" />
    <path
       d="m 35.741848,52.904686 c -2.383733,-3.006962 -7.398059,-0.860131 -10.033713,-3.422143 -1.952389,-1.898082 6.922365,-4.400354 8.206272,-4.861288 -1.302336,0.704288 -3.685057,2.723048 -3.647592,4.68107 0.04192,2.165213 3.848278,2.467907 5.475033,3.602361"
       id="path23"
       style="fill:#8f0000;overflow:visible"
       inkscape:connector-curvature="0" />
    <path
       d="m 19.317964,55.784377 c -1.821771,0.974615 -6.833463,1.462722 -6.93168,3.960598 -0.104495,2.659713 4.901932,3.162005 4.381282,5.761779 1.687304,-2.520453 3.416124,-7.107419 2.550398,-9.722377"
       id="path25"
       style="fill:#8f0000;overflow:visible"
       inkscape:connector-curvature="0" />
    <path
       d="m 13.846778,71.266335 c 2.084223,-1.234752 6.751853,-2.933836 9.122018,-1.440944 -1.191563,-0.522672 -2.708153,-0.898892 -3.650832,-1.80118 3.590889,-0.977213 8.7978,1.001787 12.371072,1.881698 1.815088,0.44695 3.631999,1.202186 5.1899,2.227151 2.862059,1.883097 0.723969,2.717254 -1.499984,3.814146 5.044499,-1.542841 10.029055,-4.26589 14.233547,-7.381742 1.08241,-0.80219 1.973044,-1.84154 2.916939,-2.700671 0.790594,-0.719673 2.18649,-1.072517 2.739137,-1.620963 0.877471,-0.87072 3.597572,1.859322 3.828837,2.701471 -1.12919,-1.666516 -2.111967,-2.498875 -4.010489,-1.438946 -2.137887,1.193594 -4.336932,3.350814 -6.291954,4.892257 -3.142331,2.477298 -8.691686,6.98754 -12.969485,6.98754 -4.794806,0 -8.674877,-2.733837 -11.942967,-5.939798 -2.787537,-2.734438 -6.807543,0.273723 -10.035739,-0.180019"
       id="path27"
       style="fill:#8f0000;overflow:visible"
       inkscape:connector-curvature="0" />
  </g>
  <metadata
     id="metadata31">
    <rdf:RDF>
      <cc:Work
         rdf:about="">
        <dc:title />
        <dc:description />
        <dc:subject>
          <rdf:Bag>
            <rdf:li>tie</rdf:li>
          </rdf:Bag>
        </dc:subject>
        <dc:publisher>
          <cc:Agent>
            <dc:title />
          </cc:Agent>
        </dc:publisher>
        <dc:creator>
          <cc:Agent>
            <dc:title>Nicu Buculei</dc:title>
          </cc:Agent>
        </dc:creator>
        <dc:rights>
          <cc:Agent>
            <dc:title>Nicu Buculei</dc:title>
          </cc:Agent>
        </dc:rights>
        <dc:date />
        <dc:format>image/svg+xml</dc:format>
        <dc:type
           rdf:resource="http://purl.org/dc/dcmitype/StillImage" />
        <cc:license
           rdf:resource="http://web.resource.org/cc/PublicDomain" />
        <dc:language>en</dc:language>
      </cc:Work>
      <cc:License
         rdf:about="http://web.resource.org/cc/PublicDomain">
        <cc:permits
           rdf:resource="http://web.resource.org/cc/Reproduction" />
        <cc:permits
           rdf:resource="http://web.resource.org/cc/Distribution" />
        <cc:permits
           rdf:resource="http://web.resource.org/cc/DerivativeWorks" />
      </cc:License>
    </rdf:RDF>
  </metadata>
</svg>
