<?xml version="1.0" encoding="UTF-8" standalone="no"?>
<!-- Created with Inkscape (http://www.inkscape.org/) -->

<svg
   xmlns:dc="http://purl.org/dc/elements/1.1/"
   xmlns:cc="http://creativecommons.org/ns#"
   xmlns:rdf="http://www.w3.org/1999/02/22-rdf-syntax-ns#"
   xmlns:svg="http://www.w3.org/2000/svg"
   xmlns="http://www.w3.org/2000/svg"
   xmlns:sodipodi="http://sodipodi.sourceforge.net/DTD/sodipodi-0.dtd"
   xmlns:inkscape="http://www.inkscape.org/namespaces/inkscape"
   width="64px"
   height="64px"
   id="svg3143"
   version="1.1"
   inkscape:version="0.48.0 r9654"
   sodipodi:docname="New document 8">
  <defs
     id="defs3145" />
  <sodipodi:namedview
     id="base"
     pagecolor="#ffffff"
     bordercolor="#666666"
     borderopacity="1.0"
     inkscape:pageopacity="0.0"
     inkscape:pageshadow="2"
     inkscape:zoom="5.5"
     inkscape:cx="35.363636"
     inkscape:cy="33.149402"
     inkscape:current-layer="layer1"
     showgrid="true"
     inkscape:document-units="px"
     inkscape:grid-bbox="true"
     inkscape:snap-bbox="true"
     inkscape:window-width="1256"
     inkscape:window-height="701"
     inkscape:window-x="0"
     inkscape:window-y="37"
     inkscape:window-maximized="1" />
  <metadata
     id="metadata3148">
    <rdf:RDF>
      <cc:Work
         rdf:about="">
        <dc:format>image/svg+xml</dc:format>
        <dc:type
           rdf:resource="http://purl.org/dc/dcmitype/StillImage" />
        <dc:title></dc:title>
      </cc:Work>
    </rdf:RDF>
  </metadata>
  <g
     id="layer1"
     inkscape:label="Layer 1"
     inkscape:groupmode="layer">
    <path
       inkscape:connector-curvature="0"
       style="fill:#008000;fill-opacity:1;fill-rule:evenodd;stroke:none"
       d="M 29.453453,0.96474139 14.550083,1.2102878 6.0974253,2.1106266 3.2057263,5.1799628 c 0,0 0.506278,4.0821309 1.011084,7.5301052 0.504805,3.447975 -1.132414,7.592237 -1.132414,8.103049 0,0.510811 0.247531,8.498251 0.12133,9.39217 -0.126201,0.893919 -0.122066,13.276554 -0.626872,14.425881 -0.504805,1.149325 -0.349375,9.485364 -0.72798,10.251583 -0.378604,0.766218 1.961503,3.580892 1.961503,3.580892 0,0 3.236939,2.583171 4.24655,2.45547 1.009611,-0.127703 7.5561067,-0.541876 9.8277307,-0.286472 2.271625,0.255405 9.937392,-0.327395 12.335219,-0.327395 2.397826,0 17.958312,0.843879 18.967926,0.716177 1.009611,-0.127702 6.127901,-2.07729 6.632711,-2.332694 0.5048,-0.255405 2.406375,-3.969679 2.406375,-3.969676 l 0.748202,-5.995438 0.384214,-9.31032 1.011084,-9.842339 -0.121332,-13.668778 -0.14155,-6.6297662 c 0,0 -1.891094,-4.349344 -2.1435,-5.1155611 -0.2524,-0.7662161 -2.1435,-2.1689973 -2.143493,-2.1689973 0,0 -7.05884,0 -8.06845,0 -1.00961,0 -12.881203,0.1227732 -12.881203,0.1227732 L 29.453453,0.96474139 z m 0.202217,2.33269521 4.913866,1.0640367 c -10e-7,0 10.771787,-0.1227732 11.688125,-0.1227732 0.91634,-9e-7 7.340466,0 7.340466,0 -3e-6,-9e-7 1.712196,1.2987026 1.94128,2.0053002 0.229083,0.7065951 1.94128,4.7267777 1.94128,4.7267777 l 0.121332,6.11821 0.121331,12.604743 -0.930196,9.064773 -0.34377,8.594142 -0.687539,5.524805 c 0,-2e-6 -1.705548,3.42721 -2.163718,3.662741 -0.458171,0.235533 -5.109719,2.030771 -6.026057,2.148537 -0.916342,0.117767 -15.032338,-0.654792 -17.208641,-0.654792 -2.176305,10e-7 -9.141043,0.522003 -11.202806,0.286471 -2.061761,-0.23553 -8.001416,0.148243 -8.917755,0.266009 -0.9163387,0.117763 -3.8421177,-2.250846 -3.8421177,-2.250846 0,-1e-6 -2.143355,-2.608288 -1.799729,-3.314885 0.343627,-0.706595 0.188925,-8.373199 0.647094,-9.433093 0.458169,-1.059894 0.471886,-12.496559 0.586428,-13.320921 0.114542,-0.824361 -0.101108,-8.184465 -0.101108,-8.655528 0,-0.471065 1.469252,-4.289038 1.011083,-7.468719 -0.458169,-3.17968 -0.909975,-6.957162 -0.909975,-6.957162 L 8.4633603,4.3614733 16.147594,3.5429838 29.65567,3.2974366 z"
       id="path28146" />
    <path
       inkscape:connector-curvature="0"
       style="fill:#008000;fill-opacity:1;fill-rule:evenodd;stroke:none"
       d="m 58.650767,39.18428 0,3.058947 -14.446285,-1.631439 -13.048256,0.61179 -21.6694271,0.20393 -5.5921106,0.407859 0,-2.855017 7.5726497,-1.019648 9.203682,0.815719 11.883232,-0.61179 19.106378,-0.407859 6.990137,1.427508 z"
       id="path3537" />
    <path
       inkscape:connector-curvature="0"
       style="fill:#008000;fill-opacity:1;fill-rule:evenodd;stroke:none"
       d="m 59.92349,21.729735 0,3.058947 -14.63816,-1.631439 -13.221562,0.61179 -21.95724,0.20393 -5.6663853,0.407859 0,-2.855017 7.6732293,-1.019648 9.325926,0.815719 12.041068,-0.61179 19.360147,-0.407859 7.082977,1.427508 z"
       id="path3537-3" />
    <path
       sodipodi:type="arc"
       style="opacity:0.96000001000000001;fill:#008000;fill-opacity:0"
       id="path3196"
       sodipodi:cx="77.36364"
       sodipodi:cy="46.454544"
       sodipodi:rx="3.1818182"
       sodipodi:ry="1.1818181"
       d="m 80.545458,46.454544 a 3.1818182,1.1818181 0 1 1 -6.172946,-0.402983 l 2.991128,0.402983 z"
       sodipodi:start="0"
       sodipodi:end="3.4895576" />
    <path
       sodipodi:type="arc"
       style="opacity:0.96000001000000001;fill:#008000;fill-opacity:0"
       id="path3198"
       sodipodi:cx="81.545456"
       sodipodi:cy="44.18182"
       sodipodi:rx="5.3636365"
       sodipodi:ry="1.8181819"
       d="M 86.909092,44.18182 A 5.3636365,1.8181819 0 1 1 76.50327,43.561846 l 5.042186,0.619974 z"
       sodipodi:start="0"
       sodipodi:end="3.4895576" />
    <path
       inkscape:connector-curvature="0"
       style="fill:#008000;fill-opacity:1;fill-rule:evenodd;stroke:none"
       d="m 40.820645,2.6219612 3.058947,0 -1.631439,15.1178518 0.61179,13.654833 0.20393,22.676776 0.407859,5.852072 -2.855017,0 -1.019648,-7.924681 0.815719,-9.631534 -0.61179,-12.435651 -0.407859,-19.9945772 1.427508,-7.3150896 z"
       id="path3535" />
    <path
       inkscape:connector-curvature="0"
       style="fill:#008000;fill-opacity:1;fill-rule:evenodd;stroke:none"
       d="m 22.638827,1.531052 3.058947,0 -1.631439,15.453633 0.61179,13.958121 0.20393,23.180452 0.407859,5.982052 -2.855017,0 -1.019648,-8.100695 0.815719,-9.845461 -0.61179,-12.71186 L 21.211319,9.0086168 22.638827,1.531052 z"
       id="path3535-6" />
    <path
       sodipodi:type="star"
       style="opacity:0.96000001000000001;fill:#008000;fill-opacity:0"
       id="path3227"
       sodipodi:sides="5"
       sodipodi:cx="-38.181818"
       sodipodi:cy="9.6363636"
       sodipodi:r1="5.5297841"
       sodipodi:r2="2.764892"
       sodipodi:arg1="1.4056476"
       sodipodi:arg2="2.0339662"
       inkscape:flatsided="false"
       inkscape:rounded="0"
       inkscape:randomized="0"
       d="m -37.272725,15.090909 -2.144407,-2.98096 -3.671341,0.07656 2.172404,-2.9606193 -1.207319,-3.4679943 3.487026,1.1511968 2.925177,-2.2198976 -0.0173,3.6720984 3.015178,2.096022 -3.49772,1.118285 z"
       inkscape:transform-center-x="-0.28092454"
       inkscape:transform-center-y="0.25368763" />
    <path
       sodipodi:type="arc"
       style="opacity:0.96000001000000001;fill:#008000;fill-opacity:0"
       id="path3229"
       sodipodi:cx="-61"
       sodipodi:cy="20.818182"
       sodipodi:rx="2.4545455"
       sodipodi:ry="2.090909"
       d="m -58.545455,20.818182 a 2.4545455,2.090909 0 1 1 -4.761986,-0.71297 L -61,20.818182 z"
       sodipodi:start="0"
       sodipodi:end="3.4895576" />
    <path
       sodipodi:type="arc"
       style="fill:#ffff00;fill-rule:evenodd;stroke:#000000;stroke-width:1px;stroke-linecap:butt;stroke-linejoin:miter;stroke-opacity:1"
       id="path2449-5"
       sodipodi:cx="7.818182"
       sodipodi:cy="-406469"
       sodipodi:rx="1.8181819"
       sodipodi:ry="2.090909"
       d="m 9.6363639,-406469 a 1.8181819,2.090909 0 1 1 -3.6363638,0 1.8181819,2.090909 0 1 1 3.6363638,0 z"
       transform="matrix(0.9301472,0,0,0.8523018,41.63703,346482.99)" />
    <path
       sodipodi:type="arc"
       style="fill:#ffff00;fill-rule:evenodd;stroke:#000000;stroke-width:1px;stroke-linecap:butt;stroke-linejoin:miter;stroke-opacity:1"
       id="path2449-5-8"
       sodipodi:cx="7.818182"
       sodipodi:cy="-406469"
       sodipodi:rx="1.8181819"
       sodipodi:ry="2.090909"
       d="m 9.6363639,-406469 a 1.8181819,2.090909 0 1 1 -3.6363638,0 1.8181819,2.090909 0 1 1 3.6363638,0 z"
       transform="matrix(0.9301472,0,0,0.8523018,46.182485,346479.17)" />
    <path
       sodipodi:type="arc"
       style="fill:#008000;fill-rule:evenodd;stroke:#000000;stroke-width:1px;stroke-linecap:butt;stroke-linejoin:miter;stroke-opacity:1"
       id="path2449-5-80"
       sodipodi:cx="7.818182"
       sodipodi:cy="-406469"
       sodipodi:rx="1.8181819"
       sodipodi:ry="2.090909"
       d="m 9.6363639,-406469 a 1.8181819,2.090909 0 1 1 -3.6363638,0 1.8181819,2.090909 0 1 1 3.6363638,0 z"
       transform="matrix(0.9301472,0,0,0.8523018,40.364303,346206.08)" />
    <path
       sodipodi:type="arc"
       style="fill:#6600cc;fill-rule:evenodd;stroke:#000000;stroke-width:1px;stroke-linecap:butt;stroke-linejoin:miter;stroke-opacity:1"
       id="path2449-5-5"
       sodipodi:cx="7.818182"
       sodipodi:cy="-406469"
       sodipodi:rx="1.8181819"
       sodipodi:ry="2.090909"
       d="m 9.6363639,-406469 a 1.8181819,2.090909 0 1 1 -3.6363638,0 1.8181819,2.090909 0 1 1 3.6363638,0 z"
       transform="matrix(0.9301472,0,0,0.8523018,3.6370307,346443.16)" />
    <path
       sodipodi:type="arc"
       style="fill:#ff0000;fill-rule:evenodd;stroke:#000000;stroke-width:1px;stroke-linecap:butt;stroke-linejoin:miter;stroke-opacity:1"
       id="path2449-5-1"
       sodipodi:cx="7.818182"
       sodipodi:cy="-406469"
       sodipodi:rx="1.8181819"
       sodipodi:ry="2.090909"
       d="m 9.6363639,-406469 a 1.8181819,2.090909 0 1 1 -3.6363638,0 1.8181819,2.090909 0 1 1 3.6363638,0 z"
       transform="matrix(0.9301472,0,0,0.8523018,45.63703,346446.43)" />
    <path
       sodipodi:type="arc"
       style="fill:#0099ff;fill-rule:evenodd;stroke:#000000;stroke-width:1px;stroke-linecap:butt;stroke-linejoin:miter;stroke-opacity:1"
       id="path2449-5-16"
       sodipodi:cx="7.818182"
       sodipodi:cy="-406469"
       sodipodi:rx="1.8181819"
       sodipodi:ry="2.090909"
       d="m 9.6363639,-406469 a 1.8181819,2.090909 0 1 1 -3.6363638,0 1.8181819,2.090909 0 1 1 3.6363638,0 z"
       transform="matrix(0.9301472,0,0,-0.8523018,25.455213,-346403.17)" />
    <path
       sodipodi:type="arc"
       style="fill:#ff00ff;fill-rule:evenodd;stroke:#000000;stroke-width:1px;stroke-linecap:butt;stroke-linejoin:miter;stroke-opacity:1"
       id="path2449-5-4"
       sodipodi:cx="7.818182"
       sodipodi:cy="-406469"
       sodipodi:rx="1.8181819"
       sodipodi:ry="2.090909"
       d="m 9.6363639,-406469 a 1.8181819,2.090909 0 1 1 -3.6363638,0 1.8181819,2.090909 0 1 1 3.6363638,0 z"
       transform="matrix(0.9301472,0,0,0.8523018,4.1824857,346478.27)" />
    <path
       sodipodi:type="arc"
       style="fill:#ff00ff;fill-rule:evenodd;stroke:#000000;stroke-width:1px;stroke-linecap:butt;stroke-linejoin:miter;stroke-opacity:1"
       id="path2449-5-85"
       sodipodi:cx="7.818182"
       sodipodi:cy="-406469"
       sodipodi:rx="1.8181819"
       sodipodi:ry="2.090909"
       d="m 9.6363639,-406469 a 1.8181819,2.090909 0 1 1 -3.6363638,0 1.8181819,2.090909 0 1 1 3.6363638,0 z"
       transform="matrix(0.9301472,0,0,0.8523018,4.1824861,346482.99)" />
    <path
       sodipodi:type="arc"
       style="fill:#ff00ff;fill-rule:evenodd;stroke:#000000;stroke-width:1px;stroke-linecap:butt;stroke-linejoin:miter;stroke-opacity:1"
       id="path2449-5-40"
       sodipodi:cx="7.818182"
       sodipodi:cy="-406469"
       sodipodi:rx="1.8181819"
       sodipodi:ry="2.090909"
       d="m 9.6363639,-406469 a 1.8181819,2.090909 0 1 1 -3.6363638,0 1.8181819,2.090909 0 1 1 3.6363638,0 z"
       transform="matrix(0.9301472,0,0,0.8523018,8.909758,346482.99)" />
    <path
       sodipodi:type="arc"
       style="fill:#ff0000;fill-rule:evenodd;stroke:#000000;stroke-width:1px;stroke-linecap:butt;stroke-linejoin:miter;stroke-opacity:1"
       id="path2449-5-83"
       sodipodi:cx="7.818182"
       sodipodi:cy="-406469"
       sodipodi:rx="1.8181819"
       sodipodi:ry="2.090909"
       d="m 9.6363639,-406469 a 1.8181819,2.090909 0 1 1 -3.6363638,0 1.8181819,2.090909 0 1 1 3.6363638,0 z"
       transform="matrix(0.9301472,0,0,0.8523018,41.273395,346450.99)" />
    <path
       sodipodi:type="arc"
       style="fill:#ff0000;fill-rule:evenodd;stroke:#000000;stroke-width:1px;stroke-linecap:butt;stroke-linejoin:miter;stroke-opacity:1"
       id="path2449-5-806"
       sodipodi:cx="7.818182"
       sodipodi:cy="-406469"
       sodipodi:rx="1.8181819"
       sodipodi:ry="2.090909"
       d="m 9.6363639,-406469 a 1.8181819,2.090909 0 1 1 -3.6363638,0 1.8181819,2.090909 0 1 1 3.6363638,0 z"
       transform="matrix(0.9301472,0,0,0.8523018,45.637031,346451.17)"
       inkscape:transform-center-y="2.2272726" />
    <path
       sodipodi:type="arc"
       style="fill:#0099ff;fill-rule:evenodd;stroke:#000000;stroke-width:1px;stroke-linecap:butt;stroke-linejoin:miter;stroke-opacity:1"
       id="path2449-5-2"
       sodipodi:cx="7.818182"
       sodipodi:cy="-406469"
       sodipodi:rx="1.8181819"
       sodipodi:ry="2.090909"
       d="m 9.6363639,-406469 a 1.8181819,2.090909 0 1 1 -3.6363638,0 1.8181819,2.090909 0 1 1 3.6363638,0 z"
       transform="matrix(0.9301472,0,0,0.8523018,21.637031,346461.9)" />
  </g>
</svg>
