<?xml version="1.0" encoding="UTF-8" standalone="no"?>
<!-- Created with Sodipodi ("http://www.sodipodi.com/") -->
<svg
   xmlns:dc="http://purl.org/dc/elements/1.1/"
   xmlns:cc="http://creativecommons.org/ns#"
   xmlns:rdf="http://www.w3.org/1999/02/22-rdf-syntax-ns#"
   xmlns:svg="http://www.w3.org/2000/svg"
   xmlns="http://www.w3.org/2000/svg"
   xmlns:xlink="http://www.w3.org/1999/xlink"
   xmlns:sodipodi="http://sodipodi.sourceforge.net/DTD/sodipodi-0.dtd"
   xmlns:inkscape="http://www.inkscape.org/namespaces/inkscape"
   id="svg645"
   sodipodi:version="0.32"
   width="97.758232"
   height="99.919449"
   xml:space="preserve"
   sodipodi:docbase="/home/franck/Dessins/Vectoriels/Transports"
   sodipodi:docname="bell.svg"
   inkscape:version="0.46"
   inkscape:output_extension="org.inkscape.output.svg.inkscape"
   sodipodi:modified="true"
   version="1.0"><metadata
     id="metadata134"><rdf:RDF><cc:Work
         rdf:about=""><dc:format>image/svg+xml</dc:format><dc:type
           rdf:resource="http://purl.org/dc/dcmitype/StillImage" /></cc:Work></rdf:RDF></metadata><defs
     id="defs647"><inkscape:perspective
       sodipodi:type="inkscape:persp3d"
       inkscape:vp_x="0 : 161.95354 : 1"
       inkscape:vp_y="0 : 1000 : 0"
       inkscape:vp_z="527.67444 : 161.95354 : 1"
       inkscape:persp3d-origin="263.83722 : 107.96902 : 1"
       id="perspective143" /><linearGradient
       id="linearGradient715"><stop
         style="stop-color:#0052ff;stop-opacity:1;"
         offset="0"
         id="stop716" /><stop
         style="stop-color:#dddfdf;stop-opacity:1;"
         offset="1"
         id="stop717" /></linearGradient><linearGradient
       id="linearGradient699"><stop
         style="stop-color:#000000;stop-opacity:1;"
         offset="0"
         id="stop700" /><stop
         style="stop-color:#dddfdf;stop-opacity:1;"
         offset="1"
         id="stop701" /></linearGradient><linearGradient
       xlink:href="#linearGradient699"
       id="linearGradient702"
       x1="143.54929"
       y1="1014.2485"
       x2="142.77808"
       y2="964.76501"
       gradientTransform="scale(1.7768461,0.5627949)"
       gradientUnits="userSpaceOnUse" /><radialGradient
       xlink:href="#linearGradient699"
       id="radialGradient703"
       cx="221.24318"
       cy="718.33417"
       r="91.939926"
       fx="221.24318"
       fy="718.33417"
       gradientTransform="scale(1.3234588,0.7555958)"
       gradientUnits="userSpaceOnUse" /><linearGradient
       xlink:href="#linearGradient699"
       id="linearGradient706"
       x1="420.80914"
       y1="708.74402"
       x2="442.98117"
       y2="683.85504"
       gradientTransform="scale(1.1029551,0.9066552)"
       gradientUnits="userSpaceOnUse" /><linearGradient
       xlink:href="#linearGradient699"
       id="linearGradient708"
       gradientTransform="scale(0.8563472,1.1677507)"
       x1="321.7818"
       y1="651.17212"
       x2="338.85068"
       y2="651.17212"
       gradientUnits="userSpaceOnUse" /><linearGradient
       xlink:href="#linearGradient699"
       id="linearGradient710"
       gradientTransform="scale(1.5155992,0.6598051)"
       x1="195.60649"
       y1="995.44781"
       x2="215.85988"
       y2="995.44781"
       gradientUnits="userSpaceOnUse" /><linearGradient
       xlink:href="#linearGradient715"
       id="linearGradient714"
       x1="642.17004"
       y1="445.24878"
       x2="673.06696"
       y2="432.20035"
       gradientTransform="scale(0.7270791,1.3753662)"
       gradientUnits="userSpaceOnUse" /><linearGradient
       xlink:href="#linearGradient715"
       id="linearGradient718"
       x1="582.60278"
       y1="393.08429"
       x2="649.56989"
       y2="393.65305"
       gradientTransform="scale(0.4773342,2.0949682)"
       gradientUnits="userSpaceOnUse" /><linearGradient
       xlink:href="#linearGradient715"
       id="linearGradient719"
       x1="1861.4944"
       y1="81.159164"
       x2="1738.1492"
       y2="80.272896"
       gradientTransform="scale(0.4116866,2.4290323)"
       gradientUnits="userSpaceOnUse" /><linearGradient
       xlink:href="#linearGradient715"
       id="linearGradient720"
       x1="237.75787"
       y1="887.77692"
       x2="262.30823"
       y2="856.07623"
       gradientTransform="scale(1.3677348,0.7311359)"
       gradientUnits="userSpaceOnUse" /><linearGradient
       xlink:href="#linearGradient715"
       id="linearGradient721"
       x1="157.66322"
       y1="329.52396"
       x2="208.93663"
       y2="328.92465"
       gradientTransform="scale(0.4868013,2.0542261)"
       gradientUnits="userSpaceOnUse" /><linearGradient
       xlink:href="#linearGradient699"
       id="linearGradient726"
       x1="180.71118"
       y1="297.5105"
       x2="203.88734"
       y2="297.5105"
       gradientTransform="scale(0.5045249,1.9820625)"
       gradientUnits="userSpaceOnUse" /><linearGradient
       xlink:href="#linearGradient699"
       id="linearGradient727"
       x1="186.98415"
       y1="1270.3788"
       x2="174.52737"
       y2="1243.33"
       gradientTransform="scale(2.0445839,0.4890971)"
       gradientUnits="userSpaceOnUse" /><linearGradient
       xlink:href="#linearGradient699"
       id="linearGradient735"
       x1="63.264988"
       y1="880.95563"
       x2="78.471832"
       y2="880.95563"
       gradientTransform="scale(1.4005465,0.714007)"
       gradientUnits="userSpaceOnUse" /><linearGradient
       xlink:href="#linearGradient699"
       id="linearGradient757"
       x1="136.07536"
       y1="367.25668"
       x2="119.98525"
       y2="356.59967"
       gradientTransform="scale(0.7689957,1.3003973)"
       gradientUnits="userSpaceOnUse" /><linearGradient
       xlink:href="#linearGradient699"
       id="linearGradient764"
       x1="-166.4194"
       y1="996.65234"
       x2="-165.38391"
       y2="986.05389"
       gradientTransform="scale(1.3351412,0.7489845)"
       gradientUnits="userSpaceOnUse" /><linearGradient
       xlink:href="#linearGradient699"
       id="linearGradient774"
       x1="388.66434"
       y1="816.21985"
       x2="382.35419"
       y2="829.94891"
       spreadMethod="reflect"
       gradientTransform="scale(1.2624368,0.7921189)"
       gradientUnits="userSpaceOnUse" /><radialGradient
       xlink:href="#linearGradient699"
       id="radialGradient775"
       cx="187.37062"
       cy="750.5722"
       r="30.734865"
       fx="187.37062"
       fy="750.5722"
       gradientUnits="userSpaceOnUse" /><radialGradient
       xlink:href="#linearGradient699"
       id="radialGradient776"
       cx="188.39642"
       cy="750.57336"
       r="38.998211"
       fx="188.39642"
       fy="750.57336"
       gradientUnits="userSpaceOnUse" /><radialGradient
       xlink:href="#linearGradient699"
       id="radialGradient778"
       cx="186.71513"
       cy="750.9129"
       r="50.317612"
       fx="186.71513"
       fy="750.9129"
       gradientUnits="userSpaceOnUse" /><radialGradient
       xlink:href="#linearGradient699"
       id="radialGradient781"
       cx="129.00552"
       cy="375.56113"
       r="250.81311"
       fx="129.00552"
       fy="375.56113"
       gradientUnits="userSpaceOnUse" /><radialGradient
       xlink:href="#linearGradient699"
       id="radialGradient804"
       cx="319.65692"
       cy="760.24048"
       r="38.65929"
       fx="319.65692"
       fy="760.24048"
       gradientTransform="scale(1.0127392,0.987421)"
       gradientUnits="userSpaceOnUse" /><radialGradient
       xlink:href="#linearGradient699"
       id="radialGradient835"
       cx="436.68076"
       cy="895.08777"
       r="17.401068"
       fx="436.68076"
       fy="895.08777"
       spreadMethod="reflect"
       gradientUnits="userSpaceOnUse" /><radialGradient
       xlink:href="#linearGradient699"
       id="radialGradient836"
       cx="436.68085"
       cy="895.08759"
       r="17.401068"
       fx="436.68085"
       fy="895.08759"
       spreadMethod="reflect"
       gradientUnits="userSpaceOnUse" /><radialGradient
       xlink:href="#linearGradient699"
       id="radialGradient837"
       cx="471.80695"
       cy="784.64429"
       r="56.131378"
       fx="471.80695"
       fy="784.64429"
       gradientTransform="scale(0.9836942,1.016576)"
       spreadMethod="reflect"
       gradientUnits="userSpaceOnUse" /><radialGradient
       xlink:href="#linearGradient699"
       id="radialGradient846"
       cx="328.06409"
       cy="812.35944"
       r="7.2140231"
       fx="328.06409"
       fy="812.35944"
       gradientTransform="scale(1.0141835,0.9860148)"
       gradientUnits="userSpaceOnUse" /><linearGradient
       xlink:href="#linearGradient699"
       id="linearGradient856"
       x1="696.61359"
       y1="361.58817"
       x2="675.69464"
       y2="369.67035"
       spreadMethod="reflect"
       gradientTransform="scale(0.4865661,2.0552192)"
       gradientUnits="userSpaceOnUse" /><radialGradient
       xlink:href="#linearGradient699"
       id="radialGradient868"
       cx="190.82353"
       cy="745.48645"
       r="16.152641"
       fx="190.82353"
       fy="745.48645"
       spreadMethod="reflect"
       gradientTransform="scale(0.9999985,1.0000015)"
       gradientUnits="userSpaceOnUse" /><linearGradient
       xlink:href="#linearGradient699"
       id="linearGradient870"
       x1="-46.761921"
       y1="1503.0273"
       x2="-30.014202"
       y2="1499.5537"
       gradientTransform="scale(2.0248421,0.4938657)"
       gradientUnits="userSpaceOnUse" /><linearGradient
       xlink:href="#linearGradient699"
       id="linearGradient871"
       x1="-385.69083"
       y1="565.48224"
       x2="-383.98489"
       y2="612.30603"
       gradientTransform="scale(2.0248421,0.4938657)"
       gradientUnits="userSpaceOnUse" /><linearGradient
       xlink:href="#linearGradient715"
       id="linearGradient880"
       x1="44.489559"
       y1="2047.2246"
       x2="43.947762"
       y2="1893.1598"
       gradientTransform="scale(2.765127,0.361647)"
       gradientUnits="userSpaceOnUse" /><linearGradient
       xlink:href="#linearGradient699"
       id="linearGradient955"
       x1="120.40541"
       y1="1668.9957"
       x2="137.29768"
       y2="1621.8848"
       gradientTransform="scale(2.4138156,0.4142819)"
       gradientUnits="userSpaceOnUse" /><linearGradient
       xlink:href="#linearGradient699"
       id="linearGradient956"
       x1="344.74869"
       y1="568.80768"
       x2="374.22073"
       y2="551.32501"
       gradientTransform="scale(0.8094266,1.2354424)"
       gradientUnits="userSpaceOnUse" /><linearGradient
       xlink:href="#linearGradient699"
       id="linearGradient957"
       x1="393.48932"
       y1="570.02405"
       x2="428.18524"
       y2="542.33588"
       gradientTransform="scale(0.8094266,1.2354424)"
       gradientUnits="userSpaceOnUse" /><radialGradient
       xlink:href="#linearGradient699"
       id="radialGradient983"
       cx="357.36041"
       cy="688.1203"
       r="4.4593763"
       fx="357.36041"
       fy="688.1203"
       gradientTransform="scale(1.0145993,0.9856108)"
       gradientUnits="userSpaceOnUse" /><linearGradient
       xlink:href="#linearGradient699"
       id="linearGradient998"
       x1="295.4556"
       y1="854.65784"
       x2="303.06595"
       y2="838.87573"
       gradientTransform="scale(1.5470453,0.6463935)"
       gradientUnits="userSpaceOnUse" /><radialGradient
       inkscape:collect="always"
       xlink:href="#linearGradient699"
       id="radialGradient2376"
       spreadMethod="reflect"
       cx="519.62872"
       cy="745.48645"
       fx="519.62872"
       fy="745.48645"
       r="16.152641"
       gradientTransform="scale(0.9999985,1.0000015)"
       gradientUnits="userSpaceOnUse" /><radialGradient
       inkscape:collect="always"
       xlink:href="#linearGradient699"
       id="radialGradient2378"
       gradientTransform="scale(1.0141835,0.9860148)"
       cx="328.06409"
       cy="812.35944"
       fx="328.06409"
       fy="812.35944"
       r="7.2140231"
       gradientUnits="userSpaceOnUse" /><linearGradient
       inkscape:collect="always"
       xlink:href="#linearGradient699"
       id="linearGradient2380"
       spreadMethod="reflect"
       x1="696.59027"
       y1="339.46188"
       x2="675.66437"
       y2="347.54675"
       gradientTransform="scale(0.4867516,2.0544361)"
       gradientUnits="userSpaceOnUse" /><radialGradient
       inkscape:collect="always"
       xlink:href="#linearGradient699"
       id="radialGradient2382"
       cx="186.71513"
       cy="750.9129"
       fx="186.71513"
       fy="750.9129"
       r="50.317612"
       gradientUnits="userSpaceOnUse" /><radialGradient
       inkscape:collect="always"
       xlink:href="#linearGradient699"
       id="radialGradient2384"
       cx="186.71513"
       cy="750.9129"
       fx="186.71513"
       fy="750.9129"
       r="50.317612"
       gradientUnits="userSpaceOnUse" /><radialGradient
       inkscape:collect="always"
       xlink:href="#linearGradient699"
       id="radialGradient2386"
       gradientTransform="scale(1.0145993,0.9856108)"
       cx="357.36041"
       cy="688.1203"
       fx="357.36041"
       fy="688.1203"
       r="4.4593763"
       gradientUnits="userSpaceOnUse" /><radialGradient
       inkscape:collect="always"
       xlink:href="#linearGradient699"
       id="radialGradient2388"
       gradientTransform="scale(1.0141835,0.9860148)"
       cx="328.06409"
       cy="812.35944"
       fx="328.06409"
       fy="812.35944"
       r="7.2140231"
       gradientUnits="userSpaceOnUse" /><inkscape:perspective
       id="perspective2542"
       inkscape:persp3d-origin="372.04724 : 350.78739 : 1"
       inkscape:vp_z="744.09448 : 526.18109 : 1"
       inkscape:vp_y="0 : 1000 : 0"
       inkscape:vp_x="0 : 526.18109 : 1"
       sodipodi:type="inkscape:persp3d" /></defs><sodipodi:namedview
     id="base"
     inkscape:zoom="1.4405687"
     inkscape:cx="367.5649"
     inkscape:cy="-118.97874"
     inkscape:window-width="1280"
     inkscape:window-height="974"
     inkscape:window-x="0"
     inkscape:window-y="25"
     inkscape:current-layer="svg645"
     showgrid="false" /><path
     id="path2562"
     d="M 17.73405,98.750003 C 16.47684,97.762123 16.03895,94.774003 15.64578,84.500003 C 15.09264,70.045623 13.49522,64.091923 6.2550799,49.5 C -0.52232011,35.84071 -1.5725501,26.66107 2.6627199,18.10082 C 4.5027799,14.38174 4.5058399,14.17888 2.7543999,12.01595 C 0.19291989,8.85265 0.50164989,5.31313 3.5885899,2.45225 C 6.9616199,-0.67376 11.05608,-0.70295 14.02128,2.37788 C 16.16021,4.60022 16.84539,4.72235 24.49619,4.24504 C 31.84998,3.78625 33.27334,4.00482 38.49266,6.3943 C 44.51822,9.15289 49.88947,13.08589 58.44257,21.00224 C 65.491265,27.52619 70.711175,30.31756 84.442565,34.90585 C 91.042565,37.11122 96.865205,39.56987 97.381765,40.36952 C 97.993035,41.31579 97.833555,43.33817 96.925025,46.16172 C 93.173765,57.81989 50.37316,91.624093 31.62495,97.736153 C 23.77663,100.29476 20.04643,100.56701 17.73405,98.750003 z"
     style="fill:#f0cb39" /><path
     id="path2558"
     d="M 17.94257,99.021213 C 16.75557,98.270893 16.41326,95.509253 16.30211,85.786523 C 16.14019,71.622943 14.43364,64.925303 7.4353599,50.98763 C -0.52342011,35.13704 -1.6844101,27.65761 2.5080599,19.24443 L 5.0735399,14.09617 L 2.8627699,11.10594 C 0.92431986,8.48403 0.80139986,7.75503 1.8648699,5.18757 C 3.0531099,2.31892 6.5056399,6.3282712e-15 9.5884099,6.3282712e-15 C 10.44187,6.3282712e-15 12.4146,1.36431 13.97227,3.03179 C 16.72889,5.98276 16.9271,6.03269 21.40705,4.90463 C 31.40735,2.38652 41.6503,6.63935 55.44257,19.03601 C 65.535015,28.10723 73.186945,32.26546 87.713945,36.57302 C 95.447515,38.86618 97.082025,39.70746 97.568335,41.64509 C 98.479255,45.27446 94.049535,51.71941 84.207835,61.083743 C 59.07341,84.999043 25.85012,104.01967 17.94257,99.021213 z M 41.58551,85.865713 C 42.86299,84.665593 44.18178,82.821673 44.51617,81.768113 C 45.26579,79.406273 43.27657,74.342153 41.3015,73.584243 C 39.52486,72.902483 27.94257,83.854063 27.94257,86.215733 C 27.94257,88.383383 32.72864,89.893873 36.3527,88.869963 C 37.95327,88.417753 40.30803,87.065843 41.58551,85.865713 z M 41.94257,64.819503 C 48.06258,59.6872 66.683235,48.46674 77.442565,43.42785 C 85.263305,39.76519 85.599675,40.48371 74.176945,36.45214 C 67.364425,34.04771 61.37807,35.18991 49.3198,41.19489 C 38.95017,46.35893 31.82686,52.46341 27.7583,59.67252 C 24.73815,65.023933 22.40462,66.367663 21.26932,63.409113 C 19.6929,59.30104 28.77136,48.01319 40.02295,40.09145 C 44.05741,37.25098 49.57069,34.5279 54.27295,33.05319 C 58.49124,31.73027 61.91608,30.38961 61.8837,30.07394 C 61.77354,28.9999 40.94773,12.54633 37.18685,10.56202 C 34.68329,9.2411 31.45438,8.57958 27.44257,8.56567 C 16.81387,8.52883 6.0535999,16.56078 4.3148199,25.82927 C 3.3769399,30.82862 5.1539399,36.71705 11.45812,49.5 C 17.16138,61.064443 19.4059,68.134283 20.53083,78.077383 L 21.21063,84.085973 L 28.8266,76.758913 C 33.01538,72.729033 38.91757,67.356293 41.94257,64.819503 z M 10.61967,7.39908 C 11.31977,5.57466 9.2875799,3.93038 7.2832499,4.69951 C 6.5458799,4.98247 5.9425699,6.06583 5.9425699,7.10699 C 5.9425699,9.4696698 9.7342397,9.7064598 10.61967,7.39908 z"
     style="fill:#dc9e2e" /><path
     id="path2554"
     d="M 17.64226,98.556833 C 16.26631,97.180893 16.084,95.628603 16.59223,89.616313 C 17.64741,77.133513 15.08568,66.464233 6.9601499,49.5 C -0.92849011,33.03032 -1.6947401,27.76478 2.5704899,19.33471 L 5.1984099,14.14071 L 3.0704899,11.4355 C 0.24782989,7.84707 0.38240989,6.40631 3.8656499,2.92308 C 7.5886599,-0.79994 10.41536,-0.7759 13.95084,3.00886 C 16.71736,5.97043 16.84427,5.99997 22.02608,4.88867 C 32.43545,2.65626 41.86481,6.86061 56.93561,20.45409 C 65.695305,28.35512 70.512665,30.98277 85.375485,35.96672 C 91.388585,37.9831 96.752725,40.33726 97.295785,41.19819 C 99.042465,43.96725 95.892015,49.12139 86.978875,58.07666 C 61.86505,83.309223 24.31635,105.23092 17.64226,98.556833 z M 26.9377,95.024173 C 28.22026,94.213353 28.14917,93.864623 26.4377,92.571293 C 25.34038,91.742063 24.1209,91.049303 23.72775,91.031803 C 23.03164,91.000833 20.94257,94.302963 20.94257,95.434263 C 20.94257,96.350493 25.31256,96.051563 26.9377,95.024173 z M 41.30207,86.989223 C 43.18807,85.333283 45.01328,82.854403 45.35809,81.480593 C 46.14166,78.358583 43.51039,73.000003 41.19379,73.000003 C 39.25241,73.000003 26.94257,84.809023 26.94257,86.671423 C 26.94257,88.532863 30.01137,89.935653 34.15777,89.969593 C 36.89022,89.991963 38.78006,89.203583 41.30207,86.989223 z M 27.3379,78.599353 C 36.24087,67.316773 64.6746,48.48879 81.725085,42.58576 C 83.769705,41.8779 85.364985,40.89402 85.270175,40.39937 C 85.175355,39.90472 81.575355,38.25446 77.270175,36.73213 C 70.162455,34.21881 68.982725,34.06809 64.44257,35.09323 C 50.10173,38.3313 33.25283,49.49533 27.25141,59.73599 C 24.5677,64.315383 21.94257,65.354573 21.94257,61.837553 C 21.94257,58.57782 27.55166,50.49731 33.31677,45.45177 C 38.85276,40.60676 50.83526,33.96836 57.72036,31.93199 C 60.07315,31.23612 61.87315,30.33752 61.72036,29.93511 C 60.83873,27.61304 42.45351,13.25767 37.14457,10.74607 C 31.81145,8.22304 29.94656,7.83166 24.972,8.19149 C 17.69513,8.71785 10.81529,12.68218 6.4841599,18.84464 C 3.9278099,22.48187 3.4759799,24.03243 3.5426499,28.93919 C 3.6097899,33.88094 4.5331899,36.66109 9.8000797,47.77899 C 16.22316,61.337463 19.94257,73.334333 19.94257,80.493303 C 19.94257,85.569743 20.86285,86.715093 22.90429,84.179333 C 23.75034,83.128403 25.74547,80.617413 27.3379,78.599353 z M 63.44257,73.606353 C 79.951035,61.102523 95.695805,45.41991 93.722185,43.44629 C 91.615095,41.33919 59.97143,57.32685 48.74926,66.168423 L 45.05595,69.078263 L 47.49926,72.678683 C 48.93103,74.788503 49.94257,77.717963 49.94257,79.754563 L 49.94257,83.230023 L 52.69257,81.447863 C 54.20507,80.467673 59.04257,76.938993 63.44257,73.606353 z M 10.932,8.51273 C 12.55149,6.56137 11.50962,4 9.0963999,4 C 6.6703699,4 4.5423899,6.51477 5.2993099,8.48727 C 6.0430399,10.4254 9.3322899,10.44027 10.932,8.51273 z"
     style="fill:#0b0b0b;fill-opacity:1" /></svg>