<?xml version="1.0" encoding="UTF-8" standalone="no"?>
<!-- Created with Sodipodi ("http://www.sodipodi.com/") -->
<svg
   xmlns:dc="http://purl.org/dc/elements/1.1/"
   xmlns:cc="http://creativecommons.org/ns#"
   xmlns:rdf="http://www.w3.org/1999/02/22-rdf-syntax-ns#"
   xmlns:svg="http://www.w3.org/2000/svg"
   xmlns="http://www.w3.org/2000/svg"
   xmlns:xlink="http://www.w3.org/1999/xlink"
   xmlns:sodipodi="http://sodipodi.sourceforge.net/DTD/sodipodi-0.dtd"
   xmlns:inkscape="http://www.inkscape.org/namespaces/inkscape"
   id="svg792"
   sodipodi:version="0.32"
   width="110.35078"
   height="75.36322"
   xml:space="preserve"
   sodipodi:docbase="/home/franck/Dessins/Vectoriels/Transports"
   sodipodi:docname="car.svg"
   inkscape:version="0.46"
   inkscape:output_extension="org.inkscape.output.svg.inkscape"
   sodipodi:modified="true"
   version="1.0"><metadata
     id="metadata44"><rdf:RDF><cc:Work
         rdf:about=""><dc:format>image/svg+xml</dc:format><dc:type
           rdf:resource="http://purl.org/dc/dcmitype/StillImage" /></cc:Work></rdf:RDF></metadata><defs
     id="defs794"><inkscape:perspective
       sodipodi:type="inkscape:persp3d"
       inkscape:vp_x="0 : 197.29335 : 1"
       inkscape:vp_y="0 : 1000 : 0"
       inkscape:vp_z="577.7746 : 197.29335 : 1"
       inkscape:persp3d-origin="288.8873 : 131.5289 : 1"
       id="perspective55" /><linearGradient
       id="linearGradient641"><stop
         style="stop-color:#c20000;stop-opacity:1;"
         offset="0"
         id="stop642" /><stop
         style="stop-color:#ffffff;stop-opacity:1;"
         offset="1"
         id="stop643" /></linearGradient><linearGradient
       id="linearGradient837"><stop
         style="stop-color:#7f7f7f;stop-opacity:1;"
         offset="0"
         id="stop838" /><stop
         style="stop-color:#ffffff;stop-opacity:1;"
         offset="1"
         id="stop839" /></linearGradient><linearGradient
       id="linearGradient822"><stop
         style="stop-color:#c5efff;stop-opacity:1;"
         offset="0"
         id="stop823" /><stop
         style="stop-color:#ffffff;stop-opacity:1;"
         offset="1"
         id="stop824" /></linearGradient><linearGradient
       id="linearGradient817"><stop
         style="stop-color:#ff0000;stop-opacity:1;"
         offset="0"
         id="stop818" /><stop
         style="stop-color:#ffffff;stop-opacity:1;"
         offset="1"
         id="stop819" /></linearGradient><linearGradient
       xlink:href="#linearGradient817"
       id="linearGradient820"
       x1="0.47651008"
       y1="1.9615818"
       x2="0.147651"
       y2="-1.7692232" /><linearGradient
       xlink:href="#linearGradient822"
       id="linearGradient821"
       x1="-0.18279675"
       y1="0.17968646"
       x2="0.94086021"
       y2="0.90624994" /><linearGradient
       xlink:href="#linearGradient822"
       id="linearGradient825" /><linearGradient
       xlink:href="#linearGradient822"
       id="linearGradient826" /><radialGradient
       xlink:href="#linearGradient837"
       id="radialGradient836"
       cx="0.53906167"
       cy="0.52344126"
       r="0.73574668"
       fx="0.53906167"
       fy="0.52344126" /><linearGradient
       xlink:href="#linearGradient837"
       id="linearGradient842"
       x1="0.49651298"
       y1="-0.038699955"
       x2="0.50335413"
       y2="2.4807649"
       gradientTransform="translate(-3.75943e-7,-1.774755e-6)" /><linearGradient
       xlink:href="#linearGradient817"
       id="linearGradient635"
       x1="0.30536914"
       y1="0.83332908"
       x2="0.29530203"
       y2="-0.10000066" /><linearGradient
       xlink:href="#linearGradient641"
       id="linearGradient640"
       x1="0.43287358"
       y1="-0.061892509"
       x2="0.42617431"
       y2="1.4583448"
       gradientTransform="translate(-1.789022e-8,1.461358e-6)" /><linearGradient
       inkscape:collect="always"
       xlink:href="#linearGradient822"
       id="linearGradient2217"
       gradientTransform="scale(0.8091012,1.2359394)"
       x1="131.65865"
       y1="408.31509"
       x2="229.12833"
       y2="408.31509"
       gradientUnits="userSpaceOnUse" /><linearGradient
       inkscape:collect="always"
       xlink:href="#linearGradient822"
       id="linearGradient2219"
       x1="125.34569"
       y1="601.13239"
       x2="313.03018"
       y2="722.4903"
       gradientTransform="scale(1.3032509,0.767312)"
       gradientUnits="userSpaceOnUse" /><linearGradient
       inkscape:collect="always"
       xlink:href="#linearGradient822"
       id="linearGradient2221"
       gradientTransform="scale(1.1622879,0.860372)"
       x1="326.73798"
       y1="588.99829"
       x2="483.78781"
       y2="588.99829"
       gradientUnits="userSpaceOnUse" /><linearGradient
       inkscape:collect="always"
       xlink:href="#linearGradient817"
       id="linearGradient2223"
       x1="89.359894"
       y1="2317.9695"
       x2="42.098991"
       y2="1781.809"
       gradientTransform="scale(3.4273133,0.2917737)"
       gradientUnits="userSpaceOnUse" /><radialGradient
       inkscape:collect="always"
       xlink:href="#linearGradient837"
       id="radialGradient2225"
       cx="247.51872"
       cy="744.92212"
       fx="247.51872"
       fy="744.92212"
       r="104.71803"
       gradientTransform="scale(0.9958593,1.0041579)"
       gradientUnits="userSpaceOnUse" /><radialGradient
       inkscape:collect="always"
       xlink:href="#linearGradient837"
       id="radialGradient2227"
       cx="247.51872"
       cy="744.92212"
       fx="247.51872"
       fy="744.92212"
       r="104.71803"
       gradientTransform="scale(0.9958593,1.0041579)"
       gradientUnits="userSpaceOnUse" /><linearGradient
       inkscape:collect="always"
       xlink:href="#linearGradient837"
       id="linearGradient2229"
       gradientTransform="scale(2.4313645,0.4112917)"
       x1="251.35197"
       y1="1645.4783"
       x2="251.63348"
       y2="1749.1514"
       gradientUnits="userSpaceOnUse" /><linearGradient
       inkscape:collect="always"
       xlink:href="#linearGradient817"
       id="linearGradient2231"
       x1="110.36513"
       y1="859.70392"
       x2="108.42446"
       y2="679.78278"
       gradientTransform="scale(1.6743339,0.5972524)"
       gradientUnits="userSpaceOnUse" /><linearGradient
       inkscape:collect="always"
       xlink:href="#linearGradient641"
       id="linearGradient2233"
       gradientTransform="scale(1.7638361,0.5669461)"
       x1="136.48763"
       y1="1014.844"
       x2="136.30997"
       y2="1055.1562"
       gradientUnits="userSpaceOnUse" /></defs><sodipodi:namedview
     id="base"
     inkscape:zoom="1.0186359"
     inkscape:cx="299.17373"
     inkscape:cy="8.0295114"
     inkscape:window-width="822"
     inkscape:window-height="719"
     inkscape:window-x="426"
     inkscape:window-y="55"
     inkscape:current-layer="svg792"
     showgrid="false" /><g
     id="g2196"
     transform="matrix(0.1909928,0,0,0.1909928,-10.920481,-79.450617)"><path
       sodipodi:nodetypes="cccc"
       id="path802"
       d="M 184.763,445.2566 C 148.9029,439.971 102.5078,535.0553 107.5249,548.4407 C 125.0826,557.8525 157.5824,571.4495 170.4723,559.7103 C 181.2997,546.602 184.6004,462.0752 184.763,445.2566 z"
       style="fill:url(#linearGradient2217);fill-opacity:1;fill-rule:evenodd;stroke:#000000;stroke-width:1pt;stroke-linecap:butt;stroke-linejoin:miter;stroke-opacity:1" /><path
       sodipodi:nodetypes="cccccc"
       id="path803"
       d="M 214.4108,443.8605 C 222.6711,436.7735 339.8156,435.7369 355.304,450.532 C 361.0363,453.2721 412.1793,531.6934 415.643,537.1589 C 424.6255,550.3342 423.238,564.5459 384.5742,565.74 C 359.4057,566.0856 261.0466,562.8691 237.2927,561.9627 C 186.8606,552.1245 206.027,450.0925 214.4108,443.8605 z"
       style="fill:url(#linearGradient2219);fill-opacity:1;fill-rule:evenodd;stroke:#000000;stroke-width:1pt;stroke-linecap:butt;stroke-linejoin:miter;stroke-opacity:1" /><path
       sodipodi:nodetypes="cccccc"
       id="path804"
       d="M 407.7038,440.0304 C 397.8281,438.521 386.6637,445.4718 380.3886,452.4534 C 396.442,474.8507 443.8024,534.73 462.2952,552.5834 C 484.46,573.918 504.7154,570.6953 521.1974,573.0944 C 531.4342,574.4095 582.7836,575.57 551.9285,553.2324 C 541.2136,544.5165 421.3104,442.7102 407.7038,440.0304 z"
       style="fill:url(#linearGradient2221);fill-opacity:1;fill-rule:evenodd;stroke:#000000;stroke-width:1pt;stroke-linecap:butt;stroke-linejoin:miter;stroke-opacity:1" /><path
       sodipodi:nodetypes="ccccccsscscccccccssccssccccccc"
       id="path809"
       d="M 184.2614,446.4255 C 140.6448,450.7449 108.1885,521.4647 109.6622,538.3936 C 115.4082,544.2619 159.4062,550.6163 168.7525,544.783 C 170.7386,507.6461 179.1592,463.936 184.2614,446.4255 z M 214.9717,445.2444 C 223.232,438.1574 339.1115,437.1209 354.5998,451.916 C 360.3322,454.656 404.5315,522.3456 407.9952,527.811 C 422.1915,548.2165 429.2357,567.1347 382.0809,566.8128 C 358.0919,566.0286 268.1822,557.4722 241.9458,556.0794 C 190.5715,555.6654 206.5879,451.4764 214.9717,445.2444 z M 405.7595,437.7736 C 368.318,414.2683 269.5723,411.1864 194.3678,423.8348 C 123.8109,435.7011 85.5126,510.0538 61.8893,613.3294 C 58.1525,618.8211 65.3558,628.6548 59.6722,632.2263 C 52.7329,634.2467 65.6832,724.5735 100.2002,742.488 C 98.19,715.1833 107.4323,658.9739 175.0857,659.1048 C 235.652,659.2358 253.3462,702.3087 252.8986,756.1476 L 396.5461,756.8464 C 396.7134,716.1863 412.7488,663.7417 473.1836,663.9155 C 558.6181,665.4441 549.2007,741.1141 552.0428,757.9453 L 607.1516,757.1282 C 612.6269,747.7789 622.4955,731.1924 624.3671,713.5955 C 625.8756,696.6357 632.8349,679.9399 631.7654,671.6464 C 623.8685,612.7037 586.38,576.7366 570.809,564.6469 C 567.0445,561.4948 559.6088,557.7963 557.1784,559.7102 C 547.0534,572.9122 499.4346,561.115 489.2221,559.6296 C 473.897,557.4008 461.4356,550.1623 451.6648,539.7217 C 434.1414,520.9969 396.8596,476.3778 380.8063,453.9805 C 387.0813,446.999 396.4443,440.1914 406.32,441.7008 C 413.2362,441.9257 406.561,438.507 405.7595,437.7736 z"
       style="font-size:12px;fill:#ff0000;fill-opacity:1;fill-rule:evenodd;stroke:#000000;stroke-width:1" /><path
       sodipodi:nodetypes="ccccc"
       id="path811"
       d="M 100.3988,741.7163 C 93.31187,744.5297 60.30728,708.3939 57.80245,633.4053 C 61.03568,626.1318 73.28239,624.2874 95.6065,627.3309 C 131.8084,631.5599 206.8532,638.0024 231.3667,679.8692 C 160.2347,624.7247 99.93733,685.1807 100.3988,741.7163 z"
       style="fill:#7f7f7f;fill-opacity:1;fill-rule:evenodd;stroke:#000000;stroke-width:1pt;stroke-linecap:butt;stroke-linejoin:miter;stroke-opacity:1" /><path
       sodipodi:nodetypes="cccssscc"
       id="path813"
       d="M 531.9323,670.8464 C 551.2752,686.2014 561.0524,709.4968 563.4147,738.5814 L 616.5671,738.9451 C 618.6342,739.1293 618.9942,735.7181 622.6136,727.6566 C 629.0862,713.7051 610.9481,705.9559 612.198,699.0217 C 613.4479,692.0874 631.5004,692.0561 633.1478,688.2353 C 635.4653,681.6862 634.7937,671.2851 630.3322,670.5512 L 531.9323,670.8464 z"
       style="font-size:12px;fill:#808080;fill-rule:evenodd;stroke:#000000;stroke-opacity:1" /><path
       sodipodi:nodetypes="ccccc"
       id="path816"
       d="M 564.1067,636.0022 C 490.8746,624.4471 467.0326,622.4187 412.3272,617.694 C 285.571,610.6072 192.0403,607.9108 71.56167,618.2849 C 71.56167,606.2164 179.2663,594.0709 241.0586,594.0709 C 366.6335,594.0709 460.1643,597.9483 564.1067,636.0022 z"
       style="font-size:12px;fill:url(#linearGradient2223);fill-rule:evenodd;stroke-width:1" /><path
       transform="matrix(0.546777,0,0,0.542259,342.7591,335.9384)"
       sodipodi:ry="71.460358"
       sodipodi:rx="70.869789"
       sodipodi:cy="744.66919"
       sodipodi:cx="240.95724"
       d="M 311.82703,744.66919 A 70.869789,71.460358 0 1 1 170.08746,744.66919 A 70.869789,71.460358 0 1 1 311.82703,744.66919 z"
       id="path830"
       style="fill:url(#radialGradient2225);fill-opacity:1;fill-rule:evenodd;stroke:none;stroke-width:1pt;stroke-linecap:butt;stroke-linejoin:miter;stroke-opacity:1"
       sodipodi:type="arc" /><path
       id="path834"
       d="M 215.9245,736.8188 C 215.9245,758.2198 198.5756,775.5687 177.1745,775.5687 C 155.7735,775.5687 138.4246,758.2198 138.4246,736.8188 C 138.4246,715.4177 155.7735,698.0687 177.1745,698.0687 C 198.5756,698.0687 215.9245,715.4177 215.9245,736.8188 z M 248.4245,736.4011 C 248.4245,775.7514 216.5247,807.651 177.1744,807.651 C 137.8242,807.651 105.9245,775.7514 105.9245,736.4011 C 105.9245,697.0508 137.8242,665.1511 177.1744,665.1511 C 216.5247,665.1511 248.4245,697.0508 248.4245,736.4011 z"
       style="font-size:12px;fill:#5d5c5b;fill-opacity:1;fill-rule:evenodd;stroke-width:1" /><path
       id="path835"
       d="M 513.2589,739.742 C 513.2589,761.143 495.91,778.4919 474.5089,778.4919 C 453.1079,778.4919 435.759,761.143 435.759,739.742 C 435.759,718.3409 453.1079,700.9919 474.5089,700.9919 C 495.91,700.9919 513.2589,718.3409 513.2589,739.742 z M 545.7589,739.3243 C 545.7589,778.6746 513.8591,810.5742 474.5088,810.5742 C 435.1586,810.5742 403.2589,778.6746 403.2589,739.3243 C 403.2589,699.974 435.1586,668.0743 474.5088,668.0743 C 513.8591,668.0743 545.7589,699.974 545.7589,739.3243 z"
       style="font-size:12px;fill:#5d5c5b;fill-opacity:1;fill-rule:evenodd;stroke-width:1" /><path
       transform="matrix(0.546777,0,0,0.542259,45.42469,333.0151)"
       sodipodi:ry="71.460358"
       sodipodi:rx="70.869789"
       sodipodi:cy="744.66919"
       sodipodi:cx="240.95724"
       d="M 311.82703,744.66919 A 70.869789,71.460358 0 1 1 170.08746,744.66919 A 70.869789,71.460358 0 1 1 311.82703,744.66919 z"
       id="path840"
       style="fill:url(#radialGradient2227);fill-opacity:1;fill-rule:evenodd;stroke:none;stroke-width:1pt;stroke-linecap:butt;stroke-linejoin:miter;stroke-opacity:1"
       sodipodi:type="arc" /><path
       sodipodi:nodetypes="ccccc"
       id="path843"
       d="M 661.5011,694.3507 C 656.4899,694.3235 651.9004,694.2668 605.6036,693.8492 C 572.2524,694.2668 568.9157,693.9059 563.4869,693.9331 C 554.2996,671.8275 578.0989,677.3129 597.6691,680.2362 C 618.0745,683.577 661.5011,689.7844 661.5011,694.3507 z"
       style="font-size:12px;fill:url(#linearGradient2229);fill-rule:evenodd;stroke-width:1"
       transform="matrix(-1,0,0,-1,1195.338,1365.316)" /><path
       transform="matrix(0.747638,-0.664107,0.664107,0.747638,-261.2152,522.3109)"
       sodipodi:ry="29.529053"
       sodipodi:rx="18.308014"
       sodipodi:cy="640.13635"
       sodipodi:cx="569.91113"
       d="M 588.21915,640.13635 A 18.308014,29.529053 0 1 1 551.60312,640.13635 A 18.308014,29.529053 0 1 1 588.21915,640.13635 z"
       id="path810"
       style="fill:#d1f0fa;fill-opacity:1;fill-rule:evenodd;stroke:none;stroke-width:1pt;stroke-linecap:butt;stroke-linejoin:miter;stroke-opacity:1"
       sodipodi:type="arc" /><path
       sodipodi:nodetypes="cccccccccccccc"
       id="path636"
       d="M 86.22501,532.6498 C 95.84832,523.6001 106.451,524.9146 115.2372,515.2706 C 144.6946,459.2864 170.5739,444.8179 185.5124,446.4185 C 181.2939,459.4655 175.434,486.7751 172.5117,513.1513 C 178.6885,513.9154 195.8587,510.2427 203.9624,506.6697 C 203.4336,488.9327 207.3516,447.2955 217.2418,442.9489 C 242.9856,437.2129 329.6781,438.7866 352.4018,448.0953 C 367.7806,466.5113 388.3119,497.1741 401.5998,515.5306 C 408.732,504.0883 403.7672,482.1338 397.2324,474.1606 C 390.3798,466.7218 387.2609,461.3774 380.3829,455.1994 C 381.636,446.4857 397.2137,442.1747 408.992,439.7133 C 390.0928,430.3106 362.2536,423.2031 358.2248,422.5318 C 323.9385,417.4095 195.1098,408.2204 147.9905,443.4189 C 127.3814,458.5591 101.2529,492.1288 86.22501,532.6498 z"
       style="fill:url(#linearGradient2231);fill-opacity:1;fill-rule:evenodd;stroke:none;stroke-width:1pt;stroke-linecap:butt;stroke-linejoin:miter;stroke-opacity:1" /><path
       sodipodi:nodetypes="ccccccccc"
       id="path827"
       d="M 202.9558,435.1427 C 192.0981,463.0646 182.4912,531.7144 190.3409,568.1518 C 190.7016,580.4858 212.9341,602.7822 242.476,639.5081 C 255.5535,656.1619 265.5392,702.3674 267.0801,731.2335 L 382.5832,730.8389 C 382.7698,676.8124 425.1119,644.2214 443.6373,646.0474 C 463.4678,609.2021 468.5508,596.5878 454.2168,575.1869 C 431.6482,533.9115 371.0847,446.6483 357.5867,439.3599 C 343.7863,427.3346 226.2822,426.7889 202.9558,435.1427 z"
       style="fill:none;fill-opacity:1;fill-rule:evenodd;stroke:#000000;stroke-width:1pt;stroke-linecap:butt;stroke-linejoin:miter;stroke-opacity:1" /><path
       transform="matrix(0.874964,-0.484188,0.484188,0.874964,-232.0404,357.2989)"
       sodipodi:ry="11.27533"
       sodipodi:rx="7.9345093"
       sodipodi:cy="638.51569"
       sodipodi:cx="583.3941"
       d="M 591.32861,638.51569 A 7.9345093,11.27533 0 1 1 575.45959,638.51569 A 7.9345093,11.27533 0 1 1 591.32861,638.51569 z"
       id="path637"
       style="fill:#ff9700;fill-opacity:1;fill-rule:evenodd;stroke:none;stroke-width:1pt;stroke-linecap:butt;stroke-linejoin:miter;stroke-opacity:1"
       sodipodi:type="arc" /><path
       sodipodi:nodetypes="ccc"
       id="path638"
       d="M 628.8699,690.9617 C 604.8715,698.7547 612.179,699.0881 623.5536,717.6829 C 626.219,711.1158 625.1434,697.5351 628.8699,690.9617 z"
       style="fill:#000000;fill-opacity:1;fill-rule:evenodd;stroke:#000000;stroke-width:1pt;stroke-linecap:butt;stroke-linejoin:miter;stroke-opacity:1" /><path
       transform="translate(-5.011272,-8.352158)"
       sodipodi:ry="7.5168762"
       sodipodi:rx="23.385887"
       sodipodi:cy="583.8092"
       sodipodi:cx="243.88141"
       d="M 267.2673,583.8092 A 23.385887,7.5168762 0 1 1 220.49552,583.8092 A 23.385887,7.5168762 0 1 1 267.2673,583.8092 z"
       id="path639"
       style="fill:url(#linearGradient2233);fill-opacity:1;fill-rule:evenodd;stroke:none;stroke-width:1pt;stroke-linecap:butt;stroke-linejoin:miter;stroke-opacity:1"
       sodipodi:type="arc" /><path
       transform="matrix(0.964265,0.264942,-0.264942,0.964265,152.8526,2.234924)"
       sodipodi:ry="32.573212"
       sodipodi:rx="8.3521004"
       sodipodi:cy="585.47961"
       sodipodi:cx="76.839355"
       d="M 85.191456,585.47961 A 8.3521004,32.573212 0 1 1 68.487255,585.47961 A 8.3521004,32.573212 0 1 1 85.191456,585.47961 z"
       id="path644"
       style="fill:#a20000;fill-opacity:1;fill-rule:evenodd;stroke:#ff0000;stroke-width:1pt;stroke-linecap:butt;stroke-linejoin:miter;stroke-opacity:1"
       sodipodi:type="arc" /></g></svg>