<?xml version="1.0" encoding="UTF-8" standalone="no"?>
<!-- Created with Sodipodi ("http://www.sodipodi.com/") -->
<svg
   xmlns:dc="http://purl.org/dc/elements/1.1/"
   xmlns:cc="http://creativecommons.org/ns#"
   xmlns:rdf="http://www.w3.org/1999/02/22-rdf-syntax-ns#"
   xmlns:svg="http://www.w3.org/2000/svg"
   xmlns="http://www.w3.org/2000/svg"
   xmlns:xlink="http://www.w3.org/1999/xlink"
   xmlns:sodipodi="http://sodipodi.sourceforge.net/DTD/sodipodi-0.dtd"
   xmlns:inkscape="http://www.inkscape.org/namespaces/inkscape"
   id="svg602"
   sodipodi:version="0.32"
   width="30.692194"
   height="123.86932"
   xml:space="preserve"
   sodipodi:docbase="/mnt/Documents/Dessins/Vectoriels/Food"
   sodipodi:docname="carrot.svg"
   inkscape:version="0.46"
   inkscape:output_extension="org.inkscape.output.svg.inkscape"
   version="1.0"><metadata
     id="metadata24"><rdf:RDF><cc:Work
         rdf:about=""><dc:format>image/svg+xml</dc:format><dc:type
           rdf:resource="http://purl.org/dc/dcmitype/StillImage" /></cc:Work></rdf:RDF></metadata><defs
     id="defs604"><inkscape:perspective
       sodipodi:type="inkscape:persp3d"
       inkscape:vp_x="0 : 302.43127 : 1"
       inkscape:vp_y="0 : 1000 : 0"
       inkscape:vp_z="232.85001 : 302.43127 : 1"
       inkscape:persp3d-origin="116.425 : 201.62085 : 1"
       id="perspective29" /><linearGradient
       id="linearGradient613"><stop
         style="stop-color:#cf5d00;stop-opacity:1;"
         offset="0"
         id="stop614" /><stop
         style="stop-color:#ffc78d;stop-opacity:1;"
         offset="1"
         id="stop615" /></linearGradient><linearGradient
       xlink:href="#linearGradient613"
       id="linearGradient616"
       gradientTransform="scale(0.574554,1.740479)"
       x1="282.95395"
       y1="267.65033"
       x2="528.99243"
       y2="267.65033"
       gradientUnits="userSpaceOnUse" /><linearGradient
       xlink:href="#linearGradient613"
       id="linearGradient619"
       x1="126.85652"
       y1="636.10394"
       x2="134.48833"
       y2="629.99023"
       gradientTransform="scale(1.480659,0.675375)"
       gradientUnits="userSpaceOnUse" /><linearGradient
       xlink:href="#linearGradient613"
       id="linearGradient626"
       x1="463.35947"
       y1="354.12543"
       x2="482.70856"
       y2="372.5799"
       gradientTransform="scale(0.520522,1.921147)"
       gradientUnits="userSpaceOnUse" /><linearGradient
       inkscape:collect="always"
       xlink:href="#linearGradient613"
       id="linearGradient1322"
       x1="117.32927"
       y1="570.38684"
       x2="125.66061"
       y2="563.71277"
       gradientTransform="scale(1.58805,0.629703)"
       gradientUnits="userSpaceOnUse" /><linearGradient
       inkscape:collect="always"
       xlink:href="#linearGradient613"
       id="linearGradient1324"
       x1="164.32428"
       y1="743.42413"
       x2="170.91718"
       y2="738.1427"
       gradientTransform="scale(1.26779,0.788774)"
       gradientUnits="userSpaceOnUse" /><linearGradient
       inkscape:collect="always"
       xlink:href="#linearGradient613"
       id="linearGradient1326"
       x1="146.51007"
       y1="718.56293"
       x2="153.4765"
       y2="712.98224"
       gradientTransform="scale(1.351562,0.739884)"
       gradientUnits="userSpaceOnUse" /><linearGradient
       inkscape:collect="always"
       xlink:href="#linearGradient613"
       id="linearGradient1328"
       x1="117.27542"
       y1="605.43097"
       x2="125.66445"
       y2="598.71069"
       gradientTransform="scale(1.599047,0.625372)"
       gradientUnits="userSpaceOnUse" /></defs><sodipodi:namedview
     id="base"
     inkscape:zoom="1.5089862"
     inkscape:cx="157.71806"
     inkscape:cy="8.2580802"
     inkscape:window-width="792"
     inkscape:window-height="719"
     inkscape:window-x="375"
     inkscape:window-y="136"
     inkscape:current-layer="svg602"
     showgrid="false" /><g
     id="g627"
     transform="matrix(0.2171169,0,0,0.2171169,-35.297229,-35.979679)"><path
       style="font-size:12px;fill:url(#linearGradient616);fill-opacity:1;fill-rule:evenodd;stroke-width:1"
       d="M 303.1318,324.6185 C 303.1318,442.1075 286.1818,679.9522 244.6673,679.9522 C 203.1527,679.9522 162.8169,444.4452 162.8169,326.9562 C 159.4761,249.2083 190.7783,249.2297 232.2929,252.9406 C 273.8074,249.5389 309.8135,251.5461 303.1318,324.6185 z"
       id="path606"
       sodipodi:nodetypes="ccccc" /><path
       sodipodi:type="arc"
       style="fill:#ac5a35;fill-opacity:1;fill-rule:evenodd;stroke:none;stroke-width:1pt;stroke-linecap:butt;stroke-linejoin:miter;stroke-opacity:1"
       id="path612"
       d="M 254.55885,247.80594 A 20.108376,7.2920609 0 1 1 214.34209,247.80594 A 20.108376,7.2920609 0 1 1 254.55885,247.80594 z"
       sodipodi:cx="234.45047"
       sodipodi:cy="247.80594"
       sodipodi:rx="20.108376"
       sodipodi:ry="7.2920609"
       transform="translate(-2.209739,10.16469)" /><path
       style="font-size:12px;fill:#006000;fill-opacity:1;fill-rule:evenodd"
       d="M 200.2552,165.7157 C 202.4649,202.0471 226.9993,218.3132 226.9993,254.6446 L 241.4762,254.6446 C 241.4762,218.3132 214.7321,212.6537 218.2676,175.4384 L 200.2552,165.7157 z"
       id="path611"
       sodipodi:nodetypes="ccccc" /><path
       style="font-size:12px;fill:#008000;fill-opacity:1;fill-rule:evenodd"
       d="M 177.0641,177.0641 C 177.0641,207.1315 217.1541,227.1766 217.1541,257.244 C 230.9068,260.7796 232.2851,259.4537 237.199,257.244 C 237.199,227.1766 197.109,207.1315 197.109,177.0641 C 189.5435,179.7158 183.3038,175.2964 177.0641,177.0641 z"
       id="path608"
       sodipodi:nodetypes="ccccc" /><path
       style="font-size:12px;fill:#008000;fill-opacity:1;fill-rule:evenodd"
       d="M 287.3115,177.0641 C 284.6599,207.5735 247.2215,227.1766 247.2215,257.244 C 239.2141,262.9893 233.8582,257.244 227.1766,257.244 C 227.1766,227.1766 268.1505,211.1089 267.2666,181.0416 C 273.0643,176.1802 281.5137,175.7383 287.3115,177.0641 z"
       id="path609"
       sodipodi:nodetypes="ccccc" /><path
       style="font-size:12px;fill:#006f00;fill-opacity:1;fill-rule:evenodd"
       d="M 263.9256,171.019 C 263.9256,202.3392 232.3202,240.8972 237.6235,259.4011 C 234.271,259.843 224.2893,259.4009 220.9368,258.5171 C 220.9368,227.1969 247.681,214.7136 249.8907,173.6706 L 263.9256,171.019 z"
       id="path610"
       sodipodi:nodetypes="ccccc" /><path
       style="font-size:12px;fill:url(#linearGradient1322);fill-rule:evenodd"
       d="M 163.2706,340.89 L 163.9333,351.4235 C 163.8291,355.6943 177.917,354.9651 188.1253,358.2985 C 196.8578,361.736 200.3129,366.0934 226.8755,366.111 C 196.3546,364.8609 169.4164,349.64 163.2706,340.89 z"
       id="path618"
       sodipodi:nodetypes="ccccc" /><path
       style="font-size:12px;fill:url(#linearGradient1324);fill-rule:evenodd"
       d="M 193.7643,568.2695 L 195.5321,578.582 C 195.4662,582.8528 202.9897,582.1236 209.4445,585.457 C 214.9661,588.8945 217.1508,593.2519 233.9466,593.2695 C 214.648,592.0194 197.6504,577.0195 193.7643,568.2695 z"
       id="path620"
       sodipodi:nodetypes="ccccc" /><path
       style="font-size:12px;fill:url(#linearGradient1326);fill-rule:evenodd"
       d="M 181.611,513.6895 L 184.2625,524.8859 C 184.1893,529.1567 192.4568,527.3227 199.6334,530.6561 C 205.7725,534.0936 208.2015,538.451 226.8755,538.4686 C 205.4188,537.2185 185.9316,522.4395 181.611,513.6895 z"
       id="path621"
       sodipodi:nodetypes="ccccc" /><path
       style="font-size:12px;fill:url(#linearGradient1328);fill-rule:evenodd"
       d="M 164.1544,360.3354 L 164.5963,371.0899 C 164.4921,375.3607 179.6848,374.4105 189.8931,377.7439 C 198.6256,381.1814 202.0807,385.5388 228.6433,385.5564 C 198.1224,384.3063 170.3002,369.0854 164.1544,360.3354 z"
       id="path622"
       sodipodi:nodetypes="ccccc" /><path
       style="font-size:12px;fill:url(#linearGradient619);fill-rule:evenodd"
       d="M 168.141,411.6446 L 169.2458,421.9571 C 169.1577,426.2279 181.1228,425.2777 189.7431,428.6111 C 197.1172,432.0486 200.0348,436.406 222.4653,436.4236 C 196.6923,435.1735 173.3307,420.3946 168.141,411.6446 z"
       id="path623"
       sodipodi:nodetypes="ccccc" /><path
       style="font-size:12px;fill:url(#linearGradient626);fill-opacity:1;fill-rule:evenodd"
       d="M 238.5622,678.0542 C 241.0023,685.8727 243.1661,689.9901 250.0533,703.7747 C 256.9404,717.5594 238.4986,736.1501 240.3863,736.2347 C 241.3806,736.1501 258.5612,716.8964 253.3407,703.3327 C 248.1203,689.769 246.242,687.751 249.5566,678.6067 C 247.1165,680.3745 241.7757,680.4849 238.5622,678.0542 z"
       id="path625"
       sodipodi:nodetypes="cscscc" /></g></svg>