<?xml version="1.0" encoding="UTF-8" standalone="no"?>
<!-- Created with Sodipodi ("http://www.sodipodi.com/") -->
<svg
   xmlns:dc="http://purl.org/dc/elements/1.1/"
   xmlns:cc="http://creativecommons.org/ns#"
   xmlns:rdf="http://www.w3.org/1999/02/22-rdf-syntax-ns#"
   xmlns:svg="http://www.w3.org/2000/svg"
   xmlns="http://www.w3.org/2000/svg"
   xmlns:xlink="http://www.w3.org/1999/xlink"
   xmlns:sodipodi="http://sodipodi.sourceforge.net/DTD/sodipodi-0.dtd"
   xmlns:inkscape="http://www.inkscape.org/namespaces/inkscape"
   id="svg801"
   sodipodi:version="0.32"
   width="164.41438"
   height="121.2457"
   xml:space="preserve"
   sodipodi:docbase="/home/franck/Dessins/Vectoriels/Objets_divers"
   sodipodi:docname="castle.svg"
   inkscape:version="0.46"
   inkscape:output_extension="org.inkscape.output.svg.inkscape"
   sodipodi:modified="true"
   version="1.0"><metadata
     id="metadata106"><rdf:RDF><cc:Work
         rdf:about=""><dc:format>image/svg+xml</dc:format><dc:type
           rdf:resource="http://purl.org/dc/dcmitype/StillImage" /></cc:Work></rdf:RDF></metadata><defs
     id="defs803"><inkscape:perspective
       sodipodi:type="inkscape:persp3d"
       inkscape:vp_x="0 : 311.91251 : 1"
       inkscape:vp_y="0 : 1000 : 0"
       inkscape:vp_z="845.93359 : 311.91251 : 1"
       inkscape:persp3d-origin="422.9668 : 207.94167 : 1"
       id="perspective146" /><linearGradient
       id="linearGradient936"><stop
         style="stop-color:#ff7500;stop-opacity:1;"
         offset="0"
         id="stop937" /><stop
         style="stop-color:#ffd500;stop-opacity:1;"
         offset="1"
         id="stop938" /></linearGradient><linearGradient
       id="linearGradient860"><stop
         style="stop-color:#000000;stop-opacity:1;"
         offset="0"
         id="stop861" /><stop
         style="stop-color:#ffffff;stop-opacity:1;"
         offset="1"
         id="stop862" /></linearGradient><linearGradient
       id="linearGradient848"><stop
         style="stop-color:#3f3f3f;stop-opacity:1;"
         offset="0"
         id="stop849" /><stop
         style="stop-color:#8d5a07;stop-opacity:1;"
         offset="1"
         id="stop850" /></linearGradient><linearGradient
       id="linearGradient840"><stop
         style="stop-color:#592d00;stop-opacity:1;"
         offset="0"
         id="stop841" /><stop
         style="stop-color:#f56d00;stop-opacity:1;"
         offset="1"
         id="stop842" /></linearGradient><linearGradient
       id="linearGradient825"><stop
         style="stop-color:#000000;stop-opacity:1;"
         offset="0"
         id="stop826" /><stop
         style="stop-color:#ffedcf;stop-opacity:1;"
         offset="1"
         id="stop827" /></linearGradient><linearGradient
       xlink:href="#linearGradient825"
       id="linearGradient828"
       x1="-0.70625573"
       y1="0.44792801"
       x2="0.78697121"
       y2="0.53436905"
       gradientTransform="scale(1.005871,0.994163)" /><linearGradient
       xlink:href="#linearGradient825"
       id="linearGradient829"
       x1="-1.5517241"
       y1="0.4687627"
       x2="0.93103456"
       y2="0.55468768" /><linearGradient
       xlink:href="#linearGradient825"
       id="linearGradient830"
       x1="-1.5799935"
       y1="0.49218917"
       x2="0.77999991"
       y2="0.46093753" /><linearGradient
       xlink:href="#linearGradient840"
       id="linearGradient839"
       x1="0.45637754"
       y1="0.0078118853"
       x2="0.44966453"
       y2="0.054687489"
       spreadMethod="repeat" /><linearGradient
       xlink:href="#linearGradient840"
       id="linearGradient846"
       x1="-0.011493051"
       y1="0.039071843"
       x2="-0.0057470878"
       y2="0.085937545"
       spreadMethod="repeat" /><linearGradient
       xlink:href="#linearGradient825"
       id="linearGradient847"
       x1="-0.83036637"
       y1="0.4609375"
       x2="0.71428573"
       y2="0.8828125" /><linearGradient
       xlink:href="#linearGradient848"
       id="linearGradient851"
       x1="-2.2338806e-07"
       y1="0.50782502"
       x2="0.063758396"
       y2="0.50781262"
       spreadMethod="reflect" /><linearGradient
       xlink:href="#linearGradient848"
       id="linearGradient852"
       x1="3.3887748e-06"
       y1="0.49999467"
       x2="0.053691283"
       y2="0.49999961"
       spreadMethod="reflect" /><linearGradient
       xlink:href="#linearGradient825"
       id="linearGradient853"
       x1="0.013157859"
       y1="0.046873212"
       x2="0.42105263"
       y2="0.078124948" /><linearGradient
       xlink:href="#linearGradient825"
       id="linearGradient854"
       x1="-0.68329298"
       y1="0.46094036"
       x2="0.91666722"
       y2="0.48437527" /><linearGradient
       xlink:href="#linearGradient860"
       id="linearGradient859"
       x1="-1.5402373e-05"
       y1="0.023436323"
       x2="0.23828092"
       y2="1.2265625" /><linearGradient
       xlink:href="#linearGradient860"
       id="linearGradient866" /><linearGradient
       xlink:href="#linearGradient860"
       id="linearGradient867" /><linearGradient
       xlink:href="#linearGradient848"
       id="linearGradient897"
       x1="0.21982938"
       y1="0.45317766"
       x2="0.84042412"
       y2="0.61718804" /><linearGradient
       xlink:href="#linearGradient848"
       id="linearGradient930"
       x1="0.03572575"
       y1="0.16406706"
       x2="1.535715"
       y2="0.63281256" /><linearGradient
       xlink:href="#linearGradient848"
       id="linearGradient934"
       x1="-9.2498713"
       y1="0.5546875"
       x2="3.7500067"
       y2="0.5546875"
       gradientTransform="translate(3.251531e-6,-1.978546e-8)" /><linearGradient
       xlink:href="#linearGradient936"
       id="linearGradient935"
       x1="-0.0064916913"
       y1="0.53910303"
       x2="0.071428895"
       y2="0.46875101"
       spreadMethod="reflect" /><linearGradient
       xlink:href="#linearGradient825"
       id="linearGradient941"
       x1="-0.25466791"
       y1="0.2809934"
       x2="0.19090655"
       y2="0.63281035"
       gradientTransform="translate(-1.006497e-6,-7.741896e-7)" /><linearGradient
       xlink:href="#linearGradient825"
       id="linearGradient948"
       x1="-20.629692"
       y1="-0.88636649"
       x2="-20.629545"
       y2="0.95454597" /><linearGradient
       xlink:href="#linearGradient825"
       id="linearGradient949"
       x1="-14.586171"
       y1="-0.88636267"
       x2="-14.586024"
       y2="0.95454979" /><linearGradient
       xlink:href="#linearGradient825"
       id="linearGradient950"
       x1="-7.3687401"
       y1="-0.88636363"
       x2="-7.3685932"
       y2="0.95454884"
       gradientTransform="translate(-3.141989e-6,-4.262438e-7)" /><linearGradient
       xlink:href="#linearGradient825"
       id="linearGradient951"
       x1="-0.49913117"
       y1="-0.88636458"
       x2="-0.49898431"
       y2="0.95454788"
       gradientTransform="translate(-1.010274e-6,-2.72621e-7)" /><linearGradient
       xlink:href="#linearGradient825"
       id="linearGradient952"
       x1="6.1530843"
       y1="-0.88636553"
       x2="6.1532311"
       y2="0.95454693" /><linearGradient
       xlink:href="#linearGradient825"
       id="linearGradient700"
       x1="-0.022681709"
       y1="-1.0146118e-05"
       x2="0.6363641"
       y2="0.60937494" /><linearGradient
       xlink:href="#linearGradient825"
       id="linearGradient701"
       x1="-0.15384613"
       y1="0.0546753"
       x2="0.96153831"
       y2="0.28906247" /><linearGradient
       inkscape:collect="always"
       xlink:href="#linearGradient825"
       id="linearGradient2321"
       x1="472.19846"
       y1="272.31873"
       x2="581.16736"
       y2="280.6676"
       gradientTransform="scale(0.723143,1.3828523)"
       gradientUnits="userSpaceOnUse" /><linearGradient
       inkscape:collect="always"
       xlink:href="#linearGradient825"
       id="linearGradient2323"
       gradientTransform="scale(0.8551413,1.1693974)"
       x1="371.38846"
       y1="337.21552"
       x2="382.14047"
       y2="345.70508"
       gradientUnits="userSpaceOnUse" /><linearGradient
       inkscape:collect="always"
       xlink:href="#linearGradient848"
       id="linearGradient2325"
       gradientTransform="scale(0.1727737,5.7879173)"
       x1="1446.7341"
       y1="77.929291"
       x2="1701.7489"
       y2="77.929291"
       gradientUnits="userSpaceOnUse" /><linearGradient
       inkscape:collect="always"
       xlink:href="#linearGradient848"
       id="linearGradient2327"
       spreadMethod="reflect"
       x1="183.38853"
       y1="598.94708"
       x2="191.48715"
       y2="598.94781"
       gradientTransform="scale(1.7453823,0.5729404)"
       gradientUnits="userSpaceOnUse" /><linearGradient
       inkscape:collect="always"
       xlink:href="#linearGradient825"
       id="linearGradient2329"
       x1="482.97775"
       y1="567.67841"
       x2="766.67242"
       y2="645.16101"
       gradientTransform="scale(0.8796013,1.1368787)"
       gradientUnits="userSpaceOnUse" /><linearGradient
       inkscape:collect="always"
       xlink:href="#linearGradient825"
       id="linearGradient2331"
       x1="-26.166519"
       y1="616.4007"
       x2="229.18578"
       y2="670.06049"
       gradientTransform="scale(1.0996959,0.9093423)"
       gradientUnits="userSpaceOnUse" /><linearGradient
       inkscape:collect="always"
       xlink:href="#linearGradient825"
       id="linearGradient2333"
       x1="44.326206"
       y1="386.09036"
       x2="583.55621"
       y2="404.75241"
       gradientTransform="scale(0.6710155,1.4902786)"
       gradientUnits="userSpaceOnUse" /><linearGradient
       inkscape:collect="always"
       xlink:href="#linearGradient848"
       id="linearGradient2335"
       spreadMethod="reflect"
       x1="-15.506338"
       y1="643.9021"
       x2="-8.2326021"
       y2="643.9007"
       gradientTransform="scale(1.5300027,0.6535936)"
       gradientUnits="userSpaceOnUse" /><linearGradient
       inkscape:collect="always"
       xlink:href="#linearGradient840"
       id="linearGradient2337"
       spreadMethod="repeat"
       x1="195.97089"
       y1="263.1738"
       x2="196.9493"
       y2="271.15393"
       gradientTransform="scale(1.1644089,0.8588048)"
       gradientUnits="userSpaceOnUse" /><linearGradient
       inkscape:collect="always"
       xlink:href="#linearGradient825"
       id="linearGradient2339"
       x1="413.55634"
       y1="460.26346"
       x2="521.10266"
       y2="559.70593"
       gradientTransform="scale(0.8217138,1.2169687)"
       gradientUnits="userSpaceOnUse" /><linearGradient
       inkscape:collect="always"
       xlink:href="#linearGradient848"
       id="linearGradient2341"
       x1="467.31848"
       y1="539.09106"
       x2="596.50708"
       y2="579.4624"
       gradientTransform="scale(0.8067182,1.2395903)"
       gradientUnits="userSpaceOnUse" /><linearGradient
       inkscape:collect="always"
       xlink:href="#linearGradient825"
       id="linearGradient2343"
       gradientTransform="scale(0.6175005,1.6194318)"
       x1="283.10349"
       y1="373.42758"
       x2="551.59247"
       y2="388.97009"
       gradientUnits="userSpaceOnUse" /><linearGradient
       inkscape:collect="always"
       xlink:href="#linearGradient825"
       id="linearGradient2345"
       x1="447.2067"
       y1="383.64151"
       x2="869.0675"
       y2="378.05511"
       gradientTransform="scale(0.6211259,1.6099796)"
       gradientUnits="userSpaceOnUse" /><linearGradient
       inkscape:collect="always"
       xlink:href="#linearGradient825"
       id="linearGradient2347"
       x1="287.92319"
       y1="524.67126"
       x2="471.68637"
       y2="527.36285"
       gradientTransform="scale(0.9633622,1.0380312)"
       gradientUnits="userSpaceOnUse" /><linearGradient
       inkscape:collect="always"
       xlink:href="#linearGradient840"
       id="linearGradient2349"
       spreadMethod="repeat"
       x1="298.61136"
       y1="253.70737"
       x2="297.38553"
       y2="262.267"
       gradientTransform="scale(1.4178213,0.7053075)"
       gradientUnits="userSpaceOnUse" /><linearGradient
       inkscape:collect="always"
       xlink:href="#linearGradient860"
       id="linearGradient2351"
       x1="282.47098"
       y1="204.8532"
       x2="299.2291"
       y2="289.46271"
       gradientTransform="scale(1.4122505,0.7080897)"
       gradientUnits="userSpaceOnUse" /><linearGradient
       inkscape:collect="always"
       xlink:href="#linearGradient860"
       id="linearGradient2353"
       gradientTransform="scale(0.853383,1.1718068)"
       x1="61.558971"
       y1="207.16302"
       x2="94.820686"
       y2="207.16302"
       gradientUnits="userSpaceOnUse" /><linearGradient
       inkscape:collect="always"
       xlink:href="#linearGradient860"
       id="linearGradient2355"
       gradientTransform="scale(0.9660935,1.0350965)"
       x1="429.77661"
       y1="138.89098"
       x2="438.45895"
       y2="138.89098"
       gradientUnits="userSpaceOnUse" /><linearGradient
       inkscape:collect="always"
       xlink:href="#linearGradient848"
       id="linearGradient2357"
       x1="281.05582"
       y1="617.00598"
       x2="302.03885"
       y2="622.55139"
       gradientTransform="scale(1.8840274,0.5307778)"
       gradientUnits="userSpaceOnUse" /><linearGradient
       inkscape:collect="always"
       xlink:href="#linearGradient848"
       id="linearGradient2359"
       x1="281.05582"
       y1="617.00598"
       x2="302.03885"
       y2="622.55139"
       gradientTransform="scale(1.8840274,0.5307778)"
       gradientUnits="userSpaceOnUse" /><linearGradient
       inkscape:collect="always"
       xlink:href="#linearGradient848"
       id="linearGradient2361"
       x1="359.98071"
       y1="479.31976"
       x2="377.91394"
       y2="484.05914"
       gradientTransform="scale(1.4610667,0.6844314)"
       gradientUnits="userSpaceOnUse" /><linearGradient
       inkscape:collect="always"
       xlink:href="#linearGradient848"
       id="linearGradient2363"
       x1="359.98071"
       y1="479.31976"
       x2="377.91394"
       y2="484.05914"
       gradientTransform="scale(1.4610667,0.6844314)"
       gradientUnits="userSpaceOnUse" /><linearGradient
       inkscape:collect="always"
       xlink:href="#linearGradient848"
       id="linearGradient2365"
       x1="359.98071"
       y1="479.31976"
       x2="377.91394"
       y2="484.05914"
       gradientTransform="scale(1.4610667,0.6844314)"
       gradientUnits="userSpaceOnUse" /><linearGradient
       inkscape:collect="always"
       xlink:href="#linearGradient848"
       id="linearGradient2367"
       x1="359.98071"
       y1="479.31976"
       x2="377.91394"
       y2="484.05914"
       gradientTransform="scale(1.4610667,0.6844314)"
       gradientUnits="userSpaceOnUse" /><linearGradient
       inkscape:collect="always"
       xlink:href="#linearGradient936"
       id="linearGradient2369"
       spreadMethod="reflect"
       x1="255.8726"
       y1="471.28494"
       x2="261.14456"
       y2="466.52505"
       gradientTransform="scale(1.1107447,0.9002969)"
       gradientUnits="userSpaceOnUse" /><linearGradient
       inkscape:collect="always"
       xlink:href="#linearGradient825"
       id="linearGradient2371"
       gradientTransform="scale(0.8551413,1.1693974)"
       x1="649.18958"
       y1="337.21552"
       x2="659.94159"
       y2="345.70508"
       gradientUnits="userSpaceOnUse" /><linearGradient
       inkscape:collect="always"
       xlink:href="#linearGradient825"
       id="linearGradient2373"
       x1="803.16168"
       y1="180.99397"
       x2="803.1637"
       y2="206.36208"
       gradientTransform="scale(0.4999989,2.0000044)"
       gradientUnits="userSpaceOnUse" /><linearGradient
       inkscape:collect="always"
       xlink:href="#linearGradient825"
       id="linearGradient2375"
       x1="803.1618"
       y1="180.99397"
       x2="803.16382"
       y2="206.36208"
       gradientTransform="scale(0.4999989,2.0000044)"
       gradientUnits="userSpaceOnUse" /><linearGradient
       inkscape:collect="always"
       xlink:href="#linearGradient825"
       id="linearGradient2377"
       x1="803.16174"
       y1="180.99397"
       x2="803.16376"
       y2="206.36208"
       gradientTransform="scale(0.4999989,2.0000044)"
       gradientUnits="userSpaceOnUse" /><linearGradient
       inkscape:collect="always"
       xlink:href="#linearGradient825"
       id="linearGradient2379"
       gradientTransform="scale(0.4999989,2.0000044)"
       x1="803.16168"
       y1="180.99397"
       x2="803.1637"
       y2="206.36208"
       gradientUnits="userSpaceOnUse" /><linearGradient
       inkscape:collect="always"
       xlink:href="#linearGradient825"
       id="linearGradient2381"
       gradientTransform="scale(0.4999989,2.0000044)"
       x1="803.16174"
       y1="180.99397"
       x2="803.16382"
       y2="206.36208"
       gradientUnits="userSpaceOnUse" /><linearGradient
       inkscape:collect="always"
       xlink:href="#linearGradient825"
       id="linearGradient2383"
       x1="-134.44252"
       y1="292.20483"
       x2="-134.43971"
       y2="327.26617"
       gradientTransform="scale(0.6763486,1.4785275)"
       gradientUnits="userSpaceOnUse" /><linearGradient
       inkscape:collect="always"
       xlink:href="#linearGradient825"
       id="linearGradient2385"
       gradientTransform="scale(0.6273891,1.5939072)"
       x1="-78.580704"
       y1="271.0527"
       x2="-78.57811"
       y2="303.57602"
       gradientUnits="userSpaceOnUse" /><linearGradient
       inkscape:collect="always"
       xlink:href="#linearGradient825"
       id="linearGradient2387"
       gradientTransform="scale(0.7054874,1.4174598)"
       x1="188.06088"
       y1="327.991"
       x2="196.93124"
       y2="334.99487"
       gradientUnits="userSpaceOnUse" /><linearGradient
       inkscape:collect="always"
       xlink:href="#linearGradient825"
       id="linearGradient2389"
       gradientTransform="scale(0.8551414,1.1693973)"
       x1="-33.477409"
       y1="397.99155"
       x2="-22.725416"
       y2="406.48111"
       gradientUnits="userSpaceOnUse" /><linearGradient
       inkscape:collect="always"
       xlink:href="#linearGradient825"
       id="linearGradient2391"
       x1="580.71594"
       y1="501.93396"
       x2="1005.6611"
       y2="496.30673"
       gradientTransform="scale(0.7768686,1.287219)"
       gradientUnits="userSpaceOnUse" /><linearGradient
       inkscape:collect="always"
       xlink:href="#linearGradient848"
       id="linearGradient2393"
       gradientTransform="scale(0.1727737,5.7879173)"
       x1="4040.3154"
       y1="85.554016"
       x2="4295.3301"
       y2="85.554016"
       gradientUnits="userSpaceOnUse" /><linearGradient
       inkscape:collect="always"
       xlink:href="#linearGradient936"
       id="linearGradient2395"
       spreadMethod="reflect"
       x1="711.40338"
       y1="472.37781"
       x2="716.53351"
       y2="467.74603"
       gradientTransform="scale(1.0294576,0.9713854)"
       gradientUnits="userSpaceOnUse" /></defs><sodipodi:namedview
     id="base"
     inkscape:zoom="1.4405687"
     inkscape:cx="164.77725"
     inkscape:cy="-1.6621524"
     inkscape:window-width="822"
     inkscape:window-height="719"
     inkscape:window-x="9"
     inkscape:window-y="75"
     inkscape:current-layer="svg801"
     showgrid="false" /><g
     id="g2258"
     transform="matrix(0.1943585,0,0,0.1943585,6.5872955,-27.534473)"><rect
       transform="matrix(1.125828,0,0,1,-38.59483,-3.051758e-5)"
       y="359.26028"
       x="338.92508"
       height="369.42831"
       width="193.1873"
       id="rect822"
       style="font-size:12px;fill:url(#linearGradient2321);fill-rule:evenodd" /><path
       sodipodi:nodetypes="cccc"
       id="path942"
       d="M 343.1802,386.4098 L 343.4798,414.6281 L 322.8447,386.4098 L 343.1802,386.4098 z"
       style="font-size:12px;fill:url(#linearGradient2323);fill-rule:evenodd" /><rect
       y="388.06912"
       x="281.30777"
       height="113.53989"
       width="3.3892517"
       id="rect931"
       style="font-size:12px;fill:url(#linearGradient2325);fill-rule:evenodd;stroke-width:1" /><rect
       y="299.94852"
       x="320.08221"
       height="86.425827"
       width="263.28412"
       id="rect831"
       style="font-size:12px;fill:url(#linearGradient2327);fill-rule:evenodd" /><path
       sodipodi:nodetypes="ccccccccccccccccccccccccc"
       id="path698"
       d="M 560.1803,757.1875 L 714.5338,757.9388 C 717.437,757.9388 719.7744,755.3314 719.7744,752.0925 L 720.5232,554.9833 C 720.5232,551.7443 718.1858,549.1368 715.2825,549.1368 L 707.5151,549.1368 L 707.2341,565.0057 L 691.6991,565.0057 L 691.1376,549.1368 L 674.8539,549.1368 L 675.0409,565.0057 L 659.5058,565.0057 L 658.9443,549.1368 L 642.6606,549.1368 L 642.8476,565.0057 L 627.3125,565.0057 L 626.751,549.1368 L 610.4674,549.1368 L 610.6543,565.0057 L 595.1192,565.0057 L 594.5577,549.1368 L 578.2741,549.1368 L 578.4611,565.0057 L 558.9734,565.0057 L 560.1803,757.1875 z"
       style="font-size:12px;fill:url(#linearGradient2329);fill-opacity:1;fill-rule:evenodd" /><path
       sodipodi:nodetypes="ccccccccccccccccccccccccccccccccc"
       id="path805"
       d="M 15.80368,549.1368 C 12.56468,549.1368 9.957181,551.7443 9.957181,554.9833 L 11.6276,748.334 C 11.6276,751.5729 14.2351,754.1804 17.4741,754.1804 L 261.7178,757.3185 L 260.5198,564.5881 L 240.8923,565.0057 L 240.2659,549.1368 L 222.1003,549.1368 L 222.3089,565.0057 L 204.9783,565.0057 L 204.3519,549.1368 L 186.1862,549.1368 L 186.395,565.0057 L 169.0644,565.0057 L 168.438,549.1368 L 150.2723,549.1368 L 150.4811,565.0057 L 133.1505,565.0057 L 132.5241,549.1368 L 114.3583,549.1368 L 114.5671,565.0057 L 96.40128,565.0057 L 96.61008,549.1368 L 78.02668,549.1368 L 77.81788,565.0057 L 60.48728,565.0057 L 60.69618,549.1368 L 43.78318,549.1368 L 43.57438,565.0058 L 25.40858,565.0057 L 25.19978,549.1368 L 15.80368,549.1368 z"
       style="font-size:12px;fill:url(#linearGradient2331);fill-opacity:1;fill-rule:evenodd" /><rect
       transform="translate(-264.3615,16.94623)"
       ry="43.595276"
       y="423.65619"
       x="255.88837"
       height="323.6734"
       width="145.73776"
       id="rect809"
       style="font-size:12px;fill:url(#linearGradient2333);fill-rule:evenodd"
       rx="43.595276" /><rect
       ry="0"
       y="382.98508"
       x="-23.724701"
       height="74.56353"
       width="174.54639"
       id="rect810"
       style="font-size:12px;fill:url(#linearGradient2335);fill-rule:evenodd" /><path
       transform="translate(-264.3615,16.94623)"
       sodipodi:nodetypes="cccc"
       id="path812"
       d="M 331.4405,220.3013 C 301.455,269.4454 273.3054,342.2594 230.469,366.5353 C 296.5594,366.5353 362.6498,366.5352 428.7401,366.5352 C 390.7993,342.2594 358.3662,269.4454 331.4405,220.3013 z"
       style="font-size:12px;fill:url(#linearGradient2337);fill-rule:evenodd" /><rect
       y="560.12823"
       x="342.86639"
       height="198.59094"
       width="134.09131"
       id="rect699"
       style="font-size:12px;fill:url(#linearGradient2339);fill-rule:evenodd;stroke-width:1" /><path
       sodipodi:nodetypes="ccccccc"
       id="path819"
       d="M 405.0154,650.736 C 388.1166,650.736 374.5121,664.3404 374.5121,681.2392 L 374.5121,757.4974 L 443.9918,757.4974 L 443.9918,681.2392 C 443.9918,664.3404 430.3873,650.736 413.4885,650.736 L 405.0154,650.736 z"
       style="font-size:12px;fill:url(#linearGradient2341);fill-rule:evenodd" /><path
       sodipodi:nodetypes="ccccccccccccccccccccccc"
       id="path808"
       d="M 261.4998,474.3123 C 256.9193,474.3123 253.2317,478.3526 253.2317,483.3712 L 253.2317,756.4345 C 253.2317,761.4532 256.9193,765.4935 261.4998,765.4935 L 355.9929,765.4935 C 360.5735,765.4935 364.2611,761.4532 364.2611,756.4345 L 364.2611,483.3712 C 364.2611,478.3526 360.5735,474.3123 355.9929,474.3123 L 355.5456,489.869 L 343.8231,489.869 L 343.7637,474.3123 L 330.7586,474.3123 L 330.2817,489.869 L 316.859,489.869 L 316.7996,474.3123 L 301.7065,474.3123 L 301.6471,489.869 L 288.2244,489.869 L 288.165,474.3123 L 273.9072,474.3123 L 273.8478,489.4113 L 261.6186,489.4114 L 261.4998,474.3123 z"
       style="font-size:12px;fill:url(#linearGradient2343);fill-rule:evenodd" /><path
       id="path892"
       d="M 474.126,435.7518 L 474.126,446.0947 L 491.0747,446.0947 L 491.0747,426.2707 C 485.4251,425.9835 473.8436,430.0057 474.126,435.7518 z M 511.4076,435.7518 L 511.4076,446.0947 L 494.459,446.0947 L 494.459,426.2707 C 500.1086,425.9835 511.69,430.0057 511.4076,435.7518 z M 494.4644,449.5423 L 494.4644,477.1234 L 511.4129,477.1234 L 511.4129,449.5423 L 494.4644,449.5423 z M 474.1261,449.5423 L 474.1261,477.1234 L 491.0747,477.1234 L 491.0747,449.5423 L 474.1261,449.5423 z"
       style="font-size:12px;fill:#000000;fill-opacity:1;fill-rule:evenodd" /><path
       sodipodi:nodetypes="ccccccccccccccccccccccc"
       id="path813"
       d="M 461.4655,476.0069 C 456.885,476.0069 453.1974,480.0002 453.1974,484.9604 L 453.1974,754.8454 C 453.1974,759.8056 456.885,763.7989 461.4655,763.7989 L 555.9586,763.7989 C 560.5392,763.7989 564.2268,759.8056 564.2268,754.8454 L 564.2268,484.9604 C 564.2268,480.0002 560.5392,476.0069 555.9586,476.0069 L 555.5113,491.3825 L 543.7888,491.3825 L 543.7294,476.0069 L 530.7243,476.0069 L 530.2474,491.3825 L 516.8247,491.3825 L 516.7653,476.0069 L 501.6722,476.0069 L 501.6128,491.3825 L 488.1901,491.3825 L 488.1307,476.0069 L 473.8729,476.0069 L 473.8135,490.9302 L 461.5843,490.9303 L 461.4655,476.0069 z"
       style="font-size:12px;fill:url(#linearGradient2345);fill-rule:evenodd" /><path
       sodipodi:nodetypes="ccccccccccccc"
       id="path821"
       d="M 352.9785,504.5464 L 354.0739,608.8934 C 354.6388,568.2224 463.6597,561.4438 462.5299,608.8934 L 463.6253,505.7445 L 439.369,503.7503 L 438.9754,489.6705 L 418.2111,489.9701 L 418.4167,503.4508 L 397.67,503.4508 L 397.2942,489.6706 L 376.5474,489.6706 L 376.1715,502.8517 L 352.9785,504.5464 z"
       style="font-size:12px;fill:url(#linearGradient2347);fill-opacity:1;fill-rule:evenodd" /><path
       transform="matrix(1.125828,0,0,1,-38.59483,-3.051758e-5)"
       sodipodi:nodetypes="ccccc"
       id="path824"
       d="M 398.1157,177.9356 C 374.3547,219.7363 341.7774,283.5674 305.2219,306.7271 L 564.1208,303.3379 C 524.519,274.5293 494.3787,220.3012 467.5713,177.9356 L 398.1157,177.9356 z"
       style="font-size:12px;fill:url(#linearGradient2349);fill-rule:evenodd" /><path
       sodipodi:nodetypes="cccccccc"
       id="path856"
       d="M 418.6929,143.8874 C 414.4989,162.8827 407.3093,184.2746 398.9213,193.6836 L 498.2374,192.4854 C 489.6498,182.4772 483.4586,162.2836 479.6641,144.4865 C 476.8799,161.6619 474.0956,170.4494 467.7165,176.241 L 447.381,176.241 L 427.0456,176.241 C 421.2656,169.6504 420.2789,162.4608 418.6929,143.8874 z"
       style="font-size:12px;fill:url(#linearGradient2351);fill-rule:evenodd" /><path
       transform="translate(-1.198311,4.193924)"
       sodipodi:ry="4.4935226"
       sodipodi:rx="4.1939697"
       sodipodi:cy="143.76556"
       sodipodi:cx="419.39838"
       d="M 423.59235,143.76556 A 4.1939697,4.4935226 0 1 1 415.20441,143.76556 A 4.1939697,4.4935226 0 1 1 423.59235,143.76556 z"
       id="path857"
       style="fill:#808080;fill-opacity:1;fill-rule:evenodd;stroke:none;stroke-width:1pt;stroke-linecap:butt;stroke-linejoin:miter;stroke-opacity:1"
       sodipodi:type="arc" /><path
       transform="translate(60.51315,2.396439)"
       sodipodi:ry="4.4935226"
       sodipodi:rx="4.1939697"
       sodipodi:cy="143.76556"
       sodipodi:cx="419.39838"
       d="M 423.59235,143.76556 A 4.1939697,4.4935226 0 1 1 415.20441,143.76556 A 4.1939697,4.4935226 0 1 1 423.59235,143.76556 z"
       id="path858"
       style="fill:#808080;fill-opacity:1;fill-rule:evenodd;stroke:none;stroke-width:1pt;stroke-linecap:butt;stroke-linejoin:miter;stroke-opacity:1"
       sodipodi:type="arc" /><path
       sodipodi:nodetypes="cccc"
       id="path864"
       d="M 67.36135,223.2669 C 63.12479,241.7666 58.04091,253.4877 52.53338,261.8195 L 80.91836,262.2432 C 75.12838,253.064 70.60938,242.1902 67.36135,223.2669 z"
       style="font-size:12px;fill:url(#linearGradient2353);fill-rule:evenodd" /><path
       transform="translate(-352.4094,82.99405)"
       sodipodi:ry="4.4935226"
       sodipodi:rx="4.1939697"
       sodipodi:cy="143.76556"
       sodipodi:cx="419.39838"
       d="M 423.59235,143.76556 A 4.1939697,4.4935226 0 1 1 415.20441,143.76556 A 4.1939697,4.4935226 0 1 1 423.59235,143.76556 z"
       id="path865"
       style="fill:url(#linearGradient2355);fill-opacity:1;fill-rule:evenodd;stroke:none;stroke-width:1pt;stroke-linecap:butt;stroke-linejoin:miter;stroke-opacity:1"
       sodipodi:type="arc" /><rect
       y="618.53809"
       x="335.54129"
       height="44.060242"
       width="5.0783677"
       id="rect868"
       style="font-size:12px;fill:#000000;fill-opacity:1;fill-rule:evenodd;stroke-width:1" /><rect
       y="620.23279"
       x="474.49506"
       height="44.060242"
       width="5.078383"
       id="rect869"
       style="font-size:12px;fill:#000000;fill-opacity:1;fill-rule:evenodd;stroke-width:1" /><rect
       y="616.91455"
       x="191.6512"
       height="44.060242"
       width="8.473114"
       id="rect870"
       style="font-size:12px;fill:#000000;fill-opacity:1;fill-rule:evenodd;stroke-width:1" /><rect
       y="574.48053"
       x="16.913475"
       height="44.060242"
       width="5.0783982"
       id="rect871"
       style="font-size:12px;fill:#000000;fill-opacity:1;fill-rule:evenodd;stroke-width:1" /><rect
       y="538.89075"
       x="547.36938"
       height="44.060242"
       width="5.0783677"
       id="rect872"
       style="font-size:12px;fill:#000000;fill-opacity:1;fill-rule:evenodd;stroke-width:1" /><rect
       y="543.97467"
       x="272.83463"
       height="44.060242"
       width="5.0783944"
       id="rect873"
       style="font-size:12px;fill:#000000;fill-opacity:1;fill-rule:evenodd;stroke-width:1" /><g
       transform="matrix(-0.486487,0,0,0.809524,256.9655,140.5732)"
       id="g907"><rect
         y="320.28391"
         x="518.55542"
         height="44.060242"
         width="35.587006"
         id="rect908"
         style="font-size:12px;fill:#000000;fill-opacity:1;fill-rule:evenodd;stroke-width:1" /><path
         sodipodi:nodetypes="ccccc"
         id="path909"
         d="M 516.0135,319.8603 L 540.714,336.8065 L 578.7146,336.8065 L 554.0141,319.8603 L 516.0135,319.8603 z"
         style="font-size:12px;fill:url(#linearGradient2357);fill-rule:evenodd;stroke:#000000;stroke-opacity:1" /></g><g
       transform="matrix(0.72973,0,0,0.809524,-268.0947,140.5732)"
       id="g910"><rect
         y="320.28391"
         x="518.55542"
         height="44.060242"
         width="35.587006"
         id="rect911"
         style="font-size:12px;fill:#000000;fill-opacity:1;fill-rule:evenodd;stroke-width:1" /><path
         sodipodi:nodetypes="ccccc"
         id="path912"
         d="M 516.0135,319.8603 L 540.714,336.8065 L 578.7146,336.8065 L 554.0141,319.8603 L 516.0135,319.8603 z"
         style="font-size:12px;fill:url(#linearGradient2359);fill-rule:evenodd;stroke:#000000;stroke-opacity:1" /></g><g
       transform="matrix(1.225352,0,0,1,-154.3302,-466.0219)"
       id="g918"><rect
         transform="matrix(0.72973,0,0,0.809524,-218.9504,606.595)"
         y="320.28391"
         x="518.55542"
         height="44.060242"
         width="35.587006"
         id="rect914"
         style="font-size:12px;fill-rule:evenodd" /><path
         transform="matrix(0.72973,0,0,0.809524,-218.9504,606.595)"
         sodipodi:nodetypes="ccccc"
         id="path915"
         d="M 517.1746,319.5986 L 520.3942,338.3765 L 558.3948,338.3765 L 554.0141,319.8603 L 517.1746,319.5986 z"
         style="font-size:12px;fill:url(#linearGradient2361);fill-rule:evenodd;stroke:#000000" /></g><g
       transform="matrix(1.225352,0,0,1,325.2487,-542.28)"
       id="g921"><rect
         transform="matrix(0.72973,0,0,0.809524,-218.9504,606.595)"
         y="320.28391"
         x="518.55542"
         height="44.060242"
         width="35.587006"
         id="rect922"
         style="font-size:12px;fill-rule:evenodd" /><path
         transform="matrix(0.72973,0,0,0.809524,-218.9504,606.595)"
         sodipodi:nodetypes="ccccc"
         id="path923"
         d="M 517.1746,319.5986 L 520.3942,338.3765 L 558.3948,338.3765 L 554.0141,319.8603 L 517.1746,319.5986 z"
         style="font-size:12px;fill:url(#linearGradient2363);fill-rule:evenodd;stroke:#000000" /></g><g
       transform="matrix(1.225352,0,0,1,238.8228,-540.5853)"
       id="g924"><rect
         transform="matrix(0.72973,0,0,0.809524,-218.9504,606.595)"
         y="320.28391"
         x="518.55542"
         height="44.060242"
         width="35.587006"
         id="rect925"
         style="font-size:12px;fill-rule:evenodd" /><path
         transform="matrix(0.72973,0,0,0.809524,-218.9504,606.595)"
         sodipodi:nodetypes="ccccc"
         id="path926"
         d="M 517.1746,319.5986 L 520.3942,338.3765 L 558.3948,338.3765 L 554.0141,319.8603 L 517.1746,319.5986 z"
         style="font-size:12px;fill:url(#linearGradient2365);fill-rule:evenodd;stroke:#000000" /></g><g
       transform="matrix(1.225352,0,0,1,152.397,-540.5853)"
       id="g927"><rect
         transform="matrix(0.72973,0,0,0.809524,-218.9504,606.595)"
         y="320.28391"
         x="518.55542"
         height="44.060242"
         width="35.587006"
         id="rect928"
         style="font-size:12px;fill-rule:evenodd" /><path
         transform="matrix(0.72973,0,0,0.809524,-218.9504,606.595)"
         sodipodi:nodetypes="ccccc"
         id="path929"
         d="M 517.1746,319.5986 L 520.3942,338.3765 L 558.3948,338.3765 L 554.0141,319.8603 L 517.1746,319.5986 z"
         style="font-size:12px;fill:url(#linearGradient2367);fill-rule:evenodd;stroke:#000000" /></g><path
       sodipodi:nodetypes="ccsccsc"
       id="path933"
       d="M 284.697,391.4583 L 284.697,440.6024 C 299.9486,443.9916 312.2674,437.3436 315.2003,449.0755 C 319.9357,461.0813 342.3142,435.5185 357.5658,447.3809 C 366.0526,430.9996 347.3817,419.7104 357.5658,398.2369 C 332.1464,388.0692 324.949,418.4888 316.8948,408.4046 C 308.8782,396.6726 303.3379,391.4583 284.697,391.4583 z"
       style="font-size:12px;fill:url(#linearGradient2369);fill-rule:evenodd" /><path
       sodipodi:nodetypes="cccc"
       id="path940"
       d="M 560.7035,386.4098 L 560.4039,414.6281 L 581.039,386.4098 L 560.7035,386.4098 z"
       style="font-size:12px;fill:url(#linearGradient2371);fill-rule:evenodd" /><rect
       y="386.41739"
       x="543.72009"
       height="27.560425"
       width="6.8900757"
       id="rect943"
       style="font-size:12px;fill:url(#linearGradient2373);fill-rule:evenodd;stroke-width:1" /><rect
       y="386.41736"
       x="359.18478"
       height="27.560425"
       width="6.8900757"
       id="rect944"
       style="font-size:12px;fill:url(#linearGradient2375);fill-rule:evenodd;stroke-width:1" /><rect
       y="386.41727"
       x="502.0798"
       height="27.560425"
       width="6.8900757"
       id="rect945"
       style="font-size:12px;fill:url(#linearGradient2377);fill-rule:evenodd;stroke-width:1" /><rect
       y="386.4173"
       x="452.35114"
       height="27.560425"
       width="6.8900757"
       id="rect946"
       style="font-size:12px;fill:url(#linearGradient2379);fill-rule:evenodd;stroke-width:1" /><rect
       y="386.41733"
       x="405.01904"
       height="27.560425"
       width="6.8900757"
       id="rect947"
       style="font-size:12px;fill:url(#linearGradient2381);fill-rule:evenodd;stroke-width:1" /><path
       sodipodi:nodetypes="ccccc"
       id="path958"
       d="M 98.75903,457.5915 L 96.96161,485.1519 L 104.4508,485.1519 L 109.8431,456.9924 L 98.75903,457.5915 z"
       style="font-size:12px;fill:url(#linearGradient2383);fill-rule:evenodd" /><path
       sodipodi:nodetypes="ccccc"
       id="path957"
       d="M 32.37488,456.9924 L 36.56886,485.1519 L 43.45894,485.1519 L 43.45894,457.5915 L 32.37488,456.9924 z"
       style="font-size:12px;fill:url(#linearGradient2385);fill-rule:evenodd" /><path
       sodipodi:nodetypes="cccc"
       id="path955"
       d="M 136.5509,456.9849 L 136.2513,485.2032 L 150.2959,458.1832 L 136.5509,456.9849 z"
       style="font-size:12px;fill:url(#linearGradient2387);fill-rule:evenodd" /><path
       sodipodi:nodetypes="cccc"
       id="path956"
       d="M -3.037316,457.4811 L -2.737716,485.6994 L -23.37282,457.4811 L -3.037316,457.4811 z"
       style="font-size:12px;fill:url(#linearGradient2389);fill-rule:evenodd" /><rect
       y="621.92737"
       x="620.23279"
       height="44.060242"
       width="8.473114"
       id="rect959"
       style="font-size:12px;fill:#000000;fill-opacity:1;fill-rule:evenodd;stroke-width:1" /><path
       sodipodi:nodetypes="ccccccccccccccccccccccc"
       id="path702"
       d="M 682.5735,532.0197 C 676.8026,532.0197 672.1566,535.2358 672.1566,539.2306 L 672.1566,756.588 C 672.1566,760.5828 676.8026,763.7989 682.5735,763.7989 L 801.6241,763.7989 C 807.3951,763.7989 812.0411,760.5828 812.0411,756.588 L 812.0411,539.2306 C 812.0411,535.2358 807.3951,532.0197 801.6241,532.0197 L 801.0605,544.4027 L 786.2915,544.4027 L 786.2167,532.0197 L 769.8317,532.0197 L 769.2309,544.4027 L 752.3198,544.4027 L 752.245,532.0197 L 733.2294,532.0197 L 733.1545,544.4027 L 716.2434,544.4027 L 716.1686,532.0197 L 698.2054,532.0197 L 698.1305,544.0385 L 682.7231,544.0385 L 682.5735,532.0197 z"
       style="font-size:12px;fill:url(#linearGradient2391);fill-rule:evenodd" /><rect
       y="620.22998"
       x="788.2713"
       height="44.060242"
       width="5.0783443"
       id="rect703"
       style="font-size:12px;fill:#000000;fill-opacity:1;fill-rule:evenodd;stroke-width:1" /><rect
       y="432.20041"
       x="729.41046"
       height="113.53989"
       width="3.3892517"
       id="rect704"
       style="font-size:12px;fill:url(#linearGradient2393);fill-rule:evenodd;stroke-width:1" /><path
       sodipodi:nodetypes="ccsccsc"
       id="path705"
       d="M 732.7996,433.8922 L 732.7996,483.0363 C 748.0512,486.4255 748.4885,474.6854 751.4214,486.4173 C 756.1569,498.4231 759.8643,449.0973 785.3001,476.2359 C 798.879,464.9467 781.9053,445.1706 800.5763,427.0919 C 781.9464,413.5296 761.1701,455.8306 753.1159,445.7464 C 745.0993,434.0144 751.4405,433.8922 732.7996,433.8922 z"
       style="font-size:12px;fill:url(#linearGradient2395);fill-rule:evenodd" /></g></svg>