<?xml version="1.0" encoding="UTF-8" standalone="no"?>
<!-- Created with Sodipodi ("http://www.sodipodi.com/") -->
<svg
   xmlns:dc="http://purl.org/dc/elements/1.1/"
   xmlns:cc="http://creativecommons.org/ns#"
   xmlns:rdf="http://www.w3.org/1999/02/22-rdf-syntax-ns#"
   xmlns:svg="http://www.w3.org/2000/svg"
   xmlns="http://www.w3.org/2000/svg"
   xmlns:xlink="http://www.w3.org/1999/xlink"
   xmlns:sodipodi="http://sodipodi.sourceforge.net/DTD/sodipodi-0.dtd"
   xmlns:inkscape="http://www.inkscape.org/namespaces/inkscape"
   id="svg645"
   sodipodi:version="0.32"
   width="70.01693"
   height="67.627457"
   xml:space="preserve"
   sodipodi:docbase="/home/franck/Dessins/Vectoriels/Transports"
   sodipodi:docname="crown.svg"
   inkscape:version="0.46"
   inkscape:output_extension="org.inkscape.output.svg.inkscape"
   sodipodi:modified="true"
   version="1.0"><metadata
     id="metadata134"><rdf:RDF><cc:Work
         rdf:about=""><dc:format>image/svg+xml</dc:format><dc:type
           rdf:resource="http://purl.org/dc/dcmitype/StillImage" /></cc:Work></rdf:RDF></metadata><defs
     id="defs647"><inkscape:perspective
       sodipodi:type="inkscape:persp3d"
       inkscape:vp_x="0 : 161.95354 : 1"
       inkscape:vp_y="0 : 1000 : 0"
       inkscape:vp_z="527.67444 : 161.95354 : 1"
       inkscape:persp3d-origin="263.83722 : 107.96902 : 1"
       id="perspective143" /><linearGradient
       id="linearGradient715"><stop
         style="stop-color:#0052ff;stop-opacity:1;"
         offset="0"
         id="stop716" /><stop
         style="stop-color:#dddfdf;stop-opacity:1;"
         offset="1"
         id="stop717" /></linearGradient><linearGradient
       id="linearGradient699"><stop
         style="stop-color:#000000;stop-opacity:1;"
         offset="0"
         id="stop700" /><stop
         style="stop-color:#dddfdf;stop-opacity:1;"
         offset="1"
         id="stop701" /></linearGradient><linearGradient
       xlink:href="#linearGradient699"
       id="linearGradient702"
       x1="143.54929"
       y1="1014.2485"
       x2="142.77808"
       y2="964.76501"
       gradientTransform="scale(1.7768461,0.5627949)"
       gradientUnits="userSpaceOnUse" /><radialGradient
       xlink:href="#linearGradient699"
       id="radialGradient703"
       cx="221.24318"
       cy="718.33417"
       r="91.939926"
       fx="221.24318"
       fy="718.33417"
       gradientTransform="scale(1.3234588,0.7555958)"
       gradientUnits="userSpaceOnUse" /><linearGradient
       xlink:href="#linearGradient699"
       id="linearGradient706"
       x1="420.80914"
       y1="708.74402"
       x2="442.98117"
       y2="683.85504"
       gradientTransform="scale(1.1029551,0.9066552)"
       gradientUnits="userSpaceOnUse" /><linearGradient
       xlink:href="#linearGradient699"
       id="linearGradient708"
       gradientTransform="scale(0.8563472,1.1677507)"
       x1="321.7818"
       y1="651.17212"
       x2="338.85068"
       y2="651.17212"
       gradientUnits="userSpaceOnUse" /><linearGradient
       xlink:href="#linearGradient699"
       id="linearGradient710"
       gradientTransform="scale(1.5155992,0.6598051)"
       x1="195.60649"
       y1="995.44781"
       x2="215.85988"
       y2="995.44781"
       gradientUnits="userSpaceOnUse" /><linearGradient
       xlink:href="#linearGradient715"
       id="linearGradient714"
       x1="642.17004"
       y1="445.24878"
       x2="673.06696"
       y2="432.20035"
       gradientTransform="scale(0.7270791,1.3753662)"
       gradientUnits="userSpaceOnUse" /><linearGradient
       xlink:href="#linearGradient715"
       id="linearGradient718"
       x1="582.60278"
       y1="393.08429"
       x2="649.56989"
       y2="393.65305"
       gradientTransform="scale(0.4773342,2.0949682)"
       gradientUnits="userSpaceOnUse" /><linearGradient
       xlink:href="#linearGradient715"
       id="linearGradient719"
       x1="1861.4944"
       y1="81.159164"
       x2="1738.1492"
       y2="80.272896"
       gradientTransform="scale(0.4116866,2.4290323)"
       gradientUnits="userSpaceOnUse" /><linearGradient
       xlink:href="#linearGradient715"
       id="linearGradient720"
       x1="237.75787"
       y1="887.77692"
       x2="262.30823"
       y2="856.07623"
       gradientTransform="scale(1.3677348,0.7311359)"
       gradientUnits="userSpaceOnUse" /><linearGradient
       xlink:href="#linearGradient715"
       id="linearGradient721"
       x1="157.66322"
       y1="329.52396"
       x2="208.93663"
       y2="328.92465"
       gradientTransform="scale(0.4868013,2.0542261)"
       gradientUnits="userSpaceOnUse" /><linearGradient
       xlink:href="#linearGradient699"
       id="linearGradient726"
       x1="180.71118"
       y1="297.5105"
       x2="203.88734"
       y2="297.5105"
       gradientTransform="scale(0.5045249,1.9820625)"
       gradientUnits="userSpaceOnUse" /><linearGradient
       xlink:href="#linearGradient699"
       id="linearGradient727"
       x1="186.98415"
       y1="1270.3788"
       x2="174.52737"
       y2="1243.33"
       gradientTransform="scale(2.0445839,0.4890971)"
       gradientUnits="userSpaceOnUse" /><linearGradient
       xlink:href="#linearGradient699"
       id="linearGradient735"
       x1="63.264988"
       y1="880.95563"
       x2="78.471832"
       y2="880.95563"
       gradientTransform="scale(1.4005465,0.714007)"
       gradientUnits="userSpaceOnUse" /><linearGradient
       xlink:href="#linearGradient699"
       id="linearGradient757"
       x1="136.07536"
       y1="367.25668"
       x2="119.98525"
       y2="356.59967"
       gradientTransform="scale(0.7689957,1.3003973)"
       gradientUnits="userSpaceOnUse" /><linearGradient
       xlink:href="#linearGradient699"
       id="linearGradient764"
       x1="-166.4194"
       y1="996.65234"
       x2="-165.38391"
       y2="986.05389"
       gradientTransform="scale(1.3351412,0.7489845)"
       gradientUnits="userSpaceOnUse" /><linearGradient
       xlink:href="#linearGradient699"
       id="linearGradient774"
       x1="388.66434"
       y1="816.21985"
       x2="382.35419"
       y2="829.94891"
       spreadMethod="reflect"
       gradientTransform="scale(1.2624368,0.7921189)"
       gradientUnits="userSpaceOnUse" /><radialGradient
       xlink:href="#linearGradient699"
       id="radialGradient775"
       cx="187.37062"
       cy="750.5722"
       r="30.734865"
       fx="187.37062"
       fy="750.5722"
       gradientUnits="userSpaceOnUse" /><radialGradient
       xlink:href="#linearGradient699"
       id="radialGradient776"
       cx="188.39642"
       cy="750.57336"
       r="38.998211"
       fx="188.39642"
       fy="750.57336"
       gradientUnits="userSpaceOnUse" /><radialGradient
       xlink:href="#linearGradient699"
       id="radialGradient778"
       cx="186.71513"
       cy="750.9129"
       r="50.317612"
       fx="186.71513"
       fy="750.9129"
       gradientUnits="userSpaceOnUse" /><radialGradient
       xlink:href="#linearGradient699"
       id="radialGradient781"
       cx="129.00552"
       cy="375.56113"
       r="250.81311"
       fx="129.00552"
       fy="375.56113"
       gradientUnits="userSpaceOnUse" /><radialGradient
       xlink:href="#linearGradient699"
       id="radialGradient804"
       cx="319.65692"
       cy="760.24048"
       r="38.65929"
       fx="319.65692"
       fy="760.24048"
       gradientTransform="scale(1.0127392,0.987421)"
       gradientUnits="userSpaceOnUse" /><radialGradient
       xlink:href="#linearGradient699"
       id="radialGradient835"
       cx="436.68076"
       cy="895.08777"
       r="17.401068"
       fx="436.68076"
       fy="895.08777"
       spreadMethod="reflect"
       gradientUnits="userSpaceOnUse" /><radialGradient
       xlink:href="#linearGradient699"
       id="radialGradient836"
       cx="436.68085"
       cy="895.08759"
       r="17.401068"
       fx="436.68085"
       fy="895.08759"
       spreadMethod="reflect"
       gradientUnits="userSpaceOnUse" /><radialGradient
       xlink:href="#linearGradient699"
       id="radialGradient837"
       cx="471.80695"
       cy="784.64429"
       r="56.131378"
       fx="471.80695"
       fy="784.64429"
       gradientTransform="scale(0.9836942,1.016576)"
       spreadMethod="reflect"
       gradientUnits="userSpaceOnUse" /><radialGradient
       xlink:href="#linearGradient699"
       id="radialGradient846"
       cx="328.06409"
       cy="812.35944"
       r="7.2140231"
       fx="328.06409"
       fy="812.35944"
       gradientTransform="scale(1.0141835,0.9860148)"
       gradientUnits="userSpaceOnUse" /><linearGradient
       xlink:href="#linearGradient699"
       id="linearGradient856"
       x1="696.61359"
       y1="361.58817"
       x2="675.69464"
       y2="369.67035"
       spreadMethod="reflect"
       gradientTransform="scale(0.4865661,2.0552192)"
       gradientUnits="userSpaceOnUse" /><radialGradient
       xlink:href="#linearGradient699"
       id="radialGradient868"
       cx="190.82353"
       cy="745.48645"
       r="16.152641"
       fx="190.82353"
       fy="745.48645"
       spreadMethod="reflect"
       gradientTransform="scale(0.9999985,1.0000015)"
       gradientUnits="userSpaceOnUse" /><linearGradient
       xlink:href="#linearGradient699"
       id="linearGradient870"
       x1="-46.761921"
       y1="1503.0273"
       x2="-30.014202"
       y2="1499.5537"
       gradientTransform="scale(2.0248421,0.4938657)"
       gradientUnits="userSpaceOnUse" /><linearGradient
       xlink:href="#linearGradient699"
       id="linearGradient871"
       x1="-385.69083"
       y1="565.48224"
       x2="-383.98489"
       y2="612.30603"
       gradientTransform="scale(2.0248421,0.4938657)"
       gradientUnits="userSpaceOnUse" /><linearGradient
       xlink:href="#linearGradient715"
       id="linearGradient880"
       x1="44.489559"
       y1="2047.2246"
       x2="43.947762"
       y2="1893.1598"
       gradientTransform="scale(2.765127,0.361647)"
       gradientUnits="userSpaceOnUse" /><linearGradient
       xlink:href="#linearGradient699"
       id="linearGradient955"
       x1="120.40541"
       y1="1668.9957"
       x2="137.29768"
       y2="1621.8848"
       gradientTransform="scale(2.4138156,0.4142819)"
       gradientUnits="userSpaceOnUse" /><linearGradient
       xlink:href="#linearGradient699"
       id="linearGradient956"
       x1="344.74869"
       y1="568.80768"
       x2="374.22073"
       y2="551.32501"
       gradientTransform="scale(0.8094266,1.2354424)"
       gradientUnits="userSpaceOnUse" /><linearGradient
       xlink:href="#linearGradient699"
       id="linearGradient957"
       x1="393.48932"
       y1="570.02405"
       x2="428.18524"
       y2="542.33588"
       gradientTransform="scale(0.8094266,1.2354424)"
       gradientUnits="userSpaceOnUse" /><radialGradient
       xlink:href="#linearGradient699"
       id="radialGradient983"
       cx="357.36041"
       cy="688.1203"
       r="4.4593763"
       fx="357.36041"
       fy="688.1203"
       gradientTransform="scale(1.0145993,0.9856108)"
       gradientUnits="userSpaceOnUse" /><linearGradient
       xlink:href="#linearGradient699"
       id="linearGradient998"
       x1="295.4556"
       y1="854.65784"
       x2="303.06595"
       y2="838.87573"
       gradientTransform="scale(1.5470453,0.6463935)"
       gradientUnits="userSpaceOnUse" /><inkscape:perspective
       id="perspective3529"
       inkscape:persp3d-origin="150 : 96.587331 : 1"
       inkscape:vp_z="300 : 144.881 : 1"
       inkscape:vp_y="0 : 1000 : 0"
       inkscape:vp_x="0 : 144.881 : 1"
       sodipodi:type="inkscape:persp3d" /></defs><sodipodi:namedview
     id="base"
     inkscape:zoom="1.4405687"
     inkscape:cx="216.65175"
     inkscape:cy="-69.227011"
     inkscape:window-width="822"
     inkscape:window-height="719"
     inkscape:window-x="9"
     inkscape:window-y="75"
     inkscape:current-layer="svg645"
     showgrid="false" /><g
     id="layer1"
     transform="matrix(0.2333897,0,0,0.2333897,-2.6193389e-7,-7.5397163e-6)"><g
       id="g1989"><path
         id="path1653"
         style="font-size:12px;fill:#cc0000;fill-opacity:1;stroke:#000000;stroke-width:1.62866855;stroke-miterlimit:4;stroke-dasharray:none;stroke-opacity:1"
         d="M 137.66223,97.433531 C 133.18494,97.567701 127.94774,98.321261 122.44348,99.433531 C 114.26004,99.589981 105.08842,101.09187 94.380979,107.02728 C 94.331379,107.05477 94.274399,107.0621 94.224729,107.08978 C 88.363969,108.9726 83.348209,110.72404 80.005979,111.93353 C 79.996709,111.93057 79.984019,111.9365 79.974729,111.93353 C 66.913579,107.76256 29.580739,99.810091 26.193479,143.90228 C 26.172819,144.17322 26.280559,144.62091 26.505979,145.18353 C 26.509229,145.19164 26.502679,145.20661 26.505979,145.21478 C 25.260809,152.14419 27.880989,164.30853 27.880979,164.30853 C 29.431959,165.4209 30.550959,167.86409 30.849729,168.65228 C 30.853229,168.66536 30.848309,168.70002 30.849729,168.71478 C 30.872549,169.59502 27.696989,173.09945 28.255979,174.55853 C 28.258599,174.56491 28.284459,174.58348 28.287229,174.58978 C 28.298899,174.61464 28.304369,174.66 28.318479,174.68353 C 28.322159,174.68933 28.345889,174.70907 28.349729,174.71478 C 28.357719,174.72603 28.372349,174.76638 28.380979,174.77728 C 28.385459,174.78264 28.407589,174.80326 28.412229,174.80853 C 28.417029,174.81371 28.438509,174.83469 28.443479,174.83978 C 28.448609,174.84477 28.469429,174.86613 28.474729,174.87103 C 28.491139,174.88545 28.519279,174.88872 28.537229,174.90228 C 29.659679,175.75347 30.641569,179.36339 31.412229,182.52728 C 31.417009,182.54691 31.407469,182.57019 31.412229,182.58978 C 31.409729,182.60205 31.414659,182.60879 31.412229,182.62103 C 31.171509,183.83243 31.256839,184.89178 31.943479,185.62103 C 32.047269,185.73152 32.128409,185.8387 32.224729,185.96478 C 33.101099,189.86747 41.914389,227.19398 41.412229,229.18353 C 40.916429,231.17945 44.402989,233.68558 47.568479,234.68353 C 47.938689,234.80048 48.824149,234.92057 50.193479,235.02728 C 50.237669,235.043 50.274319,235.04294 50.318479,235.05853 C 69.014609,241.66085 85.078029,237.29026 119.75598,235.77728 C 128.80922,235.69982 138.5006,235.58057 148.72473,235.40228 C 148.84668,235.40015 148.97813,235.40432 149.09973,235.40228 C 149.31757,235.39863 149.53924,235.40564 149.75598,235.40228 C 159.98011,235.58057 169.67149,235.69982 178.72473,235.77728 C 213.40268,237.29026 229.4661,241.66085 248.16223,235.05853 C 248.20429,235.05533 248.24604,235.03049 248.28723,235.02728 C 249.65656,234.92057 250.54202,234.80048 250.91223,234.68353 C 254.07772,233.68558 257.56428,231.17945 257.06848,229.18353 C 256.56632,227.19398 257.72473,219.38715 257.72473,216.55853 C 257.72473,213.72992 259.71774,210.41827 260.88098,209.08978 C 261.22318,208.6971 261.63205,207.85623 262.00598,206.80853 C 263.63819,207.4108 265.73892,208.53614 266.41223,208.58978 C 266.41812,208.59009 266.43783,208.58965 266.44348,208.58978 C 266.44889,208.58973 266.46956,208.59002 266.47473,208.58978 C 266.47965,208.58936 266.5013,208.59039 266.50598,208.58978 C 266.51041,208.58897 266.53306,208.59078 266.53723,208.58978 C 266.54089,208.58838 266.56508,208.59138 266.56848,208.58978 C 266.57474,208.58618 266.59454,208.56296 266.59973,208.55853 C 266.60178,208.55589 266.59796,208.53014 266.59973,208.52728 C 266.60214,208.52069 266.62972,208.50352 266.63098,208.49603 C 266.63131,208.49206 266.63094,208.46898 266.63098,208.46478 C 266.62931,208.45077 266.60416,208.41845 266.59973,208.40228 C 266.59615,208.39101 266.60457,208.35204 266.59973,208.33978 C 266.59699,208.3334 266.57154,208.31517 266.56848,208.30853 C 266.39906,207.9639 265.82319,207.29 264.66223,206.15228 C 264.65627,206.14644 264.63682,206.1273 264.63098,206.12103 C 263.22442,204.47344 265.37961,189.86747 266.25598,185.96478 C 266.3523,185.8387 266.43344,185.73152 266.53723,185.62103 C 267.22387,184.89178 267.30919,183.83243 267.06848,182.62103 C 267.07086,182.61124 267.0661,182.59958 267.06848,182.58978 C 267.06348,182.56524 267.07374,182.55194 267.06848,182.52728 C 267.83914,179.36339 268.82103,175.75347 269.94348,174.90228 C 269.96143,174.88872 269.98957,174.88545 270.00598,174.87103 C 270.01128,174.86613 270.03209,174.84477 270.03723,174.83978 C 270.0422,174.83469 270.06368,174.81371 270.06848,174.80853 C 270.07312,174.80326 270.09525,174.78264 270.09973,174.77728 C 270.10836,174.76638 270.12299,174.72603 270.13098,174.71478 C 270.13482,174.70907 270.15855,174.68933 270.16223,174.68353 C 270.18339,174.64824 270.20901,174.59679 270.22473,174.55853 C 270.78373,173.09945 267.60816,169.59502 267.63098,168.71478 C 267.6331,168.69264 267.65538,168.6706 267.66223,168.65228 C 267.96099,167.86409 269.04875,165.4209 270.59973,164.30853 C 270.59973,164.30853 273.21991,152.14419 271.97473,145.21478 C 271.97307,145.20552 271.97641,145.19277 271.97473,145.18353 C 272.20015,144.62091 272.30789,144.17322 272.28723,143.90228 C 268.89997,99.810091 231.56713,107.76256 218.50598,111.93353 C 218.49715,111.93033 218.48359,111.93673 218.47473,111.93353 C 215.13251,110.72404 210.11674,108.9726 204.25598,107.08978 C 204.21136,107.06491 204.17555,107.052 204.13098,107.02728 C 193.42325,101.08834 184.25219,99.591521 176.06848,99.433531 C 166.16081,97.431441 157.10389,96.596381 151.81848,98.433531 C 150.96416,98.730481 150.08941,98.979841 149.22473,99.183531 C 148.36916,98.981071 147.50766,98.727391 146.66223,98.433531 C 144.31316,97.617021 141.24406,97.326191 137.66223,97.433531 z" /><g
         id="g1821"><path
           id="path13497"
           style="fill:#f7d917;fill-opacity:1;fill-rule:evenodd;stroke:#000000;stroke-width:0.81433398;stroke-linecap:butt;stroke-linejoin:miter;stroke-miterlimit:4;stroke-dasharray:none;stroke-opacity:1"
           d="M 82.306174,132.96863 C 79.644569,133.91762 76.968977,156.78049 79.266509,164.15749 C 80.857028,169.26438 82.773834,172.71445 83.880192,174.83835 C 81.588161,171.30569 76.402579,164.53915 70.538482,165.06538 C 63.165939,165.72698 65.121526,189.44494 65.490346,190.94936 C 65.491776,190.95468 65.492006,190.96942 65.493382,190.97402 C 65.494703,190.97789 65.512015,190.99404 65.51328,190.99717 C 65.514094,190.99634 65.529281,190.9968 65.530142,190.99565 C 65.791495,190.40221 67.572072,180.36577 74.864627,179.71135 C 79.665118,179.28057 84.089457,184.49669 85.754156,186.73742 C 85.845499,187.48265 85.946963,188.20262 86.041194,188.93064 C 85.234657,191.25967 85.196438,196.61081 82.677321,203.56859 C 79.633388,211.97592 67.380985,213.90934 65.315059,214.17708 C 65.83877,214.13008 85.563475,212.36003 92.041924,211.77867 C 92.067511,211.77637 92.101276,211.77568 92.126236,211.7711 C 92.138236,211.77164 92.147947,211.76805 92.15996,211.76807 C 92.185489,211.76812 118.44743,209.40909 118.97114,209.36209 C 116.88516,209.46694 113.07972,204.28902 101.05957,201.14334 C 94.44333,195.54104 93.906133,190.48151 92.550071,188.34655 C 92.46496,187.61771 92.388884,186.89546 92.296758,186.1503 C 93.379429,183.66302 96.43689,177.7755 101.23738,177.34472 C 108.52994,176.6903 112.71561,186.19133 113.11576,186.72542 C 113.11689,186.72638 113.13163,186.72324 113.13263,186.7239 C 113.1331,186.72062 113.1461,186.70175 113.14645,186.69773 C 113.14668,186.69299 113.14332,186.67853 113.14342,186.67307 C 113.13783,185.13605 109.27505,161.58924 101.9025,162.25084 C 96.038403,162.77707 92.613882,170.31627 91.232187,174.17859 C 91.797169,171.90471 92.714157,167.20391 92.96707,162.92803 C 93.425156,155.18338 85.18894,132.71569 82.441073,132.95653 C 82.398159,132.96047 82.348422,132.95357 82.306174,132.96863 z M 83.965855,174.98025 C 84.203596,175.35017 84.411817,175.66819 84.579327,175.94743 C 84.582867,175.95333 85.160791,178.27 85.164298,178.27586 C 85.169202,178.32624 87.571412,186.18647 87.576328,186.23684 C 87.395617,185.94056 84.2081,175.43711 83.965855,174.98025 z M 91.182952,174.33261 C 91.057252,174.82249 90.379088,185.67283 90.274474,185.99471 C 90.267017,185.94457 90.828914,175.46236 90.821441,175.4122 C 90.820196,175.40385 90.873483,177.772 90.872237,177.76364 C 90.968088,177.46077 91.040485,174.73664 91.182952,174.33261 z" /><path
           id="path27451"
           style="fill:#f7d917;fill-opacity:1;fill-rule:evenodd;stroke:#000000;stroke-width:0.81433398;stroke-linecap:butt;stroke-linejoin:miter;stroke-miterlimit:4;stroke-dasharray:none;stroke-opacity:1"
           d="M 217.0738,134.31202 C 214.27305,134.68689 206.90247,156.49387 207.61603,164.18734 C 208.11001,169.51333 209.26762,173.28653 209.90822,175.59404 C 208.40076,171.66204 204.73534,163.96522 198.88998,163.26074 C 191.54099,162.37504 188.5226,185.9813 188.57057,187.52953 C 188.57086,187.53503 188.56802,187.5495 188.56841,187.55428 C 188.5689,187.55834 188.58248,187.57773 188.58307,187.58106 C 188.58403,187.58042 188.59879,187.58403 188.59987,187.58309 C 188.9789,187.05695 192.80726,177.61003 200.07651,178.48612 C 204.86167,179.06283 208.10483,185.08484 209.26728,187.62272 C 209.20168,188.37065 209.15124,189.09598 209.09205,189.82769 C 207.8189,191.93814 202.83407,200.17752 195.36242,203.17246 C 187.06294,206.49923 185.64625,210.38088 183.5698,210.21323 C 184.09184,210.27615 203.75352,212.64577 210.21127,213.42406 C 210.23678,213.42713 210.26995,213.43348 210.29532,213.43419 C 210.30694,213.43721 210.31719,213.43572 210.32893,213.43824 C 210.35389,213.44359 210.38747,213.4453 210.41298,213.44837 C 216.87073,214.22666 236.53241,216.59628 237.05445,216.6592 C 234.99226,216.32805 228.95866,213.29336 222.75815,206.52328 C 217.27345,200.53478 216.46267,192.97989 215.58013,190.60963 C 215.64841,189.87902 215.72416,189.15674 215.78898,188.40872 C 217.36512,186.20089 221.57985,181.0777 226.36501,181.65441 C 233.63426,182.5305 235.7531,192.69417 236.03346,193.29978 C 236.03436,193.30096 236.04943,193.30095 236.05027,193.30181 C 236.05142,193.29869 236.06806,193.28294 236.06924,193.27908 C 236.07044,193.27449 236.07016,193.25965 236.07139,193.25433 C 236.38549,191.74973 237.50278,167.91435 230.15379,167.02865 C 224.30842,166.32417 219.39125,172.98662 217.23673,176.47728 C 218.26213,174.37055 220.13643,169.96312 221.27282,165.83326 C 223.3311,158.35309 219.94616,134.66396 217.20827,134.32822 C 217.16547,134.32316 217.11826,134.30607 217.0738,134.31202 z M 209.96251,175.75066 C 210.11814,176.16192 210.25569,176.51628 210.36149,176.82425 C 210.36372,176.83076 210.44735,179.21696 210.44957,179.22342 C 210.44389,179.27372 211.15937,187.46163 211.15371,187.51192 C 211.03855,187.18455 210.10447,176.2479 209.96251,175.75066 z M 217.15655,176.61769 C 216.93174,177.07073 214.01248,187.54297 213.84323,187.83606 C 213.84636,187.78547 216.57536,177.64914 216.57847,177.59853 C 216.57899,177.5901 216.13875,179.91758 216.13927,179.90914 C 216.296,179.63282 216.93319,176.98327 217.15655,176.61769 z" /><g
           id="g33161"
           transform="matrix(1.085779,0,0,1.085779,6.91471,26.11209)"><g
             id="g33067"><g
               id="g33040"><path
                 id="path28377"
                 style="fill:#f7d917;fill-opacity:1;fill-rule:evenodd;stroke:#000000;stroke-width:0.71481037;stroke-linecap:butt;stroke-linejoin:miter;stroke-miterlimit:4;stroke-dasharray:none;stroke-opacity:1"
                 d="M 24.307772,134.55964 L 33.997629,122.74604 C 33.997629,122.74604 34.901298,123.91425 33.997629,122.74604 C 14.132028,97.064775 13.127166,82.331049 15.363287,74.869821 C 17.599408,67.408593 22.07165,59.325595 33.997629,49.377291 C 45.923607,39.428986 54.153807,44.958238 65.334412,44.958238 C 76.515016,44.958238 79.496511,47.445314 89.18637,48.688852 C 98.876225,49.93239 124.9643,51.175929 124.9643,51.175929 L 124.9643,44.336469 C 124.9643,44.336469 125.99304,44.528254 124.9643,44.336469 C 113.44564,42.18906 98.876225,44.336469 89.18637,41.849393 C 79.496511,39.362316 71.297401,38.740548 60.86217,38.740548 C 50.426939,38.740548 42.942114,35.698372 36.233751,40.050755 C 29.525388,44.403138 21.326277,51.864367 15.363287,58.082058 C 9.4002971,64.299748 6.4188033,76.735128 7.1641763,84.818126 C 7.9095502,92.901124 10.891045,99.740583 15.363287,105.95827 C 19.83553,112.17596 19.090156,117.15011 20.580903,121.50249 C 22.07165,125.85488 24.307772,135.18141 24.307772,134.55964 z" /><path
                 id="path29282"
                 style="fill:#f7d917;fill-opacity:1;fill-rule:evenodd;stroke:#000000;stroke-width:0.71481037;stroke-linecap:butt;stroke-linejoin:miter;stroke-miterlimit:4;stroke-dasharray:none;stroke-opacity:1"
                 d="M 239.25473,134.55964 L 229.56487,122.74604 C 229.56487,122.74604 228.6612,123.91425 229.56487,122.74604 C 249.43047,97.064775 250.43533,82.331049 248.19921,74.869821 C 245.96309,67.408593 241.49085,59.325595 229.56487,49.377291 C 217.63889,39.428986 209.40869,44.958238 198.22809,44.958238 C 187.04748,44.958238 184.06599,47.445314 174.37613,48.688852 C 164.68627,49.93239 138.5982,51.175929 138.5982,51.175929 L 138.5982,44.336469 C 138.5982,44.336469 137.56946,44.528254 138.5982,44.336469 C 150.11686,42.18906 164.68627,44.336469 174.37613,41.849393 C 184.06599,39.362316 192.2651,38.740548 202.70033,38.740548 C 213.13556,38.740548 220.62039,35.698372 227.32875,40.050755 C 234.03711,44.403138 242.23622,51.864367 248.19921,58.082058 C 254.1622,64.299748 257.1437,76.735128 256.39832,84.818126 C 255.65295,92.901124 252.67146,99.740583 248.19921,105.95827 C 243.72697,112.17596 244.47234,117.15011 242.9816,121.50249 C 241.49085,125.85488 239.25473,135.18141 239.25473,134.55964 z" /><rect
                 id="rect29364"
                 style="fill:#f7d917;fill-opacity:1;fill-rule:evenodd;stroke:#000000;stroke-width:0.83496058;stroke-linecap:butt;stroke-linejoin:miter;stroke-miterlimit:4;stroke-dasharray:none;stroke-opacity:1"
                 y="38.701004"
                 x="115.55334"
                 height="70.893784"
                 width="34.563435" /></g><g
               id="g33061"
               transform="translate(0,-8)"><path
                 id="path29388"
                 style="fill:#f7d917;fill-opacity:1;fill-rule:evenodd;stroke:#000000;stroke-width:0.5;stroke-linecap:butt;stroke-linejoin:miter;stroke-miterlimit:4;stroke-dasharray:none;stroke-opacity:1"
                 d="M 119.68386,-15.799146 C 119.68386,-15.799146 123.40428,-12.770914 126.25946,-8.8774715 C 129.11465,-4.9840306 131.10463,-0.2253797 131.10463,-0.2253797 C 131.10463,-0.2253797 126.34597,-2.2153611 122.45254,-5.070551 C 118.55909,-7.9257425 115.53086,-11.646141 115.53086,-11.646141 L 115.53086,14.656221 C 115.53086,14.656221 118.55909,10.93582 122.45254,8.080629 C 126.34597,5.2254391 131.10463,3.2354577 131.10463,3.2354577 C 131.10463,3.2354577 129.57132,7.1620817 128.58089,11.88755 C 127.68999,16.138135 120.39815,25.952081 120.39815,25.952081 L 141.70053,27.380652 C 141.70053,27.380652 138.1587,16.138135 136.73207,11.88755 C 135.19582,7.3103318 134.56547,3.2354577 134.56547,3.2354577 C 134.56547,3.2354577 139.32413,5.2254391 143.21756,8.080629 C 147.11101,10.93582 150.13924,14.656221 150.13924,14.656221 L 150.13924,-11.646141 C 150.13924,-11.646141 147.11101,-7.9257425 143.21756,-5.070551 C 139.32413,-2.2153611 134.56547,-0.2253797 134.56547,-0.2253797 C 134.56547,-0.2253797 136.55545,-4.9840306 139.41064,-8.8774715 C 142.26584,-12.770914 145.98624,-15.799146 145.98624,-15.799146 L 119.68386,-15.799146 z" /><g
                 id="g33057"><path
                   id="path29366"
                   style="fill:#f7d917;fill-opacity:1;fill-rule:evenodd;stroke:#000000;stroke-width:0.75;stroke-linecap:butt;stroke-linejoin:miter;stroke-miterlimit:4;stroke-dasharray:none;stroke-opacity:1"
                   transform="translate(-2.209282e-2,8)"
                   d="M 150,23.076468 C 150.00457,32.547439 142.32812,40.227606 132.85715,40.227606 C 123.38617,40.227606 115.70972,32.547439 115.71429,23.076468 C 115.70972,13.605497 123.38617,5.9253302 132.85715,5.9253302 C 142.32812,5.9253302 150.00457,13.605497 150,23.076468 L 150,23.076468 z" /><path
                   id="path31255"
                   style="fill:#f7d917;fill-opacity:1;fill-rule:evenodd;stroke:#000000;stroke-width:0.5;stroke-linecap:butt;stroke-linejoin:miter;stroke-miterlimit:4;stroke-dasharray:none;stroke-opacity:1"
                   d="M 116.07419,33.53461 L 150.17581,33.53461 C 150.17581,33.53461 150.66962,26.938729 148.2015,24.470608 C 145.8229,24.470608 137.6075,24.470608 137.6075,24.470608 L 137.42893,14.582607 L 133.48397,14.582607 L 127.38704,14.582607 L 127.20847,24.470608 C 127.20847,24.470608 120.0813,24.827751 116.79758,24.827751 C 115.30865,28.869394 115.53848,29.20861 115.53848,29.20861 L 116.07419,33.53461 z" /></g></g></g><g
             id="g33156"><path
               id="path11917"
               style="fill:#f7d917;fill-opacity:1;fill-rule:evenodd;stroke:#000000;stroke-width:0.75;stroke-linecap:butt;stroke-linejoin:miter;stroke-miterlimit:4;stroke-dasharray:none;stroke-opacity:1"
               d="M 110.87688,107.22088 C 110.87688,107.22088 117.08873,112.27704 121.85596,118.77781 C 126.6232,125.27859 129.94582,133.22398 129.94582,133.22398 C 129.94582,133.22398 122.00043,129.90136 115.49965,125.13412 C 108.99888,120.36689 103.94272,114.15504 103.94272,114.15504 L 103.94272,158.07138 C 103.94272,158.07138 108.99888,151.85954 115.49965,147.0923 C 122.00043,142.32506 129.94582,139.00244 129.94582,139.00244 C 129.94582,139.00244 126.6232,146.94783 121.85596,153.44861 C 117.08873,159.94939 110.87688,165.00555 110.87688,165.00555 L 154.79322,165.00555 C 154.79322,165.00555 148.58137,159.94939 143.81414,153.44861 C 139.0469,146.94783 135.72428,139.00244 135.72428,139.00244 C 135.72428,139.00244 143.66967,142.32506 150.17045,147.0923 C 156.67122,151.85954 161.72739,158.07138 161.72739,158.07138 L 161.72739,114.15504 C 161.72739,114.15504 156.67122,120.36689 150.17045,125.13412 C 143.66967,129.90136 135.72428,133.22398 135.72428,133.22398 C 135.72428,133.22398 139.0469,125.27859 143.81414,118.77781 C 148.58137,112.27704 154.79322,107.22088 154.79322,107.22088 L 110.87688,107.22088 z" /><path
               id="path27435"
               style="fill:#f7d917;fill-opacity:1;fill-rule:evenodd;stroke:#000000;stroke-width:0.75;stroke-linecap:butt;stroke-linejoin:miter;stroke-miterlimit:4;stroke-dasharray:none;stroke-opacity:1"
               d="M 27.240452,181.77981 L 48.865028,177.96682 C 48.865028,177.96682 41.869557,174.06615 36.045904,168.49195 C 30.22224,162.91775 25.570396,155.67004 25.570396,155.67004 C 25.570396,155.67004 33.972044,157.56248 41.201886,161.12844 C 48.431717,164.69441 54.489747,169.93388 54.489747,169.93388 L 46.863754,126.68473 C 46.863754,126.68473 42.963075,133.68021 37.388888,139.50386 C 31.814692,145.32752 24.566977,149.97937 24.566977,149.97937 C 24.566977,149.97937 26.459416,141.57772 30.025383,134.34788 C 33.591341,127.11805 38.830826,121.06002 38.830826,121.06002 L 17.20625,124.87302 L 27.240452,181.77981 z" /><path
               id="path27433"
               style="fill:#f7d917;fill-opacity:1;fill-rule:evenodd;stroke:#000000;stroke-width:0.75;stroke-linecap:butt;stroke-linejoin:miter;stroke-miterlimit:4;stroke-dasharray:none;stroke-opacity:1"
               d="M 226.83929,121.06002 C 226.83929,121.06002 232.07877,127.11803 235.64473,134.34786 C 239.21069,141.5777 241.10313,149.97935 241.10313,149.97935 C 241.10313,149.97935 233.85542,145.32751 228.28122,139.50385 C 222.70704,133.68019 218.80637,126.68472 218.80637,126.68472 L 211.18037,169.93387 C 211.18037,169.93387 217.23839,164.6944 224.46823,161.12843 C 231.69807,157.56247 240.09972,155.67003 240.09972,155.67003 C 240.09972,155.67003 235.44787,162.91774 229.62421,168.49194 C 223.80055,174.06613 216.80508,177.9668 216.80508,177.9668 L 238.42966,181.7798 L 248.46386,124.87301 L 226.83929,121.06002 z" /></g></g><path
           id="path14537"
           style="fill:#f7d917;fill-opacity:1;fill-rule:evenodd;stroke:#000000;stroke-width:0.81433427;stroke-linecap:butt;stroke-linejoin:miter;stroke-miterlimit:4;stroke-dasharray:none;stroke-opacity:1"
           d="M 36.734373,221.04489 L 36.897116,255.25402 C 36.897116,255.25402 94.061355,235.78794 151.22561,235.78794 C 208.38983,235.78794 265.55408,255.25402 265.55408,255.25402 L 265.55408,221.04489 C 265.55408,221.04489 208.34915,201.57881 151.14423,201.57881 C 93.939299,201.57881 36.734373,221.04489 36.734373,221.04489 z" /><g
           id="g31151"
           transform="matrix(1.085779,0,0,1.085779,6.91471,26.11209)"><path
             id="path23567"
             style="fill:#ffffff;fill-opacity:1;fill-rule:evenodd;stroke:#000000;stroke-width:1.5;stroke-linecap:butt;stroke-linejoin:miter;stroke-miterlimit:4;stroke-dasharray:none;stroke-opacity:1"
             transform="matrix(0.661234,0,0,0.661234,21.24618,-360.3206)"
             d="M 2.0203056,723.05243 C 2.0215219,729.74799 -3.4059629,735.17646 -10.101525,735.17646 C -16.797088,735.17646 -22.224572,729.74799 -22.223356,723.05243 C -22.224572,716.35687 -16.797088,710.9284 -10.101525,710.9284 C -3.4059629,710.9284 2.0215219,716.35687 2.0203056,723.05243 L 2.0203056,723.05243 z" /><path
             id="path29252"
             style="fill:#ffffff;fill-opacity:1;fill-rule:evenodd;stroke:#000000;stroke-width:1.5;stroke-linecap:butt;stroke-linejoin:miter;stroke-miterlimit:4;stroke-dasharray:none;stroke-opacity:1"
             transform="matrix(0.661234,0,0,0.661234,10.96519,-378.6019)"
             d="M 2.0203056,723.05243 C 2.0215219,729.74799 -3.4059629,735.17646 -10.101525,735.17646 C -16.797088,735.17646 -22.224572,729.74799 -22.223356,723.05243 C -22.224572,716.35687 -16.797088,710.9284 -10.101525,710.9284 C -3.4059629,710.9284 2.0215219,716.35687 2.0203056,723.05243 L 2.0203056,723.05243 z" /><path
             id="path29254"
             style="fill:#ffffff;fill-opacity:1;fill-rule:evenodd;stroke:#000000;stroke-width:1.5;stroke-linecap:butt;stroke-linejoin:miter;stroke-miterlimit:4;stroke-dasharray:none;stroke-opacity:1"
             transform="matrix(0.661234,0,0,0.661234,8.822333,-400.0304)"
             d="M 2.0203056,723.05243 C 2.0215219,729.74799 -3.4059629,735.17646 -10.101525,735.17646 C -16.797088,735.17646 -22.224572,729.74799 -22.223356,723.05243 C -22.224572,716.35687 -16.797088,710.9284 -10.101525,710.9284 C -3.4059629,710.9284 2.0215219,716.35687 2.0203056,723.05243 L 2.0203056,723.05243 z" /><path
             id="path29256"
             style="fill:#ffffff;fill-opacity:1;fill-rule:evenodd;stroke:#000000;stroke-width:1.5;stroke-linecap:butt;stroke-linejoin:miter;stroke-miterlimit:4;stroke-dasharray:none;stroke-opacity:1"
             transform="matrix(0.661234,0,0,0.661234,15.25091,-420.0304)"
             d="M 2.0203056,723.05243 C 2.0215219,729.74799 -3.4059629,735.17646 -10.101525,735.17646 C -16.797088,735.17646 -22.224572,729.74799 -22.223356,723.05243 C -22.224572,716.35687 -16.797088,710.9284 -10.101525,710.9284 C -3.4059629,710.9284 2.0215219,716.35687 2.0203056,723.05243 L 2.0203056,723.05243 z" /><path
             id="path29258"
             style="fill:#ffffff;fill-opacity:1;fill-rule:evenodd;stroke:#000000;stroke-width:1.5;stroke-linecap:butt;stroke-linejoin:miter;stroke-miterlimit:4;stroke-dasharray:none;stroke-opacity:1"
             transform="matrix(0.661234,0,0,0.661234,28.82233,-436.459)"
             d="M 2.0203056,723.05243 C 2.0215219,729.74799 -3.4059629,735.17646 -10.101525,735.17646 C -16.797088,735.17646 -22.224572,729.74799 -22.223356,723.05243 C -22.224572,716.35687 -16.797088,710.9284 -10.101525,710.9284 C -3.4059629,710.9284 2.0215219,716.35687 2.0203056,723.05243 L 2.0203056,723.05243 z" /><path
             id="path29260"
             style="fill:#ffffff;fill-opacity:1;fill-rule:evenodd;stroke:#000000;stroke-width:1.5;stroke-linecap:butt;stroke-linejoin:miter;stroke-miterlimit:4;stroke-dasharray:none;stroke-opacity:1"
             transform="matrix(0.661234,0,0,0.661234,47.39376,-447.8875)"
             d="M 2.0203056,723.05243 C 2.0215219,729.74799 -3.4059629,735.17646 -10.101525,735.17646 C -16.797088,735.17646 -22.224572,729.74799 -22.223356,723.05243 C -22.224572,716.35687 -16.797088,710.9284 -10.101525,710.9284 C -3.4059629,710.9284 2.0215219,716.35687 2.0203056,723.05243 L 2.0203056,723.05243 z" /><path
             id="path29262"
             style="fill:#ffffff;fill-opacity:1;fill-rule:evenodd;stroke:#000000;stroke-width:1.5;stroke-linecap:butt;stroke-linejoin:miter;stroke-miterlimit:4;stroke-dasharray:none;stroke-opacity:1"
             transform="matrix(0.661234,0,0,0.661234,68.10805,-446.459)"
             d="M 2.0203056,723.05243 C 2.0215219,729.74799 -3.4059629,735.17646 -10.101525,735.17646 C -16.797088,735.17646 -22.224572,729.74799 -22.223356,723.05243 C -22.224572,716.35687 -16.797088,710.9284 -10.101525,710.9284 C -3.4059629,710.9284 2.0215219,716.35687 2.0203056,723.05243 L 2.0203056,723.05243 z" /><path
             id="path29264"
             style="fill:#ffffff;fill-opacity:1;fill-rule:evenodd;stroke:#000000;stroke-width:1.5;stroke-linecap:butt;stroke-linejoin:miter;stroke-miterlimit:4;stroke-dasharray:none;stroke-opacity:1"
             transform="matrix(0.661234,0,0,0.661234,88.82233,-443.0304)"
             d="M 2.0203056,723.05243 C 2.0215219,729.74799 -3.4059629,735.17646 -10.101525,735.17646 C -16.797088,735.17646 -22.224572,729.74799 -22.223356,723.05243 C -22.224572,716.35687 -16.797088,710.9284 -10.101525,710.9284 C -3.4059629,710.9284 2.0215219,716.35687 2.0203056,723.05243 L 2.0203056,723.05243 z" /><path
             id="path29266"
             style="fill:#ffffff;fill-opacity:1;fill-rule:evenodd;stroke:#000000;stroke-width:1.5;stroke-linecap:butt;stroke-linejoin:miter;stroke-miterlimit:4;stroke-dasharray:none;stroke-opacity:1"
             transform="matrix(0.661234,0,0,0.661234,109.5366,-440.8875)"
             d="M 2.0203056,723.05243 C 2.0215219,729.74799 -3.4059629,735.17646 -10.101525,735.17646 C -16.797088,735.17646 -22.224572,729.74799 -22.223356,723.05243 C -22.224572,716.35687 -16.797088,710.9284 -10.101525,710.9284 C -3.4059629,710.9284 2.0215219,716.35687 2.0203056,723.05243 L 2.0203056,723.05243 z" /><path
             id="path29284"
             style="fill:#ffffff;fill-opacity:1;fill-rule:evenodd;stroke:#000000;stroke-width:1.5;stroke-linecap:butt;stroke-linejoin:miter;stroke-miterlimit:4;stroke-dasharray:none;stroke-opacity:1"
             transform="matrix(-0.661234,0,0,0.661234,242.3163,-360.3206)"
             d="M 2.0203056,723.05243 C 2.0215219,729.74799 -3.4059629,735.17646 -10.101525,735.17646 C -16.797088,735.17646 -22.224572,729.74799 -22.223356,723.05243 C -22.224572,716.35687 -16.797088,710.9284 -10.101525,710.9284 C -3.4059629,710.9284 2.0215219,716.35687 2.0203056,723.05243 L 2.0203056,723.05243 z" /><path
             id="path29286"
             style="fill:#ffffff;fill-opacity:1;fill-rule:evenodd;stroke:#000000;stroke-width:1.5;stroke-linecap:butt;stroke-linejoin:miter;stroke-miterlimit:4;stroke-dasharray:none;stroke-opacity:1"
             transform="matrix(-0.661234,0,0,0.661234,252.5973,-378.6019)"
             d="M 2.0203056,723.05243 C 2.0215219,729.74799 -3.4059629,735.17646 -10.101525,735.17646 C -16.797088,735.17646 -22.224572,729.74799 -22.223356,723.05243 C -22.224572,716.35687 -16.797088,710.9284 -10.101525,710.9284 C -3.4059629,710.9284 2.0215219,716.35687 2.0203056,723.05243 L 2.0203056,723.05243 z" /><path
             id="path29288"
             style="fill:#ffffff;fill-opacity:1;fill-rule:evenodd;stroke:#000000;stroke-width:1.5;stroke-linecap:butt;stroke-linejoin:miter;stroke-miterlimit:4;stroke-dasharray:none;stroke-opacity:1"
             transform="matrix(-0.661234,0,0,0.661234,254.7402,-400.0304)"
             d="M 2.0203056,723.05243 C 2.0215219,729.74799 -3.4059629,735.17646 -10.101525,735.17646 C -16.797088,735.17646 -22.224572,729.74799 -22.223356,723.05243 C -22.224572,716.35687 -16.797088,710.9284 -10.101525,710.9284 C -3.4059629,710.9284 2.0215219,716.35687 2.0203056,723.05243 L 2.0203056,723.05243 z" /><path
             id="path29290"
             style="fill:#ffffff;fill-opacity:1;fill-rule:evenodd;stroke:#000000;stroke-width:1.5;stroke-linecap:butt;stroke-linejoin:miter;stroke-miterlimit:4;stroke-dasharray:none;stroke-opacity:1"
             transform="matrix(-0.661234,0,0,0.661234,248.3116,-420.0304)"
             d="M 2.0203056,723.05243 C 2.0215219,729.74799 -3.4059629,735.17646 -10.101525,735.17646 C -16.797088,735.17646 -22.224572,729.74799 -22.223356,723.05243 C -22.224572,716.35687 -16.797088,710.9284 -10.101525,710.9284 C -3.4059629,710.9284 2.0215219,716.35687 2.0203056,723.05243 L 2.0203056,723.05243 z" /><path
             id="path29292"
             style="fill:#ffffff;fill-opacity:1;fill-rule:evenodd;stroke:#000000;stroke-width:1.5;stroke-linecap:butt;stroke-linejoin:miter;stroke-miterlimit:4;stroke-dasharray:none;stroke-opacity:1"
             transform="matrix(-0.661234,0,0,0.661234,234.7402,-436.459)"
             d="M 2.0203056,723.05243 C 2.0215219,729.74799 -3.4059629,735.17646 -10.101525,735.17646 C -16.797088,735.17646 -22.224572,729.74799 -22.223356,723.05243 C -22.224572,716.35687 -16.797088,710.9284 -10.101525,710.9284 C -3.4059629,710.9284 2.0215219,716.35687 2.0203056,723.05243 L 2.0203056,723.05243 z" /><path
             id="path29294"
             style="fill:#ffffff;fill-opacity:1;fill-rule:evenodd;stroke:#000000;stroke-width:1.5;stroke-linecap:butt;stroke-linejoin:miter;stroke-miterlimit:4;stroke-dasharray:none;stroke-opacity:1"
             transform="matrix(-0.661234,0,0,0.661234,216.1687,-447.8875)"
             d="M 2.0203056,723.05243 C 2.0215219,729.74799 -3.4059629,735.17646 -10.101525,735.17646 C -16.797088,735.17646 -22.224572,729.74799 -22.223356,723.05243 C -22.224572,716.35687 -16.797088,710.9284 -10.101525,710.9284 C -3.4059629,710.9284 2.0215219,716.35687 2.0203056,723.05243 L 2.0203056,723.05243 z" /><path
             id="path29296"
             style="fill:#ffffff;fill-opacity:1;fill-rule:evenodd;stroke:#000000;stroke-width:1.5;stroke-linecap:butt;stroke-linejoin:miter;stroke-miterlimit:4;stroke-dasharray:none;stroke-opacity:1"
             transform="matrix(-0.661234,0,0,0.661234,195.4544,-446.459)"
             d="M 2.0203056,723.05243 C 2.0215219,729.74799 -3.4059629,735.17646 -10.101525,735.17646 C -16.797088,735.17646 -22.224572,729.74799 -22.223356,723.05243 C -22.224572,716.35687 -16.797088,710.9284 -10.101525,710.9284 C -3.4059629,710.9284 2.0215219,716.35687 2.0203056,723.05243 L 2.0203056,723.05243 z" /><path
             id="path29298"
             style="fill:#ffffff;fill-opacity:1;fill-rule:evenodd;stroke:#000000;stroke-width:1.5;stroke-linecap:butt;stroke-linejoin:miter;stroke-miterlimit:4;stroke-dasharray:none;stroke-opacity:1"
             transform="matrix(-0.661234,0,0,0.661234,174.7402,-443.0304)"
             d="M 2.0203056,723.05243 C 2.0215219,729.74799 -3.4059629,735.17646 -10.101525,735.17646 C -16.797088,735.17646 -22.224572,729.74799 -22.223356,723.05243 C -22.224572,716.35687 -16.797088,710.9284 -10.101525,710.9284 C -3.4059629,710.9284 2.0215219,716.35687 2.0203056,723.05243 L 2.0203056,723.05243 z" /><path
             id="path29300"
             style="fill:#ffffff;fill-opacity:1;fill-rule:evenodd;stroke:#000000;stroke-width:1.5;stroke-linecap:butt;stroke-linejoin:miter;stroke-miterlimit:4;stroke-dasharray:none;stroke-opacity:1"
             transform="matrix(-0.661234,0,0,0.661234,154.0259,-440.8875)"
             d="M 2.0203056,723.05243 C 2.0215219,729.74799 -3.4059629,735.17646 -10.101525,735.17646 C -16.797088,735.17646 -22.224572,729.74799 -22.223356,723.05243 C -22.224572,716.35687 -16.797088,710.9284 -10.101525,710.9284 C -3.4059629,710.9284 2.0215219,716.35687 2.0203056,723.05243 L 2.0203056,723.05243 z" /><g
             id="g29354"
             transform="translate(1.040326,0)"><path
               id="path29306"
               style="fill:#ffffff;fill-opacity:1;fill-rule:evenodd;stroke:#000000;stroke-width:1.5;stroke-linecap:butt;stroke-linejoin:miter;stroke-miterlimit:4;stroke-dasharray:none;stroke-opacity:1"
               transform="matrix(0.661234,0,0,0.661234,138.4742,-378.3206)"
               d="M 2.0203056,723.05243 C 2.0215219,729.74799 -3.4059629,735.17646 -10.101525,735.17646 C -16.797088,735.17646 -22.224572,729.74799 -22.223356,723.05243 C -22.224572,716.35687 -16.797088,710.9284 -10.101525,710.9284 C -3.4059629,710.9284 2.0215219,716.35687 2.0203056,723.05243 L 2.0203056,723.05243 z" /><path
               id="path29308"
               style="fill:#ffffff;fill-opacity:1;fill-rule:evenodd;stroke:#000000;stroke-width:1.5;stroke-linecap:butt;stroke-linejoin:miter;stroke-miterlimit:4;stroke-dasharray:none;stroke-opacity:1"
               transform="matrix(0.661234,0,0,0.661234,138.4742,-392.6019)"
               d="M 2.0203056,723.05243 C 2.0215219,729.74799 -3.4059629,735.17646 -10.101525,735.17646 C -16.797088,735.17646 -22.224572,729.74799 -22.223356,723.05243 C -22.224572,716.35687 -16.797088,710.9284 -10.101525,710.9284 C -3.4059629,710.9284 2.0215219,716.35687 2.0203056,723.05243 L 2.0203056,723.05243 z" /><path
               id="path29312"
               style="fill:#ffffff;fill-opacity:1;fill-rule:evenodd;stroke:#000000;stroke-width:1.5;stroke-linecap:butt;stroke-linejoin:miter;stroke-miterlimit:4;stroke-dasharray:none;stroke-opacity:1"
               transform="matrix(0.661234,0,0,0.661234,138.4742,-404.0304)"
               d="M 2.0203056,723.05243 C 2.0215219,729.74799 -3.4059629,735.17646 -10.101525,735.17646 C -16.797088,735.17646 -22.224572,729.74799 -22.223356,723.05243 C -22.224572,716.35687 -16.797088,710.9284 -10.101525,710.9284 C -3.4059629,710.9284 2.0215219,716.35687 2.0203056,723.05243 L 2.0203056,723.05243 z" /><path
               id="path29314"
               style="fill:#ffffff;fill-opacity:1;fill-rule:evenodd;stroke:#000000;stroke-width:1.5;stroke-linecap:butt;stroke-linejoin:miter;stroke-miterlimit:4;stroke-dasharray:none;stroke-opacity:1"
               transform="matrix(0.661234,0,0,0.661234,138.4742,-414.459)"
               d="M 2.0203056,723.05243 C 2.0215219,729.74799 -3.4059629,735.17646 -10.101525,735.17646 C -16.797088,735.17646 -22.224572,729.74799 -22.223356,723.05243 C -22.224572,716.35687 -16.797088,710.9284 -10.101525,710.9284 C -3.4059629,710.9284 2.0215219,716.35687 2.0203056,723.05243 L 2.0203056,723.05243 z" /><path
               id="path29316"
               style="fill:#ffffff;fill-opacity:1;fill-rule:evenodd;stroke:#000000;stroke-width:1.5;stroke-linecap:butt;stroke-linejoin:miter;stroke-miterlimit:4;stroke-dasharray:none;stroke-opacity:1"
               transform="matrix(0.661234,0,0,0.661234,138.4742,-447.8875)"
               d="M 2.0203056,723.05243 C 2.0215219,729.74799 -3.4059629,735.17646 -10.101525,735.17646 C -16.797088,735.17646 -22.224572,729.74799 -22.223356,723.05243 C -22.224572,716.35687 -16.797088,710.9284 -10.101525,710.9284 C -3.4059629,710.9284 2.0215219,716.35687 2.0203056,723.05243 L 2.0203056,723.05243 z" /><path
               id="path29318"
               style="fill:#ffffff;fill-opacity:1;fill-rule:evenodd;stroke:#000000;stroke-width:1.5;stroke-linecap:butt;stroke-linejoin:miter;stroke-miterlimit:4;stroke-dasharray:none;stroke-opacity:1"
               transform="matrix(0.661234,0,0,0.661234,138.4742,-446.459)"
               d="M 2.0203056,723.05243 C 2.0215219,729.74799 -3.4059629,735.17646 -10.101525,735.17646 C -16.797088,735.17646 -22.224572,729.74799 -22.223356,723.05243 C -22.224572,716.35687 -16.797088,710.9284 -10.101525,710.9284 C -3.4059629,710.9284 2.0215219,716.35687 2.0203056,723.05243 L 2.0203056,723.05243 z" /><path
               id="path29320"
               style="fill:#ffffff;fill-opacity:1;fill-rule:evenodd;stroke:#000000;stroke-width:1.5;stroke-linecap:butt;stroke-linejoin:miter;stroke-miterlimit:4;stroke-dasharray:none;stroke-opacity:1"
               transform="matrix(0.661234,0,0,0.661234,138.4742,-439.0304)"
               d="M 2.0203056,723.05243 C 2.0215219,729.74799 -3.4059629,735.17646 -10.101525,735.17646 C -16.797088,735.17646 -22.224572,729.74799 -22.223356,723.05243 C -22.224572,716.35687 -16.797088,710.9284 -10.101525,710.9284 C -3.4059629,710.9284 2.0215219,716.35687 2.0203056,723.05243 L 2.0203056,723.05243 z" /><path
               id="path29322"
               style="fill:#ffffff;fill-opacity:1;fill-rule:evenodd;stroke:#000000;stroke-width:1.5;stroke-linecap:butt;stroke-linejoin:miter;stroke-miterlimit:4;stroke-dasharray:none;stroke-opacity:1"
               transform="matrix(0.661234,0,0,0.661234,138.4742,-428.8875)"
               d="M 2.0203056,723.05243 C 2.0215219,729.74799 -3.4059629,735.17646 -10.101525,735.17646 C -16.797088,735.17646 -22.224572,729.74799 -22.223356,723.05243 C -22.224572,716.35687 -16.797088,710.9284 -10.101525,710.9284 C -3.4059629,710.9284 2.0215219,716.35687 2.0203056,723.05243 L 2.0203056,723.05243 z" /></g></g><g
           id="g2038"
           transform="translate(0,-2.600445e-4)"><rect
             id="rect36472"
             style="fill:#002b7f;fill-opacity:1;fill-rule:evenodd;stroke:#000000;stroke-width:0.84141195;stroke-linecap:butt;stroke-linejoin:miter;stroke-miterlimit:4;stroke-dasharray:none;stroke-opacity:1"
             y="210.09613"
             x="134.79076"
             height="15.152546"
             width="34.761723" /><path
             id="path37350"
             style="fill:#3e8225;fill-opacity:1;fill-rule:evenodd;stroke:#000000;stroke-width:1.5;stroke-linecap:butt;stroke-linejoin:miter;stroke-miterlimit:4;stroke-dasharray:none;stroke-opacity:1"
             transform="matrix(-0.678154,-6.882792e-2,2.382547e-2,0.957698,195.4766,-0.830297)"
             d="M 16.04278,233.11084 C 16.04278,237.83627 5.7477237,241.66699 -6.951872,241.66699 C -19.651468,241.66699 -29.946524,237.83627 -29.946524,233.11084 C -29.946524,228.38541 -19.651468,224.55469 -6.951872,224.55469 C 5.7477237,224.55469 16.04278,228.38541 16.04278,233.11084 z" /><path
             id="path37352"
             style="fill:#cc0000;fill-opacity:1;fill-rule:evenodd;stroke:#000000;stroke-width:1.08577895px;stroke-linecap:butt;stroke-linejoin:miter;stroke-opacity:1"
             d="M 36.937037,229.28499 L 28.22758,237.99445 L 38.328875,243.82644 L 61.821799,237.53153 L 57.63484,224.22812 L 36.937037,229.28499 z" /><path
             id="path37354"
             style="fill:#cc0000;fill-opacity:1;fill-rule:evenodd;stroke:#000000;stroke-width:1.08577895px;stroke-linecap:butt;stroke-linejoin:miter;stroke-opacity:1"
             d="M 267.40617,229.28499 L 276.11563,237.99445 L 266.01433,243.82644 L 242.52141,237.53153 L 246.70837,224.22812 L 267.40617,229.28499 z" /><path
             id="path37356"
             style="fill:#3e8225;fill-opacity:1;fill-rule:evenodd;stroke:#000000;stroke-width:1.5;stroke-linecap:butt;stroke-linejoin:miter;stroke-miterlimit:4;stroke-dasharray:none;stroke-opacity:1"
             transform="matrix(0.678154,-6.882792e-2,-2.382547e-2,0.957698,108.8665,-0.830297)"
             d="M 16.04278,233.11084 C 16.04278,237.83627 5.7477237,241.66699 -6.951872,241.66699 C -19.651468,241.66699 -29.946524,237.83627 -29.946524,233.11084 C -29.946524,228.38541 -19.651468,224.55469 -6.951872,224.55469 C 5.7477237,224.55469 16.04278,228.38541 16.04278,233.11084 z" /><path
             id="path1994"
             style="fill:#ffffff;fill-opacity:1;fill-rule:evenodd;stroke:#000000;stroke-width:0.69999999;stroke-linecap:butt;stroke-linejoin:miter;stroke-miterlimit:4;stroke-dasharray:none;stroke-opacity:1"
             transform="translate(1.069518,-3.475935)"
             d="M 126.20321,214.70358 C 126.20321,217.0663 124.28785,218.98165 121.92514,218.98165 C 119.56242,218.98165 117.64706,217.0663 117.64706,214.70358 C 117.64706,212.34086 119.56242,210.4255 121.92514,210.4255 C 124.28785,210.4255 126.20321,212.34086 126.20321,214.70358 z" /><path
             id="path1996"
             style="fill:#ffffff;fill-opacity:1;fill-rule:evenodd;stroke:#000000;stroke-width:0.69999999;stroke-linecap:butt;stroke-linejoin:miter;stroke-miterlimit:4;stroke-dasharray:none;stroke-opacity:1"
             transform="translate(2.406416,10.16042)"
             d="M 126.20321,214.70358 C 126.20321,217.0663 124.28785,218.98165 121.92514,218.98165 C 119.56242,218.98165 117.64706,217.0663 117.64706,214.70358 C 117.64706,212.34086 119.56242,210.4255 121.92514,210.4255 C 124.28785,210.4255 126.20321,212.34086 126.20321,214.70358 z" /><path
             id="path1998"
             style="fill:#ffffff;fill-opacity:1;fill-rule:evenodd;stroke:#000000;stroke-width:0.69999999;stroke-linecap:butt;stroke-linejoin:miter;stroke-miterlimit:4;stroke-dasharray:none;stroke-opacity:1"
             transform="translate(-52.40642,6.149728)"
             d="M 126.20321,214.70358 C 126.20321,217.0663 124.28785,218.98165 121.92514,218.98165 C 119.56242,218.98165 117.64706,217.0663 117.64706,214.70358 C 117.64706,212.34086 119.56242,210.4255 121.92514,210.4255 C 124.28785,210.4255 126.20321,212.34086 126.20321,214.70358 z" /><path
             id="path2000"
             style="fill:#ffffff;fill-opacity:1;fill-rule:evenodd;stroke:#000000;stroke-width:0.69999999;stroke-linecap:butt;stroke-linejoin:miter;stroke-miterlimit:4;stroke-dasharray:none;stroke-opacity:1"
             transform="translate(-47.05882,18.98396)"
             d="M 126.20321,214.70358 C 126.20321,217.0663 124.28785,218.98165 121.92514,218.98165 C 119.56242,218.98165 117.64706,217.0663 117.64706,214.70358 C 117.64706,212.34086 119.56242,210.4255 121.92514,210.4255 C 124.28785,210.4255 126.20321,212.34086 126.20321,214.70358 z" /><path
             id="path2020"
             style="fill:#ffffff;fill-opacity:1;fill-rule:evenodd;stroke:#000000;stroke-width:0.69999999;stroke-linecap:butt;stroke-linejoin:miter;stroke-miterlimit:4;stroke-dasharray:none;stroke-opacity:1"
             transform="matrix(-1,0,0,1,303.0748,-3.475943)"
             d="M 126.20321,214.70358 C 126.20321,217.0663 124.28785,218.98165 121.92514,218.98165 C 119.56242,218.98165 117.64706,217.0663 117.64706,214.70358 C 117.64706,212.34086 119.56242,210.4255 121.92514,210.4255 C 124.28785,210.4255 126.20321,212.34086 126.20321,214.70358 z" /><path
             id="path2022"
             style="fill:#ffffff;fill-opacity:1;fill-rule:evenodd;stroke:#000000;stroke-width:0.69999999;stroke-linecap:butt;stroke-linejoin:miter;stroke-miterlimit:4;stroke-dasharray:none;stroke-opacity:1"
             transform="matrix(-1,0,0,1,301.7379,10.16041)"
             d="M 126.20321,214.70358 C 126.20321,217.0663 124.28785,218.98165 121.92514,218.98165 C 119.56242,218.98165 117.64706,217.0663 117.64706,214.70358 C 117.64706,212.34086 119.56242,210.4255 121.92514,210.4255 C 124.28785,210.4255 126.20321,212.34086 126.20321,214.70358 z" /><path
             id="path2024"
             style="fill:#ffffff;fill-opacity:1;fill-rule:evenodd;stroke:#000000;stroke-width:0.69999999;stroke-linecap:butt;stroke-linejoin:miter;stroke-miterlimit:4;stroke-dasharray:none;stroke-opacity:1"
             transform="matrix(-1,0,0,1,356.5507,6.14972)"
             d="M 126.20321,214.70358 C 126.20321,217.0663 124.28785,218.98165 121.92514,218.98165 C 119.56242,218.98165 117.64706,217.0663 117.64706,214.70358 C 117.64706,212.34086 119.56242,210.4255 121.92514,210.4255 C 124.28785,210.4255 126.20321,212.34086 126.20321,214.70358 z" /><path
             id="path2026"
             style="fill:#ffffff;fill-opacity:1;fill-rule:evenodd;stroke:#000000;stroke-width:0.69999999;stroke-linecap:butt;stroke-linejoin:miter;stroke-miterlimit:4;stroke-dasharray:none;stroke-opacity:1"
             transform="matrix(-1,0,0,1,351.2031,18.98395)"
             d="M 126.20321,214.70358 C 126.20321,217.0663 124.28785,218.98165 121.92514,218.98165 C 119.56242,218.98165 117.64706,217.0663 117.64706,214.70358 C 117.64706,212.34086 119.56242,210.4255 121.92514,210.4255 C 124.28785,210.4255 126.20321,212.34086 126.20321,214.70358 z" /></g><g
           id="g1811"><path
             id="path1793"
             style="fill:#f7d917;fill-opacity:1;fill-rule:evenodd;stroke:#000000;stroke-width:1px;stroke-linecap:butt;stroke-linejoin:miter;stroke-opacity:1"
             d="M 262.58091,201.65725 C 262.58091,201.65725 265.29873,202.95708 265.29873,202.95708 C 264.2825,204.30417 258.11026,219.37061 235.92261,214.7028 C 213.51535,209.9888 211.91122,188.42263 211.91122,188.42263 L 216.07068,189.93515 C 216.07068,189.93515 218.50174,206.58104 236.11167,211.29961 C 253.54363,215.97049 262.58091,201.65725 262.58091,201.65725 z" /><path
             id="path1795"
             style="fill:#f7d917;fill-opacity:1;fill-rule:evenodd;stroke:#000000;stroke-width:1px;stroke-linecap:butt;stroke-linejoin:miter;stroke-opacity:1"
             d="M 212.28936,188.61169 L 208.12991,189.17889 C 208.12991,189.17889 203.84045,204.85206 181.37706,201.65724 C 159.28425,198.51513 158.38192,181.99438 157.64929,179.15839 C 153.32441,181.23812 154.2461,181.99439 154.2461,181.99439 C 154.2461,181.99439 156.79826,202.04012 180.52628,204.87136 C 204.06523,207.70261 212.10029,194.85087 212.28936,188.61169 z" /><path
             id="path1797"
             style="fill:#f7d917;fill-opacity:1;fill-rule:evenodd;stroke:#000000;stroke-width:0.81433398;stroke-linecap:butt;stroke-linejoin:miter;stroke-miterlimit:4;stroke-dasharray:none;stroke-opacity:1"
             d="M 216.85168,186.57237 C 216.85168,186.57237 214.87391,184.91148 212.71553,184.71779 C 210.55714,184.5241 208.21814,185.79761 208.21814,185.79761 L 207.737,189.7061 C 207.737,189.7061 210.076,188.43259 212.23438,188.62628 C 214.39277,188.81997 216.37054,190.48085 216.37054,190.48085 L 216.85168,186.57237 z" /><path
             id="path1799"
             style="fill:#ffffff;fill-opacity:1;fill-rule:evenodd;stroke:#000000;stroke-width:1;stroke-linecap:butt;stroke-linejoin:miter;stroke-miterlimit:4;stroke-dasharray:none;stroke-opacity:1"
             transform="matrix(-1.085779,0,0,1.085779,412.6535,44.33766)"
             d="M 143.57142,136.29076 C 143.57498,142.01336 138.93689,146.65434 133.21428,146.65434 C 127.49167,146.65434 122.85358,142.01336 122.85714,136.29076 C 122.85358,130.56816 127.49167,125.92718 133.21428,125.92718 C 138.93689,125.92718 143.57498,130.56816 143.57142,136.29076 z" /><path
             id="path1423"
             style="fill:#f7d917;fill-opacity:1;fill-rule:evenodd;stroke:#000000;stroke-width:1px;stroke-linecap:butt;stroke-linejoin:miter;stroke-opacity:1"
             d="M 38.947592,201.65725 C 38.947592,201.65725 36.229769,202.95708 36.229769,202.95708 C 37.245999,204.30417 43.418242,219.37061 65.605895,214.7028 C 88.013146,209.9888 89.617276,188.42263 89.617276,188.42263 L 85.457824,189.93515 C 85.457824,189.93515 83.026765,206.58104 65.41683,211.29961 C 47.984874,215.97049 38.947592,201.65725 38.947592,201.65725 z" /><path
             id="path1532"
             style="fill:#f7d917;fill-opacity:1;fill-rule:evenodd;stroke:#000000;stroke-width:1px;stroke-linecap:butt;stroke-linejoin:miter;stroke-opacity:1"
             d="M 89.239144,188.61169 L 93.398595,189.17889 C 93.398595,189.17889 97.688049,204.85206 120.15144,201.65724 C 142.24425,198.51513 143.14658,181.99438 143.87921,179.15839 C 148.20409,181.23812 147.2824,181.99439 147.2824,181.99439 C 147.2824,181.99439 144.73024,202.04012 121.00222,204.87136 C 97.46327,207.70261 89.42821,194.85087 89.239144,188.61169 z" /><path
             id="path13500"
             style="fill:#f7d917;fill-opacity:1;fill-rule:evenodd;stroke:#000000;stroke-width:0.81433398;stroke-linecap:butt;stroke-linejoin:miter;stroke-miterlimit:4;stroke-dasharray:none;stroke-opacity:1"
             d="M 84.676821,186.57237 C 84.676821,186.57237 86.654591,184.91148 88.812975,184.71779 C 90.971359,184.5241 93.310357,185.79761 93.310357,185.79761 L 93.791499,189.7061 C 93.791499,189.7061 91.4525,188.43259 89.294116,188.62628 C 87.135732,188.81997 85.157963,190.48085 85.157963,190.48085 L 84.676821,186.57237 z" /><path
             id="path34253"
             style="fill:#ffffff;fill-opacity:1;fill-rule:evenodd;stroke:#000000;stroke-width:1;stroke-linecap:butt;stroke-linejoin:miter;stroke-miterlimit:4;stroke-dasharray:none;stroke-opacity:1"
             transform="matrix(1.085779,0,0,1.085779,-111.125,44.33766)"
             d="M 143.57142,136.29076 C 143.57498,142.01336 138.93689,146.65434 133.21428,146.65434 C 127.49167,146.65434 122.85358,142.01336 122.85714,136.29076 C 122.85358,130.56816 127.49167,125.92718 133.21428,125.92718 C 138.93689,125.92718 143.57498,130.56816 143.57142,136.29076 z" /></g><path
           id="path33378"
           style="fill:#ffffff;fill-opacity:1;fill-rule:evenodd;stroke:#000000;stroke-width:1;stroke-linecap:butt;stroke-linejoin:miter;stroke-miterlimit:4;stroke-dasharray:none;stroke-opacity:1"
           transform="matrix(1.085779,0,0,1.085779,6.41836,23.94053)"
           d="M 143.57142,136.29076 C 143.57498,142.01336 138.93689,146.65434 133.21428,146.65434 C 127.49167,146.65434 122.85358,142.01336 122.85714,136.29076 C 122.85358,130.56816 127.49167,125.92718 133.21428,125.92718 C 138.93689,125.92718 143.57498,130.56816 143.57142,136.29076 z" /></g><g
         id="g1921"><path
           id="path41975"
           style="fill:#9d9d9d;fill-opacity:1;fill-rule:evenodd;stroke:#000000;stroke-width:1.00763929px;stroke-linecap:butt;stroke-linejoin:miter;stroke-opacity:1"
           d="M 52.503965,257.67359 L 151.04022,239.9936 L 253.68217,257.67359 L 206.05631,277.47519 L 118.19481,278.88959 L 52.503965,257.67359 z" /><path
           id="path2159"
           style="font-size:12px;fill:#ffffff;fill-opacity:1;stroke:#000000;stroke-width:1.71374691;stroke-miterlimit:4;stroke-dasharray:none;stroke-opacity:1"
           d="M 238.53778,280.60302 C 241.80523,280.03556 261.51534,275.35017 265.66459,272.84286 C 262.98715,268.01438 258.18104,264.2373 261.92128,265.82495 C 263.93532,266.67987 265.52768,260.02605 259.68186,254.94019 C 242.70861,260.50682 202.00223,270.67873 150.853,270.67873 C 98.508505,270.67873 57.291321,259.97206 40.318076,254.40543 C 34.472264,259.49129 36.292899,265.26996 35.939619,267.42923 C 35.936535,267.44586 35.943256,270.15342 37.009138,272.3081 C 42.762677,278.55873 61.403257,281.63984 64.670703,282.2073 C 80.023096,284.87352 95.376119,288.90512 150.81907,288.90512 C 202.10789,288.90512 223.1854,283.26924 238.53778,280.60302 z" /></g><g
         id="g35393"
         transform="matrix(1.085779,0,0,1.085779,-81.34112,-69.1113)"><path
           id="path34451"
           style="font-size:12px;fill:#ffffff;fill-opacity:1;stroke:#000000;stroke-width:1.57835698;stroke-miterlimit:4;stroke-dasharray:none;stroke-opacity:1"
           d="M 132.90625,289.65528 C 129.89694,290.17791 110.75895,296.95571 106.9375,299.26493 C 106.94085,299.27934 106.93466,299.31043 106.9375,299.32575 C 107.26287,301.31443 103.61601,310.57667 109,315.26074 C 124.63232,310.13389 168.52546,294.85544 215.63379,294.85544 C 263.84295,294.85544 303.77393,310.13389 319.40625,315.26074 C 324.79023,310.57667 321.14338,301.31443 321.46875,299.32575 C 321.47159,299.31043 321.4654,299.27934 321.46875,299.26493 C 317.64729,296.95571 298.50931,290.17791 295.5,289.65528 C 281.36048,287.1997 266.72787,278.06897 215.66504,278.06897 C 168.42815,278.06897 147.04576,287.1997 132.90625,289.65528 z" /><g
           id="g35337"
           transform="matrix(1.384389,-0.143242,0.15642,1.267764,-86.62648,-64.7552)"><path
             id="path35329"
             style="opacity:1;fill:#000000;fill-opacity:1;fill-rule:evenodd;stroke:#000000;stroke-width:1.60000002;stroke-linecap:butt;stroke-linejoin:miter;stroke-miterlimit:4;stroke-dasharray:none;stroke-opacity:1"
             transform="matrix(0.4996,0,0,0.4996,56.86367,150.9007)"
             d="M 115.50802,301.56003 C 115.50802,302.59372 114.67005,303.43169 113.63636,303.43169 C 112.60267,303.43169 111.7647,302.59372 111.7647,301.56003 C 111.7647,300.52634 112.60267,299.68837 113.63636,299.68837 C 114.67005,299.68837 115.50802,300.52634 115.50802,301.56003 z" /><path
             id="path35331"
             style="opacity:1;fill:#000000;fill-opacity:1;fill-rule:evenodd;stroke:#000000;stroke-width:1.60000002;stroke-linecap:butt;stroke-linejoin:miter;stroke-miterlimit:4;stroke-dasharray:none;stroke-opacity:1"
             transform="matrix(0.4996,0,0,0.4996,55.52674,153.307)"
             d="M 115.50802,301.56003 C 115.50802,302.59372 114.67005,303.43169 113.63636,303.43169 C 112.60267,303.43169 111.7647,302.59372 111.7647,301.56003 C 111.7647,300.52634 112.60267,299.68837 113.63636,299.68837 C 114.67005,299.68837 115.50802,300.52634 115.50802,301.56003 z" /><path
             id="path35333"
             style="opacity:1;fill:#000000;fill-opacity:1;fill-rule:evenodd;stroke:#000000;stroke-width:1.60000002;stroke-linecap:butt;stroke-linejoin:miter;stroke-miterlimit:4;stroke-dasharray:none;stroke-opacity:1"
             transform="matrix(0.4996,0,0,0.4996,57.3984,154.9114)"
             d="M 115.50802,301.56003 C 115.50802,302.59372 114.67005,303.43169 113.63636,303.43169 C 112.60267,303.43169 111.7647,302.59372 111.7647,301.56003 C 111.7647,300.52634 112.60267,299.68837 113.63636,299.68837 C 114.67005,299.68837 115.50802,300.52634 115.50802,301.56003 z" /><path
             id="path35335"
             style="fill:#000000;fill-opacity:1;fill-rule:evenodd;stroke:#000000;stroke-width:1px;stroke-linecap:butt;stroke-linejoin:miter;stroke-opacity:1"
             d="M 113.51808,303.66868 L 122.04404,300.50258 L 117.85943,302.89505 L 120.54527,302.81166 L 118.05284,303.98039 L 122.05409,304.25543 L 113.51808,303.66868 z" /></g><g
           id="g35343"
           transform="matrix(1.384389,-0.143242,0.15642,1.267764,-45.03159,-76.65847)"><path
             id="path35345"
             style="opacity:1;fill:#000000;fill-opacity:1;fill-rule:evenodd;stroke:#000000;stroke-width:1.60000002;stroke-linecap:butt;stroke-linejoin:miter;stroke-miterlimit:4;stroke-dasharray:none;stroke-opacity:1"
             transform="matrix(0.4996,0,0,0.4996,56.86367,150.9007)"
             d="M 115.50802,301.56003 C 115.50802,302.59372 114.67005,303.43169 113.63636,303.43169 C 112.60267,303.43169 111.7647,302.59372 111.7647,301.56003 C 111.7647,300.52634 112.60267,299.68837 113.63636,299.68837 C 114.67005,299.68837 115.50802,300.52634 115.50802,301.56003 z" /><path
             id="path35347"
             style="opacity:1;fill:#000000;fill-opacity:1;fill-rule:evenodd;stroke:#000000;stroke-width:1.60000002;stroke-linecap:butt;stroke-linejoin:miter;stroke-miterlimit:4;stroke-dasharray:none;stroke-opacity:1"
             transform="matrix(0.4996,0,0,0.4996,55.52674,153.307)"
             d="M 115.50802,301.56003 C 115.50802,302.59372 114.67005,303.43169 113.63636,303.43169 C 112.60267,303.43169 111.7647,302.59372 111.7647,301.56003 C 111.7647,300.52634 112.60267,299.68837 113.63636,299.68837 C 114.67005,299.68837 115.50802,300.52634 115.50802,301.56003 z" /><path
             id="path35349"
             style="opacity:1;fill:#000000;fill-opacity:1;fill-rule:evenodd;stroke:#000000;stroke-width:1.60000002;stroke-linecap:butt;stroke-linejoin:miter;stroke-miterlimit:4;stroke-dasharray:none;stroke-opacity:1"
             transform="matrix(0.4996,0,0,0.4996,57.3984,154.9114)"
             d="M 115.50802,301.56003 C 115.50802,302.59372 114.67005,303.43169 113.63636,303.43169 C 112.60267,303.43169 111.7647,302.59372 111.7647,301.56003 C 111.7647,300.52634 112.60267,299.68837 113.63636,299.68837 C 114.67005,299.68837 115.50802,300.52634 115.50802,301.56003 z" /><path
             id="path35351"
             style="fill:#000000;fill-opacity:1;fill-rule:evenodd;stroke:#000000;stroke-width:1px;stroke-linecap:butt;stroke-linejoin:miter;stroke-opacity:1"
             d="M 113.51808,303.66868 L 122.04404,300.50258 L 117.85943,302.89505 L 120.54527,302.81166 L 118.05284,303.98039 L 122.05409,304.25543 L 113.51808,303.66868 z" /></g><g
           id="g35353"
           transform="matrix(1.378425,0.192343,-0.151629,1.268346,100.1696,-120.8592)"><path
             id="path35355"
             style="opacity:1;fill:#000000;fill-opacity:1;fill-rule:evenodd;stroke:#000000;stroke-width:1.60000002;stroke-linecap:butt;stroke-linejoin:miter;stroke-miterlimit:4;stroke-dasharray:none;stroke-opacity:1"
             transform="matrix(0.4996,0,0,0.4996,56.86367,150.9007)"
             d="M 115.50802,301.56003 C 115.50802,302.59372 114.67005,303.43169 113.63636,303.43169 C 112.60267,303.43169 111.7647,302.59372 111.7647,301.56003 C 111.7647,300.52634 112.60267,299.68837 113.63636,299.68837 C 114.67005,299.68837 115.50802,300.52634 115.50802,301.56003 z" /><path
             id="path35357"
             style="opacity:1;fill:#000000;fill-opacity:1;fill-rule:evenodd;stroke:#000000;stroke-width:1.60000002;stroke-linecap:butt;stroke-linejoin:miter;stroke-miterlimit:4;stroke-dasharray:none;stroke-opacity:1"
             transform="matrix(0.4996,0,0,0.4996,55.52674,153.307)"
             d="M 115.50802,301.56003 C 115.50802,302.59372 114.67005,303.43169 113.63636,303.43169 C 112.60267,303.43169 111.7647,302.59372 111.7647,301.56003 C 111.7647,300.52634 112.60267,299.68837 113.63636,299.68837 C 114.67005,299.68837 115.50802,300.52634 115.50802,301.56003 z" /><path
             id="path35359"
             style="opacity:1;fill:#000000;fill-opacity:1;fill-rule:evenodd;stroke:#000000;stroke-width:1.60000002;stroke-linecap:butt;stroke-linejoin:miter;stroke-miterlimit:4;stroke-dasharray:none;stroke-opacity:1"
             transform="matrix(0.4996,0,0,0.4996,57.3984,154.9114)"
             d="M 115.50802,301.56003 C 115.50802,302.59372 114.67005,303.43169 113.63636,303.43169 C 112.60267,303.43169 111.7647,302.59372 111.7647,301.56003 C 111.7647,300.52634 112.60267,299.68837 113.63636,299.68837 C 114.67005,299.68837 115.50802,300.52634 115.50802,301.56003 z" /><path
             id="path35361"
             style="fill:#000000;fill-opacity:1;fill-rule:evenodd;stroke:#000000;stroke-width:1px;stroke-linecap:butt;stroke-linejoin:miter;stroke-opacity:1"
             d="M 113.51808,303.66868 L 122.04404,300.50258 L 117.85943,302.89505 L 120.54527,302.81166 L 118.05284,303.98039 L 122.05409,304.25543 L 113.51808,303.66868 z" /></g><g
           id="g35373"
           transform="matrix(1.384389,0.143242,0.15642,-1.267764,54.4337,659.4577)"><path
             id="path35375"
             style="opacity:1;fill:#000000;fill-opacity:1;fill-rule:evenodd;stroke:#000000;stroke-width:1.60000002;stroke-linecap:butt;stroke-linejoin:miter;stroke-miterlimit:4;stroke-dasharray:none;stroke-opacity:1"
             transform="matrix(0.4996,0,0,0.4996,56.86367,150.9007)"
             d="M 115.50802,301.56003 C 115.50802,302.59372 114.67005,303.43169 113.63636,303.43169 C 112.60267,303.43169 111.7647,302.59372 111.7647,301.56003 C 111.7647,300.52634 112.60267,299.68837 113.63636,299.68837 C 114.67005,299.68837 115.50802,300.52634 115.50802,301.56003 z" /><path
             id="path35377"
             style="opacity:1;fill:#000000;fill-opacity:1;fill-rule:evenodd;stroke:#000000;stroke-width:1.60000002;stroke-linecap:butt;stroke-linejoin:miter;stroke-miterlimit:4;stroke-dasharray:none;stroke-opacity:1"
             transform="matrix(0.4996,0,0,0.4996,55.52674,153.307)"
             d="M 115.50802,301.56003 C 115.50802,302.59372 114.67005,303.43169 113.63636,303.43169 C 112.60267,303.43169 111.7647,302.59372 111.7647,301.56003 C 111.7647,300.52634 112.60267,299.68837 113.63636,299.68837 C 114.67005,299.68837 115.50802,300.52634 115.50802,301.56003 z" /><path
             id="path35379"
             style="opacity:1;fill:#000000;fill-opacity:1;fill-rule:evenodd;stroke:#000000;stroke-width:1.60000002;stroke-linecap:butt;stroke-linejoin:miter;stroke-miterlimit:4;stroke-dasharray:none;stroke-opacity:1"
             transform="matrix(0.4996,0,0,0.4996,57.3984,154.9114)"
             d="M 115.50802,301.56003 C 115.50802,302.59372 114.67005,303.43169 113.63636,303.43169 C 112.60267,303.43169 111.7647,302.59372 111.7647,301.56003 C 111.7647,300.52634 112.60267,299.68837 113.63636,299.68837 C 114.67005,299.68837 115.50802,300.52634 115.50802,301.56003 z" /><path
             id="path35381"
             style="fill:#000000;fill-opacity:1;fill-rule:evenodd;stroke:#000000;stroke-width:1px;stroke-linecap:butt;stroke-linejoin:miter;stroke-opacity:1"
             d="M 113.51808,303.66868 L 122.04404,300.50258 L 117.85943,302.89505 L 120.54527,302.81166 L 118.05284,303.98039 L 122.05409,304.25543 L 113.51808,303.66868 z" /></g><g
           id="g35383"
           transform="matrix(1.384389,0.143242,0.15642,-1.267764,96.41226,670.4203)"><path
             id="path35385"
             style="opacity:1;fill:#000000;fill-opacity:1;fill-rule:evenodd;stroke:#000000;stroke-width:1.60000002;stroke-linecap:butt;stroke-linejoin:miter;stroke-miterlimit:4;stroke-dasharray:none;stroke-opacity:1"
             transform="matrix(0.4996,0,0,0.4996,56.86367,150.9007)"
             d="M 115.50802,301.56003 C 115.50802,302.59372 114.67005,303.43169 113.63636,303.43169 C 112.60267,303.43169 111.7647,302.59372 111.7647,301.56003 C 111.7647,300.52634 112.60267,299.68837 113.63636,299.68837 C 114.67005,299.68837 115.50802,300.52634 115.50802,301.56003 z" /><path
             id="path35387"
             style="opacity:1;fill:#000000;fill-opacity:1;fill-rule:evenodd;stroke:#000000;stroke-width:1.60000002;stroke-linecap:butt;stroke-linejoin:miter;stroke-miterlimit:4;stroke-dasharray:none;stroke-opacity:1"
             transform="matrix(0.4996,0,0,0.4996,55.52674,153.307)"
             d="M 115.50802,301.56003 C 115.50802,302.59372 114.67005,303.43169 113.63636,303.43169 C 112.60267,303.43169 111.7647,302.59372 111.7647,301.56003 C 111.7647,300.52634 112.60267,299.68837 113.63636,299.68837 C 114.67005,299.68837 115.50802,300.52634 115.50802,301.56003 z" /><path
             id="path35389"
             style="opacity:1;fill:#000000;fill-opacity:1;fill-rule:evenodd;stroke:#000000;stroke-width:1.60000002;stroke-linecap:butt;stroke-linejoin:miter;stroke-miterlimit:4;stroke-dasharray:none;stroke-opacity:1"
             transform="matrix(0.4996,0,0,0.4996,57.3984,154.9114)"
             d="M 115.50802,301.56003 C 115.50802,302.59372 114.67005,303.43169 113.63636,303.43169 C 112.60267,303.43169 111.7647,302.59372 111.7647,301.56003 C 111.7647,300.52634 112.60267,299.68837 113.63636,299.68837 C 114.67005,299.68837 115.50802,300.52634 115.50802,301.56003 z" /><path
             id="path35391"
             style="fill:#000000;fill-opacity:1;fill-rule:evenodd;stroke:#000000;stroke-width:1px;stroke-linecap:butt;stroke-linejoin:miter;stroke-opacity:1"
             d="M 113.51808,303.66868 L 122.04404,300.50258 L 117.85943,302.89505 L 120.54527,302.81166 L 118.05284,303.98039 L 122.05409,304.25543 L 113.51808,303.66868 z" /></g></g></g></g></svg>