<?xml version="1.0" encoding="UTF-8" standalone="no"?>
<!-- Created with Sodipodi ("http://www.sodipodi.com/") -->
<svg
   xmlns:dc="http://purl.org/dc/elements/1.1/"
   xmlns:cc="http://creativecommons.org/ns#"
   xmlns:rdf="http://www.w3.org/1999/02/22-rdf-syntax-ns#"
   xmlns:svg="http://www.w3.org/2000/svg"
   xmlns="http://www.w3.org/2000/svg"
   xmlns:xlink="http://www.w3.org/1999/xlink"
   xmlns:sodipodi="http://sodipodi.sourceforge.net/DTD/sodipodi-0.dtd"
   xmlns:inkscape="http://www.inkscape.org/namespaces/inkscape"
   id="svg1039"
   sodipodi:version="0.32"
   width="111.60829"
   height="123.59659"
   xml:space="preserve"
   sodipodi:docbase="/home/franck/Dessins/Vectoriels/Objets_divers"
   sodipodi:docname="flower.svg"
   inkscape:version="0.46"
   inkscape:output_extension="org.inkscape.output.svg.inkscape"
   sodipodi:modified="true"
   version="1.0"><metadata
     id="metadata38"><rdf:RDF><cc:Work
         rdf:about=""><dc:format>image/svg+xml</dc:format><dc:type
           rdf:resource="http://purl.org/dc/dcmitype/StillImage" /></cc:Work></rdf:RDF></metadata><defs
     id="defs1041"><inkscape:perspective
       sodipodi:type="inkscape:persp3d"
       inkscape:vp_x="0 : 282.54446 : 1"
       inkscape:vp_y="0 : 1000 : 0"
       inkscape:vp_z="510.27792 : 282.54446 : 1"
       inkscape:persp3d-origin="255.13896 : 188.36298 : 1"
       id="perspective50" /><linearGradient
       id="linearGradient1085"><stop
         style="stop-color:#000700;stop-opacity:1;"
         offset="0"
         id="stop1086" /><stop
         style="stop-color:#00c700;stop-opacity:1;"
         offset="1"
         id="stop1087" /></linearGradient><linearGradient
       id="linearGradient1069"><stop
         style="stop-color:#ff8d00;stop-opacity:1;"
         offset="0"
         id="stop1070" /><stop
         style="stop-color:#ffff00;stop-opacity:1;"
         offset="1"
         id="stop1071" /></linearGradient><linearGradient
       id="linearGradient1061"><stop
         style="stop-color:#ffffff;stop-opacity:1;"
         offset="0"
         id="stop1062" /><stop
         style="stop-color:#cf7d00;stop-opacity:1;"
         offset="1"
         id="stop1063" /></linearGradient><linearGradient
       id="linearGradient1048"><stop
         style="stop-color:#9a0057;stop-opacity:1;"
         offset="0"
         id="stop1049" /><stop
         style="stop-color:#deb500;stop-opacity:1;"
         offset="1"
         id="stop1050" /></linearGradient><linearGradient
       xlink:href="#linearGradient1048"
       id="linearGradient1051"
       x1="0.4693875"
       y1="0.070291765"
       x2="0.45918328"
       y2="0.83593798" /><linearGradient
       xlink:href="#linearGradient1048"
       id="linearGradient1052"
       x1="0.38926172"
       y1="0.94164944"
       x2="0.46979859"
       y2="0.041666053" /><radialGradient
       xlink:href="#linearGradient1048"
       id="radialGradient1053"
       r="1.3727494"
       fy="0.7421875"
       fx="1.1818181"
       cy="0.7421875"
       cx="1.1818181" /><radialGradient
       xlink:href="#linearGradient1048"
       id="radialGradient1054"
       cx="-0.29661018"
       cy="0.51563239"
       r="1.3729036"
       fx="-0.29661018"
       fy="0.51563239" /><linearGradient
       xlink:href="#linearGradient1061"
       id="linearGradient1060"
       x1="0.49328172"
       y1="-0.96666145"
       x2="0.50671136"
       y2="0.8333348" /><linearGradient
       xlink:href="#linearGradient1061"
       id="linearGradient1066"
       x1="-1.7777339"
       y1="0.50702459"
       x2="0.56434751"
       y2="0.40926296"
       gradientTransform="matrix(1,-1.008893e-6,-7.94264e-8,1,6.324626e-7,-2.810563e-7)" /><radialGradient
       xlink:href="#linearGradient1069"
       id="radialGradient1068"
       cx="0.49664256"
       cy="0.76314133"
       r="0.80700058"
       fx="0.49664256"
       fy="0.76314133" /><linearGradient
       xlink:href="#linearGradient1085"
       id="linearGradient1084"
       x1="1.3557656e-07"
       y1="7.4479033e-08"
       x2="1.0000001"
       y2="7.4479033e-08" /><radialGradient
       xlink:href="#linearGradient1085"
       id="radialGradient1092"
       cx="0.48648694"
       cy="0.421875"
       r="0.6352787"
       fx="0.48648694"
       fy="0.421875" /><radialGradient
       xlink:href="#linearGradient1085"
       id="radialGradient1093"
       cx="0.12766421"
       cy="0.64843619"
       r="0.78263509"
       fx="0.12766421"
       fy="0.64843619" /><radialGradient
       inkscape:collect="always"
       xlink:href="#linearGradient1085"
       id="radialGradient2203"
       cx="176.51678"
       cy="294.86841"
       fx="176.51678"
       fy="294.86841"
       r="253.89244"
       gradientTransform="scale(0.70977,1.408907)"
       gradientUnits="userSpaceOnUse" /><linearGradient
       inkscape:collect="always"
       xlink:href="#linearGradient1048"
       id="linearGradient2205"
       x1="199.90829"
       y1="889.85486"
       x2="197.98424"
       y2="1034.2217"
       gradientTransform="scale(1.4986118,0.6672842)"
       gradientUnits="userSpaceOnUse" /><radialGradient
       inkscape:collect="always"
       xlink:href="#linearGradient1048"
       id="radialGradient2207"
       cx="485.47745"
       cy="738.46497"
       fx="485.47745"
       fy="738.46497"
       r="219.23041"
       gradientTransform="scale(1.0372061,0.9641286)"
       gradientUnits="userSpaceOnUse" /><radialGradient
       inkscape:collect="always"
       xlink:href="#linearGradient1048"
       id="radialGradient2209"
       cx="96.327255"
       cy="639.79034"
       fx="96.327255"
       fy="639.79034"
       r="216.55801"
       gradientTransform="scale(0.9264272,1.0794157)"
       gradientUnits="userSpaceOnUse" /><linearGradient
       inkscape:collect="always"
       xlink:href="#linearGradient1048"
       id="linearGradient2211"
       x1="154.73636"
       y1="1331.092"
       x2="168.62874"
       y2="1175.8477"
       gradientTransform="scale(1.6496629,0.6061844)"
       gradientUnits="userSpaceOnUse" /><radialGradient
       inkscape:collect="always"
       xlink:href="#linearGradient1069"
       id="radialGradient2213"
       cx="174.1813"
       cy="1150.0632"
       fx="174.1813"
       fy="1150.0632"
       r="41.505524"
       gradientTransform="scale(1.6239124,0.6157968)"
       gradientUnits="userSpaceOnUse" /><linearGradient
       inkscape:collect="always"
       xlink:href="#linearGradient1061"
       id="linearGradient2215"
       x1="109.74434"
       y1="1861.4999"
       x2="110.67001"
       y2="1985.5691"
       gradientTransform="scale(2.7191542,0.3677614)"
       gradientUnits="userSpaceOnUse" /><linearGradient
       inkscape:collect="always"
       xlink:href="#linearGradient1061"
       id="linearGradient2217"
       gradientTransform="scale(0.4284311,2.3340978)"
       x1="657.32379"
       y1="262.78799"
       x2="769.25525"
       y2="258.11581"
       gradientUnits="userSpaceOnUse" /><linearGradient
       inkscape:collect="always"
       xlink:href="#linearGradient1061"
       id="linearGradient2219"
       gradientTransform="scale(1.0128986,0.9872657)"
       x1="29.82765"
       y1="657.01611"
       x2="214.98148"
       y2="649.28754"
       gradientUnits="userSpaceOnUse" /><radialGradient
       inkscape:collect="always"
       xlink:href="#linearGradient1085"
       id="radialGradient2221"
       cx="330.53525"
       cy="538.66791"
       fx="330.53525"
       fy="538.66791"
       r="222.72639"
       gradientTransform="scale(0.8596667,1.1632415)"
       gradientUnits="userSpaceOnUse" /></defs><sodipodi:namedview
     id="base"
     inkscape:zoom="0.36014217"
     inkscape:cx="372.04724"
     inkscape:cy="81.912095"
     inkscape:window-width="822"
     inkscape:window-height="719"
     inkscape:window-x="9"
     inkscape:window-y="75"
     inkscape:current-layer="svg1039"
     showgrid="false" /><g
     id="g2190"
     transform="matrix(0.2187206,0,0,0.2187206,2.7804108,-38.909095)"><path
       sodipodi:nodetypes="cscsscs"
       id="path1091"
       d="M 108.8851,296.3466 C 173.8505,376.8951 155.2364,485.3906 199.3699,570.0123 C 244.421,662.1369 257.4779,750.9301 266.653,740.0667 C 277.4237,718.7877 269.2601,683.6674 227.1764,596.6591 C 185.0924,509.6508 258.756,380.7593 213.4084,270.2896 C 149.8371,117.9604 -35.03494,186.0994 -10.48139,247.7057 C 6.518614,208.6144 9.806104,174.0356 108.8851,296.3466 z"
       style="font-size:12px;fill:url(#radialGradient2203);fill-rule:evenodd;stroke-width:1" /><path
       transform="translate(-88.90289,-357.6792)"
       sodipodi:nodetypes="ccscs"
       id="path1043"
       d="M 447.6715,609.7019 C 468.0711,636.5248 313.5466,690.7171 287.3116,710.7621 C 261.0767,690.7171 145.7256,641.5526 170.3824,613.0427 C 209.5684,571.5963 277.7808,581.3047 293.9933,608.0314 C 313.5465,587.9865 418.8721,576.2272 447.6715,609.7019 z"
       style="font-size:12px;fill:url(#linearGradient2205);fill-rule:evenodd" /><path
       transform="translate(-88.90289,-357.6792)"
       sodipodi:nodetypes="ccscs"
       id="path1044"
       d="M 434.3735,607.0871 C 367.8821,563.6023 326.8859,683.7713 307.7796,710.6977 C 328.7384,736.2086 352.6851,756.7604 434.9662,750.5555 C 490.858,746.5926 492.6106,628.9824 394.6823,676.2641 C 410.3423,660.07 527.9163,671.6041 434.3735,607.0871 z"
       style="font-size:12px;fill:url(#radialGradient2207);fill-rule:evenodd" /><path
       transform="translate(-88.90289,-357.6792)"
       sodipodi:nodetypes="ccscs"
       id="path1045"
       d="M 145.4409,607.087 C 165.8537,580.2742 259.6102,687.1121 278.7165,714.0385 C 257.7577,739.5494 159.7977,790.1951 148.189,767.2596 C 108.3943,706.2068 164.043,702.4807 181.7914,692.9683 C 119.3596,680.1152 127.691,627.0614 145.4409,607.087 z"
       style="font-size:12px;fill:url(#radialGradient2209);fill-rule:evenodd" /><path
       transform="translate(-88.90289,-357.6792)"
       sodipodi:nodetypes="ccscs"
       id="path1046"
       d="M 144.5261,751.7411 C 142.2961,718.1163 255.8666,718.6694 287.253,708.4237 C 313.7391,715.134 477.4439,725.4583 414.9344,790.9996 C 377.6512,828.1078 315.8769,785.8542 281.2819,759.3732 C 266.7322,793.0272 155.1466,864.8499 144.5261,751.7411 z"
       style="font-size:12px;fill:url(#linearGradient2211);fill-rule:evenodd" /><path
       transform="translate(-88.90289,-357.6792)"
       sodipodi:nodetypes="ccccc"
       id="path1055"
       d="M 324.896,709.0915 C 324.896,722.9297 306.1993,710.7618 283.1356,710.7618 C 260.072,710.7618 241.3752,722.9297 241.3752,709.0915 C 241.3752,695.2534 260.072,684.0353 283.1356,684.0353 C 306.1993,684.0353 324.896,695.2534 324.896,709.0915 z"
       style="font-size:12px;fill:url(#radialGradient2213);fill-rule:evenodd" /><path
       transform="translate(-88.90289,-357.6792)"
       sodipodi:nodetypes="cccccc"
       id="path1057"
       d="M 265.7396,778.5153 C 254.8275,921.0639 346.8165,956.3021 346.8165,1098.844 L 363.5206,1098.844 C 363.5206,956.3021 244.2187,873.1555 292.3403,766.6371 L 281.9928,759.2881 C 277.1656,766.8783 272.3385,773.2874 265.7396,778.5153 z"
       style="font-size:12px;fill:#006f00;fill-rule:evenodd" /><path
       sodipodi:nodetypes="ccccc"
       id="path1059"
       d="M 393.3831,731.2245 C 393.3831,735.6067 354.5537,720.7845 303.3525,720.7845 C 252.1512,720.7845 205.9588,738.1123 205.9588,733.7302 C 205.9588,729.3481 252.1512,709.0916 303.3525,709.0916 C 354.5537,709.0916 393.3831,726.8425 393.3831,731.2245 z"
       style="font-size:12px;fill:url(#linearGradient2215);fill-rule:evenodd"
       transform="matrix(1.247748,0,0,1,-185.5274,-356.0089)" /><path
       sodipodi:nodetypes="ccccs"
       id="path1065"
       d="M 321.7623,629.1686 C 322.1588,650.4114 324.7613,669.3746 322.1397,668.3224 C 317.6319,666.7918 317.7141,664.8291 318.3046,629.1623 C 318.5784,581.2174 335.1857,556.8143 338.1839,556.8143 C 341.1823,556.8143 321.368,567.7631 321.7623,629.1686 z"
       style="font-size:12px;fill:url(#linearGradient2217);fill-rule:evenodd"
       transform="matrix(0.877489,0.479597,-0.479597,0.877489,272.3136,-406.8379)" /><path
       transform="translate(-88.90289,-357.6792)"
       sodipodi:nodetypes="ccccs"
       id="path1067"
       d="M 226.8634,656.6455 C 240.2216,673.1674 250.4245,689.3623 251.7553,686.8705 C 254.2228,682.7994 252.8976,681.3493 229.5071,654.4169 C 198.4627,617.8787 175.0624,607.3669 172.7666,609.2951 C 170.4706,611.2234 187.6737,609.3701 226.8634,656.6455 z"
       style="font-size:12px;fill:url(#linearGradient2219);fill-rule:evenodd" /><path
       sodipodi:nodetypes="cscsscs"
       id="path1090"
       d="M 408.0318,504.3603 C 360.2074,554.658 305.4433,566.7587 278.8451,616.9958 C 252.8253,671.3638 277.4064,747.6097 266.2711,742.7629 C 251.5195,732.4915 252.6044,694.6561 253.2165,641.5498 C 255.7973,584.9233 266.6181,495.3541 314.8703,445.4665 C 392.496,365.6256 508.6499,448.8299 496.7139,484.5855 C 472.3461,465.4152 481.0739,427.9379 408.0318,504.3603 z"
       style="font-size:12px;fill:url(#radialGradient2221);fill-rule:evenodd;stroke-width:1" /></g></svg>