<?xml version="1.0" encoding="UTF-8" standalone="no"?>
<!-- Created with Sodipodi ("http://www.sodipodi.com/") -->
<svg
   xmlns:dc="http://purl.org/dc/elements/1.1/"
   xmlns:cc="http://creativecommons.org/ns#"
   xmlns:rdf="http://www.w3.org/1999/02/22-rdf-syntax-ns#"
   xmlns:svg="http://www.w3.org/2000/svg"
   xmlns="http://www.w3.org/2000/svg"
   xmlns:xlink="http://www.w3.org/1999/xlink"
   xmlns:sodipodi="http://sodipodi.sourceforge.net/DTD/sodipodi-0.dtd"
   xmlns:inkscape="http://www.inkscape.org/namespaces/inkscape"
   id="svg650"
   sodipodi:version="0.32"
   width="88.928871"
   height="97.602768"
   xml:space="preserve"
   sodipodi:docbase="/home/franck/Dessins/Vectoriels/Objets_divers"
   sodipodi:docname="flowerpot.svg"
   inkscape:version="0.46"
   inkscape:output_extension="org.inkscape.output.svg.inkscape"
   sodipodi:modified="true"
   version="1.0"><metadata
     id="metadata19"><rdf:RDF><cc:Work
         rdf:about=""><dc:format>image/svg+xml</dc:format><dc:type
           rdf:resource="http://purl.org/dc/dcmitype/StillImage" /></cc:Work></rdf:RDF></metadata><defs
     id="defs652"><inkscape:perspective
       sodipodi:type="inkscape:persp3d"
       inkscape:vp_x="0 : 244.55742 : 1"
       inkscape:vp_y="0 : 1000 : 0"
       inkscape:vp_z="445.64749 : 244.55742 : 1"
       inkscape:persp3d-origin="222.82375 : 163.03828 : 1"
       id="perspective25" /><linearGradient
       id="linearGradient664"><stop
         style="stop-color:#000000;stop-opacity:1;"
         offset="0"
         id="stop665" /><stop
         style="stop-color:#ddddda;stop-opacity:1;"
         offset="1"
         id="stop666" /></linearGradient><linearGradient
       id="linearGradient656"><stop
         style="stop-color:#00007d;stop-opacity:1;"
         offset="0"
         id="stop657" /><stop
         style="stop-color:#ffffff;stop-opacity:1;"
         offset="1"
         id="stop658" /></linearGradient><linearGradient
       xlink:href="#linearGradient664"
       id="linearGradient659"
       x1="0.34899321"
       y1="-0.020010537"
       x2="0.74161059"
       y2="0.81999964" /><linearGradient
       xlink:href="#linearGradient664"
       id="linearGradient663"
       x1="0.0067187869"
       y1="0.50015354"
       x2="0.82885927"
       y2="0.56451708" /><radialGradient
       xlink:href="#linearGradient656"
       id="radialGradient667"
       cx="1.0757027e-08"
       cy="0.96875"
       r="1.4025228"
       fx="1.0757027e-08"
       fy="0.96875" /><linearGradient
       xlink:href="#linearGradient656"
       id="linearGradient670"
       x1="-4.7190461e-08"
       y1="1.0518305e-07"
       x2="0.99999988"
       y2="1.0518305e-07" /><radialGradient
       inkscape:collect="always"
       xlink:href="#linearGradient656"
       id="radialGradient2177"
       cx="153.1613"
       cy="802.87354"
       fx="153.1613"
       fy="802.87354"
       r="654.80365"
       gradientTransform="scale(0.9545316,1.0476342)"
       gradientUnits="userSpaceOnUse" /><linearGradient
       inkscape:collect="always"
       xlink:href="#linearGradient664"
       id="linearGradient2179"
       x1="117.23816"
       y1="895.51373"
       x2="213.41936"
       y2="903.04358"
       gradientTransform="scale(2.20101,0.4543369)"
       gradientUnits="userSpaceOnUse" /><linearGradient
       inkscape:collect="always"
       xlink:href="#linearGradient664"
       id="linearGradient2181"
       x1="139.14368"
       y1="942.35364"
       x2="179.85146"
       y2="1029.4485"
       gradientTransform="scale(2.4889705,0.4017725)"
       gradientUnits="userSpaceOnUse" /><linearGradient
       inkscape:collect="always"
       xlink:href="#linearGradient656"
       id="linearGradient2183"
       x1="70.99189"
       y1="1136.92"
       x2="277.70477"
       y2="1136.92"
       gradientTransform="scale(2.1065144,0.4747178)"
       gradientUnits="userSpaceOnUse" /></defs><sodipodi:namedview
     id="base"
     inkscape:zoom="0.36014217"
     inkscape:cx="372.04724"
     inkscape:cy="-29.155154"
     inkscape:window-width="822"
     inkscape:window-height="719"
     inkscape:window-x="9"
     inkscape:window-y="75"
     inkscape:current-layer="svg650"
     showgrid="false" /><g
     id="g2171"
     transform="matrix(0.1995498,0,0,0.1995498,-29.173643,-73.292207)"><path
       sodipodi:nodetypes="cssscs"
       id="path655"
       d="M 589.4001,550.368 C 578.1791,626.9116 534.558,776.329 497.3923,822.7473 C 460.2266,869.1659 278.2954,866.8036 241.2773,820.385 C 204.2593,773.9666 160.6381,633.9985 148.8265,557.455 C 127.821,414.1674 235.9051,367.2878 357.8923,367.2878 C 479.8796,367.2878 611.4861,407.2429 589.4001,550.368 z"
       style="font-size:12px;fill:url(#radialGradient2177);fill-rule:evenodd" /><path
       transform="translate(-21.26091,-7.086975)"
       sodipodi:ry="26.576157"
       sodipodi:rx="128.74673"
       sodipodi:cy="406.85675"
       sodipodi:cx="385.05905"
       d="M 513.80579,406.85675 A 128.74673,26.576157 0 1 1 256.31232,406.85675 A 128.74673,26.576157 0 1 1 513.80579,406.85675 z"
       id="path660"
       style="fill:url(#linearGradient2179);fill-opacity:1;fill-rule:evenodd;stroke:none;stroke-width:1pt;stroke-linecap:butt;stroke-linejoin:miter;stroke-opacity:1"
       sodipodi:type="arc" /><path
       sodipodi:nodetypes="ccccc"
       id="path662"
       d="M 493.3084,421.1024 C 541.1874,398.3288 455.6747,383.1199 384.5699,383.1199 C 313.465,383.1199 218.0259,399.0924 277.084,421.0308 C 212.1201,398.0849 313.5366,379.4454 384.6415,379.4454 C 455.7463,379.4454 559.1076,398.0133 493.3084,421.1024 z"
       style="font-size:12px;fill:url(#linearGradient2181);fill-rule:evenodd;stroke-width:1"
       transform="translate(-21.26091,-7.086975)" /><path
       id="path692"
       d="M 197.9524,557.4813 C 197.9524,563.555 195.3012,568.4786 192.0307,568.4786 C 188.7603,568.4786 186.1091,563.555 186.1091,557.4813 C 186.1091,551.4076 188.7603,546.4839 192.0307,546.4839 C 195.3012,546.4839 197.9524,551.4076 197.9524,557.4813 z M 233.4823,609.9302 C 233.4823,616.0039 230.8311,620.9275 227.5606,620.9275 C 224.2902,620.9275 221.639,616.0039 221.639,609.9302 C 221.639,603.8565 224.2902,598.9328 227.5606,598.9328 C 230.8311,598.9328 233.4823,603.8565 233.4823,609.9302 z M 294.3907,586.2435 C 294.3907,592.3172 289.467,597.2409 283.3934,597.2409 C 277.3197,597.2409 272.396,592.3172 272.396,586.2435 C 272.396,580.1699 277.3197,575.2462 283.3934,575.2462 C 289.467,575.2462 294.3907,580.1699 294.3907,586.2435 z M 353.6072,626.8491 C 353.6072,632.9228 348.6835,637.8465 342.6099,637.8465 C 336.5362,637.8465 331.6125,632.9228 331.6125,626.8491 C 331.6125,620.7755 336.5362,615.8518 342.6099,615.8518 C 348.6835,615.8518 353.6072,620.7755 353.6072,626.8491 z M 411.1318,587.9354 C 411.1318,594.0091 406.2081,598.9328 400.1345,598.9328 C 394.0608,598.9328 389.1371,594.0091 389.1371,587.9354 C 389.1371,581.8618 394.0608,576.9381 400.1345,576.9381 C 406.2081,576.9381 411.1318,581.8618 411.1318,587.9354 z M 468.6565,621.7734 C 468.6565,627.8471 463.7328,632.7708 457.6592,632.7708 C 451.5855,632.7708 446.6618,627.8471 446.6618,621.7734 C 446.6618,615.6998 451.5855,610.7761 457.6592,610.7761 C 463.7328,610.7761 468.6565,615.6998 468.6565,621.7734 z M 512.6459,576.0921 C 512.6459,582.1658 508.8584,587.0895 504.1864,587.0895 C 499.5143,587.0895 495.7269,582.1658 495.7269,576.0921 C 495.7269,570.0185 499.5143,565.0948 504.1864,565.0948 C 508.8584,565.0948 512.6459,570.0185 512.6459,576.0921 z M 549.8677,603.1626 C 549.8677,609.2363 547.2165,614.1599 543.946,614.1599 C 540.6756,614.1599 538.0244,609.2363 538.0244,603.1626 C 538.0244,597.0889 540.6756,592.1652 543.946,592.1652 C 547.2165,592.1652 549.8677,597.0889 549.8677,603.1626 z M 576.9385,550.7135 C 576.9385,556.7872 574.666,561.7109 571.8627,561.7109 C 569.0595,561.7109 566.787,556.7872 566.787,550.7135 C 566.787,544.6399 569.0595,539.7162 571.8627,539.7162 C 574.666,539.7162 576.9385,544.6399 576.9385,550.7135 z M 584.9726,572.0677 C 585.3956,572.7512 577.6649,597.0399 567.5958,606.7013 C 558.4424,615.5084 554.4717,543.5736 542.113,554.6784 C 532.5439,562.8796 522.1743,617.2971 503.5579,624.094 C 485.7747,630.0153 473.5551,569.9541 458.8225,573.0188 C 437.1996,578.1151 424.7378,635.4251 401.0115,635.6113 C 375.1436,634.537 364.0457,577.4569 340.4692,576.978 C 318.2635,577.0903 306.0426,632.7915 280.0168,632.1933 C 260.5711,632.1933 241.7073,574.3873 228.385,571.2317 C 211.9105,568.0692 199.599,621.5526 189.5792,615.4681 C 174.8699,606.8992 169.668,574.1965 160.2677,557.8416 C 150.8674,541.4866 151.6249,558.8268 150.629,567.7954 C 146.0661,543.4674 156.8517,534.9246 165.523,550.0282 C 174.1942,565.1318 181.9474,600.8912 190.4614,605.35 C 198.3777,609.8091 212.237,558.4294 228.6396,560.946 C 244.5147,563.9799 264.9875,624.2538 279.7066,624.6506 C 294.5434,625.0667 319.6949,569.1124 339.7788,568.8306 C 363.2593,568.4566 378.2636,626.3525 400.3708,626.3754 C 422.0034,626.3984 436.5192,567.2585 457.9539,563.9723 C 473.8779,561.4609 485.8511,621.3947 503.8129,614.8798 C 520.2216,608.1131 526.786,555.4719 539.0168,547.146 C 555.9955,535.9952 562.6309,607.0084 567.3829,602.025 C 575.6911,592.6846 584.5496,571.3842 584.9726,572.0677 z"
       style="font-size:12px;fill:url(#linearGradient2183);fill-rule:evenodd;stroke-width:1" /></g></svg>