<?xml version="1.0" encoding="UTF-8" standalone="no"?>
<!-- Created with Sodipodi ("http://www.sodipodi.com/") -->
<svg
   xmlns:dc="http://purl.org/dc/elements/1.1/"
   xmlns:cc="http://creativecommons.org/ns#"
   xmlns:rdf="http://www.w3.org/1999/02/22-rdf-syntax-ns#"
   xmlns:svg="http://www.w3.org/2000/svg"
   xmlns="http://www.w3.org/2000/svg"
   xmlns:xlink="http://www.w3.org/1999/xlink"
   xmlns:sodipodi="http://sodipodi.sourceforge.net/DTD/sodipodi-0.dtd"
   xmlns:inkscape="http://www.inkscape.org/namespaces/inkscape"
   id="svg602"
   sodipodi:version="0.32"
   width="82.108818"
   height="82.109726"
   xml:space="preserve"
   sodipodi:docbase="/home/franck/Dessins/Vectoriels/Objets_divers"
   sodipodi:docname="football.svg"
   inkscape:version="0.46"
   inkscape:output_extension="org.inkscape.output.svg.inkscape"
   sodipodi:modified="true"
   version="1.0"><metadata
     id="metadata48"><rdf:RDF><cc:Work
         rdf:about=""><dc:format>image/svg+xml</dc:format><dc:type
           rdf:resource="http://purl.org/dc/dcmitype/StillImage" /></cc:Work></rdf:RDF></metadata><defs
     id="defs604"><inkscape:perspective
       sodipodi:type="inkscape:persp3d"
       inkscape:vp_x="0 : 217.37411 : 1"
       inkscape:vp_y="0 : 1000 : 0"
       inkscape:vp_z="434.74344 : 217.37411 : 1"
       inkscape:persp3d-origin="217.37172 : 144.91608 : 1"
       id="perspective99" /><linearGradient
       id="linearGradient643"><stop
         style="stop-color:#ffffff;stop-opacity:1;"
         offset="0"
         id="stop644" /><stop
         style="stop-color:#cccccc;stop-opacity:1;"
         offset="1"
         id="stop645" /></linearGradient><linearGradient
       id="linearGradient624"><stop
         style="stop-color:#999999;stop-opacity:1;"
         offset="0"
         id="stop625" /><stop
         style="stop-color:#ffffff;stop-opacity:1;"
         offset="1"
         id="stop626" /></linearGradient><linearGradient
       id="linearGradient615"><stop
         style="stop-color:#000;stop-opacity:1;"
         offset="0"
         id="stop616" /><stop
         style="stop-color:#fff;stop-opacity:1;"
         offset="1"
         id="stop617" /></linearGradient><radialGradient
       xlink:href="#linearGradient615"
       id="radialGradient618"
       cx="3.2214605e-06"
       cy="0.92969328"
       r="2.1757696"
       fx="3.2214605e-06"
       fy="0.92969328" /><radialGradient
       xlink:href="#linearGradient615"
       id="radialGradient619"
       cx="0.016394364"
       cy="0.96875018"
       r="1.8671116"
       fx="0.016394364"
       fy="0.96875018" /><linearGradient
       xlink:href="#linearGradient624"
       id="linearGradient620"
       x1="-0.73077786"
       y1="0.07032308"
       x2="0.68269217"
       y2="0.90625006" /><radialGradient
       xlink:href="#linearGradient615"
       id="radialGradient621"
       cx="0.37245744"
       cy="0.96861333"
       r="1.6421881"
       fx="0.37245744"
       fy="0.96861333" /><radialGradient
       xlink:href="#linearGradient615"
       id="radialGradient622"
       cx="0.12080918"
       cy="1.0472488"
       r="2.6222928"
       fx="0.12080918"
       fy="1.0472488"
       gradientTransform="translate(2.619788e-8,-1.3554e-6)" /><radialGradient
       xlink:href="#linearGradient615"
       id="radialGradient623"
       cx="0.14046016"
       cy="0.70313412"
       r="1.4374349"
       fx="0.14046016"
       fy="0.70313412" /><radialGradient
       xlink:href="#linearGradient643"
       id="radialGradient627"
       cx="0.21621419"
       cy="0.18745312"
       r="1.2497052"
       fx="0.21621419"
       fy="0.18745312"
       gradientTransform="scale(1.000002,0.999998)" /><radialGradient
       xlink:href="#linearGradient624"
       id="radialGradient638"
       cx="0.044119485"
       cy="0.94528961"
       r="1.5916169"
       fx="0.044119485"
       fy="0.94528961" /><radialGradient
       xlink:href="#linearGradient624"
       id="radialGradient639"
       cx="-1.6176469"
       cy="0.50000727"
       r="2.4342582"
       fx="-1.6176469"
       fy="0.50000727" /><radialGradient
       xlink:href="#linearGradient624"
       id="radialGradient640"
       cx="0.0096127689"
       cy="0.33594185"
       r="0.78241545"
       fx="0.0096127689"
       fy="0.33594185" /><radialGradient
       xlink:href="#linearGradient643"
       id="radialGradient641"
       cx="0.74643737"
       cy="0.76561624"
       r="0.97168899"
       fx="0.74643737"
       fy="0.76561624" /><radialGradient
       xlink:href="#linearGradient643"
       id="radialGradient642"
       cx="0.46376926"
       cy="0.50000429"
       r="1.181391"
       fx="0.46376926"
       fy="0.50000429" /><radialGradient
       xlink:href="#linearGradient643"
       id="radialGradient646"
       cx="0.44217622"
       cy="0.93891084"
       r="1.825539"
       fx="0.44217622"
       fy="0.93891084"
       gradientTransform="matrix(1,2.197148e-6,-4.122966e-6,1,-7.885446e-8,-5.902645e-7)" /><radialGradient
       xlink:href="#linearGradient643"
       id="radialGradient647"
       cx="0.49999586"
       cy="0.48434067"
       r="1.2427244"
       fx="0.49999586"
       fy="0.48434067" /><linearGradient
       xlink:href="#linearGradient624"
       id="linearGradient648"
       x1="-0.37804884"
       y1="0.93755901"
       x2="0.5060975"
       y2="-0.070311591" /><linearGradient
       xlink:href="#linearGradient643"
       id="linearGradient649"
       x1="0.013889865"
       y1="0.4765625"
       x2="0.97222245"
       y2="0.5078125" /><linearGradient
       xlink:href="#linearGradient624"
       id="linearGradient650"
       x1="-1.9999999"
       y1="0.60938483"
       x2="1.6764708"
       y2="-0.039062425" /><radialGradient
       inkscape:collect="always"
       xlink:href="#linearGradient615"
       id="radialGradient2253"
       cx="365.44556"
       cy="723.3114"
       fx="365.44556"
       fy="723.3114"
       r="290.84387"
       gradientTransform="matrix(0.8193212,-0.1869757,0.1991618,0.8727207,-199.70931,-237.88412)"
       gradientUnits="userSpaceOnUse" /><radialGradient
       inkscape:collect="always"
       xlink:href="#linearGradient615"
       id="radialGradient2255"
       cx="232.01202"
       cy="752.41235"
       fx="232.01202"
       fy="752.41235"
       r="169.07326"
       gradientTransform="matrix(1.1542682,-0.2634133,0.1879211,0.8234639,-301.60687,-437.64592)"
       gradientUnits="userSpaceOnUse" /><radialGradient
       inkscape:collect="always"
       xlink:href="#linearGradient615"
       id="radialGradient2257"
       cx="197.39041"
       cy="764.97711"
       fx="197.39041"
       fy="764.97711"
       r="257.6077"
       gradientTransform="matrix(0.8630178,-0.1969476,0.2513405,1.1013656,-301.60687,-437.64592)"
       gradientUnits="userSpaceOnUse" /><radialGradient
       inkscape:collect="always"
       xlink:href="#linearGradient615"
       id="radialGradient2259"
       cx="575.48682"
       cy="616.43207"
       fx="575.48682"
       fy="616.43207"
       r="177.34097"
       gradientTransform="matrix(0.8624479,-0.1968175,0.2515066,1.1020935,-301.60687,-437.64592)"
       gradientUnits="userSpaceOnUse" /><radialGradient
       inkscape:collect="always"
       xlink:href="#linearGradient615"
       id="radialGradient2261"
       gradientTransform="matrix(1.8540216,-0.4231026,0.116995,0.5126684,-301.60687,-437.64592)"
       cx="163.22858"
       cy="1848.6138"
       fx="163.22858"
       fy="1848.6138"
       r="190.80444"
       gradientUnits="userSpaceOnUse" /><radialGradient
       inkscape:collect="always"
       xlink:href="#linearGradient643"
       id="radialGradient2263"
       cx="298.17502"
       cy="765.47479"
       fx="298.17502"
       fy="765.47479"
       r="185.30392"
       gradientTransform="matrix(1.01166,-0.2308689,0.2144113,0.9395431,-301.60687,-437.64592)"
       gradientUnits="userSpaceOnUse" /><linearGradient
       inkscape:collect="always"
       xlink:href="#linearGradient624"
       id="linearGradient2265"
       x1="167.82645"
       y1="1049.6201"
       x2="293.61508"
       y2="906.22906"
       gradientTransform="matrix(1.1030212,-0.2517183,0.196652,0.8617226,-301.60687,-437.64592)"
       gradientUnits="userSpaceOnUse" /><radialGradient
       inkscape:collect="always"
       xlink:href="#linearGradient643"
       id="radialGradient2267"
       cx="399.47678"
       cy="731.69843"
       fx="399.47678"
       fy="731.69843"
       r="184.62732"
       gradientTransform="matrix(1.0719637,-0.2446307,0.2023495,0.8866889,-301.60687,-437.64592)"
       gradientUnits="userSpaceOnUse" /><linearGradient
       inkscape:collect="always"
       xlink:href="#linearGradient624"
       id="linearGradient2269"
       x1="73.088142"
       y1="550.47742"
       x2="259.40405"
       y2="660.66473"
       gradientTransform="matrix(0.8718145,-0.1989551,0.2488045,1.0902528,-301.60687,-437.64592)"
       gradientUnits="userSpaceOnUse" /><radialGradient
       inkscape:collect="always"
       xlink:href="#linearGradient643"
       id="radialGradient2271"
       gradientTransform="matrix(1.4933027,-0.3407837,0.1452561,0.6365075,-301.60687,-437.64592)"
       cx="261.33438"
       cy="917.1272"
       fx="261.33438"
       fy="917.1272"
       r="181.98131"
       gradientUnits="userSpaceOnUse" /><linearGradient
       inkscape:collect="always"
       xlink:href="#linearGradient643"
       id="linearGradient2273"
       x1="638.16626"
       y1="574.62958"
       x2="758.58575"
       y2="578.55627"
       gradientTransform="matrix(0.7371368,-0.1682205,0.294262,1.2894463,-301.60687,-437.64592)"
       gradientUnits="userSpaceOnUse" /><radialGradient
       inkscape:collect="always"
       xlink:href="#linearGradient624"
       id="radialGradient2275"
       cx="178.15175"
       cy="978.70947"
       fx="178.15175"
       fy="978.70947"
       r="185.60272"
       gradientTransform="matrix(1.0038004,-0.2290753,0.2160901,0.9468997,-301.60687,-437.64592)"
       gradientUnits="userSpaceOnUse" /><linearGradient
       inkscape:collect="always"
       xlink:href="#linearGradient624"
       id="linearGradient2277"
       x1="129.06107"
       y1="400.2565"
       x2="421.76035"
       y2="348.63089"
       gradientTransform="matrix(0.487659,-0.1112877,0.4448013,1.9491043,-301.60687,-437.64592)"
       gradientUnits="userSpaceOnUse" /><radialGradient
       inkscape:collect="always"
       xlink:href="#linearGradient643"
       id="radialGradient2279"
       cx="215.60753"
       cy="888.70618"
       fx="215.60753"
       fy="888.70618"
       r="107.80806"
       gradientTransform="matrix(1.4594581,-0.3330601,0.1486246,0.651268,-301.60687,-437.64592)"
       gradientUnits="userSpaceOnUse" /><radialGradient
       inkscape:collect="always"
       xlink:href="#linearGradient615"
       id="radialGradient2281"
       gradientTransform="matrix(0.6725931,-0.1534912,0.3225001,1.4131847,-301.60687,-437.64592)"
       cx="760.14093"
       cy="625.22815"
       fx="760.14093"
       fy="625.22815"
       r="204.99881"
       gradientUnits="userSpaceOnUse" /><radialGradient
       inkscape:collect="always"
       xlink:href="#linearGradient643"
       id="radialGradient2283"
       gradientTransform="matrix(1.0422235,-0.2378438,0.2081236,0.9119909,-301.60687,-437.64592)"
       cx="392.50595"
       cy="911.27155"
       fx="392.50595"
       fy="911.27155"
       r="170.13229"
       gradientUnits="userSpaceOnUse" /><radialGradient
       inkscape:collect="always"
       xlink:href="#linearGradient615"
       id="radialGradient2285"
       cx="365.44556"
       cy="723.3114"
       fx="365.44556"
       fy="723.3114"
       r="290.84387"
       gradientTransform="scale(0.8851297,1.1297779)"
       gradientUnits="userSpaceOnUse" /><radialGradient
       inkscape:collect="always"
       xlink:href="#linearGradient615"
       id="radialGradient2287"
       cx="232.01202"
       cy="752.41235"
       fx="232.01202"
       fy="752.41235"
       r="169.07326"
       gradientTransform="scale(1.1839438,0.8446347)"
       gradientUnits="userSpaceOnUse" /><radialGradient
       inkscape:collect="always"
       xlink:href="#linearGradient615"
       id="radialGradient2289"
       cx="197.39041"
       cy="764.97711"
       fx="197.39041"
       fy="764.97711"
       r="257.6077"
       gradientTransform="scale(0.8852055,1.1296811)"
       gradientUnits="userSpaceOnUse" /><radialGradient
       inkscape:collect="always"
       xlink:href="#linearGradient615"
       id="radialGradient2291"
       cx="575.48682"
       cy="616.43207"
       fx="575.48682"
       fy="616.43207"
       r="177.34097"
       gradientTransform="scale(0.8846209,1.1304277)"
       gradientUnits="userSpaceOnUse" /><radialGradient
       inkscape:collect="always"
       xlink:href="#linearGradient615"
       id="radialGradient2293"
       gradientTransform="scale(1.9016874,0.5258488)"
       cx="163.22858"
       cy="1848.6138"
       fx="163.22858"
       fy="1848.6138"
       r="190.80444"
       gradientUnits="userSpaceOnUse" /><radialGradient
       inkscape:collect="always"
       xlink:href="#linearGradient643"
       id="radialGradient2295"
       cx="298.17502"
       cy="765.47479"
       fx="298.17502"
       fy="765.47479"
       r="185.30392"
       gradientTransform="scale(1.0376692,0.9636982)"
       gradientUnits="userSpaceOnUse" /><linearGradient
       inkscape:collect="always"
       xlink:href="#linearGradient624"
       id="linearGradient2297"
       x1="167.82645"
       y1="1049.6201"
       x2="293.61508"
       y2="906.22906"
       gradientTransform="scale(1.1313792,0.883877)"
       gradientUnits="userSpaceOnUse" /><radialGradient
       inkscape:collect="always"
       xlink:href="#linearGradient643"
       id="radialGradient2299"
       cx="399.47678"
       cy="731.69843"
       fx="399.47678"
       fy="731.69843"
       r="184.62732"
       gradientTransform="scale(1.0995233,0.9094851)"
       gradientUnits="userSpaceOnUse" /><linearGradient
       inkscape:collect="always"
       xlink:href="#linearGradient624"
       id="linearGradient2301"
       x1="73.088142"
       y1="550.47742"
       x2="259.40405"
       y2="660.66473"
       gradientTransform="scale(0.8942283,1.1182826)"
       gradientUnits="userSpaceOnUse" /><radialGradient
       inkscape:collect="always"
       xlink:href="#linearGradient643"
       id="radialGradient2303"
       gradientTransform="scale(1.5316946,0.6528717)"
       cx="261.33438"
       cy="917.1272"
       fx="261.33438"
       fy="917.1272"
       r="181.98131"
       gradientUnits="userSpaceOnUse" /><linearGradient
       inkscape:collect="always"
       xlink:href="#linearGradient643"
       id="linearGradient2305"
       x1="638.16626"
       y1="574.62958"
       x2="758.58575"
       y2="578.55627"
       gradientTransform="scale(0.7560881,1.3225972)"
       gradientUnits="userSpaceOnUse" /><radialGradient
       inkscape:collect="always"
       xlink:href="#linearGradient624"
       id="radialGradient2307"
       cx="178.15175"
       cy="978.70947"
       fx="178.15175"
       fy="978.70947"
       r="185.60272"
       gradientTransform="scale(1.0296075,0.9712439)"
       gradientUnits="userSpaceOnUse" /><linearGradient
       inkscape:collect="always"
       xlink:href="#linearGradient624"
       id="linearGradient2309"
       x1="129.06107"
       y1="400.2565"
       x2="421.76035"
       y2="348.63089"
       gradientTransform="scale(0.5001964,1.9992146)"
       gradientUnits="userSpaceOnUse" /><radialGradient
       inkscape:collect="always"
       xlink:href="#linearGradient643"
       id="radialGradient2311"
       cx="215.60753"
       cy="888.70618"
       fx="215.60753"
       fy="888.70618"
       r="107.80806"
       gradientTransform="scale(1.4969799,0.6680117)"
       gradientUnits="userSpaceOnUse" /><radialGradient
       inkscape:collect="always"
       xlink:href="#linearGradient615"
       id="radialGradient2313"
       gradientTransform="scale(0.6898851,1.4495168)"
       cx="760.14093"
       cy="625.22815"
       fx="760.14093"
       fy="625.22815"
       r="204.99881"
       gradientUnits="userSpaceOnUse" /><radialGradient
       inkscape:collect="always"
       xlink:href="#linearGradient643"
       id="radialGradient2315"
       gradientTransform="scale(1.0690184,0.9354376)"
       cx="392.50595"
       cy="911.27155"
       fx="392.50595"
       fy="911.27155"
       r="170.13229"
       gradientUnits="userSpaceOnUse" /></defs><sodipodi:namedview
     id="base"
     inkscape:zoom="0.36014217"
     inkscape:cx="372.04724"
     inkscape:cy="42.206665"
     inkscape:window-width="822"
     inkscape:window-height="719"
     inkscape:window-x="9"
     inkscape:window-y="75"
     inkscape:current-layer="svg602"
     showgrid="false" /><g
     id="g2234"
     transform="matrix(0.1888673,0,0,0.1888673,-39.608881,-106.62487)"><path
       sodipodi:type="arc"
       style="font-size:12px;fill:#808080;fill-rule:evenodd;stroke-width:1"
       id="path2200"
       d="M 523.25507,604.70154 A 217.33392,217.33392 0 1 1 88.587219,604.70154 A 217.33392,217.33392 0 1 1 523.25507,604.70154 z"
       sodipodi:cx="305.92114"
       sodipodi:cy="604.70154"
       sodipodi:rx="217.33392"
       sodipodi:ry="217.33392"
       transform="matrix(0.974923,-0.222485,0.222488,0.974935,-5.698632,260.4414)" /><path
       transform="matrix(0.925651,-0.211241,0.176284,0.772471,10.00874,326.665)"
       style="font-size:12px;fill:url(#radialGradient2285);fill-rule:evenodd"
       d="M 379.8107,822.6711 C 373.5103,820.8139 322.051,748.8989 321.3191,745.3412 C 318.8119,736.2252 358.8822,651.7234 363.5136,648.0007 C 367.6186,644.1931 446.4117,649.4139 448.3109,654.525 C 457.3535,680.5608 460.8641,740.3792 458.2337,770.451 C 454.442,777.2473 384.2837,823.4518 379.8107,822.6711 z"
       id="path2202"
       sodipodi:nodetypes="cssscs" /><path
       style="font-size:12px;fill:url(#radialGradient2287);fill-rule:evenodd"
       d="M 271.6191,664.3764 C 267.4491,661.1339 252.5934,606.3255 255.5042,601.8811 C 262.007,591.3522 316.3183,565.4197 327.4196,565.6608 C 344.1833,566.0457 394.3006,593.3499 394.3824,603.9413 C 394.8069,610.5346 361.0267,656.9891 354.1335,660.6685 C 348.6023,663.131 274.7951,666.3947 271.6191,664.3764 z"
       id="path2204"
       sodipodi:nodetypes="csssss"
       transform="matrix(0.974935,-0.222488,0.222488,0.974935,-91.88882,126.9032)" /><path
       style="font-size:12px;fill:url(#radialGradient2289);fill-rule:evenodd"
       d="M 184.9662,841.971 C 172.12,817.6553 173.4924,761.7125 177.6608,753.5569 C 180.687,748.0715 228.56,738.015 232.238,740.1155 C 235.555,742.6099 277.7264,807.2642 279.4019,810.7193 C 281.7401,818.2314 253.1861,870.1619 247.3102,873.4813 C 242.6231,875.5604 186.687,845.3878 184.9662,841.971 z"
       id="path2206"
       sodipodi:nodetypes="csssss"
       transform="matrix(0.974935,-0.222488,0.222488,0.974935,-91.88882,126.9032)" /><path
       style="font-size:12px;fill:url(#radialGradient2291);fill-rule:evenodd"
       d="M 569.0298,699.2877 C 569.7098,706.0103 524.1632,686.1997 521.6997,680.7113 C 519.2181,657.9695 478.8199,612.0018 474.2109,607.9229 C 470.3303,604.8843 483.5638,576.8846 487.6214,578.6696 C 516.6476,591.7021 565.0462,663.4163 569.0298,699.2877 z"
       id="path2208"
       sodipodi:nodetypes="ccsss"
       transform="matrix(0.974935,-0.222488,0.222488,0.974935,-91.88882,126.9032)" /><path
       style="font-size:12px;fill:url(#radialGradient2293);fill-rule:evenodd"
       d="M 431.5217,956.8364 C 437.409,953.5203 393.6052,930.9163 387.6997,932.0636 C 377.7809,934.5481 307.6829,937.009 301.6939,935.5905 C 296.9748,934.1683 291.116,956.1969 294.9123,958.4858 C 322.2841,974.7078 399.9034,974.2407 431.5217,956.8364 z"
       id="path2210"
       sodipodi:nodetypes="cssss"
       transform="matrix(0.974935,-0.222488,0.222488,0.974935,-91.88882,126.9032)" /><path
       style="font-size:12px;fill:url(#radialGradient2295);fill-rule:evenodd"
       d="M 280.4856,811.6434 C 266.1022,786.1676 234.2328,739.4598 233.9525,738.3704 C 232.7666,731.2219 268.4165,671.3954 272.8138,668.4457 C 276.7113,665.4288 352.7292,657.8831 356.3251,665.2136 C 358.0001,669.1873 396.125,722.0492 396.6844,729.264 C 396.2679,731.6324 371.7958,774.8574 357.9449,806.2743 C 355.2894,812.1825 282.5278,815.4181 280.4856,811.6434 z"
       id="path2212"
       sodipodi:nodetypes="cssssss"
       transform="matrix(0.974935,-0.222488,0.222488,0.974935,-91.88882,126.9032)" /><path
       style="font-size:12px;fill:url(#linearGradient2297);fill-rule:evenodd"
       d="M 299.689,932.865 C 291.0356,927.1606 251.6359,884.0856 250.7555,877.5952 C 249.8614,870.4044 270.3181,839.092 281.8154,814.8718 C 286.3168,816.4808 359.8165,809.6817 359.9257,809.8394 C 377.5863,836.1957 412.0467,862.4615 411.6871,869.689 C 408.8701,878.0585 391.5993,915.2823 386.15,931.0966 C 384.4692,937.3522 303.5713,936.2155 299.689,932.865 z"
       id="path2214"
       sodipodi:nodetypes="cscssss"
       transform="matrix(0.974935,-0.222488,0.222488,0.974935,-91.88882,126.9032)" /><path
       style="font-size:12px;fill:url(#radialGradient2299);fill-rule:evenodd"
       d="M 399.3069,728.8285 C 398.1258,724.9566 358.455,669.2472 357.5746,662.7568 C 356.6805,655.566 393.2388,604.1833 397.6361,601.2336 C 401.5336,598.2167 466.4644,601.1868 472.7459,606.403 C 481.6222,612.7772 521.3854,664.433 520.9066,678.8549 C 520.6033,687.2293 486.4163,724.4482 480.9669,733.0612 C 477.0084,738.1883 401.1307,732.7134 399.3069,728.8285 z"
       id="path2216"
       sodipodi:nodetypes="cssssss"
       transform="matrix(0.974935,-0.222488,0.222488,0.974935,-91.88882,126.9032)" /><path
       style="font-size:12px;fill:url(#linearGradient2301);fill-rule:evenodd"
       d="M 176.1821,752.5773 C 173.8115,754.4639 150.6945,704.3373 151.5174,699.4662 C 156.3869,674.1963 179.0171,630.3961 198.5522,612.929 C 203.5285,613.6337 247.867,606.9932 253.3275,605.2233 C 256.5752,633.2846 270.4984,665.9645 269.2947,667.7798 C 265.2779,675.8404 236.0336,725.8814 232.9838,733.5383 C 227.1189,737.5816 180.63,748.4373 176.1821,752.5773 z"
       id="path2218"
       sodipodi:nodetypes="csccscs"
       transform="matrix(0.974935,-0.222488,0.222488,0.974935,-91.88882,126.9032)" /><path
       style="font-size:12px;fill:url(#radialGradient2303);fill-rule:evenodd"
       d="M 332.769,562.9156 C 339.2498,552.3189 363.5749,537.6682 365.5601,537.6687 C 417.891,537.1071 471.1918,563.2905 484.9691,578.1389 C 488.2983,581.6134 473.6888,602.6584 469.447,602.7422 C 461.1026,602.3068 409.8766,597.4742 396.7496,599.0095 C 386.1223,588.7669 337.8082,565.0024 332.769,562.9156 z"
       id="path2220"
       sodipodi:nodetypes="cssscc"
       transform="matrix(0.974935,-0.222488,0.222488,0.974935,-91.88882,126.9032)" /><path
       style="font-size:12px;fill:url(#linearGradient2305);fill-rule:evenodd"
       d="M 492.7159,824.9238 C 491.6304,820.4374 492.5267,767.3599 481.1903,733.3118 C 489.6494,722.4429 520.2386,684.7361 522.9073,681.2625 C 525.2728,677.7096 565.0876,695.7337 569.0927,701.7527 C 574.1867,708.8066 580.6486,763.7281 571.8561,786.0287 C 570.5976,789.7252 548.0206,830.593 535.565,846.1664 C 531.458,851.2025 493.8228,831.8992 492.7159,824.9238 z"
       id="path2222"
       sodipodi:nodetypes="ccsssss"
       transform="matrix(0.974935,-0.222488,0.222488,0.974935,-91.88882,126.9032)" /><path
       style="font-size:12px;fill:url(#radialGradient2307);fill-rule:evenodd"
       d="M 186.1806,843.5027 C 190.1554,844.2672 246.967,870.4021 248.8736,876.6684 C 251.8198,884.3392 286.9161,927.3754 296.581,933.7625 C 300.8042,936.3038 295.7993,951.1443 292.2764,956.5685 C 289.7128,960.0363 195.4852,916.4213 178.4492,864.7994 C 176.4632,858.6343 184.294,858.903 186.1806,843.5027 z"
       id="path2224"
       sodipodi:nodetypes="cssssc"
       transform="matrix(0.974935,-0.222488,0.222488,0.974935,-91.88882,126.9032)" /><path
       style="font-size:12px;fill:url(#linearGradient2309);fill-rule:evenodd"
       d="M 151.2957,703.2054 C 154.9047,710.1444 168.5455,753.1396 175.3658,758.2957 C 173.9555,766.391 178.5817,831.101 183.596,841.5443 C 185.9153,845.8934 178.2096,866.9981 174.8883,861.448 C 154.1654,827.8219 132.7233,764.4816 151.2957,703.2054 z"
       id="path2226"
       sodipodi:nodetypes="ccssc"
       transform="matrix(0.974935,-0.222488,0.222488,0.974935,-91.88882,126.9032)" /><path
       style="font-size:12px;fill:url(#radialGradient2311);fill-rule:evenodd"
       d="M 364.874,536.9222 C 341.5,548.1135 335.8358,560.1453 328.5797,561.7307 C 307.6912,566.8418 258.9149,593.6194 252.3738,603.1898 C 249.7743,607.3774 194.3404,613.9901 199.0717,609.58 C 232.4513,577.7982 269.809,539.8964 364.874,536.9222 z"
       id="path2228"
       sodipodi:nodetypes="csssc"
       transform="matrix(0.974935,-0.222488,0.222488,0.974935,-91.88882,126.9032)" /><path
       style="font-size:12px;fill:url(#radialGradient2313);fill-rule:evenodd"
       d="M 571.8157,788.1091 C 572.5359,781.3906 536.8299,844.3556 534.9311,850.0639 C 532.2275,859.9253 516.4899,897.0342 517.9957,900.9246 C 537.1267,884.1339 567.8604,836.2015 571.8157,788.1091 z"
       id="path2230"
       sodipodi:nodetypes="cscs"
       transform="matrix(0.974935,-0.222488,0.222488,0.974935,-91.88882,126.9032)" /><path
       style="font-size:12px;fill:url(#radialGradient2315);fill-rule:evenodd"
       d="M 432.7135,955.404 C 414.1397,938.7755 388.4305,931.5912 388.1995,930.6282 C 386.7081,923.4887 409.5298,875.9941 413.2932,871.2194 C 416.4688,870.1767 433.8375,862.5356 492.0664,828.6218 C 493.6154,827.7162 503.9706,837.9337 533.6631,849.3596 C 533.7491,858.848 521.0883,882.1366 516.7439,901.0445 C 510.2017,918.3486 438.9305,961.0506 432.7135,955.404 z"
       id="path2232"
       sodipodi:nodetypes="cscsccs"
       transform="matrix(0.974935,-0.222488,0.222488,0.974935,-91.88882,126.9032)" /></g></svg>