<?xml version="1.0" encoding="UTF-8" standalone="no"?>
<!-- Created with Sodipodi ("http://www.sodipodi.com/") -->
<svg
   xmlns:dc="http://purl.org/dc/elements/1.1/"
   xmlns:cc="http://creativecommons.org/ns#"
   xmlns:rdf="http://www.w3.org/1999/02/22-rdf-syntax-ns#"
   xmlns:svg="http://www.w3.org/2000/svg"
   xmlns="http://www.w3.org/2000/svg"
   xmlns:xlink="http://www.w3.org/1999/xlink"
   xmlns:sodipodi="http://sodipodi.sourceforge.net/DTD/sodipodi-0.dtd"
   xmlns:inkscape="http://www.inkscape.org/namespaces/inkscape"
   id="svg645"
   sodipodi:version="0.32"
   width="109.52457"
   height="105.944"
   xml:space="preserve"
   sodipodi:docbase="/home/franck/Dessins/Vectoriels/Transports"
   sodipodi:docname="fusee.svg"
   inkscape:version="0.46"
   inkscape:output_extension="org.inkscape.output.svg.inkscape"
   sodipodi:modified="true"
   version="1.0"><metadata
     id="metadata134"><rdf:RDF><cc:Work
         rdf:about=""><dc:format>image/svg+xml</dc:format><dc:type
           rdf:resource="http://purl.org/dc/dcmitype/StillImage" /></cc:Work></rdf:RDF></metadata><defs
     id="defs647"><inkscape:perspective
       sodipodi:type="inkscape:persp3d"
       inkscape:vp_x="0 : 161.95354 : 1"
       inkscape:vp_y="0 : 1000 : 0"
       inkscape:vp_z="527.67444 : 161.95354 : 1"
       inkscape:persp3d-origin="263.83722 : 107.96902 : 1"
       id="perspective143" /><linearGradient
       id="linearGradient715"><stop
         style="stop-color:#0052ff;stop-opacity:1;"
         offset="0"
         id="stop716" /><stop
         style="stop-color:#dddfdf;stop-opacity:1;"
         offset="1"
         id="stop717" /></linearGradient><linearGradient
       id="linearGradient699"><stop
         style="stop-color:#000000;stop-opacity:1;"
         offset="0"
         id="stop700" /><stop
         style="stop-color:#dddfdf;stop-opacity:1;"
         offset="1"
         id="stop701" /></linearGradient><linearGradient
       xlink:href="#linearGradient699"
       id="linearGradient702"
       x1="143.54929"
       y1="1014.2485"
       x2="142.77808"
       y2="964.76501"
       gradientTransform="scale(1.7768461,0.5627949)"
       gradientUnits="userSpaceOnUse" /><radialGradient
       xlink:href="#linearGradient699"
       id="radialGradient703"
       cx="221.24318"
       cy="718.33417"
       r="91.939926"
       fx="221.24318"
       fy="718.33417"
       gradientTransform="scale(1.3234588,0.7555958)"
       gradientUnits="userSpaceOnUse" /><linearGradient
       xlink:href="#linearGradient699"
       id="linearGradient706"
       x1="420.80914"
       y1="708.74402"
       x2="442.98117"
       y2="683.85504"
       gradientTransform="scale(1.1029551,0.9066552)"
       gradientUnits="userSpaceOnUse" /><linearGradient
       xlink:href="#linearGradient699"
       id="linearGradient708"
       gradientTransform="scale(0.8563472,1.1677507)"
       x1="321.7818"
       y1="651.17212"
       x2="338.85068"
       y2="651.17212"
       gradientUnits="userSpaceOnUse" /><linearGradient
       xlink:href="#linearGradient699"
       id="linearGradient710"
       gradientTransform="scale(1.5155992,0.6598051)"
       x1="195.60649"
       y1="995.44781"
       x2="215.85988"
       y2="995.44781"
       gradientUnits="userSpaceOnUse" /><linearGradient
       xlink:href="#linearGradient715"
       id="linearGradient714"
       x1="642.17004"
       y1="445.24878"
       x2="673.06696"
       y2="432.20035"
       gradientTransform="scale(0.7270791,1.3753662)"
       gradientUnits="userSpaceOnUse" /><linearGradient
       xlink:href="#linearGradient715"
       id="linearGradient718"
       x1="582.60278"
       y1="393.08429"
       x2="649.56989"
       y2="393.65305"
       gradientTransform="scale(0.4773342,2.0949682)"
       gradientUnits="userSpaceOnUse" /><linearGradient
       xlink:href="#linearGradient715"
       id="linearGradient719"
       x1="1861.4944"
       y1="81.159164"
       x2="1738.1492"
       y2="80.272896"
       gradientTransform="scale(0.4116866,2.4290323)"
       gradientUnits="userSpaceOnUse" /><linearGradient
       xlink:href="#linearGradient715"
       id="linearGradient720"
       x1="237.75787"
       y1="887.77692"
       x2="262.30823"
       y2="856.07623"
       gradientTransform="scale(1.3677348,0.7311359)"
       gradientUnits="userSpaceOnUse" /><linearGradient
       xlink:href="#linearGradient715"
       id="linearGradient721"
       x1="157.66322"
       y1="329.52396"
       x2="208.93663"
       y2="328.92465"
       gradientTransform="scale(0.4868013,2.0542261)"
       gradientUnits="userSpaceOnUse" /><linearGradient
       xlink:href="#linearGradient699"
       id="linearGradient726"
       x1="180.71118"
       y1="297.5105"
       x2="203.88734"
       y2="297.5105"
       gradientTransform="scale(0.5045249,1.9820625)"
       gradientUnits="userSpaceOnUse" /><linearGradient
       xlink:href="#linearGradient699"
       id="linearGradient727"
       x1="186.98415"
       y1="1270.3788"
       x2="174.52737"
       y2="1243.33"
       gradientTransform="scale(2.0445839,0.4890971)"
       gradientUnits="userSpaceOnUse" /><linearGradient
       xlink:href="#linearGradient699"
       id="linearGradient735"
       x1="63.264988"
       y1="880.95563"
       x2="78.471832"
       y2="880.95563"
       gradientTransform="scale(1.4005465,0.714007)"
       gradientUnits="userSpaceOnUse" /><linearGradient
       xlink:href="#linearGradient699"
       id="linearGradient757"
       x1="136.07536"
       y1="367.25668"
       x2="119.98525"
       y2="356.59967"
       gradientTransform="scale(0.7689957,1.3003973)"
       gradientUnits="userSpaceOnUse" /><linearGradient
       xlink:href="#linearGradient699"
       id="linearGradient764"
       x1="-166.4194"
       y1="996.65234"
       x2="-165.38391"
       y2="986.05389"
       gradientTransform="scale(1.3351412,0.7489845)"
       gradientUnits="userSpaceOnUse" /><linearGradient
       xlink:href="#linearGradient699"
       id="linearGradient774"
       x1="388.66434"
       y1="816.21985"
       x2="382.35419"
       y2="829.94891"
       spreadMethod="reflect"
       gradientTransform="scale(1.2624368,0.7921189)"
       gradientUnits="userSpaceOnUse" /><radialGradient
       xlink:href="#linearGradient699"
       id="radialGradient775"
       cx="187.37062"
       cy="750.5722"
       r="30.734865"
       fx="187.37062"
       fy="750.5722"
       gradientUnits="userSpaceOnUse" /><radialGradient
       xlink:href="#linearGradient699"
       id="radialGradient776"
       cx="188.39642"
       cy="750.57336"
       r="38.998211"
       fx="188.39642"
       fy="750.57336"
       gradientUnits="userSpaceOnUse" /><radialGradient
       xlink:href="#linearGradient699"
       id="radialGradient778"
       cx="186.71513"
       cy="750.9129"
       r="50.317612"
       fx="186.71513"
       fy="750.9129"
       gradientUnits="userSpaceOnUse" /><radialGradient
       xlink:href="#linearGradient699"
       id="radialGradient781"
       cx="129.00552"
       cy="375.56113"
       r="250.81311"
       fx="129.00552"
       fy="375.56113"
       gradientUnits="userSpaceOnUse" /><radialGradient
       xlink:href="#linearGradient699"
       id="radialGradient804"
       cx="319.65692"
       cy="760.24048"
       r="38.65929"
       fx="319.65692"
       fy="760.24048"
       gradientTransform="scale(1.0127392,0.987421)"
       gradientUnits="userSpaceOnUse" /><radialGradient
       xlink:href="#linearGradient699"
       id="radialGradient835"
       cx="436.68076"
       cy="895.08777"
       r="17.401068"
       fx="436.68076"
       fy="895.08777"
       spreadMethod="reflect"
       gradientUnits="userSpaceOnUse" /><radialGradient
       xlink:href="#linearGradient699"
       id="radialGradient836"
       cx="436.68085"
       cy="895.08759"
       r="17.401068"
       fx="436.68085"
       fy="895.08759"
       spreadMethod="reflect"
       gradientUnits="userSpaceOnUse" /><radialGradient
       xlink:href="#linearGradient699"
       id="radialGradient837"
       cx="471.80695"
       cy="784.64429"
       r="56.131378"
       fx="471.80695"
       fy="784.64429"
       gradientTransform="scale(0.9836942,1.016576)"
       spreadMethod="reflect"
       gradientUnits="userSpaceOnUse" /><radialGradient
       xlink:href="#linearGradient699"
       id="radialGradient846"
       cx="328.06409"
       cy="812.35944"
       r="7.2140231"
       fx="328.06409"
       fy="812.35944"
       gradientTransform="scale(1.0141835,0.9860148)"
       gradientUnits="userSpaceOnUse" /><linearGradient
       xlink:href="#linearGradient699"
       id="linearGradient856"
       x1="696.61359"
       y1="361.58817"
       x2="675.69464"
       y2="369.67035"
       spreadMethod="reflect"
       gradientTransform="scale(0.4865661,2.0552192)"
       gradientUnits="userSpaceOnUse" /><radialGradient
       xlink:href="#linearGradient699"
       id="radialGradient868"
       cx="190.82353"
       cy="745.48645"
       r="16.152641"
       fx="190.82353"
       fy="745.48645"
       spreadMethod="reflect"
       gradientTransform="scale(0.9999985,1.0000015)"
       gradientUnits="userSpaceOnUse" /><linearGradient
       xlink:href="#linearGradient699"
       id="linearGradient870"
       x1="-46.761921"
       y1="1503.0273"
       x2="-30.014202"
       y2="1499.5537"
       gradientTransform="scale(2.0248421,0.4938657)"
       gradientUnits="userSpaceOnUse" /><linearGradient
       xlink:href="#linearGradient699"
       id="linearGradient871"
       x1="-385.69083"
       y1="565.48224"
       x2="-383.98489"
       y2="612.30603"
       gradientTransform="scale(2.0248421,0.4938657)"
       gradientUnits="userSpaceOnUse" /><linearGradient
       xlink:href="#linearGradient715"
       id="linearGradient880"
       x1="44.489559"
       y1="2047.2246"
       x2="43.947762"
       y2="1893.1598"
       gradientTransform="scale(2.765127,0.361647)"
       gradientUnits="userSpaceOnUse" /><linearGradient
       xlink:href="#linearGradient699"
       id="linearGradient955"
       x1="120.40541"
       y1="1668.9957"
       x2="137.29768"
       y2="1621.8848"
       gradientTransform="scale(2.4138156,0.4142819)"
       gradientUnits="userSpaceOnUse" /><linearGradient
       xlink:href="#linearGradient699"
       id="linearGradient956"
       x1="344.74869"
       y1="568.80768"
       x2="374.22073"
       y2="551.32501"
       gradientTransform="scale(0.8094266,1.2354424)"
       gradientUnits="userSpaceOnUse" /><linearGradient
       xlink:href="#linearGradient699"
       id="linearGradient957"
       x1="393.48932"
       y1="570.02405"
       x2="428.18524"
       y2="542.33588"
       gradientTransform="scale(0.8094266,1.2354424)"
       gradientUnits="userSpaceOnUse" /><radialGradient
       xlink:href="#linearGradient699"
       id="radialGradient983"
       cx="357.36041"
       cy="688.1203"
       r="4.4593763"
       fx="357.36041"
       fy="688.1203"
       gradientTransform="scale(1.0145993,0.9856108)"
       gradientUnits="userSpaceOnUse" /><linearGradient
       xlink:href="#linearGradient699"
       id="linearGradient998"
       x1="295.4556"
       y1="854.65784"
       x2="303.06595"
       y2="838.87573"
       gradientTransform="scale(1.5470453,0.6463935)"
       gradientUnits="userSpaceOnUse" /><inkscape:perspective
       id="perspective2542"
       inkscape:persp3d-origin="372.04724 : 350.78739 : 1"
       inkscape:vp_z="744.09448 : 526.18109 : 1"
       inkscape:vp_y="0 : 1000 : 0"
       inkscape:vp_x="0 : 526.18109 : 1"
       sodipodi:type="inkscape:persp3d" /><inkscape:perspective
       id="perspective2601"
       inkscape:persp3d-origin="372.04724 : 350.78739 : 1"
       inkscape:vp_z="744.09448 : 526.18109 : 1"
       inkscape:vp_y="0 : 1000 : 0"
       inkscape:vp_x="0 : 526.18109 : 1"
       sodipodi:type="inkscape:persp3d" /></defs><sodipodi:namedview
     id="base"
     inkscape:zoom="2.681219"
     inkscape:cx="89.842892"
     inkscape:cy="0.54234068"
     inkscape:window-width="1280"
     inkscape:window-height="974"
     inkscape:window-x="0"
     inkscape:window-y="25"
     inkscape:current-layer="svg645"
     showgrid="false" /><g
     id="g3431"><path
       sodipodi:nodetypes="csscccscccscccssccccssc"
       style="fill:#d5d5d5;stroke:none;stroke-width:1.91582668;stroke-miterlimit:4;stroke-dasharray:none;stroke-opacity:1"
       d="M 61.721476,92.253082 C 60.032426,93.917372 60.426286,94.170112 47.730369,88.593362 C 38.36722,84.480562 36.696812,82.990952 36.043899,81.298802 C 35.56817,80.065882 35.574533,75.141392 35.574533,70.838992 L 34.387767,62.093422 L 29.14779,56.799332 C 22.235813,50.212998 13.595176,38.521898 9.1875905,29.75474 C 5.4147475,22.250174 3.5231685,18.623623 2.0336245,6.1361256 L 1.4775495,1.4743566 L 9.0932765,2.0805836 C 25.962393,3.4233986 30.259507,5.4038546 39.017144,9.1241837 C 50.239473,13.891535 54.684716,16.37899 62.692266,22.846525 L 70.116616,28.229358 L 78.574186,29.547987 C 90.031036,29.547987 88.606566,27.616935 94.949785,41.907619 C 97.994995,48.76821 100.08077,53.799232 99.907155,54.699302 C 99.665005,55.954682 99.328875,56.139262 95.423285,56.360632 L 89.277136,56.385472 C 83.107246,67.395792 64.366746,65.021322 61.721476,92.253082 z M 34.21262,31.71711 C 34.518133,30.93264 34.52094,29.656168 34.218864,28.880521 C 33.497242,27.027536 30.701573,28.103373 30.701573,30.234051 C 30.701573,33.197249 33.221647,34.261723 34.21262,31.71711 z"
       id="path2647" /><path
       sodipodi:nodetypes="csscccssssssc"
       style="fill:#ff4000;fill-opacity:1"
       d="M 86.437876,100.69544 C 82.062546,97.716184 78.220166,95.541182 77.899236,95.862102 C 77.578316,96.183032 77.315736,97.509734 77.315736,98.810324 C 77.315736,105.46104 66.411046,97.973584 62.327806,88.536722 C 58.813926,80.225482 72.811286,72.973412 75.617236,61.579652 C 97.568635,47.396126 96.247305,56.920702 109.52457,76.769742 C 109.52457,78.636672 106.89744,75.314452 102.28299,74.702322 C 99.514995,74.335132 96.803835,74.310612 96.258195,74.647832 C 95.712565,74.985052 98.202295,78.432292 101.79093,82.308352 C 105.37957,86.184422 108.31573,89.750962 108.31573,90.234012 C 108.31573,91.576702 104.04786,91.281862 99.315735,89.612272 C 91.383435,86.813592 91.002955,87.402952 94.796625,96.612274 C 99.436205,107.87504 98.007055,108.57316 86.437876,100.69544 z"
       id="path2643" /><path
       sodipodi:nodetypes="cscccssccsssssssssssc"
       style="fill:#f9ab2a;fill-opacity:1"
       d="M 81.717796,89.578092 C 79.252806,87.868482 75.559646,85.316492 73.510766,83.906992 C 68.587596,80.520152 66.659156,81.271422 67.432286,86.275002 L 68.019796,90.077252 L 65.280576,87.577252 C 62.917776,85.420792 58.735996,78.737082 58.735996,77.117092 C 58.735996,76.820182 59.816296,76.577252 61.136656,76.577252 C 63.042696,76.577252 63.712306,75.866612 64.386656,73.128092 C 77.661336,67.965232 68.713766,70.922662 80.492836,58.434092 C 81.911686,58.077992 87.232376,56.409632 87.644166,55.296442 C 88.347126,53.396172 88.647826,53.502802 92.564435,57.041232 C 94.858795,59.114042 96.735995,61.114332 96.735995,61.486312 C 96.735995,61.858292 94.373495,62.143432 91.485995,62.119952 C 86.864966,62.082372 86.199396,62.333982 85.930476,64.220162 C 85.718626,65.706112 87.051166,67.698842 90.277046,70.720162 C 92.835685,73.116562 95.342015,75.847032 95.846665,76.787872 C 96.700125,78.379012 96.475055,78.396472 92.624375,77.037872 C 90.347466,76.234532 87.191116,75.577252 85.610266,75.577252 C 83.191736,75.577252 82.735996,75.983892 82.735996,78.141872 C 82.735996,79.552412 83.681316,82.903952 84.836706,85.589732 C 87.737676,92.333202 87.017696,93.253882 81.717796,89.578092 z"
       id="path2639" /><path
       style="fill:#000000;fill-opacity:1;stroke:none;stroke-opacity:1"
       d="M 49.457344,90.289832 C 42.857344,87.259902 36.936364,84.349932 36.299614,83.823222 C 35.613094,83.255332 35.002584,78.845342 34.799614,72.987972 L 34.457344,63.110372 L 26.845504,55.283832 C 13.957844,42.032675 4.6739235,25.545915 1.3989435,10.094835 C -0.92387637,-0.86408439 -1.1883364,-0.42238439 7.2386135,0.34124561 C 28.347594,2.2540956 50.667764,11.275035 63.454656,23.061585 C 68.455806,27.671485 72.348556,28.898395 82.084896,28.933445 C 86.302576,28.948625 89.107736,29.433585 89.799536,30.267155 C 91.359225,32.146465 100.95734,53.910712 100.95734,55.568072 C 100.95734,56.649912 98.982945,56.957292 92.034065,56.957292 C 83.893166,56.957292 82.841036,57.184282 80.034066,59.546192 C 77.485886,61.690342 76.957346,62.866222 76.957346,66.391202 C 76.957346,72.176322 74.149416,74.933232 70.335916,72.892302 C 67.898386,71.587782 67.585516,71.685852 65.386526,74.443662 C 63.327876,77.025442 63.047686,78.417692 63.108626,85.762042 C 63.146856,90.368002 62.790946,94.510522 62.317736,94.967652 C 61.844526,95.424772 56.057346,93.319752 49.457344,90.289832 z M 59.957346,86.648422 C 59.957346,81.474522 58.975396,80.137162 52.457344,76.433782 C 49.707344,74.871312 45.702324,72.324912 43.557304,70.775112 C 41.412284,69.225312 39.254224,67.957292 38.761614,67.957292 C 38.269004,67.957292 37.999024,70.994792 38.161654,74.707292 L 38.457344,81.457292 L 47.957344,86.174582 C 53.182344,88.769092 58.019846,90.906592 58.707346,90.924582 C 59.519006,90.945822 59.957346,89.446302 59.957346,86.648422 z M 62.956256,72.438422 C 64.003906,70.778042 64.545236,68.960532 64.159206,68.399512 C 63.773186,67.838492 60.757346,65.280182 57.457346,62.714392 C 53.947366,59.985332 50.423164,56.152932 48.965364,53.479752 C 46.661624,49.255365 46.586084,48.711735 47.965364,46.282535 C 51.000264,40.937465 52.229634,41.068775 59.491786,47.513745 C 63.175236,50.782695 67.967346,54.893812 70.140916,56.649552 L 74.092866,59.841802 L 77.987156,57.149552 C 80.129016,55.668812 81.898526,54.106962 81.919396,53.678772 C 82.017166,51.673072 75.608296,40.715675 70.574776,34.282615 C 61.650076,22.876465 47.473894,13.422995 31.158604,7.9977157 C 21.981834,4.9461856 5.2720235,2.2426156 3.9234535,3.5911956 C 2.1323535,5.3822956 5.5173535,17.439775 10.904314,28.457295 C 17.036834,40.999625 26.919084,53.401682 37.592924,61.951032 C 46.696614,69.242742 57.787166,76.137022 59.754396,75.727382 C 60.467776,75.578832 61.908616,74.098802 62.956256,72.438422 z M 26.931634,38.085435 C 19.574344,30.728145 23.058984,20.957295 33.040154,20.957295 C 36.852744,20.957295 38.335274,21.507915 40.851584,23.858505 C 43.366894,26.208155 43.957344,27.553585 43.957344,30.935435 C 43.957344,40.024855 33.332844,44.486645 26.931634,38.085435 z M 38.253754,33.862075 C 39.786024,31.413105 38.303724,27.436145 35.358484,26.094215 C 29.964824,23.636695 25.651064,29.751405 29.656244,34.177085 C 31.687634,36.421745 36.768684,36.235585 38.253754,33.862075 z M 71.912466,68.207292 C 71.887786,67.794792 68.080546,64.330862 63.451926,60.509672 C 58.823316,56.688472 54.513916,52.300972 53.875486,50.759675 C 52.761154,48.069445 50.957344,46.926245 50.957344,48.910245 C 50.957344,51.945562 54.427176,56.112862 61.953456,62.116662 C 70.174756,68.674902 72.007516,69.795762 71.912466,68.207292 z M 96.957345,53.406302 C 96.957345,52.432212 88.786386,33.486335 88.009116,32.658175 C 87.596596,32.218645 84.268716,31.993645 80.613816,32.158175 L 73.968546,32.457295 L 77.017796,36.957295 C 78.694876,39.432295 81.381086,44.009635 82.987136,47.129155 C 84.593196,50.248665 86.706016,53.008962 87.682296,53.263142 C 90.293396,53.942962 96.957345,54.045822 96.957345,53.406302 z"
       id="path2637" /><path
       transform="translate(-46.579046,-49.15086)"
       d="M 82.052233,79.639496 A 2.7972353,3.4965439 0 1 1 76.457762,79.639496 A 2.7972353,3.4965439 0 1 1 82.052233,79.639496 z"
       sodipodi:ry="3.4965439"
       sodipodi:rx="2.7972353"
       sodipodi:cy="79.639496"
       sodipodi:cx="79.254997"
       id="path3429"
       style="opacity:1;fill:#ffffff;fill-opacity:1;fill-rule:nonzero;stroke:none;stroke-width:2;stroke-linecap:round;stroke-linejoin:round;marker:none;marker-start:none;marker-mid:none;marker-end:none;stroke-miterlimit:4;stroke-dasharray:none;stroke-dashoffset:0;stroke-opacity:1;visibility:visible;display:inline;overflow:visible"
       sodipodi:type="arc" /></g></svg>