<?xml version="1.0" encoding="UTF-8" standalone="no"?>
<!-- Created with Sodipodi ("http://www.sodipodi.com/") -->
<svg
   xmlns:dc="http://purl.org/dc/elements/1.1/"
   xmlns:cc="http://creativecommons.org/ns#"
   xmlns:rdf="http://www.w3.org/1999/02/22-rdf-syntax-ns#"
   xmlns:svg="http://www.w3.org/2000/svg"
   xmlns="http://www.w3.org/2000/svg"
   xmlns:xlink="http://www.w3.org/1999/xlink"
   xmlns:sodipodi="http://sodipodi.sourceforge.net/DTD/sodipodi-0.dtd"
   xmlns:inkscape="http://www.inkscape.org/namespaces/inkscape"
   id="svg962"
   sodipodi:version="0.32"
   width="67.553627"
   height="87.541214"
   xml:space="preserve"
   sodipodi:docbase="/home/franck/Dessins/Vectoriels/Objets_divers"
   sodipodi:docname="glass.svg"
   inkscape:version="0.46"
   inkscape:output_extension="org.inkscape.output.svg.inkscape"
   sodipodi:modified="true"
   version="1.0"><metadata
     id="metadata35"><rdf:RDF><cc:Work
         rdf:about=""><dc:format>image/svg+xml</dc:format><dc:type
           rdf:resource="http://purl.org/dc/dcmitype/StillImage" /></cc:Work></rdf:RDF></metadata><defs
     id="defs964"><inkscape:perspective
       sodipodi:type="inkscape:persp3d"
       inkscape:vp_x="0 : 259.75848 : 1"
       inkscape:vp_y="0 : 1000 : 0"
       inkscape:vp_z="400.89984 : 259.75848 : 1"
       inkscape:persp3d-origin="200.44992 : 173.17232 : 1"
       id="perspective44" /><linearGradient
       id="linearGradient1004"><stop
         style="stop-color:#ffd200;stop-opacity:0.6;"
         offset="0"
         id="stop1005" /><stop
         style="stop-color:#ffffff;stop-opacity:1;"
         offset="1"
         id="stop1006" /></linearGradient><linearGradient
       id="linearGradient992"><stop
         style="stop-color:#0099ff;stop-opacity:0.6;"
         offset="0"
         id="stop993" /><stop
         style="stop-color:#ffffff;stop-opacity:1;"
         offset="1"
         id="stop994" /></linearGradient><linearGradient
       id="linearGradient984"><stop
         style="stop-color:#9999bd;stop-opacity:0.6;"
         offset="0"
         id="stop985" /><stop
         style="stop-color:#ffffff;stop-opacity:1;"
         offset="1"
         id="stop986" /></linearGradient><linearGradient
       xlink:href="#linearGradient984"
       id="linearGradient987" /><linearGradient
       xlink:href="#linearGradient984"
       id="linearGradient988"
       x1="-0.41071168"
       y1="0.52342176"
       x2="-0.06250003"
       y2="0.51562482"
       spreadMethod="reflect" /><linearGradient
       xlink:href="#linearGradient984"
       id="linearGradient990"
       x1="0.010066569"
       y1="0.53333288"
       x2="0.30536908"
       y2="0.53333288"
       spreadMethod="reflect" /><linearGradient
       xlink:href="#linearGradient992"
       id="linearGradient991"
       x1="1.880187e-08"
       y1="-3.0115871e-08"
       x2="1"
       y2="-3.0115871e-08" /><linearGradient
       xlink:href="#linearGradient992"
       id="linearGradient995" /><linearGradient
       xlink:href="#linearGradient1004"
       id="linearGradient1007"
       x1="4.7195641e-08"
       y1="-2.1234086e-08"
       x2="1"
       y2="-2.1234086e-08" /><linearGradient
       xlink:href="#linearGradient1004"
       id="linearGradient1008"
       x1="-3.0634144e-08"
       y1="-6.6765438e-09"
       x2="1"
       y2="-6.6765438e-09" /><linearGradient
       xlink:href="#linearGradient984"
       id="linearGradient1010"
       x1="5.1423967e-08"
       y1="-5.3301797e-08"
       x2="1"
       y2="-5.3301797e-08" /><linearGradient
       inkscape:collect="always"
       xlink:href="#linearGradient992"
       id="linearGradient2202"
       gradientTransform="scale(2.4289918,0.4116934)"
       x1="59.142139"
       y1="681.64771"
       x2="221.43919"
       y2="681.64771"
       gradientUnits="userSpaceOnUse" /><linearGradient
       inkscape:collect="always"
       xlink:href="#linearGradient984"
       id="linearGradient2204"
       x1="428.76773"
       y1="98.693237"
       x2="554.87585"
       y2="98.693237"
       gradientTransform="scale(1.0767636,0.928709)"
       gradientUnits="userSpaceOnUse" /><linearGradient
       inkscape:collect="always"
       xlink:href="#linearGradient984"
       id="linearGradient2206"
       x1="428.76773"
       y1="98.693237"
       x2="554.87585"
       y2="98.693237"
       gradientTransform="scale(1.0767636,0.928709)"
       gradientUnits="userSpaceOnUse" /><linearGradient
       inkscape:collect="always"
       xlink:href="#linearGradient992"
       id="linearGradient2208"
       x1="113.28306"
       y1="867.86969"
       x2="380.93063"
       y2="867.86969"
       gradientTransform="scale(1.3634829,0.7334159)"
       gradientUnits="userSpaceOnUse" /><linearGradient
       inkscape:collect="always"
       xlink:href="#linearGradient984"
       id="linearGradient2210"
       spreadMethod="reflect"
       x1="-29.39908"
       y1="629.74487"
       x2="120.41625"
       y2="626.39026"
       gradientTransform="scale(0.9298591,1.0754317)"
       gradientUnits="userSpaceOnUse" /><linearGradient
       inkscape:collect="always"
       xlink:href="#linearGradient984"
       id="linearGradient2212"
       spreadMethod="reflect"
       x1="60.775917"
       y1="687.0575"
       x2="108.70264"
       y2="687.0575"
       gradientTransform="scale(2.4289918,0.4116934)"
       gradientUnits="userSpaceOnUse" /><linearGradient
       inkscape:collect="always"
       xlink:href="#linearGradient984"
       id="linearGradient2214"
       gradientTransform="scale(1.4796134,0.6758522)"
       x1="92.574585"
       y1="1184.7413"
       x2="356.82956"
       y2="1184.7413"
       gradientUnits="userSpaceOnUse" /></defs><sodipodi:namedview
     id="base"
     inkscape:zoom="4.0745435"
     inkscape:cx="115.12668"
     inkscape:cy="-22.197141"
     inkscape:window-width="822"
     inkscape:window-height="719"
     inkscape:window-x="9"
     inkscape:window-y="75"
     inkscape:current-layer="svg962"
     showgrid="false" /><g
     id="g2187"
     transform="matrix(0.168505,0,0,0.168505,-23.080819,-63.735582)"><g
       transform="translate(-454.892,64.49956)"
       id="g1045"><path
         transform="matrix(0.922225,0,0,1.799999,472.962,79.21577)"
         sodipodi:ry="33.408318"
         sodipodi:rx="197.10912"
         sodipodi:cy="280.62988"
         sodipodi:cx="340.76489"
         d="M 537.87401,280.62988 A 197.10912,33.408318 0 1 1 143.65578,280.62988 A 197.10912,33.408318 0 1 1 537.87401,280.62988 z"
         id="path989"
         style="font-size:12px;fill:url(#linearGradient2202);fill-rule:evenodd;stroke-width:1"
         sodipodi:type="arc" /><g
         transform="translate(27.15775,356.4453)"
         id="g1036"><g
           style="font-size:12px"
           transform="matrix(0.90711,-0.420893,0.420893,0.90711,249.0578,303.0454)"
           id="g1013"><rect
             ry="221.60722"
             y="91.657303"
             x="461.68149"
             height="117.11777"
             width="135.78867"
             id="rect1009"
             style="font-size:12px;fill:url(#linearGradient2204);fill-rule:evenodd"
             rx="221.60722" /><path
             sodipodi:nodetypes="ccccccccc"
             id="path1012"
             d="M 495.6287,112.0257 C 488.106,112.0257 482.0498,118.0818 482.0498,125.6045 L 548.2468,127.3018 C 555.0363,128.035 561.0925,134.0913 561.8257,140.8807 L 563.523,193.4988 C 571.0457,193.4988 577.1019,187.4426 577.1019,179.9199 L 577.1019,125.6045 C 588.9835,102.8056 584.6246,100.1441 563.523,112.0257 L 495.6287,112.0257 z"
             style="font-size:12px;fill:#ffffff;fill-opacity:1;fill-rule:evenodd" /></g><g
           style="font-size:12px"
           transform="matrix(-0.90711,-0.420893,-0.420893,0.90711,1266.684,353.9661)"
           id="g1016"><rect
             ry="221.60722"
             y="91.657303"
             x="461.68149"
             height="117.11777"
             width="135.78867"
             id="rect1017"
             style="font-size:12px;fill:url(#linearGradient2206);fill-rule:evenodd"
             rx="221.60722" /><path
             sodipodi:nodetypes="ccccccccc"
             id="path1018"
             d="M 495.6287,112.0257 C 488.106,112.0257 482.0498,118.0818 482.0498,125.6045 L 548.2468,127.3018 C 555.0363,128.035 561.0925,134.0913 561.8257,140.8807 L 563.523,193.4988 C 571.0457,193.4988 577.1019,187.4426 577.1019,179.9199 L 577.1019,125.6045 C 588.9835,102.8056 584.6246,100.1441 563.523,112.0257 L 495.6287,112.0257 z"
             style="font-size:12px;fill:#ffffff;fill-opacity:1;fill-rule:evenodd" /></g></g><path
         transform="translate(449.8,-59.40753)"
         sodipodi:nodetypes="ccssccc"
         id="path976"
         d="M 154.4595,636.5094 L 167.6141,741.8047 C 170.1601,760.6102 174.0211,768.5456 179.92,780.8218 C 212.8359,847.9136 462.5862,850.8532 492.234,785.0398 C 497.695,772.5599 505.9543,754.4636 505.8129,747.2578 L 519.3917,636.5094 C 519.9574,708.6786 165.7753,735.4247 154.4595,636.5094 z"
         style="font-size:12px;fill:url(#linearGradient2208);fill-rule:evenodd" /></g><path
       sodipodi:nodetypes="ccccccc"
       id="path966"
       d="M 136.9742,435.0624 L 138.227,712.2894 C 145.6047,729.3473 145.4655,808.5596 140.315,835.664 C 143.9342,919.8028 528.4623,917.9191 532.0815,833.1524 C 529.9587,812.5886 530.3685,745.7546 534.0921,725.8187 L 537.0388,435.0625 C 519.8406,504.8286 147.4368,509.9204 136.9742,435.0624 z"
       style="font-size:12px;opacity:0.51270004;fill:url(#linearGradient2210);fill-opacity:1;fill-rule:evenodd" /><path
       transform="matrix(1.016949,0,0,1.799999,-9.116507,-66.75708)"
       sodipodi:ry="33.408318"
       sodipodi:rx="197.10912"
       sodipodi:cy="280.62988"
       sodipodi:cx="340.76489"
       d="M 537.87401,280.62988 A 197.10912,33.408318 0 1 1 143.65578,280.62988 A 197.10912,33.408318 0 1 1 537.87401,280.62988 z"
       id="path967"
       style="fill:url(#linearGradient2212);fill-opacity:1;fill-rule:evenodd;stroke:none;stroke-width:1pt;stroke-linecap:butt;stroke-linejoin:miter;stroke-opacity:1"
       sodipodi:type="arc" /><path
       sodipodi:nodetypes="cccccccccccccccccccc"
       id="path983"
       d="M 227.85,805.1771 C 248.4644,863.6736 163.1464,881.5792 142.5319,823.0826 C 142.7977,778.7848 151.403,737.9673 136.9746,713.7482 C 149.338,700.311 207.2356,746.6807 227.85,805.1771 z M 329.5433,822.5568 C 352.4358,881.2955 256.0119,919.3035 233.1194,860.5646 C 210.2269,801.8257 208.2305,764.4253 216.2163,748.1412 C 229.3348,727.005 306.6507,763.8178 329.5433,822.5568 z M 431.9715,812.0322 C 466.6322,864.9206 378.7748,921.7874 344.114,868.899 C 309.4532,816.0106 299.8562,779.7743 304.4569,762.1945 C 313.158,738.816 397.3106,759.1437 431.9715,812.0322 z M 521.3146,786.2304 C 548.3308,823.5694 481.3854,893.0569 445.1818,846.5305 C 408.9783,800.0041 397.1858,766.9648 399.9767,750.1759 C 406.0635,727.6373 485.111,739.704 521.3146,786.2304 z M 527.9698,793.756 C 495.0701,763.5106 490.2439,736.72 500.0962,728.016 C 504.1018,722.6528 523.231,728.6499 527.7338,733.0039 C 526.3901,752.3917 526.6262,770.5482 527.9698,793.756 z"
       style="font-size:12px;fill:url(#linearGradient2214);fill-rule:evenodd" /></g></svg>