<?xml version="1.0" encoding="UTF-8" standalone="no"?>
<!-- Created with Sodipodi ("http://www.sodipodi.com/") -->
<svg
   xmlns:dc="http://purl.org/dc/elements/1.1/"
   xmlns:cc="http://creativecommons.org/ns#"
   xmlns:rdf="http://www.w3.org/1999/02/22-rdf-syntax-ns#"
   xmlns:svg="http://www.w3.org/2000/svg"
   xmlns="http://www.w3.org/2000/svg"
   xmlns:xlink="http://www.w3.org/1999/xlink"
   xmlns:sodipodi="http://sodipodi.sourceforge.net/DTD/sodipodi-0.dtd"
   xmlns:inkscape="http://www.inkscape.org/namespaces/inkscape"
   id="svg607"
   sodipodi:version="0.32"
   width="142.4388"
   height="119.66013"
   xml:space="preserve"
   sodipodi:docbase="/home/franck"
   sodipodi:docname="house.svg"
   inkscape:version="0.46"
   inkscape:output_extension="org.inkscape.output.svg.inkscape"
   version="1.0"><metadata
     id="metadata3732"><rdf:RDF><cc:Work
         rdf:about=""><dc:format>image/svg+xml</dc:format><dc:type
           rdf:resource="http://purl.org/dc/dcmitype/StillImage" /></cc:Work></rdf:RDF></metadata><defs
     id="defs609"><linearGradient
       id="linearGradient4312"><stop
         style="stop-color:#d6d6d6;stop-opacity:1;"
         offset="0"
         id="stop4314" /><stop
         style="stop-color:#ffffff;stop-opacity:0;"
         offset="1"
         id="stop4316" /></linearGradient><linearGradient
       inkscape:collect="always"
       id="linearGradient4300"><stop
         style="stop-color:#d6d6d6;stop-opacity:1;"
         offset="0"
         id="stop4302" /><stop
         style="stop-color:#d6d6d6;stop-opacity:0;"
         offset="1"
         id="stop4304" /></linearGradient><linearGradient
       id="linearGradient4287"><stop
         style="stop-color:#d6d6d6;stop-opacity:1;"
         offset="0"
         id="stop4289" /><stop
         style="stop-color:#d6d6d6;stop-opacity:0;"
         offset="1"
         id="stop4291" /></linearGradient><inkscape:perspective
       sodipodi:type="inkscape:persp3d"
       inkscape:vp_x="0 : 526.18109 : 1"
       inkscape:vp_y="0 : 1000 : 0"
       inkscape:vp_z="744.09448 : 526.18109 : 1"
       inkscape:persp3d-origin="372.04724 : 350.78739 : 1"
       id="perspective3734" /><linearGradient
       inkscape:collect="always"
       xlink:href="#linearGradient4287"
       id="linearGradient4293"
       x1="280.01428"
       y1="453.08917"
       x2="461.74072"
       y2="453.08917"
       gradientUnits="userSpaceOnUse" /><linearGradient
       inkscape:collect="always"
       xlink:href="#linearGradient4287"
       id="linearGradient4296"
       gradientUnits="userSpaceOnUse"
       x1="532.08728"
       y1="434.17355"
       x2="265.87213"
       y2="425.51199"
       gradientTransform="matrix(0.9488843,0,0,0.911153,-91.017073,-312.58455)" /><linearGradient
       inkscape:collect="always"
       xlink:href="#linearGradient4300"
       id="linearGradient4306"
       x1="356.72122"
       y1="801.11749"
       x2="315.28867"
       y2="806.46869"
       gradientUnits="userSpaceOnUse"
       gradientTransform="translate(108.45006,-275.05522)" /><linearGradient
       inkscape:collect="always"
       xlink:href="#linearGradient4312"
       id="linearGradient4318"
       x1="387.69272"
       y1="567.05707"
       x2="469.25986"
       y2="567.05707"
       gradientUnits="userSpaceOnUse"
       gradientTransform="translate(-73.906194,-344.97894)" /><linearGradient
       inkscape:collect="always"
       xlink:href="#linearGradient4287"
       id="linearGradient2421"
       gradientUnits="userSpaceOnUse"
       gradientTransform="matrix(0.9488843,0,0,0.911153,-91.017073,-312.58455)"
       x1="532.08728"
       y1="434.17355"
       x2="265.87213"
       y2="425.51199" /><linearGradient
       inkscape:collect="always"
       xlink:href="#linearGradient4300"
       id="linearGradient2423"
       gradientUnits="userSpaceOnUse"
       gradientTransform="translate(108.45006,-275.05522)"
       x1="356.72122"
       y1="801.11749"
       x2="315.28867"
       y2="806.46869" /><linearGradient
       inkscape:collect="always"
       xlink:href="#linearGradient4312"
       id="linearGradient2425"
       gradientUnits="userSpaceOnUse"
       gradientTransform="translate(-73.906194,-344.97894)"
       x1="387.69272"
       y1="567.05707"
       x2="469.25986"
       y2="567.05707" /></defs><sodipodi:namedview
     id="base"
     showgrid="false"
     inkscape:zoom="0.97546009"
     inkscape:cx="326.89896"
     inkscape:cy="-56.25497"
     inkscape:window-width="1132"
     inkscape:window-height="719"
     inkscape:window-x="0"
     inkscape:window-y="277"
     inkscape:current-layer="svg607" /><g
     id="g2405"
     transform="scale(0.3376213,0.3376213)"><path
       sodipodi:nodetypes="ccccccccc"
       id="path617"
       d="M 60.609641,147.28957 C 42.101341,147.28957 27.201241,162.18967 27.201241,180.69787 L 27.201241,333.54087 C 27.201241,348.70837 32.914041,353.58597 48.081541,353.58597 L 266.07074,354.42117 C 284.57904,354.42117 303.65514,353.71957 303.65514,335.21127 L 314.51284,180.69787 C 314.51284,162.18967 299.61274,147.28957 281.10454,147.28957 L 60.609641,147.28957 z"
       style="font-size:12px;fill:#d6d6d6;fill-rule:evenodd" /><path
       sodipodi:nodetypes="cccccccc"
       id="path612"
       d="M 284.85839,158.51708 L 287.69323,338.59245 C 288.35976,346.2778 294.8728,351.45759 300.55056,347.45014 L 388.43234,287.23364 C 393.61238,282.33234 395.4514,277.43095 396.45531,267.51831 L 390.27962,99.970995 L 356.77879,39.876682 L 284.85839,158.51708 z"
       style="font-size:12px;fill:#d6d6d6;fill-opacity:1;fill-rule:evenodd" /><path
       sodipodi:nodetypes="ccccccccccscccc"
       id="path616"
       d="M 90.676941,0.29286971 C 66.616341,0.29286971 54.763141,19.66297 47.246241,43.72357 L 1.3098205,190.72047 C -3.7014295,212.27547 5.6461905,213.27097 29.706741,213.27097 L 293.63274,211.60057 C 311.84684,209.93007 317.85374,202.25297 321.19444,189.04997 L 357.10854,41.21817 L 389.68164,100.93547 L 391.76964,135.38787 L 403.88014,135.59657 C 411.81464,135.59657 416.40824,134.55257 419.33144,130.06327 C 422.25474,125.57407 422.67224,120.14517 420.58424,116.38677 L 376.31824,23.67857 C 365.46054,3.7939697 356.11284,-1.3775303 337.89874,0.29286971 L 90.676941,0.29286971 z"
       style="font-size:12px;fill:#ca0000;fill-opacity:1;fill-rule:evenodd;stroke:none" /><path
       sodipodi:nodetypes="cccccccc"
       id="path623"
       d="M 97.358841,20.75507 C 88.934741,20.74007 86.713041,18.77077 73.737941,21.78847 C 66.745641,26.31397 56.427941,39.02387 56.319041,44.38587 C 56.479241,53.23747 51.039741,119.02107 58.230341,124.63087 C 63.696341,126.19697 76.050741,126.50787 83.997341,126.52167 C 89.500341,121.63167 96.275941,98.88147 101.39934,84.12977 C 102.16084,72.62257 103.59544,40.97987 102.41584,29.59007 C 101.66114,25.75707 101.53904,23.57517 97.358841,20.75507 z"
       style="fill:#f1efed;fill-opacity:1;fill-rule:evenodd;stroke:#000000;stroke-width:1pt;stroke-linecap:butt;stroke-linejoin:miter;stroke-opacity:1" /><path
       sodipodi:nodetypes="ccccccc"
       id="path626"
       d="M 192.57264,229.13967 C 183.31854,229.13967 175.86844,237.00937 175.86844,246.78477 L 177.53884,354.42087 L 246.02594,354.42087 L 244.35554,246.78477 C 244.35554,237.00937 236.90554,229.13967 227.65144,229.13967 L 192.57264,229.13967 z"
       style="font-size:12px;fill:#808080;fill-rule:evenodd" /><path
       sodipodi:nodetypes="ccccccc"
       id="path627"
       d="M 198.93614,229.13967 C 190.78374,229.13967 184.22054,236.58967 184.22054,245.84377 L 185.69204,347.73927 L 246.02594,347.73927 L 244.55444,245.84377 C 244.55444,236.58967 237.99134,229.13967 229.83894,229.13967 L 198.93614,229.13967 z"
       style="font-size:12px;fill:#008030;fill-opacity:1;fill-rule:evenodd" /><rect
       y="230.80981"
       x="85.665962"
       height="61.805458"
       width="7.9344749"
       id="rect629"
       style="font-size:12px;fill:#007f30;fill-opacity:1;fill-rule:evenodd;stroke-width:1" /><rect
       y="259.20697"
       x="63.950523"
       height="7.099329"
       width="45.10125"
       id="rect630"
       style="font-size:12px;fill:#008031;fill-opacity:1;fill-rule:evenodd;stroke-width:1" /><path
       id="path634"
       d="M 80.137641,230.80997 C 71.170041,230.80997 63.950541,238.02937 63.950541,246.99707 L 63.950541,276.42827 C 63.950541,285.39587 71.170041,292.61537 80.137641,292.61537 L 92.864641,292.61537 C 101.83234,292.61537 109.05184,285.39587 109.05184,276.42827 L 109.05184,246.99707 C 109.05184,238.02937 101.83234,230.80997 92.864641,230.80997 L 80.137641,230.80997 z M 73.973041,229.13967 C 63.793441,229.13967 55.598441,237.33467 55.598441,247.51417 L 55.598441,280.92257 C 55.598441,291.10207 63.793441,299.29717 73.973041,299.29717 L 92.347641,299.29717 C 102.52714,299.29717 110.72224,291.10207 110.72224,280.92257 L 110.72224,247.51417 C 110.72224,237.33467 102.52714,229.13967 92.347641,229.13967 L 73.973041,229.13967 z"
       style="font-size:12px;fill:#9a9a9a;fill-opacity:1;fill-rule:evenodd;stroke:none;stroke-opacity:1" /><path
       sodipodi:nodetypes="csssc"
       id="path4262"
       d="M 86.978841,38.56319 C 79.853471,45.66936 80.897961,46.12208 66.775431,45.44827 C 58.883271,45.07422 62.366271,34.83221 70.230811,28.55388 C 78.785831,21.72433 79.660001,21.64473 90.562531,21.99747 C 100.01581,22.30331 94.104201,31.45702 86.978841,38.56319 z"
       style="fill:#282828;fill-opacity:1;fill-rule:nonzero;stroke:none;stroke-width:2;stroke-linecap:round;stroke-linejoin:round;marker:none;marker-start:none;marker-mid:none;marker-end:none;stroke-miterlimit:4;stroke-dashoffset:0;stroke-opacity:1;visibility:visible;display:inline;overflow:visible" /><path
       transform="matrix(0.6870532,0,0,0.5529332,19.211306,-56.62984)"
       d="M 319.27688,636.42346 A 4.7931476,5.5920057 0 1 1 309.69059,636.42346 A 4.7931476,5.5920057 0 1 1 319.27688,636.42346 z"
       sodipodi:ry="5.5920057"
       sodipodi:rx="4.7931476"
       sodipodi:cy="636.42346"
       sodipodi:cx="314.48373"
       id="path4265"
       style="opacity:1;fill:#d6d6d6;fill-opacity:1;fill-rule:nonzero;stroke:none;stroke-width:2;stroke-linecap:round;stroke-linejoin:round;marker:none;marker-start:none;marker-mid:none;marker-end:none;stroke-miterlimit:4;stroke-dasharray:none;stroke-dashoffset:0;stroke-opacity:1;visibility:visible;display:inline;overflow:visible"
       sodipodi:type="arc" /><path
       sodipodi:nodetypes="ccccccc"
       id="rect4277"
       d="M 92.788681,12.19393 L 336.02617,10.37162 C 342.17294,10.37162 348.46335,20.2776 348.46335,26.17996 L 306.86368,191.71373 C 306.86368,197.61608 287.82498,203.65637 281.6782,203.65637 L 202.51664,202.74018 C 201.40226,50.72026 121.66873,126.89197 92.788681,12.19393 z"
       style="fill:url(#linearGradient2421);fill-opacity:1;fill-rule:nonzero;stroke:none;stroke-width:2;stroke-linecap:round;stroke-linejoin:round;marker:none;marker-start:none;marker-mid:none;marker-end:none;stroke-miterlimit:4;stroke-dashoffset:0;stroke-opacity:1;visibility:visible;display:inline;overflow:visible" /><rect
       transform="matrix(0.3479444,-0.9375152,0.4296041,0.9030174,0,0)"
       rx="30.156675"
       ry="32.878754"
       y="498.1329"
       x="433.03146"
       height="88.664139"
       width="23.775187"
       id="rect4298"
       style="opacity:1;fill:url(#linearGradient2423);fill-opacity:1;fill-rule:nonzero;stroke:none;stroke-width:2;stroke-linecap:round;stroke-linejoin:round;marker:none;marker-start:none;marker-mid:none;marker-end:none;stroke-miterlimit:4;stroke-dasharray:none;stroke-dashoffset:0;stroke-opacity:1;visibility:visible;display:inline;overflow:visible" /><path
       sodipodi:nodetypes="cscccc"
       id="path4310"
       d="M 394.50228,130.46057 C 389.00634,150.03347 353.47033,151.46523 346.75015,181.76184 C 340.02997,212.05845 340.77338,217.24616 313.78651,217.10744 L 317.88714,330.09823 L 391.25302,279.66216 L 394.50228,130.46057 z"
       style="font-size:12px;fill:url(#linearGradient2425);fill-opacity:1;fill-rule:evenodd" /></g></svg>