<?xml version="1.0" encoding="UTF-8" standalone="no"?>
<!-- Created with Sodipodi ("http://www.sodipodi.com/") -->
<svg
   xmlns:dc="http://purl.org/dc/elements/1.1/"
   xmlns:cc="http://creativecommons.org/ns#"
   xmlns:rdf="http://www.w3.org/1999/02/22-rdf-syntax-ns#"
   xmlns:svg="http://www.w3.org/2000/svg"
   xmlns="http://www.w3.org/2000/svg"
   xmlns:xlink="http://www.w3.org/1999/xlink"
   xmlns:sodipodi="http://sodipodi.sourceforge.net/DTD/sodipodi-0.dtd"
   xmlns:inkscape="http://www.inkscape.org/namespaces/inkscape"
   id="svg999"
   sodipodi:version="0.32"
   width="131.60464"
   height="74.50724"
   xml:space="preserve"
   sodipodi:docbase="/home/franck/Dessins/Vectoriels/Objets_divers"
   sodipodi:docname="lifebuoy.svg"
   inkscape:version="0.46"
   inkscape:output_extension="org.inkscape.output.svg.inkscape"
   sodipodi:modified="true"
   version="1.0"><metadata
     id="metadata31"><rdf:RDF><cc:Work
         rdf:about=""><dc:format>image/svg+xml</dc:format><dc:type
           rdf:resource="http://purl.org/dc/dcmitype/StillImage" /></cc:Work></rdf:RDF></metadata><defs
     id="defs1001"><inkscape:perspective
       sodipodi:type="inkscape:persp3d"
       inkscape:vp_x="0 : 286.51535 : 1"
       inkscape:vp_y="0 : 1000 : 0"
       inkscape:vp_z="394.71155 : 286.51535 : 1"
       inkscape:persp3d-origin="197.35577 : 191.01023 : 1"
       id="perspective38" /><linearGradient
       id="linearGradient1026"><stop
         style="stop-color:#ff0000;stop-opacity:1;"
         offset="0"
         id="stop1027" /><stop
         style="stop-color:#ff9a00;stop-opacity:1;"
         offset="1"
         id="stop1028" /></linearGradient><linearGradient
       id="linearGradient1023"><stop
         style="stop-color:#ff6700;stop-opacity:1;"
         offset="0"
         id="stop1024" /><stop
         style="stop-color:#ffffef;stop-opacity:1;"
         offset="1"
         id="stop1025" /></linearGradient><linearGradient
       id="linearGradient1019"><stop
         style="stop-color:#d7fada;stop-opacity:1;"
         offset="0"
         id="stop1020" /><stop
         style="stop-color:#ffffff;stop-opacity:0;"
         offset="1"
         id="stop1021" /></linearGradient><linearGradient
       id="linearGradient1012"><stop
         style="stop-color:#ffffff;stop-opacity:1;"
         offset="0"
         id="stop1013" /><stop
         style="stop-color:#7ac78d;stop-opacity:0.0275;"
         offset="1"
         id="stop1014" /></linearGradient><linearGradient
       id="linearGradient1007"><stop
         style="stop-color:#0000ff;stop-opacity:1;"
         offset="0"
         id="stop1008" /><stop
         style="stop-color:#ffffff;stop-opacity:1;"
         offset="1"
         id="stop1009" /></linearGradient><linearGradient
       xlink:href="#linearGradient1007"
       id="linearGradient1010" /><linearGradient
       xlink:href="#linearGradient1026"
       id="linearGradient1011"
       x1="-6.8604791e-08"
       y1="-3.3495837e-08"
       x2="0.99999994"
       y2="-3.3495837e-08" /><radialGradient
       xlink:href="#linearGradient1012"
       id="radialGradient1015"
       cx="0.50561798"
       cy="0.0078705493"
       r="0.86742109"
       fx="0.50561798"
       fy="0.0078705493" /><linearGradient
       xlink:href="#linearGradient1023"
       id="linearGradient1017"
       x1="0.026840532"
       y1="0.99998039"
       x2="0.19127519"
       y2="-0.38461688" /><radialGradient
       xlink:href="#linearGradient1019"
       id="radialGradient1018"
       cx="0.50568187"
       cy="0.515625"
       r="0.55405742"
       fx="0.50568187"
       fy="0.515625" /><radialGradient
       xlink:href="#linearGradient1023"
       id="radialGradient1029"
       cx="0.15100446"
       cy="0.13460752"
       r="1.112424"
       fx="0.15100446"
       fy="0.13460752" /><linearGradient
       inkscape:collect="always"
       xlink:href="#linearGradient1007"
       id="linearGradient2190"
       gradientTransform="scale(1.0191941,0.9811674)"
       x1="170.62187"
       y1="705.67719"
       x2="496.81442"
       y2="705.67719"
       gradientUnits="userSpaceOnUse" /><radialGradient
       inkscape:collect="always"
       xlink:href="#linearGradient1012"
       id="radialGradient2192"
       cx="263.36224"
       cy="732.11182"
       fx="263.36224"
       fy="732.11182"
       r="191.09904"
       gradientTransform="scale(1.2993852,0.7695947)"
       gradientUnits="userSpaceOnUse" /><linearGradient
       inkscape:collect="always"
       xlink:href="#linearGradient1026"
       id="linearGradient2194"
       x1="129.26344"
       y1="341.6416"
       x2="471.65411"
       y2="341.6416"
       gradientTransform="scale(1.1528105,0.8674453)"
       gradientUnits="userSpaceOnUse" /><radialGradient
       inkscape:collect="always"
       xlink:href="#linearGradient1019"
       id="radialGradient2196"
       cx="297.80246"
       cy="523.88568"
       fx="297.80246"
       fy="523.88568"
       r="183.02197"
       gradientTransform="scale(1.173044,0.852483)"
       gradientUnits="userSpaceOnUse" /><radialGradient
       inkscape:collect="always"
       xlink:href="#linearGradient1023"
       id="radialGradient2198"
       cx="119.59421"
       cy="706.50079"
       fx="119.59421"
       fy="706.50079"
       r="95.943283"
       gradientTransform="scale(2.3671547,0.4224481)"
       gradientUnits="userSpaceOnUse" /><inkscape:perspective
       id="perspective2437"
       inkscape:persp3d-origin="372.04724 : 350.78739 : 1"
       inkscape:vp_z="744.09448 : 526.18109 : 1"
       inkscape:vp_y="0 : 1000 : 0"
       inkscape:vp_x="0 : 526.18109 : 1"
       sodipodi:type="inkscape:persp3d" /><inkscape:perspective
       id="perspective2447"
       inkscape:persp3d-origin="372.04724 : 350.78739 : 1"
       inkscape:vp_z="744.09448 : 526.18109 : 1"
       inkscape:vp_y="0 : 1000 : 0"
       inkscape:vp_x="0 : 526.18109 : 1"
       sodipodi:type="inkscape:persp3d" /></defs><sodipodi:namedview
     id="base"
     inkscape:zoom="2.8811374"
     inkscape:cx="102.62279"
     inkscape:cy="63.380364"
     inkscape:window-width="822"
     inkscape:window-height="719"
     inkscape:window-x="135"
     inkscape:window-y="74"
     inkscape:current-layer="svg999"
     showgrid="false" /><path
     id="path2473"
     d="M 47.729544,73.067226 C 30.848324,70.112476 21.618364,65.188216 9.5086836,52.676086 C 0.18704309,43.044656 -1.4081869,39.970356 1.0048331,36.287616 C 1.8275031,35.032056 3.0212531,31.496826 3.6576031,28.431526 C 5.5703631,19.217826 14.668264,9.592466 23.872614,7.044536 C 26.818924,6.228946 32.604544,4.633746 36.729544,3.499656 C 42.388874,1.9437264 49.138004,1.2337864 64.229544,0.60693638 C 75.229544,0.15003638 84.679544,0.14164638 85.229544,0.58829638 C 85.779544,1.0349364 90.188174,2.3384964 95.026494,3.485096 C 105.70044,6.014626 112.74575,8.951006 118.2841,13.178526 C 120.57554,14.927616 124.02582,17.106306 125.95139,18.020046 C 132.47547,21.115926 133.25367,26.682766 128.79834,38.385616 C 127.18618,42.620286 125.62723,47.224416 125.334,48.617016 C 124.70334,51.612156 114.24147,60.647056 106.09583,65.231156 C 91.470124,73.462006 67.992974,76.613976 47.729544,73.067226 z M 73.147754,69.978026 C 74.927034,69.295256 75.282454,66.044766 73.685744,65.057936 C 73.111644,64.703136 67.036644,64.264986 60.185744,64.084276 C 50.852194,63.838076 47.729544,64.062436 47.729544,64.979236 C 47.729544,67.514876 50.364624,69.495916 54.229544,69.865896 C 61.298154,70.542556 71.518734,70.603136 73.147754,69.978026 z M 35.729544,63.698556 C 35.729544,62.223816 34.727424,61.661826 31.137894,61.123546 C 24.985994,60.201006 24.481044,61.118636 29.833774,63.493476 C 35.412564,65.968606 35.729544,65.979636 35.729544,63.698556 z M 70.835504,55.335016 C 70.893784,54.647516 70.857494,52.824856 70.754854,51.284656 C 70.652224,49.744456 71.066024,47.884506 71.674414,47.151436 C 73.268514,45.230666 71.438744,44.758636 59.375974,43.978756 L 49.021304,43.309316 L 47.875424,46.596386 C 47.245194,48.404276 46.729544,51.136416 46.729544,52.667816 C 46.729544,55.970326 47.674034,56.211556 61.479544,56.435186 C 68.243924,56.544756 70.758014,56.249116 70.835504,55.335016 z M 38.618444,48.111956 C 40.305844,41.410676 40.113434,40.585016 36.864404,40.585016 C 33.421464,40.585016 29.261434,43.655776 27.135824,47.766236 C 25.291374,51.333016 25.594214,51.751806 31.049094,53.177996 C 36.153794,54.512626 37.179614,53.826056 38.618444,48.111956 z M 112.50703,46.028306 C 113.72941,45.172126 114.72954,43.801416 114.72954,42.982306 C 114.72954,41.565946 105.62297,36.615446 102.97954,36.594786 C 101.64157,36.584326 101.22801,39.195446 102.47954,39.751686 C 102.89204,39.935016 104.48994,41.772516 106.03043,43.835016 C 109.20564,48.086166 109.45059,48.169126 112.50703,46.028306 z M 83.267334,32.835016 C 87.555934,18.154186 79.965264,-0.64908362 71.829624,4.502006 C 70.670084,5.236166 70.780234,5.834006 72.471164,7.983666 C 73.593964,9.411076 75.256474,13.842826 76.165624,17.831986 C 77.074784,21.821156 78.248584,26.712226 78.774084,28.701036 C 79.299584,30.689846 79.729544,33.727346 79.729544,35.451036 C 79.729544,40.382126 81.429954,39.124756 83.267334,32.835016 z M 97.403344,34.335016 C 97.986489,33.541566 97.718189,31.315876 96.668764,28.241226 C 94.796754,22.756536 93.729544,23.818796 93.729544,31.166806 C 93.729544,35.651906 95.385774,37.080196 97.403344,34.335016 z M 123.22954,33.084796 C 123.22954,30.326166 118.46426,28.173446 114.95047,29.344706 L 112.2422,30.247466 L 116.23587,32.870616 C 120.7975,35.866826 123.22954,35.941306 123.22954,33.084796 z M 34.683704,28.499366 C 34.069794,27.352266 33.314834,26.666386 33.006024,26.975206 C 32.697204,27.284016 33.013764,28.222556 33.709484,29.060846 C 35.507304,31.227086 35.993554,30.946836 34.683704,28.499366 z M 30.550294,24.716966 C 32.188994,23.677926 23.993064,16.118956 20.193884,15.165426 C 17.584064,14.510396 11.729544,17.892186 11.729544,20.054736 C 11.729544,20.656226 15.217044,22.085146 19.479544,23.230126 C 28.887684,25.757306 28.905704,25.759726 30.550294,24.716966 z M 96.219494,7.835016 C 95.984544,7.147516 94.600704,6.585016 93.144294,6.585016 C 90.875084,6.585016 90.587914,6.906886 91.136814,8.835016 C 91.489114,10.072516 92.314934,13.313716 92.971984,16.037696 L 94.166614,20.990376 L 95.406644,15.037696 C 96.088664,11.763716 96.454444,8.522516 96.219494,7.835016 z M 41.302314,13.085136 C 41.234244,7.005376 41.082044,6.585246 38.947424,6.585136 C 37.692264,6.585066 35.066014,7.253246 33.111314,8.069966 L 29.557314,9.554926 L 34.893434,14.531846 C 37.828294,17.269156 40.487294,19.525926 40.802314,19.546896 C 41.117334,19.567856 41.342334,16.660066 41.302314,13.085136 z"
     style="fill:#5d5a58" /><path
     id="path2471"
     d="M 54.229544,73.585016 C 47.195784,72.620276 49.445184,72.345556 62.729544,72.546896 C 76.939124,72.762266 78.629734,71.983716 76.261344,66.315366 L 74.702704,62.585016 L 63.466124,62.369626 C 57.286004,62.251166 50.542044,62.223866 48.479544,62.308956 C 44.933014,62.455276 44.729544,62.298376 44.729544,59.417356 C 44.729544,57.229686 45.120754,56.521156 46.117474,56.903636 C 46.880834,57.196566 52.205144,57.751056 57.949274,58.135826 C 71.180134,59.022106 72.903874,58.315866 72.164184,52.311776 C 71.877794,49.987056 72.019734,47.534096 72.479624,46.860746 C 72.939504,46.187396 76.544344,45.178586 80.490384,44.618936 C 84.436414,44.059286 90.042014,42.697936 92.947264,41.593706 C 100.41964,38.753616 101.43266,38.968956 104.51802,44.053406 C 107.64642,49.208786 110.1975,49.806896 114.2372,46.332086 C 117.6799,43.370796 116.85974,41.518006 110.59747,38.109646 C 105.68302,35.434866 103.03431,35.213956 98.229539,37.078116 C 96.260924,37.841906 96.260014,37.830366 98.171249,36.342786 C 100.04831,34.881806 100.05663,34.657086 98.421249,29.593416 C 96.472644,23.559916 96.145844,12.063796 97.892249,10.984456 C 98.531739,10.589226 100.44424,9.940286 102.14225,9.542356 L 105.22954,8.818856 L 101.97954,8.076936 C 100.19204,7.668876 98.729539,6.970776 98.729539,6.525586 C 98.729539,4.858226 111.24535,10.024696 117.37914,14.224056 C 120.88255,16.622586 124.17141,18.585016 124.68773,18.585016 C 125.20405,18.585016 126.88579,19.752086 128.42492,21.178506 C 130.77545,23.356906 131.19514,24.500856 131.0471,28.325816 C 130.95017,30.830416 130.47787,33.150846 129.99754,33.482326 C 128.65071,34.411776 124.72954,44.189296 124.72954,46.618176 C 124.72954,49.456006 116.11174,57.535536 107.72954,62.556356 C 100.65991,66.790956 91.200424,70.284606 84.210024,71.242746 C 81.771104,71.577036 79.977334,72.176936 80.223884,72.575856 C 81.245634,74.229086 63.849334,74.904456 54.229544,73.585016 z M 74.229544,60.091366 C 74.779544,59.899716 69.379544,59.783036 62.229544,59.832066 C 53.104364,59.894656 51.017924,60.094666 55.229544,60.503126 C 60.985254,61.061326 72.139684,60.819586 74.229544,60.091366 z M 115.72954,55.585016 C 118.01267,53.301886 118.32278,51.585016 116.45205,51.585016 C 114.44812,51.585016 110.72954,54.546036 110.72954,56.141716 C 110.72954,58.215676 113.39573,57.918816 115.72954,55.585016 z M 113.47954,50.595976 C 115.26704,49.506116 116.72954,48.382796 116.72954,48.099716 C 116.72954,46.994486 114.97337,47.691796 111.72954,50.085016 C 107.694,53.062346 108.87084,53.405956 113.47954,50.595976 z M 117.38453,37.128326 C 116.92289,35.925296 117.24736,35.863826 119.24793,36.775346 C 124.14871,39.008296 127.01353,32.298186 122.50703,29.141716 C 118.70259,26.476976 111.2671,27.421376 110.41561,30.677466 C 110.07687,31.972846 109.0042,32.600816 107.07316,32.634256 C 104.64484,32.676306 105.10582,33.101906 110.22954,35.548436 C 117.23547,38.893696 118.13848,39.093086 117.38453,37.128326 z M 129.03003,24.925696 C 128.74707,24.188326 128.11371,23.585016 127.62255,23.585016 C 126.57783,23.585016 126.41493,26.937076 127.41123,27.933376 C 128.37638,28.898516 129.64795,26.535976 129.03003,24.925696 z M 46.236624,70.596466 C 45.886284,70.029606 46.287684,69.861966 47.177604,70.203456 C 48.910024,70.868246 49.226994,71.585016 47.788564,71.585016 C 47.271024,71.585016 46.572644,71.140166 46.236624,70.596466 z M 35.895014,68.708436 C 34.893784,68.073766 35.124444,67.715006 36.818554,67.271986 C 39.259904,66.633566 40.729544,67.149136 40.729544,68.644036 C 40.729544,69.809326 37.695484,69.849746 35.895014,68.708436 z M 30.729544,66.585016 C 29.904544,66.051856 29.679544,65.615636 30.229544,65.615636 C 30.779544,65.615636 31.904544,66.051856 32.729544,66.585016 C 33.554544,67.118166 33.779544,67.554386 33.229544,67.554386 C 32.679544,67.554386 31.554544,67.118166 30.729544,66.585016 z M 19.495094,60.553116 C 16.977564,58.885566 14.137604,56.330556 13.184094,54.875306 C 12.230584,53.420056 9.1101536,49.946916 6.2498231,47.157206 C -0.15154691,40.913906 -0.85568691,39.208146 1.9062431,36.635016 C 3.1941931,35.435116 4.3316731,32.665446 4.8292631,29.517736 C 5.2772731,26.683606 6.3733131,23.251446 7.2648931,21.890716 C 8.6934236,19.710506 9.0251336,19.603416 10.057754,20.989016 C 11.115664,22.408556 24.901504,26.585016 28.529264,26.585016 C 30.245894,26.585016 31.980104,28.594386 34.752064,33.795176 C 37.299054,38.573856 37.296284,38.585016 33.562874,38.585016 C 31.821214,38.585016 30.685964,38.874776 31.040114,39.228926 C 31.394264,39.583066 30.350764,41.391326 28.721234,43.247266 C 25.320294,47.120716 23.973674,51.229146 25.578884,52.834346 C 26.185474,53.440946 29.280034,54.453996 32.455664,55.085556 C 37.306034,56.050196 38.283384,56.602656 38.566154,58.539586 C 38.853744,60.509616 38.562564,60.761696 36.566154,60.271066 C 35.281014,59.955246 31.801854,59.380056 28.834664,58.992876 L 23.439784,58.288916 L 23.945994,60.936966 C 24.224404,62.393396 24.366754,63.585016 24.262314,63.585016 C 24.157884,63.585016 22.012634,62.220656 19.495094,60.553116 z M 29.229544,56.140256 C 27.579544,55.435376 24.879544,54.590246 23.229544,54.262196 C 20.598424,53.739076 20.721384,53.903466 24.229544,55.599156 C 26.429544,56.662526 29.129544,57.507656 30.229544,57.477216 C 31.754534,57.435016 31.517024,57.117476 29.229544,56.140256 z M 69.729544,43.265506 C 69.454544,42.984756 64.504544,42.524486 58.729544,42.242666 C 52.954544,41.960856 47.554544,41.494656 46.729544,41.206686 C 45.904544,40.918706 44.110604,40.548516 42.743004,40.384046 C 40.763074,40.145936 40.137344,39.371926 39.671784,36.585016 C 38.090844,27.121456 27.091844,14.979246 18.893024,13.646566 C 15.552354,13.103556 15.466474,12.990936 17.127004,11.330406 C 18.949434,9.507976 22.286984,8.874046 21.253244,10.546666 C 20.926354,11.075586 22.519534,12.457556 24.793634,13.617716 C 27.067744,14.777876 30.974734,17.607626 33.475854,19.906056 C 37.991234,24.055516 38.011764,24.062516 36.383554,20.898426 C 35.481674,19.145806 34.290564,17.431746 33.736654,17.089406 C 33.182744,16.747076 32.729544,15.949846 32.729544,15.317786 C 32.729544,14.685736 34.712574,16.114796 37.136264,18.493476 C 39.559964,20.872156 41.961074,22.559956 42.472064,22.244146 C 42.983054,21.928336 43.223554,19.288336 43.006514,16.377486 C 42.469194,9.171276 45.065074,5.985546 52.616034,4.584476 C 62.283964,2.7905964 64.800504,3.2113364 69.276594,7.369956 C 72.745244,10.592586 73.580484,12.220596 75.120714,18.760926 C 76.109094,22.957956 77.212924,29.661606 77.573654,33.657926 C 78.254214,41.197236 79.376464,42.795236 82.087044,40.084656 C 84.684724,37.486976 85.979364,30.628116 85.484534,22.085016 C 84.925044,12.425336 82.498734,6.023386 78.468324,3.572356 C 75.531714,1.7864864 75.525814,1.7644164 77.678244,0.61246638 C 79.984634,-0.62187362 86.106214,0.16653638 85.229544,1.5850164 C 84.944944,2.0455064 86.087524,2.7243664 87.768614,3.0935964 C 90.291694,3.647756 90.616074,4.016816 89.627244,5.208276 C 88.600494,6.445436 88.094214,6.336776 86.083394,4.447716 C 82.822584,1.3843464 82.249674,2.6027764 84.721254,7.344616 C 85.867914,9.544516 87.428084,14.211066 88.188314,17.714726 C 89.563164,24.050986 89.570974,24.061246 89.650044,19.635016 C 89.713634,16.075426 89.979664,15.434986 90.979544,16.434286 C 92.485454,17.939316 93.046184,39.271286 91.603274,40.163056 C 90.755284,40.687136 88.286544,41.116816 74.229544,43.186906 C 72.029544,43.510886 70.004544,43.546256 69.729544,43.265506 z M 43.190804,32.835016 C 42.329734,30.772516 41.143614,28.635016 40.554974,28.085016 C 39.852964,27.429086 39.870624,27.836006 40.606294,29.267696 C 41.223154,30.468176 42.167104,32.605676 42.703954,34.017696 C 43.240804,35.429726 43.922224,36.585016 44.218214,36.585016 C 44.514204,36.585016 44.051874,34.897516 43.190804,32.835016 z M 23.729544,9.585016 C 23.729544,9.035016 23.917744,8.585016 24.147754,8.585016 C 24.377774,8.585016 25.277774,8.311866 26.147754,7.978026 C 27.185744,7.579716 27.729544,7.923506 27.729544,8.978026 C 27.729544,9.918346 26.899834,10.585016 25.729544,10.585016 C 24.629544,10.585016 23.729544,10.135016 23.729544,9.585016 z M 45.729544,3.467236 C 48.204544,2.8994964 51.010934,2.0187364 51.965974,1.5099964 C 52.921014,1.0012564 58.546014,0.61353638 64.465974,0.64839638 C 78.459034,0.73080638 74.929874,2.5211764 59.768414,3.0315064 C 53.972034,3.2266164 47.429544,3.636726 45.229544,3.942866 C 41.498014,4.462126 41.531574,4.430206 45.729544,3.467236 z"
     style="fill:#db0f0e" /><path
     id="path2469"
     d="M 54.229544,73.585016 C 47.178354,72.617886 49.481294,72.335506 62.512474,72.569376 C 71.404874,72.728976 74.310654,72.434276 76.227294,71.178446 C 78.489464,69.696216 78.728614,69.714756 79.654164,71.444166 C 80.565374,73.146776 80.084184,73.356676 73.939344,73.937056 C 66.312024,74.657456 61.410214,74.569906 54.229544,73.585016 z M 46.236624,70.596466 C 45.886284,70.029606 46.287684,69.861966 47.177604,70.203456 C 48.910024,70.868246 49.226994,71.585016 47.788564,71.585016 C 47.271024,71.585016 46.572644,71.140166 46.236624,70.596466 z M 35.895014,68.708436 C 34.893784,68.073766 35.124444,67.715006 36.818554,67.271986 C 39.259904,66.633566 40.729544,67.149136 40.729544,68.644036 C 40.729544,69.809326 37.695484,69.849746 35.895014,68.708436 z M 91.729544,69.321736 C 92.599254,68.431606 106.72954,62.650316 106.72954,63.184606 C 106.72954,63.465356 104.36704,64.734366 101.47954,66.004606 C 95.862914,68.475416 90.910034,70.160476 91.729544,69.321736 z M 30.729544,66.585016 C 29.904544,66.051856 29.679544,65.615636 30.229544,65.615636 C 30.779544,65.615636 31.904544,66.051856 32.729544,66.585016 C 33.554544,67.118166 33.779544,67.554386 33.229544,67.554386 C 32.679544,67.554386 31.554544,67.118166 30.729544,66.585016 z M 19.495094,60.553116 C 16.977564,58.885566 14.137604,56.330556 13.184094,54.875306 C 12.230584,53.420056 9.1101536,49.946916 6.2498231,47.157206 C -0.15154691,40.913906 -0.85568691,39.208146 1.9062431,36.635016 C 3.1941931,35.435116 4.3316731,32.665446 4.8292631,29.517736 C 5.2772731,26.683606 6.3733131,23.251446 7.2648931,21.890716 C 8.6934236,19.710506 9.0251336,19.603416 10.057754,20.989016 C 11.115664,22.408556 24.901504,26.585016 28.529264,26.585016 C 30.245894,26.585016 31.980104,28.594386 34.752064,33.795176 C 37.254464,38.490206 37.243294,38.585016 34.187734,38.585016 C 30.999454,38.585016 28.246324,36.066086 26.273214,31.343756 C 24.623904,27.396406 21.884364,26.111486 12.587094,24.924576 C 7.2406431,24.242036 6.5628731,25.176116 6.5628731,33.226966 C 6.5628731,39.758496 8.1675836,42.754986 13.513034,46.205036 C 20.600524,50.779436 21.477514,50.921026 23.409694,47.802866 C 25.686344,44.128826 29.894344,39.585016 31.020224,39.585016 C 31.524304,39.585016 30.546614,41.168266 28.847584,43.103356 C 25.332854,47.106406 23.954454,51.209926 25.578884,52.834346 C 26.185474,53.440946 29.280034,54.453996 32.455664,55.085556 C 37.306034,56.050196 38.283384,56.602656 38.566154,58.539586 C 38.853744,60.509616 38.562564,60.761696 36.566154,60.271066 C 35.281014,59.955246 31.801854,59.380056 28.834664,58.992876 L 23.439784,58.288916 L 23.945994,60.936966 C 24.224404,62.393396 24.366754,63.585016 24.262314,63.585016 C 24.157884,63.585016 22.012634,62.220656 19.495094,60.553116 z M 29.229544,56.140256 C 27.579544,55.435376 24.879544,54.590246 23.229544,54.262196 C 20.598424,53.739076 20.721384,53.903466 24.229544,55.599156 C 26.429544,56.662526 29.129544,57.507656 30.229544,57.477216 C 31.754534,57.435016 31.517024,57.117476 29.229544,56.140256 z M 31.729544,32.585016 C 31.729544,32.035016 31.279544,31.585016 30.729544,31.585016 C 30.179544,31.585016 29.729544,32.035016 29.729544,32.585016 C 29.729544,33.135016 30.179544,33.585016 30.729544,33.585016 C 31.279544,33.585016 31.729544,33.135016 31.729544,32.585016 z M 74.644254,63.166386 C 74.400994,62.923136 67.570674,62.584696 59.465754,62.414306 L 44.729544,62.104506 L 44.729544,59.237766 C 44.729544,57.203286 45.132474,56.525656 46.117474,56.903636 C 49.537394,58.215976 68.460174,58.799546 70.592384,57.658416 C 71.801964,57.011076 76.040154,56.297306 80.010584,56.072276 C 88.104444,55.613546 101.91048,52.351706 105.37985,50.078486 C 106.63348,49.257076 108.54991,48.585016 109.63859,48.585016 C 112.52184,48.585016 116.99234,44.433436 116.23482,42.459366 C 115.89295,41.568486 113.35615,39.611106 110.59747,38.109646 C 105.68302,35.434866 103.03431,35.213956 98.229539,37.078116 C 96.260924,37.841906 96.260014,37.830366 98.171249,36.342786 C 100.04831,34.881806 100.05663,34.657086 98.421249,29.593416 C 96.573284,23.871516 96.132314,12.072156 97.729539,11.085016 C 98.362809,10.693636 98.729539,13.263206 98.729539,18.091736 C 98.729539,25.514876 99.804399,29.585016 101.76472,29.585016 C 102.29537,29.585016 102.72954,29.010596 102.72954,28.308536 C 102.72954,27.036146 103.36322,26.957556 117.47954,26.479216 C 124.89567,26.227926 125.55815,24.737276 120.70847,19.213806 C 117.77499,15.872756 103.15734,7.585016 100.19798,7.585016 C 99.390339,7.585016 98.729539,7.164526 98.729539,6.650586 C 98.729539,4.880066 111.02256,9.872176 117.37914,14.224056 C 120.88255,16.622586 124.17141,18.585016 124.68773,18.585016 C 125.20405,18.585016 126.88579,19.752086 128.42492,21.178506 C 130.77545,23.356906 131.19514,24.500856 131.0471,28.325816 C 130.95017,30.830416 130.47787,33.150846 129.99754,33.482326 C 128.64674,34.414516 124.72954,44.192596 124.72954,46.632236 C 124.72954,47.996526 122.64033,50.726056 119.13085,53.946856 C 113.90631,58.741636 105.70407,64.601546 108.47954,61.556446 C 110.15044,59.723226 110.072,56.585016 108.35527,56.585016 C 107.59942,56.585016 105.09146,57.251676 102.78203,58.066496 C 99.184979,59.335606 89.827034,61.255476 78.158034,63.118326 C 76.468714,63.388016 74.887504,63.409646 74.644254,63.166386 z M 74.229544,60.091366 C 74.779544,59.899716 69.379544,59.783036 62.229544,59.832066 C 53.104364,59.894656 51.017924,60.094666 55.229544,60.503126 C 60.985254,61.061326 72.139684,60.819586 74.229544,60.091366 z M 115.72954,55.585016 C 118.01267,53.301886 118.32278,51.585016 116.45205,51.585016 C 114.44812,51.585016 110.72954,54.546036 110.72954,56.141716 C 110.72954,58.215676 113.39573,57.918816 115.72954,55.585016 z M 113.47954,50.595976 C 115.26704,49.506116 116.72954,48.382796 116.72954,48.099716 C 116.72954,46.994486 114.97337,47.691796 111.72954,50.085016 C 107.694,53.062346 108.87084,53.405956 113.47954,50.595976 z M 117.38453,37.128326 C 116.92289,35.925296 117.24736,35.863826 119.24793,36.775346 C 124.14871,39.008296 127.01353,32.298186 122.50703,29.141716 C 118.70259,26.476976 111.2671,27.421376 110.41561,30.677466 C 110.07687,31.972846 109.0042,32.600816 107.07316,32.634256 C 104.64484,32.676306 105.10582,33.101906 110.22954,35.548436 C 117.23547,38.893696 118.13848,39.093086 117.38453,37.128326 z M 129.03003,24.925696 C 128.74707,24.188326 128.11371,23.585016 127.62255,23.585016 C 126.57783,23.585016 126.41493,26.937076 127.41123,27.933376 C 128.37638,28.898516 129.64795,26.535976 129.03003,24.925696 z M 69.729544,43.265506 C 69.454544,42.984756 64.504544,42.524486 58.729544,42.242666 C 52.954544,41.960856 47.554544,41.494656 46.729544,41.206686 C 45.904544,40.918706 44.110604,40.548516 42.743004,40.384046 C 40.763074,40.145936 40.137344,39.371926 39.671784,36.585016 C 38.090844,27.121456 27.091844,14.979246 18.893024,13.646566 C 15.552354,13.103556 15.466474,12.990936 17.127004,11.330406 C 18.949434,9.507976 22.286984,8.874046 21.253244,10.546666 C 20.926354,11.075586 22.519534,12.457556 24.793634,13.617716 C 27.067744,14.777876 30.974734,17.607626 33.475854,19.906056 C 37.991234,24.055516 38.011764,24.062516 36.383554,20.898426 C 35.481674,19.145806 34.290564,17.431746 33.736654,17.089406 C 33.182744,16.747076 32.729544,15.949846 32.729544,15.317786 C 32.729544,14.685736 34.712574,16.114796 37.136264,18.493476 C 39.559964,20.872156 41.961074,22.559956 42.472064,22.244146 C 42.983054,21.928336 43.245234,19.063336 43.054694,15.877486 C 42.601664,8.302826 44.106314,11.496376 45.605274,21.290976 C 46.911094,29.823516 51.292004,39.437796 54.206454,40.166986 C 55.319154,40.445386 60.279544,40.540826 65.229544,40.379086 L 74.229544,40.085016 L 74.522754,32.271416 C 74.731784,26.701116 74.219744,22.284586 72.739274,16.888226 C 71.597094,12.724956 70.866194,9.115036 71.115044,8.866176 C 72.622864,7.358356 76.508354,22.138706 77.527194,33.257946 C 78.253314,41.182496 79.348924,42.822776 82.087044,40.084656 C 84.684724,37.486976 85.979364,30.628116 85.484534,22.085016 C 84.925044,12.425336 82.498734,6.023386 78.468324,3.572356 C 75.531714,1.7864864 75.525814,1.7644164 77.678244,0.61246638 C 79.984634,-0.62187362 86.106214,0.16653638 85.229544,1.5850164 C 84.944944,2.0455064 86.087524,2.7243664 87.768614,3.0935964 C 90.291694,3.647756 90.616074,4.016816 89.627244,5.208276 C 88.600494,6.445436 88.094214,6.336776 86.083394,4.447716 C 82.822584,1.3843464 82.249674,2.6027764 84.721254,7.344616 C 85.867914,9.544516 87.428084,14.211066 88.188314,17.714726 C 89.563164,24.050986 89.570974,24.061246 89.650044,19.635016 C 89.713634,16.075426 89.979664,15.434986 90.979544,16.434286 C 92.485454,17.939316 93.046184,39.271286 91.603274,40.163056 C 90.755284,40.687136 88.286544,41.116816 74.229544,43.186906 C 72.029544,43.510886 70.004544,43.546256 69.729544,43.265506 z M 43.190804,32.835016 C 42.329734,30.772516 41.143614,28.635016 40.554974,28.085016 C 39.852964,27.429086 39.870624,27.836006 40.606294,29.267696 C 41.223154,30.468176 42.167104,32.605676 42.703954,34.017696 C 43.240804,35.429726 43.922224,36.585016 44.218214,36.585016 C 44.514204,36.585016 44.051874,34.897516 43.190804,32.835016 z M 23.729544,9.585016 C 23.729544,9.035016 23.917744,8.585016 24.147754,8.585016 C 24.377774,8.585016 25.277774,8.311866 26.147754,7.978026 C 27.185744,7.579716 27.729544,7.923506 27.729544,8.978026 C 27.729544,9.918346 26.899834,10.585016 25.729544,10.585016 C 24.629544,10.585016 23.729544,10.135016 23.729544,9.585016 z M 45.729544,3.467236 C 48.204544,2.8994964 51.010934,2.0187364 51.965974,1.5099964 C 52.921014,1.0012564 58.546014,0.61353638 64.465974,0.64839638 C 78.459034,0.73080638 74.929874,2.5211764 59.768414,3.0315064 C 53.972034,3.2266164 47.429544,3.636726 45.229544,3.942866 C 41.498014,4.462126 41.531574,4.430206 45.729544,3.467236 z"
     style="fill:#2d2522" /></svg>