<?xml version="1.0" encoding="UTF-8" standalone="no"?>
<!-- Created with Sodipodi ("http://www.sodipodi.com/") -->
<svg
   xmlns:dc="http://purl.org/dc/elements/1.1/"
   xmlns:cc="http://creativecommons.org/ns#"
   xmlns:rdf="http://www.w3.org/1999/02/22-rdf-syntax-ns#"
   xmlns:svg="http://www.w3.org/2000/svg"
   xmlns="http://www.w3.org/2000/svg"
   xmlns:xlink="http://www.w3.org/1999/xlink"
   xmlns:sodipodi="http://sodipodi.sourceforge.net/DTD/sodipodi-0.dtd"
   xmlns:inkscape="http://www.inkscape.org/namespaces/inkscape"
   id="svg1570"
   sodipodi:version="0.32"
   width="50.763832"
   height="139.78403"
   xml:space="preserve"
   sodipodi:docbase="/home/franck/Dessins/Vectoriels/Objets_divers"
   sodipodi:docname="lighthouse.svg"
   inkscape:version="0.46"
   inkscape:output_extension="org.inkscape.output.svg.inkscape"
   sodipodi:modified="true"
   version="1.0"><metadata
     id="metadata70"><rdf:RDF><cc:Work
         rdf:about=""><dc:format>image/svg+xml</dc:format><dc:type
           rdf:resource="http://purl.org/dc/dcmitype/StillImage" /></cc:Work></rdf:RDF></metadata><defs
     id="defs1572"><inkscape:perspective
       sodipodi:type="inkscape:persp3d"
       inkscape:vp_x="0 : 405.68686 : 1"
       inkscape:vp_y="0 : 1000 : 0"
       inkscape:vp_z="294.65768 : 405.68686 : 1"
       inkscape:persp3d-origin="147.32884 : 270.45791 : 1"
       id="perspective93" /><linearGradient
       id="linearGradient1669"><stop
         style="stop-color:#fd5a00;stop-opacity:1;"
         offset="0"
         id="stop1670" /><stop
         style="stop-color:#fffa7d;stop-opacity:1;"
         offset="1"
         id="stop1671" /></linearGradient><linearGradient
       id="linearGradient1655"><stop
         style="stop-color:#fde700;stop-opacity:1;"
         offset="0"
         id="stop1656" /><stop
         style="stop-color:#fffaff;stop-opacity:1;"
         offset="1"
         id="stop1657" /></linearGradient><linearGradient
       id="linearGradient1651"><stop
         style="stop-color:#6b6b6a;stop-opacity:1;"
         offset="0"
         id="stop1652" /><stop
         style="stop-color:#bdbdbd;stop-opacity:1;"
         offset="1"
         id="stop1653" /></linearGradient><linearGradient
       id="linearGradient1643"><stop
         style="stop-color:#522722;stop-opacity:1;"
         offset="0"
         id="stop1644" /><stop
         style="stop-color:#975a00;stop-opacity:1;"
         offset="1"
         id="stop1645" /></linearGradient><linearGradient
       id="linearGradient1625"><stop
         style="stop-color:#000000;stop-opacity:1;"
         offset="0"
         id="stop1626" /><stop
         style="stop-color:#a7a6a6;stop-opacity:1;"
         offset="1"
         id="stop1627" /></linearGradient><linearGradient
       id="linearGradient1618"><stop
         style="stop-color:#7f7f7f;stop-opacity:1;"
         offset="0"
         id="stop1619" /><stop
         style="stop-color:#f0f0f0;stop-opacity:1;"
         offset="1"
         id="stop1620" /></linearGradient><linearGradient
       id="linearGradient1607"><stop
         style="stop-color:#870000;stop-opacity:1;"
         offset="0"
         id="stop1608" /><stop
         style="stop-color:#ff0000;stop-opacity:1;"
         offset="1"
         id="stop1609" /></linearGradient><linearGradient
       xlink:href="#linearGradient1607"
       id="linearGradient1610" /><linearGradient
       xlink:href="#linearGradient1607"
       id="linearGradient1611" /><radialGradient
       xlink:href="#linearGradient1607"
       id="radialGradient1612"
       cx="0.11409078"
       cy="0.98572916"
       r="0.80293477"
       fx="0.11409078"
       fy="0.98572916" /><linearGradient
       xlink:href="#linearGradient1618"
       id="linearGradient1617"
       x1="-0.094342791"
       y1="0.49218449"
       x2="0.7735846"
       y2="0.45312503" /><linearGradient
       xlink:href="#linearGradient1625"
       id="linearGradient1628"
       x1="0.27884611"
       y1="0.50000703"
       x2="1.043269"
       y2="0.4218756" /><linearGradient
       xlink:href="#linearGradient1618"
       id="linearGradient1629"
       x1="3.5401996e-08"
       y1="2.5610692e-07"
       x2="1"
       y2="2.5610692e-07" /><linearGradient
       xlink:href="#linearGradient1625"
       id="linearGradient1638"
       x1="0.60872984"
       y1="0.015594097"
       x2="-0.41304177"
       y2="1.0390626" /><linearGradient
       xlink:href="#linearGradient1643"
       id="linearGradient1642"
       x1="1.0116465"
       y1="-5.7464978e-05"
       x2="-0.034882836"
       y2="1.0078126" /><linearGradient
       xlink:href="#linearGradient1651"
       id="linearGradient1647"
       x1="7.1040468e-08"
       y1="-5.3286617e-06"
       x2="0.99999988"
       y2="-5.3286617e-06"
       gradientTransform="translate(2.368016e-8,-1.77622e-6)" /><linearGradient
       xlink:href="#linearGradient1651"
       id="linearGradient1648"
       x1="4.3901366e-08"
       y1="-1.4230748e-05"
       x2="1"
       y2="-1.4230748e-05"
       gradientTransform="translate(2.195068e-8,-4.722925e-6)" /><linearGradient
       xlink:href="#linearGradient1651"
       id="linearGradient1649"
       x1="-1.1755404e-08"
       y1="-1.6335012e-05"
       x2="1"
       y2="-1.6335012e-05"
       gradientTransform="translate(0,-5.775058e-6)" /><linearGradient
       xlink:href="#linearGradient1651"
       id="linearGradient1650"
       x1="-2.7097201e-08"
       y1="8.7064578e-09"
       x2="1"
       y2="8.7064578e-09" /><radialGradient
       xlink:href="#linearGradient1655"
       id="radialGradient1654"
       cx="0.50000048"
       cy="0.49218839"
       r="0.05281942"
       fx="0.50000048"
       fy="0.49218839"
       spreadMethod="reflect" /><radialGradient
       xlink:href="#linearGradient1655"
       id="radialGradient1661"
       cx="0.50000608"
       cy="0.4921881"
       r="0.03656159"
       fx="0.50000608"
       fy="0.4921881"
       spreadMethod="reflect" /><radialGradient
       xlink:href="#linearGradient1655"
       id="radialGradient1662"
       cx="0.53571188"
       cy="0.49999487"
       r="0.03571558"
       fx="0.53571188"
       fy="0.49999487"
       spreadMethod="reflect" /><linearGradient
       xlink:href="#linearGradient1669"
       id="linearGradient1668"
       x1="0.13278168"
       y1="0.609375"
       x2="0.43749934"
       y2="0.6015625"
       spreadMethod="reflect" /><linearGradient
       xlink:href="#linearGradient1625"
       id="linearGradient672"
       x1="-2.0454863e-06"
       y1="4.68699e-08"
       x2="0.99999797"
       y2="4.68699e-08"
       gradientTransform="translate(-2.045486e-6,4.68699e-8)" /><linearGradient
       inkscape:collect="always"
       xlink:href="#linearGradient1669"
       id="linearGradient2251"
       spreadMethod="reflect"
       x1="136.1207"
       y1="849.89612"
       x2="143.44429"
       y2="849.70831"
       gradientTransform="scale(2.8600636,0.3496426)"
       gradientUnits="userSpaceOnUse" /><linearGradient
       inkscape:collect="always"
       xlink:href="#linearGradient1669"
       id="linearGradient2253"
       spreadMethod="reflect"
       x1="235.4427"
       y1="507.45776"
       x2="240.04778"
       y2="507.33969"
       gradientTransform="scale(1.7167936,0.5824812)"
       gradientUnits="userSpaceOnUse" /><linearGradient
       inkscape:collect="always"
       xlink:href="#linearGradient1669"
       id="linearGradient2255"
       spreadMethod="reflect"
       x1="183.18562"
       y1="650.92554"
       x2="195.03113"
       y2="650.62183"
       gradientTransform="scale(2.0976187,0.4767311)"
       gradientUnits="userSpaceOnUse" /><linearGradient
       inkscape:collect="always"
       xlink:href="#linearGradient1669"
       id="linearGradient2257"
       spreadMethod="reflect"
       x1="136.00815"
       y1="685.12128"
       x2="143.33174"
       y2="684.93347"
       gradientTransform="scale(2.8600636,0.3496426)"
       gradientUnits="userSpaceOnUse" /><radialGradient
       inkscape:collect="always"
       xlink:href="#linearGradient1655"
       id="radialGradient2259"
       spreadMethod="reflect"
       cx="1119.8127"
       cy="107.39912"
       fx="1119.8127"
       fy="107.39912"
       r="0.88543373"
       gradientTransform="scale(0.4017531,2.4890911)"
       gradientUnits="userSpaceOnUse" /><radialGradient
       inkscape:collect="always"
       xlink:href="#linearGradient1655"
       id="radialGradient2261"
       spreadMethod="reflect"
       cx="968.32782"
       cy="104.84513"
       fx="968.32782"
       fy="104.84513"
       r="0.84410304"
       gradientTransform="scale(0.3920721,2.5505513)"
       gradientUnits="userSpaceOnUse" /><radialGradient
       inkscape:collect="always"
       xlink:href="#linearGradient1655"
       id="radialGradient2263"
       spreadMethod="reflect"
       cx="409.99094"
       cy="281.54849"
       fx="409.99094"
       fy="281.54849"
       r="3.7360883"
       gradientTransform="scale(1.019049,0.9813071)"
       gradientUnits="userSpaceOnUse" /><radialGradient
       inkscape:collect="always"
       xlink:href="#linearGradient1607"
       id="radialGradient2265"
       cx="171.34531"
       cy="457.24686"
       fx="171.34531"
       fy="457.24686"
       r="60.914314"
       gradientTransform="scale(2.0643874,0.4844052)"
       gradientUnits="userSpaceOnUse" /><linearGradient
       inkscape:collect="always"
       xlink:href="#linearGradient1607"
       id="linearGradient2267"
       gradientTransform="scale(1.2109691,0.8257849)"
       x1="281.39853"
       y1="327.68793"
       x2="402.78619"
       y2="327.68793"
       gradientUnits="userSpaceOnUse" /><linearGradient
       inkscape:collect="always"
       xlink:href="#linearGradient1607"
       id="linearGradient2269"
       gradientTransform="scale(1.6451511,0.6078469)"
       x1="207.13326"
       y1="571.20947"
       x2="296.52008"
       y2="571.20947"
       gradientUnits="userSpaceOnUse" /><linearGradient
       inkscape:collect="always"
       xlink:href="#linearGradient1651"
       id="linearGradient2271"
       x1="509.34479"
       y1="224.16771"
       x2="859.86169"
       y2="224.16771"
       gradientTransform="scale(0.6099943,1.6393597)"
       gradientUnits="userSpaceOnUse" /><linearGradient
       inkscape:collect="always"
       xlink:href="#linearGradient1618"
       id="linearGradient2273"
       x1="159.38548"
       y1="605.57269"
       x2="273.06534"
       y2="605.57269"
       gradientTransform="scale(1.9222454,0.5202249)"
       gradientUnits="userSpaceOnUse" /><linearGradient
       inkscape:collect="always"
       xlink:href="#linearGradient1618"
       id="linearGradient2275"
       x1="245.51785"
       y1="543.01978"
       x2="364.26181"
       y2="537.6759"
       gradientTransform="scale(1.2732307,0.7854036)"
       gradientUnits="userSpaceOnUse" /><linearGradient
       inkscape:collect="always"
       xlink:href="#linearGradient1618"
       id="linearGradient2277"
       x1="244.95914"
       y1="827.31018"
       x2="382.47363"
       y2="821.12158"
       gradientTransform="scale(1.2300216,0.8129939)"
       gradientUnits="userSpaceOnUse" /><linearGradient
       inkscape:collect="always"
       xlink:href="#linearGradient1625"
       id="linearGradient2279"
       x1="311.59756"
       y1="656.07922"
       x2="428.94809"
       y2="644.08484"
       gradientTransform="scale(1.2042676,0.8303802)"
       gradientUnits="userSpaceOnUse" /><linearGradient
       inkscape:collect="always"
       xlink:href="#linearGradient1643"
       id="linearGradient2281"
       x1="555.85474"
       y1="657.1778"
       x2="468.58167"
       y2="741.22699"
       gradientTransform="scale(0.8164966,1.2247449)"
       gradientUnits="userSpaceOnUse" /><linearGradient
       inkscape:collect="always"
       xlink:href="#linearGradient1625"
       id="linearGradient2283"
       x1="686.599"
       y1="477.81815"
       x2="624.7688"
       y2="539.75104"
       gradientTransform="scale(0.5924783,1.6878256)"
       gradientUnits="userSpaceOnUse" /><linearGradient
       inkscape:collect="always"
       xlink:href="#linearGradient1651"
       id="linearGradient2285"
       gradientTransform="scale(4.3930432,0.2276326)"
       x1="67.065208"
       y1="4021.9504"
       x2="123.10191"
       y2="4021.9504"
       gradientUnits="userSpaceOnUse" /><linearGradient
       inkscape:collect="always"
       xlink:href="#linearGradient1651"
       id="linearGradient2287"
       gradientTransform="scale(4.6098533,0.2169266)"
       x1="61.068329"
       y1="4268.7725"
       x2="119.87062"
       y2="4268.7725"
       gradientUnits="userSpaceOnUse" /><linearGradient
       inkscape:collect="always"
       xlink:href="#linearGradient1651"
       id="linearGradient2289"
       gradientTransform="scale(4.8062384,0.2080629)"
       x1="56.119175"
       y1="4507.3115"
       x2="117.42651"
       y2="4507.3115"
       gradientUnits="userSpaceOnUse" /><linearGradient
       inkscape:collect="always"
       xlink:href="#linearGradient1625"
       id="linearGradient2291"
       gradientTransform="scale(0.5976132,1.6733233)"
       x1="690.0816"
       y1="111.13909"
       x2="704.57904"
       y2="111.13909"
       gradientUnits="userSpaceOnUse" /></defs><sodipodi:namedview
     id="base"
     inkscape:zoom="2.0372718"
     inkscape:cx="153.19592"
     inkscape:cy="-10.583681"
     inkscape:window-width="822"
     inkscape:window-height="719"
     inkscape:window-x="9"
     inkscape:window-y="75"
     inkscape:current-layer="svg1570"
     showgrid="false" /><g
     id="g2222"
     transform="matrix(0.1722807,0,0,0.1722807,-46.467919,-23.979173)"><g
       transform="matrix(0.934816,0,0,0.879226,29.06608,46.03017)"
       id="g1685"><path
         sodipodi:nodetypes="ccsccsc"
         id="path1684"
         d="M 448.9254,297.1796 C 447.7398,297.6672 446.9119,297.1003 446.6309,296.2775 C 436.7946,301.8196 424.9904,292.0447 413.9427,292.0391 C 400.525,292.0322 390.8003,300.1542 382.0288,295.4585 C 381.8801,296.3601 381.2942,297.4962 380.1866,297.1808 C 390.7599,303.378 402.1613,293.8147 413.7994,293.9103 C 425.4706,294.1703 436.5905,306.0006 448.9254,297.1796 z"
         style="font-size:12px;fill:url(#linearGradient2251);fill-rule:evenodd" /><path
         id="path1683"
         d="M 400.7615,290.2204 L 400.7615,299.0232 L 426.7067,299.0232 L 426.7067,290.2204 L 400.7615,290.2204 z"
         style="font-size:12px;fill:url(#linearGradient2253);fill-rule:evenodd" /><path
         id="path1672"
         d="M 373.4263,299.0233 L 373.4263,317.5556 L 454.9685,317.5556 L 454.9685,299.0233 L 373.4263,299.0233 z"
         style="font-size:12px;fill:url(#linearGradient2255);fill-rule:evenodd" /><path
         sodipodi:nodetypes="ccsccsc"
         id="path1673"
         d="M 379.8647,237.6896 C 381.0503,237.202 381.8782,237.7689 382.1592,238.5917 C 391.9955,233.0496 403.7997,242.8245 414.8474,242.8301 C 428.2651,242.837 437.9898,234.715 446.7613,239.4107 C 446.91,238.5091 447.4959,237.373 448.6035,237.6884 C 438.0302,231.4912 426.6288,241.0545 414.9907,240.9589 C 403.3195,240.6989 392.1996,228.8686 379.8647,237.6896 z"
         style="font-size:12px;fill:url(#linearGradient2257);fill-rule:evenodd" /><path
         sodipodi:nodetypes="cccc"
         id="path1659"
         d="M 454.7529,267.7971 C 454.7529,284.4429 451.6728,297.937 447.8731,297.937 C 444.0735,297.937 444.0735,237.6572 447.8731,237.6572 C 451.6728,237.6572 454.7529,251.1513 454.7529,267.7971 z"
         style="font-size:12px;fill:url(#radialGradient2259);fill-rule:evenodd" /><path
         sodipodi:nodetypes="cccc"
         id="path1660"
         d="M 374.6903,267.4132 C 374.6903,284.059 377.6238,297.5531 381.2426,297.5531 C 384.8612,297.5531 384.8612,237.2733 381.2426,237.2733 C 377.6238,237.2733 374.6903,250.7674 374.6903,267.4132 z"
         style="font-size:12px;fill:url(#radialGradient2261);fill-rule:evenodd" /><path
         transform="matrix(0.877875,0,0,0.906552,47.25101,16.06206)"
         sodipodi:ry="34.705513"
         sodipodi:rx="36.040314"
         sodipodi:cy="276.82776"
         sodipodi:cx="417.80081"
         d="M 453.84113,276.82776 A 36.040314,34.705513 0 1 1 381.7605,276.82776 A 36.040314,34.705513 0 1 1 453.84113,276.82776 z"
         id="path1614"
         style="fill:url(#radialGradient2263);fill-opacity:1;fill-rule:evenodd;stroke:none;stroke-width:1pt;stroke-linecap:butt;stroke-linejoin:miter;stroke-opacity:1"
         sodipodi:type="arc" /></g><g
       transform="matrix(0.875559,0,0,0.86571,54.1964,50.27455)"
       id="g666"><path
         sodipodi:nodetypes="cccc"
         id="path1578"
         d="M 492.4688,222.0172 L 335.8549,222.0172 C 335.8549,201.7212 370.9141,185.268 414.1618,185.268 C 457.4096,185.268 492.4688,201.7212 492.4688,222.0172 z"
         style="font-size:12px;fill:url(#radialGradient2265);fill-rule:evenodd;stroke-width:1" /><path
         id="path1586"
         d="M 340.7649,220.4797 L 340.7649,320.7198 L 487.7616,320.7198 L 487.7616,220.4797 L 340.7649,220.4797 z M 345.4901,224.745 L 345.4901,317.515 L 383.2874,317.515 L 383.2874,224.745 L 345.4901,224.745 z M 388.012,224.745 L 388.012,317.5149 L 440.5738,317.5149 L 440.5738,224.745 L 388.012,224.745 z M 445.2984,224.745 L 445.2984,317.515 L 483.0956,317.515 L 483.0956,224.745 L 445.2984,224.745 z"
         style="font-size:12px;fill:url(#linearGradient2267);fill-opacity:1;fill-rule:evenodd" /><rect
         y="320.04117"
         x="340.7655"
         height="54.333496"
         width="147.05481"
         id="rect1606"
         style="font-size:12px;fill:url(#linearGradient2269);fill-opacity:1;fill-rule:evenodd;stroke-width:1" /></g><path
       sodipodi:nodetypes="ccccc"
       id="path1574"
       d="M 334.0833,367.4915 L 310.6974,942.1148 L 524.5107,942.1148 L 497.784,367.4915 L 334.0833,367.4915 z"
       style="font-size:12px;fill:url(#linearGradient2271);fill-rule:evenodd" /><path
       id="path1605"
       d="M 311.567,315.034 C 308.6923,315.034 306.378,317.1322 306.378,319.7385 L 306.378,369.4687 C 306.378,372.0749 308.6923,374.1731 311.567,374.1731 L 519.7096,374.1731 C 522.5843,374.1731 524.8986,372.0749 524.8986,369.4687 L 524.8986,319.7385 C 524.8986,317.1322 522.5843,315.034 519.7096,315.034 L 311.567,315.034 z M 320.9226,322.6021 C 316.4507,322.6021 312.8507,325.866 312.8507,329.9202 L 312.8507,358.6698 C 312.8507,362.7241 316.4507,365.9879 320.9226,365.9879 L 320.9226,365.9879 C 325.3943,365.9879 328.9943,362.7241 328.9943,358.6698 L 328.9943,329.9202 C 328.9943,325.866 325.3943,322.6021 320.9226,322.6021 L 320.9226,322.6021 z M 348.0208,322.6021 C 343.5489,322.6021 339.9488,325.8659 339.9488,329.9202 L 339.9488,358.6698 C 339.9488,362.724 343.5489,365.9879 348.0208,365.9879 L 348.0208,365.9879 C 352.4924,365.9879 356.0925,362.724 356.0925,358.6698 L 356.0925,329.9202 C 356.0925,325.8659 352.4924,322.6021 348.0208,322.6021 L 348.0208,322.6021 z M 375.1189,322.6021 C 370.6471,322.6021 367.0472,325.866 367.0472,329.9202 L 367.0472,358.6698 C 367.0472,362.7241 370.6471,365.9879 375.1189,365.9879 L 375.1189,365.9879 C 379.5908,365.9879 383.1907,362.7241 383.1907,358.6698 L 383.1907,329.9202 C 383.1907,325.866 379.5908,322.6021 375.1189,322.6021 L 375.1189,322.6021 z M 402.7936,322.6021 C 398.3219,322.6021 394.7219,325.8659 394.7219,329.9202 L 394.7219,358.6698 C 394.7219,362.724 398.3219,365.9879 402.7936,365.9879 L 402.7937,365.9879 C 407.2655,365.9879 410.8655,362.724 410.8655,358.6698 L 410.8655,329.9202 C 410.8655,325.8659 407.2655,322.6021 402.7937,322.6021 L 402.7936,322.6021 z M 431.6216,322.602 C 427.1498,322.602 423.5497,325.8659 423.5497,329.9201 L 423.5497,358.6697 C 423.5497,362.724 427.1498,365.9879 431.6216,365.9879 L 431.6216,365.9879 C 436.0933,365.9879 439.6934,362.724 439.6934,358.6697 L 439.6934,329.9201 C 439.6934,325.8659 436.0933,322.602 431.6216,322.602 L 431.6216,322.602 z M 459.8729,322.602 C 455.401,322.602 451.8011,325.8659 451.8011,329.9201 L 451.8011,358.6697 C 451.8011,362.724 455.401,365.9879 459.8729,365.9879 L 459.8729,365.9879 C 464.3447,365.9879 467.9446,362.724 467.9446,358.6697 L 467.9446,329.9201 C 467.9446,325.8659 464.3447,322.602 459.8729,322.602 L 459.8729,322.602 z M 486.3946,322.602 C 481.9227,322.602 478.3228,325.8658 478.3228,329.9201 L 478.3228,358.6697 C 478.3228,362.7239 481.9227,365.9878 486.3946,365.9878 L 486.3946,365.9878 C 490.8664,365.9878 494.4663,362.7239 494.4663,358.6697 L 494.4663,329.9201 C 494.4663,325.8658 490.8664,322.602 486.3946,322.602 L 486.3946,322.602 z M 510.6099,322.6021 C 506.1381,322.6021 502.538,325.8659 502.538,329.9202 L 502.538,358.6698 C 502.538,362.724 506.1381,365.9879 510.6099,365.9879 L 510.61,365.9879 C 515.0816,365.9879 518.6817,362.724 518.6817,358.6698 L 518.6817,329.9202 C 518.6817,325.8659 515.0816,322.6021 510.61,322.6021 L 510.6099,322.6021 z"
       style="font-size:12px;fill:url(#linearGradient2273);fill-opacity:1;fill-rule:evenodd" /><path
       sodipodi:nodetypes="ccccc"
       id="path1622"
       d="M 333.0393,373.6027 L 329.0349,481.0563 L 503.2297,480.3889 L 498.5579,374.2701 L 333.0393,373.6027 z"
       style="font-size:12px;fill:url(#linearGradient2275);fill-rule:evenodd" /><path
       sodipodi:nodetypes="ccccc"
       id="path1623"
       d="M 324.3629,609.1994 L 319.691,738.0102 L 514.5757,738.0102 L 508.569,609.1994 L 324.3629,609.1994 z"
       style="font-size:12px;fill:url(#linearGradient2277);fill-rule:evenodd" /><rect
       y="388.95294"
       x="421.80533"
       height="38.862312"
       width="8.008955"
       id="rect1613"
       style="font-size:12px;fill:#3b3a3a;fill-opacity:1;fill-rule:evenodd;stroke-width:1" /><path
       sodipodi:nodetypes="ccccc"
       id="path1624"
       d="M 329.0348,481.0563 L 323.6956,608.5323 L 508.569,607.8649 L 502.5624,481.0563 L 329.0348,481.0563 z"
       style="font-size:12px;fill:url(#linearGradient2279);fill-rule:evenodd" /><rect
       y="505.6925"
       x="423.14014"
       height="40.171776"
       width="8.008955"
       id="rect1615"
       style="font-size:12px;fill:#010000;fill-opacity:1;fill-rule:evenodd;stroke-width:1" /><path
       transform="translate(-47.13924,9.165924)"
       sodipodi:nodetypes="ccccccc"
       id="path1631"
       d="M 418.8311,804.881 C 400.0723,804.881 384.9705,820.8477 384.9705,840.6808 L 385.9666,907.016 L 453.0605,907.016 L 452.0646,840.6808 C 452.0646,820.8477 439.5816,804.881 420.823,804.881 L 418.8311,804.881 z"
       style="font-size:12px;fill:url(#linearGradient2281);fill-opacity:1;fill-rule:evenodd" /><path
       transform="translate(-47.13924,9.165924)"
       sodipodi:nodetypes="ccccccc"
       id="path1632"
       d="M 418.8311,804.881 C 400.0723,804.881 384.9705,820.8477 384.9705,840.6808 L 385.9666,907.016 L 392.827,907.016 L 391.8311,840.6808 C 391.8311,820.8477 408.1554,808.8093 420.823,804.881 L 418.8311,804.881 z"
       style="font-size:12px;fill:url(#linearGradient2283);fill-rule:evenodd" /><rect
       y="915.52722"
       x="294.62033"
       height="12.755784"
       width="246.17169"
       id="rect1639"
       style="font-size:12px;fill:url(#linearGradient2285);fill-rule:evenodd;stroke-width:1" /><rect
       y="926.01068"
       x="281.51602"
       height="12.755784"
       width="271.06995"
       id="rect1640"
       style="font-size:12px;fill:url(#linearGradient2287);fill-rule:evenodd;stroke-width:1" /><rect
       y="937.80457"
       x="269.72214"
       height="12.755784"
       width="294.65768"
       id="rect1641"
       style="font-size:12px;fill:url(#linearGradient2289);fill-rule:evenodd;stroke-width:1" /><path
       id="path1646"
       d="M 374.7836,816.4844 L 376.0941,913.4564"
       style="fill:none;fill-opacity:1;fill-rule:evenodd;stroke:#000000;stroke-width:1pt;stroke-linecap:butt;stroke-linejoin:miter;stroke-opacity:1" /><rect
       y="185.97162"
       x="412.40186"
       height="24.258955"
       width="8.6638794"
       id="rect670"
       style="font-size:12px;fill:url(#linearGradient2291);fill-rule:evenodd;stroke-width:1" /><rect
       y="139.18665"
       x="421.06573"
       height="58.914566"
       width="3.4655762"
       id="rect671"
       style="font-size:12px;fill:#808080;fill-rule:evenodd;stroke-width:1" /></g></svg>