<?xml version="1.0" encoding="UTF-8" standalone="no"?>
<!-- Created with Sodipodi ("http://www.sodipodi.com/") -->
<svg
   xmlns:dc="http://purl.org/dc/elements/1.1/"
   xmlns:cc="http://creativecommons.org/ns#"
   xmlns:rdf="http://www.w3.org/1999/02/22-rdf-syntax-ns#"
   xmlns:svg="http://www.w3.org/2000/svg"
   xmlns="http://www.w3.org/2000/svg"
   xmlns:xlink="http://www.w3.org/1999/xlink"
   xmlns:sodipodi="http://sodipodi.sourceforge.net/DTD/sodipodi-0.dtd"
   xmlns:inkscape="http://www.inkscape.org/namespaces/inkscape"
   id="svg602"
   sodipodi:version="0.32"
   width="144.2762"
   height="79.349274"
   xml:space="preserve"
   sodipodi:docbase="/home/franck/Dessins/Vectoriels/Transports"
   sodipodi:docname="minivan.svg"
   inkscape:version="0.46"
   inkscape:output_extension="org.inkscape.output.svg.inkscape"
   version="1.0"
   sodipodi:modified="true"><metadata
     id="metadata62"><rdf:RDF><cc:Work
         rdf:about=""><dc:format>image/svg+xml</dc:format><dc:type
           rdf:resource="http://purl.org/dc/dcmitype/StillImage" /></cc:Work></rdf:RDF></metadata><defs
     id="defs604"><inkscape:perspective
       sodipodi:type="inkscape:persp3d"
       inkscape:vp_x="0 : 170.52574 : 1"
       inkscape:vp_y="0 : 1000 : 0"
       inkscape:vp_z="620.1142 : 170.52574 : 1"
       inkscape:persp3d-origin="310.0571 : 113.68383 : 1"
       id="perspective82" /><linearGradient
       id="linearGradient760"><stop
         style="stop-color:#e6e6e6;stop-opacity:1;"
         offset="0"
         id="stop761" /><stop
         style="stop-color:#4f4f4d;stop-opacity:1;"
         offset="1"
         id="stop762" /></linearGradient><linearGradient
       id="linearGradient726"><stop
         style="stop-color:#c7e5e5;stop-opacity:1;"
         offset="0"
         id="stop727" /><stop
         style="stop-color:#ffffff;stop-opacity:1;"
         offset="1"
         id="stop728" /></linearGradient><linearGradient
       id="linearGradient705"><stop
         style="stop-color:#ff9d00;stop-opacity:1;"
         offset="0"
         id="stop706" /><stop
         style="stop-color:#ffea00;stop-opacity:1;"
         offset="1"
         id="stop707" /></linearGradient><linearGradient
       id="linearGradient698"><stop
         style="stop-color:#ffbf00;stop-opacity:1;"
         offset="0"
         id="stop699" /><stop
         style="stop-color:#ffffff;stop-opacity:1;"
         offset="1"
         id="stop700" /></linearGradient><linearGradient
       id="linearGradient648"><stop
         style="stop-color:#000000;stop-opacity:1;"
         offset="0"
         id="stop649" /><stop
         style="stop-color:#ffffff;stop-opacity:1;"
         offset="1"
         id="stop650" /></linearGradient><linearGradient
       xlink:href="#linearGradient648"
       id="linearGradient651"
       x1="-1.6034484"
       y1="0.6640625"
       x2="3.3793101"
       y2="-0.070312478" /><linearGradient
       xlink:href="#linearGradient648"
       id="linearGradient652"
       x1="1.3032688"
       y1="0.97656226"
       x2="-0.60655725"
       y2="-0.66406226" /><radialGradient
       xlink:href="#linearGradient648"
       id="radialGradient653"
       cx="0.46153325"
       cy="0.4765709"
       r="1.4321394"
       fx="0.46153325"
       fy="0.4765709" /><radialGradient
       xlink:href="#linearGradient648"
       id="radialGradient654"
       cx="0.48437992"
       cy="0.49212635"
       r="0.64294517"
       fx="0.48437992"
       fy="0.49212635" /><linearGradient
       xlink:href="#linearGradient705"
       id="linearGradient697"
       x1="0.49330667"
       y1="0.87929595"
       x2="0.49328893"
       y2="-0.38793123" /><linearGradient
       xlink:href="#linearGradient698"
       id="linearGradient702"
       x1="0.50000137"
       y1="-0.33343175"
       x2="0.50335538"
       y2="1.8333296"
       gradientTransform="translate(1.491576e-8,-1.475137e-6)" /><linearGradient
       xlink:href="#linearGradient705"
       id="linearGradient704"
       x1="0.10317461"
       y1="0.84375"
       x2="1.6507938"
       y2="0.2890625" /><linearGradient
       xlink:href="#linearGradient726"
       id="linearGradient725"
       x1="0.49507529"
       y1="0.8281185"
       x2="0.71078414"
       y2="-0.28906253" /><linearGradient
       xlink:href="#linearGradient726"
       id="linearGradient729"
       x1="0.44250771"
       y1="0.82030898"
       x2="0.78735614"
       y2="0.015624946" /><linearGradient
       xlink:href="#linearGradient726"
       id="linearGradient730"
       x1="0.17858206"
       y1="0.64063132"
       x2="0.76785684"
       y2="0.039062545" /><linearGradient
       xlink:href="#linearGradient726"
       id="linearGradient731"
       x1="-0.046105303"
       y1="0.53250062"
       x2="2.0090556"
       y2="0.75892854"
       gradientTransform="matrix(1,-2.029443e-8,1.247853e-5,1,1.524453e-6,9.334917e-8)" /><linearGradient
       xlink:href="#linearGradient648"
       id="linearGradient745"
       x1="1.1029288"
       y1="0.50780153"
       x2="-0.25000167"
       y2="0.49218723" /><linearGradient
       xlink:href="#linearGradient648"
       id="linearGradient749"
       x1="0.70070338"
       y1="1.0106552"
       x2="0.6583066"
       y2="-0.64495832"
       gradientTransform="matrix(1,-1.987979e-6,1.851478e-8,1,-2.560242e-7,1.266136e-7)" /><linearGradient
       xlink:href="#linearGradient648"
       id="linearGradient751"
       x1="0.37500718"
       y1="0.66404909"
       x2="0.47794098"
       y2="-0.37500039" /><radialGradient
       xlink:href="#linearGradient760"
       id="radialGradient759"
       cx="0.49999857"
       cy="0.50781429"
       r="0.97769934"
       fx="0.49999857"
       fy="0.50781429" /><linearGradient
       inkscape:collect="always"
       xlink:href="#linearGradient726"
       id="linearGradient2243"
       x1="584.66748"
       y1="265.75955"
       x2="646.63312"
       y2="202.50117"
       gradientTransform="scale(0.9491359,1.0535899)"
       gradientUnits="userSpaceOnUse" /><linearGradient
       inkscape:collect="always"
       xlink:href="#linearGradient705"
       id="linearGradient2245"
       x1="115.68535"
       y1="608.51135"
       x2="749.86292"
       y2="381.21362"
       gradientTransform="scale(1.4011008,0.7137245)"
       gradientUnits="userSpaceOnUse" /><linearGradient
       inkscape:collect="always"
       xlink:href="#linearGradient648"
       id="linearGradient2247"
       x1="715.47443"
       y1="480.53937"
       x2="507.93103"
       y2="302.25046"
       gradientTransform="scale(1.0011417,0.9988596)"
       gradientUnits="userSpaceOnUse" /><linearGradient
       inkscape:collect="always"
       xlink:href="#linearGradient648"
       id="linearGradient2249"
       x1="-191.12595"
       y1="250.13228"
       x2="710.36115"
       y2="117.26822"
       gradientTransform="scale(0.6616126,1.5114584)"
       gradientUnits="userSpaceOnUse" /><linearGradient
       inkscape:collect="always"
       xlink:href="#linearGradient705"
       id="linearGradient2251"
       x1="188.14699"
       y1="870.60272"
       x2="188.14397"
       y2="654.29449"
       gradientTransform="scale(1.8922029,0.5284845)"
       gradientUnits="userSpaceOnUse" /><linearGradient
       inkscape:collect="always"
       xlink:href="#linearGradient698"
       id="linearGradient2253"
       gradientTransform="scale(4.1631563,0.2402024)"
       x1="95.688148"
       y1="1012.6231"
       x2="96.056747"
       y2="1250.7427"
       gradientUnits="userSpaceOnUse" /><linearGradient
       inkscape:collect="always"
       xlink:href="#linearGradient726"
       id="linearGradient2255"
       x1="245.38145"
       y1="345.77335"
       x2="265.13434"
       y2="243.47076"
       gradientTransform="scale(1.2531345,0.7979989)"
       gradientUnits="userSpaceOnUse" /><linearGradient
       inkscape:collect="always"
       xlink:href="#linearGradient726"
       id="linearGradient2257"
       x1="401.46671"
       y1="345.15384"
       x2="445.15311"
       y2="243.2141"
       gradientTransform="scale(1.1626078,0.8601353)"
       gradientUnits="userSpaceOnUse" /><linearGradient
       inkscape:collect="always"
       xlink:href="#linearGradient726"
       id="linearGradient2259"
       gradientTransform="scale(0.6350003,1.5748024)"
       x1="981.23828"
       y1="226.53163"
       x2="1030.9156"
       y2="232.00485"
       gradientUnits="userSpaceOnUse" /><linearGradient
       inkscape:collect="always"
       xlink:href="#linearGradient648"
       id="linearGradient2261"
       x1="900.24969"
       y1="182.96153"
       x2="862.33655"
       y2="182.52399"
       gradientTransform="scale(0.6215175,1.6089653)"
       gradientUnits="userSpaceOnUse" /><linearGradient
       inkscape:collect="always"
       xlink:href="#linearGradient648"
       id="linearGradient2263"
       gradientTransform="scale(1.4129284,0.7077499)"
       x1="470.24338"
       y1="583.20264"
       x2="467.18698"
       y2="463.84973"
       gradientUnits="userSpaceOnUse" /><linearGradient
       inkscape:collect="always"
       xlink:href="#linearGradient648"
       id="linearGradient2265"
       x1="105.76516"
       y1="440.97162"
       x2="117.87057"
       y2="318.77536"
       gradientTransform="scale(1.0246504,0.9759426)"
       gradientUnits="userSpaceOnUse" /><radialGradient
       inkscape:collect="always"
       xlink:href="#linearGradient648"
       id="radialGradient2267"
       cx="171.12354"
       cy="468.62381"
       fx="171.12354"
       fy="468.62381"
       r="159.32558"
       gradientUnits="userSpaceOnUse" /><radialGradient
       inkscape:collect="always"
       xlink:href="#linearGradient760"
       id="radialGradient2269"
       cx="879.68042"
       cy="93.359421"
       fx="879.68042"
       fy="93.359421"
       r="12.604683"
       gradientTransform="scale(0.1971293,5.0728132)"
       gradientUnits="userSpaceOnUse" /><radialGradient
       inkscape:collect="always"
       xlink:href="#linearGradient648"
       id="radialGradient2271"
       cx="174.33955"
       cy="472.43088"
       fx="174.33955"
       fy="472.43088"
       r="43.774986"
       gradientUnits="userSpaceOnUse" /><radialGradient
       inkscape:collect="always"
       xlink:href="#linearGradient648"
       id="radialGradient2273"
       cx="171.12354"
       cy="468.62381"
       fx="171.12354"
       fy="468.62381"
       r="159.32558"
       gradientUnits="userSpaceOnUse" /><radialGradient
       inkscape:collect="always"
       xlink:href="#linearGradient760"
       id="radialGradient2275"
       cx="879.68042"
       cy="93.359421"
       fx="879.68042"
       fy="93.359421"
       r="12.604683"
       gradientTransform="scale(0.1971293,5.0728132)"
       gradientUnits="userSpaceOnUse" /><radialGradient
       inkscape:collect="always"
       xlink:href="#linearGradient648"
       id="radialGradient2277"
       cx="174.33955"
       cy="472.43088"
       fx="174.33955"
       fy="472.43088"
       r="43.774986"
       gradientUnits="userSpaceOnUse" /></defs><sodipodi:namedview
     id="base"
     inkscape:zoom="1.4405687"
     inkscape:cx="324.18975"
     inkscape:cy="13.00212"
     inkscape:window-width="822"
     inkscape:window-height="719"
     inkscape:window-x="3"
     inkscape:window-y="25"
     inkscape:current-layer="svg602"
     showgrid="false" /><g
     id="g2214"
     transform="matrix(0.2326607,0,0,0.2326607,-14.700172,-43.633225)"><rect
       ry="86.132034"
       y="394.87531"
       x="112.65023"
       height="81.980377"
       width="512.24969"
       id="rect773"
       style="font-size:12px;fill:#808080;fill-rule:evenodd"
       rx="86.132034" /><g
       id="g741"><path
         sodipodi:nodetypes="cccc"
         id="path612"
         d="M 600.473,271.9637 C 619.0363,294.0704 641.688,314.8432 636.0281,319.8164 C 600.3648,300.2039 530.5751,216.5965 537.5979,209.5718 C 543.2581,204.5984 568.0174,234.2278 600.473,271.9637 z"
         style="font-size:12px;fill:url(#linearGradient2243);fill-rule:evenodd;stroke-width:1" /><path
         sodipodi:nodetypes="cc"
         id="path740"
         d="M 539.7368,209.2895 C 519.5992,210.8498 610.9639,306.1093 635.3533,319.455"
         style="fill:none;fill-opacity:1;fill-rule:evenodd;stroke:#000000;stroke-width:1.875;stroke-linecap:round;stroke-linejoin:miter;stroke-dasharray:none;stroke-opacity:1" /></g><path
       sodipodi:nodetypes="cccccccccccccccccccssccccccccccccccccc"
       id="path735"
       d="M 547.0964,281.2921 C 551.6514,290.2963 536.3094,316.4896 525.5519,315.4938 L 443.4064,298.5067 C 402.6678,286.5323 390.0028,227.7528 416.2076,215.936 C 441.8183,204.8193 489.8868,206.9906 506.8166,216.3298 C 510.3272,217.9185 513.3214,220.9866 515.0576,224.0865 L 547.0964,281.2921 z M 274.1979,216.35 C 261.6911,216.35 251.6225,226.4186 251.6225,238.9254 L 251.6225,264.974 C 251.6225,277.4808 261.6911,287.5494 274.1979,287.5494 L 341.9243,287.5494 C 354.431,287.5494 364.4996,277.4808 364.4996,264.974 L 364.4996,238.9254 C 364.4996,226.4186 354.431,216.35 341.9243,216.35 L 274.1979,216.35 z M 539.8082,208.7353 C 514.06,209.8107 621.6824,312.6529 642.8452,320.9157 C 652.7879,329.7266 674.8835,378.0994 676.9882,394.1747 L 599.3915,374.8213 C 594.0849,373.4978 589.709,374.5573 587.6199,380.7224 L 574.6542,418.9862 C 532.3748,392.0815 476.2125,416.7102 476.1238,480.0075 L 235.8758,479.3256 C 235.8447,424.0903 198.7399,413.91 184.3477,411.1798 C 184.2285,402.5467 184.7869,396.6244 184.6676,387.9912 C 184.5597,384.9545 181.0632,381.9177 177.5667,381.9307 L 114.2152,382.9862 C 104.2185,383.1928 102.6933,380.0108 102.8623,371.7458 L 106.3633,204.3896 C 106.4343,200.994 113.3587,198.1799 124.0699,198.0296 L 328.2435,195.1668 C 356.8418,194.7658 491.9799,171.3023 539.8082,208.7353 z M 664.5671,359.3266 C 670.2331,371.5696 671.1526,383.5122 666.6208,386.001 C 662.0891,388.4898 653.8221,380.5825 648.1561,368.3395 C 642.4901,356.0964 641.5706,344.1538 646.1023,341.6651 C 650.6341,339.1762 658.9011,347.0835 664.5671,359.3266 z"
       style="font-size:12px;fill:url(#linearGradient2245);fill-rule:evenodd;stroke-width:1" /><path
       sodipodi:nodetypes="cccssccss"
       id="path615"
       d="M 600.5873,374.9762 L 679.3377,394.3888 C 686.624,398.8195 682.1223,418.9321 679.4862,426.9917 C 672.7682,426.3651 655.4463,467.2494 667.2303,467.9036 C 676.5652,467.8079 676.2064,482.594 668.218,482.5353 L 599.658,482.0319 C 602.2528,447.0285 588.9044,431.982 574.5016,419.2979 L 588.0051,379.7558 C 590.0359,373.8091 592.3576,372.9475 600.5873,374.9762 z"
       style="fill:url(#linearGradient2247);fill-opacity:1;fill-rule:evenodd;stroke:none;stroke-width:1pt;stroke-linecap:butt;stroke-linejoin:miter;stroke-opacity:1" /><path
       sodipodi:nodetypes="cccccsscscc"
       id="path617"
       d="M 66.00217,398.8672 C 62.86985,430.5918 73.51695,446.8661 107.2852,468.1208 C 109.7509,470.0917 113.7279,470.9305 114.4227,468.1284 C 124.6164,417.0248 161.763,409.7227 184.3662,411.2061 L 185.1739,386.8658 C 185.3231,383.7327 183.0855,381.6117 179.7154,381.6488 L 109.9067,382.4176 C 106.2478,382.4579 101.8797,382.1575 103.5008,370.3022 L 120.836,205.8555 C 121.2966,201.4866 122.4515,194.4748 108.404,197.0119 C 96.17928,200.2361 66.95672,380.8581 66.00217,398.8672 z"
       style="fill:url(#linearGradient2249);fill-opacity:1;fill-rule:evenodd;stroke:none;stroke-width:1pt;stroke-linecap:butt;stroke-linejoin:miter;stroke-opacity:1" /><path
       sodipodi:nodetypes="ccccc"
       id="path620"
       d="M 106.1773,267.1734 C 105.6727,289.3031 99.42928,311.5729 95.3063,319.0221 C 90.33654,327.7878 81.26663,336.5982 75.62394,336.714 C 81.47182,296.2598 95.54985,233.926 99.14604,220.8408 C 107.2972,220.7067 105.5782,230.7333 106.1773,267.1734 z"
       style="font-size:12px;fill:#ff0000;fill-opacity:1;fill-rule:evenodd;stroke:#000000;stroke-width:1;stroke-opacity:1" /><path
       sodipodi:nodetypes="ccccccccc"
       id="path708"
       d="M 231.0874,380.7795 C 217.2822,380.7795 196.6802,393.2489 196.6802,407.0541 C 215.2044,407.1826 236.4395,431.7089 240.7318,446.7472 C 244.1203,458.5193 254.5566,469.6333 268.3618,469.6333 L 442.5647,470.9887 C 456.37,470.9887 467.4839,459.1971 473.5834,447.425 C 479.231,429.9017 501.1438,404.2461 519.6681,398.9216 C 519.6681,385.1163 499.7439,383.4904 485.9386,383.4904 L 231.0874,380.7795 z"
       style="font-size:12px;fill:url(#linearGradient2251);fill-rule:evenodd" /><path
       sodipodi:nodetypes="cssccss"
       id="path703"
       d="M 254.7401,261.3078 C 223.1743,263.8963 169.5292,271.5303 169.6059,275.7762 C 169.6576,278.6345 173.9832,278.5815 177.1686,278.317 C 387.4664,261.5883 469.4484,261.7001 613.6963,266.8188 C 621.258,267.2187 627.0959,266.9036 627.1224,265.0517 C 627.1224,260.804 608.5814,256.5896 600.4156,256.2054 C 454.3718,249.9987 401.3344,249.9648 254.7401,261.3078 z"
       style="font-size:12px;fill:url(#linearGradient2253);fill-rule:evenodd"
       transform="matrix(0.988322,0.152381,-0.152381,0.988322,0,0)" /><path
       sodipodi:nodetypes="ccccccccss"
       id="path630"
       d="M 417.8566,206.652 C 388.6544,217.0737 390.867,229.1768 390.867,313.5948 C 422.117,344.1588 411.492,399.0977 411.492,437.1616 C 411.492,450.2662 422.0421,460.8163 435.1469,460.8163 L 466.2637,461.4413 C 472.3338,461.9278 484.5459,387.6755 554.1002,403.9578 C 572.7401,408.99 580.9207,320.8369 568.7648,298.6553 L 522.7079,223.3604 C 518.4567,216.4236 509.6196,210.9283 497.3165,206.6518 C 474.6815,198.1194 443.5961,199.725 417.8566,206.652 z"
       style="font-size:12px;fill:none;fill-rule:evenodd;stroke:#954d00;stroke-width:1.25;stroke-dasharray:none;stroke-opacity:1" /><rect
       ry="97.031334"
       y="216.34999"
       x="251.62251"
       height="71.199417"
       width="112.87712"
       id="rect719"
       style="font-size:12px;fill:url(#linearGradient2255);fill-rule:evenodd;stroke:#000000;stroke-width:1.875;stroke-dasharray:none;stroke-opacity:1"
       rx="97.031334" /><path
       sodipodi:nodetypes="cccscsc"
       id="path720"
       d="M 547.0964,281.2921 C 551.6514,290.2963 536.3094,316.4896 525.5519,315.4938 L 443.4064,298.5067 C 402.6678,286.5323 390.0028,227.7528 416.2076,215.936 C 441.8183,204.8193 489.8868,206.9906 506.8166,216.3298 C 510.3272,217.9185 513.3214,220.9866 515.0576,224.0865 L 547.0964,281.2921 z"
       style="fill:url(#linearGradient2257);fill-opacity:1;fill-rule:evenodd;stroke:#000000;stroke-width:1.875;stroke-linecap:butt;stroke-linejoin:miter;stroke-dasharray:none;stroke-opacity:1" /><path
       transform="matrix(1.06917,-0.587186,0.539022,1.164707,-210.4114,320.5631)"
       sodipodi:ry="19.033081"
       sodipodi:rx="7.6746216"
       sodipodi:cy="355.50537"
       sodipodi:cx="631.46893"
       d="M 639.14355,355.50537 A 7.6746216,19.033081 0 1 1 623.79431,355.50537 A 7.6746216,19.033081 0 1 1 639.14355,355.50537 z"
       id="path732"
       style="fill:url(#linearGradient2259);fill-opacity:1;fill-rule:evenodd;stroke:none;stroke-width:1pt;stroke-linecap:butt;stroke-linejoin:miter;stroke-opacity:1"
       sodipodi:type="arc" /><path
       sodipodi:nodetypes="ccccc"
       id="path738"
       d="M 88.91772,316.3272 C 87.14656,324.7885 83.22202,331.208 80.15205,330.6656 C 77.08208,330.1232 77.72346,322.4855 79.49462,314.0242 C 81.26577,305.563 83.49601,299.4823 86.56599,300.0247 C 89.63596,300.5671 90.68887,307.866 88.91772,316.3272 z"
       style="font-size:12px;fill:#ff8000;fill-opacity:1;fill-rule:evenodd;stroke-width:1" /><path
       sodipodi:nodetypes="ccccccc"
       id="path746"
       d="M 545.7269,271.983 C 539.3552,271.983 541.0029,277.1125 541.0029,283.4842 L 541.0029,304.5698 C 541.0029,310.9415 539.3552,316.071 545.7269,316.071 C 552.0986,316.071 557.2282,310.9415 557.2282,304.5698 L 557.2282,283.4842 C 557.2282,277.1125 552.0986,271.983 545.7269,271.983 z"
       style="font-size:12px;fill:url(#linearGradient2261);fill-rule:evenodd;stroke:#000000;stroke-opacity:1" /><path
       sodipodi:nodetypes="csccccccs"
       id="path748"
       d="M 611.976,361.2173 C 610.5947,360.9175 602.1112,363.9158 601.549,365.7357 L 593.4926,391.8132 C 590.7126,401.4143 601.5555,412.2912 609.8183,411.9218 L 683.7737,412.218 C 689.1788,412.218 694.1866,407.1721 694.1866,401.7671 L 694.9059,387.8606 C 694.906,382.4554 691.8884,377.3927 686.4835,377.3927 L 611.976,361.2173 z"
       style="font-size:12px;fill:url(#linearGradient2263);fill-rule:evenodd"
       transform="matrix(0.999686,2.50648e-2,-3.096155e-2,0.999521,0,0)" /><path
       sodipodi:nodetypes="cccccsscccs"
       id="path750"
       d="M 63.5486,398.1001 C 60.93836,429.8643 72.02184,445.8594 105.79,467.1141 C 108.2557,469.085 112.2327,469.9238 112.9275,467.1217 C 123.1212,416.0181 160.2678,408.716 182.871,410.1994 L 183.6787,385.8591 C 183.8279,382.726 181.5903,380.605 178.2202,380.6421 L 108.4115,381.4109 C 104.7526,381.4512 100.3845,381.1508 102.0056,369.2955 C 102.0056,369.2955 104.5672,357.6206 104.6933,354.54 L 72.40522,354.147 C 67.36878,354.2563 65.02525,380.1306 63.5486,398.1001 z"
       style="fill:url(#linearGradient2265);fill-opacity:1;fill-rule:evenodd;stroke:none;stroke-width:1pt;stroke-linecap:butt;stroke-linejoin:miter;stroke-opacity:1" /><g
       id="g763"><path
         transform="translate(0,1.736542)"
         id="path662"
         d="M 209.4456,471.2305 C 209.4456,490.0317 194.2042,505.273 175.403,505.273 C 156.6018,505.273 141.3605,490.0317 141.3605,471.2305 C 141.3605,452.4293 156.6018,437.1879 175.403,437.1879 C 194.2042,437.1879 209.4456,452.4293 209.4456,471.2305 z M 231.0281,471.2302 C 231.0281,501.951 206.1239,526.8551 175.403,526.8551 C 144.6821,526.8551 119.778,501.951 119.778,471.2302 C 119.778,440.5092 144.6821,415.6051 175.403,415.6051 C 206.1239,415.6051 231.0281,440.5092 231.0281,471.2302 z"
         style="font-size:12px;fill:url(#radialGradient2267);fill-rule:evenodd" /><path
         transform="matrix(25.57618,0,0,0.993889,-4259.74,2.891281)"
         sodipodi:ry="32.699829"
         sodipodi:rx="1.2707138"
         sodipodi:cy="473.08383"
         sodipodi:cx="173.41077"
         d="M 174.68148,473.08383 A 1.2707138,32.699829 0 1 1 172.14005,473.08383 A 1.2707138,32.699829 0 1 1 174.68148,473.08383 z"
         id="path752"
         style="fill:url(#radialGradient2269);fill-opacity:1;fill-rule:evenodd;stroke:none;stroke-width:1pt;stroke-linecap:butt;stroke-linejoin:miter;stroke-opacity:1"
         sodipodi:type="arc" /><path
         id="path758"
         d="M 209.4456,472.967 C 209.4456,491.7682 194.2042,507.0095 175.403,507.0095 C 156.6018,507.0095 141.3605,491.7682 141.3605,472.967 C 141.3605,454.1658 156.6018,438.9244 175.403,438.9244 C 194.2042,438.9244 209.4456,454.1658 209.4456,472.967 z M 207.9452,473.0841 C 207.9452,491.0333 193.3949,505.5841 175.4455,505.5841 C 157.4962,505.5841 142.9459,491.0333 142.9459,473.0841 C 142.9459,455.1348 157.4962,440.5841 175.4455,440.5841 C 193.3949,440.5841 207.9452,455.1348 207.9452,473.0841 z"
         style="font-size:12px;fill:url(#radialGradient2271);fill-rule:evenodd" /></g><g
       transform="translate(364.2055,-3.051758e-5)"
       id="g767"><path
         transform="translate(0,1.736542)"
         id="path768"
         d="M 209.4456,471.2305 C 209.4456,490.0317 194.2042,505.273 175.403,505.273 C 156.6018,505.273 141.3605,490.0317 141.3605,471.2305 C 141.3605,452.4293 156.6018,437.1879 175.403,437.1879 C 194.2042,437.1879 209.4456,452.4293 209.4456,471.2305 z M 231.0281,471.2302 C 231.0281,501.951 206.1239,526.8551 175.403,526.8551 C 144.6821,526.8551 119.778,501.951 119.778,471.2302 C 119.778,440.5092 144.6821,415.6051 175.403,415.6051 C 206.1239,415.6051 231.0281,440.5092 231.0281,471.2302 z"
         style="font-size:12px;fill:url(#radialGradient2273);fill-rule:evenodd" /><path
         transform="matrix(25.57618,0,0,0.993889,-4259.74,2.891281)"
         sodipodi:ry="32.699829"
         sodipodi:rx="1.2707138"
         sodipodi:cy="473.08383"
         sodipodi:cx="173.41077"
         d="M 174.68148,473.08383 A 1.2707138,32.699829 0 1 1 172.14005,473.08383 A 1.2707138,32.699829 0 1 1 174.68148,473.08383 z"
         id="path769"
         style="fill:url(#radialGradient2275);fill-opacity:1;fill-rule:evenodd;stroke:none;stroke-width:1pt;stroke-linecap:butt;stroke-linejoin:miter;stroke-opacity:1"
         sodipodi:type="arc" /><path
         id="path770"
         d="M 209.4456,472.967 C 209.4456,491.7682 194.2042,507.0095 175.403,507.0095 C 156.6018,507.0095 141.3605,491.7682 141.3605,472.967 C 141.3605,454.1658 156.6018,438.9244 175.403,438.9244 C 194.2042,438.9244 209.4456,454.1658 209.4456,472.967 z M 207.9452,473.0841 C 207.9452,491.0333 193.3949,505.5841 175.4455,505.5841 C 157.4962,505.5841 142.9459,491.0333 142.9459,473.0841 C 142.9459,455.1348 157.4962,440.5841 175.4455,440.5841 C 193.3949,440.5841 207.9452,455.1348 207.9452,473.0841 z"
         style="font-size:12px;fill:url(#radialGradient2277);fill-rule:evenodd" /></g><rect
       y="475.62552"
       x="235.84531"
       height="4.0663147"
       width="239.91156"
       id="rect772"
       style="font-size:12px;fill:#808080;fill-rule:evenodd;stroke-width:1" /></g></svg>