<?xml version="1.0" encoding="UTF-8" standalone="no"?>
<!-- Created with Sodipodi ("http://www.sodipodi.com/") -->
<svg
   xmlns:dc="http://purl.org/dc/elements/1.1/"
   xmlns:cc="http://creativecommons.org/ns#"
   xmlns:rdf="http://www.w3.org/1999/02/22-rdf-syntax-ns#"
   xmlns:svg="http://www.w3.org/2000/svg"
   xmlns="http://www.w3.org/2000/svg"
   xmlns:xlink="http://www.w3.org/1999/xlink"
   xmlns:sodipodi="http://sodipodi.sourceforge.net/DTD/sodipodi-0.dtd"
   xmlns:inkscape="http://www.inkscape.org/namespaces/inkscape"
   id="svg602"
   sodipodi:version="0.32"
   width="33.540565"
   height="138.66743"
   xml:space="preserve"
   sodipodi:docbase="/home/franck/Dessins/Vectoriels"
   sodipodi:docname="pencil.svg"
   inkscape:version="0.46"
   inkscape:output_extension="org.inkscape.output.svg.inkscape"
   version="1.0"><metadata
     id="metadata31"><rdf:RDF><cc:Work
         rdf:about=""><dc:format>image/svg+xml</dc:format><dc:type
           rdf:resource="http://purl.org/dc/dcmitype/StillImage" /></cc:Work></rdf:RDF></metadata><defs
     id="defs604"><inkscape:perspective
       sodipodi:type="inkscape:persp3d"
       inkscape:vp_x="0 : 526.18109 : 1"
       inkscape:vp_y="0 : 1000 : 0"
       inkscape:vp_z="744.09448 : 526.18109 : 1"
       inkscape:persp3d-origin="372.04724 : 350.78739 : 1"
       id="perspective33" /><linearGradient
       id="linearGradient636"><stop
         style="stop-color:#7f7f7f;stop-opacity:1;"
         offset="0"
         id="stop637" /><stop
         style="stop-color:#ffffff;stop-opacity:1;"
         offset="1"
         id="stop638" /></linearGradient><linearGradient
       id="linearGradient629"><stop
         style="stop-color:#bf8755;stop-opacity:1;"
         offset="0"
         id="stop630" /><stop
         style="stop-color:#ffeac7;stop-opacity:1;"
         offset="1"
         id="stop631" /></linearGradient><linearGradient
       id="linearGradient622"><stop
         style="stop-color:#baffbd;stop-opacity:1;"
         offset="0"
         id="stop623" /><stop
         style="stop-color:#007f00;stop-opacity:1;"
         offset="1"
         id="stop624" /></linearGradient><linearGradient
       id="linearGradient607"><stop
         style="stop-color:#000;stop-opacity:1;"
         offset="0"
         id="stop608" /><stop
         style="stop-color:#fff;stop-opacity:1;"
         offset="1"
         id="stop609" /></linearGradient><linearGradient
       xlink:href="#linearGradient622"
       id="linearGradient610"
       x1="809.62982"
       y1="149.24303"
       x2="1006.8723"
       y2="148.31845"
       gradientTransform="scale(0.2033122,4.9185446)"
       gradientUnits="userSpaceOnUse" /><linearGradient
       xlink:href="#linearGradient622"
       id="linearGradient611"
       x1="1450.7942"
       y1="102.02859"
       x2="1490.9377"
       y2="100.77411"
       gradientTransform="scale(0.1382264,7.2345096)"
       gradientUnits="userSpaceOnUse" /><linearGradient
       xlink:href="#linearGradient622"
       id="linearGradient613"
       x1="1175.7216"
       y1="99.299934"
       x2="1391.6927"
       y2="99.299934"
       gradientTransform="scale(0.1354094,7.3850113)"
       gradientUnits="userSpaceOnUse" /><linearGradient
       xlink:href="#linearGradient629"
       id="linearGradient628"
       x1="216.08617"
       y1="719.02222"
       x2="254.50533"
       y2="736.51617"
       gradientTransform="scale(0.803236,1.2449641)"
       gradientUnits="userSpaceOnUse" /><radialGradient
       xlink:href="#linearGradient636"
       id="radialGradient635"
       cx="105.80718"
       cy="458.13394"
       r="30.264204"
       fx="105.80718"
       fy="458.13394"
       gradientTransform="scale(1.6101954,0.6210426)"
       gradientUnits="userSpaceOnUse" /><linearGradient
       xlink:href="#linearGradient607"
       id="linearGradient641"
       x1="272.14709"
       y1="629.03864"
       x2="291.58942"
       y2="633.56952"
       gradientTransform="scale(0.683054,1.4640131)"
       gradientUnits="userSpaceOnUse" /></defs><sodipodi:namedview
     id="base"
     showgrid="false"
     inkscape:zoom="1.8776805"
     inkscape:cx="121.37797"
     inkscape:cy="41.745463"
     inkscape:window-width="641"
     inkscape:window-height="719"
     inkscape:window-x="636"
     inkscape:window-y="50"
     inkscape:current-layer="svg602" /><g
     id="g642"
     transform="matrix(0.2114007,4.2828944e-2,-4.2828944e-2,0.2114007,0.9995291,-68.503411)"><rect
       style="font-size:12px;fill:#ffffff;fill-opacity:1;fill-rule:evenodd;stroke-width:1"
       id="rect632"
       width="37.384079"
       height="571.97662"
       x="173.83604"
       y="299.07269" /><path
       style="font-size:12px;fill:url(#linearGradient628);fill-rule:evenodd"
       d="M 171.2218,868.3784 L 186.0524,921.999 C 191.0369,920.1298 191.669,920.1298 195.7189,921.999 L 212.8626,869.0392 C 213.2463,867.8538 209.4213,873.4692 207.5624,873.5894 C 206.378,873.8765 204.8736,857.1139 202.7554,857.1962 C 200.4773,857.2937 199.5233,873.853 192.0746,873.853 C 184.1239,874.2058 182.1411,857.8779 181.0694,857.8779 C 179.0588,857.5474 180.2999,873.1465 177.1688,873.1638 C 174.0965,873.41 170.2923,865.0175 171.2218,868.3784 z"
       id="path617"
       sodipodi:nodetypes="cccsssssss" /><path
       style="font-size:12px;fill:url(#linearGradient611);fill-rule:evenodd"
       d="M 205.4719,301.2891 L 203.3125,857.2974 C 203.3125,870.8644 206.0754,874.2583 208.0069,874.2595 C 209.9105,874.0978 212.1372,875.0196 214.1198,861.7831 L 214.4102,301.2122 C 214.4102,289.9815 205.4719,291.6941 205.4719,301.2891 z"
       id="path626"
       sodipodi:nodetypes="ccsccc" /><path
       style="font-size:12px;fill:url(#linearGradient613);fill-rule:evenodd"
       d="M 179.715,301.5225 L 180.4725,858.4654 C 180.4725,872.0325 179.1542,873.7637 177.2368,873.7637 C 175.3192,873.7637 172.1151,875.0194 170.1325,861.7829 L 169.8421,301.212 C 169.6085,292.0841 179.715,290.5256 179.715,301.5225 z"
       id="path627"
       sodipodi:nodetypes="ccsccc" /><path
       style="font-size:12px;fill:url(#linearGradient610);fill-rule:evenodd"
       d="M 180.6483,306.0118 L 181.0589,858.2318 C 184.7338,872.5717 188.0075,875.1273 191.5507,875.0303 C 195.1672,875.0303 198.8281,872.824 202.7835,858.0706 L 204.7094,306.2857 C 204.7094,288.6815 180.6483,288.4077 180.6483,306.0118 z"
       id="path619"
       sodipodi:nodetypes="cccccc" /><path
       transform="matrix(1.068182,0,0,1,-11.59763,-3.051758e-5)"
       style="font-size:12px;fill:url(#radialGradient635);fill-rule:evenodd;stroke-width:1"
       d="M 211.2201,297.2035 C 211.2201,303.3975 170.0976,303.3975 170.0976,297.2035 C 170.0976,291.0095 179.3032,285.9883 190.6589,285.9883 C 202.0145,285.9883 211.2201,291.0095 211.2201,297.2035 z"
       id="path634"
       sodipodi:nodetypes="cccc" /><path
       style="font-size:12px;fill:url(#linearGradient641);fill-rule:evenodd"
       d="M 186.0632,921.7529 L 188.3224,940.2098 C 188.4781,941.456 192.1387,941.7675 192.2945,940.4435 L 195.7218,921.7529 C 195.6932,920.1578 186.0536,920.2736 186.0632,921.7529 z"
       id="path640"
       sodipodi:nodetypes="ccccc" /></g></svg>