<?xml version="1.0" encoding="UTF-8" standalone="no"?>
<!-- Created with Sodipodi ("http://www.sodipodi.com/") -->
<svg
   xmlns:dc="http://purl.org/dc/elements/1.1/"
   xmlns:cc="http://creativecommons.org/ns#"
   xmlns:rdf="http://www.w3.org/1999/02/22-rdf-syntax-ns#"
   xmlns:svg="http://www.w3.org/2000/svg"
   xmlns="http://www.w3.org/2000/svg"
   xmlns:xlink="http://www.w3.org/1999/xlink"
   xmlns:sodipodi="http://sodipodi.sourceforge.net/DTD/sodipodi-0.dtd"
   xmlns:inkscape="http://www.inkscape.org/namespaces/inkscape"
   id="svg771"
   sodipodi:version="0.32"
   width="131.55486"
   height="88.185127"
   xml:space="preserve"
   sodipodi:docbase="/home/franck/Dessins/Vectoriels"
   sodipodi:docname="postcard.svg"
   inkscape:version="0.46"
   inkscape:output_extension="org.inkscape.output.svg.inkscape"
   version="1.0"><metadata
     id="metadata102"><rdf:RDF><cc:Work
         rdf:about=""><dc:format>image/svg+xml</dc:format><dc:type
           rdf:resource="http://purl.org/dc/dcmitype/StillImage" /></cc:Work></rdf:RDF></metadata><defs
     id="defs773"><inkscape:perspective
   sodipodi:type="inkscape:persp3d"
   inkscape:vp_x="0 : 526.18109 : 1"
   inkscape:vp_y="0 : 1000 : 0"
   inkscape:vp_z="744.09448 : 526.18109 : 1"
   inkscape:persp3d-origin="372.04724 : 350.78739 : 1"
   id="perspective104" /><linearGradient
   id="linearGradient783"><stop
     style="stop-color:#e3dfcf;stop-opacity:1;"
     offset="0"
     id="stop784" /><stop
     style="stop-color:#ffffff;stop-opacity:1;"
     offset="1"
     id="stop785" /></linearGradient><linearGradient
   xlink:href="#linearGradient783"
   id="linearGradient786" />





<linearGradient
   inkscape:collect="always"
   xlink:href="#linearGradient783"
   id="linearGradient2570"
   gradientUnits="userSpaceOnUse"
   gradientTransform="matrix(0.2642631,0,0,0.1771434,-15.179405,-46.983863)"
   x1="57.440498"
   y1="514.13953"
   x2="555.25824"
   y2="514.13953" /><inkscape:perspective
   id="perspective2874"
   inkscape:persp3d-origin="372.04724 : 350.78739 : 1"
   inkscape:vp_z="744.09448 : 526.18109 : 1"
   inkscape:vp_y="0 : 1000 : 0"
   inkscape:vp_x="0 : 526.18109 : 1"
   sodipodi:type="inkscape:persp3d" /></defs><sodipodi:namedview
     id="base"
     showgrid="false"
     inkscape:zoom="5.3108824"
     inkscape:cx="148.04206"
     inkscape:cy="75.060855"
     inkscape:window-width="982"
     inkscape:window-height="850"
     inkscape:window-x="290"
     inkscape:window-y="146"
     inkscape:current-layer="svg771" /><rect
     rx="6.6816716"
     style="font-size:12px;fill:url(#linearGradient2570);fill-rule:evenodd"
     id="rect774"
     width="131.55486"
     height="88.185127"
     x="3.1123275e-07"
     y="4.4230956e-07"
     ry="6.6816716" /><text
     style="font-size:3.28841758px;font-style:normal;font-weight:normal;line-height:100%;writing-mode:lr-tb;text-anchor:start;fill:#000000;fill-opacity:1;stroke:none;stroke-width:1pt;stroke-linecap:butt;stroke-linejoin:miter;stroke-opacity:1;font-family:Century Schoolbook L"
     x="-70.922852"
     y="78.518349"
     id="text776"
     sodipodi:linespacing="100%"
     xml:space="preserve"
     transform="matrix(0,-1.1789409,0.8482189,0,0,0)"><tspan
       x="-70.922852"
       y="78.518349"
       sodipodi:role="line"
       id="tspan779">Gcompris logicel éducatif sous licence GPL</tspan></text>
<rect
     rx="38.321331"
     style="font-size:12px;fill:none;fill-rule:evenodd;stroke:#000000;stroke-width:0.24164227"
     id="rect775"
     width="128.12141"
     height="84.570976"
     x="1.6263676"
     y="1.6263561"
     ry="38.321331" /><path
     style="fill:none;fill-opacity:1;fill-rule:evenodd;stroke:#000000;stroke-width:0.2163619pt;stroke-linecap:butt;stroke-linejoin:miter;stroke-opacity:1"
     d="M 77.319418,45.650619 L 123.00501,45.650619"
     id="path787" /><path
     style="fill:none;fill-opacity:1;fill-rule:evenodd;stroke:#000000;stroke-width:0.2163619pt;stroke-linecap:butt;stroke-linejoin:miter;stroke-opacity:1"
     d="M 77.427318,64.167044 L 123.11291,64.167044"
     id="path788" /><path
     style="fill:none;fill-opacity:1;fill-rule:evenodd;stroke:#000000;stroke-width:0.2163619pt;stroke-linecap:butt;stroke-linejoin:miter;stroke-opacity:1"
     d="M 77.373379,55.369379 L 123.05897,55.369379"
     id="path789" /><path
     style="font-size:12px;fill:none;fill-rule:evenodd;stroke:#000000;stroke-width:0.16286339"
     d="M 97.747941,75.239169 L 123.63395,75.239169"
     id="path790" /><image
     y="29.792385"
     x="86.928574"
     id="image2876"
     height="34.483517"
     width="36.587288"
     sodipodi:absref="/tmp/ocal-8PJIMU-kobo_Tux_s_family.png"
     xlink:href="/tmp/ocal-8PJIMU-kobo_Tux_s_family.png"
     transform="matrix(0.9614068,-0.275131,0.275131,0.9614068,0,0)" /><path
     sodipodi:type="arc"
     style="fill:none;fill-opacity:1;fill-rule:evenodd;stroke:#000000;stroke-width:1pt;stroke-linecap:butt;stroke-linejoin:miter;stroke-opacity:1"
     id="path791"
     d="M 627.33499,334.41888 A 65.021271,58.097717 0 1 1 497.29245,334.41888 A 65.021271,58.097717 0 1 1 627.33499,334.41888 z"
     sodipodi:cx="562.31372"
     sodipodi:cy="334.41888"
     sodipodi:rx="65.021271"
     sodipodi:ry="58.097717"
     transform="matrix(0.1934141,0,0,0.2164634,-2.2755596,-47.017726)" /><path
     sodipodi:type="arc"
     style="fill:none;fill-opacity:1;fill-rule:evenodd;stroke:#000000;stroke-width:2.33249998;stroke-linecap:round;stroke-linejoin:miter;stroke-dasharray:none;stroke-opacity:1"
     id="path792"
     d="M 627.33499,334.41888 A 65.021271,58.097717 0 1 1 497.29245,334.41888 A 65.021271,58.097717 0 1 1 627.33499,334.41888 z"
     sodipodi:cx="562.31372"
     sodipodi:cy="334.41888"
     sodipodi:rx="65.021271"
     sodipodi:ry="58.097717"
     transform="matrix(0.1644019,0,0,0.1839939,14.038366,-36.15932)" /><text
     style="font-size:4.32723808px;font-style:normal;font-weight:normal;writing-mode:lr-tb;text-anchor:start;fill:#000000;fill-opacity:1;stroke:none;stroke-width:1pt;stroke-linecap:butt;stroke-linejoin:miter;stroke-opacity:1;font-family:Century Schoolbook L"
     x="100.88264"
     y="21.13817"
     id="text793"><tspan
       id="tspan794">01-10</tspan></text>
<text
     style="font-size:4.32723808px;font-style:normal;font-weight:normal;writing-mode:lr-tb;text-anchor:start;fill:#000000;fill-opacity:1;stroke:none;stroke-width:1pt;stroke-linecap:butt;stroke-linejoin:miter;stroke-opacity:1;font-family:Century Schoolbook L"
     x="101.92472"
     y="32.861614"
     id="text796"><tspan
       id="tspan797">2004</tspan></text>
<text
     style="font-size:4.32723808px;font-style:normal;font-weight:normal;writing-mode:lr-tb;text-anchor:start;fill:#000000;fill-opacity:1;stroke:none;stroke-width:1pt;stroke-linecap:butt;stroke-linejoin:miter;stroke-opacity:1;font-family:Century Schoolbook L"
     x="98.537964"
     y="26.218325"
     id="text799"><tspan
       id="tspan800">Tuxpost</tspan></text>
<path
     style="fill:none;fill-opacity:1;fill-rule:evenodd;stroke:#000000;stroke-width:0.2163619pt;stroke-linecap:butt;stroke-linejoin:miter;stroke-opacity:1"
     d="M 81.534061,40.518774 C 78.262994,39.446312 77.240597,44.749645 81.367939,44.755595"
     id="path802" /><path
     style="fill:none;fill-opacity:1;fill-rule:evenodd;stroke:#000000;stroke-width:0.2163619pt;stroke-linecap:butt;stroke-linejoin:miter;stroke-opacity:1"
     d="M 80.797198,43.83465 C 80.899861,43.885993 81.442757,44.122628 81.481875,44.27882 C 81.382413,43.881817 81.436006,45.109671 81.541115,45.505202"
     id="path803" /><path
     style="fill:none;fill-opacity:1;fill-rule:evenodd;stroke:#000000;stroke-width:0.2163619pt;stroke-linecap:butt;stroke-linejoin:miter;stroke-opacity:1"
     d="M 85.21838,42.913576 C 84.604561,41.686025 82.798848,42.250622 82.655617,43.799427 C 82.529499,45.163221 83.707395,45.581556 85.011473,45.271596"
     id="path804" /><path
     style="fill:none;fill-opacity:1;fill-rule:evenodd;stroke:#000000;stroke-width:0.2163619pt;stroke-linecap:butt;stroke-linejoin:miter;stroke-opacity:1"
     d="M 87.613182,42.545133 C 84.191505,42.545133 87.430918,48.225261 88.610567,44.084332 C 88.996016,42.731291 85.939146,43.247985 88.621471,42.742088 C 90.79989,42.331238 90.934467,42.318191 90.928993,44.612666 C 90.928106,44.990001 90.823689,43.843024 90.929058,43.480704 C 91.379545,41.931618 92.227618,42.415554 92.219916,43.709139 C 92.201698,46.770292 92.09196,43.480964 93.423061,42.504501 C 95.478543,40.996653 93.995793,45.335272 94.989673,44.780758 C 94.995082,44.77775 94.99201,44.768576 94.993178,44.762475"
     id="path805" /><path
     style="fill:none;fill-opacity:1;fill-rule:evenodd;stroke:#000000;stroke-width:0.2163619pt;stroke-linecap:butt;stroke-linejoin:miter;stroke-opacity:1"
     d="M 96.639779,41.99248 C 96.203766,42.864462 95.737809,49.113989 96.189876,49.733606"
     id="path806" /><path
     style="fill:none;fill-opacity:1;fill-rule:evenodd;stroke:#000000;stroke-width:0.2163619pt;stroke-linecap:butt;stroke-linejoin:miter;stroke-opacity:1"
     d="M 95.350262,44.387304 C 95.642155,43.803516 97.017546,42.381759 97.602351,42.364623 C 98.081766,42.350581 98.551141,42.069505 98.479763,43.301535 C 98.432077,44.124727 98.041739,45.180443 99.335821,45.142774 C 100.28316,45.115188 99.834254,41.70976 99.751993,41.199016 C 99.683796,40.775704 100.42085,41.764413 100.82443,41.909203 C 102.077,42.358586 103.02393,41.002257 101.97336,42.741785 C 100.6278,44.969728 102.944,45.744607 103.42783,42.60684 C 103.49339,42.181667 103.9212,40.651815 103.42032,43.091447 C 103.1979,44.17475 103.50576,45.473722 104.97744,44.621623 C 105.80937,44.139915 106.29344,42.388639 106.42814,41.555948 C 106.44095,41.476847 106.27424,42.484617 106.76772,43.231195 C 107.68406,44.617513 107.80262,45.119645 105.91324,45.124016 C 105.75331,45.124405 105.52228,44.671711 105.46232,44.560242"
     id="path808" /><path
     style="fill:none;fill-opacity:1;fill-rule:evenodd;stroke:#000000;stroke-width:0.2163619pt;stroke-linecap:butt;stroke-linejoin:miter;stroke-opacity:1"
     d="M 78.402374,54.150742 C 78.402374,53.43876 78.77681,52.823232 78.773478,52.079185 C 78.77324,52.028384 81.604401,51.852763 79.766082,53.187802 C 78.537644,54.079927 80.88054,56.559824 80.974463,52.97051 C 80.996142,52.141541 80.516425,54.749784 81.624868,54.708718 C 82.821155,54.664386 82.639389,50.560173 82.639389,53.799522 C 82.639389,55.849248 86.75892,53.194574 85.204425,52.687941 C 84.386036,52.421232 82.832384,54.744764 85.445517,54.702682 C 85.64299,54.699501 85.716294,54.460378 85.786719,54.319613"
     id="path815" /><path
     style="fill:none;fill-opacity:1;fill-rule:evenodd;stroke:#000000;stroke-width:0.2163619pt;stroke-linecap:butt;stroke-linejoin:miter;stroke-opacity:1"
     d="M 91.11329,52.677015 C 89.685323,52.677015 89.444101,52.357578 89.452929,54.337896 C 89.457083,55.264833 91.590887,55.099381 91.487704,54.146026"
     id="path816" /><path
     style="fill:none;fill-opacity:1;fill-rule:evenodd;stroke:#000000;stroke-width:0.2163619pt;stroke-linecap:butt;stroke-linejoin:miter;stroke-opacity:1"
     d="M 92.771228,49.361139 C 92.210136,50.483235 90.671024,54.967833 93.12433,54.902384 C 95.460585,54.84005 95.070765,50.743367 93.405211,52.943811 C 92.652899,53.937734 94.520817,56.776337 95.57729,53.645364 C 95.889349,52.720504 96.122479,51.33053 96.087688,53.396202 C 96.086736,53.45291 96.686643,54.505641 96.460133,54.537273 C 96.151277,54.580416 95.008302,54.871401 95.166203,54.315091"
     id="path817" /><path
     style="fill:none;fill-opacity:1;fill-rule:evenodd;stroke:#000000;stroke-width:0.2163619pt;stroke-linecap:butt;stroke-linejoin:miter;stroke-opacity:1"
     d="M 99.403023,53.598111 C 102.55278,53.598111 99.141831,49.870888 98.502611,53.206171 C 98.208143,54.742514 99.718046,55.425871 100.84906,54.62676"
     id="path818" /><path
     style="fill:none;fill-opacity:1;fill-rule:evenodd;stroke:#000000;stroke-width:0.2163619pt;stroke-linecap:butt;stroke-linejoin:miter;stroke-opacity:1"
     d="M 102.53469,52.492804 C 100.45603,51.453467 100.93766,56.055203 103.56009,54.212535"
     id="path820" /><path
     style="fill:none;fill-opacity:1;fill-rule:evenodd;stroke:#000000;stroke-width:0.2163619pt;stroke-linecap:butt;stroke-linejoin:miter;stroke-opacity:1"
     d="M 104.92951,52.861226 C 102.15088,52.861226 104.58227,57.049949 105.60846,53.639652 C 105.88027,52.736298 103.87847,52.938164 106.30058,53.02235 C 108.77675,53.108419 112.16167,52.099459 110.45371,49.035147 C 109.56303,47.437141 107.70249,52.178798 107.62287,52.661069 C 107.30871,54.564167 108.10995,56.402096 110.10357,54.758741 C 111.9651,53.224259 109.87767,51.038095 109.90307,54.404081 C 109.90579,54.76627 111.06902,54.670941 111.4322,54.293109 C 112.19386,53.500791 112.32883,52.913758 112.47753,51.793415 C 112.5559,51.20279 112.36496,53.028495 112.70017,53.754735 C 113.3728,55.212019 112.76028,54.954678 111.5665,54.868891 C 111.55222,54.867874 111.53831,54.873846 111.52422,54.876312"
     id="path821" /><path
     style="fill:none;fill-opacity:1;fill-rule:evenodd;stroke:#000000;stroke-width:0.2163619pt;stroke-linecap:butt;stroke-linejoin:miter;stroke-opacity:1"
     d="M 99.218812,50.466424 C 99.747536,50.466424 100.50409,50.115442 100.88413,49.734731"
     id="path822" /><path
     style="fill:none;fill-opacity:1;fill-rule:evenodd;stroke:#000000;stroke-width:0.2163619pt;stroke-linecap:butt;stroke-linejoin:miter;stroke-opacity:1"
     d="M 78.586585,58.940367 C 78.365203,59.38313 77.140162,61.619945 77.294775,61.885897 C 77.513516,62.262193 78.620813,62.072163 78.98019,62.071838"
     id="path824" /><path
     style="fill:none;fill-opacity:1;fill-rule:evenodd;stroke:#000000;stroke-width:0.2163619pt;stroke-linecap:butt;stroke-linejoin:miter;stroke-opacity:1"
     d="M 79.139238,61.335169 C 79.139238,61.998297 78.292614,62.752058 78.409947,63.373342"
     id="path825" /><path
     style="fill:none;fill-opacity:1;fill-rule:evenodd;stroke:#000000;stroke-width:0.2163619pt;stroke-linecap:butt;stroke-linejoin:miter;stroke-opacity:1"
     d="M 80.060312,59.30881 C 80.586331,59.30881 82.320061,58.633112 82.640277,58.750164"
     id="path826" /><path
     style="fill:none;fill-opacity:1;fill-rule:evenodd;stroke:#000000;stroke-width:0.2163619pt;stroke-linecap:butt;stroke-linejoin:miter;stroke-opacity:1"
     d="M 80.060312,59.493021 C 80.060312,62.795612 81.963194,58.131866 82.624828,62.482818 C 82.92622,64.464909 80.26287,64.286735 79.491151,62.790809"
     id="path827" /><path
     style="fill:none;fill-opacity:1;fill-rule:evenodd;stroke:#000000;stroke-width:0.2163619pt;stroke-linecap:butt;stroke-linejoin:miter;stroke-opacity:1"
     d="M 83.37621,60.782538 C 84.001799,60.782538 84.220757,59.910837 84.656986,59.479347 C 85.752318,58.395936 85.027895,59.545121 84.768304,60.439799 C 84.478141,61.439888 84.126986,62.381755 84.112251,63.402832 C 84.112035,63.417652 84.112901,63.373212 84.11316,63.358391"
     id="path828" /><path
     style="fill:none;fill-opacity:1;fill-rule:evenodd;stroke:#000000;stroke-width:0.2163619pt;stroke-linecap:butt;stroke-linejoin:miter;stroke-opacity:1"
     d="M 86.507897,59.30881 C 85.844575,60.635412 83.703219,62.018548 86.421828,63.239305 C 88.085067,63.986165 89.280813,59.402776 87.058841,59.482397 C 86.975066,59.485405 86.814417,59.252881 86.507897,59.30881 z"
     id="path829" /><path
     style="fill:none;fill-opacity:1;fill-rule:evenodd;stroke:#000000;stroke-width:0.2163619pt;stroke-linecap:butt;stroke-linejoin:miter;stroke-opacity:1"
     d="M 91.11329,59.30881 C 89.629242,59.30881 88.115249,60.168481 88.794453,61.947733 C 89.03799,62.585719 90.457843,63.197331 91.041176,62.704069 C 91.491296,62.323467 92.059808,59.257532 91.11329,59.30881 z"
     id="path830" /><path
     style="fill:none;fill-opacity:1;fill-rule:evenodd;stroke:#000000;stroke-width:0.2163619pt;stroke-linecap:butt;stroke-linejoin:miter;stroke-opacity:1"
     d="M 95.902915,59.124578 C 93.487451,59.124578 93.045575,62.602531 95.342689,62.981813 C 97.667541,63.365661 98.070125,60.425605 96.035891,59.522511 C 95.885606,59.455785 95.877124,59.395615 95.902915,59.124578 z"
     id="path831" /><path
     style="fill:none;fill-opacity:1;fill-rule:evenodd;stroke:#000000;stroke-width:0.2163619pt;stroke-linecap:butt;stroke-linejoin:miter;stroke-opacity:1"
     d="M 97.560853,59.861442 C 97.560853,60.974126 97.560853,62.08681 97.560853,63.199495"
     id="path832" /><path
     style="fill:none;fill-opacity:1;fill-rule:evenodd;stroke:#000000;stroke-width:0.2163619pt;stroke-linecap:butt;stroke-linejoin:miter;stroke-opacity:1"
     d="M 97.192432,59.677231 C 99.519837,57.349826 100.2025,61.454687 98.079559,61.33597 C 97.741407,61.317081 98.680244,61.674879 98.905434,61.927849 C 98.5908,61.574379 99.409254,62.729167 99.671853,63.122838"
     id="path833" /><path
     style="fill:none;fill-opacity:1;fill-rule:evenodd;stroke:#000000;stroke-width:0.2163619pt;stroke-linecap:butt;stroke-linejoin:miter;stroke-opacity:1"
     d="M 100.87675,59.30881 C 100.87675,60.444126 100.69232,61.626825 100.69245,62.785356 C 100.69252,63.16849 101.45861,62.799377 101.84168,62.806993"
     id="path834" /><path
     style="fill:none;fill-opacity:1;fill-rule:evenodd;stroke:#000000;stroke-width:0.2163619pt;stroke-linecap:butt;stroke-linejoin:miter;stroke-opacity:1"
     d="M 102.7189,59.493021 C 102.7189,60.070555 102.3349,62.45733 102.53469,62.796715 C 102.60622,62.918268 104.04526,62.808962 104.5975,62.808918"
     id="path835" /><path
     style="fill:none;fill-opacity:1;fill-rule:evenodd;stroke:#000000;stroke-width:0.2163619pt;stroke-linecap:butt;stroke-linejoin:miter;stroke-opacity:1"
     d="M 102.7189,59.677231 C 103.38566,59.677231 103.9217,59.648022 104.56124,59.490857"
     id="path836" /><path
     style="fill:none;fill-opacity:1;fill-rule:evenodd;stroke:#000000;stroke-width:0.2163619pt;stroke-linecap:butt;stroke-linejoin:miter;stroke-opacity:1"
     d="M 102.7189,61.150959 C 103.29682,61.150959 103.86787,61.298323 104.44557,61.346463"
     id="path837" /><path
     style="fill:none;fill-opacity:1;fill-rule:evenodd;stroke:#000000;stroke-width:0.2163619pt;stroke-linecap:butt;stroke-linejoin:miter;stroke-opacity:1"
     d="M 105.29793,63.177339 C 105.29793,62.000828 104.66259,57.429274 106.97102,59.877323 C 107.57244,60.515114 107.32399,62.221431 107.32429,63.033329"
     id="path838" /><path
     style="fill:none;fill-opacity:1;fill-rule:evenodd;stroke:#000000;stroke-width:0.2163619pt;stroke-linecap:butt;stroke-linejoin:miter;stroke-opacity:1"
     d="M 105.66635,61.51938 C 106.16723,61.51938 106.66809,61.51938 107.16897,61.51938"
     id="path839" /><path
     style="fill:none;fill-opacity:1;fill-rule:evenodd;stroke:#000000;stroke-width:0.2163619pt;stroke-linecap:butt;stroke-linejoin:miter;stroke-opacity:1"
     d="M 108.24539,59.30881 C 108.24539,60.677645 107.87863,61.984255 107.87694,63.372736"
     id="path840" /><path
     style="fill:none;fill-opacity:1;fill-rule:evenodd;stroke:#000000;stroke-width:0.2163619pt;stroke-linecap:butt;stroke-linejoin:miter;stroke-opacity:1"
     d="M 108.4296,59.861442 C 108.99595,60.993902 110.09902,62.000504 110.47489,63.210183 C 110.79941,64.254648 110.64281,61.861578 110.64142,61.25663 C 110.63943,60.393021 110.92947,59.50055 111.21253,58.69947"
     id="path841" /><path
     style="fill:none;fill-opacity:1;fill-rule:evenodd;stroke:#000000;stroke-width:0.2163619pt;stroke-linecap:butt;stroke-linejoin:miter;stroke-opacity:1"
     d="M 113.95609,59.493021 C 112.94105,57.462919 110.46167,61.422147 113.65539,61.340362 C 114.2631,61.324805 114.31869,62.105244 114.13995,62.548224 C 113.97636,62.953686 112.37388,63.150878 111.94907,62.992826 C 112.21502,63.09179 111.14641,62.190772 111.33848,62.399648"
     id="path842" /><path
     style="fill:none;fill-opacity:1;fill-rule:evenodd;stroke:#000000;stroke-width:0.2163619pt;stroke-linecap:butt;stroke-linejoin:miter;stroke-opacity:1"
     d="M 9.32133,37.387087 C 10.015354,35.999018 8.5345083,35.917081 10.892507,35.913317 C 10.967671,35.913208 11.025007,35.643492 10.994738,35.712295 C 10.109125,37.724244 12.923193,43.70624 10.176976,44.240156 C 9.6876956,44.33529 9.9238546,42.954252 10.131216,42.763832 C 10.502039,42.423322 14.54515,40.452719 12.837492,39.766116 C 12.100693,39.469874 11.392757,42.438943 13.967853,41.606209"
     id="path844" /><path
     style="fill:none;fill-opacity:1;fill-rule:evenodd;stroke:#000000;stroke-width:0.2163619pt;stroke-linecap:butt;stroke-linejoin:miter;stroke-opacity:1"
     d="M 17.611063,39.781889 C 18.745881,37.512361 18.532181,41.414469 18.532159,41.861149 C 18.532159,41.87108 18.532137,41.841243 18.532137,41.831312 C 18.532008,41.193304 18.866546,39.167594 19.749974,39.214761 C 20.416109,39.250309 19.673684,43.306533 20.203901,40.636778 C 20.289602,40.205353 20.496336,38.686946 21.184085,39.235878 C 21.478186,39.470609 21.211585,41.023893 21.472474,41.46235 C 21.676741,41.80563 22.51086,41.420657 22.401748,41.439632"
     id="path845" /><path
     style="fill:none;fill-opacity:1;fill-rule:evenodd;stroke:#000000;stroke-width:0.2163619pt;stroke-linecap:butt;stroke-linejoin:miter;stroke-opacity:1"
     d="M 24.9797,36.281781 C 24.9797,36.764181 24.774438,37.24814 24.518049,37.659314"
     id="path846" /><path
     style="fill:none;fill-opacity:1;fill-rule:evenodd;stroke:#000000;stroke-width:0.2163619pt;stroke-linecap:butt;stroke-linejoin:miter;stroke-opacity:1"
     d="M 25.716564,38.860815 C 22.902713,40.26773 26.300265,43.066155 26.439472,40.403821 C 26.585863,37.604098 26.14654,39.783144 26.81023,40.884902 C 27.131355,41.417974 27.745281,39.402022 28.156412,38.887903 C 29.289586,37.470928 28.851367,39.73615 28.848467,40.507329 C 28.845525,41.289455 28.689139,39.685089 28.848273,39.566912 C 29.473602,39.102578 29.781377,37.702889 29.771446,39.305006 C 29.760217,41.117058 29.511963,40.800759 29.933501,39.407107 C 30.762535,36.666213 30.874329,39.915709 30.874415,40.746625 C 30.874653,42.507876 31.944498,40.156974 31.952936,40.087284 C 32.020744,39.525825 32.949088,36.747132 32.530817,39.152687 C 32.364132,40.111365 32.312075,40.865754 33.513836,40.321972 C 33.205953,40.461287 33.638893,38.981047 33.557714,39.309095 C 33.522079,39.453084 33.588654,39.013826 33.613773,38.867652 C 33.745192,38.102445 33.832277,37.053154 33.821784,39.116857 C 33.815531,40.342223 34.978173,41.013421 35.520852,39.749651 C 35.838818,39.009239 36.655865,36.19714 36.417369,38.605897 C 36.313148,39.658455 38.51357,41.379916 35.806147,40.503586 C 35.568495,40.426669 35.124737,39.772867 35.297069,39.95368"
     id="path847" /><path
     style="fill:none;fill-opacity:1;fill-rule:evenodd;stroke:#000000;stroke-width:0.2163619pt;stroke-linecap:butt;stroke-linejoin:miter;stroke-opacity:1"
     d="M 36.953752,39.781889 C 37.912343,39.302647 40.055192,37.967435 38.206963,37.186844 C 38.043026,37.117587 36.969525,38.827538 37.781466,40.053856 C 38.093611,40.525309 38.825391,40.536754 39.192167,40.129799"
     id="path848" /><path
     style="fill:none;fill-opacity:1;fill-rule:evenodd;stroke:#000000;stroke-width:0.2163619pt;stroke-linecap:butt;stroke-linejoin:miter;stroke-opacity:1"
     d="M 43.032894,34.992264 C 43.032894,36.652907 43.034928,38.317119 43.032829,39.988125 C 43.032288,40.415051 43.016732,38.384256 43.911237,38.324086 C 45.349265,38.227329 46.050688,40.167619 44.135604,40.15163 C 43.756906,40.148471 43.378143,40.150137 42.999423,40.150332"
     id="path849" /><path
     style="fill:none;fill-opacity:1;fill-rule:evenodd;stroke:#000000;stroke-width:0.2163619pt;stroke-linecap:butt;stroke-linejoin:miter;stroke-opacity:1"
     d="M 45.243485,38.860815 C 46.580558,38.860815 45.726513,35.962366 45.795143,38.794716 C 45.828787,40.183543 49.046998,40.036352 48.032715,37.582051 C 48.017418,37.545075 47.138642,37.403488 47.080333,38.702481 C 47.025875,39.91506 48.258596,39.864236 48.380084,38.75999 C 48.417384,38.420951 49.047127,37.519349 49.309769,37.333927 C 49.770447,37.008714 49.195032,41.51683 49.662179,38.525346 C 49.901065,36.995732 51.173878,36.170398 51.305383,38.53439 C 51.381478,39.902013 51.535895,39.59783 52.843089,39.597462"
     id="path850" /><path
     style="fill:none;fill-opacity:1;fill-rule:evenodd;stroke:#000000;stroke-width:0.2163619pt;stroke-linecap:butt;stroke-linejoin:miter;stroke-opacity:1"
     d="M 47.269866,35.544917 L 46.717213,35.360707"
     id="path851" /><path
     style="fill:none;fill-opacity:1;fill-rule:evenodd;stroke:#000000;stroke-width:0.2163619pt;stroke-linecap:butt;stroke-linejoin:miter;stroke-opacity:1"
     d="M 53.533197,39.229236 C 53.269149,39.757354 53.187623,40.478207 52.80066,40.90762"
     id="path852" /><path
     style="fill:none;fill-opacity:1;fill-rule:evenodd;stroke:#000000;stroke-width:0.2163619pt;stroke-linecap:butt;stroke-linejoin:miter;stroke-opacity:1"
     d="M 9.5055622,48.808486 C 13.279887,48.808486 10.080868,44.324905 9.8859048,48.170326 C 9.8037521,49.790617 12.377572,50.216894 13.385494,48.046113 C 13.923413,46.887538 13.694091,45.547523 14.092867,44.366078 C 15.035491,41.573387 13.680308,46.056687 13.677496,46.068868 C 13.355549,47.461352 13.23298,50.348939 15.446665,48.966646"
     id="path853" /><path
     style="fill:none;fill-opacity:1;fill-rule:evenodd;stroke:#000000;stroke-width:0.2163619pt;stroke-linecap:butt;stroke-linejoin:miter;stroke-opacity:1"
     d="M 13.374091,46.413684 C 14.015107,46.413684 14.6561,46.413684 15.297116,46.413684"
     id="path854" /><path
     style="fill:none;fill-opacity:1;fill-rule:evenodd;stroke:#000000;stroke-width:0.2163619pt;stroke-linecap:butt;stroke-linejoin:miter;stroke-opacity:1"
     d="M 20.926961,47.150526 C 20.926961,48.561552 22.638708,52.017349 20.338824,52.123215 C 19.850798,52.145695 20.518881,50.334962 20.547722,50.266354 C 20.654691,50.011999 21.023718,49.902044 21.216583,49.733758"
     id="path855" /><path
     style="fill:none;fill-opacity:1;fill-rule:evenodd;stroke:#000000;stroke-width:0.2163619pt;stroke-linecap:butt;stroke-linejoin:miter;stroke-opacity:1"
     d="M 20.926961,45.492588 L 21.663824,45.492588"
     id="path856" /><path
     style="fill:none;fill-opacity:1;fill-rule:evenodd;stroke:#000000;stroke-width:0.2163619pt;stroke-linecap:butt;stroke-linejoin:miter;stroke-opacity:1"
     d="M 22.953341,44.571514 C 22.953341,45.239445 22.428815,45.711135 22.364924,46.258423"
     id="path857" /><path
     style="fill:none;fill-opacity:1;fill-rule:evenodd;stroke:#000000;stroke-width:0.2163619pt;stroke-linecap:butt;stroke-linejoin:miter;stroke-opacity:1"
     d="M 24.9797,46.045242 C 23.599009,46.045242 22.721077,48.2956 24.327715,48.257542 C 26.45399,48.207173 25.448383,44.714032 25.534171,47.997886 C 25.542609,48.321109 26.571713,48.297569 26.733898,47.976185 C 27.09652,47.257582 27.262643,46.268743 27.734463,45.654146"
     id="path858" /><path
     style="fill:none;fill-opacity:1;fill-rule:evenodd;stroke:#000000;stroke-width:0.2163619pt;stroke-linecap:butt;stroke-linejoin:miter;stroke-opacity:1"
     d="M 27.558734,45.492588 C 27.558734,47.827826 27.558734,50.163041 27.558734,52.498257 C 27.558734,52.534021 27.395359,52.665613 27.357669,52.6956"
     id="path859" /><path
     style="fill:none;fill-opacity:1;fill-rule:evenodd;stroke:#000000;stroke-width:0.2163619pt;stroke-linecap:butt;stroke-linejoin:miter;stroke-opacity:1"
     d="M 27.374524,46.597895 C 28.001757,45.343428 28.659843,45.628961 28.663781,46.892709 C 28.666832,47.87575 29.649569,47.854871 30.023983,47.156779 C 30.161135,46.901039 30.336972,46.930465 30.327496,46.588808"
     id="path861" /><path
     style="fill:none;fill-opacity:1;fill-rule:evenodd;stroke:#000000;stroke-width:0.2163619pt;stroke-linecap:butt;stroke-linejoin:miter;stroke-opacity:1"
     d="M 30.321979,45.124146 C 30.321979,47.401787 30.321979,49.679407 30.321979,51.957049"
     id="path862" /><path
     style="fill:none;fill-opacity:1;fill-rule:evenodd;stroke:#000000;stroke-width:0.2163619pt;stroke-linecap:butt;stroke-linejoin:miter;stroke-opacity:1"
     d="M 30.137768,46.966316 C 30.321091,46.599647 31.092963,44.648171 31.726989,45.227999 C 32.504508,45.939051 31.100362,47.374829 32.463356,47.337203 C 33.780459,47.300833 33.14879,45.021028 33.063046,44.339985 C 33.039051,44.149435 33.645406,44.713015 34.254334,44.741077 C 37.116997,44.872949 31.892074,46.417146 35.094143,47.590347 C 37.786118,48.576632 38.457857,43.704314 36.92344,45.096235 C 35.314291,46.555964 37.635422,49.276477 38.172346,46.367231 C 38.306468,45.640515 38.750573,44.152789 39.113109,45.564226 C 39.390268,46.643179 39.086518,47.852383 39.74521,46.159675 C 39.888701,45.790886 39.877256,44.372331 40.777559,44.676839 C 41.805906,45.024662 40.26093,47.254423 41.569617,47.502569 C 42.29391,47.639915 42.416912,47.20942 42.855521,46.767977"
     id="path863" /><path
     style="fill:none;fill-opacity:1;fill-rule:evenodd;stroke:#000000;stroke-width:0.2163619pt;stroke-linecap:butt;stroke-linejoin:miter;stroke-opacity:1"
     d="M 45.059275,44.939935 C 42.078262,44.939935 42.957968,48.531521 44.600955,47.46252 C 45.128705,47.119154 45.054017,46.204008 45.059275,44.939935 z"
     id="path864" /><path
     style="fill:none;fill-opacity:1;fill-rule:evenodd;stroke:#000000;stroke-width:0.2163619pt;stroke-linecap:butt;stroke-linejoin:miter;stroke-opacity:1"
     d="M 45.059275,42.729344 C 44.875778,43.096315 44.963751,46.811011 45.348767,47.060585 C 47.065447,48.173312 47.067741,44.753561 47.087559,43.948067 C 47.094721,43.65706 47.204525,44.518419 47.256776,44.804774 C 47.309698,45.094742 48.42552,46.545622 48.00753,46.81536 C 48.349166,46.594887 48.129385,46.630327 46.866913,47.153599"
     id="path865" /><path
     style="fill:none;fill-opacity:1;fill-rule:evenodd;stroke:#000000;stroke-width:0.2163619pt;stroke-linecap:butt;stroke-linejoin:miter;stroke-opacity:1"
     d="M 50.769952,46.597895 C 52.581767,45.691987 52.38808,42.233053 52.250235,44.972952 C 52.167001,46.627428 51.509888,48.351573 51.88638,49.981146"
     id="path866" /><path
     style="fill:none;fill-opacity:1;fill-rule:evenodd;stroke:#000000;stroke-width:0.2163619pt;stroke-linecap:butt;stroke-linejoin:miter;stroke-opacity:1"
     d="M 52.427912,45.492588 C 52.427912,43.085281 53.53694,44.032102 53.533716,45.840498 C 53.530319,47.741973 55.94323,44.238555 56.140747,43.684668 C 56.418015,42.907193 56.770663,39.109393 55.242456,41.126297 C 54.40256,42.234784 54.783812,47.740545 56.819344,46.107748 C 58.86483,44.466968 56.643399,42.248847 56.6614,45.510417 C 56.667999,46.707157 58.702169,46.131613 58.692865,44.028554 C 58.689815,43.343963 58.080042,46.04998 59.160315,45.875657 C 60.087231,45.726086 60.564547,42.628844 61.000993,43.847308 C 61.245698,44.530513 61.552888,47.164071 61.456781,44.807587 C 61.402495,43.477026 62.751295,42.165743 62.744588,45.216532 C 62.741775,46.485819 65.382992,46.321774 66.126346,46.387115"
     id="path867" /><path
     style="fill:none;fill-opacity:1;fill-rule:evenodd;stroke:#000000;stroke-width:0.2163619pt;stroke-linecap:butt;stroke-linejoin:miter;stroke-opacity:1"
     d="M 59.612339,41.071406 L 59.243896,41.624038"
     id="path868" /><path
     style="fill:none;fill-opacity:1;fill-rule:evenodd;stroke:#000000;stroke-width:0.2163619pt;stroke-linecap:butt;stroke-linejoin:miter;stroke-opacity:1"
     d="M 9.8739832,54.703396 C 8.6113384,54.072052 7.3804772,57.318475 9.6521257,57.286129 C 10.442864,57.274857 10.119165,56.89168 10.610111,56.521268"
     id="path869" /><path
     style="fill:none;fill-opacity:1;fill-rule:evenodd;stroke:#000000;stroke-width:0.2163619pt;stroke-linecap:butt;stroke-linejoin:miter;stroke-opacity:1"
     d="M 11.1635,52.308594 C 10.741832,53.151864 9.4765264,57.68536 11.850817,56.803253 C 14.024994,55.995487 12.37253,51.659876 11.786536,55.346856 C 11.583826,56.622374 12.947426,57.508874 13.910474,56.746674"
     id="path870" /><path
     style="fill:none;fill-opacity:1;fill-rule:evenodd;stroke:#000000;stroke-width:0.2163619pt;stroke-linecap:butt;stroke-linejoin:miter;stroke-opacity:1"
     d="M 18.163716,54.519185 C 17.261314,52.714402 14.895656,57.340458 18.538953,57.002565 C 19.811291,56.884583 24.017885,53.661267 21.679186,52.679135 C 20.146803,52.035589 20.539197,56.655002 20.561093,57.157199 C 20.571738,57.400758 20.701706,55.875644 21.454062,55.360595 C 22.432623,54.690674 21.010628,59.335466 23.642757,56.432127 C 23.748969,56.314989 23.902434,55.974046 24.019508,55.833043"
     id="path871" /><path
     style="fill:none;fill-opacity:1;fill-rule:evenodd;stroke:#000000;stroke-width:0.2163619pt;stroke-linecap:butt;stroke-linejoin:miter;stroke-opacity:1"
     d="M 25.348143,54.519185 C 22.366568,54.519185 24.671709,59.270687 25.58136,55.823761 C 26.08756,53.905604 25.376616,55.378878 27.329823,54.763133 C 29.533058,54.068547 27.796646,52.696314 28.444563,55.864826 C 28.783256,57.521163 26.528419,57.259474 26.636859,55.072985"
     id="path872" /><path
     style="fill:none;fill-opacity:1;fill-rule:evenodd;stroke:#000000;stroke-width:0.2163619pt;stroke-linecap:butt;stroke-linejoin:miter;stroke-opacity:1"
     d="M 28.295598,55.62447 C 29.738991,55.62447 31.450068,53.224411 29.774367,53.381078 C 29.123875,53.441876 28.631218,58.110771 31.523306,56.020109 C 31.555414,55.996894 31.593321,55.982982 31.628307,55.964418"
     id="path873" /><path
     style="fill:none;fill-opacity:1;fill-rule:evenodd;stroke:#000000;stroke-width:0.2163619pt;stroke-linecap:butt;stroke-linejoin:miter;stroke-opacity:1"
     d="M 31.611495,53.045458 C 31.611495,53.748591 33.34979,56.391192 32.016568,56.368322 C 31.297576,56.356011 30.832203,56.292855 30.864528,55.415183"
     id="path874" /><path
     style="fill:none;fill-opacity:1;fill-rule:evenodd;stroke:#000000;stroke-width:0.2163619pt;stroke-linecap:butt;stroke-linejoin:miter;stroke-opacity:1"
     d="M 31.058842,55.808702 C 31.874116,55.808702 31.51277,54.443956 32.1963,54.285471"
     id="path875" /><path
     style="fill:none;fill-opacity:1;fill-rule:evenodd;stroke:#000000;stroke-width:0.2163619pt;stroke-linecap:butt;stroke-linejoin:miter;stroke-opacity:1"
     d="M 14.295166,65.940584 C 13.199769,65.940584 12.275254,66.528439 12.52459,67.842773 C 12.719315,68.86915 14.554519,68.679228 14.773087,67.100327 C 14.946631,65.846791 13.953617,66.264975 15.476566,67.839462 C 16.283942,68.674143 17.47932,71.309518 15.343114,70.78722 C 13.772652,70.403264 16.771752,66.478373 16.848907,65.525493 C 16.898692,64.910636 17.53895,64.154971 17.597497,65.203633 C 17.62372,65.673333 16.968252,69.214312 18.58467,67.024968 C 19.601052,65.648344 19.522209,63.819912 19.456825,66.709339 C 19.428698,67.952641 20.520482,67.256389 20.777282,66.615741 C 21.672739,64.381826 19.453385,64.701825 19.699237,65.107439 C 20.317642,66.127737 23.526527,63.607943 23.777572,63.404195 C 24.137793,63.111847 23.609567,64.658034 23.539898,65.116288 C 23.460256,65.640295 23.659828,66.794867 22.734599,66.495747 C 21.864457,66.214433 22.028567,65.343122 22.032375,64.628305"
     id="path876" /><path
     style="fill:none;fill-opacity:1;fill-rule:evenodd;stroke:#000000;stroke-width:0.2163619pt;stroke-linecap:butt;stroke-linejoin:miter;stroke-opacity:1"
     d="M 27.006081,61.150959 C 27.006081,62.601406 26.952618,63.877919 26.614769,65.300975 C 26.546983,65.586507 26.937667,63.854833 27.537314,63.737479 C 28.177637,63.612162 28.859978,64.981278 28.667697,65.550959 C 28.543678,65.918407 26.403621,66.342 26.282394,65.10164 C 26.264955,64.923142 26.265171,64.8927 26.261428,64.760048"
     id="path877" /><path
     style="fill:none;fill-opacity:1;fill-rule:evenodd;stroke:#000000;stroke-width:0.2163619pt;stroke-linecap:butt;stroke-linejoin:miter;stroke-opacity:1"
     d="M 29.400904,63.729992 C 29.400904,64.876083 28.908097,65.684043 30.539379,65.320101 C 31.64144,65.074227 31.909859,61.527039 31.819311,63.414061 C 31.784022,64.149259 33.715096,64.985519 32.3608,65.346108 C 31.554787,65.560717 31.204108,65.418892 31.241625,64.459695"
     id="path878" /><path
     style="fill:none;fill-opacity:1;fill-rule:evenodd;stroke:#000000;stroke-width:0.2163619pt;stroke-linecap:butt;stroke-linejoin:miter;stroke-opacity:1"
     d="M 33.822087,62.993129 C 32.201363,62.993129 33.490296,66.353597 34.580889,65.372525 C 36.160504,63.951547 32.696615,62.659715 34.536665,63.866928 C 35.980448,64.814182 36.223617,61.086937 36.231103,63.679191 C 36.24045,66.915143 38.095537,62.884082 38.283058,62.548592 C 38.481072,62.194364 37.996746,63.573931 38.054428,63.773849 C 38.845426,66.515436 40.778316,62.415226 41.244533,61.816985 C 41.438437,61.568169 41.218029,62.447702 41.222962,62.763136 C 41.233066,63.409366 42.077873,64.654096 40.691837,64.469626 C 40.417922,64.433169 40.160473,63.894449 40.052141,63.705847"
     id="path879" /><path
     style="fill:none;fill-opacity:1;fill-rule:evenodd;stroke:#000000;stroke-width:0.2163619pt;stroke-linecap:butt;stroke-linejoin:miter;stroke-opacity:1"
     d="M 28.479808,76.256676 C 28.479808,79.041383 31.403312,75.638487 31.76905,74.844179 C 32.485295,73.288623 32.656221,71.355754 33.050021,69.715125 C 33.102878,69.494955 32.891579,70.14389 32.86501,70.368754 C 32.745491,71.380073 30.717358,77.466052 33.159435,77.236817 C 34.378093,77.122448 33.667107,71.878658 33.842035,70.902389 C 34.288844,68.408602 34.759561,70.120458 34.64437,71.368368 C 34.463838,73.324453 33.254158,76.421414 35.852795,77.359948 C 36.709458,77.669346 37.98437,75.556182 36.216759,74.263182 C 35.733752,73.909863 35.956086,73.976589 35.595367,73.913693"
     id="path880" /><path
     style="fill:none;fill-opacity:1;fill-rule:evenodd;stroke:#000000;stroke-width:0.2163619pt;stroke-linecap:butt;stroke-linejoin:miter;stroke-opacity:1"
     d="M 39.348575,73.861874 C 35.949941,73.861874 39.596115,79.439792 39.872409,74.507541 C 39.951987,73.086844 39.383691,75.149574 40.167678,76.112903 C 41.231248,77.419837 43.687886,75.369614 42.653092,74.181138 C 42.208642,73.670697 42.59593,75.741129 43.131988,76.154337 C 44.03796,76.852666 44.848387,74.511631 44.892113,73.973452 C 44.937809,73.410695 44.515622,75.770424 45.550719,75.8997 C 45.91068,75.944682 46.957309,76.033498 47.119256,75.712071"
     id="path881" /><path
     style="fill:none;fill-opacity:1;fill-rule:evenodd;stroke:#000000;stroke-width:0.2163619pt;stroke-linecap:butt;stroke-linejoin:miter;stroke-opacity:1"
     d="M 49.296225,73.493453 C 48.226488,71.353872 45.127018,77.044428 48.846711,76.177963 C 49.413818,76.045853 49.599326,75.324091 49.662828,74.853569"
     id="path882" /><path
     style="fill:none;fill-opacity:1;fill-rule:evenodd;stroke:#000000;stroke-width:0.2163619pt;stroke-linecap:butt;stroke-linejoin:miter;stroke-opacity:1"
     d="M 49.664668,70.914419 C 48.984036,72.27566 49.157645,74.170211 50.043647,75.377987 C 50.731094,76.315093 52.207612,75.238368 53.220056,75.342006"
     id="path883" /><text
     style="font-size:3.37690663px;font-style:normal;font-weight:normal;writing-mode:lr-tb;text-anchor:start;fill:#000000;fill-opacity:1;stroke:none;stroke-width:1pt;stroke-linecap:butt;stroke-linejoin:miter;stroke-opacity:1;font-family:Century Schoolbook L"
     x="6.5281048"
     y="7.6254849"
     id="text884"
     transform="scale(1.008825,0.9912522)"><tspan
       id="tspan885">Biplans 1921 (dessin original</tspan></text>
<text
     style="font-size:3.33496928px;font-style:normal;font-weight:normal;writing-mode:lr-tb;text-anchor:start;fill:#000000;fill-opacity:1;stroke:none;stroke-width:1pt;stroke-linecap:butt;stroke-linejoin:miter;stroke-opacity:1;font-family:Century Schoolbook L"
     x="6.2104397"
     y="11.74886"
     id="text887"
     transform="scale(1.0586754,0.9445766)"><tspan
       id="tspan888">réalisé avec Sodipodi)</tspan></text>
</svg>