<?xml version="1.0" encoding="UTF-8" standalone="no"?>
<!-- Created with Sodipodi ("http://www.sodipodi.com/") -->
<svg
   xmlns:dc="http://purl.org/dc/elements/1.1/"
   xmlns:cc="http://creativecommons.org/ns#"
   xmlns:rdf="http://www.w3.org/1999/02/22-rdf-syntax-ns#"
   xmlns:svg="http://www.w3.org/2000/svg"
   xmlns="http://www.w3.org/2000/svg"
   xmlns:xlink="http://www.w3.org/1999/xlink"
   xmlns:sodipodi="http://sodipodi.sourceforge.net/DTD/sodipodi-0.dtd"
   xmlns:inkscape="http://www.inkscape.org/namespaces/inkscape"
   id="svg890"
   sodipodi:version="0.32"
   width="98.638496"
   height="113.47798"
   xml:space="preserve"
   sodipodi:docbase="/home/franck/Dessins/Vectoriels"
   sodipodi:docname="postpoint.svg"
   inkscape:version="0.46"
   inkscape:output_extension="org.inkscape.output.svg.inkscape"
   version="1.0"><metadata
     id="metadata48"><rdf:RDF><cc:Work
         rdf:about=""><dc:format>image/svg+xml</dc:format><dc:type
           rdf:resource="http://purl.org/dc/dcmitype/StillImage" /></cc:Work></rdf:RDF></metadata><defs
     id="defs892"><inkscape:perspective
       sodipodi:type="inkscape:persp3d"
       inkscape:vp_x="0 : 526.18109 : 1"
       inkscape:vp_y="0 : 1000 : 0"
       inkscape:vp_z="744.09448 : 526.18109 : 1"
       inkscape:persp3d-origin="372.04724 : 350.78739 : 1"
       id="perspective50" /><linearGradient
       id="linearGradient922"><stop
         style="stop-color:#ffa700;stop-opacity:1;"
         offset="0"
         id="stop923" /><stop
         style="stop-color:#ffff8d;stop-opacity:1;"
         offset="1"
         id="stop924" /></linearGradient><linearGradient
       id="linearGradient916"><stop
         style="stop-color:#000;stop-opacity:1;"
         offset="0"
         id="stop917" /><stop
         style="stop-color:#fff;stop-opacity:1;"
         offset="1"
         id="stop918" /></linearGradient><linearGradient
       xlink:href="#linearGradient916"
       id="linearGradient919"
       x1="164.81593"
       y1="702.51752"
       x2="166.93491"
       y2="781.49451"
       spreadMethod="reflect"
       gradientTransform="scale(1.7619132,0.5675648)"
       gradientUnits="userSpaceOnUse" /><linearGradient
       xlink:href="#linearGradient916"
       id="linearGradient920"
       x1="276.23236"
       y1="710.00946"
       x2="274.83224"
       y2="777.05603"
       spreadMethod="reflect"
       gradientTransform="scale(1.7450066,0.5730637)"
       gradientUnits="userSpaceOnUse" /><linearGradient
       xlink:href="#linearGradient922"
       id="linearGradient921"
       x1="142.57793"
       y1="793.7937"
       x2="174.73245"
       y2="892.44427"
       gradientTransform="scale(1.6640998,0.6009255)"
       gradientUnits="userSpaceOnUse" /><linearGradient
       xlink:href="#linearGradient922"
       id="linearGradient925"
       x1="291.02332"
       y1="782.59119"
       x2="292.31"
       y2="891.18829"
       gradientTransform="scale(1.6640998,0.6009255)"
       gradientUnits="userSpaceOnUse" /><linearGradient
       xlink:href="#linearGradient922"
       id="linearGradient926"
       x1="-364.39032"
       y1="262.65112"
       x2="890.94794"
       y2="834.18738"
       gradientTransform="scale(0.9341237,1.070522)"
       gradientUnits="userSpaceOnUse" /><linearGradient
       xlink:href="#linearGradient922"
       id="linearGradient927"
       x1="147.17828"
       y1="678.17706"
       x2="480.94107"
       y2="940.33917"
       gradientTransform="scale(1.2038074,0.8306977)"
       gradientUnits="userSpaceOnUse" /><linearGradient
       xlink:href="#linearGradient922"
       id="linearGradient928"
       x1="183.48238"
       y1="809.052"
       x2="251.6685"
       y2="1020.8313"
       gradientTransform="scale(2.1219701,0.4712602)"
       gradientUnits="userSpaceOnUse" /><linearGradient
       xlink:href="#linearGradient922"
       id="linearGradient931"
       x1="235.80968"
       y1="1005.4157"
       x2="91.584511"
       y2="527.29053"
       gradientTransform="scale(2.5233751,0.3962946)"
       gradientUnits="userSpaceOnUse" /><linearGradient
       xlink:href="#linearGradient922"
       id="linearGradient936"
       x1="321.24045"
       y1="416.08322"
       x2="338.81735"
       y2="416.58002"
       spreadMethod="reflect"
       gradientTransform="scale(0.5345224,1.8708289)"
       gradientUnits="userSpaceOnUse" /><radialGradient
       xlink:href="#linearGradient922"
       id="radialGradient937"
       cx="463.63385"
       cy="844.56995"
       r="17.063522"
       fx="463.63385"
       fy="844.56995"
       gradientTransform="scale(1.1752751,0.8508646)"
       gradientUnits="userSpaceOnUse" /><radialGradient
       xlink:href="#linearGradient922"
       id="radialGradient940"
       cx="-0.21051855"
       cy="0.51568699"
       r="0.68438339"
       fx="-0.21051855"
       fy="0.51568699"
       spreadMethod="reflect" /><linearGradient
       xlink:href="#linearGradient922"
       id="linearGradient941"
       x1="321.24048"
       y1="337.68414"
       x2="343.00232"
       y2="337.43433"
       spreadMethod="reflect"
       gradientTransform="scale(0.5345224,1.8708289)"
       gradientUnits="userSpaceOnUse" /></defs><sodipodi:namedview
     id="base"
     showgrid="false"
     inkscape:zoom="1.3277207"
     inkscape:cx="73.710395"
     inkscape:cy="49.258026"
     inkscape:window-width="641"
     inkscape:window-height="719"
     inkscape:window-x="631"
     inkscape:window-y="277"
     inkscape:current-layer="svg890" /><g
     id="g2423"
     transform="matrix(0.1847559,0,0,0.1847559,-15.49411,-49.745711)"><path
   sodipodi:nodetypes="ccccccccc"
   id="path930"
   d="M 115.754,270.4322 C 101.358,270.4322 89.7684,282.0218 89.7684,296.4178 L 89.7684,325.9468 C 89.7684,340.3429 101.358,351.9325 115.754,351.9325 L 591.7626,351.9325 C 619.1514,351.9326 623.6541,342.7052 604.7556,318.8599 L 564.5959,285.7873 C 552.7844,273.7537 536.4701,269.251 522.074,269.251 L 115.754,270.4322 z"
   style="font-size:12px;fill:url(#linearGradient931);fill-rule:evenodd" /><path
   sodipodi:nodetypes="cccccccccccc"
   id="path896"
   d="M 108.3838,271.6138 C 94.799,271.6138 87.40609,280.4415 87.40609,292.8745 L 83.8626,793.097 L 134.6526,870.4631 C 145.2831,880.5337 155.0383,883.4559 168.6231,883.4559 L 593.2269,883.4559 C 606.8116,883.4559 617.7481,873.4467 617.7481,861.0138 L 617.7481,349.5704 C 617.7481,337.1374 606.8116,327.1283 593.2269,327.1283 L 183.6708,327.1283 C 176.8319,325.7503 165.2684,322.0099 160.7919,317.0885 L 108.3838,271.6138 z"
   style="font-size:12px;fill:url(#linearGradient926);fill-rule:evenodd" /><path
   sodipodi:nodetypes="ccccccc"
   id="path900"
   d="M 576.6321,407.3809 L 576.7988,453.502 C 576.8083,460.3814 572.3076,465.9255 566.7075,465.933 L 406.0974,466.148 C 400.4972,466.1555 395.9813,460.6235 395.972,453.7441 L 395.8051,407.623 L 576.6321,407.3809 z"
   style="font-size:12px;fill:url(#linearGradient920);fill-rule:evenodd;stroke:#000000;stroke-opacity:1" /><path
   sodipodi:nodetypes="ccccccc"
   id="path904"
   d="M 379.3747,408.5621 L 379.5447,454.6832 C 379.5544,461.5626 374.9655,467.1067 369.2558,467.1142 L 205.5012,467.3292 C 199.7914,467.3367 195.1871,461.8047 195.1776,454.9253 L 195.0074,408.8042 L 379.3747,408.5621 z"
   style="font-size:12px;fill:url(#linearGradient919);fill-rule:evenodd;stroke:#000000;stroke-opacity:1" /><rect
   y="477.72821"
   x="226.11337"
   height="39.102295"
   width="120.70712"
   id="rect953"
   style="font-size:12px;fill:#d1d5d8;fill-opacity:1;fill-rule:evenodd;stroke-width:1" /><path
   id="path909"
   d="M 239.7761,480.6791 C 234.5412,480.6791 230.3268,484.8935 230.3268,490.1284 L 230.3268,504.3025 C 230.3268,509.5374 234.5412,513.7518 239.7761,513.7518 L 335.4503,513.7518 C 340.6852,513.7518 344.8996,509.5374 344.8996,504.3025 L 344.8996,490.1284 C 344.8996,484.8935 340.6852,480.6791 335.4503,480.6791 L 239.7761,480.6791 z M 224.421,473.5923 L 224.421,519.6577 L 351.9866,519.6577 L 351.9866,473.5923 L 224.421,473.5923 z"
   style="font-size:12px;fill:url(#linearGradient921);fill-rule:evenodd" /><rect
   y="474.32791"
   x="428.42535"
   height="39.102295"
   width="120.70712"
   id="rect955"
   style="font-size:12px;fill:#d1d5d8;fill-opacity:1;fill-rule:evenodd;stroke-width:1" /><path
   id="path910"
   d="M 440.5738,479.4979 C 435.3389,479.4979 431.1245,483.7123 431.1245,488.9472 L 431.1245,503.1213 C 431.1245,508.3562 435.3389,512.5706 440.5738,512.5706 L 536.248,512.5706 C 541.4829,512.5706 545.6973,508.3562 545.6973,503.1213 L 545.6973,488.9472 C 545.6973,483.7123 541.4829,479.4979 536.248,479.4979 L 440.5738,479.4979 z M 425.2187,472.4111 L 425.2187,518.4765 L 552.7843,518.4765 L 552.7843,472.4111 L 425.2187,472.4111 z"
   style="font-size:12px;fill:url(#linearGradient925);fill-rule:evenodd" /><path
   id="path915"
   d="M 203.6405,568.085 C 190.9414,568.085 180.718,578.3085 180.718,591.0076 L 180.718,815.6488 C 180.718,828.3479 190.9414,838.5714 203.6405,838.5714 L 553.4851,838.5714 C 566.1842,838.5714 576.4077,828.3479 576.4077,815.6488 L 576.4077,591.0076 C 576.4077,578.3085 566.1842,568.085 553.4851,568.085 L 203.6405,568.085 z M 200.7977,563.3607 C 187.7104,563.3607 177.1745,573.8967 177.1745,586.9839 L 177.1745,818.4919 C 177.1745,831.5792 187.7104,842.1152 200.7977,842.1152 L 557.509,842.1152 C 570.5963,842.1152 581.1322,831.5792 581.1322,818.4919 L 581.1322,586.9839 C 581.1322,573.8967 570.5963,563.3607 557.509,563.3607 L 200.7977,563.3607 z"
   style="font-size:12px;fill:url(#linearGradient927);fill-rule:evenodd" /><path
   sodipodi:nodetypes="ccccccccccccccc"
   id="path902"
   d="M 580.9657,475.6086 C 586.2929,475.6086 590.5097,475.2837 591.7625,470.0488 L 602.7093,411.8135 C 603.3,407.0888 602.2201,403.1995 599.0521,398.0572 L 592.1086,390.8393 C 587.7298,386.022 583.9306,383.8239 575.06,383.8239 L 196.2394,382.6428 C 190.9123,382.6428 184.2612,389.2194 184.2613,395.6355 L 185.4425,465.3241 C 185.4425,470.559 189.7312,474.7734 195.0583,474.7734 L 202.6527,414.8294 C 204.7904,407.4472 211.2352,402.9165 219.6964,403.3131 L 569.5742,402.2795 C 576.5669,402.1616 581.054,406.6372 580.9475,411.9481 L 580.9657,475.6086 z"
   style="font-size:12px;fill:url(#linearGradient928);fill-rule:evenodd" /><path
   sodipodi:nodetypes="csccsccscc"
   id="path933"
   d="M 543.2866,711.7962 C 537.5251,711.7962 532.8729,717.2646 532.8868,723.4688 C 533.0131,726.1095 534.7724,729.1222 536.5637,730.5204 L 534.0182,742.6512 C 534.0182,749.1178 537.2423,749.2445 543.2866,748.6096 C 549.7918,748.6096 552.5065,748.4829 552.5065,742.0163 L 549.6781,730.203 C 551.5636,729.228 553.8624,725.7189 553.9206,722.8339 C 553.4853,716.0552 548.9995,711.7962 543.238,711.7962 L 543.2866,711.7962 z"
   style="font-size:12px;fill:#333333;fill-opacity:1;fill-rule:evenodd" /><path
   sodipodi:nodetypes="cccscssc"
   id="path935"
   d="M 530.3575,720.4711 L 533.5054,726.0635 C 533.6531,726.5251 534.8526,726.3857 534.85,725.6453 C 534.7343,717.6506 539.8737,715.6822 544.537,715.6384 C 551.311,715.5768 553.8384,719.098 553.9776,725.6405 C 555.8488,716.1019 548.7485,710.5823 547.7404,710.2397 C 543.856,708.6793 541.3166,708.8867 539.5449,709.3002 C 536.6065,709.8128 530.3923,712.3974 530.3575,720.4711 z"
   style="font-size:12px;fill:url(#radialGradient937);fill-rule:evenodd" /><rect
   ry="46.009293"
   y="600.13544"
   x="171.71014"
   height="59.50354"
   width="17.001007"
   id="rect938"
   style="font-size:12px;fill:url(#linearGradient941);fill-rule:evenodd"
   rx="46.009293" /><rect
   ry="46.009293"
   y="746.34406"
   x="171.71016"
   height="59.50354"
   width="17.001007"
   id="rect939"
   style="font-size:12px;fill:url(#linearGradient936);fill-rule:evenodd"
   rx="46.009293" /><path
   sodipodi:nodetypes="cc"
   id="path942"
   d="M 172.2084,629.2044 C 172.2713,634.1391 188.0213,633.6764 188.2566,629.8178"
   style="fill:none;fill-opacity:1;fill-rule:evenodd;stroke:#000000;stroke-width:1pt;stroke-linecap:butt;stroke-linejoin:miter;stroke-opacity:1" /><path
   sodipodi:nodetypes="cc"
   id="path943"
   d="M 172.2084,776.4681 C 172.2713,781.4028 188.0213,780.9401 188.2566,777.0815"
   style="fill:none;fill-opacity:1;fill-rule:evenodd;stroke:#000000;stroke-width:1pt;stroke-linecap:butt;stroke-linejoin:miter;stroke-opacity:1" /><g
   transform="matrix(0.761194,0,0,0.732558,94.34292,201.4222)"
   id="g948"><rect
     ry="36.807236"
     y="606.93585"
     x="266.91577"
     height="146.20868"
     width="227.81348"
     id="rect944"
     style="font-size:12px;fill:none;fill-rule:evenodd;stroke:#000000;stroke-width:2.5;stroke-dasharray:none;stroke-opacity:1"
     rx="36.807236" /><path
     sodipodi:nodetypes="cccc"
     id="path945"
     d="M 269.4659,608.636 L 359.9962,695.3411 C 375.5806,707.2418 383.5143,707.2418 398.6736,695.7661 L 490.904,607.7859"
     style="fill:none;fill-opacity:1;fill-rule:evenodd;stroke:#000000;stroke-width:2.5;stroke-linecap:butt;stroke-linejoin:miter;stroke-dasharray:none;stroke-opacity:1" /><path
     sodipodi:nodetypes="cc"
     id="path946"
     d="M 343.8454,679.1901 L 269.466,750.5943"
     style="fill:none;fill-opacity:1;fill-rule:evenodd;stroke:#000000;stroke-width:1pt;stroke-linecap:butt;stroke-linejoin:miter;stroke-opacity:1" /><path
     sodipodi:nodetypes="cc"
     id="path947"
     d="M 417.7998,676.64 L 491.7542,750.5943"
     style="fill:none;fill-opacity:1;fill-rule:evenodd;stroke:#000000;stroke-width:1pt;stroke-linecap:butt;stroke-linejoin:miter;stroke-opacity:1" /></g><text
   transform="scale(0.878564,1)"
   id="text956"
   y="503.22961"
   x="282.61981"
   style="font-size:20px;font-style:normal;font-weight:normal;writing-mode:lr-tb;text-anchor:start;fill:#000000;fill-opacity:1;stroke:none;stroke-width:1pt;stroke-linecap:butt;stroke-linejoin:miter;stroke-opacity:1;font-family:Century Schoolbook L"><tspan
     id="tspan957">LOCAL</tspan></text>

<text
   transform="scale(0.853164,1)"
   id="text959"
   y="501.52948"
   x="510.19702"
   style="font-size:20px;font-style:normal;font-weight:normal;writing-mode:lr-tb;text-anchor:start;fill:#000000;fill-opacity:1;stroke:none;stroke-width:1pt;stroke-linecap:butt;stroke-linejoin:miter;stroke-opacity:1;font-family:Century Schoolbook L"><tspan
     id="tspan960">NATIONNAL</tspan></text>

</g></svg>