<?xml version="1.0" encoding="UTF-8" standalone="no"?>
<!-- Created with Sodipodi ("http://www.sodipodi.com/") -->
<svg
   xmlns:dc="http://purl.org/dc/elements/1.1/"
   xmlns:cc="http://creativecommons.org/ns#"
   xmlns:rdf="http://www.w3.org/1999/02/22-rdf-syntax-ns#"
   xmlns:svg="http://www.w3.org/2000/svg"
   xmlns="http://www.w3.org/2000/svg"
   xmlns:xlink="http://www.w3.org/1999/xlink"
   xmlns:sodipodi="http://sodipodi.sourceforge.net/DTD/sodipodi-0.dtd"
   xmlns:inkscape="http://www.inkscape.org/namespaces/inkscape"
   id="svg745"
   sodipodi:version="0.32"
   width="75.221092"
   height="115.22695"
   xml:space="preserve"
   sodipodi:docbase="/home/franck/Dessins/Vectoriels/Objets_divers"
   sodipodi:docname="rape.svg"
   inkscape:version="0.46"
   inkscape:output_extension="org.inkscape.output.svg.inkscape"
   sodipodi:modified="true"
   version="1.0"><metadata
     id="metadata78"><rdf:RDF><cc:Work
         rdf:about=""><dc:format>image/svg+xml</dc:format><dc:type
           rdf:resource="http://purl.org/dc/dcmitype/StillImage" /></cc:Work></rdf:RDF></metadata><defs
     id="defs747"><inkscape:perspective
       sodipodi:type="inkscape:persp3d"
       inkscape:vp_x="0 : 264.15125 : 1"
       inkscape:vp_y="0 : 1000 : 0"
       inkscape:vp_z="344.88016 : 264.15125 : 1"
       inkscape:persp3d-origin="172.44008 : 176.10083 : 1"
       id="perspective132" /><linearGradient
       id="linearGradient1027"><stop
         style="stop-color:#b20000;stop-opacity:1;"
         offset="0"
         id="stop1028" /><stop
         style="stop-color:#ffffff;stop-opacity:1;"
         offset="1"
         id="stop1029" /></linearGradient><linearGradient
       id="linearGradient763"><stop
         style="stop-color:#000;stop-opacity:1;"
         offset="0"
         id="stop764" /><stop
         style="stop-color:#fff;stop-opacity:1;"
         offset="1"
         id="stop765" /></linearGradient><linearGradient
       xlink:href="#linearGradient763"
       id="linearGradient766"
       x1="0.44779584"
       y1="-0.026176551"
       x2="0.37808311"
       y2="1.0430744"
       gradientTransform="translate(-3.211577e-7,-1.746076e-6)"
       spreadMethod="reflect" /><linearGradient
       xlink:href="#linearGradient763"
       id="linearGradient849"
       x1="0.076938674"
       y1="0.43966526"
       x2="0.66159117"
       y2="0.42164689"
       spreadMethod="reflect" /><linearGradient
       xlink:href="#linearGradient1027"
       id="linearGradient1026"
       x1="1.3485359e-06"
       y1="0.56250149"
       x2="1.3095238"
       y2="0.67968756" /><linearGradient
       xlink:href="#linearGradient1027"
       id="linearGradient1038"
       x1="1.2579352"
       y1="0.54621077"
       x2="-1.1358775"
       y2="0.66837758"
       gradientTransform="matrix(0.999991,-7.461813e-7,6.669021e-6,1.000009,-3.554541e-7,7.994974e-8)" /><linearGradient
       inkscape:collect="always"
       xlink:href="#linearGradient763"
       id="linearGradient2295"
       spreadMethod="reflect"
       x1="402.77023"
       y1="416.20966"
       x2="565.60437"
       y2="411.19128"
       gradientTransform="scale(0.8481889,1.1789826)"
       gradientUnits="userSpaceOnUse" /><linearGradient
       inkscape:collect="always"
       xlink:href="#linearGradient763"
       id="linearGradient2297"
       gradientTransform="scale(1.1056605,0.9044367)"
       spreadMethod="reflect"
       x1="286.88379"
       y1="442.56"
       x2="285.32703"
       y2="466.43716"
       gradientUnits="userSpaceOnUse" /><linearGradient
       inkscape:collect="always"
       xlink:href="#linearGradient763"
       id="linearGradient2299"
       gradientTransform="scale(1.1056605,0.9044367)"
       spreadMethod="reflect"
       x1="428.43185"
       y1="460.84341"
       x2="426.87509"
       y2="484.72058"
       gradientUnits="userSpaceOnUse" /><linearGradient
       inkscape:collect="always"
       xlink:href="#linearGradient763"
       id="linearGradient2301"
       gradientTransform="scale(1.1056605,0.9044367)"
       spreadMethod="reflect"
       x1="393.17825"
       y1="456.27261"
       x2="391.62152"
       y2="480.14978"
       gradientUnits="userSpaceOnUse" /><linearGradient
       inkscape:collect="always"
       xlink:href="#linearGradient763"
       id="linearGradient2303"
       gradientTransform="scale(1.1056605,0.9044367)"
       spreadMethod="reflect"
       x1="358.99316"
       y1="451.70172"
       x2="357.43643"
       y2="475.57889"
       gradientUnits="userSpaceOnUse" /><linearGradient
       inkscape:collect="always"
       xlink:href="#linearGradient763"
       id="linearGradient2305"
       gradientTransform="scale(1.1056605,0.9044367)"
       spreadMethod="reflect"
       x1="321.5994"
       y1="447.17722"
       x2="320.04266"
       y2="471.05441"
       gradientUnits="userSpaceOnUse" /><linearGradient
       inkscape:collect="always"
       xlink:href="#linearGradient763"
       id="linearGradient2307"
       gradientTransform="scale(1.1056605,0.9044367)"
       spreadMethod="reflect"
       x1="286.88379"
       y1="442.56"
       x2="285.32703"
       y2="466.43716"
       gradientUnits="userSpaceOnUse" /><linearGradient
       inkscape:collect="always"
       xlink:href="#linearGradient763"
       id="linearGradient2309"
       gradientTransform="scale(1.1056605,0.9044367)"
       spreadMethod="reflect"
       x1="428.43185"
       y1="460.84341"
       x2="426.87509"
       y2="484.72058"
       gradientUnits="userSpaceOnUse" /><linearGradient
       inkscape:collect="always"
       xlink:href="#linearGradient763"
       id="linearGradient2311"
       gradientTransform="scale(1.1056605,0.9044367)"
       spreadMethod="reflect"
       x1="393.17825"
       y1="456.27261"
       x2="391.62152"
       y2="480.14978"
       gradientUnits="userSpaceOnUse" /><linearGradient
       inkscape:collect="always"
       xlink:href="#linearGradient763"
       id="linearGradient2313"
       gradientTransform="scale(1.1056605,0.9044367)"
       spreadMethod="reflect"
       x1="358.99316"
       y1="451.70172"
       x2="357.43643"
       y2="475.57889"
       gradientUnits="userSpaceOnUse" /><linearGradient
       inkscape:collect="always"
       xlink:href="#linearGradient763"
       id="linearGradient2315"
       gradientTransform="scale(1.1056605,0.9044367)"
       spreadMethod="reflect"
       x1="321.5994"
       y1="447.17722"
       x2="320.04266"
       y2="471.05441"
       gradientUnits="userSpaceOnUse" /><linearGradient
       inkscape:collect="always"
       xlink:href="#linearGradient763"
       id="linearGradient2317"
       gradientTransform="scale(1.1056605,0.9044367)"
       spreadMethod="reflect"
       x1="271.92773"
       y1="475.86206"
       x2="270.371"
       y2="499.73923"
       gradientUnits="userSpaceOnUse" /><linearGradient
       inkscape:collect="always"
       xlink:href="#linearGradient763"
       id="linearGradient2319"
       gradientTransform="scale(1.1056605,0.9044367)"
       spreadMethod="reflect"
       x1="286.88379"
       y1="442.56"
       x2="285.32703"
       y2="466.43716"
       gradientUnits="userSpaceOnUse" /><linearGradient
       inkscape:collect="always"
       xlink:href="#linearGradient763"
       id="linearGradient2321"
       gradientTransform="scale(1.1056605,0.9044367)"
       spreadMethod="reflect"
       x1="428.43185"
       y1="460.84341"
       x2="426.87509"
       y2="484.72058"
       gradientUnits="userSpaceOnUse" /><linearGradient
       inkscape:collect="always"
       xlink:href="#linearGradient763"
       id="linearGradient2323"
       gradientTransform="scale(1.1056605,0.9044367)"
       spreadMethod="reflect"
       x1="393.17825"
       y1="456.27261"
       x2="391.62152"
       y2="480.14978"
       gradientUnits="userSpaceOnUse" /><linearGradient
       inkscape:collect="always"
       xlink:href="#linearGradient763"
       id="linearGradient2325"
       gradientTransform="scale(1.1056605,0.9044367)"
       spreadMethod="reflect"
       x1="358.99316"
       y1="451.70172"
       x2="357.43643"
       y2="475.57889"
       gradientUnits="userSpaceOnUse" /><linearGradient
       inkscape:collect="always"
       xlink:href="#linearGradient763"
       id="linearGradient2327"
       gradientTransform="scale(1.1056605,0.9044367)"
       spreadMethod="reflect"
       x1="321.5994"
       y1="447.17722"
       x2="320.04266"
       y2="471.05441"
       gradientUnits="userSpaceOnUse" /><linearGradient
       inkscape:collect="always"
       xlink:href="#linearGradient763"
       id="linearGradient2329"
       gradientTransform="scale(1.1056605,0.9044367)"
       spreadMethod="reflect"
       x1="271.92773"
       y1="475.86206"
       x2="270.371"
       y2="499.73923"
       gradientUnits="userSpaceOnUse" /><linearGradient
       inkscape:collect="always"
       xlink:href="#linearGradient763"
       id="linearGradient2331"
       gradientTransform="scale(1.1056605,0.9044367)"
       spreadMethod="reflect"
       x1="286.88379"
       y1="442.56"
       x2="285.32703"
       y2="466.43716"
       gradientUnits="userSpaceOnUse" /><linearGradient
       inkscape:collect="always"
       xlink:href="#linearGradient763"
       id="linearGradient2333"
       gradientTransform="scale(1.1056605,0.9044367)"
       spreadMethod="reflect"
       x1="428.43185"
       y1="460.84341"
       x2="426.87509"
       y2="484.72058"
       gradientUnits="userSpaceOnUse" /><linearGradient
       inkscape:collect="always"
       xlink:href="#linearGradient763"
       id="linearGradient2335"
       gradientTransform="scale(1.1056605,0.9044367)"
       spreadMethod="reflect"
       x1="393.17825"
       y1="456.27261"
       x2="391.62152"
       y2="480.14978"
       gradientUnits="userSpaceOnUse" /><linearGradient
       inkscape:collect="always"
       xlink:href="#linearGradient763"
       id="linearGradient2337"
       gradientTransform="scale(1.1056605,0.9044367)"
       spreadMethod="reflect"
       x1="358.99316"
       y1="451.70172"
       x2="357.43643"
       y2="475.57889"
       gradientUnits="userSpaceOnUse" /><linearGradient
       inkscape:collect="always"
       xlink:href="#linearGradient763"
       id="linearGradient2339"
       gradientTransform="scale(1.1056605,0.9044367)"
       spreadMethod="reflect"
       x1="321.5994"
       y1="447.17722"
       x2="320.04266"
       y2="471.05441"
       gradientUnits="userSpaceOnUse" /><linearGradient
       inkscape:collect="always"
       xlink:href="#linearGradient763"
       id="linearGradient2341"
       gradientTransform="scale(1.1056605,0.9044367)"
       spreadMethod="reflect"
       x1="286.88379"
       y1="442.56"
       x2="285.32703"
       y2="466.43716"
       gradientUnits="userSpaceOnUse" /><linearGradient
       inkscape:collect="always"
       xlink:href="#linearGradient763"
       id="linearGradient2343"
       gradientTransform="scale(1.1056605,0.9044367)"
       spreadMethod="reflect"
       x1="428.43185"
       y1="460.84341"
       x2="426.87509"
       y2="484.72058"
       gradientUnits="userSpaceOnUse" /><linearGradient
       inkscape:collect="always"
       xlink:href="#linearGradient763"
       id="linearGradient2345"
       gradientTransform="scale(1.1056605,0.9044367)"
       spreadMethod="reflect"
       x1="393.17825"
       y1="456.27261"
       x2="391.62152"
       y2="480.14978"
       gradientUnits="userSpaceOnUse" /><linearGradient
       inkscape:collect="always"
       xlink:href="#linearGradient763"
       id="linearGradient2347"
       gradientTransform="scale(1.1056605,0.9044367)"
       spreadMethod="reflect"
       x1="358.99316"
       y1="451.70172"
       x2="357.43643"
       y2="475.57889"
       gradientUnits="userSpaceOnUse" /><linearGradient
       inkscape:collect="always"
       xlink:href="#linearGradient763"
       id="linearGradient2349"
       gradientTransform="scale(1.1056605,0.9044367)"
       spreadMethod="reflect"
       x1="321.5994"
       y1="447.17722"
       x2="320.04266"
       y2="471.05441"
       gradientUnits="userSpaceOnUse" /><linearGradient
       inkscape:collect="always"
       xlink:href="#linearGradient763"
       id="linearGradient2351"
       gradientTransform="scale(1.1056605,0.9044367)"
       spreadMethod="reflect"
       x1="271.92773"
       y1="475.86206"
       x2="270.371"
       y2="499.73923"
       gradientUnits="userSpaceOnUse" /><linearGradient
       inkscape:collect="always"
       xlink:href="#linearGradient763"
       id="linearGradient2353"
       gradientTransform="scale(1.1056605,0.9044367)"
       spreadMethod="reflect"
       x1="286.88379"
       y1="442.56"
       x2="285.32703"
       y2="466.43716"
       gradientUnits="userSpaceOnUse" /><linearGradient
       inkscape:collect="always"
       xlink:href="#linearGradient763"
       id="linearGradient2355"
       gradientTransform="scale(1.1056605,0.9044367)"
       spreadMethod="reflect"
       x1="428.43185"
       y1="460.84341"
       x2="426.87509"
       y2="484.72058"
       gradientUnits="userSpaceOnUse" /><linearGradient
       inkscape:collect="always"
       xlink:href="#linearGradient763"
       id="linearGradient2357"
       gradientTransform="scale(1.1056605,0.9044367)"
       spreadMethod="reflect"
       x1="393.17825"
       y1="456.27261"
       x2="391.62152"
       y2="480.14978"
       gradientUnits="userSpaceOnUse" /><linearGradient
       inkscape:collect="always"
       xlink:href="#linearGradient763"
       id="linearGradient2359"
       gradientTransform="scale(1.1056605,0.9044367)"
       spreadMethod="reflect"
       x1="358.99316"
       y1="451.70172"
       x2="357.43643"
       y2="475.57889"
       gradientUnits="userSpaceOnUse" /><linearGradient
       inkscape:collect="always"
       xlink:href="#linearGradient763"
       id="linearGradient2361"
       gradientTransform="scale(1.1056605,0.9044367)"
       spreadMethod="reflect"
       x1="321.5994"
       y1="447.17722"
       x2="320.04266"
       y2="471.05441"
       gradientUnits="userSpaceOnUse" /><linearGradient
       inkscape:collect="always"
       xlink:href="#linearGradient763"
       id="linearGradient2363"
       gradientTransform="scale(1.1056605,0.9044367)"
       spreadMethod="reflect"
       x1="286.88379"
       y1="442.56"
       x2="285.32703"
       y2="466.43716"
       gradientUnits="userSpaceOnUse" /><linearGradient
       inkscape:collect="always"
       xlink:href="#linearGradient763"
       id="linearGradient2365"
       gradientTransform="scale(1.1056605,0.9044367)"
       spreadMethod="reflect"
       x1="428.43185"
       y1="460.84341"
       x2="426.87509"
       y2="484.72058"
       gradientUnits="userSpaceOnUse" /><linearGradient
       inkscape:collect="always"
       xlink:href="#linearGradient763"
       id="linearGradient2367"
       gradientTransform="scale(1.1056605,0.9044367)"
       spreadMethod="reflect"
       x1="393.17825"
       y1="456.27261"
       x2="391.62152"
       y2="480.14978"
       gradientUnits="userSpaceOnUse" /><linearGradient
       inkscape:collect="always"
       xlink:href="#linearGradient763"
       id="linearGradient2369"
       gradientTransform="scale(1.1056605,0.9044367)"
       spreadMethod="reflect"
       x1="358.99316"
       y1="451.70172"
       x2="357.43643"
       y2="475.57889"
       gradientUnits="userSpaceOnUse" /><linearGradient
       inkscape:collect="always"
       xlink:href="#linearGradient763"
       id="linearGradient2371"
       gradientTransform="scale(1.1056605,0.9044367)"
       spreadMethod="reflect"
       x1="321.5994"
       y1="447.17722"
       x2="320.04266"
       y2="471.05441"
       gradientUnits="userSpaceOnUse" /><linearGradient
       inkscape:collect="always"
       xlink:href="#linearGradient763"
       id="linearGradient2373"
       gradientTransform="scale(1.1056605,0.9044367)"
       spreadMethod="reflect"
       x1="271.92773"
       y1="475.86206"
       x2="270.371"
       y2="499.73923"
       gradientUnits="userSpaceOnUse" /><linearGradient
       inkscape:collect="always"
       xlink:href="#linearGradient763"
       id="linearGradient2375"
       gradientTransform="scale(1.1056605,0.9044367)"
       spreadMethod="reflect"
       x1="286.88379"
       y1="442.56"
       x2="285.32703"
       y2="466.43716"
       gradientUnits="userSpaceOnUse" /><linearGradient
       inkscape:collect="always"
       xlink:href="#linearGradient763"
       id="linearGradient2377"
       gradientTransform="scale(1.1056605,0.9044367)"
       spreadMethod="reflect"
       x1="428.43185"
       y1="460.84341"
       x2="426.87509"
       y2="484.72058"
       gradientUnits="userSpaceOnUse" /><linearGradient
       inkscape:collect="always"
       xlink:href="#linearGradient763"
       id="linearGradient2379"
       gradientTransform="scale(1.1056605,0.9044367)"
       spreadMethod="reflect"
       x1="393.17825"
       y1="456.27261"
       x2="391.62152"
       y2="480.14978"
       gradientUnits="userSpaceOnUse" /><linearGradient
       inkscape:collect="always"
       xlink:href="#linearGradient763"
       id="linearGradient2381"
       gradientTransform="scale(1.1056605,0.9044367)"
       spreadMethod="reflect"
       x1="358.99316"
       y1="451.70172"
       x2="357.43643"
       y2="475.57889"
       gradientUnits="userSpaceOnUse" /><linearGradient
       inkscape:collect="always"
       xlink:href="#linearGradient763"
       id="linearGradient2383"
       gradientTransform="scale(1.1056605,0.9044367)"
       spreadMethod="reflect"
       x1="321.5994"
       y1="447.17722"
       x2="320.04266"
       y2="471.05441"
       gradientUnits="userSpaceOnUse" /><linearGradient
       inkscape:collect="always"
       xlink:href="#linearGradient763"
       id="linearGradient2385"
       gradientTransform="scale(1.1056605,0.9044367)"
       spreadMethod="reflect"
       x1="286.88379"
       y1="442.56"
       x2="285.32703"
       y2="466.43716"
       gradientUnits="userSpaceOnUse" /><linearGradient
       inkscape:collect="always"
       xlink:href="#linearGradient763"
       id="linearGradient2387"
       gradientTransform="scale(1.1056605,0.9044367)"
       spreadMethod="reflect"
       x1="428.43185"
       y1="460.84341"
       x2="426.87509"
       y2="484.72058"
       gradientUnits="userSpaceOnUse" /><linearGradient
       inkscape:collect="always"
       xlink:href="#linearGradient763"
       id="linearGradient2389"
       gradientTransform="scale(1.1056605,0.9044367)"
       spreadMethod="reflect"
       x1="393.17825"
       y1="456.27261"
       x2="391.62152"
       y2="480.14978"
       gradientUnits="userSpaceOnUse" /><linearGradient
       inkscape:collect="always"
       xlink:href="#linearGradient763"
       id="linearGradient2391"
       gradientTransform="scale(1.1056605,0.9044367)"
       spreadMethod="reflect"
       x1="358.99316"
       y1="451.70172"
       x2="357.43643"
       y2="475.57889"
       gradientUnits="userSpaceOnUse" /><linearGradient
       inkscape:collect="always"
       xlink:href="#linearGradient763"
       id="linearGradient2393"
       gradientTransform="scale(1.1056605,0.9044367)"
       spreadMethod="reflect"
       x1="321.5994"
       y1="447.17722"
       x2="320.04266"
       y2="471.05441"
       gradientUnits="userSpaceOnUse" /><linearGradient
       inkscape:collect="always"
       xlink:href="#linearGradient1027"
       id="linearGradient2395"
       x1="506.77707"
       y1="356.51205"
       x2="956.45001"
       y2="396.7522"
       gradientTransform="scale(0.6672769,1.4986282)"
       gradientUnits="userSpaceOnUse" /><linearGradient
       inkscape:collect="always"
       xlink:href="#linearGradient1027"
       id="linearGradient2397"
       gradientTransform="scale(0.8955023,1.1166917)"
       x1="442.36856"
       y1="258.96716"
       x2="299.24191"
       y2="266.27155"
       gradientUnits="userSpaceOnUse" /></defs><sodipodi:namedview
     id="base"
     inkscape:zoom="2.8811374"
     inkscape:cx="146.42423"
     inkscape:cy="-5.719167"
     inkscape:window-width="822"
     inkscape:window-height="719"
     inkscape:window-x="9"
     inkscape:window-y="75"
     inkscape:current-layer="svg745"
     showgrid="false" /><g
     id="g2230"
     transform="matrix(0.2181079,0,0,0.2181079,-49.335686,-50.546539)"><path
       sodipodi:nodetypes="ccccccccccccccccccccccc"
       id="path760"
       d="M 326.2516,285.4932 C 311.5414,283.6444 298.8561,291.83 297.168,308.0635 L 296.1998,318.6313 C 294.5117,334.8649 304.995,349.422 319.7051,351.2707 L 498.934,370.2534 C 513.6442,372.1023 526.8455,360.5221 528.5337,344.2885 L 529.5018,333.7206 C 531.1899,317.487 520.7066,305.2924 505.9965,303.4435 L 326.2516,285.4932 z M 299.8557,231.924 C 284.8352,230.1556 271.4421,242.0766 269.8266,258.6526 L 226.3586,704.6704 C 224.7432,721.2465 235.5351,736.0147 250.5557,737.783 L 495.0593,759.8978 C 510.0799,761.6661 521.7755,748.0479 523.3909,731.4719 L 570.9186,289.5138 C 572.5341,272.9378 561.7422,258.1696 546.7216,256.4012 L 299.8557,231.924 z M 434.4897,269.4026 C 434.467,274.6212 429.9536,278.8322 424.4087,278.808 C 418.864,278.7838 414.3875,274.5337 414.4102,269.315 C 414.433,264.0964 418.9464,259.8854 424.4911,259.9096 C 430.0359,259.9338 434.5125,264.1839 434.4897,269.4026 z"
       style="font-size:12px;fill:#a10000;fill-rule:evenodd;stroke-width:1" /><g
       id="g965"><path
         id="path767"
         d="M 339.986,346.3339 C 330.825,346.3339 323.4498,353.709 323.4498,362.8701 L 323.4498,658.1613 C 323.4498,667.3223 330.825,674.6975 339.986,674.6975 L 543.1464,674.6975 C 552.3075,674.6975 559.6826,667.3223 559.6826,658.1613 L 559.6826,362.8701 C 559.6826,353.709 552.3075,346.3339 543.1464,346.3339 L 339.986,346.3339 z"
         style="font-size:12px;fill:url(#linearGradient2295);fill-rule:evenodd"
         transform="matrix(0.994827,0.101584,-0.101584,0.994827,0,0)" /><g
         transform="translate(-7.086983,63.19226)"
         id="g786"><path
           sodipodi:nodetypes="ccccc"
           id="path787"
           d="M 330.8196,407.0032 C 330.5409,409.5976 322.5838,421.6928 315.7735,420.9611 C 308.9632,420.2294 305.8784,406.9478 306.1572,404.3534 C 306.4359,401.7589 312.1828,400.249 318.9931,400.9807 C 325.8034,401.7124 331.0984,404.4088 330.8196,407.0032 z"
           style="font-size:12px;fill:url(#linearGradient2297);fill-rule:evenodd;stroke-width:1" /><path
           sodipodi:nodetypes="ccccc"
           id="path788"
           d="M 487.3237,423.5394 C 487.045,426.1338 479.0879,438.229 472.2776,437.4973 C 465.4673,436.7656 462.3825,423.484 462.6613,420.8896 C 462.94,418.2951 468.6869,416.7852 475.4972,417.5169 C 482.3075,418.2486 487.6025,420.945 487.3237,423.5394 z"
           style="font-size:12px;fill:url(#linearGradient2299);fill-rule:evenodd;stroke-width:1" /><path
           sodipodi:nodetypes="ccccc"
           id="path789"
           d="M 448.3452,419.4054 C 448.0665,421.9998 440.1094,434.095 433.2991,433.3633 C 426.4888,432.6316 423.404,419.35 423.6828,416.7556 C 423.9615,414.1611 429.7084,412.6512 436.5187,413.3829 C 443.329,414.1146 448.624,416.811 448.3452,419.4054 z"
           style="font-size:12px;fill:url(#linearGradient2301);fill-rule:evenodd;stroke-width:1" /><path
           sodipodi:nodetypes="ccccc"
           id="path790"
           d="M 410.5481,415.2713 C 410.2694,417.8657 402.3123,429.9609 395.502,429.2292 C 388.6917,428.4975 385.6069,415.2159 385.8857,412.6215 C 386.1644,410.027 391.9113,408.5171 398.7216,409.2488 C 405.5319,409.9805 410.8269,412.6769 410.5481,415.2713 z"
           style="font-size:12px;fill:url(#linearGradient2303);fill-rule:evenodd;stroke-width:1" /><path
           sodipodi:nodetypes="ccccc"
           id="path791"
           d="M 369.2033,411.1792 C 368.9246,413.7736 360.9675,425.8688 354.1572,425.1371 C 347.3469,424.4054 344.2621,411.1238 344.5409,408.5294 C 344.8196,405.9349 350.5665,404.425 357.3768,405.1567 C 364.1871,405.8884 369.4821,408.5848 369.2033,411.1792 z"
           style="font-size:12px;fill:url(#linearGradient2305);fill-rule:evenodd;stroke-width:1" /></g><g
         id="g803"><path
           transform="translate(18.30803,33.66315)"
           sodipodi:nodetypes="ccccc"
           id="path781"
           d="M 330.8196,407.0032 C 330.5409,409.5976 322.5838,421.6928 315.7735,420.9611 C 308.9632,420.2294 305.8784,406.9478 306.1572,404.3534 C 306.4359,401.7589 312.1828,400.249 318.9931,400.9807 C 325.8034,401.7124 331.0984,404.4088 330.8196,407.0032 z"
           style="font-size:12px;fill:url(#linearGradient2307);fill-rule:evenodd" /><path
           transform="translate(18.30803,33.66315)"
           sodipodi:nodetypes="ccccc"
           id="path782"
           d="M 487.3237,423.5394 C 487.045,426.1338 479.0879,438.229 472.2776,437.4973 C 465.4673,436.7656 462.3825,423.484 462.6613,420.8896 C 462.94,418.2951 468.6869,416.7852 475.4972,417.5169 C 482.3075,418.2486 487.6025,420.945 487.3237,423.5394 z"
           style="font-size:12px;fill:url(#linearGradient2309);fill-rule:evenodd" /><path
           transform="translate(18.30803,33.66315)"
           sodipodi:nodetypes="ccccc"
           id="path783"
           d="M 448.3452,419.4054 C 448.0665,421.9998 440.1094,434.095 433.2991,433.3633 C 426.4888,432.6316 423.404,419.35 423.6828,416.7556 C 423.9615,414.1611 429.7084,412.6512 436.5187,413.3829 C 443.329,414.1146 448.624,416.811 448.3452,419.4054 z"
           style="font-size:12px;fill:url(#linearGradient2311);fill-rule:evenodd" /><path
           transform="translate(18.30803,33.66315)"
           sodipodi:nodetypes="ccccc"
           id="path784"
           d="M 410.5481,415.2713 C 410.2694,417.8657 402.3123,429.9609 395.502,429.2292 C 388.6917,428.4975 385.6069,415.2159 385.8857,412.6215 C 386.1644,410.027 391.9113,408.5171 398.7216,409.2488 C 405.5319,409.9805 410.8269,412.6769 410.5481,415.2713 z"
           style="font-size:12px;fill:url(#linearGradient2313);fill-rule:evenodd" /><path
           transform="translate(18.30803,33.66315)"
           sodipodi:nodetypes="ccccc"
           id="path785"
           d="M 369.2033,411.1792 C 368.9246,413.7736 360.9675,425.8688 354.1572,425.1371 C 347.3469,424.4054 344.2621,411.1238 344.5409,408.5294 C 344.8196,405.9349 350.5665,404.425 357.3768,405.1567 C 364.1871,405.8884 369.4821,408.5848 369.2033,411.1792 z"
           style="font-size:12px;fill:url(#linearGradient2315);fill-rule:evenodd" /><path
           sodipodi:nodetypes="ccccc"
           id="path797"
           d="M 314.2833,437.1228 C 314.0046,439.7172 306.0475,451.8124 299.2372,451.0807 C 292.4269,450.349 289.3421,437.0674 289.6209,434.473 C 289.8996,431.8785 295.6465,430.3686 302.4568,431.1003 C 309.2671,431.832 314.5621,434.5284 314.2833,437.1228 z"
           style="font-size:12px;fill:url(#linearGradient2317);fill-rule:evenodd" /></g><g
         transform="translate(-5.9058,62.01108)"
         id="g810"><path
           transform="translate(18.30803,33.66315)"
           sodipodi:nodetypes="ccccc"
           id="path811"
           d="M 330.8196,407.0032 C 330.5409,409.5976 322.5838,421.6928 315.7735,420.9611 C 308.9632,420.2294 305.8784,406.9478 306.1572,404.3534 C 306.4359,401.7589 312.1828,400.249 318.9931,400.9807 C 325.8034,401.7124 331.0984,404.4088 330.8196,407.0032 z"
           style="font-size:12px;fill:url(#linearGradient2319);fill-rule:evenodd" /><path
           transform="translate(18.30803,33.66315)"
           sodipodi:nodetypes="ccccc"
           id="path812"
           d="M 487.3237,423.5394 C 487.045,426.1338 479.0879,438.229 472.2776,437.4973 C 465.4673,436.7656 462.3825,423.484 462.6613,420.8896 C 462.94,418.2951 468.6869,416.7852 475.4972,417.5169 C 482.3075,418.2486 487.6025,420.945 487.3237,423.5394 z"
           style="font-size:12px;fill:url(#linearGradient2321);fill-rule:evenodd" /><path
           transform="translate(18.30803,33.66315)"
           sodipodi:nodetypes="ccccc"
           id="path813"
           d="M 448.3452,419.4054 C 448.0665,421.9998 440.1094,434.095 433.2991,433.3633 C 426.4888,432.6316 423.404,419.35 423.6828,416.7556 C 423.9615,414.1611 429.7084,412.6512 436.5187,413.3829 C 443.329,414.1146 448.624,416.811 448.3452,419.4054 z"
           style="font-size:12px;fill:url(#linearGradient2323);fill-rule:evenodd" /><path
           transform="translate(18.30803,33.66315)"
           sodipodi:nodetypes="ccccc"
           id="path814"
           d="M 410.5481,415.2713 C 410.2694,417.8657 402.3123,429.9609 395.502,429.2292 C 388.6917,428.4975 385.6069,415.2159 385.8857,412.6215 C 386.1644,410.027 391.9113,408.5171 398.7216,409.2488 C 405.5319,409.9805 410.8269,412.6769 410.5481,415.2713 z"
           style="font-size:12px;fill:url(#linearGradient2325);fill-rule:evenodd" /><path
           transform="translate(18.30803,33.66315)"
           sodipodi:nodetypes="ccccc"
           id="path815"
           d="M 369.2033,411.1792 C 368.9246,413.7736 360.9675,425.8688 354.1572,425.1371 C 347.3469,424.4054 344.2621,411.1238 344.5409,408.5294 C 344.8196,405.9349 350.5665,404.425 357.3768,405.1567 C 364.1871,405.8884 369.4821,408.5848 369.2033,411.1792 z"
           style="font-size:12px;fill:url(#linearGradient2327);fill-rule:evenodd" /><path
           sodipodi:nodetypes="ccccc"
           id="path816"
           d="M 314.2833,437.1228 C 314.0046,439.7172 306.0475,451.8124 299.2372,451.0807 C 292.4269,450.349 289.3421,437.0674 289.6209,434.473 C 289.8996,431.8785 295.6465,430.3686 302.4568,431.1003 C 309.2671,431.832 314.5621,434.5284 314.2833,437.1228 z"
           style="font-size:12px;fill:url(#linearGradient2329);fill-rule:evenodd" /></g><g
         transform="translate(-11.22105,126.9751)"
         id="g817"><path
           sodipodi:nodetypes="ccccc"
           id="path818"
           d="M 330.8196,407.0032 C 330.5409,409.5976 322.5838,421.6928 315.7735,420.9611 C 308.9632,420.2294 305.8784,406.9478 306.1572,404.3534 C 306.4359,401.7589 312.1828,400.249 318.9931,400.9807 C 325.8034,401.7124 331.0984,404.4088 330.8196,407.0032 z"
           style="font-size:12px;fill:url(#linearGradient2331);fill-rule:evenodd;stroke-width:1" /><path
           sodipodi:nodetypes="ccccc"
           id="path819"
           d="M 487.3237,423.5394 C 487.045,426.1338 479.0879,438.229 472.2776,437.4973 C 465.4673,436.7656 462.3825,423.484 462.6613,420.8896 C 462.94,418.2951 468.6869,416.7852 475.4972,417.5169 C 482.3075,418.2486 487.6025,420.945 487.3237,423.5394 z"
           style="font-size:12px;fill:url(#linearGradient2333);fill-rule:evenodd;stroke-width:1" /><path
           sodipodi:nodetypes="ccccc"
           id="path820"
           d="M 448.3452,419.4054 C 448.0665,421.9998 440.1094,434.095 433.2991,433.3633 C 426.4888,432.6316 423.404,419.35 423.6828,416.7556 C 423.9615,414.1611 429.7084,412.6512 436.5187,413.3829 C 443.329,414.1146 448.624,416.811 448.3452,419.4054 z"
           style="font-size:12px;fill:url(#linearGradient2335);fill-rule:evenodd;stroke-width:1" /><path
           sodipodi:nodetypes="ccccc"
           id="path821"
           d="M 410.5481,415.2713 C 410.2694,417.8657 402.3123,429.9609 395.502,429.2292 C 388.6917,428.4975 385.6069,415.2159 385.8857,412.6215 C 386.1644,410.027 391.9113,408.5171 398.7216,409.2488 C 405.5319,409.9805 410.8269,412.6769 410.5481,415.2713 z"
           style="font-size:12px;fill:url(#linearGradient2337);fill-rule:evenodd;stroke-width:1" /><path
           sodipodi:nodetypes="ccccc"
           id="path822"
           d="M 369.2033,411.1792 C 368.9246,413.7736 360.9675,425.8688 354.1572,425.1371 C 347.3469,424.4054 344.2621,411.1238 344.5409,408.5294 C 344.8196,405.9349 350.5665,404.425 357.3768,405.1567 C 364.1871,405.8884 369.4821,408.5848 369.2033,411.1792 z"
           style="font-size:12px;fill:url(#linearGradient2339);fill-rule:evenodd;stroke-width:1" /></g><g
         transform="translate(-14.76456,128.7468)"
         id="g823"><path
           transform="translate(18.30803,33.66315)"
           sodipodi:nodetypes="ccccc"
           id="path824"
           d="M 330.8196,407.0032 C 330.5409,409.5976 322.5838,421.6928 315.7735,420.9611 C 308.9632,420.2294 305.8784,406.9478 306.1572,404.3534 C 306.4359,401.7589 312.1828,400.249 318.9931,400.9807 C 325.8034,401.7124 331.0984,404.4088 330.8196,407.0032 z"
           style="font-size:12px;fill:url(#linearGradient2341);fill-rule:evenodd" /><path
           transform="translate(18.30803,33.66315)"
           sodipodi:nodetypes="ccccc"
           id="path825"
           d="M 487.3237,423.5394 C 487.045,426.1338 479.0879,438.229 472.2776,437.4973 C 465.4673,436.7656 462.3825,423.484 462.6613,420.8896 C 462.94,418.2951 468.6869,416.7852 475.4972,417.5169 C 482.3075,418.2486 487.6025,420.945 487.3237,423.5394 z"
           style="font-size:12px;fill:url(#linearGradient2343);fill-rule:evenodd" /><path
           transform="translate(18.30803,33.66315)"
           sodipodi:nodetypes="ccccc"
           id="path826"
           d="M 448.3452,419.4054 C 448.0665,421.9998 440.1094,434.095 433.2991,433.3633 C 426.4888,432.6316 423.404,419.35 423.6828,416.7556 C 423.9615,414.1611 429.7084,412.6512 436.5187,413.3829 C 443.329,414.1146 448.624,416.811 448.3452,419.4054 z"
           style="font-size:12px;fill:url(#linearGradient2345);fill-rule:evenodd" /><path
           transform="translate(18.30803,33.66315)"
           sodipodi:nodetypes="ccccc"
           id="path827"
           d="M 410.5481,415.2713 C 410.2694,417.8657 402.3123,429.9609 395.502,429.2292 C 388.6917,428.4975 385.6069,415.2159 385.8857,412.6215 C 386.1644,410.027 391.9113,408.5171 398.7216,409.2488 C 405.5319,409.9805 410.8269,412.6769 410.5481,415.2713 z"
           style="font-size:12px;fill:url(#linearGradient2347);fill-rule:evenodd" /><path
           transform="translate(18.30803,33.66315)"
           sodipodi:nodetypes="ccccc"
           id="path828"
           d="M 369.2033,411.1792 C 368.9246,413.7736 360.9675,425.8688 354.1572,425.1371 C 347.3469,424.4054 344.2621,411.1238 344.5409,408.5294 C 344.8196,405.9349 350.5665,404.425 357.3768,405.1567 C 364.1871,405.8884 369.4821,408.5848 369.2033,411.1792 z"
           style="font-size:12px;fill:url(#linearGradient2349);fill-rule:evenodd" /><path
           sodipodi:nodetypes="ccccc"
           id="path829"
           d="M 314.2833,437.1228 C 314.0046,439.7172 306.0475,451.8124 299.2372,451.0807 C 292.4269,450.349 289.3421,437.0674 289.6209,434.473 C 289.8996,431.8785 295.6465,430.3686 302.4568,431.1003 C 309.2671,431.832 314.5621,434.5284 314.2833,437.1228 z"
           style="font-size:12px;fill:url(#linearGradient2351);fill-rule:evenodd" /></g><g
         transform="translate(-18.89862,194.3013)"
         id="g830"><path
           sodipodi:nodetypes="ccccc"
           id="path831"
           d="M 330.8196,407.0032 C 330.5409,409.5976 322.5838,421.6928 315.7735,420.9611 C 308.9632,420.2294 305.8784,406.9478 306.1572,404.3534 C 306.4359,401.7589 312.1828,400.249 318.9931,400.9807 C 325.8034,401.7124 331.0984,404.4088 330.8196,407.0032 z"
           style="font-size:12px;fill:url(#linearGradient2353);fill-rule:evenodd;stroke-width:1" /><path
           sodipodi:nodetypes="ccccc"
           id="path832"
           d="M 487.3237,423.5394 C 487.045,426.1338 479.0879,438.229 472.2776,437.4973 C 465.4673,436.7656 462.3825,423.484 462.6613,420.8896 C 462.94,418.2951 468.6869,416.7852 475.4972,417.5169 C 482.3075,418.2486 487.6025,420.945 487.3237,423.5394 z"
           style="font-size:12px;fill:url(#linearGradient2355);fill-rule:evenodd;stroke-width:1" /><path
           sodipodi:nodetypes="ccccc"
           id="path833"
           d="M 448.3452,419.4054 C 448.0665,421.9998 440.1094,434.095 433.2991,433.3633 C 426.4888,432.6316 423.404,419.35 423.6828,416.7556 C 423.9615,414.1611 429.7084,412.6512 436.5187,413.3829 C 443.329,414.1146 448.624,416.811 448.3452,419.4054 z"
           style="font-size:12px;fill:url(#linearGradient2357);fill-rule:evenodd;stroke-width:1" /><path
           sodipodi:nodetypes="ccccc"
           id="path834"
           d="M 410.5481,415.2713 C 410.2694,417.8657 402.3123,429.9609 395.502,429.2292 C 388.6917,428.4975 385.6069,415.2159 385.8857,412.6215 C 386.1644,410.027 391.9113,408.5171 398.7216,409.2488 C 405.5319,409.9805 410.8269,412.6769 410.5481,415.2713 z"
           style="font-size:12px;fill:url(#linearGradient2359);fill-rule:evenodd;stroke-width:1" /><path
           sodipodi:nodetypes="ccccc"
           id="path835"
           d="M 369.2033,411.1792 C 368.9246,413.7736 360.9675,425.8688 354.1572,425.1371 C 347.3469,424.4054 344.2621,411.1238 344.5409,408.5294 C 344.8196,405.9349 350.5665,404.425 357.3768,405.1567 C 364.1871,405.8884 369.4821,408.5848 369.2033,411.1792 z"
           style="font-size:12px;fill:url(#linearGradient2361);fill-rule:evenodd;stroke-width:1" /></g><g
         transform="translate(-20.67036,196.6638)"
         id="g836"><path
           transform="translate(18.30803,33.66315)"
           sodipodi:nodetypes="ccccc"
           id="path837"
           d="M 330.8196,407.0032 C 330.5409,409.5976 322.5838,421.6928 315.7735,420.9611 C 308.9632,420.2294 305.8784,406.9478 306.1572,404.3534 C 306.4359,401.7589 312.1828,400.249 318.9931,400.9807 C 325.8034,401.7124 331.0984,404.4088 330.8196,407.0032 z"
           style="font-size:12px;fill:url(#linearGradient2363);fill-rule:evenodd" /><path
           transform="translate(18.30803,33.66315)"
           sodipodi:nodetypes="ccccc"
           id="path838"
           d="M 487.3237,423.5394 C 487.045,426.1338 479.0879,438.229 472.2776,437.4973 C 465.4673,436.7656 462.3825,423.484 462.6613,420.8896 C 462.94,418.2951 468.6869,416.7852 475.4972,417.5169 C 482.3075,418.2486 487.6025,420.945 487.3237,423.5394 z"
           style="font-size:12px;fill:url(#linearGradient2365);fill-rule:evenodd" /><path
           transform="translate(18.30803,33.66315)"
           sodipodi:nodetypes="ccccc"
           id="path839"
           d="M 448.3452,419.4054 C 448.0665,421.9998 440.1094,434.095 433.2991,433.3633 C 426.4888,432.6316 423.404,419.35 423.6828,416.7556 C 423.9615,414.1611 429.7084,412.6512 436.5187,413.3829 C 443.329,414.1146 448.624,416.811 448.3452,419.4054 z"
           style="font-size:12px;fill:url(#linearGradient2367);fill-rule:evenodd" /><path
           transform="translate(18.30803,33.66315)"
           sodipodi:nodetypes="ccccc"
           id="path840"
           d="M 410.5481,415.2713 C 410.2694,417.8657 402.3123,429.9609 395.502,429.2292 C 388.6917,428.4975 385.6069,415.2159 385.8857,412.6215 C 386.1644,410.027 391.9113,408.5171 398.7216,409.2488 C 405.5319,409.9805 410.8269,412.6769 410.5481,415.2713 z"
           style="font-size:12px;fill:url(#linearGradient2369);fill-rule:evenodd" /><path
           transform="translate(18.30803,33.66315)"
           sodipodi:nodetypes="ccccc"
           id="path841"
           d="M 369.2033,411.1792 C 368.9246,413.7736 360.9675,425.8688 354.1572,425.1371 C 347.3469,424.4054 344.2621,411.1238 344.5409,408.5294 C 344.8196,405.9349 350.5665,404.425 357.3768,405.1567 C 364.1871,405.8884 369.4821,408.5848 369.2033,411.1792 z"
           style="font-size:12px;fill:url(#linearGradient2371);fill-rule:evenodd" /><path
           sodipodi:nodetypes="ccccc"
           id="path842"
           d="M 314.2833,437.1228 C 314.0046,439.7172 306.0475,451.8124 299.2372,451.0807 C 292.4269,450.349 289.3421,437.0674 289.6209,434.473 C 289.8996,431.8785 295.6465,430.3686 302.4568,431.1003 C 309.2671,431.832 314.5621,434.5284 314.2833,437.1228 z"
           style="font-size:12px;fill:url(#linearGradient2373);fill-rule:evenodd" /></g><g
         transform="translate(-30.71029,263.99)"
         id="g843"><path
           sodipodi:nodetypes="ccccc"
           id="path844"
           d="M 330.8196,407.0032 C 330.5409,409.5976 322.5838,421.6928 315.7735,420.9611 C 308.9632,420.2294 305.8784,406.9478 306.1572,404.3534 C 306.4359,401.7589 312.1828,400.249 318.9931,400.9807 C 325.8034,401.7124 331.0984,404.4088 330.8196,407.0032 z"
           style="font-size:12px;fill:url(#linearGradient2375);fill-rule:evenodd;stroke-width:1" /><path
           sodipodi:nodetypes="ccccc"
           id="path845"
           d="M 487.3237,423.5394 C 487.045,426.1338 479.0879,438.229 472.2776,437.4973 C 465.4673,436.7656 462.3825,423.484 462.6613,420.8896 C 462.94,418.2951 468.6869,416.7852 475.4972,417.5169 C 482.3075,418.2486 487.6025,420.945 487.3237,423.5394 z"
           style="font-size:12px;fill:url(#linearGradient2377);fill-rule:evenodd;stroke-width:1" /><path
           sodipodi:nodetypes="ccccc"
           id="path846"
           d="M 448.3452,419.4054 C 448.0665,421.9998 440.1094,434.095 433.2991,433.3633 C 426.4888,432.6316 423.404,419.35 423.6828,416.7556 C 423.9615,414.1611 429.7084,412.6512 436.5187,413.3829 C 443.329,414.1146 448.624,416.811 448.3452,419.4054 z"
           style="font-size:12px;fill:url(#linearGradient2379);fill-rule:evenodd;stroke-width:1" /><path
           sodipodi:nodetypes="ccccc"
           id="path847"
           d="M 410.5481,415.2713 C 410.2694,417.8657 402.3123,429.9609 395.502,429.2292 C 388.6917,428.4975 385.6069,415.2159 385.8857,412.6215 C 386.1644,410.027 391.9113,408.5171 398.7216,409.2488 C 405.5319,409.9805 410.8269,412.6769 410.5481,415.2713 z"
           style="font-size:12px;fill:url(#linearGradient2381);fill-rule:evenodd;stroke-width:1" /><path
           sodipodi:nodetypes="ccccc"
           id="path848"
           d="M 369.2033,411.1792 C 368.9246,413.7736 360.9675,425.8688 354.1572,425.1371 C 347.3469,424.4054 344.2621,411.1238 344.5409,408.5294 C 344.8196,405.9349 350.5665,404.425 357.3768,405.1567 C 364.1871,405.8884 369.4821,408.5848 369.2033,411.1792 z"
           style="font-size:12px;fill:url(#linearGradient2383);fill-rule:evenodd;stroke-width:1" /></g><g
         id="g959"><path
           transform="translate(3.543472,1.181152)"
           sodipodi:nodetypes="ccccc"
           id="path768"
           d="M 330.8196,407.0032 C 330.5409,409.5976 322.5838,421.6928 315.7735,420.9611 C 308.9632,420.2294 305.8784,406.9478 306.1572,404.3534 C 306.4359,401.7589 312.1828,400.249 318.9931,400.9807 C 325.8034,401.7124 331.0984,404.4088 330.8196,407.0032 z"
           style="font-size:12px;fill:url(#linearGradient2385);fill-rule:evenodd" /><path
           transform="translate(3.543472,1.181152)"
           sodipodi:nodetypes="ccccc"
           id="path769"
           d="M 487.3237,423.5394 C 487.045,426.1338 479.0879,438.229 472.2776,437.4973 C 465.4673,436.7656 462.3825,423.484 462.6613,420.8896 C 462.94,418.2951 468.6869,416.7852 475.4972,417.5169 C 482.3075,418.2486 487.6025,420.945 487.3237,423.5394 z"
           style="font-size:12px;fill:url(#linearGradient2387);fill-rule:evenodd" /><path
           transform="translate(3.543472,1.181152)"
           sodipodi:nodetypes="ccccc"
           id="path770"
           d="M 448.3452,419.4054 C 448.0665,421.9998 440.1094,434.095 433.2991,433.3633 C 426.4888,432.6316 423.404,419.35 423.6828,416.7556 C 423.9615,414.1611 429.7084,412.6512 436.5187,413.3829 C 443.329,414.1146 448.624,416.811 448.3452,419.4054 z"
           style="font-size:12px;fill:url(#linearGradient2389);fill-rule:evenodd" /><path
           transform="translate(3.543472,1.181152)"
           sodipodi:nodetypes="ccccc"
           id="path771"
           d="M 410.5481,415.2713 C 410.2694,417.8657 402.3123,429.9609 395.502,429.2292 C 388.6917,428.4975 385.6069,415.2159 385.8857,412.6215 C 386.1644,410.027 391.9113,408.5171 398.7216,409.2488 C 405.5319,409.9805 410.8269,412.6769 410.5481,415.2713 z"
           style="font-size:12px;fill:url(#linearGradient2391);fill-rule:evenodd" /><path
           transform="translate(3.543472,1.181152)"
           sodipodi:nodetypes="ccccc"
           id="path772"
           d="M 369.2033,411.1792 C 368.9246,413.7736 360.9675,425.8688 354.1572,425.1371 C 347.3469,424.4054 344.2621,411.1238 344.5409,408.5294 C 344.8196,405.9349 350.5665,404.425 357.3768,405.1567 C 364.1871,405.8884 369.4821,408.5848 369.2033,411.1792 z"
           style="font-size:12px;fill:url(#linearGradient2393);fill-rule:evenodd" /></g></g><path
       sodipodi:nodetypes="csssscssssccccssssccsssssscccc"
       id="path1035"
       d="M 438.7568,269.4556 C 438.7568,275.4794 433.1069,280.2887 427.2172,280.064 C 419.7896,279.8121 414.1903,274.4997 416.0896,266.0609 C 416.9318,260.4881 423.015,257.574 426.8049,257.5741 C 433.8919,258.4229 438.7568,261.3099 438.7568,269.4556 z M 547.662,259.6689 L 400.6613,244.9083 C 390.7066,243.9087 380.1774,250.6683 379.0867,260.6166 L 378.6427,264.6664 C 377.298,276.9318 385.7875,287.7801 394.4638,288.7124 L 504.4569,300.5321 C 519.5853,302.3389 531.9203,315.7368 530.9985,328.077 L 529.1115,349.9416 C 528.335,360.336 512.8512,374.1157 502.7909,372.9398 L 387.139,360.4665 C 381.9668,359.9087 376.6913,364.3779 375.9942,369.6844 L 375.5658,372.9456 C 374.8619,378.303 380.5606,383.0267 385.7818,383.5933 L 502.9143,396.3043 C 512.5498,397.2021 522.4042,406.0621 521.3766,415.9674 L 491.0564,714.5283 C 490.4237,720.7582 483.3072,729.1127 477.2472,728.5624 L 347.1917,716.7523 C 343.3528,716.4037 339.53,719.4401 339.2113,723.3947 L 338.1778,736.2184 C 337.7933,740.9904 343.8412,743.4425 348.467,743.9299 L 494.8661,759.3557 C 506.4984,760.4872 520.234,746.4384 521.4176,733.5402 L 567.0963,292.6712 C 568.2798,279.7727 564.4567,261.9815 547.662,259.6689 z"
       style="font-size:12px;fill:url(#linearGradient2395);fill-rule:evenodd;stroke-width:1" /><path
       sodipodi:nodetypes="ccccccccc"
       id="path1037"
       d="M 351.5767,252.728 C 338.9524,252.728 328.7893,262.8911 328.7893,275.5154 L 328.7893,296.6755 C 328.7893,309.2998 338.9524,319.4629 351.5767,319.4629 L 382.3316,319.4629 C 341.2958,320.0068 333.182,310.3478 333.041,296.4564 L 332.5722,274.9151 C 332.9952,266.0921 333.9377,252.2826 382.3316,252.728 L 351.5767,252.728 z"
       style="font-size:12px;fill:url(#linearGradient2397);fill-opacity:1;fill-rule:evenodd"
       transform="matrix(0.995278,9.706071e-2,-0.11077,0.993846,0,0)" /></g></svg>