<?xml version="1.0" encoding="UTF-8" standalone="no"?>
<!-- Created with Sodipodi ("http://www.sodipodi.com/") -->
<svg
   xmlns:dc="http://purl.org/dc/elements/1.1/"
   xmlns:cc="http://creativecommons.org/ns#"
   xmlns:rdf="http://www.w3.org/1999/02/22-rdf-syntax-ns#"
   xmlns:svg="http://www.w3.org/2000/svg"
   xmlns="http://www.w3.org/2000/svg"
   xmlns:xlink="http://www.w3.org/1999/xlink"
   xmlns:sodipodi="http://sodipodi.sourceforge.net/DTD/sodipodi-0.dtd"
   xmlns:inkscape="http://www.inkscape.org/namespaces/inkscape"
   inkscape:export-ydpi="30.299999"
   inkscape:export-xdpi="30.299999"
   inkscape:export-filename="/home/bruno/Projets/gcompris/gcompris-ressources/Gcompris_contrib/SVG/tennis.png"
   inkscape:version="0.46"
   sodipodi:docname="tennis.svg"
   sodipodi:docbase="/home/bruno/Projets/gcompris/gcompris-ressources/Gcompris_contrib/SVG"
   xml:space="preserve"
   height="142.02859"
   width="185.31114"
   sodipodi:version="0.32"
   id="svg1065"
   inkscape:output_extension="org.inkscape.output.svg.inkscape"
   version="1.0">
  <metadata
   id="metadata2193">
    <rdf:RDF>
      <cc:Work
   rdf:about="">
        <dc:format>image/svg+xml</dc:format>
        <dc:type
   rdf:resource="http://purl.org/dc/dcmitype/StillImage" />
      </cc:Work>
    </rdf:RDF>
  </metadata>
  <defs
   id="defs1067"><inkscape:perspective
   sodipodi:type="inkscape:persp3d"
   inkscape:vp_x="0 : 526.18109 : 1"
   inkscape:vp_y="0 : 1000 : 0"
   inkscape:vp_z="744.09448 : 526.18109 : 1"
   inkscape:persp3d-origin="372.04724 : 350.78739 : 1"
   id="perspective65" />
    <linearGradient
   id="linearGradient660">
      <stop
   id="stop661"
   offset="0"
   style="stop-color:#5a3a00;stop-opacity:1;" />
      <stop
   id="stop662"
   offset="1"
   style="stop-color:#b55700;stop-opacity:1;" />
    </linearGradient>
    <linearGradient
   id="linearGradient618">
      <stop
   id="stop619"
   offset="0"
   style="stop-color:#002fff;stop-opacity:1;" />
      <stop
   id="stop620"
   offset="1"
   style="stop-color:#00d2ff;stop-opacity:1;" />
    </linearGradient>
    <linearGradient
   id="linearGradient610">
      <stop
   id="stop611"
   offset="0"
   style="stop-color:#666767;stop-opacity:1;" />
      <stop
   id="stop612"
   offset="1"
   style="stop-color:#f3f2f2;stop-opacity:1;" />
    </linearGradient>
    <linearGradient
   y2="460.67682"
   x2="620.09906"
   y1="291.65118"
   x1="104.97143"
   id="linearGradient613"
   xlink:href="#linearGradient610"
   gradientTransform="matrix(1.090974,0,0,0.9166122,-38.419175,-255.59319)"
   gradientUnits="userSpaceOnUse" />
    <linearGradient
   y2="612.43427"
   x2="94.860718"
   y1="612.43427"
   x1="56.804844"
   id="linearGradient617"
   xlink:href="#linearGradient618"
   gradientTransform="matrix(0.9167314,1.8101687e-2,-2.1531061e-2,1.0904066,-38.419175,-255.59319)"
   gradientUnits="userSpaceOnUse" />
    <radialGradient
   fy="84.237411"
   fx="647.54254"
   r="314.27206"
   cy="84.237411"
   cx="647.54254"
   id="radialGradient621"
   xlink:href="#linearGradient618"
   gradientTransform="matrix(0.5007905,0.6457521,-0.9670034,0.7499258,-38.419175,-255.59319)"
   gradientUnits="userSpaceOnUse" />
    <linearGradient
   y2="697.01044"
   x2="69.677185"
   y1="697.01044"
   x1="43.973091"
   id="linearGradient659"
   xlink:href="#linearGradient660"
   gradientTransform="matrix(1.0549791,0,0,0.9478861,-38.419175,-255.59319)"
   gradientUnits="userSpaceOnUse" />
  <linearGradient
   inkscape:collect="always"
   xlink:href="#linearGradient660"
   id="linearGradient2438"
   x1="102.09601"
   y1="501.86938"
   x2="148.66516"
   y2="501.86938"
   gradientTransform="matrix(0.7967233,0,0,1.2551409,-38.419175,-255.59319)"
   gradientUnits="userSpaceOnUse" /><linearGradient
   inkscape:collect="always"
   xlink:href="#linearGradient660"
   id="linearGradient2440"
   x1="180.73508"
   y1="486.52179"
   x2="214.42944"
   y2="486.52179"
   gradientTransform="matrix(0.8117384,0,0,1.231924,-38.419175,-255.59319)"
   gradientUnits="userSpaceOnUse" /><linearGradient
   inkscape:collect="always"
   xlink:href="#linearGradient660"
   id="linearGradient2442"
   x1="154.63251"
   y1="484.70239"
   x2="200.81082"
   y2="484.70239"
   gradientTransform="matrix(0.8082324,0,0,1.2372679,-38.419175,-255.59319)"
   gradientUnits="userSpaceOnUse" /><linearGradient
   inkscape:collect="always"
   xlink:href="#linearGradient660"
   id="linearGradient2444"
   x1="74.654968"
   y1="509.15399"
   x2="122.01689"
   y2="509.15399"
   gradientTransform="matrix(0.7888078,0,0,1.267736,-38.419175,-255.59319)"
   gradientUnits="userSpaceOnUse" /><linearGradient
   inkscape:collect="always"
   xlink:href="#linearGradient660"
   id="linearGradient2446"
   x1="128.54153"
   y1="493.01468"
   x2="174.81496"
   y2="493.01468"
   gradientTransform="matrix(0.8018645,0,0,1.2470934,-38.419175,-255.59319)"
   gradientUnits="userSpaceOnUse" /></defs>
  <sodipodi:namedview
   inkscape:current-layer="svg1065"
   inkscape:window-y="73"
   inkscape:window-x="10"
   inkscape:window-height="719"
   inkscape:window-width="641"
   inkscape:cy="56.634885"
   inkscape:cx="295.40209"
   inkscape:zoom="0.37439583"
   id="base"
   showgrid="false" />
  
  
  
  
  
  
  
  
  
  
  
  
  
  
  
  
  
  
  
  
  
  
  
  
  
  
  
  
  
  
  
  
  
  
  
  
  
  
  
  
  
  
  
  
  
  <g
   id="g2448"
   transform="scale(0.3119876,0.3119876)"><path
     style="font-size:12px;fill:#808080;fill-rule:evenodd;stroke-width:1"
     d="M 348.1657,51.161217 C 260.9091,97.753794 242.82187,185.1014 261.28275,230.50549 C 216.26769,174.01427 261.9766,80.584061 355.07959,29.815372 C 442.33604,-16.777242 585.70463,-8.9111008 585.61849,98.527961 C 555.46486,1.3408921 435.42209,4.5685164 348.1657,51.161217 z"
     id="path609"
     sodipodi:nodetypes="ccccc" /><path
     style="font-size:12px;fill:url(#linearGradient613);fill-rule:evenodd;stroke-width:1"
     d="M 573.90743,51.156406 C 607.90413,108.97151 564.10123,194.05341 476.07073,241.19201 C 388.04023,288.33061 289.11753,279.67561 255.12093,221.86051 C 221.12413,164.04541 264.92733,78.963606 352.95773,31.825006 C 440.98823,-15.313594 539.91073,-6.658594 573.90743,51.156406 z M 585.98883,65.957006 C 610.88803,137.28571 577.80493,209.91481 482.79943,263.22531 C 387.79413,316.53571 316.49613,310.71861 260.63993,257.92621 C 207.29083,207.45751 244.22203,86.705606 347.49553,31.032806 C 442.50093,-22.277594 560.22723,-4.499894 585.98883,65.957006 z"
     id="path1074"
     sodipodi:nodetypes="ccscsccscc" /><path
     style="font-size:12px;fill:url(#radialGradient621);fill-opacity:1;fill-rule:evenodd"
     d="M 241.57426,157.4854 C 217.20575,235.97636 169.76176,283.61133 89.232385,364.93762 C 107.86356,339.24955 131.21927,371.43829 120.32143,383.54733 C 216.20587,332.93133 326.95609,307.46569 410.05035,293.40639 C 401.97593,282.05194 401.41847,272.36832 411.71871,266.02518 C 385.45346,272.86334 335.84571,276.04589 302.29453,261.42781 C 295.54155,263.72376 291.75854,272.63602 292.42537,280.13237 C 297.88535,284.39699 298.13602,289.17009 272.50606,295.35307 C 230.25831,308.41683 196.38435,318.76642 157.52116,335.8008 C 153.99143,336.82205 150.11089,335.48533 152.0048,333.42863 C 181.3705,300.36818 207.15786,270.17174 219.47258,253.24036 C 225.63011,244.77473 235.67046,238.78083 251.182,246.11618 C 245.32124,238.25548 244.63158,229.03996 258.21609,225.06886 C 252.70673,192.74572 255.03004,185.2387 256.90145,172.82915 C 257.55736,159.66954 250.68785,154.25737 241.57426,157.4854 z"
     id="path1070"
     sodipodi:nodetypes="ccccccccccscccc" /><path
     style="font-size:12px;fill:#808080;fill-rule:evenodd"
     d="M 133.52645,355.59858 C 129.49686,348.46443 111.4401,341.6923 108.26981,344.36628 L 7.1577659,414.3359 C 4.5470789,416.30795 0.21997331,422.96278 5.5813364,420.48962 C 10.762881,419.61984 23.339452,422.07263 26.633571,427.20085 C 30.804645,434.35408 31.02407,449.39017 27.703533,453.77301 L 130.61917,379.60018 C 131.32342,378.89914 132.7212,378.03315 132.93386,376.90828 C 136.97957,371.18198 135.21434,358.16324 133.52645,355.59858 z"
     id="path614"
     sodipodi:nodetypes="ccccscccs" /><path
     style="font-size:12px;fill:url(#linearGradient617);fill-opacity:1;fill-rule:evenodd"
     d="M 12.364943,414.06783 C 6.5171294,411.0694 0.42830171,419.12386 0.27071028,425.69363 L 0.0030704636,436.85142 C -0.15452293,443.42129 5.7811073,445.94716 11.628929,448.94569 L 22.641189,454.5923 C 28.489011,457.59083 34.577832,449.53617 34.735426,442.9663 L 35.003075,431.80851 C 35.160655,425.23884 29.225039,422.71277 23.377195,419.71433 L 12.364943,414.06783 z"
     id="path616"
     sodipodi:nodetypes="cssssssss" /><path
     style="fill:none;fill-opacity:1;fill-rule:evenodd;stroke:#000000;stroke-width:1pt;stroke-linecap:butt;stroke-linejoin:miter;stroke-opacity:1"
     d="M 253.55303,174.12111 L 482.92683,13.851206"
     id="path622"
     sodipodi:nodetypes="cc" /><path
     style="fill:none;fill-opacity:1;fill-rule:evenodd;stroke:#000000;stroke-width:1pt;stroke-linecap:butt;stroke-linejoin:miter;stroke-opacity:1"
     d="M 251.15653,191.17021 L 502.86893,15.545806"
     id="path623"
     sodipodi:nodetypes="cc" /><path
     style="fill:none;fill-opacity:1;fill-rule:evenodd;stroke:#000000;stroke-width:1pt;stroke-linecap:butt;stroke-linejoin:miter;stroke-opacity:1"
     d="M 253.45033,206.52471 L 515.72393,20.629706"
     id="path624"
     sodipodi:nodetypes="cc" /><path
     style="fill:none;fill-opacity:1;fill-rule:evenodd;stroke:#000000;stroke-width:1pt;stroke-linecap:butt;stroke-linejoin:miter;stroke-opacity:1"
     d="M 256.83943,220.28731 L 531.07843,26.911706"
     id="path625"
     sodipodi:nodetypes="cc" /><path
     style="fill:none;fill-opacity:1;fill-rule:evenodd;stroke:#000000;stroke-width:1pt;stroke-linecap:butt;stroke-linejoin:miter;stroke-opacity:1"
     d="M 263.61803,232.74891 L 544.03633,33.690506"
     id="path626"
     sodipodi:nodetypes="cc" /><path
     style="fill:none;fill-opacity:1;fill-rule:evenodd;stroke:#000000;stroke-width:1pt;stroke-linecap:butt;stroke-linejoin:miter;stroke-opacity:1"
     d="M 273.08393,241.82111 L 555.79593,42.163506"
     id="path627"
     sodipodi:nodetypes="cc" /><path
     style="fill:none;fill-opacity:1;fill-rule:evenodd;stroke:#000000;stroke-width:1pt;stroke-linecap:butt;stroke-linejoin:miter;stroke-opacity:1"
     d="M 284.24433,250.29431 L 563.17353,52.827606"
     id="path628"
     sodipodi:nodetypes="cc" /><path
     style="fill:none;fill-opacity:1;fill-rule:evenodd;stroke:#000000;stroke-width:1pt;stroke-linecap:butt;stroke-linejoin:miter;stroke-opacity:1"
     d="M 297.39003,256.86711 L 571.15033,63.594406"
     id="path629"
     sodipodi:nodetypes="cc" /><path
     style="fill:none;fill-opacity:1;fill-rule:evenodd;stroke:#000000;stroke-width:1pt;stroke-linecap:butt;stroke-linejoin:miter;stroke-opacity:1"
     d="M 310.63873,263.85131 L 578.03163,75.953306"
     id="path630"
     sodipodi:nodetypes="cc" /><path
     style="fill:none;fill-opacity:1;fill-rule:evenodd;stroke:#000000;stroke-width:1pt;stroke-linecap:butt;stroke-linejoin:miter;stroke-opacity:1"
     d="M 327.07113,268.54161 L 581.81443,90.109406"
     id="path631"
     sodipodi:nodetypes="cc" /><path
     style="fill:none;fill-opacity:1;fill-rule:evenodd;stroke:#000000;stroke-width:1pt;stroke-linecap:butt;stroke-linejoin:miter;stroke-opacity:1"
     d="M 347.50943,270.33911 L 584.10813,103.85431"
     id="path632"
     sodipodi:nodetypes="cc" /><path
     style="fill:none;fill-opacity:1;fill-rule:evenodd;stroke:#000000;stroke-width:1pt;stroke-linecap:butt;stroke-linejoin:miter;stroke-opacity:1"
     d="M 255.84693,156.88411 L 460.19483,13.954106"
     id="path633"
     sodipodi:nodetypes="cc" /><path
     style="fill:none;fill-opacity:1;fill-rule:evenodd;stroke:#000000;stroke-width:1pt;stroke-linecap:butt;stroke-linejoin:miter;stroke-opacity:1"
     d="M 369.59613,271.32201 L 581.09303,122.13581"
     id="path635"
     sodipodi:nodetypes="cc" /><path
     style="fill:none;fill-opacity:1;fill-rule:evenodd;stroke:#000000;stroke-width:1pt;stroke-linecap:butt;stroke-linejoin:miter;stroke-opacity:1"
     d="M 311.52153,68.926106 L 506.40383,221.01901"
     id="path636" /><path
     style="fill:none;fill-opacity:1;fill-rule:evenodd;stroke:#000000;stroke-width:1pt;stroke-linecap:butt;stroke-linejoin:miter;stroke-opacity:1"
     d="M 302.62473,77.822906 L 495.81243,229.06851"
     id="path637" /><path
     style="fill:none;fill-opacity:1;fill-rule:evenodd;stroke:#000000;stroke-width:1pt;stroke-linecap:butt;stroke-linejoin:miter;stroke-opacity:1"
     d="M 293.30433,86.296106 L 484.37363,235.84701"
     id="path638"
     sodipodi:nodetypes="cc" /><path
     style="fill:none;fill-opacity:1;fill-rule:evenodd;stroke:#000000;stroke-width:1pt;stroke-linecap:butt;stroke-linejoin:miter;stroke-opacity:1"
     d="M 285.67853,95.616606 L 473.35853,243.04921"
     id="path639" /><path
     style="fill:none;fill-opacity:1;fill-rule:evenodd;stroke:#000000;stroke-width:1pt;stroke-linecap:butt;stroke-linejoin:miter;stroke-opacity:1"
     d="M 278.47633,105.36071 L 461.07253,248.98041"
     id="path640"
     sodipodi:nodetypes="cc" /><path
     style="fill:none;fill-opacity:1;fill-rule:evenodd;stroke:#000000;stroke-width:1pt;stroke-linecap:butt;stroke-linejoin:miter;stroke-opacity:1"
     d="M 272.96873,115.95211 L 446.24453,254.06431"
     id="path641" /><path
     style="fill:none;fill-opacity:1;fill-rule:evenodd;stroke:#000000;stroke-width:1pt;stroke-linecap:butt;stroke-linejoin:miter;stroke-opacity:1"
     d="M 266.61393,126.54351 L 433.11113,260.41921"
     id="path642" /><path
     style="fill:none;fill-opacity:1;fill-rule:evenodd;stroke:#000000;stroke-width:1pt;stroke-linecap:butt;stroke-linejoin:miter;stroke-opacity:1"
     d="M 260.68273,139.67691 L 416.58853,264.23211"
     id="path643" /><path
     style="fill:none;fill-opacity:1;fill-rule:evenodd;stroke:#000000;stroke-width:1pt;stroke-linecap:butt;stroke-linejoin:miter;stroke-opacity:1"
     d="M 322.53663,60.452906 L 516.14793,212.96951"
     id="path644"
     sodipodi:nodetypes="cc" /><path
     style="fill:none;fill-opacity:1;fill-rule:evenodd;stroke:#000000;stroke-width:1pt;stroke-linecap:butt;stroke-linejoin:miter;stroke-opacity:1"
     d="M 333.55173,52.827206 L 526.73933,204.49641"
     id="path645"
     sodipodi:nodetypes="cc" /><path
     style="fill:none;fill-opacity:1;fill-rule:evenodd;stroke:#000000;stroke-width:1pt;stroke-linecap:butt;stroke-linejoin:miter;stroke-opacity:1"
     d="M 345.83783,45.625106 L 536.48343,195.17601"
     id="path646"
     sodipodi:nodetypes="cc" /><path
     style="fill:none;fill-opacity:1;fill-rule:evenodd;stroke:#000000;stroke-width:1pt;stroke-linecap:butt;stroke-linejoin:miter;stroke-opacity:1"
     d="M 358.54743,38.846406 L 544.53293,185.43191"
     id="path647"
     sodipodi:nodetypes="cc" /><path
     style="fill:none;fill-opacity:1;fill-rule:evenodd;stroke:#000000;stroke-width:1pt;stroke-linecap:butt;stroke-linejoin:miter;stroke-opacity:1"
     d="M 372.10453,32.915306 L 553.00603,175.68771"
     id="path648"
     sodipodi:nodetypes="cc" /><path
     style="fill:none;fill-opacity:1;fill-rule:evenodd;stroke:#000000;stroke-width:1pt;stroke-linecap:butt;stroke-linejoin:miter;stroke-opacity:1"
     d="M 385.66153,26.984106 L 560.63193,165.09631"
     id="path649" /><path
     style="fill:none;fill-opacity:1;fill-rule:evenodd;stroke:#000000;stroke-width:1pt;stroke-linecap:butt;stroke-linejoin:miter;stroke-opacity:1"
     d="M 399.21853,21.900206 L 567.41043,154.08121"
     id="path650" /><path
     style="fill:none;fill-opacity:1;fill-rule:evenodd;stroke:#000000;stroke-width:1pt;stroke-linecap:butt;stroke-linejoin:miter;stroke-opacity:1"
     d="M 416.58853,18.510906 L 573.34163,141.79521"
     id="path651" /><path
     style="fill:none;fill-opacity:1;fill-rule:evenodd;stroke:#000000;stroke-width:1pt;stroke-linecap:butt;stroke-linejoin:miter;stroke-opacity:1"
     d="M 433.95843,15.121706 L 578.84913,129.50911"
     id="path652"
     sodipodi:nodetypes="cc" /><path
     style="fill:none;fill-opacity:1;fill-rule:evenodd;stroke:#000000;stroke-width:1pt;stroke-linecap:butt;stroke-linejoin:miter;stroke-opacity:1"
     d="M 458.95433,14.697806 L 582.66223,111.29171"
     id="path653" /><path
     style="fill:none;fill-opacity:1;fill-rule:evenodd;stroke:#000000;stroke-width:1pt;stroke-linecap:butt;stroke-linejoin:miter;stroke-opacity:1"
     d="M 259.83553,139.25301 L 433.53493,15.545206"
     id="path654" /><path
     style="fill:none;fill-opacity:1;fill-rule:evenodd;stroke:#000000;stroke-width:1pt;stroke-linecap:butt;stroke-linejoin:miter;stroke-opacity:1"
     d="M 400.19893,268.04481 L 572.41563,144.97231"
     id="path655"
     sodipodi:nodetypes="cc" /><path
     style="font-size:12px;fill:url(#linearGradient2438);fill-rule:evenodd"
     d="M 64.829125,374.50631 L 42.923095,389.63411 C 45.712195,388.08061 54.459235,406.19921 55.950635,409.54601 C 56.963135,412.72041 58.862705,431.64471 56.567905,432.77451 L 79.383425,416.25181 C 80.654425,414.41591 79.868625,398.04311 78.510325,394.71791 C 76.860225,391.63871 67.653525,372.24681 64.829125,374.50631 z"
     id="path663"
     sodipodi:nodetypes="ccsccsc" /><path
     style="font-size:12px;fill:url(#linearGradient2440);fill-rule:evenodd"
     d="M 108.29043,344.02901 C 111.07953,343.74651 120.54983,359.59701 122.04123,362.94381 C 123.05373,366.11821 124.65373,384.14371 122.35893,385.27361 L 131.06523,379.17121 C 137.12493,375.58941 136.10983,358.02861 134.00943,354.89421 C 132.39833,351.88251 115.29583,342.03481 108.29043,344.02901 z"
     id="path669"
     sodipodi:nodetypes="csccsc" /><path
     style="font-size:12px;fill:url(#linearGradient2442);fill-rule:evenodd"
     d="M 107.74263,344.30271 L 86.559825,359.55451 C 89.348925,358.00101 98.519625,375.27231 100.01103,378.61911 C 101.02353,381.79351 102.62353,400.11871 100.32873,401.24851 L 123.14423,384.72571 C 124.41523,382.88981 123.92903,367.11621 122.57073,363.79101 C 120.92063,360.71181 110.56703,342.04321 107.74263,344.30271 z"
     id="path670"
     sodipodi:nodetypes="ccsccsc" /><path
     style="font-size:12px;fill:url(#linearGradient2444);fill-rule:evenodd"
     d="M 43.346675,390.05771 L 20.469245,405.30951 C 23.258345,403.75601 32.878405,423.79611 34.369805,427.14291 C 35.382305,430.31741 35.035085,448.79231 32.740295,449.92211 L 56.903845,432.50071 C 58.174845,430.66471 58.138025,414.14221 56.779725,410.81701 C 55.129635,407.73781 46.171085,387.79821 43.346675,390.05771 z"
     id="path671"
     sodipodi:nodetypes="ccsccsc" /><path
     style="font-size:12px;fill:url(#linearGradient2446);fill-rule:evenodd"
     d="M 86.559725,359.43021 L 64.653725,374.50661 C 67.442825,372.95311 76.489425,390.52401 77.980825,393.87081 C 78.993325,397.04521 80.892925,415.81971 78.598125,416.94951 L 100.96423,400.57651 C 102.23523,398.74071 101.89883,382.36791 100.54053,379.04271 C 98.890425,375.96351 89.384125,357.17081 86.559725,359.43021 z"
     id="path672"
     sodipodi:nodetypes="ccsccsc" /><path
     style="font-size:12px;fill:url(#linearGradient659);fill-rule:evenodd"
     d="M 20.893015,405.09741 L 7.9715154,413.57061 C 10.760615,412.01721 25.287965,420.45721 28.836695,422.46751 C 31.418895,424.02321 33.143825,426.42171 35.085585,429.45791 C 35.297405,427.55151 24.988375,404.74431 20.893015,405.09741 z"
     id="path673"
     sodipodi:nodetypes="ccscc" /><path
     style="font-size:52px;font-weight:normal;opacity:0.03159999;fill:#ffffff;font-family:Captain Podd"
     d="M 438.77473,97.545606 L 426.81563,87.727406 C 423.35703,84.888006 418.65783,84.450106 412.71793,86.413906 C 406.85103,88.437606 399.48863,92.409306 390.63113,98.329306 C 380.46133,105.12641 374.19053,110.89001 371.81863,115.62021 C 370.83323,117.57991 370.44953,119.21921 370.66693,120.53771 C 371.03023,121.81321 372.12193,123.19801 373.94223,124.69251 L 380.76823,130.29651 C 381.13243,130.59551 383.28033,132.35891 387.21213,135.58681 C 391.14383,138.81461 394.82093,141.83351 398.24303,144.64291 C 401.66523,147.45251 403.81293,149.21571 404.68683,149.93311 C 405.56043,150.65041 403.13953,148.66291 397.42373,143.97031 L 410.52993,154.73021 L 412.87813,156.65801 C 412.95073,156.71771 413.02373,156.77751 413.09663,156.83741 C 413.16933,156.89711 413.26023,156.97181 413.36953,157.06151 C 413.44243,157.12131 413.51513,157.18101 413.58803,157.24091 C 413.66073,157.30051 413.75173,157.37521 413.86093,157.46491 L 428.65993,169.61461 C 430.55313,171.00601 434.23343,169.95591 439.70103,166.46431 C 445.16853,162.97281 447.24723,160.20061 445.93763,158.14821 L 413.88243,131.83161 C 411.11533,129.88561 413.17623,126.61021 420.06543,122.00571 C 426.51723,117.69361 430.92663,116.34621 433.29323,117.96351 L 433.40253,118.05321 L 464.20123,143.58261 C 467.91483,146.46851 467.80193,150.69181 463.86293,156.25251 C 459.92383,161.81321 454.38193,167.03521 447.23763,171.91881 C 440.12963,176.83231 432.62183,180.52181 424.71423,182.98731 C 416.80673,185.45291 410.83263,185.02701 406.79153,181.70941 L 393.35783,170.68061 L 393.19403,170.54601 L 377.24823,157.45491 L 361.52103,144.54321 L 352.78363,137.37001 C 349.61643,134.76981 348.08863,132.04971 348.20023,129.20981 C 348.20263,126.44311 349.95413,122.83231 353.45533,118.37781 C 359.83763,110.09991 369.91793,101.35641 383.69633,92.147406 C 400.53663,80.892006 414.73213,73.816906 426.28293,70.922406 C 430.94723,69.702806 434.84553,69.401706 437.97793,70.019006 C 441.11063,70.473706 444.15153,71.911606 447.10013,74.332306 L 457.20283,82.626406 L 458.95023,84.061006 L 472.00183,94.776106 L 508.42553,124.67921 C 509.48133,125.54601 509.75343,126.82801 509.24203,128.52541 C 508.87633,130.17951 506.67063,132.35881 502.62453,135.06301 C 495.73533,139.66751 491.10773,140.83561 488.74143,138.56721 C 487.43103,137.49141 483.73583,134.45771 477.65593,129.46631 C 471.61253,124.50481 465.75143,119.69291 460.07213,115.03041 C 454.42933,110.39771 450.26073,106.97541 447.56673,104.76361 C 444.90903,102.58181 446.32903,103.74751 451.82623,108.26061 L 438.77473,97.545606 z M 574.40223,64.520106 C 603.01423,108.45461 568.57463,202.21591 447.94133,253.94951 C 360.18183,291.82931 276.53473,263.10171 260.61773,225.01461 C 233.23913,160.86531 275.24963,76.019606 367.58933,34.994706 C 459.72773,-5.351394 535.86973,6.549006 574.40223,64.520106 z"
     id="path770" /><path
     style="font-size:52px;font-weight:normal;opacity:0.5406977;fill:#50bec3;fill-opacity:1;font-family:Captain Podd"
     d="M 438.29948,99.091296 L 426.34038,89.273096 C 422.88178,86.433696 418.18258,85.995796 412.24268,87.959596 C 406.37578,89.983296 399.01338,93.954996 390.15588,99.874996 C 379.98608,106.6721 373.71528,112.4357 371.34338,117.1659 C 370.35798,119.1256 369.97428,120.7649 370.19168,122.0834 C 370.55498,123.3589 371.64668,124.7437 373.46698,126.2382 L 380.29298,131.8422 C 380.65718,132.1412 382.80508,133.9046 386.73688,137.1325 C 390.66858,140.3603 394.34568,143.3792 397.76778,146.1886 C 401.18998,148.9982 403.33768,150.7614 404.21158,151.4788 C 405.08518,152.1961 402.66428,150.2086 396.94848,145.516 L 410.05468,156.2759 L 412.40288,158.2037 C 412.47548,158.2634 412.54848,158.3232 412.62138,158.3831 C 412.69408,158.4428 412.78498,158.5175 412.89428,158.6072 C 412.96718,158.667 413.03988,158.7267 413.11278,158.7866 C 413.18548,158.8462 413.27648,158.9209 413.38568,159.0106 L 428.18468,171.1603 C 430.07788,172.5517 433.75818,171.5016 439.22578,168.01 C 444.69328,164.5185 446.77198,161.7463 445.46238,159.6939 L 413.40718,133.3773 C 410.64008,131.4313 412.70098,128.1559 419.59018,123.5514 C 426.04198,119.2393 430.45138,117.8919 432.81798,119.5092 L 432.92728,119.5989 L 463.72598,145.1283 C 467.43958,148.0142 467.32668,152.2375 463.38768,157.7982 C 459.44858,163.3589 453.90668,168.5809 446.76238,173.4645 C 439.65438,178.378 432.14658,182.0675 424.23898,184.533 C 416.33148,186.9986 410.35738,186.5727 406.31628,183.2551 L 392.88258,172.2263 L 392.71878,172.0917 L 376.77298,159.0006 L 361.04578,146.0889 L 352.30838,138.9157 C 349.14118,136.3155 347.61338,133.5954 347.72498,130.7555 C 347.72738,127.9888 349.47888,124.378 352.98008,119.9235 C 359.36238,111.6456 369.44268,102.9021 383.22108,93.693096 C 400.06138,82.437696 414.25688,75.362596 425.80768,72.468096 C 430.47198,71.248496 434.37028,70.947396 437.50268,71.564696 C 440.63538,72.019396 443.67628,73.457296 446.62488,75.877996 L 456.72758,84.172096 L 458.47498,85.606696 L 471.52658,96.321796 L 507.95028,126.2249 C 509.00608,127.0917 509.27818,128.3737 508.76678,130.0711 C 508.40108,131.7252 506.19538,133.9045 502.14928,136.6087 C 495.26008,141.2132 490.63248,142.3813 488.26618,140.1129 C 486.95578,139.0371 483.26058,136.0034 477.18068,131.012 C 471.13728,126.0505 465.27618,121.2386 459.59688,116.5761 C 453.95408,111.9434 449.78548,108.5211 447.09148,106.3093 C 444.43378,104.1275 445.85378,105.2932 451.35098,109.8063 L 438.29948,99.091296 z M 573.92698,66.065796 C 602.53898,110.0003 568.09938,203.7616 447.46608,255.4952 C 359.70658,293.375 276.05948,264.6474 260.14248,226.5603 C 232.76388,162.411 274.77438,77.565296 367.11408,36.540396 C 459.25248,-3.805704 535.39448,8.094696 573.92698,66.065796 z"
     id="path2203" /></g>
</svg>