<?xml version="1.0" encoding="UTF-8" standalone="no"?>
<!-- Created with Sodipodi ("http://www.sodipodi.com/") -->
<svg
   xmlns:dc="http://purl.org/dc/elements/1.1/"
   xmlns:cc="http://creativecommons.org/ns#"
   xmlns:rdf="http://www.w3.org/1999/02/22-rdf-syntax-ns#"
   xmlns:svg="http://www.w3.org/2000/svg"
   xmlns="http://www.w3.org/2000/svg"
   xmlns:xlink="http://www.w3.org/1999/xlink"
   xmlns:sodipodi="http://sodipodi.sourceforge.net/DTD/sodipodi-0.dtd"
   xmlns:inkscape="http://www.inkscape.org/namespaces/inkscape"
   id="svg710"
   sodipodi:version="0.32"
   width="190.90404"
   height="199.84494"
   xml:space="preserve"
   sodipodi:docbase="/home/franck/Dessins/Vectoriels/Transports"
   sodipodi:docname="sailingboat.svg"
   inkscape:version="0.46"
   inkscape:output_extension="org.inkscape.output.svg.inkscape"
   version="1.0"><metadata
     id="metadata42"><rdf:RDF><cc:Work
         rdf:about=""><dc:format>image/svg+xml</dc:format><dc:type
           rdf:resource="http://purl.org/dc/dcmitype/StillImage" /></cc:Work></rdf:RDF></metadata><defs
     id="defs712"><inkscape:perspective
       sodipodi:type="inkscape:persp3d"
       inkscape:vp_x="0 : 337.17999 : 1"
       inkscape:vp_y="0 : 1000 : 0"
       inkscape:vp_z="648.09003 : 337.17999 : 1"
       inkscape:persp3d-origin="324.04501 : 224.78666 : 1"
       id="perspective52" /><linearGradient
       id="linearGradient757"><stop
         style="stop-color:#ffa200;stop-opacity:1;"
         offset="0"
         id="stop758" /><stop
         style="stop-color:#ffed00;stop-opacity:1;"
         offset="1"
         id="stop759" /></linearGradient><linearGradient
       id="linearGradient752"><stop
         style="stop-color:#ffffff;stop-opacity:1;"
         offset="0"
         id="stop753" /><stop
         style="stop-color:#ebede2;stop-opacity:1;"
         offset="1"
         id="stop754" /></linearGradient><linearGradient
       id="linearGradient731"><stop
         style="stop-color:#008fff;stop-opacity:1;"
         offset="0"
         id="stop732" /><stop
         style="stop-color:#f3f3f2;stop-opacity:1;"
         offset="1"
         id="stop733" /></linearGradient><linearGradient
       id="linearGradient725"><stop
         style="stop-color:#000;stop-opacity:1;"
         offset="0"
         id="stop726" /><stop
         style="stop-color:#fff;stop-opacity:1;"
         offset="1"
         id="stop727" /></linearGradient><linearGradient
       xlink:href="#linearGradient757"
       id="linearGradient728"
       x1="0.49328852"
       y1="0.99999636"
       x2="0.56375831"
       y2="-0.053571932" /><linearGradient
       xlink:href="#linearGradient725"
       id="linearGradient729"
       x1="2.2499917"
       y1="0.53124875"
       x2="-2.0000019"
       y2="0.50781274" /><linearGradient
       xlink:href="#linearGradient725"
       id="linearGradient730"
       x1="0.51342285"
       y1="2.5999682"
       x2="0.51342285"
       y2="-1.6000019" /><linearGradient
       xlink:href="#linearGradient731"
       id="linearGradient734"
       x1="0.51342285"
       y1="0.81249964"
       x2="0.56711411"
       y2="-0.46875012" /><linearGradient
       xlink:href="#linearGradient731"
       id="linearGradient750"
       x1="0.053691279"
       y1="4.5715199"
       x2="0.96308732"
       y2="0.21428755" /><radialGradient
       xlink:href="#linearGradient752"
       id="radialGradient751"
       cx="0.39473683"
       cy="0.8671875"
       r="0.6033709"
       fx="0.39473683"
       fy="0.8671875" /><linearGradient
       xlink:href="#linearGradient752"
       id="linearGradient755"
       x1="0.93902385"
       y1="0.031249721"
       x2="-0.25609851"
       y2="1.0546837"
       gradientTransform="scale(0.999997,1.000003)" /><linearGradient
       xlink:href="#linearGradient752"
       id="linearGradient756"
       x1="0.49664429"
       y1="0.9332723"
       x2="0.78859049"
       y2="-0.03333316" /><linearGradient
       inkscape:collect="always"
       xlink:href="#linearGradient752"
       id="linearGradient1359"
       gradientTransform="scale(0.796778,1.255055)"
       x1="724.68646"
       y1="-25.246754"
       x2="341.34006"
       y2="303.02902"
       gradientUnits="userSpaceOnUse" /><linearGradient
       inkscape:collect="always"
       xlink:href="#linearGradient725"
       id="linearGradient1361"
       x1="47.803909"
       y1="1861.3956"
       x2="47.803909"
       y2="1687.8357"
       gradientTransform="scale(5.49744,0.181903)"
       gradientUnits="userSpaceOnUse" /><linearGradient
       inkscape:collect="always"
       xlink:href="#linearGradient757"
       id="linearGradient1363"
       x1="145.51439"
       y1="1048.101"
       x2="161.09731"
       y2="815.12634"
       gradientTransform="scale(2.315312,0.431907)"
       gradientUnits="userSpaceOnUse" /><linearGradient
       inkscape:collect="always"
       xlink:href="#linearGradient725"
       id="linearGradient1365"
       x1="2742.7065"
       y1="20.055738"
       x2="2450.6863"
       y2="18.445433"
       gradientTransform="scale(0.145865,6.855658)"
       gradientUnits="userSpaceOnUse" /><radialGradient
       inkscape:collect="always"
       xlink:href="#linearGradient752"
       id="radialGradient1367"
       cx="323.69852"
       cy="195.02364"
       fx="323.69852"
       fy="195.02364"
       r="184.43877"
       gradientTransform="scale(0.740451,1.350529)"
       gradientUnits="userSpaceOnUse" /><linearGradient
       inkscape:collect="always"
       xlink:href="#linearGradient752"
       id="linearGradient1369"
       x1="102.94906"
       y1="1161.9961"
       x2="127.8116"
       y2="1079.6786"
       gradientTransform="scale(3.236272,0.308997)"
       gradientUnits="userSpaceOnUse" /><linearGradient
       inkscape:collect="always"
       xlink:href="#linearGradient731"
       id="linearGradient1371"
       x1="139.17195"
       y1="1188.8192"
       x2="152.14095"
       y2="879.33649"
       gradientTransform="scale(2.493895,0.400979)"
       gradientUnits="userSpaceOnUse" /><linearGradient
       inkscape:collect="always"
       xlink:href="#linearGradient731"
       id="linearGradient1373"
       x1="15.27852"
       y1="2338.481"
       x2="136.66699"
       y2="1756.8666"
       gradientTransform="scale(4.504627,0.221994)"
       gradientUnits="userSpaceOnUse" /><linearGradient
       inkscape:collect="always"
       xlink:href="#linearGradient731"
       id="linearGradient2427"
       gradientUnits="userSpaceOnUse"
       gradientTransform="matrix(1.4245829,0,0,7.0205336e-2,-11.55575,43.348539)"
       x1="15.27852"
       y1="2338.481"
       x2="136.66699"
       y2="1756.8666" /><linearGradient
       inkscape:collect="always"
       xlink:href="#linearGradient731"
       id="linearGradient2430"
       gradientUnits="userSpaceOnUse"
       gradientTransform="matrix(0.7886913,0,0,0.1268091,-11.55575,43.348539)"
       x1="139.17195"
       y1="1188.8192"
       x2="152.14095"
       y2="879.33649" /><linearGradient
       inkscape:collect="always"
       xlink:href="#linearGradient752"
       id="linearGradient2439"
       gradientUnits="userSpaceOnUse"
       gradientTransform="matrix(1.0234671,0,0,9.771993e-2,-11.55575,43.348539)"
       x1="102.94906"
       y1="1161.9961"
       x2="127.8116"
       y2="1079.6786" /><radialGradient
       inkscape:collect="always"
       xlink:href="#linearGradient752"
       id="radialGradient2442"
       gradientUnits="userSpaceOnUse"
       gradientTransform="matrix(0.2341667,0,0,0.4271032,-11.55575,43.348539)"
       cx="323.69852"
       cy="195.02364"
       fx="323.69852"
       fy="195.02364"
       r="184.43877" /><linearGradient
       inkscape:collect="always"
       xlink:href="#linearGradient725"
       id="linearGradient2445"
       gradientUnits="userSpaceOnUse"
       gradientTransform="matrix(4.6129631e-2,0,0,2.1680936,-11.55575,43.348539)"
       x1="2742.7065"
       y1="20.055738"
       x2="2450.6863"
       y2="18.445433" /><linearGradient
       inkscape:collect="always"
       xlink:href="#linearGradient757"
       id="linearGradient2448"
       gradientUnits="userSpaceOnUse"
       gradientTransform="matrix(0.7322146,0,0,0.1365901,-11.55575,43.348539)"
       x1="145.51439"
       y1="1048.101"
       x2="161.09731"
       y2="815.12634" /><linearGradient
       inkscape:collect="always"
       xlink:href="#linearGradient725"
       id="linearGradient2452"
       gradientUnits="userSpaceOnUse"
       gradientTransform="matrix(1.7385588,0,0,5.7526605e-2,-11.55575,43.348539)"
       x1="47.803909"
       y1="1861.3956"
       x2="47.803909"
       y2="1687.8357" /><linearGradient
       inkscape:collect="always"
       xlink:href="#linearGradient752"
       id="linearGradient2455"
       gradientUnits="userSpaceOnUse"
       gradientTransform="matrix(0.2519801,0,0,0.3969096,-11.55575,43.348539)"
       x1="724.68646"
       y1="-25.246754"
       x2="341.34006"
       y2="303.02902" /></defs><sodipodi:namedview
     id="base"
     inkscape:zoom="1.5089862"
     inkscape:cx="120.16862"
     inkscape:cy="-17.658396"
     inkscape:window-width="790"
     inkscape:window-height="719"
     inkscape:window-x="385"
     inkscape:window-y="110"
     inkscape:current-layer="svg710"
     showgrid="false" /><path
     style="font-size:12px;fill:url(#linearGradient2455);fill-opacity:1;fill-rule:evenodd"
     d="M 112.05879,29.349381 C 112.49904,112.28733 107.12828,134.21042 95.154248,155.34113 C 119.45452,149.97037 132.3971,143.27902 175.97912,156.66178 L 112.05879,29.349381 z"
     id="path719"
     sodipodi:nodetypes="cccc" /><rect
     style="font-size:12px;fill:url(#linearGradient2452);fill-rule:evenodd;stroke-width:1"
     id="rect720"
     width="71.844353"
     height="2.3772321"
     x="34.667633"
     y="144.24748" /><image
     xlink:href="/usr/share/gcompris/boards/gcompris/misc/tux.png"
     sodipodi:absref="/usr/share/gcompris/boards/gcompris/misc/tux.png"
     width="20.588228"
     height="23.7805"
     id="image760"
     x="47.090351"
     y="145.32545" /><path
     style="font-size:12px;fill:url(#linearGradient2448);fill-rule:evenodd;stroke-width:1"
     d="M 177.03565,158.5107 C 176.50739,165.78088 179.05306,169.34674 167.41637,174.52867 C 155.77968,179.71066 129.96062,186.5089 107.5685,186.5089 C 62.784255,186.5089 57.911398,180.71083 15.12174,167.49125 C 15.12174,154.53583 37.691557,156.39765 95.682479,156.39765 L 136.35906,157.45421 L 177.03565,158.5107 z"
     id="path714"
     sodipodi:nodetypes="csccccc" /><rect
     style="font-size:12px;fill:url(#linearGradient2445);fill-rule:evenodd;stroke-width:1"
     id="rect717"
     width="3.169601"
     height="148.97139"
     x="107.83265"
     y="7.6903963" /><path
     style="font-size:12px;fill:url(#radialGradient2442);fill-opacity:1;fill-rule:evenodd"
     d="M 35.988304,143.98337 L 107.5685,143.98337 L 107.5685,13.426232 C 89.519359,23.605585 71.998511,53.3965 35.988304,143.98337 z"
     id="path722"
     sodipodi:nodetypes="cccc" /><path
     style="font-size:12px;fill:url(#linearGradient2439);fill-opacity:1;fill-rule:evenodd;stroke-width:1"
     d="M 137.67978,157.45421 L 72.90099,156.66178 C 23.589232,156.19952 70.555721,158.00628 74.617842,150.65271 C 76.367394,147.45717 91.153543,150.05651 91.192252,151.5772 C 110.12863,152.63375 137.94391,154.55221 137.67978,157.45421 z"
     id="path724"
     sodipodi:nodetypes="ccscc" /><path
     style="font-size:12px;fill:#808080;fill-rule:evenodd"
     d="M 15.136392,167.08705 L 15.136395,167.47521 L 176.18054,167.75538 L 176.414,167.22712 L 15.136392,167.08705 z"
     id="path764"
     sodipodi:nodetypes="ccccc" /><rect
     rx="4.5936575"
     style="font-size:12px;fill:#57576b;fill-opacity:1;fill-rule:evenodd"
     id="rect736"
     width="11.093608"
     height="2.905478"
     x="96.210785"
     y="153.49213"
     ry="4.5936575" /><path
     style="font-size:12px;fill:#56576a;fill-opacity:1;fill-rule:evenodd"
     d="M 78.449449,149.97723 C 77.033224,150.0111 75.628763,150.846 75.028396,151.83155 C 74.047234,153.36346 75.250023,153.70017 76.47378,153.6269 L 89.662019,153.66728 C 90.326552,153.65283 90.823442,153.41422 90.815979,152.79627 C 90.793462,150.94236 85.142855,149.8167 78.449449,149.97723 z"
     id="path738"
     sodipodi:nodetypes="csccss" /><path
     style="font-size:12px;fill:#808080;fill-rule:evenodd"
     d="M 41.630277,155.03114 C 41.423609,155.04145 41.265516,155.21614 41.275826,155.42281 L 41.278071,155.46813 C 41.288381,155.6748 41.463077,155.83289 41.669745,155.82258 C 44.666013,155.39267 47.534042,155.20292 50.413677,155.24635 C 50.620345,155.23604 50.785427,155.20122 50.775117,154.99458 L 50.772872,154.94926 C 50.762562,154.74256 50.592515,154.67776 50.385815,154.68807 C 47.467313,154.80243 44.548779,154.91675 41.630277,155.03114 z"
     id="path740"
     sodipodi:nodetypes="ccccccccc" /><rect
     style="font-size:12px;fill:#808080;fill-rule:evenodd;stroke-width:1"
     id="rect741"
     width="0.37354285"
     height="0.98053873"
     x="41.580582"
     y="155.627" /><path
     style="font-size:12px;fill:#ff0000;fill-opacity:1;fill-rule:evenodd"
     d="M 97.144971,2.9883295 L 108.35125,6.3502124 L 108.35125,-2.648e-07 L 97.144971,2.9883295 z"
     id="path743"
     sodipodi:nodetypes="cccc" /><path
     style="font-size:12px;fill:url(#linearGradient2430);fill-rule:evenodd;stroke-width:1"
     d="M 0.046159581,171.79177 L 182.45467,169.04882 C 182.45467,169.04882 189.93912,178.73133 185.86722,180.51874 C 137.33804,201.82119 5.6520836,179.53446 5.6520836,179.53446 L 0.046159581,171.79177 z"
     id="rect749"
     sodipodi:nodetypes="ccscc" /><path
     style="font-size:12px;fill:url(#linearGradient2427);fill-opacity:1;fill-rule:evenodd;stroke:none;stroke-width:1"
     d="M 1.26928e-07,168.20322 L 0.046213564,171.9414 C 10.494552,173.11399 13.332063,172.90596 23.868005,172.38184 C 35.847921,171.78587 47.721799,173.45978 59.683403,173.04957 C 65.805379,172.83965 70.954542,169.80856 76.737246,170.90148 C 84.459694,172.361 90.314503,173.10469 98.198333,172.67488 C 102.85171,172.42115 106.0969,171.76478 110.29143,170.06902 C 111.86841,169.4315 114.94627,170.01349 116.70762,170.2218 C 123.13348,170.98168 129.11168,171.70741 135.62976,171.20628 C 136.83483,171.11362 146.15829,169.03571 146.81944,169.40348 C 151.30821,171.90026 146.50897,174.10837 155.01154,174.05192 C 161.11325,174.01138 159.31066,171.4288 162.26926,170.9006 C 165.82741,170.26535 169.49786,172.94847 173.47083,172.92484 C 177.94958,172.89828 176.73221,172.73695 180.87915,170.66341 C 180.87915,170.66341 186.18073,167.80475 176.09514,168.17831 C 171.73163,167.79419 165.55079,165.24768 161.21416,164.69583 C 158.34171,164.33034 151.92565,171.22475 151.94033,171.48797 C 151.94131,171.50546 149.66605,166.25386 146.95172,166.24655 C 139.37864,166.22609 132.4964,171.72945 126.00214,167.55209 C 120.60361,164.07955 113.24419,167.52812 106.32087,167.62198 C 96.929068,171.48474 76.594555,167.87435 67.519732,165.4096 C 57.625636,162.72234 53.19344,169.06247 43.076831,170.46775 C 35.673668,171.49609 15.712822,168.06125 8.2448688,168.08004 C 0.44245117,168.09965 7.7956089,168.88916 1.26928e-07,168.20322 z"
     id="path748"
     sodipodi:nodetypes="cccccccccccccccccccccccc" /><path
     style="font-size:12px;fill:#000000;fill-opacity:1;fill-rule:evenodd;stroke-width:1"
     d="M 53.814142,154.27274 C 53.814142,154.84006 53.189867,155.9537 52.273283,156.04709 C 50.796369,154.92643 47.183764,155.96069 46.716823,155.20663 C 45.87636,154.35911 49.302189,153.71241 51.3394,153.71241 C 53.096479,153.71241 53.720754,153.98556 53.814142,154.27274 z"
     id="path762"
     sodipodi:nodetypes="ccccc" /><path
     style="font-size:12px;fill:#000000;fill-opacity:1;fill-rule:evenodd;stroke-width:1"
     d="M 62.716799,155.08512 C 62.193628,154.86574 61.408035,153.85937 61.676372,152.97799 C 63.280987,152.04936 63.724241,148.31784 64.600218,148.17882 C 65.706805,147.73152 64.978357,151.1409 64.19055,153.01961 C 63.511058,154.63997 63.017741,155.11004 62.716799,155.08512 z"
     id="path763"
     sodipodi:nodetypes="ccccc" /></svg>