<?xml version="1.0" encoding="UTF-8" standalone="no"?>
<!-- Created with Sodipodi ("http://www.sodipodi.com/") -->
<svg
   xmlns:dc="http://purl.org/dc/elements/1.1/"
   xmlns:cc="http://creativecommons.org/ns#"
   xmlns:rdf="http://www.w3.org/1999/02/22-rdf-syntax-ns#"
   xmlns:svg="http://www.w3.org/2000/svg"
   xmlns="http://www.w3.org/2000/svg"
   xmlns:xlink="http://www.w3.org/1999/xlink"
   xmlns:sodipodi="http://sodipodi.sourceforge.net/DTD/sodipodi-0.dtd"
   xmlns:inkscape="http://www.inkscape.org/namespaces/inkscape"
   id="svg1526"
   sodipodi:version="0.32"
   width="146.36366"
   height="69.72979"
   xml:space="preserve"
   sodipodi:docbase="/home/franck/Dessins/Vectoriels"
   sodipodi:docname="canape.svg"
   inkscape:version="0.46"
   inkscape:output_extension="org.inkscape.output.svg.inkscape"
   version="1.0"><metadata
     id="metadata31"><rdf:RDF><cc:Work
         rdf:about=""><dc:format>image/svg+xml</dc:format><dc:type
           rdf:resource="http://purl.org/dc/dcmitype/StillImage" /></cc:Work></rdf:RDF></metadata><defs
     id="defs1528"><inkscape:perspective
       sodipodi:type="inkscape:persp3d"
       inkscape:vp_x="0 : 526.18109 : 1"
       inkscape:vp_y="0 : 1000 : 0"
       inkscape:vp_z="744.09448 : 526.18109 : 1"
       inkscape:persp3d-origin="372.04724 : 350.78739 : 1"
       id="perspective33" /><linearGradient
       id="linearGradient1548"><stop
         style="stop-color:#8d0000;stop-opacity:1;"
         offset="0"
         id="stop1549" /><stop
         style="stop-color:#ff7700;stop-opacity:1;"
         offset="1"
         id="stop1550" /></linearGradient><linearGradient
       xlink:href="#linearGradient1548"
       id="linearGradient1551"
       x1="0.38926199"
       y1="0.91406202"
       x2="0.7651009"
       y2="-0.14843765" /><linearGradient
       xlink:href="#linearGradient1548"
       id="linearGradient1552" /><radialGradient
       xlink:href="#linearGradient1548"
       id="radialGradient1553"
       cx="0.48091602"
       cy="0.9140625"
       r="1.300182"
       fx="0.48091602"
       fy="0.9140625" /><radialGradient
       xlink:href="#linearGradient1548"
       id="radialGradient1554"
       cx="0.16356035"
       cy="0.85930914"
       r="1.7053449"
       fx="0.16356035"
       fy="0.85930914" /><radialGradient
       xlink:href="#linearGradient1548"
       id="radialGradient1555"
       cx="1.0327168"
       cy="0.97652066"
       r="1.8451684"
       fx="1.0327168"
       fy="0.97652066" /><radialGradient
       xlink:href="#linearGradient1548"
       id="radialGradient1556"
       cx="0.49999985"
       cy="0.82286763"
       r="1.5132943"
       fx="0.49999985"
       fy="0.82286763" /><radialGradient
       xlink:href="#linearGradient1548"
       id="radialGradient1557"
       cx="0.16444951"
       cy="0.98956823"
       r="1.5061688"
       fx="0.16444951"
       fy="0.98956823" /><radialGradient
       xlink:href="#linearGradient1548"
       id="radialGradient1558"
       cx="0.067115255"
       cy="0.96869266"
       r="1.6862609"
       fx="0.067115255"
       fy="0.96869266" /><radialGradient
       xlink:href="#linearGradient1548"
       id="radialGradient1567"
       cx="0.49073276"
       cy="0.50791711"
       r="0.87975866"
       fx="0.49073276"
       fy="0.50791711" /><radialGradient
       inkscape:collect="always"
       xlink:href="#linearGradient1548"
       id="radialGradient2422"
       cx="257.84708"
       cy="829.46863"
       fx="257.84708"
       fy="829.46863"
       r="574.30695"
       gradientTransform="scale(1.4710729,0.679776)"
       gradientUnits="userSpaceOnUse" /><radialGradient
       inkscape:collect="always"
       xlink:href="#linearGradient1548"
       id="radialGradient2424"
       cx="66.711929"
       cy="638.65607"
       fx="66.711929"
       fy="638.65607"
       r="155.59351"
       gradientTransform="scale(1.2901734,0.7750896)"
       gradientUnits="userSpaceOnUse" /><linearGradient
       inkscape:collect="always"
       xlink:href="#linearGradient1548"
       id="linearGradient2426"
       x1="161.58133"
       y1="847.88031"
       x2="296.09238"
       y2="467.61646"
       gradientTransform="scale(1.7891125,0.5589363)"
       gradientUnits="userSpaceOnUse" /><radialGradient
       inkscape:collect="always"
       xlink:href="#linearGradient1548"
       id="radialGradient2428"
       cx="558.96222"
       cy="649.3504"
       fx="558.96222"
       fy="649.3504"
       r="168.35085"
       gradientTransform="scale(1.2901736,0.7750895)"
       gradientUnits="userSpaceOnUse" /><radialGradient
       inkscape:collect="always"
       xlink:href="#linearGradient1548"
       id="radialGradient2430"
       cx="143.15656"
       cy="910.6698"
       fx="143.15656"
       fy="910.6698"
       r="116.87049"
       gradientTransform="scale(1.7736054,0.5638233)"
       gradientUnits="userSpaceOnUse" /><radialGradient
       inkscape:collect="always"
       xlink:href="#linearGradient1548"
       id="radialGradient2432"
       cx="195.41331"
       cy="926.50659"
       fx="195.41331"
       fy="926.50659"
       r="116.32019"
       gradientTransform="scale(1.7736054,0.5638233)"
       gradientUnits="userSpaceOnUse" /><radialGradient
       inkscape:collect="always"
       xlink:href="#linearGradient1548"
       id="radialGradient2434"
       cx="265.12546"
       cy="921.93176"
       fx="265.12546"
       fy="921.93176"
       r="130.22856"
       gradientTransform="scale(1.7736054,0.5638233)"
       gradientUnits="userSpaceOnUse" /><linearGradient
       inkscape:collect="always"
       xlink:href="#linearGradient1548"
       id="linearGradient2436"
       gradientTransform="scale(0.7866147,1.2712704)"
       x1="134.59232"
       y1="-16.211502"
       x2="861.02148"
       y2="-16.211502"
       gradientUnits="userSpaceOnUse" /><radialGradient
       inkscape:collect="always"
       xlink:href="#linearGradient1548"
       id="radialGradient2438"
       cx="153.83002"
       cy="632.98627"
       fx="153.83002"
       fy="632.98627"
       r="78.391754"
       gradientTransform="scale(1.4124564,0.7079865)"
       gradientUnits="userSpaceOnUse" /><radialGradient
       inkscape:collect="always"
       xlink:href="#linearGradient1548"
       id="radialGradient2440"
       cx="426.09573"
       cy="566.56238"
       fx="426.09573"
       fy="566.56238"
       r="84.411453"
       gradientTransform="scale(1.2512215,0.799219)"
       gradientUnits="userSpaceOnUse" /><radialGradient
       inkscape:collect="always"
       xlink:href="#linearGradient1548"
       id="radialGradient2442"
       cx="301.9874"
       cy="578.12183"
       fx="301.9874"
       fy="578.12183"
       r="78.988243"
       gradientTransform="scale(1.2954178,0.7719517)"
       gradientUnits="userSpaceOnUse" /></defs><sodipodi:namedview
     id="base"
     showgrid="false"
     inkscape:zoom="3.7553611"
     inkscape:cx="69.623389"
     inkscape:cy="61.724033"
     inkscape:window-width="641"
     inkscape:window-height="719"
     inkscape:window-x="128"
     inkscape:window-y="60"
     inkscape:current-layer="svg1526" /><g
     id="g2406"
     transform="matrix(0.2246071,0,0,0.2246071,-14.748599,-64.999318)"><rect
       ry="30.410639"
       y="584.47485"
       x="597.6662"
       height="15.368591"
       width="42.69043"
       id="rect1563"
       style="font-size:12px;fill:#333333;fill-opacity:1;fill-rule:evenodd"
       rx="30.410639" /><rect
       ry="30.410639"
       y="584.47491"
       x="143.43988"
       height="15.368591"
       width="42.69043"
       id="rect1561"
       style="font-size:12px;fill:#333333;fill-opacity:1;fill-rule:evenodd"
       rx="30.410639" /><path
       sodipodi:nodetypes="cccccc"
       id="path1530"
       d="M 716.6083,459.3645 C 716.6083,515.1783 711.8876,589.0942 626.2152,588.9218 L 165.3712,589.6569 C 70.66605,589.6569 66.81665,524.2207 66.81665,466.0461 C 66.81665,354.4182 216.9204,289.3912 396.8168,289.3912 C 576.7131,289.3912 716.6083,347.7365 716.6083,459.3645 z"
       style="font-size:12px;fill:url(#radialGradient2422);fill-opacity:1;fill-rule:evenodd;stroke-width:1" /><path
       sodipodi:nodetypes="csscss"
       id="path1532"
       d="M 180.4049,503.6303 C 174.9633,508.0551 168.4235,500.4178 163.1505,496.144 C 141.2674,478.6687 109.4343,472.7778 96.79875,472.7276 C 71.46532,472.6256 66.81665,467.8173 66.81665,453.5178 C 66.81665,439.2184 70.83841,434.2469 112.8142,434.2469 C 166.055,434.2469 196.0023,491.2692 180.4049,503.6303 z"
       style="font-size:12px;fill:url(#radialGradient2424);fill-rule:evenodd;stroke-width:1" /><path
       sodipodi:nodetypes="cscsccc"
       id="path1541"
       d="M 680.1521,414.2261 C 600.2838,415.2391 582.5696,488.3934 576.1564,488.2898 C 529.4411,487.633 434.5988,491.1022 354.7986,491.1022 C 274.9984,491.1022 185.0966,487.8934 140.5846,489.1435 C 130.7373,489.3932 135.812,415.9812 39.83676,414.4121 C 39.83676,361.8267 206.4625,291.0614 366.0629,291.0614 C 525.6633,291.0614 680.1521,361.6407 680.1521,414.2261 z"
       style="font-size:12px;fill:url(#linearGradient2426);fill-opacity:1;fill-rule:evenodd;stroke-width:1"
       transform="matrix(0.893064,0,0,1,69.84369,16.70415)" /><path
       sodipodi:nodetypes="ccccccccc"
       id="path1544"
       d="M 69.95483,476.244 C 63.94768,476.5305 64.43694,483.3135 70.24143,483.6 C 171.9137,483.3974 165.1941,530.3716 196.5903,530.8609 L 586.2532,530.8329 C 616.4647,530.9833 616.1359,479.9563 713.0402,479.6514 C 716.4541,479.6228 715.7713,474.8149 713.0402,475.0139 C 619.2641,475.0139 611.0209,523.1082 585.9579,523.1082 L 196.6915,523.6061 C 175.1153,523.6061 166.6998,476.244 69.95483,476.244 z"
       style="font-size:12px;fill:#910000;fill-opacity:1;fill-rule:evenodd" /><path
       sodipodi:nodetypes="csscss"
       id="path1546"
       d="M 603.7188,503.6303 C 609.1604,508.0551 615.7002,500.4178 620.9732,496.144 C 642.8563,478.6687 674.6894,472.7778 687.325,472.7276 C 712.6584,472.6256 717.3071,467.8173 717.3071,453.5178 C 717.3071,439.2184 713.2853,434.2469 671.3095,434.2469 C 618.0687,434.2469 588.1214,491.2692 603.7188,503.6303 z"
       style="font-size:12px;fill:url(#radialGradient2428);fill-rule:evenodd;stroke-width:1" /><path
       sodipodi:nodetypes="cccccccss"
       id="path1537"
       d="M 207.1316,477.7208 C 195.1013,477.7208 185.4162,485.8471 185.4162,495.9412 L 185.4162,502.9492 C 185.4162,513.0434 195.1013,521.1698 207.1316,521.1698 L 300.675,521.1698 C 312.7053,521.1698 322.3903,513.0434 322.3903,502.9492 L 322.3903,495.9412 C 322.3903,485.8471 312.629,476.5854 300.675,477.7208 C 271.1643,481.9256 239.9832,480.5239 207.1316,477.7208 z"
       style="font-size:12px;fill:url(#radialGradient2430);fill-rule:evenodd" /><path
       sodipodi:nodetypes="cccccccss"
       id="path1538"
       d="M 345.7762,479.3912 C 333.7459,479.3912 324.0608,487.5175 324.0608,497.6116 L 324.0608,504.6196 C 324.0608,514.7138 333.7459,522.8402 345.7762,522.8402 L 439.3196,522.8402 C 451.3499,522.8402 461.0349,514.7138 461.0349,504.6196 L 461.0349,497.6116 C 461.0349,487.5175 451.2736,478.2558 439.3196,479.3912 C 409.8089,483.596 378.6278,482.1943 345.7762,479.3912 z"
       style="font-size:12px;fill:url(#radialGradient2432);fill-rule:evenodd" /><path
       sodipodi:nodetypes="cccccccss"
       id="path1539"
       d="M 482.7503,477.7208 C 470.72,477.7208 461.0349,485.8471 461.0349,495.9412 L 461.0349,502.9492 C 461.0349,513.0434 470.72,521.1698 482.7503,521.1698 L 576.2937,521.1698 C 588.324,521.1698 598.009,513.0434 598.009,502.9492 L 598.009,495.9412 C 598.009,485.8471 588.2477,476.5854 576.2937,477.7208 C 546.783,481.9256 515.6019,480.5239 482.7503,477.7208 z"
       style="font-size:12px;fill:url(#radialGradient2434);fill-rule:evenodd" /><path
       sodipodi:nodetypes="ccccc"
       id="path1560"
       d="M 677.2922,440.4927 C 677.2922,469.021 634.5087,-462.8243 396.5941,-430.5393 C 148.4338,-404.7119 105.8723,456.756 105.8723,428.2277 C 105.8723,373.8716 150.1414,-456.368 398.3017,-482.1955 C 621.7015,-495.1093 676.4384,289.2826 677.2922,440.4927 z"
       style="font-size:12px;fill:url(#linearGradient2436);fill-opacity:0.15470001;fill-rule:evenodd;stroke-width:1"
       transform="matrix(1,0,0,0.132232,0,371.6026)" /><path
       sodipodi:nodetypes="ccccc"
       id="path1566"
       d="M 192.1294,417.0666 C 170.7312,428.9169 169.9213,431.9701 155.5154,438.201 C 189.6575,476.2594 213.696,472.1471 250.247,479.1502 C 270.8085,480.1328 270.9438,462.3632 281.3737,445.3894 C 272.5903,432.6612 223.4532,411.316 192.1294,417.0666 z"
       style="font-size:12px;fill:url(#radialGradient2438);fill-rule:evenodd" /><path
       sodipodi:nodetypes="ccccc"
       id="path1568"
       d="M 594.0021,431.5387 C 595.8861,452.0225 587.6553,470.8743 584.4819,490.5422 C 547.1399,489.7062 510.0699,487.1845 474.9039,472.862 C 471.606,450.4203 481.2507,433.5263 484.424,413.8584 C 501.59,421.8173 564.4375,414.6606 594.0021,431.5387 z"
       style="font-size:12px;fill:url(#radialGradient2440);fill-rule:evenodd" /><path
       sodipodi:nodetypes="ccccc"
       id="path1569"
       d="M 336.4006,415.4207 C 331.2778,435.3429 336.4006,455.2651 336.4006,475.1873 C 373.399,480.3101 410.3974,483.7254 447.3958,475.1873 C 454.2263,453.5575 447.3958,435.3429 447.3958,415.4207 C 429.1812,420.5436 368.2762,403.4674 336.4006,415.4207 z"
       style="font-size:12px;fill:url(#radialGradient2442);fill-rule:evenodd" /></g></svg>