<?xml version="1.0" encoding="UTF-8" standalone="no"?>
<!-- Created with Sodipodi ("http://www.sodipodi.com/") -->
<svg
   xmlns:dc="http://purl.org/dc/elements/1.1/"
   xmlns:cc="http://creativecommons.org/ns#"
   xmlns:rdf="http://www.w3.org/1999/02/22-rdf-syntax-ns#"
   xmlns:svg="http://www.w3.org/2000/svg"
   xmlns="http://www.w3.org/2000/svg"
   xmlns:xlink="http://www.w3.org/1999/xlink"
   xmlns:sodipodi="http://sodipodi.sourceforge.net/DTD/sodipodi-0.dtd"
   xmlns:inkscape="http://www.inkscape.org/namespaces/inkscape"
   id="svg605"
   sodipodi:version="0.32"
   width="131.89957"
   height="117.82647"
   xml:space="preserve"
   sodipodi:docbase="/home/franck/Dessins/Vectoriels"
   sodipodi:docname="sound.svg"
   inkscape:version="0.46"
   inkscape:output_extension="org.inkscape.output.svg.inkscape"
   version="1.0"><metadata
     id="metadata45"><rdf:RDF><cc:Work
         rdf:about=""><dc:format>image/svg+xml</dc:format><dc:type
           rdf:resource="http://purl.org/dc/dcmitype/StillImage" /></cc:Work></rdf:RDF></metadata><defs
     id="defs607"><inkscape:perspective
       sodipodi:type="inkscape:persp3d"
       inkscape:vp_x="0 : 526.18109 : 1"
       inkscape:vp_y="0 : 1000 : 0"
       inkscape:vp_z="744.09448 : 526.18109 : 1"
       inkscape:persp3d-origin="372.04724 : 350.78739 : 1"
       id="perspective47" /><linearGradient
       id="linearGradient677"><stop
         style="stop-color:#b3b3b3;stop-opacity:1;"
         offset="0"
         id="stop678" /><stop
         style="stop-color:#000000;stop-opacity:1;"
         offset="1"
         id="stop679" /></linearGradient><linearGradient
       id="linearGradient674"><stop
         style="stop-color:#ffffff;stop-opacity:1;"
         offset="0"
         id="stop675" /><stop
         style="stop-color:#000000;stop-opacity:1;"
         offset="1"
         id="stop676" /></linearGradient><linearGradient
       id="linearGradient654"><stop
         style="stop-color:#000000;stop-opacity:1;"
         offset="0"
         id="stop655" /><stop
         style="stop-color:#ffc500;stop-opacity:1;"
         offset="1"
         id="stop656" /></linearGradient><linearGradient
       id="linearGradient645"><stop
         style="stop-color:#000000;stop-opacity:1;"
         offset="0"
         id="stop646" /><stop
         style="stop-color:#ffffff;stop-opacity:1;"
         offset="1"
         id="stop647" /></linearGradient><linearGradient
       id="linearGradient635"><stop
         style="stop-color:#4c4c4c;stop-opacity:1;"
         offset="0"
         id="stop636" /><stop
         style="stop-color:#ffffff;stop-opacity:1;"
         offset="1"
         id="stop637" /></linearGradient><radialGradient
       xlink:href="#linearGradient635"
       id="radialGradient638"
       cx="0.60465068"
       cy="0.4453038"
       r="0.34962291"
       fx="0.60465068"
       fy="0.4453038"
       spreadMethod="reflect" /><linearGradient
       xlink:href="#linearGradient645"
       id="linearGradient641"
       x1="1.3541659"
       y1="0.96093535"
       x2="-1.6666657"
       y2="-1.328126"
       spreadMethod="pad" /><linearGradient
       xlink:href="#linearGradient645"
       id="linearGradient648" /><linearGradient
       xlink:href="#linearGradient645"
       id="linearGradient649"
       x1="0.92592555"
       y1="0.97656214"
       x2="-0.49999988"
       y2="-0.11718761" /><linearGradient
       xlink:href="#linearGradient645"
       id="linearGradient650"
       x1="-0.1249989"
       y1="0.20312756"
       x2="2.3000002"
       y2="0.38281262" /><radialGradient
       xlink:href="#linearGradient654"
       id="radialGradient653"
       cx="0.43939364"
       cy="0.49999839"
       r="0.03030324"
       fx="0.43939364"
       fy="0.49999839"
       spreadMethod="reflect" /><linearGradient
       xlink:href="#linearGradient654"
       id="linearGradient658"
       x1="-0.80555558"
       y1="0.062500276"
       x2="0.73611128"
       y2="1.0312498" /><radialGradient
       xlink:href="#linearGradient645"
       id="radialGradient661"
       cx="-0.071423821"
       cy="0.50781536"
       r="2.2857633"
       fx="-0.071423821"
       fy="0.50781536" /><linearGradient
       xlink:href="#linearGradient674"
       id="linearGradient671"
       x1="1.4000223"
       y1="0.640625"
       x2="0.20000233"
       y2="0.625" /><radialGradient
       xlink:href="#linearGradient674"
       id="radialGradient672"
       cx="0.35465118"
       cy="0.39063331"
       r="0.39729044"
       fx="0.35465118"
       fy="0.39063331" /><radialGradient
       xlink:href="#linearGradient677"
       id="radialGradient673"
       cx="0.5500145"
       cy="0.1640625"
       r="0.89177567"
       fx="0.5500145"
       fy="0.1640625" /><radialGradient
       inkscape:collect="always"
       xlink:href="#linearGradient635"
       id="radialGradient2436"
       spreadMethod="reflect"
       cx="100.55346"
       cy="391.58044"
       fx="100.55346"
       fy="391.58044"
       r="67.958237"
       gradientTransform="scale(0.8499068,1.1765996)"
       gradientUnits="userSpaceOnUse" /><radialGradient
       inkscape:collect="always"
       xlink:href="#linearGradient654"
       id="radialGradient2438"
       spreadMethod="reflect"
       cx="452.09406"
       cy="295.66125"
       fx="452.09406"
       fy="295.66125"
       r="10.848146"
       gradientTransform="scale(0.6275913,1.5933938)"
       gradientUnits="userSpaceOnUse" /><linearGradient
       inkscape:collect="always"
       xlink:href="#linearGradient654"
       id="linearGradient2440"
       x1="-87.790031"
       y1="223.64351"
       x2="370.3606"
       y2="511.53528"
       gradientTransform="scale(0.7481614,1.3366101)"
       gradientUnits="userSpaceOnUse" /><linearGradient
       inkscape:collect="always"
       xlink:href="#linearGradient645"
       id="linearGradient2442"
       spreadMethod="pad"
       x1="503.94891"
       y1="418.48254"
       x2="-342.82101"
       y2="-223.1647"
       gradientTransform="scale(0.6120839,1.6337628)"
       gradientUnits="userSpaceOnUse" /><linearGradient
       inkscape:collect="always"
       xlink:href="#linearGradient645"
       id="linearGradient2444"
       x1="566.6441"
       y1="459.12167"
       x2="105.9331"
       y2="105.73536"
       gradientTransform="scale(0.640917,1.5602644)"
       gradientUnits="userSpaceOnUse" /><linearGradient
       inkscape:collect="always"
       xlink:href="#linearGradient645"
       id="linearGradient2446"
       gradientTransform="scale(0.4690679,2.1318877)"
       x1="384.37018"
       y1="222.94809"
       x2="608.92938"
       y2="222.94809"
       gradientUnits="userSpaceOnUse" /><linearGradient
       inkscape:collect="always"
       xlink:href="#linearGradient645"
       id="linearGradient2448"
       x1="391.44501"
       y1="181.47762"
       x2="1040.7618"
       y2="229.59001"
       gradientTransform="scale(0.547722,1.8257438)"
       gradientUnits="userSpaceOnUse" /><radialGradient
       inkscape:collect="always"
       xlink:href="#linearGradient645"
       id="radialGradient2450"
       cx="359.2261"
       cy="248.84737"
       fx="359.2261"
       fy="248.84737"
       r="252.5063"
       gradientTransform="scale(0.5217335,1.9166873)"
       gradientUnits="userSpaceOnUse" /><radialGradient
       inkscape:collect="always"
       xlink:href="#linearGradient677"
       id="radialGradient2452"
       cx="668.52869"
       cy="101.31797"
       fx="668.52869"
       fy="101.31797"
       r="107.53356"
       gradientTransform="scale(0.8793745,1.137172)"
       gradientUnits="userSpaceOnUse" /><linearGradient
       inkscape:collect="always"
       xlink:href="#linearGradient674"
       id="linearGradient2454"
       x1="2041.8113"
       y1="72.095428"
       x2="1949.8706"
       y2="70.898308"
       gradientTransform="scale(0.2658501,3.7615184)"
       gradientUnits="userSpaceOnUse" /><radialGradient
       inkscape:collect="always"
       xlink:href="#linearGradient674"
       id="radialGradient2456"
       cx="349.19986"
       cy="388.37592"
       fx="349.19986"
       fy="388.37592"
       r="70.079918"
       gradientTransform="scale(1.1547006,0.8660254)"
       gradientUnits="userSpaceOnUse" /></defs><sodipodi:namedview
     id="base"
     showgrid="false"
     inkscape:zoom="1.3277206"
     inkscape:cx="107.38201"
     inkscape:cy="47.743347"
     inkscape:window-width="929"
     inkscape:window-height="719"
     inkscape:window-x="0"
     inkscape:window-y="277"
     inkscape:current-layer="svg605" /><g
     id="g2420"
     transform="matrix(0.2124907,0,0,0.2124907,2.0456828,-36.902161)"><g
       transform="translate(4.800856,-3.051758e-5)"
       id="g664"><path
         sodipodi:nodetypes="ccccccc"
         id="path614"
         d="M -14.42802,476.0513 C -14.42802,513.3947 1.609852,587.5938 46.50339,587.5938 L 96.83433,587.5938 C 141.7281,587.5938 150.7733,509.3823 150.7733,472.0388 C 150.7733,434.6955 139.1059,358.8913 94.21207,358.8913 L 43.88108,358.8913 C -1.012454,358.8913 -14.42802,438.7078 -14.42802,476.0513 z"
         style="font-size:12px;fill:url(#radialGradient2436);fill-rule:evenodd" /><path
         transform="matrix(1,0,0,0.945545,12.00214,16.12523)"
         sodipodi:nodetypes="cssssss"
         id="path640"
         d="M 36.00643,363.4393 C 19.80642,363.8076 -10.80192,421.7497 -10.65189,482.2605 C -10.50186,542.7713 16.76622,606.5135 39.60707,605.9517 L 91.21628,604.6824 C 57.51519,605.5113 33.45713,529.0819 33.45599,479.9983 C 32.19256,428.3782 58.07296,362.9377 88.81584,362.2388 L 36.00643,363.4393 z"
         style="font-size:12px;fill:#333333;fill-rule:evenodd" /></g><path
       sodipodi:nodetypes="ccccc"
       id="path657"
       d="M 409.6812,472.7734 C 409.6812,605.4191 328.3995,756.3123 275.4348,756.3123 C 222.4704,756.3123 185.0121,608.7546 185.0121,476.109 C 185.0121,343.4634 238.9042,185.8991 291.8687,185.8991 C 344.8333,185.8991 409.6812,340.1279 409.6812,472.7734 z"
       style="font-size:12px;fill:url(#radialGradient2438);fill-rule:evenodd;stroke-width:1"
       transform="matrix(0.2191,0,0,0.359821,65.62016,299.5573)" /><path
       sodipodi:nodetypes="cccscc"
       id="path652"
       d="M 129.9323,418.6494 C 111.3327,437.0527 108.6756,493.8627 120.8223,509.8655 L 227.7448,657.4919 C 269.4987,697.099 336.074,656.2922 335.7608,473.259 C 335.4537,292.6244 277.5208,251.8195 233.8689,284.2254 L 129.9323,418.6494 z"
       style="font-size:12px;fill:url(#linearGradient2440);fill-opacity:1;fill-rule:evenodd" /><path
       sodipodi:nodetypes="ccccccccccccccccccccccccccccccc"
       id="path625"
       d="M 112.8993,372.9217 C 61.5667,419.025 66.36759,522.4263 112.4021,569.2327 L 245.2932,701.5913 C 157.6775,612.1492 157.6775,330.6728 247.6936,243.6309 L 112.8993,372.9217 z M 122.0664,527.6148 C 121.1171,519.5599 123.3049,509.7863 130.5829,513.9003 L 169.2047,538.077 C 176.4829,542.1912 176.4345,553.6578 178.4454,563.3612 L 183.593,588.2003 C 185.6039,597.9036 185.6633,600.5468 179.0119,596.8117 C 175.8923,594.9484 173.4644,592.7374 169.7104,588.9551 L 138.8526,556.8745 C 132.6736,550.6491 122.9742,535.3182 122.0664,527.6148 z M 115.5484,465.0423 C 115.7734,475.6311 117.851,485.8531 124.7539,488.2782 L 155.3114,504.8275 C 162.5277,507.3627 173.364,504.4587 170.3353,488.3811 C 169.4316,470.8417 169.2833,458.8792 169.9286,440.4911 C 172.6053,424.3308 162.1927,422.936 155.2371,425.5663 L 124.125,441.7888 C 117.5372,444.28 115.3584,455.5975 115.5484,465.0423 z M 129.7045,398.5672 C 128.7552,406.6221 134.0643,410.7111 141.1914,406.341 L 168.2957,390.5782 C 175.4231,386.2078 178.2559,374.7753 181.1371,365.294 L 188.6851,340.4549 C 191.5662,330.9736 190.7554,326.9082 184.104,330.6433 C 180.9844,332.5066 178.5565,334.7176 174.8025,338.4999 L 147.121,371.0047 C 140.9421,377.2301 130.6123,390.8638 129.7045,398.5672 z"
       style="font-size:12px;fill:url(#linearGradient2442);fill-rule:evenodd" /><path
       sodipodi:nodetypes="cccccccccc"
       id="path630"
       d="M 378.511,476.1089 C 378.511,615.3166 332.1551,728.1666 274.972,728.1666 C 217.7891,728.1666 171.4332,615.3166 171.4332,476.1089 C 171.4332,336.9013 217.7891,224.0512 274.972,224.0512 C 332.1551,224.0512 378.511,336.9013 378.511,476.1089 z M 357.8033,476.1089 C 357.8033,587.4751 319.8699,700.6695 274.1234,700.6695 C 228.3771,700.6695 192.1411,587.4751 192.1411,476.1089 C 192.1411,364.7428 230.0745,251.5483 275.8208,251.5483 C 321.5673,251.5483 357.8033,364.7428 357.8033,476.1089 z"
       style="font-size:12px;fill:url(#linearGradient2444);fill-opacity:1;fill-rule:evenodd;stroke-width:1" /><path
       sodipodi:nodetypes="ccccc"
       id="path632"
       d="M 192.8728,476.109 C 192.8728,608.7546 234.8323,710.6245 285.6292,714.6678 C 232.6647,714.6678 180.2957,608.7547 180.2957,476.109 C 180.2957,343.4634 227.9483,235.9328 280.9128,235.9328 C 233.2602,251.2976 192.8728,343.4634 192.8728,476.109 z"
       style="font-size:12px;fill:url(#linearGradient2446);fill-rule:evenodd;stroke-width:1"
       transform="matrix(1.079646,0,0,1.04947,-36.80113,-22.7045)" /><path
       sodipodi:nodetypes="ccscc"
       id="path634"
       d="M 379.3847,476.109 C 380.2937,642.8304 305.698,811.8098 232.7351,664.4291 C 237.9474,672.6169 350.8982,748.3577 351.2968,475.7322 C 352.9327,236.0277 246.1286,250.489 232.7352,288.6989 C 314.7882,134.9498 379.3847,326.7378 379.3847,476.109 z"
       style="font-size:12px;fill:url(#linearGradient2448);fill-rule:evenodd;stroke-width:1"
       transform="matrix(0.933628,0,0,0.932863,6.338804,31.96477)" /><path
       sodipodi:nodetypes="cccc"
       id="path660"
       d="M 249.1723,474.1077 C 249.1723,532.7708 218.1745,581.1752 202.3816,581.1752 C 188.3464,510.0111 187.1461,449.006 203.4362,369.4404 C 220.4293,369.4404 249.1723,415.4445 249.1723,474.1077 z"
       style="font-size:12px;fill:url(#radialGradient2450);fill-rule:evenodd;stroke-width:1" /><g
       transform="matrix(0.898595,0.260838,-0.269956,0.877156,83.74515,-39.01874)"
       id="g680"><path
         sodipodi:nodetypes="cssssss"
         id="path670"
         d="M 634.4888,212.2918 C 627.3983,220.1096 592.0176,240.1279 559.07,223.293 C 506.462,196.436 598.9149,113.8079 556.8765,111.8961 C 525.497,110.5584 546.5922,116.1517 532.8448,112.4287 C 517.2025,108.8753 561.5282,92.88353 581.0805,92.71904 C 647.0312,92.66403 611.9487,138.2563 601.2539,152.6164 C 521.3694,256.1018 648.665,195.9998 634.4888,212.2918 z"
         style="font-size:12px;fill:url(#radialGradient2452);fill-rule:evenodd;stroke-width:1" /><rect
         ry="78.245789"
         y="86.56517"
         x="514.29956"
         height="288.19217"
         width="20.368347"
         id="rect668"
         style="font-size:12px;fill:url(#linearGradient2454);fill-rule:evenodd"
         rx="78.245789" /><path
         sodipodi:ry="76.381134"
         sodipodi:rx="101.84152"
         sodipodi:cy="353.05051"
         sodipodi:cx="432.82639"
         d="M 534.66791,353.05051 A 101.84152,76.381134 0 1 1 330.98486,353.05051 A 101.84152,76.381134 0 1 1 534.66791,353.05051 z"
         id="path667"
         style="fill:url(#radialGradient2456);fill-opacity:1;fill-rule:evenodd;stroke:none;stroke-width:1pt;stroke-linecap:butt;stroke-linejoin:miter;stroke-opacity:1"
         sodipodi:type="arc" /></g></g></svg>