<?xml version="1.0" encoding="UTF-8" standalone="no"?>
<!-- Created with Sodipodi ("http://www.sodipodi.com/") -->
<svg
   xmlns:dc="http://purl.org/dc/elements/1.1/"
   xmlns:cc="http://creativecommons.org/ns#"
   xmlns:rdf="http://www.w3.org/1999/02/22-rdf-syntax-ns#"
   xmlns:svg="http://www.w3.org/2000/svg"
   xmlns="http://www.w3.org/2000/svg"
   xmlns:xlink="http://www.w3.org/1999/xlink"
   xmlns:sodipodi="http://sodipodi.sourceforge.net/DTD/sodipodi-0.dtd"
   xmlns:inkscape="http://www.inkscape.org/namespaces/inkscape"
   id="svg774"
   sodipodi:version="0.32"
   width="79.046021"
   height="76.08744"
   xml:space="preserve"
   sodipodi:docbase="/home/franck/Dessins/Vectoriels/Transports"
   sodipodi:docname="star.svg"
   inkscape:version="0.46"
   inkscape:output_extension="org.inkscape.output.svg.inkscape"
   sodipodi:modified="true"
   version="1.0"><metadata
   id="metadata147"><rdf:RDF><cc:Work
       rdf:about=""><dc:format>image/svg+xml</dc:format><dc:type
         rdf:resource="http://purl.org/dc/dcmitype/StillImage" /></cc:Work></rdf:RDF></metadata><defs
   id="defs776"><linearGradient
   inkscape:collect="always"
   id="linearGradient3689"><stop
     style="stop-color:#ffde41;stop-opacity:1;"
     offset="0"
     id="stop3691" /><stop
     style="stop-color:#ffde41;stop-opacity:0;"
     offset="1"
     id="stop3693" /></linearGradient><inkscape:perspective
   sodipodi:type="inkscape:persp3d"
   inkscape:vp_x="0 : 148.85376 : 1"
   inkscape:vp_y="0 : 1000 : 0"
   inkscape:vp_z="772.48639 : 148.85376 : 1"
   inkscape:persp3d-origin="386.24319 : 99.23584 : 1"
   id="perspective161" /><linearGradient
   id="linearGradient947"><stop
     style="stop-color:#ffffff;stop-opacity:1;"
     offset="0"
     id="stop948" /><stop
     style="stop-color:#000000;stop-opacity:1;"
     offset="1"
     id="stop949" /></linearGradient><linearGradient
   id="linearGradient863"><stop
     style="stop-color:#9a9a9a;stop-opacity:1;"
     offset="0"
     id="stop864" /><stop
     style="stop-color:#e6e6e6;stop-opacity:1;"
     offset="1"
     id="stop865" /></linearGradient><linearGradient
   id="linearGradient859"><stop
     style="stop-color:#b25700;stop-opacity:1;"
     offset="0"
     id="stop860" /><stop
     style="stop-color:#ff8d00;stop-opacity:1;"
     offset="1"
     id="stop861" /></linearGradient><linearGradient
   id="linearGradient813"><stop
     style="stop-color:#ddffff;stop-opacity:1;"
     offset="0"
     id="stop814" /><stop
     style="stop-color:#f3f3f3;stop-opacity:1;"
     offset="1"
     id="stop815" /></linearGradient><linearGradient
   id="linearGradient807"><stop
     style="stop-color:#000;stop-opacity:1;"
     offset="0"
     id="stop808" /><stop
     style="stop-color:#fff;stop-opacity:1;"
     offset="1"
     id="stop809" /></linearGradient><linearGradient
   xlink:href="#linearGradient807"
   id="linearGradient810"
   x1="781.25006"
   y1="293.82883"
   x2="778.88409"
   y2="249.26498"
   gradientTransform="scale(0.8164973,1.2247438)"
   gradientUnits="userSpaceOnUse" /><linearGradient
   xlink:href="#linearGradient807"
   id="linearGradient811"
   x1="1514.0569"
   y1="66.653"
   x2="1527.087"
   y2="66.937988"
   gradientTransform="scale(0.3256697,3.0705954)"
   spreadMethod="reflect"
   gradientUnits="userSpaceOnUse" /><linearGradient
   xlink:href="#linearGradient813"
   id="linearGradient812"
   x1="1346.4875"
   y1="122.42879"
   x2="1521.6838"
   y2="120.17594"
   gradientTransform="scale(0.4229066,2.3645884)"
   gradientUnits="userSpaceOnUse" /><linearGradient
   xlink:href="#linearGradient813"
   id="linearGradient816"
   gradientTransform="scale(0.9661408,1.0350458)"
   x1="576.2915"
   y1="174.21826"
   x2="643.77521"
   y2="174.21826"
   gradientUnits="userSpaceOnUse" /><linearGradient
   xlink:href="#linearGradient859"
   id="linearGradient817"
   x1="30.065086"
   y1="1598.4626"
   x2="30.400017"
   y2="1465.3843"
   spreadMethod="pad"
   gradientTransform="scale(5.4319361,0.1840964)"
   gradientUnits="userSpaceOnUse" /><linearGradient
   xlink:href="#linearGradient813"
   id="linearGradient818"
   gradientTransform="scale(0.7478746,1.3371226)"
   x1="846.2688"
   y1="226.51025"
   x2="855.63068"
   y2="226.51025"
   gradientUnits="userSpaceOnUse" /><linearGradient
   xlink:href="#linearGradient813"
   id="linearGradient819"
   gradientTransform="scale(0.7478746,1.3371226)"
   x1="846.2688"
   y1="226.51025"
   x2="855.63068"
   y2="226.51025"
   gradientUnits="userSpaceOnUse" /><linearGradient
   xlink:href="#linearGradient807"
   id="linearGradient820"
   x1="1428.7166"
   y1="68.676826"
   x2="1480.5465"
   y2="68.676826"
   spreadMethod="pad"
   gradientTransform="scale(0.3383427,2.9555836)"
   gradientUnits="userSpaceOnUse" /><radialGradient
   xlink:href="#linearGradient807"
   id="radialGradient821"
   cx="0.51982594"
   cy="0.48437494"
   r="1.6150841"
   fx="0.51982594"
   fy="0.48437494"
   spreadMethod="pad" /><linearGradient
   xlink:href="#linearGradient807"
   id="linearGradient826"
   x1="3103.2737"
   y1="34.891914"
   x2="3113.002"
   y2="35.027092"
   spreadMethod="reflect"
   gradientTransform="scale(0.1670318,5.9868853)"
   gradientUnits="userSpaceOnUse" /><radialGradient
   xlink:href="#linearGradient807"
   id="radialGradient827"
   cx="359.8887"
   cy="442.81534"
   r="6.0662632"
   fx="359.8887"
   fy="442.81534"
   spreadMethod="reflect"
   gradientTransform="scale(1.3416384,0.7453573)"
   gradientUnits="userSpaceOnUse" /><linearGradient
   xlink:href="#linearGradient807"
   id="linearGradient842"
   x1="356.84253"
   y1="438.98734"
   x2="359.88962"
   y2="438.32642"
   gradientTransform="scale(1.3468082,0.7424962)"
   spreadMethod="reflect"
   gradientUnits="userSpaceOnUse" /><linearGradient
   xlink:href="#linearGradient859"
   id="linearGradient858"
   x1="410.84442"
   y1="432.69513"
   x2="499.28995"
   y2="425.5611"
   gradientTransform="scale(1.3700113,0.729921)"
   gradientUnits="userSpaceOnUse" /><linearGradient
   xlink:href="#linearGradient863"
   id="linearGradient862"
   x1="1027.5242"
   y1="95.39447"
   x2="951.65369"
   y2="102.98058"
   gradientTransform="scale(0.496811,2.0128378)"
   gradientUnits="userSpaceOnUse" /><linearGradient
   xlink:href="#linearGradient863"
   id="linearGradient866"
   x1="502.45963"
   y1="225.94942"
   x2="630.35931"
   y2="165.67783"
   gradientTransform="scale(0.9466565,1.0563494)"
   gradientUnits="userSpaceOnUse" /><linearGradient
   xlink:href="#linearGradient859"
   id="linearGradient869"
   x1="345.013"
   y1="475.3526"
   x2="338.09872"
   y2="485.17831"
   gradientTransform="scale(1.5968746,0.6262233)"
   gradientUnits="userSpaceOnUse" /><linearGradient
   xlink:href="#linearGradient859"
   id="linearGradient870"
   x1="352.37216"
   y1="443.01392"
   x2="344.59073"
   y2="451.94662"
   gradientTransform="scale(1.5968746,0.6262233)"
   gradientUnits="userSpaceOnUse" /><linearGradient
   xlink:href="#linearGradient859"
   id="linearGradient871"
   x1="695.70404"
   y1="262.70834"
   x2="719.46515"
   y2="253.47224"
   gradientTransform="scale(0.7928291,1.2613059)"
   gradientUnits="userSpaceOnUse" /><radialGradient
   xlink:href="#linearGradient863"
   id="radialGradient943"
   cx="157.33423"
   cy="479.4436"
   r="79.743141"
   fx="157.33423"
   fy="479.4436"
   gradientUnits="userSpaceOnUse" /><radialGradient
   xlink:href="#linearGradient807"
   id="radialGradient944"
   cx="173.67632"
   cy="466.84573"
   r="145.44254"
   fx="173.67632"
   fy="466.84573"
   gradientUnits="userSpaceOnUse" /><radialGradient
   xlink:href="#linearGradient947"
   id="radialGradient946"
   cx="2202.1675"
   cy="116.22642"
   r="11.371883"
   fx="2202.1675"
   fy="116.22642"
   gradientTransform="scale(0.2453248,4.076229)"
   gradientUnits="userSpaceOnUse" /><linearGradient
   xlink:href="#linearGradient807"
   id="linearGradient993"
   x1="381.02792"
   y1="427.90057"
   x2="380.26804"
   y2="491.0639"
   gradientTransform="scale(1.3296957,0.7520517)"
   gradientUnits="userSpaceOnUse" /><linearGradient
   xlink:href="#linearGradient863"
   id="linearGradient996"
   x1="16.958405"
   y1="481.94681"
   x2="209.16974"
   y2="401.54221"
   gradientTransform="scale(1.7614556,0.5677123)"
   gradientUnits="userSpaceOnUse" /><linearGradient
   xlink:href="#linearGradient807"
   id="linearGradient1046"
   x1="-163.9315"
   y1="209.73813"
   x2="-190.72595"
   y2="210.78212"
   gradientTransform="scale(0.6262275,1.5968637)"
   gradientUnits="userSpaceOnUse" /><linearGradient
   xlink:href="#linearGradient859"
   id="linearGradient1047"
   x1="4.5451202e-07"
   y1="-2.366437e-07"
   x2="1.0000004"
   y2="-2.366437e-07" /><linearGradient
   xlink:href="#linearGradient807"
   id="linearGradient1048"
   x1="-252.04443"
   y1="112.78257"
   x2="-300.0531"
   y2="112.40757"
   gradientTransform="scale(0.3535537,2.8284243)"
   gradientUnits="userSpaceOnUse" />
<linearGradient
   inkscape:collect="always"
   xlink:href="#linearGradient863"
   id="linearGradient2669"
   gradientUnits="userSpaceOnUse"
   gradientTransform="scale(1.7614556,0.5677123)"
   x1="16.958405"
   y1="481.94681"
   x2="209.16974"
   y2="401.54221" /><linearGradient
   inkscape:collect="always"
   xlink:href="#linearGradient859"
   id="linearGradient2671"
   gradientUnits="userSpaceOnUse"
   gradientTransform="scale(5.4319361,0.1840964)"
   spreadMethod="pad"
   x1="30.065086"
   y1="1598.4626"
   x2="30.400017"
   y2="1465.3843" />

<inkscape:perspective
   id="perspective2877"
   inkscape:persp3d-origin="372.04724 : 350.78739 : 1"
   inkscape:vp_z="744.09448 : 526.18109 : 1"
   inkscape:vp_y="0 : 1000 : 0"
   inkscape:vp_x="0 : 526.18109 : 1"
   sodipodi:type="inkscape:persp3d" /><radialGradient
   inkscape:collect="always"
   xlink:href="#linearGradient3689"
   id="radialGradient3695"
   cx="129.17563"
   cy="78.158661"
   fx="129.17563"
   fy="78.158661"
   r="50.340446"
   gradientTransform="matrix(0.7175119,-1.242766,1.7363542,1.0024845,-177.51629,142.07234)"
   gradientUnits="userSpaceOnUse" /></defs><sodipodi:namedview
   id="base"
   inkscape:zoom="2.8811374"
   inkscape:cx="97.861819"
   inkscape:cy="27.273403"
   inkscape:window-width="1256"
   inkscape:window-height="719"
   inkscape:window-x="3"
   inkscape:window-y="25"
   inkscape:current-layer="svg774"
   showgrid="false" />

<path
   id="path2901"
   d="M 115.97416,47.144123 L 115.97416,-0.85587618 L 165.97416,-0.85587618 L 215.97416,-0.85587618 L 215.97416,47.144123 L 215.97416,95.144123 L 165.97416,95.144123 L 115.97416,95.144123 L 115.97416,47.144123 z"
   style="fill:#fefefc" /><path
   id="path3697"
   d="M 58.364322,74.817569 C 57.28479,74.328992 53.928433,71.751533 50.905735,69.089893 C 43.148624,62.25935 39.602804,59.984973 37.627307,60.572803 C 36.725987,60.840997 32.102252,63.978291 27.352302,67.544568 C 18.866676,73.915622 16.121028,75.337723 13.929625,74.496803 C 12.01057,73.760389 12.708356,70.582466 17.19187,59.639547 C 19.592176,53.781121 21.447009,48.241216 21.313728,47.328647 C 21.155104,46.242589 17.853815,43.349614 11.756954,38.953879 C -3.6056131,27.877716 -3.484996,26.099485 12.681309,25.326204 C 18.536166,25.04615 24.043406,24.381707 25.232156,23.81196 C 26.928191,22.999071 28.056605,21.013634 30.894071,13.849892 C 37.528728,-2.9005771 42.73099,-3.9952841 46.997412,10.461282 C 50.247204,21.473039 51.353164,24.056023 53.151201,24.833607 C 54.075257,25.23323 59.646783,25.846894 65.532377,26.197305 C 73.72624,26.685143 76.531446,27.132419 77.505371,28.106341 C 80.361445,30.962416 78.012186,33.996699 69.068423,39.003448 C 60.193544,43.97164 56.794093,46.481834 56.794093,48.066978 C 56.794093,48.740246 58.38395,54.001826 60.327108,59.759378 C 62.270274,65.516924 63.860123,70.925318 63.860123,71.778023 C 63.860123,75.721236 62.285364,76.592179 58.364322,74.817569 z"
   style="fill:#ffffff;fill-opacity:1;stroke:#ff970b;stroke-width:0.78511441;stroke-opacity:1" /><path
   id="path2899"
   d="M 58.364322,74.817569 C 57.28479,74.328992 53.928425,71.751535 50.905735,69.089896 C 43.148624,62.259346 39.602796,59.984969 37.627299,60.572799 C 36.725987,60.840993 32.102244,63.97829 27.352302,67.544571 C 18.866676,73.915622 16.121028,75.337723 13.929625,74.496803 C 12.01057,73.760389 12.708356,70.582462 17.19187,59.639543 C 19.592176,53.781117 21.447009,48.241212 21.31372,47.328643 C 21.155096,46.242585 17.853815,43.34961 11.756954,38.953875 C -3.6056107,27.877712 -3.4849936,26.099481 12.681309,25.326201 C 18.536166,25.046146 24.043406,24.381703 25.232148,23.811956 C 26.928183,22.999067 28.056597,21.01363 30.894071,13.849888 C 37.52872,-2.9005803 42.73099,-3.9952874 46.997412,10.461278 C 50.247204,21.473035 51.353164,24.056019 53.151193,24.833603 C 54.075257,25.233226 59.646783,25.84689 65.532369,26.197301 C 73.72624,26.685139 76.531446,27.132415 77.505364,28.106337 C 80.361445,30.962412 78.012186,33.996695 69.068423,39.003444 C 60.193536,43.971636 56.794093,46.48183 56.794093,48.066975 C 56.794093,48.740242 58.38395,54.001822 60.327108,59.759374 C 62.270266,65.516926 63.860123,70.92532 63.860123,71.778025 C 63.860123,75.721236 62.285364,76.592179 58.364322,74.817569 z"
   style="fill:url(#radialGradient3695);fill-opacity:1;stroke:#ff970b;stroke-width:0.78511441;stroke-opacity:1" /><path
   style="fill:#000000"
   d=""
   id="path2883" /></svg>