<?xml version="1.0" encoding="UTF-8" standalone="no"?>
<!-- Created with Sodipodi ("http://www.sodipodi.com/") -->
<svg
   xmlns:dc="http://purl.org/dc/elements/1.1/"
   xmlns:cc="http://creativecommons.org/ns#"
   xmlns:rdf="http://www.w3.org/1999/02/22-rdf-syntax-ns#"
   xmlns:svg="http://www.w3.org/2000/svg"
   xmlns="http://www.w3.org/2000/svg"
   xmlns:xlink="http://www.w3.org/1999/xlink"
   xmlns:sodipodi="http://sodipodi.sourceforge.net/DTD/sodipodi-0.dtd"
   xmlns:inkscape="http://www.inkscape.org/namespaces/inkscape"
   id="svg774"
   sodipodi:version="0.32"
   width="86.400543"
   height="80.21891"
   xml:space="preserve"
   sodipodi:docbase="/home/franck/Dessins/Vectoriels/Transports"
   sodipodi:docname="sun.svg"
   inkscape:version="0.46"
   inkscape:output_extension="org.inkscape.output.svg.inkscape"
   sodipodi:modified="true"
   version="1.0"><metadata
   id="metadata147"><rdf:RDF><cc:Work
       rdf:about=""><dc:format>image/svg+xml</dc:format><dc:type
         rdf:resource="http://purl.org/dc/dcmitype/StillImage" /></cc:Work></rdf:RDF></metadata><defs
   id="defs776"><linearGradient
   id="linearGradient3809"><stop
     id="stop3811"
     offset="0"
     style="stop-color:#ff7600;stop-opacity:1;" /><stop
     id="stop3813"
     offset="1"
     style="stop-color:#fefefc;stop-opacity:1" /></linearGradient><linearGradient
   id="linearGradient3689"><stop
     style="stop-color:#ff7600;stop-opacity:1;"
     offset="0"
     id="stop3691" /><stop
     style="stop-color:#ffde41;stop-opacity:0;"
     offset="1"
     id="stop3693" /></linearGradient><inkscape:perspective
   sodipodi:type="inkscape:persp3d"
   inkscape:vp_x="0 : 148.85376 : 1"
   inkscape:vp_y="0 : 1000 : 0"
   inkscape:vp_z="772.48639 : 148.85376 : 1"
   inkscape:persp3d-origin="386.24319 : 99.23584 : 1"
   id="perspective161" /><linearGradient
   id="linearGradient947"><stop
     style="stop-color:#ffffff;stop-opacity:1;"
     offset="0"
     id="stop948" /><stop
     style="stop-color:#000000;stop-opacity:1;"
     offset="1"
     id="stop949" /></linearGradient><linearGradient
   id="linearGradient863"><stop
     style="stop-color:#9a9a9a;stop-opacity:1;"
     offset="0"
     id="stop864" /><stop
     style="stop-color:#e6e6e6;stop-opacity:1;"
     offset="1"
     id="stop865" /></linearGradient><linearGradient
   id="linearGradient859"><stop
     style="stop-color:#b25700;stop-opacity:1;"
     offset="0"
     id="stop860" /><stop
     style="stop-color:#ff8d00;stop-opacity:1;"
     offset="1"
     id="stop861" /></linearGradient><linearGradient
   id="linearGradient813"><stop
     style="stop-color:#ddffff;stop-opacity:1;"
     offset="0"
     id="stop814" /><stop
     style="stop-color:#f3f3f3;stop-opacity:1;"
     offset="1"
     id="stop815" /></linearGradient><linearGradient
   id="linearGradient807"><stop
     style="stop-color:#000;stop-opacity:1;"
     offset="0"
     id="stop808" /><stop
     style="stop-color:#fff;stop-opacity:1;"
     offset="1"
     id="stop809" /></linearGradient><linearGradient
   xlink:href="#linearGradient807"
   id="linearGradient810"
   x1="781.25006"
   y1="293.82883"
   x2="778.88409"
   y2="249.26498"
   gradientTransform="scale(0.8164973,1.2247438)"
   gradientUnits="userSpaceOnUse" /><linearGradient
   xlink:href="#linearGradient807"
   id="linearGradient811"
   x1="1514.0569"
   y1="66.653"
   x2="1527.087"
   y2="66.937988"
   gradientTransform="scale(0.3256697,3.0705954)"
   spreadMethod="reflect"
   gradientUnits="userSpaceOnUse" /><linearGradient
   xlink:href="#linearGradient813"
   id="linearGradient812"
   x1="1346.4875"
   y1="122.42879"
   x2="1521.6838"
   y2="120.17594"
   gradientTransform="scale(0.4229066,2.3645884)"
   gradientUnits="userSpaceOnUse" /><linearGradient
   xlink:href="#linearGradient813"
   id="linearGradient816"
   gradientTransform="scale(0.9661408,1.0350458)"
   x1="576.2915"
   y1="174.21826"
   x2="643.77521"
   y2="174.21826"
   gradientUnits="userSpaceOnUse" /><linearGradient
   xlink:href="#linearGradient859"
   id="linearGradient817"
   x1="30.065086"
   y1="1598.4626"
   x2="30.400017"
   y2="1465.3843"
   spreadMethod="pad"
   gradientTransform="scale(5.4319361,0.1840964)"
   gradientUnits="userSpaceOnUse" /><linearGradient
   xlink:href="#linearGradient813"
   id="linearGradient818"
   gradientTransform="scale(0.7478746,1.3371226)"
   x1="846.2688"
   y1="226.51025"
   x2="855.63068"
   y2="226.51025"
   gradientUnits="userSpaceOnUse" /><linearGradient
   xlink:href="#linearGradient813"
   id="linearGradient819"
   gradientTransform="scale(0.7478746,1.3371226)"
   x1="846.2688"
   y1="226.51025"
   x2="855.63068"
   y2="226.51025"
   gradientUnits="userSpaceOnUse" /><linearGradient
   xlink:href="#linearGradient807"
   id="linearGradient820"
   x1="1428.7166"
   y1="68.676826"
   x2="1480.5465"
   y2="68.676826"
   spreadMethod="pad"
   gradientTransform="scale(0.3383427,2.9555836)"
   gradientUnits="userSpaceOnUse" /><radialGradient
   xlink:href="#linearGradient807"
   id="radialGradient821"
   cx="0.51982594"
   cy="0.48437494"
   r="1.6150841"
   fx="0.51982594"
   fy="0.48437494"
   spreadMethod="pad" /><linearGradient
   xlink:href="#linearGradient807"
   id="linearGradient826"
   x1="3103.2737"
   y1="34.891914"
   x2="3113.002"
   y2="35.027092"
   spreadMethod="reflect"
   gradientTransform="scale(0.1670318,5.9868853)"
   gradientUnits="userSpaceOnUse" /><radialGradient
   xlink:href="#linearGradient807"
   id="radialGradient827"
   cx="359.8887"
   cy="442.81534"
   r="6.0662632"
   fx="359.8887"
   fy="442.81534"
   spreadMethod="reflect"
   gradientTransform="scale(1.3416384,0.7453573)"
   gradientUnits="userSpaceOnUse" /><linearGradient
   xlink:href="#linearGradient807"
   id="linearGradient842"
   x1="356.84253"
   y1="438.98734"
   x2="359.88962"
   y2="438.32642"
   gradientTransform="scale(1.3468082,0.7424962)"
   spreadMethod="reflect"
   gradientUnits="userSpaceOnUse" /><linearGradient
   xlink:href="#linearGradient859"
   id="linearGradient858"
   x1="410.84442"
   y1="432.69513"
   x2="499.28995"
   y2="425.5611"
   gradientTransform="scale(1.3700113,0.729921)"
   gradientUnits="userSpaceOnUse" /><linearGradient
   xlink:href="#linearGradient863"
   id="linearGradient862"
   x1="1027.5242"
   y1="95.39447"
   x2="951.65369"
   y2="102.98058"
   gradientTransform="scale(0.496811,2.0128378)"
   gradientUnits="userSpaceOnUse" /><linearGradient
   xlink:href="#linearGradient863"
   id="linearGradient866"
   x1="502.45963"
   y1="225.94942"
   x2="630.35931"
   y2="165.67783"
   gradientTransform="scale(0.9466565,1.0563494)"
   gradientUnits="userSpaceOnUse" /><linearGradient
   xlink:href="#linearGradient859"
   id="linearGradient869"
   x1="345.013"
   y1="475.3526"
   x2="338.09872"
   y2="485.17831"
   gradientTransform="scale(1.5968746,0.6262233)"
   gradientUnits="userSpaceOnUse" /><linearGradient
   xlink:href="#linearGradient859"
   id="linearGradient870"
   x1="352.37216"
   y1="443.01392"
   x2="344.59073"
   y2="451.94662"
   gradientTransform="scale(1.5968746,0.6262233)"
   gradientUnits="userSpaceOnUse" /><linearGradient
   xlink:href="#linearGradient859"
   id="linearGradient871"
   x1="695.70404"
   y1="262.70834"
   x2="719.46515"
   y2="253.47224"
   gradientTransform="scale(0.7928291,1.2613059)"
   gradientUnits="userSpaceOnUse" /><radialGradient
   xlink:href="#linearGradient863"
   id="radialGradient943"
   cx="157.33423"
   cy="479.4436"
   r="79.743141"
   fx="157.33423"
   fy="479.4436"
   gradientUnits="userSpaceOnUse" /><radialGradient
   xlink:href="#linearGradient807"
   id="radialGradient944"
   cx="173.67632"
   cy="466.84573"
   r="145.44254"
   fx="173.67632"
   fy="466.84573"
   gradientUnits="userSpaceOnUse" /><radialGradient
   xlink:href="#linearGradient947"
   id="radialGradient946"
   cx="2202.1675"
   cy="116.22642"
   r="11.371883"
   fx="2202.1675"
   fy="116.22642"
   gradientTransform="scale(0.2453248,4.076229)"
   gradientUnits="userSpaceOnUse" /><linearGradient
   xlink:href="#linearGradient807"
   id="linearGradient993"
   x1="381.02792"
   y1="427.90057"
   x2="380.26804"
   y2="491.0639"
   gradientTransform="scale(1.3296957,0.7520517)"
   gradientUnits="userSpaceOnUse" /><linearGradient
   xlink:href="#linearGradient863"
   id="linearGradient996"
   x1="16.958405"
   y1="481.94681"
   x2="209.16974"
   y2="401.54221"
   gradientTransform="scale(1.7614556,0.5677123)"
   gradientUnits="userSpaceOnUse" /><linearGradient
   xlink:href="#linearGradient807"
   id="linearGradient1046"
   x1="-163.9315"
   y1="209.73813"
   x2="-190.72595"
   y2="210.78212"
   gradientTransform="scale(0.6262275,1.5968637)"
   gradientUnits="userSpaceOnUse" /><linearGradient
   xlink:href="#linearGradient859"
   id="linearGradient1047"
   x1="4.5451202e-07"
   y1="-2.366437e-07"
   x2="1.0000004"
   y2="-2.366437e-07" /><linearGradient
   xlink:href="#linearGradient807"
   id="linearGradient1048"
   x1="-252.04443"
   y1="112.78257"
   x2="-300.0531"
   y2="112.40757"
   gradientTransform="scale(0.3535537,2.8284243)"
   gradientUnits="userSpaceOnUse" />
<linearGradient
   inkscape:collect="always"
   xlink:href="#linearGradient863"
   id="linearGradient2669"
   gradientUnits="userSpaceOnUse"
   gradientTransform="scale(1.7614556,0.5677123)"
   x1="16.958405"
   y1="481.94681"
   x2="209.16974"
   y2="401.54221" /><linearGradient
   inkscape:collect="always"
   xlink:href="#linearGradient859"
   id="linearGradient2671"
   gradientUnits="userSpaceOnUse"
   gradientTransform="scale(5.4319361,0.1840964)"
   spreadMethod="pad"
   x1="30.065086"
   y1="1598.4626"
   x2="30.400017"
   y2="1465.3843" />

<inkscape:perspective
   id="perspective2877"
   inkscape:persp3d-origin="372.04724 : 350.78739 : 1"
   inkscape:vp_z="744.09448 : 526.18109 : 1"
   inkscape:vp_y="0 : 1000 : 0"
   inkscape:vp_x="0 : 526.18109 : 1"
   sodipodi:type="inkscape:persp3d" /><radialGradient
   inkscape:collect="always"
   xlink:href="#linearGradient3689"
   id="radialGradient3695"
   cx="129.17563"
   cy="78.158661"
   fx="129.17563"
   fy="78.158661"
   r="50.340446"
   gradientTransform="matrix(0.7175119,-1.242766,1.7363542,1.0024845,-68.878637,196.21762)"
   gradientUnits="userSpaceOnUse" /><inkscape:perspective
   id="perspective3765"
   inkscape:persp3d-origin="372.04724 : 350.78739 : 1"
   inkscape:vp_z="744.09448 : 526.18109 : 1"
   inkscape:vp_y="0 : 1000 : 0"
   inkscape:vp_x="0 : 526.18109 : 1"
   sodipodi:type="inkscape:persp3d" /><radialGradient
   inkscape:collect="always"
   xlink:href="#linearGradient3809"
   id="radialGradient3807"
   cx="69.488205"
   cy="74.513756"
   fx="69.488205"
   fy="74.513756"
   r="33.320175"
   gradientTransform="matrix(-2.7249372,5.0375252,-1.7302526,-0.9662912,369.00356,-236.60057)"
   gradientUnits="userSpaceOnUse" /><radialGradient
   inkscape:collect="always"
   xlink:href="#linearGradient3809"
   id="radialGradient3821"
   gradientUnits="userSpaceOnUse"
   gradientTransform="matrix(-2.7249372,5.0375252,-1.7302526,-0.9662912,369.00356,-236.60057)"
   cx="69.488205"
   cy="74.513756"
   fx="69.488205"
   fy="74.513756"
   r="33.320175" /></defs><sodipodi:namedview
   id="base"
   inkscape:zoom="4.0745436"
   inkscape:cx="67.545885"
   inkscape:cy="50.581762"
   inkscape:window-width="1256"
   inkscape:window-height="719"
   inkscape:window-x="3"
   inkscape:window-y="25"
   inkscape:current-layer="svg774"
   showgrid="false" />

<path
   style="fill:#000000"
   d=""
   id="path2883" /><path
   id="path3787"
   d="M 39.019252,78.451818 C 37.915412,77.232092 37.780723,76.148058 38.119284,71.20855 C 38.338267,68.013671 38.925613,64.907853 39.424501,64.306732 C 40.835885,62.606118 44.572805,63.29284 45.65962,65.452541 C 46.97441,68.065271 46.849644,76.305955 45.465373,78.282273 C 44.045053,80.310068 40.77869,80.395977 39.019252,78.451818 z M 59.20857,75.116584 C 55.834771,71.476196 52.973204,66.313438 53.212895,64.299361 C 53.517448,61.740266 55.344028,60.605601 57.701606,61.510992 C 59.88135,62.348087 66.795976,71.670779 66.795976,73.772541 C 66.795976,77.381041 62.081214,78.216217 59.20857,75.116584 z M 13.803744,75.143726 C 11.567812,72.907797 12.464479,70.95431 18.360265,65.216849 C 24.31381,59.42318 26.534369,58.4915 28.856012,60.813143 C 31.093631,63.050762 30.187381,64.906121 24.036193,70.680719 C 17.922859,76.419779 15.943235,77.283216 13.803744,75.143726 z M 71.093994,61.541501 C 67.317523,60.226984 62.636855,57.024598 62.122273,55.403295 C 61.538742,53.56475 62.865709,51.044605 64.475894,50.933351 C 66.802872,50.772573 67.882442,51.090461 72.38629,53.262637 C 75.758131,54.888854 77.012474,55.908458 77.363927,57.308748 C 78.276208,60.943552 75.248412,62.987576 71.093994,61.541501 z M 4.446325,60.906426 C 3.5931724,60.282586 3.2450627,59.255984 3.4062847,57.839269 C 3.6206203,55.955825 4.4273548,55.306608 10.389111,52.219862 C 17.46841,48.5545 19.857202,48.267139 21.271994,50.910703 C 22.751252,53.674721 21.366751,55.315959 14.754425,58.636869 C 7.9375773,62.060496 6.4673108,62.384207 4.446325,60.906426 z M 37.442486,61.079218 C 28.04882,59.256711 20.608194,50.503897 20.608194,41.276123 C 20.608194,33.874368 25.788301,26.127113 32.876823,22.927431 C 37.57077,20.808635 45.062229,20.901065 49.863897,23.13702 C 56.539788,26.245728 61.744187,34.191926 61.744187,41.276123 C 61.744187,53.386719 49.446252,63.408123 37.442486,61.079218 z M 2.0049863,44.843622 C -0.28699238,43.238257 -0.15848209,39.95853 2.2392065,38.86607 C 4.6780935,37.754839 13.284215,37.814255 15.556405,38.958011 C 17.733919,40.054111 18.296793,43.123583 16.626563,44.793814 C 14.996144,46.424233 4.3135786,46.460623 2.0049863,44.843622 z M 64.069819,43.400253 C 63.174211,42.772945 62.465871,41.516169 62.465871,40.554439 C 62.465871,37.441498 64.857697,36.585177 73.55257,36.585177 C 82.027919,36.585177 83.320022,37.125846 83.37176,40.693938 C 83.413762,43.590623 80.869811,44.523702 72.930291,44.523702 C 67.530591,44.523702 65.263343,44.23623 64.069819,43.400253 z M 64.87481,31.52765 C 62.929054,30.751404 62.139272,28.440334 63.164867,26.523993 C 63.951534,25.054092 68.265452,23.483474 74.88472,22.257009 C 78.884415,21.515918 81.476567,22.478817 81.815297,24.831497 C 82.264682,27.952703 79.838128,29.153728 67.51766,31.908118 C 66.922271,32.041224 65.732988,31.870014 64.87481,31.52765 z M 12.102795,27.640659 C 8.8140662,26.306865 5.4699264,24.624294 4.6713724,23.901613 C 2.6596486,22.081028 3.0986194,19.122693 5.5052916,18.281621 C 9.3216923,16.947885 23.49493,23.43999 23.49493,26.521843 C 23.49493,27.677452 20.678815,30.090699 19.345246,30.07788 C 18.650625,30.071203 15.391522,28.974454 12.102795,27.640659 z M 25.090433,21.610232 C 24.292309,20.915611 21.658268,18.122423 19.23701,15.403148 C 16.156885,11.943911 14.834721,9.8739735 14.834721,8.5110642 C 14.834721,6.0395819 16.040306,4.8310764 18.505818,4.8310764 C 20.029407,4.8310764 21.622093,6.1506621 25.939164,10.989814 C 31.702334,17.449946 32.507738,19.51221 30.113682,21.6788 C 28.419362,23.212139 26.90732,23.191499 25.090433,21.610232 z M 56.115051,21.285474 C 55.63874,20.809162 55.24903,19.631043 55.24903,18.667431 C 55.24903,16.724345 61.822159,7.3914161 64.018537,6.2159507 C 65.782225,5.2720535 68.025484,5.9697323 68.983698,7.7601706 C 69.888308,9.4504503 69.030432,11.278254 64.346163,17.640969 C 61.644497,21.310684 60.648526,22.151495 59.00328,22.151495 C 57.891065,22.151495 56.591363,21.761785 56.115051,21.285474 z M 39.027644,17.117946 C 38.072152,16.062138 37.762807,14.613342 37.83395,11.527358 C 38.061673,1.6493516 39.82328,-1.1280612 44.088318,1.6664988 C 45.710794,2.7295864 45.867137,3.2963235 45.867137,8.1146741 C 45.867137,13.492247 45.017729,16.996083 43.476514,17.976073 C 42.002646,18.91324 40.366812,18.59771 39.027644,17.117946 z"
   style="fill:#ffe154;fill-opacity:1;stroke:#ff970b;stroke-width:0.7216841;stroke-opacity:1" /><path
   sodipodi:type="arc"
   style="opacity:0.7;fill:url(#radialGradient3821);fill-opacity:1;fill-rule:nonzero;stroke:#e6ddd0;stroke-width:0;stroke-linecap:round;stroke-linejoin:round;marker:none;marker-start:none;marker-mid:none;marker-end:none;stroke-miterlimit:4;stroke-dasharray:none;stroke-dashoffset:0;stroke-opacity:1;visibility:visible;display:inline;overflow:visible"
   id="path3799"
   sodipodi:cx="62.128242"
   sodipodi:cy="48.841255"
   sodipodi:rx="33.320175"
   sodipodi:ry="31.411207"
   d="M 95.448418,48.841255 A 33.320175,31.411207 0 1 1 28.808067,48.841255 A 33.320175,31.411207 0 1 1 95.448418,48.841255 z"
   transform="matrix(0.6201972,0,0,0.6442658,2.7398942,10.177573)" /></svg>