<?xml version="1.0" encoding="UTF-8" standalone="no"?>
<!-- Created with Sodipodi ("http://www.sodipodi.com/") -->
<svg
   xmlns:dc="http://purl.org/dc/elements/1.1/"
   xmlns:cc="http://creativecommons.org/ns#"
   xmlns:rdf="http://www.w3.org/1999/02/22-rdf-syntax-ns#"
   xmlns:svg="http://www.w3.org/2000/svg"
   xmlns="http://www.w3.org/2000/svg"
   xmlns:xlink="http://www.w3.org/1999/xlink"
   xmlns:sodipodi="http://sodipodi.sourceforge.net/DTD/sodipodi-0.dtd"
   xmlns:inkscape="http://www.inkscape.org/namespaces/inkscape"
   id="svg602"
   sodipodi:version="0.32"
   width="202.01608"
   height="190.80852"
   xml:space="preserve"
   sodipodi:docbase="/home/franck/Dessins/Vectoriels/Objets_divers"
   sodipodi:docname="tree.svg"
   inkscape:version="0.46"
   inkscape:output_extension="org.inkscape.output.svg.inkscape"
   sodipodi:modified="true"
   version="1.0"><metadata
     id="metadata25"><rdf:RDF><cc:Work
         rdf:about=""><dc:format>image/svg+xml</dc:format><dc:type
           rdf:resource="http://purl.org/dc/dcmitype/StillImage" /></cc:Work></rdf:RDF></metadata><defs
     id="defs604"><inkscape:perspective
       sodipodi:type="inkscape:persp3d"
       inkscape:vp_x="0 : 485.52798 : 1"
       inkscape:vp_y="0 : 1000 : 0"
       inkscape:vp_z="1028.0931 : 485.52798 : 1"
       inkscape:persp3d-origin="514.04657 : 323.68532 : 1"
       id="perspective35" /><linearGradient
       id="linearGradient622"><stop
         style="stop-color:#ba8700;stop-opacity:1;"
         offset="0"
         id="stop623" /><stop
         style="stop-color:#4a2d00;stop-opacity:1;"
         offset="1"
         id="stop624" /></linearGradient><linearGradient
       id="linearGradient609"><stop
         style="stop-color:#004f00;stop-opacity:1;"
         offset="0"
         id="stop610" /><stop
         style="stop-color:#009d00;stop-opacity:1;"
         offset="1"
         id="stop611" /></linearGradient><radialGradient
       xlink:href="#linearGradient609"
       id="radialGradient612"
       cx="0.50884956"
       cy="0.53125"
       r="0.90263408"
       fx="0.50884956"
       fy="0.53125" /><radialGradient
       xlink:href="#linearGradient609"
       id="radialGradient616"
       cx="0.51785719"
       cy="0.86719024"
       r="1.1343853"
       fx="0.51785719"
       fy="0.86719024" /><radialGradient
       xlink:href="#linearGradient609"
       id="radialGradient618"
       cx="0.90151513"
       cy="0.89843738"
       r="1.067353"
       fx="0.90151513"
       fy="0.89843738" /><radialGradient
       xlink:href="#linearGradient609"
       id="radialGradient619"
       cx="0.52525252"
       cy="0.96875"
       r="1.1017478"
       fx="0.52525252"
       fy="0.96875" /><radialGradient
       xlink:href="#linearGradient609"
       id="radialGradient620"
       cx="0.53355706"
       cy="0.481132"
       r="0.6412062"
       fx="0.53355706"
       fy="0.481132" /><linearGradient
       xlink:href="#linearGradient622"
       id="linearGradient621"
       x1="0.12264531"
       y1="0.70313704"
       x2="0.7641511"
       y2="0.25781262" /><radialGradient
       inkscape:collect="always"
       xlink:href="#linearGradient609"
       id="radialGradient2187"
       cx="217.96634"
       cy="481.98694"
       fx="217.96634"
       fy="481.98694"
       r="283.0033"
       gradientTransform="scale(1.4348385,0.6969425)"
       gradientUnits="userSpaceOnUse" /><linearGradient
       inkscape:collect="always"
       xlink:href="#linearGradient622"
       id="linearGradient2189"
       x1="29.547966"
       y1="609.56396"
       x2="440.22662"
       y2="324.4765"
       gradientTransform="scale(0.9049503,1.1050331)"
       gradientUnits="userSpaceOnUse" /><radialGradient
       inkscape:collect="always"
       xlink:href="#linearGradient609"
       id="radialGradient2191"
       cx="193.06175"
       cy="81.497215"
       fx="193.06175"
       fy="81.497215"
       r="377.39981"
       gradientTransform="scale(1.6078406,0.6219522)"
       gradientUnits="userSpaceOnUse" /><radialGradient
       inkscape:collect="always"
       xlink:href="#linearGradient609"
       id="radialGradient2193"
       cx="6.0847654"
       cy="515.54218"
       fx="6.0847654"
       fy="515.54218"
       r="283.00333"
       gradientTransform="scale(1.4348387,0.6969424)"
       gradientUnits="userSpaceOnUse" /><radialGradient
       inkscape:collect="always"
       xlink:href="#linearGradient609"
       id="radialGradient2195"
       cx="202.42365"
       cy="600.52179"
       fx="202.42365"
       fy="600.52179"
       r="296.56088"
       gradientTransform="scale(1.1925294,0.8385537)"
       gradientUnits="userSpaceOnUse" /><radialGradient
       inkscape:collect="always"
       xlink:href="#linearGradient609"
       id="radialGradient2197"
       cx="45.909859"
       cy="160.76422"
       fx="45.909859"
       fy="160.76422"
       r="320.93378"
       gradientTransform="scale(1.3193366,0.7579567)"
       gradientUnits="userSpaceOnUse" /><radialGradient
       inkscape:collect="always"
       xlink:href="#linearGradient609"
       id="radialGradient2199"
       cx="506.85065"
       cy="354.57132"
       fx="506.85065"
       fy="354.57132"
       r="441.73105"
       gradientTransform="scale(1.2139903,0.8237298)"
       gradientUnits="userSpaceOnUse" /><radialGradient
       inkscape:collect="always"
       xlink:href="#linearGradient609"
       id="radialGradient2201"
       cx="355.6348"
       cy="462.88739"
       fx="355.6348"
       fy="462.88739"
       r="219.61752"
       gradientTransform="scale(1.3944151,0.7171466)"
       gradientUnits="userSpaceOnUse" /></defs><sodipodi:namedview
     id="base"
     inkscape:zoom="0.36014217"
     inkscape:cx="372.04724"
     inkscape:cy="-260.02114"
     inkscape:window-width="822"
     inkscape:window-height="719"
     inkscape:window-x="423"
     inkscape:window-y="45"
     inkscape:current-layer="svg602"
     showgrid="false" /><g
     id="g2177"
     transform="matrix(0.1964959,0,0,0.1964959,36.3239,17.185737)"><path
       sodipodi:nodetypes="cssssscsssssssssscssss"
       id="path627"
       d="M 486.9436,259.7367 C 484.6104,269.5046 488.8917,301.0144 482.4229,305.8297 C 475.954,310.6452 477.0239,335.64 433.2486,335.838 C 421.3115,335.8936 410.1489,341.8546 396.6421,341.4961 C 368.2124,340.7751 364.2112,327.3786 353.445,329.6686 C 342.6784,331.9588 350.3136,334.0569 338.5972,335.2627 C 326.8808,336.4684 320.7049,323.9837 308.2797,323.9837 C 295.8544,323.9837 277.7681,336.4684 266.0516,335.2627 C 254.3351,334.0569 249.6504,323.5334 238.8839,321.2433 C 228.1175,318.9531 228.5028,330.6744 195.7679,317.8012 C 186.468,314.2164 156.0511,314.3771 149.5823,309.5617 C 143.1134,304.7463 125.8203,289.8579 119.2814,266.9528 C 117.5109,260.8698 135.2402,232.0744 139.794,226.6599 C 144.3478,221.2456 146.611,200.7959 153.0798,195.9806 C 159.5486,191.1652 187.67,183.8262 197.2451,180.5731 C 206.8203,177.3199 221.5005,165.4771 232.267,163.1869 C 243.0334,160.8967 259.8807,164.9404 278.7372,165.4293 C 321.9942,166.5683 331.5863,164.3819 344.0115,164.3819 C 356.4368,164.3819 387.8214,171.3025 391.0438,178.0912 C 394.0019,185.717 402.9212,193.794 411.0638,197.8891 C 419.2064,201.9839 426.4688,202.5214 435.0264,205.6004 C 467.3016,217.412 492.5267,241.6475 486.9436,259.7367 z"
       style="font-size:12px;fill:url(#radialGradient2187);fill-opacity:1;fill-rule:evenodd;stroke-width:1" /><path
       sodipodi:nodetypes="ccccccccccccccccccsccscscscscc"
       id="path628"
       d="M 142.9461,427.0807 C 199.6416,468.8927 217.7254,501.6167 193.2421,519.6374 C 172.9111,531.8535 110.752,460.0184 97.00919,444.8471 C 120.9102,417.2908 190.2911,266.2802 186.5101,230.9161 C 148.5931,316.3315 96.73939,426.7309 80.2214,422.4218 C 70.01449,417.7277 -4.137913,307.7396 -44.31271,315.903 C -33.36381,328.1129 51.84059,395.4149 71.25309,456.0727 C 93.21769,490.3071 191.8581,576.9511 201.5941,609.0432 C 205.6051,637.8624 216.6311,735.8968 198.5871,810.6464 C 181.5451,828.6583 140.4461,838.565 144.4551,861.9805 C 165.5071,879.0919 201.5941,834.062 240.6891,834.9625 C 238.6841,856.5769 227.6571,875.4895 240.6891,880.8931 C 259.7351,880.8931 272.7671,856.5769 294.8211,851.1733 C 314.8691,854.7758 346.9471,869.1853 366.9961,883.5949 C 395.0641,882.6943 362.9861,846.6704 348.9521,826.8572 C 377.0201,822.3542 417.1181,825.9566 451.2001,840.3662 C 466.2371,812.4477 409.0981,795.3363 391.0541,780.9267 C 370.0031,676.4573 331.7261,563.8263 471.8611,413.862 C 459.3451,407.4142 547.9151,274.4372 533.4061,282.1986 C 518.8971,289.96 436.7461,443.1844 419.4191,410.2896 C 410.3601,390.3875 405.8871,304.8448 402.6331,287.4576 C 392.0291,313.8262 412.7011,498.0134 328.2031,501.5078 C 314.4911,502.0671 312.1281,478.7132 335.4111,385.3532 C 343.8631,284.3129 414.8981,175.6223 406.8981,176.1778 C 381.1731,177.8482 318.6041,331.6792 308.4261,363.0757 C 295.3451,358.9515 242.9031,221.4784 217.1601,194.1117 C 201.4251,179.4263 286.6621,363.4388 299.8201,387.0551 C 287.6621,417.2494 294.7851,508.688 254.0261,500.3358 C 246.1581,498.7869 235.1761,420.3121 241.6401,323.1599 C 201.0851,357.3984 283.5539,522.3488 142.9461,427.0807 z"
       style="font-size:12px;fill:url(#linearGradient2189);fill-opacity:1;fill-rule:evenodd" /><path
       sodipodi:nodetypes="cssssscsssssssssscssss"
       id="path626"
       d="M -4.917947,64.32833 C 13.12798,74.62376 -29.90913,102.3186 -17.7635,109.5761 C -5.617657,116.8337 4.758213,138.6578 20.0467,144.8296 C 35.33496,151.0014 89.76267,147.0295 107.7409,151.9325 C 125.7188,156.8358 144.9286,140.6288 165.143,144.0804 C 185.3579,147.532 206.5778,170.6422 228.5763,172.4594 C 250.5747,174.2766 262.1703,155.4601 285.4996,155.4601 C 308.8288,155.4601 342.7875,174.2766 364.786,172.4594 C 386.7846,170.6422 395.5803,154.7815 415.7952,151.3298 C 436.0098,147.8781 435.2867,165.544 496.7483,146.1421 C 514.2098,140.7392 571.3197,140.9812 583.4654,133.7237 C 595.6111,126.4661 628.0805,104.0268 640.3576,69.50492 C 643.6817,60.33675 610.3938,16.93737 601.8437,8.776866 C 593.2935,0.616416 589.0443,-30.20443 576.8985,-37.46196 C 564.7529,-44.71953 504.8418,-52.93062 486.8638,-57.83382 C 468.8857,-62.73702 448.4339,-83.43562 428.219,-86.88732 C 408.0041,-90.33882 397.7056,-77.12042 362.3012,-76.38342 C 281.0829,-74.66692 241.7396,-85.08632 218.4106,-85.08632 C 195.0811,-85.08632 136.1541,-74.65582 130.104,-64.42422 C 124.5499,-52.93062 107.8032,-40.7574 92.51479,-34.58565 C 77.22663,-28.41379 63.5909,-27.60377 47.52334,-22.96329 C -13.07564,-5.161274 -65.17841,28.51602 -4.917947,64.32833 z"
       style="font-size:12px;fill:url(#radialGradient2191);fill-opacity:1;fill-rule:evenodd;stroke-width:1" /><path
       sodipodi:nodetypes="cssssscsssssssssscssss"
       id="path608"
       d="M 182.9278,283.1227 C 180.5946,292.8906 184.8759,324.4004 178.4071,329.2157 C 171.9382,334.0312 173.0081,359.026 129.2328,359.224 C 117.2957,359.2796 106.1331,365.2406 92.6263,364.8821 C 64.1966,364.1611 60.19543,350.7646 49.42915,353.0546 C 38.66258,355.3448 46.29782,357.4429 34.58137,358.6487 C 22.86495,359.8544 16.68912,347.3697 4.263842,347.3697 C -8.161374,347.3697 -26.24775,359.8544 -37.9642,358.6487 C -49.68073,357.4429 -54.36545,346.9194 -65.13189,344.6293 C -75.89828,342.3391 -75.51305,354.0604 -108.2479,341.1872 C -117.5478,337.6024 -147.9647,337.7631 -154.4335,332.9477 C -160.9024,328.1323 -178.1956,313.2439 -184.7345,290.3388 C -186.505,284.2558 -168.7756,255.4604 -164.2218,250.0459 C -159.668,244.6316 -157.4048,224.1819 -150.936,219.3666 C -144.4672,214.5512 -116.3458,207.2122 -106.7707,203.9591 C -97.19547,200.7059 -82.51527,188.8631 -71.74884,186.5729 C -60.98245,184.2827 -44.13507,188.3264 -25.27865,188.8153 C 17.97842,189.9543 27.57046,187.7679 39.99566,187.7679 C 52.42099,187.7679 83.80554,194.6885 87.02794,201.4772 C 89.98609,209.103 98.90538,217.18 107.048,221.2751 C 115.1906,225.3699 122.453,225.9074 131.0106,228.9864 C 163.2858,240.798 188.5109,265.0335 182.9278,283.1227 z"
       style="font-size:12px;fill:url(#radialGradient2193);fill-opacity:1;fill-rule:evenodd;stroke-width:1" /><path
       sodipodi:nodetypes="cssssssscss"
       id="path615"
       d="M 265.7906,400.2073 C 256.9157,387.5747 273.7685,354.5536 239.1265,325.7897 C 178.2903,271.2989 179.8507,304.8815 117.4306,300.6035 C 57.98355,292.0297 27.38656,320.7428 16.91405,324.2268 C -51.38504,345.355 -66.45992,391.4989 -52.65235,444.983 C -49.71304,455.457 -13.02274,505.6642 -4.181245,511.6805 C 4.660056,517.6967 125.6587,546.761 117.8124,505.4991 C 111.666,481.9612 122.81,479.2224 143.5621,486.6702 C 182.0943,497.3976 186.2477,463.2687 197.7207,463.2687 C 204.1827,434.8717 218.7076,435.6038 229.567,451.4169 C 236.0662,459.881 295.4258,444.1489 265.7906,400.2073 z"
       style="font-size:12px;fill:url(#radialGradient2195);fill-opacity:1;fill-rule:evenodd;stroke-width:1" /><path
       sodipodi:nodetypes="cssssscsssssssssscssss"
       id="path614"
       d="M 272.3033,135.9891 C 259.711,146.6586 289.7419,175.3597 281.2668,182.8809 C 272.7916,190.4023 270.5626,229.7236 259.8943,236.1197 C 249.2265,242.5158 197.8837,241.7403 185.3388,246.8214 C 172.7938,251.9029 164.4007,235.107 150.2953,238.6841 C 136.1894,242.2612 124.7232,246.1659 109.3728,248.0492 C 94.02238,249.9325 85.9311,230.4322 69.65207,230.4322 C 53.37313,230.4322 29.67705,249.9325 14.32666,248.0492 C -1.023803,246.1659 -7.161493,229.729 -21.26721,226.1519 C -35.37289,222.5748 -34.86819,240.8825 -77.75574,220.7756 C -89.94014,215.1765 -129.791,215.4273 -138.2662,207.906 C -146.7414,200.3847 -169.3983,177.13 -177.9652,141.3538 C -180.2848,131.8524 -157.0566,86.87607 -151.0904,78.41904 C -145.1242,69.96208 -142.1591,38.02132 -133.6839,30.50003 C -125.2088,22.97874 -83.40324,14.46915 -70.85835,9.387817 C -58.31343,4.306488 -44.04222,-17.14432 -29.93653,-20.72144 C -15.83079,-24.29848 -8.644323,-10.59952 16.06051,-9.835815 C 72.73401,-8.057022 100.1874,-18.85498 116.4663,-18.85498 C 132.7455,-18.85498 173.8642,-8.045425 178.086,2.557983 C 181.9616,14.46915 193.6473,27.08481 204.3154,33.48091 C 214.9834,39.87701 224.4983,40.71648 235.7101,45.52559 C 277.9956,63.97446 314.3526,98.8755 272.3033,135.9891 z"
       style="font-size:12px;fill:url(#radialGradient2197);fill-opacity:1;fill-rule:evenodd;stroke-width:1" /><path
       sodipodi:nodetypes="cssssssssssssscssss"
       id="path613"
       d="M 389.3128,205.9767 C 402.0028,219.0039 371.7391,254.0473 380.2799,263.2306 C 388.8208,272.4141 416.424,325.5759 427.1747,333.3854 C 437.9254,341.1949 455.8925,310.6223 468.5346,316.8263 C 481.1767,323.0306 494.685,302.5232 508.8998,306.8906 C 523.115,311.2581 670.9436,320.4311 685.1587,316.0637 C 699.3738,311.6961 698.8651,334.0495 742.0851,309.4994 C 754.364,302.6629 794.5237,302.9692 803.0647,293.7858 C 811.6055,284.6024 834.4379,256.2089 843.0714,212.5268 C 845.4088,200.9259 822.0007,146.0106 815.9883,135.6846 C 809.9759,125.3588 806.9878,86.35958 798.4469,77.17628 C 789.9059,67.99295 747.7764,57.60279 735.1343,51.39862 C 722.4921,45.19446 708.1103,19.00332 693.8951,14.6358 C 679.6802,10.26829 672.438,26.99444 647.5417,27.92694 C 590.4289,30.09879 562.7628,16.91468 546.3576,16.91468 C 529.9524,16.91468 488.515,30.113 484.2604,43.05955 C 480.3547,57.60279 468.5784,73.00638 457.8278,80.81589 C 447.077,88.62528 437.4884,89.65038 426.1896,95.52218 C 383.5763,118.048 346.9377,160.6616 389.3128,205.9767 z"
       style="font-size:12px;fill:url(#radialGradient2199);fill-opacity:1;fill-rule:evenodd;stroke-width:1" /><path
       sodipodi:nodetypes="cssssscsssssssssscssss"
       id="path617"
       d="M 698.496,345.6642 C 684.8811,354.7517 717.3506,379.1971 708.1873,385.6033 C 699.0238,392.0095 691.1957,411.2731 679.6612,416.7208 C 668.1269,422.1686 627.0635,418.6627 613.4998,422.9905 C 599.9361,427.3185 585.4434,413.0129 570.1924,416.0596 C 554.941,419.1063 549.534,443.1725 532.9371,455.7797 C 517.4329,464.1306 489.038,455.4452 471.4369,455.4452 C 453.8359,437.107 425.5651,431.7102 414.2695,452.1121 C 401.6998,467.1946 392.5891,454.0327 377.338,450.986 C 362.0868,447.9393 366.381,435.005 320.0107,417.8794 C 306.8369,413.1103 263.7499,413.3241 254.5866,406.918 C 245.4232,400.5118 250.9939,400.7501 241.7313,370.2784 C 239.2235,362.1859 244.2927,335.571 250.7435,328.3678 C 257.1942,321.1648 280.445,310.664 289.6084,304.258 C 298.7719,297.8519 332.2792,275.5703 345.8429,271.2424 C 359.4064,266.9144 379.8478,258.6665 395.0989,255.62 C 410.35,252.5732 428.1427,232.5031 454.8537,233.1535 C 516.1293,234.6686 512.4035,213.7788 530.0044,213.7788 C 547.6055,213.7788 592.0632,222.9856 596.6278,232.0168 C 600.8182,242.1619 613.4528,252.9071 624.9871,258.3548 C 636.5214,263.8026 646.809,264.5175 658.9313,268.6136 C 704.6506,284.3271 743.9598,314.0533 698.496,345.6642 z"
       style="font-size:12px;fill:url(#radialGradient2201);fill-opacity:1;fill-rule:evenodd;stroke-width:1" /></g></svg>