<?xml version="1.0" encoding="UTF-8" standalone="no"?>
<!-- Created with Sodipodi ("http://www.sodipodi.com/") -->
<svg
   xmlns:dc="http://purl.org/dc/elements/1.1/"
   xmlns:cc="http://creativecommons.org/ns#"
   xmlns:rdf="http://www.w3.org/1999/02/22-rdf-syntax-ns#"
   xmlns:svg="http://www.w3.org/2000/svg"
   xmlns="http://www.w3.org/2000/svg"
   xmlns:xlink="http://www.w3.org/1999/xlink"
   xmlns:sodipodi="http://sodipodi.sourceforge.net/DTD/sodipodi-0.dtd"
   xmlns:inkscape="http://www.inkscape.org/namespaces/inkscape"
   id="svg602"
   sodipodi:version="0.32"
   width="161.30156"
   height="92.76886"
   xml:space="preserve"
   sodipodi:docbase="/home/franck/Dessins/Vectoriels/Transports"
   sodipodi:docname="tuxhelico.svg"
   inkscape:version="0.46"
   inkscape:output_extension="org.inkscape.output.svg.inkscape"
   version="1.0"><metadata
     id="metadata108"><rdf:RDF><cc:Work
         rdf:about=""><dc:format>image/svg+xml</dc:format><dc:type
           rdf:resource="http://purl.org/dc/dcmitype/StillImage" /></cc:Work></rdf:RDF></metadata><defs
     id="defs604"><inkscape:perspective
       sodipodi:type="inkscape:persp3d"
       inkscape:vp_x="0 : 222.67999 : 1"
       inkscape:vp_y="0 : 1000 : 0"
       inkscape:vp_z="744.09448 : 222.67999 : 1"
       inkscape:persp3d-origin="372.04724 : 148.45333 : 1"
       id="perspective139" /><linearGradient
       id="linearGradient758"><stop
         style="stop-color:#ff0000;stop-opacity:1;"
         offset="0"
         id="stop759" /><stop
         style="stop-color:#ff0000;stop-opacity:0.2471;"
         offset="1"
         id="stop760" /></linearGradient><linearGradient
       id="linearGradient658"><stop
         style="stop-color:#ffffff;stop-opacity:1;"
         offset="0"
         id="stop659" /><stop
         style="stop-color:#000000;stop-opacity:1;"
         offset="1"
         id="stop660" /></linearGradient><linearGradient
       id="linearGradient649"><stop
         style="stop-color:#00000a;stop-opacity:1;"
         offset="0"
         id="stop651" /><stop
         style="stop-color:#ffffff;stop-opacity:1;"
         offset="1"
         id="stop652" /></linearGradient><linearGradient
       id="linearGradient648"><stop
         style="stop-color:#666666;stop-opacity:1;"
         offset="0"
         id="stop649" /><stop
         style="stop-color:#ffffff;stop-opacity:1;"
         offset="1"
         id="stop650" /></linearGradient><linearGradient
       id="linearGradient634"><stop
         style="stop-color:#ff6d00;stop-opacity:1;"
         offset="0"
         id="stop635" /><stop
         style="stop-color:#ffff00;stop-opacity:1;"
         offset="1"
         id="stop636" /></linearGradient><linearGradient
       id="linearGradient626"><stop
         style="stop-color:#ffffff;stop-opacity:1;"
         offset="0"
         id="stop627" /><stop
         style="stop-color:#b5ffff;stop-opacity:0.1765;"
         offset="1"
         id="stop628" /></linearGradient><radialGradient
       xlink:href="#linearGradient626"
       id="radialGradient629"
       cx="0.68181449"
       cy="0.2812278"
       r="1.2414615"
       fx="0.68181449"
       fy="0.2812278" /><radialGradient
       xlink:href="#linearGradient626"
       id="radialGradient631"
       cx="0.49671215"
       cy="0.52588958"
       r="1.5754106"
       fx="0.49671215"
       fy="0.52588958"
       gradientTransform="matrix(1,2.789074e-6,2.661747e-8,1,0,1.031317e-7)" /><linearGradient
       xlink:href="#linearGradient634"
       id="linearGradient632"
       x1="0.0033555978"
       y1="0.99996006"
       x2="0.98993218"
       y2="0.024589853" /><linearGradient
       xlink:href="#linearGradient634"
       id="linearGradient637"
       x1="0.64704925"
       y1="0.82030296"
       x2="1.1176471"
       y2="-0.015625071" /><radialGradient
       xlink:href="#linearGradient626"
       id="radialGradient643"
       cx="0.49219462"
       cy="0.49997616"
       r="1.3361495"
       fx="0.49219462"
       fy="0.49997616" /><radialGradient
       xlink:href="#linearGradient658"
       id="radialGradient646"
       cx="0.61628067"
       cy="0.50002772"
       r="0.34547564"
       fx="0.61628067"
       fy="0.50002772" /><linearGradient
       xlink:href="#linearGradient648"
       id="linearGradient647"
       x1="0.7751649"
       y1="1.4166371"
       x2="0.34563753"
       y2="-0.27777928" /><linearGradient
       xlink:href="#linearGradient648"
       id="linearGradient651"
       x1="0.50001943"
       y1="-3.7186367e-06"
       x2="0.56451708"
       y2="0.47656244"
       spreadMethod="reflect" /><linearGradient
       xlink:href="#linearGradient648"
       id="linearGradient652"
       x1="0.48979101"
       y1="0.01563043"
       x2="0.52040803"
       y2="0.43750009"
       spreadMethod="reflect" /><linearGradient
       xlink:href="#linearGradient649"
       id="linearGradient646"
       x1="0.32075298"
       y1="0.46093833"
       x2="1.2830188"
       y2="0.515625" /><linearGradient
       xlink:href="#linearGradient634"
       id="linearGradient665"
       x1="-0.26667368"
       y1="0.62500203"
       x2="1.5000001"
       y2="0.33593765" /><linearGradient
       xlink:href="#linearGradient634"
       id="linearGradient666"
       x1="9.1143556e-07"
       y1="-1.5817449e-07"
       x2="1.000001"
       y2="-1.5817449e-07" /><linearGradient
       xlink:href="#linearGradient649"
       id="linearGradient674"
       x1="0.013361386"
       y1="0.64064384"
       x2="1.4400003"
       y2="0.02343763" /><linearGradient
       xlink:href="#linearGradient634"
       id="linearGradient675"
       x1="-0.33045465"
       y1="0.78124022"
       x2="1.0847462"
       y2="0.17187496" /><radialGradient
       xlink:href="#linearGradient649"
       id="radialGradient676"
       cx="1.2207637"
       cy="0.53945303"
       r="2.8046246"
       fx="1.2207637"
       fy="0.53945303" /><radialGradient
       xlink:href="#linearGradient658"
       id="radialGradient677"
       cx="0.49933308"
       cy="0.50775993"
       r="0.79647505"
       fx="0.49933308"
       fy="0.50775993"
       gradientTransform="translate(-1.600299e-6,-2.758607e-7)" /><linearGradient
       xlink:href="#linearGradient634"
       id="linearGradient698"
       x1="-0.51851863"
       y1="0.15625075"
       x2="0.86111075"
       y2="0.65625006" /><linearGradient
       xlink:href="#linearGradient658"
       id="linearGradient730"
       x1="-0.77740765"
       y1="0.43747169"
       x2="-0.03821006"
       y2="0.42187387"
       spreadMethod="reflect" /><linearGradient
       xlink:href="#linearGradient658"
       id="linearGradient731"
       x1="0.36907437"
       y1="0.44179916"
       x2="1.1155841"
       y2="0.42604703"
       gradientTransform="scale(1.009892,0.990205)"
       spreadMethod="reflect" /><linearGradient
       xlink:href="#linearGradient758"
       id="linearGradient746"
       x1="1.0925924"
       y1="0.015598791"
       x2="0.48148125"
       y2="0.5390622" /><radialGradient
       xlink:href="#linearGradient649"
       id="radialGradient747"
       cx="-0.28421232"
       cy="0.93784153"
       r="1.8125248"
       fx="-0.28421232"
       fy="0.93784153"
       gradientTransform="translate(-2.636114e-8,2.278133e-6)" /><linearGradient
       xlink:href="#linearGradient758"
       id="linearGradient752"
       x1="-5.1547368e-06"
       y1="0.95299125"
       x2="0.12962984"
       y2="0.64062399" /><linearGradient
       xlink:href="#linearGradient649"
       id="linearGradient769"
       x1="1.076923"
       y1="0.44512248"
       x2="0.21794909"
       y2="0.93749857" /><linearGradient
       xlink:href="#linearGradient649"
       id="linearGradient770"
       x1="0.069800042"
       y1="0.78129673"
       x2="0.73255825"
       y2="0.21875049" /><linearGradient
       xlink:href="#linearGradient649"
       id="linearGradient786"
       x1="0.44865581"
       y1="-2.5967376"
       x2="0.4613508"
       y2="1.6827968" /><linearGradient
       xlink:href="#linearGradient649"
       id="linearGradient787"
       x1="0.49666056"
       y1="0.99993467"
       x2="0.20469819"
       y2="0.41666582" /><radialGradient
       xlink:href="#linearGradient658"
       id="radialGradient788"
       cx="0.48320866"
       cy="0.46300483"
       r="1.0340341"
       fx="0.48320866"
       fy="0.46300483" /><linearGradient
       xlink:href="#linearGradient758"
       id="linearGradient802" /><linearGradient
       inkscape:collect="always"
       xlink:href="#linearGradient649"
       id="linearGradient1465"
       x1="284.96692"
       y1="151.28859"
       x2="400.01779"
       y2="157.82706"
       gradientTransform="scale(0.905196,1.104733)"
       gradientUnits="userSpaceOnUse" /><radialGradient
       inkscape:collect="always"
       xlink:href="#linearGradient658"
       id="radialGradient1467"
       cx="213.60185"
       cy="162.78499"
       fx="213.60185"
       fy="162.78499"
       r="3.5191741"
       gradientTransform="scale(0.985612,1.014598)"
       gradientUnits="userSpaceOnUse" /><linearGradient
       inkscape:collect="always"
       xlink:href="#linearGradient634"
       id="linearGradient1469"
       x1="491.16629"
       y1="121.58448"
       x2="518.6665"
       y2="121.58448"
       gradientTransform="scale(0.652403,1.532795)"
       gradientUnits="userSpaceOnUse" /><linearGradient
       inkscape:collect="always"
       xlink:href="#linearGradient634"
       id="linearGradient1471"
       x1="367.75742"
       y1="175.20065"
       x2="433.40237"
       y2="164.45979"
       gradientTransform="scale(0.798871,1.251767)"
       gradientUnits="userSpaceOnUse" /><radialGradient
       inkscape:collect="always"
       xlink:href="#linearGradient649"
       id="radialGradient1473"
       cx="381.92261"
       cy="186.56987"
       fx="381.92261"
       fy="186.56987"
       r="31.844234"
       gradientTransform="scale(0.819623,1.220073)"
       gradientUnits="userSpaceOnUse" /><linearGradient
       inkscape:collect="always"
       xlink:href="#linearGradient649"
       id="linearGradient1475"
       x1="252.60847"
       y1="200.46466"
       x2="337.91837"
       y2="163.55708"
       gradientTransform="scale(1.0771,0.928419)"
       gradientUnits="userSpaceOnUse" /><radialGradient
       inkscape:collect="always"
       xlink:href="#linearGradient658"
       id="radialGradient1477"
       gradientTransform="scale(1.047269,0.954864)"
       cx="274.73563"
       cy="125.39588"
       fx="274.73563"
       fy="125.39588"
       r="10.798452"
       gradientUnits="userSpaceOnUse" /><linearGradient
       inkscape:collect="always"
       xlink:href="#linearGradient634"
       id="linearGradient1479"
       x1="-84.03521"
       y1="537.92523"
       x2="-18.223389"
       y2="421.02298"
       gradientTransform="scale(0.888208,1.125862)"
       gradientUnits="userSpaceOnUse" /><linearGradient
       inkscape:collect="always"
       xlink:href="#linearGradient634"
       id="linearGradient1481"
       x1="-64.355515"
       y1="1120.1011"
       x2="314.54974"
       y2="745.49969"
       gradientTransform="scale(1.568558,0.637528)"
       gradientUnits="userSpaceOnUse" /><radialGradient
       inkscape:collect="always"
       xlink:href="#linearGradient626"
       id="radialGradient1483"
       cx="364.09772"
       cy="630.99817"
       fx="364.09772"
       fy="630.99817"
       r="201.10191"
       gradientTransform="scale(1.170922,0.854028)"
       gradientUnits="userSpaceOnUse" /><linearGradient
       inkscape:collect="always"
       xlink:href="#linearGradient648"
       id="linearGradient1485"
       x1="148.76166"
       y1="2277.386"
       x2="99.761955"
       y2="2084.0901"
       gradientTransform="scale(2.925884,0.341777)"
       gradientUnits="userSpaceOnUse" /><linearGradient
       inkscape:collect="always"
       xlink:href="#linearGradient648"
       id="linearGradient1487"
       spreadMethod="reflect"
       x1="295.14429"
       y1="560.43518"
       x2="297.26828"
       y2="589.70123"
       gradientTransform="scale(0.831891,1.202081)"
       gradientUnits="userSpaceOnUse" /><linearGradient
       inkscape:collect="always"
       xlink:href="#linearGradient648"
       id="linearGradient1489"
       spreadMethod="reflect"
       x1="558.93134"
       y1="520.6076"
       x2="561.64777"
       y2="540.6792"
       gradientTransform="scale(0.746632,1.339348)"
       gradientUnits="userSpaceOnUse" /><linearGradient
       inkscape:collect="always"
       xlink:href="#linearGradient634"
       id="linearGradient1491"
       x1="155.14452"
       y1="519.20825"
       x2="265.19324"
       y2="471.82281"
       gradientTransform="scale(0.977526,1.022991)"
       gradientUnits="userSpaceOnUse" /><linearGradient
       inkscape:collect="always"
       xlink:href="#linearGradient634"
       id="linearGradient1493"
       x1="418.67734"
       y1="571.72717"
       x2="535.62311"
       y2="614.11017"
       gradientTransform="scale(0.911616,1.096953)"
       gradientUnits="userSpaceOnUse" /><linearGradient
       inkscape:collect="always"
       xlink:href="#linearGradient658"
       id="linearGradient1495"
       gradientTransform="scale(0.959002,1.04275)"
       spreadMethod="reflect"
       x1="256.50027"
       y1="222.8512"
       x2="274.12"
       y2="222.47939"
       gradientUnits="userSpaceOnUse" /><linearGradient
       inkscape:collect="always"
       xlink:href="#linearGradient658"
       id="linearGradient1497"
       spreadMethod="reflect"
       x1="254.0732"
       y1="224.95247"
       x2="271.6929"
       y2="224.58067"
       gradientTransform="scale(0.968489,1.032537)"
       gradientUnits="userSpaceOnUse" /><radialGradient
       inkscape:collect="always"
       xlink:href="#linearGradient649"
       id="radialGradient1499"
       gradientTransform="scale(1.21596,0.822396)"
       cx="186.7224"
       cy="829.74182"
       fx="186.7224"
       fy="829.74182"
       r="40.536659"
       gradientUnits="userSpaceOnUse" /><linearGradient
       inkscape:collect="always"
       xlink:href="#linearGradient649"
       id="linearGradient1501"
       x1="-107.12666"
       y1="420.18906"
       x2="-145.35402"
       y2="442.10153"
       gradientTransform="scale(0.775212,1.28997)"
       gradientUnits="userSpaceOnUse" /><linearGradient
       inkscape:collect="always"
       xlink:href="#linearGradient649"
       id="linearGradient1503"
       x1="-118.1791"
       y1="494.65002"
       x2="-88.056427"
       y2="469.08203"
       gradientTransform="scale(0.811798,1.231834)"
       gradientUnits="userSpaceOnUse" /><radialGradient
       inkscape:collect="always"
       xlink:href="#linearGradient626"
       id="radialGradient1505"
       cx="-33.550484"
       cy="709.96832"
       fx="-33.550484"
       fy="709.96832"
       r="158.66774"
       gradientUnits="userSpaceOnUse" /><linearGradient
       inkscape:collect="always"
       xlink:href="#linearGradient758"
       id="linearGradient1507"
       x1="-73.346039"
       y1="420.8981"
       x2="-113.73101"
       y2="455.49091"
       gradientTransform="scale(0.637743,1.56803)"
       gradientUnits="userSpaceOnUse" /><linearGradient
       inkscape:collect="always"
       xlink:href="#linearGradient758"
       id="linearGradient1509"
       x1="-21.852612"
       y1="482.14066"
       x2="-13.285748"
       y2="461.49805"
       gradientTransform="scale(0.637743,1.56803)"
       gradientUnits="userSpaceOnUse" /><linearGradient
       inkscape:collect="always"
       xlink:href="#linearGradient649"
       id="linearGradient1511"
       x1="19.284672"
       y1="1758.0068"
       x2="19.886118"
       y2="1960.7573"
       gradientTransform="scale(4.597461,0.217511)"
       gradientUnits="userSpaceOnUse" /><linearGradient
       inkscape:collect="always"
       xlink:href="#linearGradient649"
       id="linearGradient1513"
       x1="109.75822"
       y1="1188.3186"
       x2="90.346123"
       y2="1149.5381"
       gradientTransform="scale(2.876729,0.347617)"
       gradientUnits="userSpaceOnUse" /><radialGradient
       inkscape:collect="always"
       xlink:href="#linearGradient658"
       id="radialGradient1515"
       cx="132.4838"
       cy="681.49878"
       fx="132.4838"
       fy="681.49878"
       r="18.184837"
       gradientTransform="scale(1.668384,0.599382)"
       gradientUnits="userSpaceOnUse" /><radialGradient
       inkscape:collect="always"
       xlink:href="#linearGradient626"
       id="radialGradient1517"
       gradientTransform="scale(2.815463,0.355181)"
       cx="85.867661"
       cy="1058.8088"
       fx="85.867661"
       fy="1058.8088"
       r="308.67459"
       gradientUnits="userSpaceOnUse" /><linearGradient
       inkscape:collect="always"
       xlink:href="#linearGradient758"
       id="linearGradient1519"
       gradientTransform="scale(2.819788,0.354637)"
       x1="1.3400391"
       y1="1240.6666"
       x2="39.572086"
       y2="1240.6666"
       gradientUnits="userSpaceOnUse" /><linearGradient
       inkscape:collect="always"
       xlink:href="#linearGradient758"
       id="linearGradient1521"
       gradientTransform="scale(2.871607,0.348237)"
       x1="104.9062"
       y1="1130.6661"
       x2="142.46684"
       y2="1130.6661"
       gradientUnits="userSpaceOnUse" /></defs><sodipodi:namedview
     id="base"
     inkscape:zoom="1.5089862"
     inkscape:cx="32.385401"
     inkscape:cy="-3.7390234"
     inkscape:window-width="790"
     inkscape:window-height="719"
     inkscape:window-x="0"
     inkscape:window-y="277"
     inkscape:current-layer="svg602"
     showgrid="false" /><g
     id="g1406"
     transform="matrix(0.2424429,0,0,0.2424429,37.581801,-92.411755)"><g
       transform="matrix(0.680971,0,0,0.681347,70.93722,281.2527)"
       id="g710"><path
         transform="matrix(0.996744,8.062679e-2,-8.062679e-2,0.996744,19.79549,-16.67789)"
         sodipodi:ry="5.9407425"
         sodipodi:rx="31.401131"
         sodipodi:cy="236.78146"
         sodipodi:cx="216.41321"
         d="M 247.81434,236.78146 A 31.401131,5.9407425 0 1 1 185.01208,236.78146 A 31.401131,5.9407425 0 1 1 247.81434,236.78146 z"
         id="path699"
         style="fill:#808080;fill-opacity:1;fill-rule:evenodd;stroke:none;stroke-width:1pt;stroke-linecap:butt;stroke-linejoin:miter;stroke-opacity:1"
         sodipodi:type="arc" /><rect
         y="248.23849"
         x="210.47244"
         height="37.341927"
         width="11.881516"
         id="rect700"
         style="font-size:12px;fill:#808080;fill-rule:evenodd;stroke-width:1" /><rect
         transform="matrix(0.99995,-9.984083e-3,2.676116e-2,0.999642,0,0)"
         y="261.93109"
         x="213.31094"
         height="25.920595"
         width="5.091639"
         id="rect701"
         style="font-size:12px;fill:#808080;fill-rule:evenodd;stroke-width:1" /><rect
         transform="matrix(0.99725,7.411051e-2,-7.411051e-2,0.99725,0,0)"
         y="176.8784"
         x="257.69424"
         height="42.43388"
         width="5.0920653"
         id="rect702"
         style="font-size:12px;fill:#808080;fill-rule:evenodd;stroke-width:1" /><rect
         transform="matrix(0.999829,-1.846753e-2,1.446979e-2,0.999895,0,0)"
         y="241.27605"
         x="193.08849"
         height="47.93885"
         width="5.0922518"
         id="rect703"
         style="font-size:12px;fill:#808080;fill-rule:evenodd;stroke-width:1" /><rect
         transform="matrix(0.999808,-1.960925e-2,1.362717e-2,0.999907,0,0)"
         y="238.39238"
         x="229.4111"
         height="50.903088"
         width="5.0923624"
         id="rect704"
         style="font-size:12px;fill:#808080;fill-rule:evenodd;stroke-width:1" /><path
         transform="matrix(0.837838,0,0,1,35.09403,20.36824)"
         sodipodi:ry="5.9407425"
         sodipodi:rx="31.401131"
         sodipodi:cy="236.78146"
         sodipodi:cx="216.41321"
         d="M 247.81434,236.78146 A 31.401131,5.9407425 0 1 1 185.01208,236.78146 A 31.401131,5.9407425 0 1 1 247.81434,236.78146 z"
         id="path705"
         style="fill:#808080;fill-opacity:1;fill-rule:evenodd;stroke:none;stroke-width:1pt;stroke-linecap:butt;stroke-linejoin:miter;stroke-opacity:1"
         sodipodi:type="arc" /><rect
         transform="matrix(0.999945,-1.047362e-2,2.551104e-2,0.999675,0,0)"
         y="260.09317"
         x="231.08513"
         height="27.190775"
         width="5.0916629"
         id="rect706"
         style="font-size:12px;fill:#808080;fill-rule:evenodd;stroke-width:1" /><rect
         transform="matrix(0.999927,-1.210525e-2,2.20739e-2,0.999756,0,0)"
         y="256.95859"
         x="187.4938"
         height="31.424679"
         width="5.0917587"
         id="rect707"
         style="font-size:12px;fill:#808080;fill-rule:evenodd;stroke-width:1" /><rect
         transform="matrix(0.996279,8.618101e-2,-6.959023e-2,0.997576,0,0)"
         y="184.00964"
         x="202.35742"
         height="35.24456"
         width="3.8029807"
         id="rect708"
         style="font-size:12px;fill:#808080;fill-rule:evenodd;stroke-width:1" /><rect
         transform="matrix(0.99689,7.880668e-2,-6.547992e-2,0.997854,0,0)"
         y="179.9232"
         x="226.36226"
         height="51.675381"
         width="11.887782"
         id="rect709"
         style="font-size:12px;fill:#808080;fill-rule:evenodd;stroke-width:1" /></g><g
       transform="matrix(0.985436,-0.170045,0.170045,0.985436,71.88467,497.6401)"
       id="g681"><path
         sodipodi:nodetypes="cccscssc"
         id="path637"
         d="M 331.464,196.3146 C 331.464,232.5191 303.0269,241.6402 286.7273,237.3598 C 215.6791,218.4612 213.4952,222.7746 235.642,197.2003 C 237.4137,178.8026 245.4896,154.4411 253.7724,142.578 C 262.0551,130.715 263.4578,106.8413 286.7273,106.2507 C 309.9968,106.2507 310.5135,123.9233 312.8905,140.511 C 313.6651,147.7036 310.594,153.0685 315.0068,162.4417 C 319.4195,171.8148 330.7257,185.0485 331.464,196.3146 z"
         style="font-size:12px;fill:url(#linearGradient1465);fill-rule:evenodd;stroke-width:1" /><path
         sodipodi:nodetypes="ccccc"
         id="path645"
         d="M 246.6723,106.6026 C 244.8975,108.2723 243.7366,110.1249 242.1385,111.6911 C 240.2272,110.2294 238.2997,106.7928 238.2997,104.1834 C 238.0044,100.6048 240.3643,97.96753 243.5284,97.86316 C 247.8409,97.65434 247.1943,105.0375 246.6723,106.6026 z"
         style="font-size:12px;fill:#ffffff;fill-opacity:1;fill-rule:evenodd;stroke-width:1"
         transform="translate(64.0781,27.46205)" /><path
         sodipodi:nodetypes="ccccccccsc"
         id="path643"
         d="M 240.6621,166.1945 C 240.7359,171.4034 240.4679,175.5798 239.5646,179.0154 C 239.6919,175.1837 234.2708,180.6641 235.3116,186.4828 C 234.674,187.6884 233.8003,188.3576 232.5663,188.7501 C 233.6967,181.6673 221.1102,180.854 219.844,191.2942 C 210.6297,191.2942 196.6636,174.3323 210.5423,157.6311 C 226.1927,134.4335 211.855,115.5828 218.2274,120.8243 C 218.965,120.7377 220.9239,120.6432 221.7675,120.4578 C 221.8938,122.4042 222.4765,128.2512 224.8497,133.0907 C 229.4496,142.3664 240.6621,155.1862 240.6621,166.1945 z"
         style="font-size:12px;fill:#f4f6f6;fill-opacity:1;fill-rule:evenodd;stroke-width:1"
         transform="translate(90.65428,30.41486)" /><path
         transform="matrix(0.588241,0,0,0.857144,184.6248,-8.30455)"
         sodipodi:ry="5.1675797"
         sodipodi:rx="5.0199509"
         sodipodi:cy="165.16098"
         sodipodi:cx="209.36118"
         d="M 214.38113,165.16098 A 5.0199509,5.1675797 0 1 1 204.34122,165.16098 A 5.0199509,5.1675797 0 1 1 214.38113,165.16098 z"
         id="path653"
         style="fill:url(#radialGradient1467);fill-opacity:1;fill-rule:evenodd;stroke:none;stroke-width:1pt;stroke-linecap:butt;stroke-linejoin:miter;stroke-opacity:1"
         sodipodi:type="arc" /><path
         sodipodi:nodetypes="cccc"
         id="path639"
         d="M 326.9913,143.7884 C 326.6275,146.6596 313.6891,151.6293 308.8383,151.1042 C 298.3843,148.4719 301.6761,143.4573 311.5317,133.4174 C 319.6152,136.075 326.9912,140.7381 326.9913,143.7884 z"
         style="font-size:12px;fill:#ffa501;fill-opacity:1;fill-rule:evenodd;stroke-width:1" /><path
         sodipodi:nodetypes="csc"
         id="path644"
         d="M 326.2098,143.7345 C 316.4951,141.5324 314.0527,144.3316 310.9598,145.3286 C 308.0309,146.3771 304.9505,145.4704 305.0029,143.129"
         style="fill:none;fill-opacity:1;fill-rule:evenodd;stroke:#000000;stroke-width:1pt;stroke-linecap:round;stroke-linejoin:miter;stroke-opacity:1" /><path
         sodipodi:nodetypes="cssscsccscsss"
         id="path663"
         d="M 327.7803,228.512 C 325.9616,228.5218 324.6936,227.3157 323.76,225.7279 C 323.2908,225.0341 322.5241,224.353 321.0295,224.1388 C 319.491,223.8108 321.2439,213.946 322.9906,213.9858 C 323.8134,214.0569 324.8558,214.2823 325.9323,214.4979 C 326.9044,213.4608 327.759,212.4204 327.8252,211.6106 C 328.18,207.172 329.8821,187.989 332.4056,189.7267 C 333.2518,190.5159 333.4643,192.0462 333.3861,192.6304 C 334.3215,192.8262 333.4373,187.7277 335.0439,186.4082 C 335.4102,186.0556 336.1574,187.8607 336.4052,190.3326 C 337.3618,191.0848 337.0477,186.271 338.0966,188.8619 C 338.9857,191.0868 338.0286,203.0631 331.5922,224.1869 C 330.5446,227.6164 329.2099,228.5908 327.7803,228.512 z"
         style="font-size:12px;fill:url(#linearGradient1469);fill-rule:evenodd;stroke-width:1" /><path
         sodipodi:nodetypes="csssscccccss"
         id="path664"
         d="M 312.0735,235.6279 C 311.3347,234.3983 309.9142,231.78 308.9114,231.3932 C 306.9023,230.6433 303.525,232.5067 302.3323,231.1264 C 300.9767,229.0413 301.8446,223.1435 304.7361,222.9741 C 306.8792,222.6297 311.1605,229.3949 310.3984,219.0587 C 309.3827,204.8889 308.1453,197.282 316.5987,194.1603 C 318.8143,194.2987 319.2423,195.5517 318.3504,197.2183 C 320.6604,197.0664 320.6535,191.9015 323.1319,190.24 C 325.8698,190.7627 326.1729,191.9448 325.5461,193.716 C 326.3887,194.057 326.4967,190.954 328.8616,190.7454 C 333.3859,193.9933 332.4852,206.0994 320.833,230.3462 C 318.9347,234.2839 314.2429,238.9317 312.0735,235.6279 z"
         style="font-size:12px;fill:url(#linearGradient1471);fill-rule:evenodd;stroke-width:1" /><path
         sodipodi:nodetypes="ccccccccccccccccccc"
         id="path668"
         d="M 309.3984,228.554 C 307.6433,228.4933 307.602,228.2814 307.3827,228.7301 C 306.9598,229.4384 308.398,229.1783 308.6671,230.9294 C 308.4143,231.3232 307.3181,230.2832 307.0404,230.6146 C 306.7627,230.9459 307.9524,230.5587 307.9718,232.6992 C 307.156,232.8558 306.4518,232.2851 306.2549,231.6331 C 305.9537,231.8164 306.5428,233.4968 306.2427,233.5943 C 305.525,233.5875 305.4134,232.221 305.1232,232.2251 C 304.8331,232.2293 304.6415,234.102 304.37,234.0051 C 303.6485,230.6348 300.7888,232.9124 301.9433,225.9731 C 303.5674,221.5913 304.7751,224.1121 308.4282,220.1558 C 308.1573,221.7779 306.9489,221.992 306.7505,223.0118 C 307.4499,222.4824 308.0807,222.0715 309.9216,222.0238 C 309.57,223.2812 308.0395,223.3051 308.1565,223.6377 C 308.2736,223.9703 310.284,223.501 310.7113,224.1502 C 310.4078,224.4339 308.0051,224.3615 308.0101,224.7938 C 308.0151,225.2262 310.0925,224.9176 310.9782,226.0089 C 310.4025,226.265 307.9543,226.0323 307.8399,226.5184 C 307.7254,227.0043 309.0533,226.3879 309.3984,228.554 z"
         style="font-size:12px;fill:url(#radialGradient1473);fill-rule:evenodd;stroke-width:1" /><path
         sodipodi:nodetypes="csssccc"
         id="path673"
         d="M 299.5582,181.0955 C 310.1888,176.8097 344.7087,166.8775 333.3771,181.534 C 320.4446,197.8435 312.7844,202.2361 302.1525,206.0247 C 297.8837,207.1282 271.5277,185.7074 271.2943,178.4351 C 271.1393,173.1879 270.9777,168.1068 273.901,156.7083 C 275.6727,144.4576 281.4038,154.4682 289.2858,153.287 C 294.9068,152.4518 296.0147,171.2072 299.5582,181.0955 z"
         style="font-size:12px;fill:url(#linearGradient1475);fill-rule:evenodd;stroke-width:1" /><path
         transform="matrix(0.451091,-0.504111,0.649051,0.580788,90.52001,190.6077)"
         sodipodi:ry="6.4729309"
         sodipodi:rx="7.0993347"
         sodipodi:cy="119.63559"
         sodipodi:cx="287.73163"
         d="M 294.83096,119.63559 A 7.0993347,6.4729309 0 1 1 280.63229,119.63559 A 7.0993347,6.4729309 0 1 1 294.83096,119.63559 z"
         id="path678"
         style="fill:url(#radialGradient1477);fill-opacity:1;fill-rule:evenodd;stroke:none;stroke-width:1pt;stroke-linecap:butt;stroke-linejoin:miter;stroke-opacity:1"
         sodipodi:type="arc" /><path
         sodipodi:nodetypes="cccc"
         id="path680"
         d="M 312.5561,153.8519 C 310.3051,153.8152 305.555,153.1523 302.6717,147.6492 C 305.1531,150.8674 309.5268,151.5015 312.5315,150.8468 C 312.6157,152.0277 312.5077,152.9847 312.5561,153.8519 z"
         style="font-size:12px;opacity:0.40509997;fill:#808080;fill-rule:evenodd;stroke-width:1" /></g><path
       sodipodi:nodetypes="csscccsccccc"
       id="path616"
       d="M -81.01522,572.5346 C -43.43084,592.8756 -61.17882,624.1571 -91.87297,624.7352 C -114.3282,624.7405 -136.6122,608.5461 -140.9744,583.7161 C -143.9333,569.5804 -129.875,530.9222 -86.86181,557.5009 L -81.01522,572.5346 z M -34.24352,555.8307 C -21.9411,577.3796 -42.80268,634.0421 -93.54331,633.9226 C -130.8719,633.8361 -165.5868,597.9468 -152.0079,547.4785 L -139.7156,488.9563 C -135.3342,470.6398 -99.72219,474.6404 -88.50877,487.1075 L -60.13498,534.5328 C -54.27368,543.7417 -45.63171,555.0787 -34.24352,555.8307 z"
       style="font-size:12px;fill:url(#linearGradient1479);fill-rule:evenodd" /><path
       sodipodi:nodetypes="cccssssccsscsscc"
       id="path606"
       d="M 499.4546,653.5502 C 499.4546,715.5914 379.2647,714.1027 314.4559,714.1027 C 249.6471,714.1027 206.2965,589.4749 122.7757,590.0743 C 123.4021,584.9438 -83.9069,579.2348 -92.72939,578.7205 C -107.5866,577.9031 -105.1013,558.7524 -92.77859,558.3577 L 165.6215,550.0817 C 174.7264,549.7901 184.7426,545.8174 186.335,537.6046 L 199.4516,469.9556 L 241.3333,469.2563 L 249.4875,504.7173 C 251.481,513.387 265.9249,510.827 271.5692,508.9708 C 279.5398,505.5143 302.5018,501.0741 311.5205,500.2388 C 287.5375,505.2388 298.1079,537.965 310.6886,562.16 C 336.9969,611.8924 356.1071,620.0577 407.2481,633.1815 C 463.9412,647.4026 470.231,629.1339 487.0521,611.3494 C 495.6689,627.5671 499.4546,640.6915 499.4546,653.5502 z"
       style="font-size:12px;fill:url(#linearGradient1481);fill-opacity:1;fill-rule:evenodd;stroke-width:1" /><path
       sodipodi:nodetypes="csssc"
       id="path608"
       d="M 486.6819,611.372 C 464.1312,641.7669 448.0177,641.9795 407.7546,633.6274 C 351.9285,622.2823 330.6498,602.1241 310.4529,561.7994 C 293.2033,527.1042 289.8043,499.9731 316.7169,499.9941 C 373.6583,499.2033 443.251,546.7337 486.6819,611.372 z"
       style="font-size:12px;fill:url(#radialGradient1483);fill-rule:evenodd;stroke-width:1" /><path
       transform="translate(0,1.697357)"
       sodipodi:nodetypes="ccccccc"
       id="path620"
       d="M 176.5252,751.9297 L 176.5252,762.1139 L 473.9382,760.3136 C 500.2629,758.5132 507.9841,742.9105 510.3047,727.3077 L 502.5033,723.1246 C 501.383,738.7274 489.4609,750.7294 476.3386,750.7295 L 176.5252,751.9297 z"
       style="font-size:12px;fill:url(#linearGradient1485);fill-rule:evenodd" /><path
       transform="translate(0,1.697357)"
       sodipodi:nodetypes="cssss"
       id="path623"
       d="M 264.7879,677.2459 C 264.6133,694.0771 217.2619,733.8246 217.2619,753.6271 C 217.2619,756.5975 227.446,756.3853 227.446,753.6271 C 227.446,737.2193 275.0341,697.8914 274.972,677.2459 C 274.7649,668.5468 264.8253,673.4271 264.7879,677.2459 z"
       style="font-size:12px;fill:url(#linearGradient1487);fill-rule:evenodd" /><path
       transform="translate(0,1.697357)"
       sodipodi:nodetypes="cssss"
       id="path624"
       d="M 413.3067,701.4332 C 429.322,715.0458 432.9758,732.128 433.0385,751.9296 C 433.0466,754.4765 424.3513,754.0523 424.3396,751.9296 C 424.2099,728.309 421.0263,716.9752 402.0618,701.8575 C 400.378,700.5192 403.0217,692.5108 413.3067,701.4332 z"
       style="font-size:12px;fill:url(#linearGradient1489);fill-rule:evenodd" /><path
       sodipodi:nodetypes="ccccc"
       id="path695"
       d="M 199.7581,468.9977 L 176.7771,548.5474 C 220.3821,548.5474 221.1187,533.9633 252.7914,510.5403 L 240.417,468.9977 L 199.7581,468.9977 z"
       style="font-size:12px;fill:url(#linearGradient1491);fill-rule:evenodd" /><path
       sodipodi:nodetypes="ccc"
       id="path697"
       d="M 487.0209,612.629 C 512.2117,660.665 497.5609,689.969 444.5945,703.2274 C 396.9314,716.4855 430.0103,672.8693 487.0209,612.629 z"
       style="font-size:12px;fill:url(#linearGradient1493);fill-rule:evenodd;stroke-width:1" /><g
       transform="translate(28.28434,7.071045)"
       id="g737"><path
         transform="matrix(0.839437,0,0,0.640867,165.1613,481.1472)"
         sodipodi:ry="12.30587"
         sodipodi:rx="12.73019"
         sodipodi:cy="249.93561"
         sodipodi:cx="133.24269"
         d="M 145.97288,249.93561 A 12.73019,12.30587 0 1 1 120.5125,249.93561 A 12.73019,12.30587 0 1 1 145.97288,249.93561 z"
         id="path726"
         style="fill:#333333;fill-opacity:1;fill-rule:evenodd;stroke:none;stroke-width:1pt;stroke-linecap:butt;stroke-linejoin:miter;stroke-opacity:1"
         sodipodi:type="arc" /><g
         transform="matrix(0.9375,0,0,0.869565,7.937612,438.696)"
         id="g732"><path
           transform="translate(-0.300026,0.300034)"
           sodipodi:ry="19.519653"
           sodipodi:rx="27.157761"
           sodipodi:cy="233.38635"
           sodipodi:cx="263.0907"
           d="M 290.24846,233.38635 A 27.157761,19.519653 0 1 1 235.93294,233.38635 A 27.157761,19.519653 0 1 1 290.24846,233.38635 z"
           id="path724"
           style="fill:#808080;fill-opacity:1;fill-rule:evenodd;stroke:none;stroke-width:1pt;stroke-linecap:butt;stroke-linejoin:miter;stroke-opacity:1"
           sodipodi:type="arc" /><path
           transform="matrix(0.950282,0,0,0.827067,12.63036,40.58514)"
           sodipodi:ry="19.519653"
           sodipodi:rx="27.157761"
           sodipodi:cy="233.38635"
           sodipodi:cx="263.0907"
           d="M 290.24846,233.38635 A 27.157761,19.519653 0 1 1 235.93294,233.38635 A 27.157761,19.519653 0 1 1 290.24846,233.38635 z"
           id="path729"
           style="fill:#999999;fill-opacity:1;fill-rule:evenodd;stroke:none;stroke-width:1pt;stroke-linecap:butt;stroke-linejoin:miter;stroke-opacity:1"
           sodipodi:type="arc" /><path
           sodipodi:nodetypes="ccccc"
           id="path727"
           d="M 258.4278,233.8106 C 258.4278,240.607 264.3789,246.1165 254.8621,246.1165 C 245.3452,246.1165 237.6303,240.607 237.6303,233.8106 C 237.6303,227.0143 245.3452,221.5047 254.8621,221.5047 C 264.3789,221.5047 258.4278,227.0143 258.4278,233.8106 z"
           style="font-size:12px;fill:url(#linearGradient1495);fill-rule:evenodd;stroke-width:1" /><path
           sodipodi:nodetypes="ccccc"
           id="path728"
           d="M 265.8877,233.6605 C 265.8877,240.4569 259.8183,246.1165 269.5243,246.1165 C 279.2304,246.1165 287.0987,240.607 287.0987,233.8106 C 287.0987,227.0143 279.2304,221.5047 269.5243,221.5047 C 259.8183,221.5047 265.8877,226.8642 265.8877,233.6605 z"
           style="font-size:12px;fill:url(#linearGradient1497);fill-rule:evenodd;stroke-width:1" /></g></g><path
       sodipodi:nodetypes="csccs"
       id="path745"
       d="M 238.4041,672.9166 C 232.8279,673.1432 234.4558,683.7939 238.0916,683.5139 C 245.7491,683.0804 252.0592,682.4202 256.7773,678.5139 C 268.6523,668.5231 257.0898,661.0323 252.4023,667.6041 C 247.9967,673.8541 244.0363,672.8439 238.4041,672.9166 z"
       style="font-size:12px;fill:url(#radialGradient1499);fill-rule:evenodd" /><g
       id="g777"><path
         sodipodi:nodetypes="ccccc"
         id="path766"
         d="M -110.8782,520.6535 C -102.2996,536.2644 -83.36999,572.4296 -85.93684,573.8401 C -88.50379,575.2507 -109.6435,543.5474 -118.2223,527.9366 C -120.2222,524.2972 -121.8937,519.9961 -117.0028,517.3084 C -114.436,515.8978 -113.5178,515.8502 -110.8782,520.6535 z"
         style="font-size:12px;fill:url(#linearGradient1501);fill-rule:evenodd" /><path
         sodipodi:nodetypes="ccccc"
         id="path768"
         d="M -70.86535,617.5813 C -80.17583,602.3954 -100.8018,567.1702 -98.3049,565.6392 C -95.80784,564.1085 -73.18606,594.7719 -63.87557,609.9577 C -61.70502,613.4979 -59.83112,617.7148 -64.5888,620.6317 C -67.08568,622.1626 -68.00064,622.2539 -70.86535,617.5813 z"
         style="font-size:12px;fill:url(#linearGradient1503);fill-rule:evenodd" /><path
         transform="translate(0.835209,-1.67041)"
         sodipodi:ry="8.3521118"
         sodipodi:rx="7.9344788"
         sodipodi:cy="571.28217"
         sodipodi:cx="-92.29052"
         d="M -84.356041,571.28217 A 7.9344788,8.3521118 0 1 1 -100.225,571.28217 A 7.9344788,8.3521118 0 1 1 -84.356041,571.28217 z"
         id="path617"
         style="fill:#808080;fill-opacity:1;fill-rule:evenodd;stroke:none;stroke-width:1pt;stroke-linecap:butt;stroke-linejoin:miter;stroke-opacity:1"
         sodipodi:type="arc" /></g><g
       transform="translate(-59.22041,-141.4219)"
       id="g761"><path
         id="path748"
         d="M -20.7486,709.9714 C -20.7486,716.5298 -26.0652,721.8464 -32.6236,721.8464 C -39.18194,721.8464 -44.49849,716.5298 -44.49849,709.9714 C -44.49849,703.413 -39.18194,698.0964 -32.6236,698.0964 C -26.0652,698.0964 -20.7486,703.413 -20.7486,709.9714 z M 26.7514,709.9713 C 26.7514,742.7631 0.168296,769.3462 -32.6236,769.3462 C -65.41549,769.3462 -91.99859,742.7631 -91.99859,709.9713 C -91.99859,677.1794 -65.41549,650.5962 -32.6236,650.5962 C 0.168296,650.5962 26.7514,677.1794 26.7514,709.9713 z"
         style="font-size:12px;fill:url(#radialGradient1505);fill-rule:evenodd;stroke-width:1" /><path
         sodipodi:nodetypes="ccssc"
         id="path750"
         d="M -59.50964,761.987 C -64.02054,761.4693 -91.04035,742.754 -92.80813,709.1932 C -93.6541,674.6543 -58.43144,649.1395 -52.14824,661.551 C -46.02374,673.8666 -60.15584,664.1569 -73.87274,676.8562 C -106.135,707.1508 -76.24894,754.5407 -59.50964,761.987 z"
         style="font-size:12px;fill:url(#linearGradient1507);fill-opacity:0.12710003;fill-rule:evenodd" /><path
         sodipodi:nodetypes="ccssc"
         id="path751"
         d="M -5.104704,657.2597 C -0.593804,657.7774 26.426,676.4927 28.1938,710.0535 C 29.0398,744.5924 -6.182904,770.1072 -12.4661,757.6957 C -18.5906,745.3801 -4.458504,755.0898 9.258396,742.3905 C 41.5206,712.0959 11.6346,664.706 -5.104704,657.2597 z"
         style="font-size:12px;fill:url(#linearGradient1509);fill-rule:evenodd" /></g><g
       transform="translate(-1.25,4.374969)"
       id="g796"><path
         sodipodi:nodetypes="cssscccc"
         id="path782"
         d="M 208.7504,414.8611 C 208.7504,415.8967 205.2526,416.8831 198.9272,417.7805 C 192.6019,418.6777 196.9025,416.2595 185.5922,416.9381 C 174.2819,417.6167 69.14947,419.0103 54.19463,419.3898 C 39.2398,419.7693 17.92435,418.3024 0.773211,417.0571 C -4.264806,416.9534 -9.062496,416.772 -9.062496,412.6299 L 199.0225,409.1884 C 205.9825,408.8312 208.7504,410.7189 208.7504,414.8611 z"
         style="font-size:12px;fill:url(#linearGradient1511);fill-rule:evenodd"
         transform="matrix(0.996271,-8.62798e-2,8.62798e-2,0.996271,-21.73181,17.52301)" /><path
         sodipodi:nodetypes="cssscccc"
         id="path783"
         d="M 220.7751,410.9803 C 220.8509,412.012 223.9962,412.693 229.6199,413.0414 C 235.2435,413.3896 231.2879,411.3514 241.2758,411.0519 C 251.2637,410.7523 343.7443,403.0719 356.9128,402.1599 C 370.081,401.2481 388.7037,397.948 403.6833,395.2279 C 408.1025,394.6901 412.305,394.0954 412.0025,389.9688 L 228.9087,404.4897 C 222.7669,404.7343 220.4727,406.8536 220.7751,410.9803 z"
         style="font-size:12px;fill:url(#linearGradient1513);fill-rule:evenodd" /><path
         sodipodi:nodetypes="cccc"
         id="path785"
         d="M 236.1969,410.2811 C 235.8953,416.3142 206.5568,414.8473 206.8585,408.8143 C 207.0353,405.278 214.3469,403.2437 222.4485,403.6488 C 230.5501,404.0539 235.7807,406.0894 236.1969,410.2811 z"
         style="font-size:12px;fill:url(#radialGradient1515);fill-rule:evenodd" /></g><g
       id="g804"><path
         transform="matrix(0.999784,2.079077e-2,-2.079077e-2,0.999784,-27.17906,37.18106)"
         sodipodi:ry="34.795837"
         sodipodi:rx="275.82074"
         sodipodi:cy="374.26746"
         sodipodi:cx="243.57092"
         d="M 519.39166,374.26746 A 275.82074,34.795837 0 1 1 -32.249817,374.26746 A 275.82074,34.795837 0 1 1 519.39166,374.26746 z"
         id="path625"
         style="fill:url(#radialGradient1517);fill-opacity:1;fill-rule:evenodd;stroke:none;stroke-width:1pt;stroke-linecap:butt;stroke-linejoin:miter;stroke-opacity:1"
         sodipodi:type="arc" /><path
         sodipodi:nodetypes="cccsc"
         id="path801"
         d="M 111.5849,446.765 C 35.01836,440.5424 11.98461,437.5659 10.67315,437.5659 C 9.472147,437.2345 3.563695,437.5593 3.784666,434.6115 C 3.784666,433.5421 4.597259,432.7591 7.81252,433.4942 C 30.59482,438.5929 52.7655,440.6 111.5849,446.765 z"
         style="font-size:12px;fill:url(#linearGradient1519);fill-rule:evenodd;stroke-width:1" /><path
         sodipodi:nodetypes="cccsc"
         id="path803"
         d="M 301.2494,387.1998 C 377.8433,393.0764 400.8902,395.9489 402.2017,395.9429 C 403.4042,396.2689 409.3111,395.9174 409.1035,398.8662 C 409.1083,399.9356 408.2993,400.7222 405.0807,400.0017 C 382.2756,395.0059 360.096,393.099 301.2494,387.1998 z"
         style="font-size:12px;fill:url(#linearGradient1521);fill-rule:evenodd;stroke-width:1" /></g></g></svg>