<?xml version="1.0" encoding="UTF-8" standalone="no"?>
<!-- Created with Sodipodi ("http://www.sodipodi.com/") -->
<svg
   xmlns:dc="http://purl.org/dc/elements/1.1/"
   xmlns:cc="http://creativecommons.org/ns#"
   xmlns:rdf="http://www.w3.org/1999/02/22-rdf-syntax-ns#"
   xmlns:svg="http://www.w3.org/2000/svg"
   xmlns="http://www.w3.org/2000/svg"
   xmlns:xlink="http://www.w3.org/1999/xlink"
   xmlns:sodipodi="http://sodipodi.sourceforge.net/DTD/sodipodi-0.dtd"
   xmlns:inkscape="http://www.inkscape.org/namespaces/inkscape"
   id="svg602"
   sodipodi:version="0.32"
   width="160.21698"
   height="89.486702"
   xml:space="preserve"
   sodipodi:docbase="/home/franck/Dessins/Vectoriels/Transports_1"
   sodipodi:docname="tuxplane.svg"
   inkscape:version="0.46"
   inkscape:output_extension="org.inkscape.output.svg.inkscape"
   version="1.0"
   sodipodi:modified="true"><metadata
   id="metadata90"><rdf:RDF><cc:Work
       rdf:about=""><dc:format>image/svg+xml</dc:format><dc:type
         rdf:resource="http://purl.org/dc/dcmitype/StillImage" /></cc:Work></rdf:RDF></metadata><defs
   id="defs604"><inkscape:perspective
   sodipodi:type="inkscape:persp3d"
   inkscape:vp_x="0 : 203.79053 : 1"
   inkscape:vp_y="0 : 1000 : 0"
   inkscape:vp_z="729.73309 : 203.79053 : 1"
   inkscape:persp3d-origin="364.86655 : 135.86035 : 1"
   id="perspective113" /><linearGradient
   id="linearGradient716"><stop
     style="stop-color:#ffffff;stop-opacity:1;"
     offset="0"
     id="stop717" /><stop
     style="stop-color:#000000;stop-opacity:1;"
     offset="1"
     id="stop718" /></linearGradient><linearGradient
   id="linearGradient738"><stop
     style="stop-color:#ffffff;stop-opacity:1;"
     offset="0"
     id="stop739" /><stop
     style="stop-color:#aadae5;stop-opacity:1;"
     offset="1"
     id="stop740" /></linearGradient><linearGradient
   id="linearGradient688"><stop
     style="stop-color:#ab7200;stop-opacity:1;"
     offset="0"
     id="stop689" /><stop
     style="stop-color:#000000;stop-opacity:1;"
     offset="1"
     id="stop690" /></linearGradient><linearGradient
   id="linearGradient635"><stop
     style="stop-color:#ff8200;stop-opacity:1;"
     offset="0"
     id="stop636" /><stop
     style="stop-color:#ffe700;stop-opacity:1;"
     offset="1"
     id="stop637" /></linearGradient><linearGradient
   id="linearGradient621"><stop
     style="stop-color:#000;stop-opacity:1;"
     offset="0"
     id="stop622" /><stop
     style="stop-color:#fff;stop-opacity:1;"
     offset="1"
     id="stop623" /></linearGradient><linearGradient
   xlink:href="#linearGradient635"
   id="linearGradient624"
   x1="0.39273584"
   y1="0.99219495"
   x2="0.39285502"
   y2="0.37499994"
   spreadMethod="reflect" /><linearGradient
   xlink:href="#linearGradient635"
   id="linearGradient628"
   x1="0.61744964"
   y1="1.0929911"
   x2="0.19798657"
   y2="-0.48837268" /><radialGradient
   xlink:href="#linearGradient635"
   id="radialGradient629"
   cx="0.043638851"
   cy="0.50796098"
   r="1.1210434"
   fx="0.043638851"
   fy="0.50796098"
   gradientTransform="translate(6.098844e-7,1.225341e-6)" /><radialGradient
   xlink:href="#linearGradient635"
   id="radialGradient633"
   cx="2.7225094e-06"
   cy="0.50006461"
   r="0.87587297"
   fx="2.7225094e-06"
   fy="0.50006461"
   gradientTransform="translate(3.571768e-8,1.016935e-6)" /><radialGradient
   xlink:href="#linearGradient635"
   id="radialGradient634"
   cx="0.40272298"
   cy="0.53182161"
   r="1.4208493"
   fx="0.40272298"
   fy="0.53182161" /><linearGradient
   xlink:href="#linearGradient635"
   id="linearGradient638"
   x1="0.20220785"
   y1="0.5078156"
   x2="1.2169119"
   y2="0.49218762" /><linearGradient
   xlink:href="#linearGradient635"
   id="linearGradient639"
   x1="0.013438066"
   y1="1.0434941"
   x2="0.60067159"
   y2="-0.2173906" /><linearGradient
   xlink:href="#linearGradient635"
   id="linearGradient640"
   x1="0.026315417"
   y1="0.96872169"
   x2="1.2017543"
   y2="-0.046875328" /><linearGradient
   xlink:href="#linearGradient635"
   id="linearGradient645"
   x1="0.49328572"
   y1="0.68763548"
   x2="0.50335562"
   y2="-0.2083268"
   gradientTransform="translate(-1.736693e-8,1.12503e-6)" /><linearGradient
   xlink:href="#linearGradient635"
   id="linearGradient662"
   x1="0.49999797"
   y1="4.2856517"
   x2="0.51006711"
   y2="-0.57142854" /><linearGradient
   xlink:href="#linearGradient688"
   id="linearGradient663"
   x1="0.79970354"
   y1="0.015626904"
   x2="0.099991366"
   y2="0.984375"
   gradientTransform="translate(-1.354258e-6,2.60932e-8)" /><linearGradient
   xlink:href="#linearGradient688"
   id="linearGradient664"
   x1="1.2969635"
   y1="0.070344955"
   x2="-0.17187244"
   y2="0.6640628" /><radialGradient
   xlink:href="#linearGradient635"
   id="radialGradient703"
   cx="0.04363846"
   cy="0.50796008"
   r="1.1210434"
   fx="0.04363846"
   fy="0.50796008" /><linearGradient
   xlink:href="#linearGradient738"
   id="linearGradient737"
   x1="0.47649938"
   y1="0.81473005"
   x2="0.5805366"
   y2="0.79629445"
   spreadMethod="reflect" /><linearGradient
   xlink:href="#linearGradient635"
   id="linearGradient693"
   x1="0.0042525777"
   y1="0.96091604"
   x2="0.71120477"
   y2="-0.039063033" /><radialGradient
   xlink:href="#linearGradient716"
   id="radialGradient715"
   cx="0.21035564"
   cy="0.46881738"
   r="0.3010284"
   fx="0.21035564"
   fy="0.46881738"
   gradientTransform="translate(-1.993742e-6,5.513612e-7)" /><linearGradient
   xlink:href="#linearGradient716"
   id="linearGradient816"
   x1="0.62363487"
   y1="0.46874478"
   x2="0.61797768"
   y2="0.88281232" /><radialGradient
   xlink:href="#linearGradient716"
   id="radialGradient817"
   cx="0.48727369"
   cy="0.47593319"
   r="0.71674091"
   fx="0.48727369"
   fy="0.47593319"
   gradientTransform="translate(-7.996448e-8,-1.684752e-6)"
   spreadMethod="reflect" /><linearGradient
   xlink:href="#linearGradient621"
   id="linearGradient839"
   x1="0.2053477"
   y1="0.59407485"
   x2="1.6655757"
   y2="0.55364496" /><linearGradient
   xlink:href="#linearGradient716"
   id="linearGradient851"
   x1="0.46980006"
   y1="-0.17842805"
   x2="0.44630876"
   y2="0.73214781"
   gradientTransform="translate(2.988028e-8,1.287356e-6)" /><linearGradient
   xlink:href="#linearGradient716"
   id="linearGradient852" /><linearGradient
   inkscape:collect="always"
   xlink:href="#linearGradient716"
   id="linearGradient1439"
   x1="615.13562"
   y1="664.00165"
   x2="614.88507"
   y2="682.34222"
   gradientTransform="scale(1.178509,0.84853)"
   gradientUnits="userSpaceOnUse" /><linearGradient
   inkscape:collect="always"
   xlink:href="#linearGradient688"
   id="linearGradient1441"
   gradientTransform="scale(0.250499,3.992035)"
   x1="2850.8486"
   y1="96.558968"
   x2="2787.21"
   y2="184.66667"
   gradientUnits="userSpaceOnUse" /><linearGradient
   inkscape:collect="always"
   xlink:href="#linearGradient688"
   id="linearGradient1443"
   x1="1032.8894"
   y1="383.70267"
   x2="986.69733"
   y2="402.37399"
   gradientTransform="scale(0.703794,1.420871)"
   gradientUnits="userSpaceOnUse" /><radialGradient
   inkscape:collect="always"
   xlink:href="#linearGradient716"
   id="radialGradient1445"
   cx="398.81259"
   cy="448.45496"
   fx="398.81259"
   fy="448.45496"
   r="3.2000804"
   gradientUnits="userSpaceOnUse" /><radialGradient
   inkscape:collect="always"
   xlink:href="#linearGradient716"
   id="radialGradient1447"
   cx="398.81259"
   cy="448.45496"
   fx="398.81259"
   fy="448.45496"
   r="3.2000804"
   gradientUnits="userSpaceOnUse" /><linearGradient
   inkscape:collect="always"
   xlink:href="#linearGradient635"
   id="linearGradient1449"
   x1="293.72403"
   y1="633.70721"
   x2="315.1499"
   y2="603.40045"
   gradientTransform="scale(1.343635,0.74425)"
   gradientUnits="userSpaceOnUse" /><linearGradient
   inkscape:collect="always"
   xlink:href="#linearGradient738"
   id="linearGradient1451"
   spreadMethod="reflect"
   x1="102.07376"
   y1="1017.7301"
   x2="112.09986"
   y2="1015.9534"
   gradientTransform="scale(2.377497,0.42061)"
   gradientUnits="userSpaceOnUse" /><linearGradient
   inkscape:collect="always"
   xlink:href="#linearGradient635"
   id="linearGradient1453"
   x1="226.07008"
   y1="1261.5146"
   x2="83.391838"
   y2="723.6217"
   gradientTransform="scale(1.883065,0.531049)"
   gradientUnits="userSpaceOnUse" /><linearGradient
   inkscape:collect="always"
   xlink:href="#linearGradient635"
   id="linearGradient1455"
   x1="59.78265"
   y1="2316.7874"
   x2="60.472851"
   y2="1983.8533"
   gradientTransform="scale(4.145566,0.241222)"
   gradientUnits="userSpaceOnUse" /><linearGradient
   inkscape:collect="always"
   xlink:href="#linearGradient635"
   id="linearGradient1457"
   x1="0.6725772"
   y1="550.3244"
   x2="208.63736"
   y2="370.63968"
   gradientTransform="scale(1.014815,0.985402)"
   gradientUnits="userSpaceOnUse" /><linearGradient
   inkscape:collect="always"
   xlink:href="#linearGradient635"
   id="linearGradient1459"
   gradientTransform="scale(2.619922,0.381691)"
   x1="37.263836"
   y1="1332.7932"
   x2="37.83556"
   y2="1281.9246"
   gradientUnits="userSpaceOnUse" /><linearGradient
   inkscape:collect="always"
   xlink:href="#linearGradient635"
   id="linearGradient1461"
   spreadMethod="reflect"
   x1="771.12793"
   y1="525.97125"
   x2="771.1452"
   y2="436.54367"
   gradientTransform="scale(0.807041,1.239094)"
   gradientUnits="userSpaceOnUse" /><radialGradient
   inkscape:collect="always"
   xlink:href="#linearGradient635"
   id="radialGradient1463"
   cx="406.75861"
   cy="980.67487"
   fx="406.75861"
   fy="980.67487"
   r="38.999035"
   gradientTransform="scale(1.549194,0.645497)"
   gradientUnits="userSpaceOnUse" /><radialGradient
   inkscape:collect="always"
   xlink:href="#linearGradient635"
   id="radialGradient1465"
   gradientTransform="scale(1.549194,0.645497)"
   cx="396.90256"
   cy="910.4856"
   fx="396.90256"
   fy="910.4856"
   r="30.770054"
   gradientUnits="userSpaceOnUse" /><radialGradient
   inkscape:collect="always"
   xlink:href="#linearGradient635"
   id="radialGradient1467"
   gradientTransform="scale(1.549194,0.645497)"
   cx="396.46725"
   cy="842.56415"
   fx="396.46725"
   fy="842.56415"
   r="24.040691"
   gradientUnits="userSpaceOnUse" /><radialGradient
   inkscape:collect="always"
   xlink:href="#linearGradient635"
   id="radialGradient1469"
   cx="396.14011"
   cy="765.92731"
   fx="396.14011"
   fy="765.92731"
   r="30.770054"
   gradientTransform="scale(1.549194,0.645497)"
   gradientUnits="userSpaceOnUse" /><radialGradient
   inkscape:collect="always"
   xlink:href="#linearGradient716"
   id="radialGradient1471"
   gradientTransform="scale(1.264883,0.790587)"
   spreadMethod="reflect"
   cx="450.07962"
   cy="719.85559"
   fx="450.07962"
   fy="719.85559"
   r="31.347063"
   gradientUnits="userSpaceOnUse" /><linearGradient
   inkscape:collect="always"
   xlink:href="#linearGradient621"
   id="linearGradient1473"
   x1="688.35193"
   y1="461.9389"
   x2="724.20062"
   y2="460.94635"
   gradientTransform="scale(0.816497,1.224745)"
   gradientUnits="userSpaceOnUse" /><linearGradient
   inkscape:collect="always"
   xlink:href="#linearGradient635"
   id="linearGradient1475"
   x1="237.41417"
   y1="805.50189"
   x2="304.56967"
   y2="661.30823"
   gradientTransform="scale(1.795583,0.556922)"
   gradientUnits="userSpaceOnUse" /><linearGradient
   inkscape:collect="always"
   xlink:href="#linearGradient635"
   id="linearGradient1477"
   x1="259.79141"
   y1="963.77496"
   x2="370.57349"
   y2="962.06879"
   gradientTransform="scale(1.568043,0.637738)"
   gradientUnits="userSpaceOnUse" /><linearGradient
   inkscape:collect="always"
   xlink:href="#linearGradient716"
   id="linearGradient1479"
   gradientTransform="scale(2.228698,0.448692)"
   x1="104.81612"
   y1="1109.5081"
   x2="103.78347"
   y2="1149.5356"
   gradientUnits="userSpaceOnUse" />



<linearGradient
   inkscape:collect="always"
   xlink:href="#linearGradient716"
   id="linearGradient2487"
   gradientUnits="userSpaceOnUse"
   gradientTransform="matrix(2.228698,0,0,0.448692,4.0422945,-373.40131)"
   x1="104.81612"
   y1="1109.5081"
   x2="103.78347"
   y2="1149.5356" /><radialGradient
   inkscape:collect="always"
   xlink:href="#linearGradient716"
   id="radialGradient2500"
   gradientUnits="userSpaceOnUse"
   gradientTransform="matrix(0.9226676,-0.765535,0.4895639,0.5636379,-193.77591,191.76319)"
   spreadMethod="reflect"
   cx="450.07962"
   cy="719.85559"
   fx="450.07962"
   fy="719.85559"
   r="31.347063" /><linearGradient
   inkscape:collect="always"
   xlink:href="#linearGradient635"
   id="linearGradient2515"
   gradientUnits="userSpaceOnUse"
   gradientTransform="matrix(2.619922,0,0,0.381691,4.0422945,-373.40131)"
   x1="37.263836"
   y1="1332.7932"
   x2="37.83556"
   y2="1281.9246" /><linearGradient
   inkscape:collect="always"
   xlink:href="#linearGradient635"
   id="linearGradient2519"
   gradientUnits="userSpaceOnUse"
   gradientTransform="matrix(1.014815,0,0,0.985402,4.0422945,-373.40131)"
   x1="0.6725772"
   y1="550.3244"
   x2="208.63736"
   y2="370.63968" /><linearGradient
   inkscape:collect="always"
   xlink:href="#linearGradient635"
   id="linearGradient2522"
   gradientUnits="userSpaceOnUse"
   gradientTransform="matrix(5.2470429,0,0,0.5666635,-32.362656,-1046.9388)"
   x1="59.78265"
   y1="2316.7874"
   x2="60.472851"
   y2="1983.8533" /><linearGradient
   inkscape:collect="always"
   xlink:href="#linearGradient635"
   id="linearGradient2526"
   gradientUnits="userSpaceOnUse"
   gradientTransform="matrix(1.883065,0,0,0.531049,4.0422945,-373.40131)"
   x1="226.07008"
   y1="1261.5146"
   x2="83.391838"
   y2="723.6217" /><linearGradient
   inkscape:collect="always"
   xlink:href="#linearGradient738"
   id="linearGradient2531"
   gradientUnits="userSpaceOnUse"
   gradientTransform="matrix(2.377497,0,0,0.42061,105.03199,-326.74533)"
   spreadMethod="reflect"
   x1="102.07376"
   y1="1017.7301"
   x2="112.09986"
   y2="1015.9534" /><linearGradient
   inkscape:collect="always"
   xlink:href="#linearGradient716"
   id="linearGradient2542"
   gradientUnits="userSpaceOnUse"
   gradientTransform="scale(1.178509,0.84853)"
   x1="615.13562"
   y1="664.00165"
   x2="614.88507"
   y2="682.34222" /><linearGradient
   inkscape:collect="always"
   xlink:href="#linearGradient688"
   id="linearGradient2544"
   gradientUnits="userSpaceOnUse"
   gradientTransform="scale(0.250499,3.992035)"
   x1="2850.8486"
   y1="96.558968"
   x2="2787.21"
   y2="184.66667" /><linearGradient
   inkscape:collect="always"
   xlink:href="#linearGradient688"
   id="linearGradient2546"
   gradientUnits="userSpaceOnUse"
   gradientTransform="scale(0.703794,1.420871)"
   x1="1032.8894"
   y1="383.70267"
   x2="986.69733"
   y2="402.37399" /><radialGradient
   inkscape:collect="always"
   xlink:href="#linearGradient716"
   id="radialGradient2548"
   gradientUnits="userSpaceOnUse"
   cx="398.81259"
   cy="448.45496"
   fx="398.81259"
   fy="448.45496"
   r="3.2000804" /><radialGradient
   inkscape:collect="always"
   xlink:href="#linearGradient716"
   id="radialGradient2550"
   gradientUnits="userSpaceOnUse"
   cx="398.81259"
   cy="448.45496"
   fx="398.81259"
   fy="448.45496"
   r="3.2000804" /><linearGradient
   inkscape:collect="always"
   xlink:href="#linearGradient635"
   id="linearGradient2552"
   gradientUnits="userSpaceOnUse"
   gradientTransform="scale(1.343635,0.74425)"
   x1="293.72403"
   y1="633.70721"
   x2="315.1499"
   y2="603.40045" /><linearGradient
   inkscape:collect="always"
   xlink:href="#linearGradient738"
   id="linearGradient2554"
   gradientUnits="userSpaceOnUse"
   gradientTransform="matrix(2.377497,0,0,0.42061,105.03199,-326.74533)"
   spreadMethod="reflect"
   x1="102.07376"
   y1="1017.7301"
   x2="112.09986"
   y2="1015.9534" /><linearGradient
   inkscape:collect="always"
   xlink:href="#linearGradient635"
   id="linearGradient2556"
   gradientUnits="userSpaceOnUse"
   gradientTransform="matrix(1.883065,0,0,0.531049,4.0422945,-373.40131)"
   x1="226.07008"
   y1="1261.5146"
   x2="83.391838"
   y2="723.6217" /><linearGradient
   inkscape:collect="always"
   xlink:href="#linearGradient635"
   id="linearGradient2558"
   gradientUnits="userSpaceOnUse"
   gradientTransform="matrix(5.2470429,0,0,0.5666635,-32.362656,-1046.9388)"
   x1="59.78265"
   y1="2316.7874"
   x2="60.472851"
   y2="1983.8533" /><linearGradient
   inkscape:collect="always"
   xlink:href="#linearGradient635"
   id="linearGradient2560"
   gradientUnits="userSpaceOnUse"
   gradientTransform="matrix(1.014815,0,0,0.985402,4.0422945,-373.40131)"
   x1="0.6725772"
   y1="550.3244"
   x2="208.63736"
   y2="370.63968" /><linearGradient
   inkscape:collect="always"
   xlink:href="#linearGradient635"
   id="linearGradient2562"
   gradientUnits="userSpaceOnUse"
   gradientTransform="matrix(2.619922,0,0,0.381691,4.0422945,-373.40131)"
   x1="37.263836"
   y1="1332.7932"
   x2="37.83556"
   y2="1281.9246" /><linearGradient
   inkscape:collect="always"
   xlink:href="#linearGradient635"
   id="linearGradient2564"
   gradientUnits="userSpaceOnUse"
   gradientTransform="scale(0.807041,1.239094)"
   spreadMethod="reflect"
   x1="771.12793"
   y1="525.97125"
   x2="771.1452"
   y2="436.54367" /><radialGradient
   inkscape:collect="always"
   xlink:href="#linearGradient635"
   id="radialGradient2566"
   gradientUnits="userSpaceOnUse"
   gradientTransform="scale(1.549194,0.645497)"
   cx="406.75861"
   cy="980.67487"
   fx="406.75861"
   fy="980.67487"
   r="38.999035" /><radialGradient
   inkscape:collect="always"
   xlink:href="#linearGradient635"
   id="radialGradient2568"
   gradientUnits="userSpaceOnUse"
   gradientTransform="scale(1.549194,0.645497)"
   cx="396.90256"
   cy="910.4856"
   fx="396.90256"
   fy="910.4856"
   r="30.770054" /><radialGradient
   inkscape:collect="always"
   xlink:href="#linearGradient635"
   id="radialGradient2570"
   gradientUnits="userSpaceOnUse"
   gradientTransform="scale(1.549194,0.645497)"
   cx="396.46725"
   cy="842.56415"
   fx="396.46725"
   fy="842.56415"
   r="24.040691" /><radialGradient
   inkscape:collect="always"
   xlink:href="#linearGradient635"
   id="radialGradient2572"
   gradientUnits="userSpaceOnUse"
   gradientTransform="scale(1.549194,0.645497)"
   cx="396.14011"
   cy="765.92731"
   fx="396.14011"
   fy="765.92731"
   r="30.770054" /><radialGradient
   inkscape:collect="always"
   xlink:href="#linearGradient716"
   id="radialGradient2574"
   gradientUnits="userSpaceOnUse"
   gradientTransform="matrix(0.9226676,-0.765535,0.4895639,0.5636379,-193.77591,191.76319)"
   spreadMethod="reflect"
   cx="450.07962"
   cy="719.85559"
   fx="450.07962"
   fy="719.85559"
   r="31.347063" /><linearGradient
   inkscape:collect="always"
   xlink:href="#linearGradient621"
   id="linearGradient2576"
   gradientUnits="userSpaceOnUse"
   gradientTransform="scale(0.816497,1.224745)"
   x1="688.35193"
   y1="461.9389"
   x2="724.20062"
   y2="460.94635" /><linearGradient
   inkscape:collect="always"
   xlink:href="#linearGradient635"
   id="linearGradient2578"
   gradientUnits="userSpaceOnUse"
   gradientTransform="scale(1.795583,0.556922)"
   x1="237.41417"
   y1="805.50189"
   x2="304.56967"
   y2="661.30823" /><linearGradient
   inkscape:collect="always"
   xlink:href="#linearGradient635"
   id="linearGradient2580"
   gradientUnits="userSpaceOnUse"
   gradientTransform="scale(1.568043,0.637738)"
   x1="259.79141"
   y1="963.77496"
   x2="370.57349"
   y2="962.06879" /><linearGradient
   inkscape:collect="always"
   xlink:href="#linearGradient716"
   id="linearGradient2582"
   gradientUnits="userSpaceOnUse"
   gradientTransform="matrix(2.228698,0,0,0.448692,4.0422945,-373.40131)"
   x1="104.81612"
   y1="1109.5081"
   x2="103.78347"
   y2="1149.5356" /></defs><sodipodi:namedview
   id="base"
   inkscape:zoom="0.37724655"
   inkscape:cx="183.62031"
   inkscape:cy="-7.2738003"
   inkscape:window-width="822"
   inkscape:window-height="719"
   inkscape:window-x="6"
   inkscape:window-y="50"
   inkscape:current-layer="svg602"
   showgrid="false" />

<g
   id="g2491"
   transform="matrix(0.2195556,0,0,0.2195556,0,6.6326059e-7)"><g
     transform="translate(4.0422945,-373.40131)"
     id="g823"><path
       transform="translate(-18.89862,-5.14235)"
       sodipodi:nodetypes="cccccc"
       id="path685"
       d="M 692.3889,545.8076 L 692.3889,583.3921 L 717.4452,583.3921 C 732.4829,583.3921 744.5894,575.0105 744.5894,564.5996 C 744.5894,554.1887 732.4829,545.8076 717.4452,545.8076 L 692.3889,545.8076 z"
       style="font-size:12px;fill:url(#linearGradient2542);fill-rule:evenodd" /><path
       transform="translate(-18.89862,-4.724686)"
       sodipodi:nodetypes="ccccccccc"
       id="path687"
       d="M 707.4223,379.793 C 693.2354,379.793 696.5646,486.5602 696.5646,500.2379 L 703.2463,561.33 L 696.9822,618.9314 C 695.3118,628.1204 693.653,743.366 708.2575,742.8672 C 714.0922,742.8672 718.6976,738.8382 718.6976,725.1604 L 718.28,561.33 L 717.8624,396.0036 C 717.8624,382.326 713.2571,379.793 707.4223,379.793 z"
       style="font-size:12px;fill:url(#linearGradient2544);fill-rule:evenodd" /><rect
       transform="translate(-18.89862,-5.14235)"
       ry="26.628502"
       y="542.04865"
       x="698.23547"
       height="44.683723"
       width="22.132996"
       id="rect691"
       style="font-size:12px;fill:url(#linearGradient2546);fill-rule:evenodd"
       rx="26.628502" /></g><path
     sodipodi:nodetypes="ccccccccc"
     id="path756"
     d="M 430.68172,35.93242 C 413.79292,35.93242 395.78632,46.37942 397.53892,76.16212 L 395.17662,93.52602 C 390.45192,110.41472 388.98832,122.82992 405.87722,122.82992 L 437.80452,123.42052 C 454.69332,123.42052 478.32972,133.74272 478.32972,116.85402 L 460.90742,77.04802 C 460.90752,49.23362 448.19692,35.93242 431.30812,35.93242 L 430.68172,35.93242 z"
     style="font-size:12px;fill:#000037;fill-rule:evenodd" /><g
     style="font-size:12px"
     transform="translate(10.53877,-374.28735)"
     id="g720"><g
       transform="translate(17.12181,33.19958)"
       id="g685"><rect
         transform="matrix(0.999947,1.026074e-2,-1.026074e-2,0.999947,0,0)"
         y="388.58585"
         x="398.63693"
         height="4.1340609"
         width="7.0869694"
         id="rect748"
         style="font-size:12px;fill:#bc7900;fill-rule:evenodd" /><path
         sodipodi:nodetypes="ccccccccccccccc"
         id="path683"
         d="M 396.6563,394.1438 C 396.6061,399.0361 394.6268,402.9822 388.593,402.9203 C 382.5591,402.8584 374.7557,398.8119 374.8059,393.9196 C 374.8561,389.0272 379.7518,388.6548 385.7857,388.7167 C 391.8195,388.7786 396.7065,389.2514 396.6563,394.1438 z M 394.5038,394.5347 C 394.4654,398.2772 392.9513,401.2961 388.3353,401.2487 C 383.7194,401.2013 377.7499,398.1058 377.7882,394.3631 C 377.8267,390.6205 381.5718,390.3355 386.1878,390.3829 C 390.8036,390.4302 394.5422,390.792 394.5038,394.5347 z M 382.6039,390.3964 L 382.5558,399.9167 L 384.4266,400.675 L 384.4747,390.3426 L 382.6039,390.3964 z"
         style="font-size:12px;fill:#bc7900;fill-rule:evenodd" /><path
         sodipodi:nodetypes="ccccccccccccccc"
         id="path684"
         d="M 399.5092,394.1438 C 399.5594,399.0361 401.5387,402.9822 407.5725,402.9203 C 413.6064,402.8584 421.4098,398.8119 421.3596,393.9196 C 421.3094,389.0272 416.4137,388.6548 410.3798,388.7167 C 404.346,388.7786 399.459,389.2514 399.5092,394.1438 z M 401.6617,394.5347 C 401.7001,398.2772 403.2142,401.2961 407.8302,401.2487 C 412.4461,401.2013 418.4156,398.1058 418.3773,394.3631 C 418.3388,390.6205 414.5937,390.3355 409.9777,390.3829 C 405.3619,390.4302 401.6233,390.792 401.6617,394.5347 z M 413.5616,390.3964 L 413.6097,399.9167 L 411.7389,400.675 L 411.6908,390.3426 L 413.5616,390.3964 z"
         style="font-size:12px;fill:#bc7900;fill-rule:evenodd" /></g><path
       sodipodi:nodetypes="ccccc"
       id="path699"
       d="M 409.6376,449.1857 C 406.3628,449.2479 401.6624,451.8468 397.6499,454.0064 C 395.8779,455.259 393.5509,449.8041 393.5509,445.7228 C 393.5509,440.2154 395.8673,436.1357 401.808,436.1357 C 407.2571,436.1357 410.5264,442.3898 409.6376,449.1857 z"
       style="font-size:12px;fill:#ffffff;fill-rule:evenodd" /><path
       sodipodi:nodetypes="ccccc"
       id="path703"
       d="M 416.2332,449.481 C 420.8461,449.8385 426.6158,451.8468 430.4096,453.7112 C 432.3741,454.9637 433.7728,450.0994 433.7728,446.0181 C 433.7728,441.6919 431.0442,435.8404 424.4579,435.8404 C 417.5308,435.8404 415.2478,440.9133 416.2332,449.481 z"
       style="font-size:12px;fill:#ffffff;fill-rule:evenodd" /><path
       transform="translate(-0.590592,-0.88588)"
       sodipodi:ry="5.3152466"
       sodipodi:rx="5.3152466"
       sodipodi:cy="448.78644"
       sodipodi:cx="401.89166"
       d="M 407.20691,448.78644 A 5.3152466,5.3152466 0 1 1 396.57642,448.78644 A 5.3152466,5.3152466 0 1 1 407.20691,448.78644 z"
       id="path714"
       style="fill:url(#radialGradient2548);fill-opacity:1;fill-rule:evenodd;stroke:none;stroke-width:1pt;stroke-linecap:butt;stroke-linejoin:miter;stroke-opacity:1"
       sodipodi:type="arc" /><path
       transform="translate(22.44213,-1.476471)"
       sodipodi:ry="5.3152466"
       sodipodi:rx="5.3152466"
       sodipodi:cy="448.78644"
       sodipodi:cx="401.89166"
       d="M 407.20691,448.78644 A 5.3152466,5.3152466 0 1 1 396.57642,448.78644 A 5.3152466,5.3152466 0 1 1 407.20691,448.78644 z"
       id="path719"
       style="fill:url(#radialGradient2550);fill-opacity:1;fill-rule:evenodd;stroke:none;stroke-width:1pt;stroke-linecap:butt;stroke-linejoin:miter;stroke-opacity:1"
       sodipodi:type="arc" /><path
       sodipodi:nodetypes="ccscs"
       id="path691"
       d="M 435.2039,458.1105 C 435.4616,462.8411 418.5724,472.518 412.1313,472.518 C 405.0638,472.518 394.864,463.6107 394.4875,458.1105 C 394.2865,455.4702 405.0636,449.7585 413.8017,449.9673 C 424.0012,449.9673 435.0589,455.4488 435.2039,458.1105 z"
       style="font-size:12px;fill:url(#linearGradient2552);fill-rule:evenodd" /><path
       sodipodi:nodetypes="csc"
       id="path692"
       d="M 395.0273,458.1467 C 397.3145,460.6473 403.0736,466.6393 412.2058,466.3692 C 423.2642,466.0525 429.2843,458.9946 431.9428,458.4952"
       style="font-size:12px;fill:none;fill-rule:evenodd;stroke:#000000" /></g><path
     sodipodi:nodetypes="cccccccccccccccccccc"
     id="path736"
     d="M 248.24829,75.60647 C 226.39669,65.64047 248.24829,86.90137 248.24829,87.56577 C 261.24109,108.90057 274.08629,88.37787 282.87119,88.37787 C 291.65609,88.37787 294.53519,93.10247 303.32019,93.10247 C 312.10509,93.10247 323.25229,90.74017 332.03729,90.74017 C 340.23159,94.87417 346.06359,84.24377 354.84849,84.24377 C 363.63349,84.24377 372.41829,96.64587 380.02209,91.33077 C 388.21649,88.37777 392.27669,97.23657 399.88049,100.77997 C 406.00769,106.98117 415.38329,109.93407 435.68459,108.45767 C 444.46949,108.45767 455.02619,96.05547 463.81109,96.05547 C 472.66979,98.93447 463.81099,79.66677 461.15339,79.59297 C 460.26749,85.42507 432.51019,100.85397 426.60439,98.41787 C 417.22879,100.18957 408.44389,94.28367 400.84009,90.74017 C 389.98819,89.55897 402.46429,79.51917 392.79349,78.92857 C 384.00859,78.92857 386.44469,78.92857 377.65979,78.92857 C 368.87489,78.92857 365.40519,68.29807 356.62029,68.29807 C 347.83539,68.29807 354.40559,86.01557 327.31259,73.61327 C 318.52769,73.61327 315.64859,80.70027 306.86359,80.70027 C 298.07869,80.70027 285.15969,67.70747 274.60309,73.61327 C 268.77109,75.97557 265.37519,79.66677 248.24829,75.60647 z"
     style="font-size:12px;fill:url(#linearGradient2554);fill-rule:evenodd" /><path
     sodipodi:nodetypes="cccsc"
     id="path758"
     d="M 390.94129,79.83737 C 390.94129,93.38727 404.93619,104.64597 400.09269,104.64597 C 395.24939,104.64597 375.90749,96.31047 375.90749,82.76067 C 375.90749,69.21057 387.16669,56.05817 391.35879,53.63257 C 396.20219,50.50047 390.94129,66.28737 390.94129,79.83737 z"
     style="font-size:12px;fill-rule:evenodd" /><path
     sodipodi:nodetypes="ccccc"
     id="path697"
     d="M 77.682164,174.89549 C 78.191485,185.75249 54.545704,193.26609 42.461354,196.76779 C 39.724554,197.23229 43.387834,202.37739 45.812415,201.72749 C 58.722614,197.77999 79.065144,190.26639 85.368764,178.07229 C 85.628074,177.16189 78.248694,174.02279 77.682164,174.89549 z"
     style="font-size:12px;fill:#808080;fill-rule:evenodd" /><path
     sodipodi:nodetypes="cccccc"
     id="path606"
     d="M 674.77609,180.51009 C 674.77619,266.51089 606.90019,279.72769 500.96569,279.72769 C 263.92239,278.54659 34.685155,163.88589 34.263304,153.88199 C 33.672714,125.47829 155.46919,104.73259 381.70609,99.09399 C 439.03539,137.11829 481.99919,121.45189 482.99489,101.37219 C 580.66019,101.37219 674.77609,108.68349 674.77609,180.51009 z"
     style="font-size:12px;fill:url(#linearGradient2556);fill-rule:evenodd" /><path
     sodipodi:nodetypes="ccscs"
     id="path644"
     d="M 483.29909,101.37229 C 486.54719,101.47839 490.71979,122.63309 448.15949,122.63309 C 410.32389,122.63309 378.87449,103.36119 380.83329,99.60059 C 383.49089,95.36039 408.25689,118.49919 446.09249,118.49919 C 484.51869,118.20379 479.06599,101.61879 483.29909,101.37229 z"
     style="font-size:12px;fill:#383738;fill-rule:evenodd" /><path
     sodipodi:nodetypes="ccccc"
     id="path833"
     d="M 461.15238,129.02814 C 461.15238,135.92403 438.04006,138.27481 422.74168,138.27481 C 337.28528,138.27481 101.48803,137.10518 101.48803,130.20929 C 101.48803,123.3134 193.52454,103.46507 379.34551,99.432304 C 417.65938,136.03115 461.15238,115.04514 461.15238,129.02814 z"
     style="font-size:12px;fill:url(#linearGradient2558);fill-rule:evenodd" /><path
     sodipodi:nodetypes="ccscc"
     id="path608"
     d="M 179.54629,110.61009 C 157.91029,112.26599 59.241185,135.03269 68.341925,174.34239 C 33.552155,154.82119 -0.6970795,144.64909 0.0107865,110.31479 C -0.1513415,53.22069 23.316064,15.55269 66.972174,2.55989 C 137.41279,-16.33861 179.54629,74.40539 179.54629,110.61009 z"
     style="font-size:12px;fill:url(#linearGradient2560);fill-rule:evenodd" /><path
     sodipodi:nodetypes="ccc"
     id="path658"
     d="M 149.12269,39.14929 L 61.134735,39.44499 L 60.544164,169.52499"
     style="font-size:12px;fill:none;fill-rule:evenodd;stroke:#6e2b00;stroke-width:1" /><path
     sodipodi:nodetypes="ccccc"
     id="path642"
     d="M 176.49209,133.26369 C 176.49209,138.48239 161.77569,141.53179 124.17109,141.53179 C 86.566654,141.53179 28.846665,138.48239 28.846665,133.26369 C 28.846665,128.04499 86.566634,120.96279 124.17109,120.96279 C 161.77569,120.96279 176.49209,128.04499 176.49209,133.26369 z"
     style="font-size:12px;fill:url(#linearGradient2562);fill-rule:evenodd;stroke:#ffa100;stroke-width:1.101632" /><g
     transform="translate(-14.856365,-373.40134)"
     id="g704"><path
       sodipodi:nodetypes="ccccccc"
       id="path620"
       d="M 576.4074,473.5924 L 576.4074,653.1292 L 633.9165,653.1292 C 666.8386,653.1292 693.3425,636.7984 693.3425,616.5131 L 693.3425,510.2084 C 693.3425,489.9232 666.8386,473.5924 633.9165,473.5924 L 576.4074,473.5924 z"
       style="font-size:12px;fill:url(#linearGradient2564);fill-rule:evenodd" /><path
       sodipodi:nodetypes="ccccc"
       id="path618"
       d="M 655.5453,632.4588 C 655.5453,637.3513 654.2946,641.3175 642.5525,641.3175 C 630.8104,641.3175 613.0235,637.3513 613.0235,632.4588 C 613.0235,627.5663 630.8104,623.6001 642.5525,623.6001 C 654.2946,623.6001 655.5453,627.5663 655.5453,632.4588 z"
       style="font-size:12px;fill:url(#radialGradient2566);fill-rule:evenodd;stroke-width:1" /><path
       sodipodi:nodetypes="ccccc"
       id="path630"
       d="M 655.5453,587.5746 C 655.5453,592.4671 654.2946,596.4333 642.5525,596.4333 C 630.8104,596.4333 613.0235,592.4671 613.0235,587.5746 C 613.0235,582.6821 630.8104,578.7159 642.5525,578.7159 C 654.2946,578.7159 655.5453,582.6821 655.5453,587.5746 z"
       style="font-size:12px;fill:url(#radialGradient2568);fill-rule:evenodd;stroke-width:1" /><path
       sodipodi:nodetypes="ccccc"
       id="path631"
       d="M 656.7264,543.8714 C 656.7264,548.7639 655.4757,552.7301 643.7336,552.7301 C 631.9915,552.7301 614.2046,548.7639 614.2046,543.8714 C 614.2046,538.9789 631.9915,535.0127 643.7336,535.0127 C 655.4757,535.0127 656.7264,538.9789 656.7264,543.8714 z"
       style="font-size:12px;fill:url(#radialGradient2570);fill-rule:evenodd;stroke-width:1" /><path
       sodipodi:nodetypes="ccccc"
       id="path632"
       d="M 654.3641,494.2627 C 654.3641,499.1552 653.1134,503.1214 641.3713,503.1214 C 629.6292,503.1214 611.8423,499.1552 611.8423,494.2627 C 611.8423,489.3702 629.6292,485.404 641.3713,485.404 C 653.1134,485.404 654.3641,489.3702 654.3641,494.2627 z"
       style="font-size:12px;fill:url(#radialGradient2572);fill-rule:evenodd;stroke-width:1" /></g><g
     transform="translate(4.0422945,-373.40131)"
     id="g719"><path
       sodipodi:nodetypes="ccccccc"
       id="path656"
       d="M 435.8492,646.042 L 562.2337,744.0785 L 558.6902,647.2232 L 543.0397,647.5185 L 547.4692,711.5965 L 459.7678,646.9279 L 435.8492,646.042 z"
       style="font-size:12px;fill:#ff8000;fill-opacity:1;fill-rule:evenodd" /><g
       id="g679"><path
         transform="matrix(0.844687,0,0,0.923525,115.6024,51.68169)"
         sodipodi:ry="44.29361"
         sodipodi:rx="48.427689"
         sodipodi:cy="737.58215"
         sodipodi:cx="516.16833"
         d="M 564.59602,737.58215 A 48.427689,44.29361 0 1 1 467.74065,737.58215 A 48.427689,44.29361 0 1 1 564.59602,737.58215 z"
         id="path648"
         style="font-size:12px;fill:#ffb000;fill-rule:evenodd;stroke-width:1"
         sodipodi:type="arc" /><path
         transform="translate(28.34793,11.81165)"
         id="path651"
         d="M 564.1613,721.0456 C 564.1613,743.6374 545.847,761.9519 523.2551,761.9519 C 500.6632,761.9519 482.3488,743.6374 482.3488,721.0456 C 482.3488,698.4537 500.6632,680.1393 523.2551,680.1393 C 545.847,680.1393 564.1613,698.4537 564.1613,721.0456 z M 571.3803,721.0457 C 571.3803,747.6243 549.8341,769.1707 523.2553,769.1707 C 496.6767,769.1707 475.1303,747.6243 475.1303,721.0457 C 475.1303,694.467 496.6767,672.9206 523.2553,672.9206 C 549.8341,672.9206 571.3803,694.467 571.3803,721.0457 z"
         style="font-size:12px;fill:#383838;fill-rule:evenodd" /><path
         transform="matrix(0.997757,0,0,1.122474,-0.845918,-92.10437)"
         sodipodi:ry="6.6816711"
         sodipodi:rx="7.5168762"
         sodipodi:cy="734.98267"
         sodipodi:cx="553.74377"
         d="M 561.26065,734.98267 A 7.5168762,6.6816711 0 1 1 546.2269,734.98267 A 7.5168762,6.6816711 0 1 1 561.26065,734.98267 z"
         id="path667"
         style="font-size:12px;fill:#383838;fill-rule:evenodd;stroke-width:1"
         sodipodi:type="arc" /></g></g><path
     sodipodi:nodetypes="csscsss"
     id="path819"
     d="M 558.42111,246.65319 C 553.6501,247.18743 548.48529,256.65309 552.28132,265.42883 C 555.32292,271.77796 557.87047,276.72231 576.11684,270.28164 C 582.95215,267.76466 586.85023,265.30536 592.06912,259.12585 C 596.3728,252.90403 601.32041,243.41532 596.38354,237.83262 C 589.88841,230.78305 581.22188,232.28289 576.10771,239.46141 C 571.06307,245.88041 564.76048,245.9848 558.42111,246.65319 z"
     style="font-size:12px;fill:url(#radialGradient2574);fill-rule:evenodd" /><path
     transform="matrix(0.90366,1.099719e-3,1.863711e-2,0.81967,37.616464,-202.51911)"
     sodipodi:ry="15.033783"
     sodipodi:rx="10.022522"
     sodipodi:cy="562.92871"
     sodipodi:cx="567.9433"
     d="M 577.96582,562.92871 A 10.022522,15.033783 0 1 1 557.92078,562.92871 A 10.022522,15.033783 0 1 1 577.96582,562.92871 z"
     id="path818"
     style="font-size:12px;fill:url(#linearGradient2576);fill-rule:evenodd;stroke-width:1"
     sodipodi:type="arc" /><text
     transform="scale(0.8275815,1.2083402)"
     id="text843"
     y="164.06995"
     x="269.31488"
     style="font-size:59.01511765px;font-style:normal;font-weight:normal;writing-mode:lr-tb;text-anchor:start;fill:#000000;fill-opacity:1;stroke:none;stroke-width:1pt;stroke-linecap:butt;stroke-linejoin:miter;stroke-opacity:1;font-family:Captain Podd"><tspan
       style="fill:#000000;fill-opacity:1"
       id="tspan844">GC</tspan></text>
<text
     transform="scale(0.9818819,1.0184525)"
     id="text846"
     y="192.65344"
     x="296.73129"
     style="font-size:51.05785751px;font-style:normal;font-weight:normal;writing-mode:lr-tb;text-anchor:start;fill:#000000;fill-opacity:1;stroke:none;stroke-width:1pt;stroke-linecap:butt;stroke-linejoin:miter;stroke-opacity:1;font-family:Captain Podd"><tspan
       id="tspan847">ompris</tspan></text>
<g
     transform="translate(4.0422945,-373.40131)"
     id="g714"><path
       sodipodi:nodetypes="cccccc"
       id="path610"
       d="M 628.3786,430.6275 C 628.3786,445.0114 611.4692,445.2443 570.085,445.2443 C 541.8713,445.2443 505.3595,445.7766 475.9009,444.2157 C 465.3411,427.2997 429.3526,434.8665 424.0374,428.2652 C 424.0374,422.1495 449.7227,382.6427 570.085,382.6427 C 626.5124,382.6427 628.3786,424.5118 628.3786,430.6275 z"
       style="font-size:12px;fill:url(#linearGradient2578);fill-opacity:1;fill-rule:evenodd;stroke:#ff7500;stroke-width:1;stroke-opacity:1" /><path
       sodipodi:nodetypes="ccc"
       id="path657"
       d="M 500.8132,388.5484 L 467.7407,420.4398 L 428.1716,421.0305"
       style="fill:none;fill-opacity:1;fill-rule:evenodd;stroke:#9f4f00;stroke-width:1pt;stroke-linecap:butt;stroke-linejoin:miter;stroke-opacity:1" /><path
       sodipodi:nodetypes="ccccccccccc"
       id="path614"
       d="M 481.9144,425.1647 L 418.1316,596.4798 L 432.3056,597.6454 L 567.8441,442.6179 L 493.1355,597.6455 L 510.5577,599.9767 L 596.4872,426.2993 L 572.864,427.1735 L 439.9831,575.353 L 499.632,425.4251 L 481.9144,425.1647 z"
       style="font-size:12px;fill:#ff9100;fill-opacity:1;fill-rule:evenodd;stroke:none;stroke-opacity:1" /><path
       sodipodi:nodetypes="ccccc"
       id="path611"
       d="M 543.3348,628.9153 C 543.3348,637.0695 529.2599,648.4044 494.813,648.4044 C 447.8446,648.4044 373.2474,637.0695 373.2474,628.9153 C 373.2474,620.761 400.5329,579.7783 500.7188,579.7783 C 547.6873,579.7783 543.3348,620.761 543.3348,628.9153 z"
       style="font-size:12px;fill:url(#linearGradient2580);fill-opacity:1;fill-rule:evenodd;stroke:#ff7f00;stroke-width:1;stroke-opacity:1" /></g><path
     sodipodi:nodetypes="csccccc"
     id="path850"
     d="M 207.64609,128.09349 C 199.89709,128.53629 193.84899,132.28259 191.70029,145.66349 C 191.15029,149.23679 193.10539,148.02559 206.90789,142.11989 L 282.50269,142.11989 C 286.26529,142.11989 289.58959,140.41959 289.58959,135.47579 C 289.58969,129.79379 286.85579,127.94589 284.12669,127.94589 L 207.64609,128.09349 z"
     style="font-size:12px;fill:url(#linearGradient2582);fill-rule:evenodd" /></g></svg>