<?xml version="1.0" encoding="UTF-8" standalone="no"?>
<!DOCTYPE svg PUBLIC "-//W3C//DTD SVG 1.0//EN"
"http://www.w3.org/TR/2001/REC-SVG-20010904/DTD/svg10.dtd">
<!-- Created with Inkscape (http://www.inkscape.org/) -->
<svg
   id="svg1018"
   sodipodi:version="0.32"
   inkscape:version="0.39"
   xmlns="http://www.w3.org/2000/svg"
   xmlns:sodipodi="http://sodipodi.sourceforge.net/DTD/sodipodi-0.dtd"
   xmlns:inkscape="http://www.inkscape.org/namespaces/inkscape"
   xmlns:xlink="http://www.w3.org/1999/xlink"
   xmlns:rdf="http://www.w3.org/1999/02/22-rdf-syntax-ns#"
   xmlns:cc="http://web.resource.org/cc/"
   xmlns:dc="http://purl.org/dc/elements/1.1/"
   width="127.28000pt"
   height="206.89000pt"
   sodipodi:docbase="/home/franck/Dessins/Vectoriels"
   sodipodi:docname="son3.svg">
  <defs
     id="defs1020">
    <linearGradient
       id="linearGradient697">
      <stop
         style="stop-color:#3f3f3f;stop-opacity:1;"
         offset="0"
         id="stop698" />
      <stop
         style="stop-color:#ffffff;stop-opacity:1;"
         offset="1"
         id="stop699" />
    </linearGradient>
    <radialGradient
       xlink:href="#linearGradient697"
       id="radialGradient764"
       cx="0.39895916"
       cy="0.32025081"
       r="0.3520692"
       fx="0.39895916"
       fy="0.32025081"
       spreadMethod="reflect" />
    <linearGradient
       xlink:href="#linearGradient747"
       id="linearGradient759"
       x1="9.26276869e-8"
       y1="1.59111551e-7"
       x2="1.00000012"
       y2="1.59111551e-7" />
    <linearGradient
       id="linearGradient747">
      <stop
         style="stop-color:#7fff00;stop-opacity:1;"
         offset="0"
         id="stop748" />
      <stop
         style="stop-color:#6a9a00;stop-opacity:1;"
         offset="1"
         id="stop749" />
    </linearGradient>
    <linearGradient
       xlink:href="#linearGradient747"
       id="linearGradient750"
       x1="1.65775106e-7"
       y1="1.02670988e-7"
       x2="1.00000012"
       y2="1.02670988e-7" />
  </defs>
  <sodipodi:namedview
     id="base"
     pagecolor="#ffffff"
     bordercolor="#666666"
     borderopacity="1.0"
     inkscape:pageopacity="0.0"
     inkscape:pageshadow="2"
     inkscape:zoom="1.9770072"
     inkscape:cx="65.640001"
     inkscape:cy="103.94500"
     inkscape:window-width="640"
     inkscape:window-height="581"
     inkscape:window-x="150"
     inkscape:window-y="0" />
  <metadata
     id="metadata1021">
    <rdf:RDF
       id="RDF1022">
      <cc:Work
         rdf:about=""
         id="Work1023">
        <dc:format
           id="format1024">image/svg+xml</dc:format>
        <dc:type
           id="type1026"
           rdf:resource="http://purl.org/dc/dcmitype/StillImage" />
      </cc:Work>
    </rdf:RDF>
  </metadata>
  <g
     id="g796"
     transform="translate(-389.1245,-236.7726)">
    <path
       style="font-size:12.000000;fill:url(#linearGradient750);fill-opacity:1.0000000;fill-rule:evenodd;"
       d="M 455.75170,239.94990 C 445.70800,244.84710 441.17910,255.80310 439.75070,262.70360 L 390.66250,467.23550 C 388.33300,478.28400 390.16950,485.07870 401.54580,487.33400 C 420.93400,475.04560 467.36170,480.97500 485.83670,491.34480 C 497.21310,493.59990 502.36250,487.28010 504.69200,476.23170 L 547.01970,274.03050 C 549.34900,262.98190 547.65990,257.55650 538.13450,250.77260 C 524.87950,240.33330 476.11450,232.43000 455.75170,239.94990 z "
       id="path746"
       sodipodi:nodetypes="cccccccsc" />
    <path
       style="font-size:12.000000;fill:url(#linearGradient759);fill-rule:evenodd;"
       d="M 401.75190,485.15210 C 390.82270,487.75090 389.56070,476.26950 389.56070,473.73160 L 389.52530,481.76820 C 389.49380,488.92500 397.91120,491.91960 402.56250,490.65060 C 435.93380,480.49940 456.09350,483.35300 480.61350,493.61160 C 489.85430,497.30080 500.84140,493.18860 501.86140,486.84390 L 505.03290,475.84660 C 501.50910,488.11290 489.46820,491.70690 483.60970,488.95870 C 458.88280,477.13530 433.34910,476.06430 401.75190,485.15210 z "
       id="path758"
       sodipodi:nodetypes="ccscsccss" />
    <path
       sodipodi:type="arc"
       style="fill:url(#radialGradient764);fill-opacity:1.0000000;fill-rule:evenodd;stroke:none;stroke-width:1.0000000pt;stroke-linecap:butt;stroke-linejoin:miter;stroke-opacity:1.0000000;"
       id="path768"
       d="M 224.91541 243.62378 A 21.534454 14.356316 0 1 0 181.84650,243.62378 A 21.534454 14.356316 0 1 0 224.91541 243.62378 z"
       sodipodi:cx="203.38095"
       sodipodi:cy="243.62378"
       sodipodi:rx="21.534454"
       sodipodi:ry="14.356316"
       transform="translate(286.6330,34.70898)" />
    <path
       sodipodi:type="arc"
       style="fill:url(#radialGradient764);fill-opacity:1.0000000;fill-rule:evenodd;stroke:none;stroke-width:1.0000000pt;stroke-linecap:butt;stroke-linejoin:miter;stroke-opacity:1.0000000;"
       id="path769"
       d="M 224.91541 243.62378 A 21.534454 14.356316 0 1 0 181.84650,243.62378 A 21.534454 14.356316 0 1 0 224.91541 243.62378 z"
       sodipodi:cx="203.38095"
       sodipodi:cy="243.62378"
       sodipodi:rx="21.534454"
       sodipodi:ry="14.356316"
       transform="translate(252.7949,192.0562)" />
  </g>
</svg>
