<?xml version="1.0" encoding="UTF-8" standalone="no"?>
<!-- Created with Inkscape (http://www.inkscape.org/) -->
<svg
   xmlns:dc="http://purl.org/dc/elements/1.1/"
   xmlns:cc="http://web.resource.org/cc/"
   xmlns:rdf="http://www.w3.org/1999/02/22-rdf-syntax-ns#"
   xmlns:svg="http://www.w3.org/2000/svg"
   xmlns="http://www.w3.org/2000/svg"
   xmlns:xlink="http://www.w3.org/1999/xlink"
   xmlns:sodipodi="http://sodipodi.sourceforge.net/DTD/sodipodi-0.dtd"
   xmlns:inkscape="http://www.inkscape.org/namespaces/inkscape"
   id="svg1103"
   sodipodi:version="0.32"
   inkscape:version="0.45"
   width="800.00012"
   height="520"
   inkscape:export-filename="background.png"
   inkscape:export-xdpi="72.000000"
   inkscape:export-ydpi="72.000000"
   sodipodi:docname="background-melody.svg"
   sodipodi:docbase="/home/franck/Dessins/Vectoriels/Background"
   inkscape:output_extension="org.inkscape.output.svg.inkscape"
   sodipodi:modified="true"
   version="1.0">
  <defs
     id="defs1105">
    <linearGradient
       xlink:href="#linearGradient725"
       id="linearGradient724"
       x1="1.2382984e-10"
       y1="-4.049302e-08"
       x2="1"
       y2="-4.049302e-08" />
    <linearGradient
       xlink:href="#linearGradient725"
       id="linearGradient730"
       x1="-0.07450974"
       y1="0.0078124516"
       x2="1.0196079"
       y2="0.039062493" />
    <linearGradient
       xlink:href="#linearGradient725"
       id="linearGradient781"
       x1="-1.5656007e-10"
       y1="-5.6031084e-08"
       x2="1"
       y2="-5.6031084e-08" />
    <linearGradient
       xlink:href="#linearGradient725"
       id="linearGradient783"
       x1="0.44616416"
       y1="-2.7355819"
       x2="0.51939881"
       y2="2.785455" />
    <linearGradient
       id="linearGradient725">
      <stop
         style="stop-color:#e6b235;stop-opacity:1;"
         offset="0"
         id="stop726" />
      <stop
         style="stop-color:#622f00;stop-opacity:1;"
         offset="1"
         id="stop727" />
    </linearGradient>
    <linearGradient
       xlink:href="#linearGradient725"
       id="linearGradient778"
       x1="0.9930796"
       y1="3.1640278e-07"
       x2="0.0034601956"
       y2="1.0546763e-08" />
    <linearGradient
       xlink:href="#linearGradient701"
       id="linearGradient700"
       x1="-0.15577887"
       y1="0.5"
       x2="1.4472362"
       y2="0.5" />
    <linearGradient
       id="linearGradient701">
      <stop
         style="stop-color:#ffffff;stop-opacity:1;"
         offset="0"
         id="stop702" />
      <stop
         style="stop-color:#dfffff;stop-opacity:1;"
         offset="1"
         id="stop703" />
    </linearGradient>
    <linearGradient
       xlink:href="#linearGradient701"
       id="linearGradient704"
       x1="0.86294413"
       y1="0.453125"
       x2="-0.091370568"
       y2="0.453125" />
    <linearGradient
       inkscape:collect="always"
       xlink:href="#linearGradient701"
       id="linearGradient2195"
       x1="538.27618"
       y1="458.72711"
       x2="-77.238495"
       y2="458.72711"
       gradientTransform="scale(1.2403474,0.8062257)"
       gradientUnits="userSpaceOnUse" />
    <linearGradient
       inkscape:collect="always"
       xlink:href="#linearGradient701"
       id="linearGradient2197"
       x1="-108.20063"
       y1="490.18399"
       x2="901.32123"
       y2="490.18399"
       gradientTransform="scale(1.2434512,0.8042133)"
       gradientUnits="userSpaceOnUse" />
    <linearGradient
       inkscape:collect="always"
       xlink:href="#linearGradient725"
       id="linearGradient2199"
       x1="457.86871"
       y1="300.62946"
       x2="46.133675"
       y2="300.62933"
       gradientTransform="scale(1.4989937,0.6671142)"
       gradientUnits="userSpaceOnUse" />
    <linearGradient
       inkscape:collect="always"
       xlink:href="#linearGradient725"
       id="linearGradient2201"
       x1="81.093987"
       y1="810.0296"
       x2="89.097504"
       y2="1413.4012"
       gradientTransform="scale(5.1721478,0.1933433)"
       gradientUnits="userSpaceOnUse" />
    <linearGradient
       inkscape:collect="always"
       xlink:href="#linearGradient725"
       id="linearGradient2203"
       x1="54.49897"
       y1="618.82397"
       x2="287.89359"
       y2="618.82397"
       gradientTransform="scale(2.4011225,0.4164719)"
       gradientUnits="userSpaceOnUse" />
    <linearGradient
       inkscape:collect="always"
       xlink:href="#linearGradient725"
       id="linearGradient2205"
       x1="85.623772"
       y1="1309.1881"
       x2="96.343903"
       y2="2117.3611"
       gradientTransform="scale(4.0475777,0.2470614)"
       gradientUnits="userSpaceOnUse" />
    <linearGradient
       inkscape:collect="always"
       xlink:href="#linearGradient725"
       id="linearGradient2207"
       x1="22.162083"
       y1="1635.5084"
       x2="179.79375"
       y2="1635.5084"
       gradientTransform="scale(3.7352501,0.2677197)"
       gradientUnits="userSpaceOnUse" />
    <linearGradient
       inkscape:collect="always"
       xlink:href="#linearGradient725"
       id="linearGradient2209"
       x1="-10.793531"
       y1="267.82535"
       x2="506.52524"
       y2="282.60095"
       gradientTransform="scale(1.4286584,0.6999574)"
       gradientUnits="userSpaceOnUse" />
    <linearGradient
       inkscape:collect="always"
       xlink:href="#linearGradient725"
       id="linearGradient2211"
       x1="22.432333"
       y1="505.17221"
       x2="449.79419"
       y2="505.17221"
       gradientTransform="scale(1.579295,0.6331939)"
       gradientUnits="userSpaceOnUse" />
  </defs>
  <sodipodi:namedview
     id="base"
     pagecolor="#ffffff"
     bordercolor="#666666"
     borderopacity="1.0"
     inkscape:pageopacity="0.0"
     inkscape:pageshadow="2"
     inkscape:zoom="0.43415836"
     inkscape:cx="305.25953"
     inkscape:cy="305.77301"
     inkscape:window-width="822"
     inkscape:window-height="592"
     inkscape:window-x="9"
     inkscape:window-y="75"
     inkscape:current-layer="svg1103" />
  <metadata
     id="metadata1106">
    <rdf:RDF>
      <cc:Work
         rdf:about="">
        <dc:format>image/svg+xml</dc:format>
        <dc:type
           rdf:resource="http://purl.org/dc/dcmitype/StillImage" />
      </cc:Work>
    </rdf:RDF>
  </metadata>
  <g
     id="g2181"
     transform="matrix(0.799821,0,0,0.7999998,112.15101,-8.3663128)">
    <rect
       ry="0"
       y="11.326653"
       x="-139.48334"
       height="648.26263"
       width="998.75037"
       id="rect1182"
       style="fill:#000000;fill-opacity:1;fill-rule:evenodd;stroke:#000000;stroke-width:1.17874508pt;stroke-linecap:butt;stroke-linejoin:miter;stroke-opacity:1" />
    <g
       transform="matrix(1.25,0,0,1.25,-111.7257,-157.3078)"
       id="g819">
      <rect
         rx="16.242216"
         ry="16.242216"
         y="134.21255"
         x="-22.706085"
         height="520.00012"
         width="800.00024"
         id="rect695"
         style="font-size:12px;fill:url(#linearGradient2195);fill-rule:evenodd" />
      <rect
         rx="15.819446"
         ry="15.819445"
         y="140.98003"
         x="-12.554675"
         height="506.46494"
         width="783.0813"
         id="rect696"
         style="font-size:12px;fill:url(#linearGradient2197);fill-rule:evenodd" />
    </g>
    <g
       transform="translate(-5.35274,-58.6008)"
       id="g806">
      <path
         sodipodi:nodetypes="ccccsccssc"
         id="path777"
         d="M 184.2393,200.5541 C 164.3558,200.5541 124.4214,221.3468 124.4214,241.2303 L 66.99609,447.0043 C 66.99609,466.8877 73.43252,478.1096 100.4942,478.1096 L 148.3487,305.8338 C 155.8788,278.7253 166.0666,274.9138 183.022,268.7257 C 305.2568,288.8575 660.9886,350.4701 688.5049,353.6884 L 690.2994,339.93 C 693.294,316.9702 677.1139,292.657 657.9977,289.0848 L 184.2393,200.5541 z "
         style="font-size:12px;fill:url(#linearGradient2199);fill-rule:evenodd" />
      <path
         sodipodi:nodetypes="ccccc"
         id="path780"
         d="M 170.9338,219.7057 L 167.2389,235.5455 L 732.4819,225.7171 L 730.8287,214.4158 L 170.9338,219.7057 z "
         style="font-size:12px;fill:url(#linearGradient2201);fill-rule:evenodd"
         transform="matrix(0.98886,0.148846,-0.148846,0.98886,0,0)" />
      <path
         sodipodi:nodetypes="ccccc"
         id="path782"
         d="M 130.8587,257.7228 L 134.9986,278.0146 L 689.1357,354.9251 L 691.2678,331.5401 L 130.8587,257.7228 z "
         style="font-size:12px;fill:url(#linearGradient2203);fill-rule:evenodd" />
      <path
         sodipodi:nodetypes="ccccc"
         id="path784"
         d="M 86.99178,422.3821 L 82.22237,438.0008 L 671.4744,458.5471 L 674.7094,447.1382 L 86.99178,422.3821 z "
         style="font-size:12px;fill:url(#linearGradient2205);fill-rule:evenodd" />
      <path
         sodipodi:nodetypes="ccccc"
         id="path785"
         d="M 82.78092,437.8578 L 89.14845,457.661 L 671.0401,480.0589 L 671.5746,457.6593 L 82.78092,437.8578 z "
         style="font-size:12px;fill:url(#linearGradient2207);fill-rule:evenodd" />
      <path
         sodipodi:nodetypes="ccccccccccccccsscs"
         id="path775"
         d="M 203.1379,209.0133 C 155.7037,207.1832 134.3566,218.8815 124.6147,253.0544 L 75.2251,423.875 C 58.30513,472.404 77.24826,475.8207 111.1701,476.7457 L 599.9389,489.7476 C 661.7294,489.185 669.9139,474.0364 673.6766,445.7065 L 689.6592,342.4998 C 691.0295,306.9923 673.8679,293.405 636.0045,284.3967 L 203.1379,209.0133 z M 190.837,186.1697 C 140.7931,178.3482 106.4299,206.8864 94.02481,251.0812 L 36.08965,457.4839 C 26.51878,498.6014 76.86678,506.843 127.5182,506.843 L 627.796,515.8334 C 676.0547,515.8334 693.3546,494.1643 697.6901,454.5107 L 709.3954,347.4522 C 714.1998,303.5103 702.92,267.1956 653.0365,258.4081 L 190.837,186.1697 z "
         style="font-size:12px;fill:url(#linearGradient2209);fill-rule:evenodd" />
      <path
         sodipodi:nodetypes="cssssscsss"
         id="path723"
         d="M 91.36263,503.7758 C 62.91956,503.2175 41.32817,490.4498 35.42727,473.7322 L 67.67602,565.0947 C 73.63876,581.9875 97.13546,590.6115 115.0492,590.4733 L 644.7343,586.3887 C 708.5995,585.8962 708.79232,507.79762 709.309,445.77 L 710.3577,319.872 L 691.9874,466.8443 C 688.4747,494.9477 657.7037,514.8937 629.387,514.3378 L 91.36263,503.7758 z "
         style="font-size:12px;fill:url(#linearGradient2211);fill-opacity:1;fill-rule:evenodd" />
    </g>
  </g>
</svg>
