<?xml version="1.0" encoding="UTF-8" standalone="no"?>
<!-- Created with Inkscape (http://www.inkscape.org/) -->
<svg
   xmlns:dc="http://purl.org/dc/elements/1.1/"
   xmlns:cc="http://web.resource.org/cc/"
   xmlns:rdf="http://www.w3.org/1999/02/22-rdf-syntax-ns#"
   xmlns:svg="http://www.w3.org/2000/svg"
   xmlns="http://www.w3.org/2000/svg"
   xmlns:xlink="http://www.w3.org/1999/xlink"
   xmlns:sodipodi="http://sodipodi.sourceforge.net/DTD/sodipodi-0.dtd"
   xmlns:inkscape="http://www.inkscape.org/namespaces/inkscape"
   id="svg995"
   sodipodi:version="0.32"
   inkscape:version="0.45"
   width="173.64864"
   height="284.28857"
   sodipodi:docbase="/home/franck/Dessins/Vectoriels/Objets_divers"
   sodipodi:docname="son2.svg"
   inkscape:output_extension="org.inkscape.output.svg.inkscape"
   version="1.0"
   sodipodi:modified="true">
  <defs
     id="defs997">
    <linearGradient
       id="linearGradient697">
      <stop
         style="stop-color:#3f3f3f;stop-opacity:1;"
         offset="0"
         id="stop698" />
      <stop
         style="stop-color:#ffffff;stop-opacity:1;"
         offset="1"
         id="stop699" />
    </linearGradient>
    <radialGradient
       xlink:href="#linearGradient697"
       id="radialGradient764"
       cx="162.50676"
       cy="292.05585"
       r="12.380736"
       fx="162.50676"
       fy="292.05585"
       spreadMethod="reflect"
       gradientTransform="scale(1.2247443,0.8164969)"
       gradientUnits="userSpaceOnUse" />
    <linearGradient
       xlink:href="#linearGradient742"
       id="linearGradient757"
       x1="104.17807"
       y1="1100.9184"
       x2="153.74857"
       y2="1100.9184"
       gradientTransform="scale(2.33017,0.4291532)"
       gradientUnits="userSpaceOnUse" />
    <linearGradient
       id="linearGradient742">
      <stop
         style="stop-color:#754dff;stop-opacity:1;"
         offset="0"
         id="stop743" />
      <stop
         style="stop-color:#6a00ad;stop-opacity:1;"
         offset="1"
         id="stop744" />
    </linearGradient>
    <linearGradient
       xlink:href="#linearGradient742"
       id="linearGradient745"
       x1="312.88653"
       y1="162.68912"
       x2="530.0266"
       y2="162.68912"
       gradientTransform="scale(0.7766923,1.2875112)"
       gradientUnits="userSpaceOnUse" />
    <radialGradient
       inkscape:collect="always"
       xlink:href="#linearGradient697"
       id="radialGradient2170"
       spreadMethod="reflect"
       cx="162.50676"
       cy="292.05585"
       fx="162.50676"
       fy="292.05585"
       r="12.380736"
       gradientTransform="scale(1.2247443,0.8164969)"
       gradientUnits="userSpaceOnUse" />
  </defs>
  <sodipodi:namedview
     id="base"
     pagecolor="#ffffff"
     bordercolor="#666666"
     borderopacity="1.0"
     inkscape:pageopacity="0.0"
     inkscape:pageshadow="2"
     inkscape:zoom="0.84955975"
     inkscape:cx="70.640001"
     inkscape:cy="120.945"
     inkscape:window-width="822"
     inkscape:window-height="592"
     inkscape:window-x="9"
     inkscape:window-y="75"
     inkscape:current-layer="svg995" />
  <metadata
     id="metadata998">
    <rdf:RDF>
      <cc:Work
         rdf:about="">
        <dc:format>image/svg+xml</dc:format>
        <dc:type
           rdf:resource="http://purl.org/dc/dcmitype/StillImage" />
      </cc:Work>
    </rdf:RDF>
  </metadata>
  <g
     id="g791"
     transform="matrix(0.999804,1.981449e-2,-1.981449e-2,0.999804,-233.18162,-216.11578)"
     inkscape:export-xdpi="72.000000"
     inkscape:export-ydpi="72.000000">
    <path
       style="font-size:12px;fill:url(#linearGradient745);fill-opacity:1;fill-rule:evenodd"
       d="M 314.9763,212.4633 C 304.1814,217.3449 298.9611,228.9735 297.1758,236.354 L 244.2576,464.3249 C 241.3543,476.1401 243.0182,483.5354 254.9308,486.4149 C 275.8833,473.9367 317.6956,476.4219 336.7712,488.3267 C 348.684,491.2061 356.1401,485.1209 359.0434,473.3057 L 410.3602,249.2441 C 413.2633,237.4288 411.6997,231.5151 401.9225,223.8281 C 388.3577,212.0545 336.7648,205.1628 314.9763,212.4633 z "
       id="path741"
       sodipodi:nodetypes="cccccccsc" />
    <path
       style="font-size:12px;fill:url(#linearGradient757);fill-rule:evenodd"
       d="M 254.9793,483.8832 C 244.0501,486.482 242.7881,475.0006 242.7881,472.4627 L 242.7527,480.4993 C 242.7212,487.6561 251.1386,490.6507 255.7899,489.3817 C 289.1612,479.2305 309.3209,482.0841 333.8409,492.3427 C 343.0817,496.0319 354.0688,491.9197 355.0888,485.575 L 358.2603,474.5777 C 354.7365,486.844 342.6956,490.438 336.8371,487.6898 C 312.1102,475.8664 286.5765,474.7954 254.9793,483.8832 z "
       id="path760"
       sodipodi:nodetypes="ccscsccss" />
    <path
       sodipodi:type="arc"
       style="fill:url(#radialGradient2170);fill-opacity:1;fill-rule:evenodd;stroke:none;stroke-width:1pt;stroke-linecap:butt;stroke-linejoin:miter;stroke-opacity:1"
       id="path766"
       d="M 224.91541 243.62378 A 21.534454 14.356316 0 1 1  181.8465,243.62378 A 21.534454 14.356316 0 1 1  224.91541 243.62378 z"
       sodipodi:cx="203.38095"
       sodipodi:cy="243.62378"
       sodipodi:rx="21.534454"
       sodipodi:ry="14.356316"
       transform="translate(144.5129,9.330338)" />
    <path
       sodipodi:type="arc"
       style="fill:url(#radialGradient764);fill-opacity:1;fill-rule:evenodd;stroke:none;stroke-width:1pt;stroke-linecap:butt;stroke-linejoin:miter;stroke-opacity:1"
       id="path767"
       d="M 224.91541 243.62378 A 21.534454 14.356316 0 1 1  181.8465,243.62378 A 21.534454 14.356316 0 1 1  224.91541 243.62378 z"
       sodipodi:cx="203.38095"
       sodipodi:cy="243.62378"
       sodipodi:rx="21.534454"
       sodipodi:ry="14.356316"
       transform="translate(105.599,186.9806)" />
  </g>
</svg>
