<?xml version="1.0" encoding="UTF-8" standalone="no"?>
<!DOCTYPE svg PUBLIC "-//W3C//DTD SVG 1.0//EN"
"http://www.w3.org/TR/2001/REC-SVG-20010904/DTD/svg10.dtd">
<!-- Created with Inkscape (http://www.inkscape.org/) -->
<svg
   id="svg1041"
   sodipodi:version="0.32"
   inkscape:version="0.39"
   xmlns="http://www.w3.org/2000/svg"
   xmlns:sodipodi="http://sodipodi.sourceforge.net/DTD/sodipodi-0.dtd"
   xmlns:inkscape="http://www.inkscape.org/namespaces/inkscape"
   xmlns:xlink="http://www.w3.org/1999/xlink"
   xmlns:rdf="http://www.w3.org/1999/02/22-rdf-syntax-ns#"
   xmlns:cc="http://web.resource.org/cc/"
   xmlns:dc="http://purl.org/dc/elements/1.1/"
   width="118.28000pt"
   height="187.89000pt"
   sodipodi:docbase="/home/franck/Dessins/Vectoriels"
   sodipodi:docname="son4.svg">
  <defs
     id="defs1043">
    <linearGradient
       id="linearGradient697">
      <stop
         style="stop-color:#3f3f3f;stop-opacity:1;"
         offset="0"
         id="stop698" />
      <stop
         style="stop-color:#ffffff;stop-opacity:1;"
         offset="1"
         id="stop699" />
    </linearGradient>
    <radialGradient
       xlink:href="#linearGradient697"
       id="radialGradient764"
       cx="0.39895916"
       cy="0.32025081"
       r="0.3520692"
       fx="0.39895916"
       fy="0.32025081"
       spreadMethod="reflect" />
    <linearGradient
       xlink:href="#linearGradient752"
       id="linearGradient762"
       x1="-1.38174784e-7"
       y1="-4.79130449e-7"
       x2="0.99999988"
       y2="-4.79130449e-7" />
    <linearGradient
       id="linearGradient752">
      <stop
         style="stop-color:#ffff00;stop-opacity:1;"
         offset="0"
         id="stop753" />
      <stop
         style="stop-color:#ffc700;stop-opacity:1;"
         offset="1"
         id="stop754" />
    </linearGradient>
    <linearGradient
       xlink:href="#linearGradient752"
       id="linearGradient755"
       x1="-1.32276824e-7"
       y1="4.90853624e-9"
       x2="0.99999982"
       y2="4.90853624e-9" />
  </defs>
  <sodipodi:namedview
     id="base"
     pagecolor="#ffffff"
     bordercolor="#666666"
     borderopacity="1.0"
     inkscape:pageopacity="0.0"
     inkscape:pageshadow="2"
     inkscape:zoom="2.1530724"
     inkscape:cx="59.640001"
     inkscape:cy="95.445001"
     inkscape:window-width="640"
     inkscape:window-height="581"
     inkscape:window-x="150"
     inkscape:window-y="0" />
  <metadata
     id="metadata1044">
    <rdf:RDF
       id="RDF1045">
      <cc:Work
         rdf:about=""
         id="Work1046">
        <dc:format
           id="format1047">image/svg+xml</dc:format>
        <dc:type
           id="type1049"
           rdf:resource="http://purl.org/dc/dcmitype/StillImage" />
      </cc:Work>
    </rdf:RDF>
  </metadata>
  <g
     id="g801"
     transform="translate(-537.7381,-263.5218)">
    <path
       style="font-size:12.000000;fill:url(#linearGradient755);fill-opacity:1.0000000;fill-rule:evenodd;"
       d="M 595.79090,266.39740 C 585.24250,270.73820 580.37990,280.51590 578.80460,286.67980 L 539.79630,474.17320 C 537.22950,484.04190 539.06510,490.12340 550.91850,492.18210 C 571.31520,481.26860 612.72340,482.17990 631.89190,491.51960 C 643.74540,493.57820 650.96150,488.33180 653.52820,478.46320 L 684.54770,298.08020 C 687.11430,288.21140 685.41600,283.35460 675.55040,277.25430 C 661.83440,267.87200 617.14760,259.75090 595.79090,266.39740 z "
       id="path751"
       sodipodi:nodetypes="cccccccsc" />
    <path
       style="font-size:12.000000;fill:url(#linearGradient762);fill-rule:evenodd;"
       d="M 550.63940,488.11290 C 539.71020,490.71170 538.44820,479.23030 538.44820,476.69240 L 538.41280,484.72900 C 538.38130,491.88580 546.79870,494.88040 551.45000,493.61140 C 584.82130,483.46020 606.77550,485.71560 631.29550,495.97420 C 640.53630,499.66340 649.72890,496.14940 650.74890,489.80470 L 653.32220,478.80740 C 650.69560,491.07370 636.47610,491.78250 631.30080,489.82590 C 604.95820,479.75280 582.23660,479.02510 550.63940,488.11290 z "
       id="path761"
       sodipodi:nodetypes="ccscsccss" />
    <path
       sodipodi:type="arc"
       style="fill:url(#radialGradient764);fill-opacity:1.0000000;fill-rule:evenodd;stroke:none;stroke-width:1.0000000pt;stroke-linecap:butt;stroke-linejoin:miter;stroke-opacity:1.0000000;"
       id="path770"
       d="M 224.91541 243.62378 A 21.534454 14.356316 0 1 0 181.84650,243.62378 A 21.534454 14.356316 0 1 0 224.91541 243.62378 z"
       sodipodi:cx="203.38095"
       sodipodi:cy="243.62378"
       sodipodi:rx="21.534454"
       sodipodi:ry="14.356316"
       transform="translate(423.6774,56.70369)" />
    <path
       sodipodi:type="arc"
       style="fill:url(#radialGradient764);fill-opacity:1.0000000;fill-rule:evenodd;stroke:none;stroke-width:1.0000000pt;stroke-linecap:butt;stroke-linejoin:miter;stroke-opacity:1.0000000;"
       id="path771"
       d="M 224.91541 243.62378 A 21.534454 14.356316 0 1 0 181.84650,243.62378 A 21.534454 14.356316 0 1 0 224.91541 243.62378 z"
       sodipodi:cx="203.38095"
       sodipodi:cy="243.62378"
       sodipodi:rx="21.534454"
       sodipodi:ry="14.356316"
       transform="translate(399.9908,200.5158)" />
  </g>
</svg>
