<?xml version="1.0" encoding="UTF-8" standalone="no"?>
<!-- Created with Inkscape (http://www.inkscape.org/) -->

<svg
   xmlns:dc="http://purl.org/dc/elements/1.1/"
   xmlns:cc="http://creativecommons.org/ns#"
   xmlns:rdf="http://www.w3.org/1999/02/22-rdf-syntax-ns#"
   xmlns:svg="http://www.w3.org/2000/svg"
   xmlns="http://www.w3.org/2000/svg"
   xmlns:xlink="http://www.w3.org/1999/xlink"
   xmlns:sodipodi="http://sodipodi.sourceforge.net/DTD/sodipodi-0.dtd"
   xmlns:inkscape="http://www.inkscape.org/namespaces/inkscape"
   width="135.85332"
   height="91.911545"
   id="svg2"
   version="1.1"
   inkscape:version="0.48.0 r9654"
   sodipodi:docname="cat.svg">
  <defs
     id="defs4">
    <linearGradient
       id="linearGradient5420">
      <stop
         id="stop5422"
         offset="0"
         style="stop-color: rgb(0, 0, 0); stop-opacity: 1;" />
      <stop
         style="stop-color: rgb(0, 0, 0); stop-opacity: 0.906615;"
         offset="0.39844954"
         id="stop5424" />
      <stop
         id="stop5426"
         offset="1"
         style="stop-color: rgb(0, 0, 0); stop-opacity: 1;" />
    </linearGradient>
    <linearGradient
       inkscape:collect="always"
       id="linearGradient5379">
      <stop
         style="stop-color: rgb(0, 0, 0); stop-opacity: 1;"
         offset="0"
         id="stop5381" />
      <stop
         style="stop-color: rgb(0, 0, 0); stop-opacity: 0.486381;"
         offset="1"
         id="stop5383" />
    </linearGradient>
    <linearGradient
       id="linearGradient5371">
      <stop
         id="stop5373"
         offset="0"
         style="stop-color: rgb(0, 0, 0); stop-opacity: 1;" />
      <stop
         style="stop-color: rgb(0, 0, 0); stop-opacity: 0.793774;"
         offset="0.4527671"
         id="stop5375" />
      <stop
         id="stop5377"
         offset="1"
         style="stop-color: rgb(0, 0, 0); stop-opacity: 1;" />
    </linearGradient>
    <linearGradient
       id="linearGradient5355">
      <stop
         id="stop5357"
         offset="0"
         style="stop-color: rgb(0, 0, 0); stop-opacity: 1;" />
      <stop
         style="stop-color: rgb(0, 0, 0); stop-opacity: 0.754864;"
         offset="0.4527671"
         id="stop5359" />
      <stop
         id="stop5361"
         offset="1"
         style="stop-color: rgb(0, 0, 0); stop-opacity: 1;" />
    </linearGradient>
    <linearGradient
       id="linearGradient5330">
      <stop
         style="stop-color: rgb(0, 0, 0); stop-opacity: 1;"
         offset="0"
         id="stop5332" />
      <stop
         id="stop5334"
         offset="0.4527671"
         style="stop-color: rgb(0, 0, 0); stop-opacity: 0.396887;" />
      <stop
         style="stop-color: rgb(0, 0, 0); stop-opacity: 1;"
         offset="1"
         id="stop5336" />
    </linearGradient>
    <linearGradient
       id="linearGradient5322">
      <stop
         id="stop5324"
         offset="0"
         style="stop-color: rgb(0, 0, 0); stop-opacity: 0;" />
      <stop
         style="stop-color: rgb(0, 0, 0); stop-opacity: 0.498039;"
         offset="0.5"
         id="stop5326" />
      <stop
         id="stop5328"
         offset="1"
         style="stop-color: rgb(0, 0, 0); stop-opacity: 1;" />
    </linearGradient>
    <linearGradient
       id="linearGradient5280">
      <stop
         style="stop-color: rgb(0, 0, 0); stop-opacity: 1;"
         offset="0"
         id="stop5282" />
      <stop
         id="stop5296"
         offset="0.5"
         style="stop-color: rgb(0, 0, 0); stop-opacity: 0.498039;" />
      <stop
         style="stop-color: rgb(0, 0, 0); stop-opacity: 1;"
         offset="1"
         id="stop5284" />
    </linearGradient>
    <linearGradient
       id="linearGradient5272">
      <stop
         style="stop-color: rgb(0, 0, 0); stop-opacity: 1;"
         offset="0"
         id="stop5274" />
      <stop
         style="stop-color: rgb(0, 0, 0); stop-opacity: 0;"
         offset="1"
         id="stop5276" />
    </linearGradient>
    <linearGradient
       id="linearGradient4560">
      <stop
         id="stop4562"
         offset="0"
         style="stop-color: rgb(80, 22, 22); stop-opacity: 0.898833;" />
      <stop
         id="stop4564"
         offset="1"
         style="stop-color: rgb(145, 111, 111); stop-opacity: 0;" />
    </linearGradient>
    <linearGradient
       id="linearGradient4250"
       inkscape:collect="always">
      <stop
         id="stop4252"
         offset="0"
         style="stop-color: rgb(255, 255, 255); stop-opacity: 1;" />
      <stop
         id="stop4254"
         offset="1"
         style="stop-color: rgb(255, 255, 255); stop-opacity: 0;" />
    </linearGradient>
    <linearGradient
       id="linearGradient4042">
      <stop
         id="stop4044"
         offset="0"
         style="stop-color: rgb(129, 104, 104); stop-opacity: 1;" />
      <stop
         id="stop4046"
         offset="1"
         style="stop-color: rgb(255, 243, 243); stop-opacity: 1;" />
    </linearGradient>
    <linearGradient
       inkscape:collect="always"
       id="linearGradient4086">
      <stop
         style="stop-color: rgb(120, 33, 33); stop-opacity: 1;"
         offset="0"
         id="stop4088" />
      <stop
         style="stop-color: rgb(120, 33, 33); stop-opacity: 0;"
         offset="1"
         id="stop4090" />
    </linearGradient>
    <linearGradient
       inkscape:collect="always"
       id="linearGradient4078">
      <stop
         style="stop-color: rgb(120, 33, 33); stop-opacity: 1;"
         offset="0"
         id="stop4080" />
      <stop
         style="stop-color: rgb(120, 33, 33); stop-opacity: 0;"
         offset="1"
         id="stop4082" />
    </linearGradient>
    <linearGradient
       inkscape:collect="always"
       id="linearGradient6356">
      <stop
         style="stop-color: rgb(255, 255, 255); stop-opacity: 1;"
         offset="0"
         id="stop6358" />
      <stop
         style="stop-color: rgb(255, 255, 255); stop-opacity: 0;"
         offset="1"
         id="stop6360" />
    </linearGradient>
    <linearGradient
       inkscape:collect="always"
       id="linearGradient6348">
      <stop
         style="stop-color: rgb(255, 255, 255); stop-opacity: 1;"
         offset="0"
         id="stop6350" />
      <stop
         style="stop-color: rgb(255, 255, 255); stop-opacity: 0;"
         offset="1"
         id="stop6352" />
    </linearGradient>
    <linearGradient
       inkscape:collect="always"
       id="linearGradient6257">
      <stop
         style="stop-color: rgb(255, 128, 128); stop-opacity: 1;"
         offset="0"
         id="stop6259" />
      <stop
         style="stop-color: rgb(255, 128, 128); stop-opacity: 0;"
         offset="1"
         id="stop6261" />
    </linearGradient>
    <linearGradient
       id="linearGradient6241">
      <stop
         style="stop-color: rgb(0, 0, 0); stop-opacity: 0;"
         offset="0"
         id="stop6243" />
      <stop
         id="stop6247"
         offset="0.69867605"
         style="stop-color: rgb(211, 206, 206); stop-opacity: 0;" />
      <stop
         style="stop-color: rgb(255, 255, 255); stop-opacity: 1;"
         offset="1"
         id="stop6245" />
    </linearGradient>
    <linearGradient
       id="linearGradient5900">
      <stop
         style="stop-color: rgb(80, 22, 22); stop-opacity: 0.644991;"
         offset="0"
         id="stop5902" />
      <stop
         style="stop-color: rgb(255, 243, 243); stop-opacity: 1;"
         offset="1"
         id="stop5904" />
    </linearGradient>
    <linearGradient
       id="linearGradient5880">
      <stop
         style="stop-color: rgb(145, 111, 111); stop-opacity: 1;"
         offset="0"
         id="stop5882" />
      <stop
         style="stop-color: rgb(255, 248, 248); stop-opacity: 0;"
         offset="1"
         id="stop5884" />
    </linearGradient>
    <linearGradient
       id="linearGradient5832">
      <stop
         id="stop5834"
         offset="0"
         style="stop-color: rgb(255, 253, 253); stop-opacity: 0.817121;" />
      <stop
         id="stop5836"
         offset="1"
         style="stop-color: rgb(0, 0, 0); stop-opacity: 0;" />
    </linearGradient>
    <linearGradient
       id="linearGradient5816">
      <stop
         style="stop-color: rgb(255, 253, 253); stop-opacity: 0.817121;"
         offset="0"
         id="stop5818" />
      <stop
         style="stop-color: rgb(0, 0, 0); stop-opacity: 0;"
         offset="1"
         id="stop5820" />
    </linearGradient>
    <linearGradient
       id="linearGradient5668">
      <stop
         style="stop-color: rgb(36, 28, 28); stop-opacity: 0;"
         offset="0"
         id="stop5670" />
      <stop
         style="stop-color: rgb(145, 111, 111); stop-opacity: 0.0972763;"
         offset="1"
         id="stop5672" />
    </linearGradient>
    <linearGradient
       id="linearGradient5650">
      <stop
         id="stop5652"
         offset="0"
         style="stop-color: rgb(200, 183, 183); stop-opacity: 1;" />
      <stop
         style="stop-color: rgb(200, 183, 183); stop-opacity: 0.498039;"
         offset="0.41793755"
         id="stop5654" />
      <stop
         id="stop5656"
         offset="1"
         style="stop-color: rgb(68, 8, 8); stop-opacity: 0.439367;" />
    </linearGradient>
    <linearGradient
       id="linearGradient5546">
      <stop
         id="stop5548"
         offset="0"
         style="stop-color: rgb(80, 22, 22); stop-opacity: 0.644991;" />
      <stop
         id="stop5550"
         offset="1"
         style="stop-color: rgb(142, 113, 113); stop-opacity: 0.0972763;" />
    </linearGradient>
    <linearGradient
       id="linearGradient5456">
      <stop
         style="stop-color: rgb(200, 183, 183); stop-opacity: 1;"
         offset="0"
         id="stop5458" />
      <stop
         id="stop5460"
         offset="0.31417689"
         style="stop-color: rgb(200, 183, 183); stop-opacity: 0.498039;" />
      <stop
         style="stop-color: rgb(68, 8, 8); stop-opacity: 0.439367;"
         offset="1"
         id="stop5462" />
    </linearGradient>
    <linearGradient
       id="linearGradient5425">
      <stop
         style="stop-color: rgb(25, 69, 25); stop-opacity: 1;"
         offset="0"
         id="stop5427" />
      <stop
         id="stop5433"
         offset="0.5"
         style="stop-color: rgb(43, 98, 12); stop-opacity: 1;" />
      <stop
         style="stop-color: rgb(84, 128, 0); stop-opacity: 1;"
         offset="1"
         id="stop5429" />
    </linearGradient>
    <linearGradient
       id="linearGradient5417">
      <stop
         id="stop5419"
         offset="0"
         style="stop-color: rgb(200, 183, 183); stop-opacity: 1;" />
      <stop
         style="stop-color: rgb(200, 183, 183); stop-opacity: 0.498039;"
         offset="0.38761452"
         id="stop5421" />
      <stop
         id="stop5423"
         offset="1"
         style="stop-color: rgb(68, 8, 8); stop-opacity: 0.439367;" />
    </linearGradient>
    <linearGradient
       id="linearGradient5344">
      <stop
         style="stop-color: rgb(172, 147, 147); stop-opacity: 0.274165;"
         offset="0"
         id="stop5346" />
      <stop
         id="stop5352"
         offset="0.3911953"
         style="stop-color: rgb(144, 111, 111); stop-opacity: 0.792619;" />
      <stop
         style="stop-color: rgb(117, 76, 76); stop-opacity: 1;"
         offset="1"
         id="stop5348" />
    </linearGradient>
    <linearGradient
       id="linearGradient4408">
      <stop
         style="stop-color: rgb(200, 183, 183); stop-opacity: 1;"
         offset="0"
         id="stop4410" />
      <stop
         id="stop4420"
         offset="0.41484532"
         style="stop-color: rgb(200, 183, 183); stop-opacity: 0.498039;" />
      <stop
         style="stop-color: rgb(68, 8, 8); stop-opacity: 0.439367;"
         offset="1"
         id="stop4412" />
    </linearGradient>
    <linearGradient
       id="linearGradient4402">
      <stop
         style="stop-color: rgb(80, 22, 22); stop-opacity: 0.644991;"
         offset="0"
         id="stop4404" />
      <stop
         style="stop-color: rgb(145, 111, 111); stop-opacity: 0;"
         offset="1"
         id="stop4406" />
    </linearGradient>
    <linearGradient
       id="linearGradient4392">
      <stop
         style="stop-color: rgb(67, 16, 16); stop-opacity: 0.692607;"
         offset="0"
         id="stop4394" />
      <stop
         id="stop4400"
         offset="0.6495738"
         style="stop-color: rgb(161, 135, 135); stop-opacity: 0.472759;" />
      <stop
         style="stop-color: rgb(255, 255, 255); stop-opacity: 0;"
         offset="1"
         id="stop4396" />
    </linearGradient>
    <filter
       inkscape:collect="always"
       id="filter4450"
       color-interpolation-filters="sRGB">
      <feGaussianBlur
         inkscape:collect="always"
         stdDeviation="3.1129881"
         id="feGaussianBlur4452" />
    </filter>
    <filter
       inkscape:collect="always"
       id="filter5552"
       color-interpolation-filters="sRGB">
      <feGaussianBlur
         inkscape:collect="always"
         stdDeviation="1.6913367"
         id="feGaussianBlur5554" />
    </filter>
    <filter
       inkscape:collect="always"
       id="filter5876"
       color-interpolation-filters="sRGB">
      <feGaussianBlur
         inkscape:collect="always"
         stdDeviation="7.0132683"
         id="feGaussianBlur5878" />
    </filter>
    <linearGradient
       inkscape:collect="always"
       xlink:href="#linearGradient5900"
       id="linearGradient6081"
       gradientUnits="userSpaceOnUse"
       gradientTransform="translate(231.429, 558.571)"
       x1="244.85619"
       y1="379.38571"
       x2="248.03873"
       y2="577.95715" />
    <radialGradient
       inkscape:collect="always"
       xlink:href="#linearGradient4408"
       id="radialGradient6085"
       gradientUnits="userSpaceOnUse"
       gradientTransform="matrix(0.798622, -0.046476, 0.0360895, 0.642013, 78.629, 257.786)"
       cx="183.73367"
       cy="498.98627"
       fx="183.73367"
       fy="498.98627"
       r="55.048241" />
    <radialGradient
       inkscape:collect="always"
       xlink:href="#linearGradient5425"
       id="radialGradient6087"
       gradientUnits="userSpaceOnUse"
       gradientTransform="matrix(0.876616, 0, 0, 0.709938, 87.1892, 210.891)"
       cx="102.31957"
       cy="341.84509"
       fx="102.31957"
       fy="341.84509"
       r="42.602184" />
    <radialGradient
       inkscape:collect="always"
       xlink:href="#linearGradient5425"
       id="radialGradient6089"
       gradientUnits="userSpaceOnUse"
       gradientTransform="matrix(0.832971, 0, 0, 0.674873, 88.0964, 220.911)"
       cx="264.14078"
       cy="327.7616"
       fx="264.14078"
       fy="327.7616"
       r="44.533203" />
    <linearGradient
       inkscape:collect="always"
       xlink:href="#linearGradient5344"
       id="linearGradient6091"
       gradientUnits="userSpaceOnUse"
       gradientTransform="matrix(0.800634, 0, 0, 0.814628, 94.9629, 175.107)"
       spreadMethod="reflect"
       x1="178.8042"
       y1="369.94928"
       x2="215.94055"
       y2="369.94925" />
    <linearGradient
       inkscape:collect="always"
       xlink:href="#linearGradient5816"
       id="linearGradient6093"
       gradientUnits="userSpaceOnUse"
       gradientTransform="matrix(1.07527, 0, 0, 0.921664, -16.8312, 44.2768)"
       x1="359.74289"
       y1="644.6792"
       x2="212.13286"
       y2="665.30988" />
    <linearGradient
       inkscape:collect="always"
       xlink:href="#linearGradient5832"
       id="linearGradient6095"
       gradientUnits="userSpaceOnUse"
       gradientTransform="matrix(1.07527, 0, 0, 0.921664, -16.8312, 44.2768)"
       x1="359.74289"
       y1="644.6792"
       x2="212.13286"
       y2="665.30988" />
    <radialGradient
       inkscape:collect="always"
       xlink:href="#linearGradient5650"
       id="radialGradient6097"
       gradientUnits="userSpaceOnUse"
       gradientTransform="matrix(1.36758, -0.0833574, 0.0424568, 0.696557, -85.9428, 145.249)"
       cx="183.87425"
       cy="438.80008"
       fx="183.87425"
       fy="438.80008"
       r="100.20852" />
    <linearGradient
       inkscape:collect="always"
       xlink:href="#linearGradient5456"
       id="linearGradient6099"
       gradientUnits="userSpaceOnUse"
       x1="71.26078"
       y1="218.35913"
       x2="7.0521426"
       y2="226.44035" />
    <linearGradient
       inkscape:collect="always"
       xlink:href="#linearGradient4402"
       id="linearGradient6101"
       gradientUnits="userSpaceOnUse"
       gradientTransform="matrix(1, 0, 0, 2.47431, 0, -580.57)"
       x1="-224.85715"
       y1="402.52972"
       x2="-226"
       y2="475.35431" />
    <linearGradient
       inkscape:collect="always"
       xlink:href="#linearGradient5546"
       id="linearGradient6103"
       gradientUnits="userSpaceOnUse"
       gradientTransform="matrix(1.1009, 0, 0, 1, -19.9789, -14.2857)"
       x1="233.29645"
       y1="380.94595"
       x2="233.53377"
       y2="446.66025" />
    <linearGradient
       inkscape:collect="always"
       xlink:href="#linearGradient5546"
       id="linearGradient6105"
       gradientUnits="userSpaceOnUse"
       x1="-413.0061"
       y1="360.66418"
       x2="-707.08044"
       y2="467.84494" />
    <linearGradient
       inkscape:collect="always"
       xlink:href="#linearGradient5456"
       id="linearGradient6144"
       gradientUnits="userSpaceOnUse"
       gradientTransform="matrix(1.17532, 0, 0, 0.837054, -23.7053, 156.585)"
       x1="338.55789"
       y1="241.62254"
       x2="287.56348"
       y2="236.26431" />
    <linearGradient
       inkscape:collect="always"
       xlink:href="#linearGradient6241"
       id="linearGradient6239"
       x1="165.69444"
       y1="440.33987"
       x2="166.66046"
       y2="484.99857"
       gradientUnits="userSpaceOnUse" />
    <linearGradient
       inkscape:collect="always"
       xlink:href="#linearGradient6257"
       id="linearGradient6263"
       x1="239.10837"
       y1="499.03177"
       x2="240.62418"
       y2="535.1861"
       gradientUnits="userSpaceOnUse" />
    <linearGradient
       inkscape:collect="always"
       xlink:href="#linearGradient6348"
       id="linearGradient6354"
       x1="99.813812"
       y1="437.66907"
       x2="109.91686"
       y2="437.66907"
       gradientUnits="userSpaceOnUse" />
    <linearGradient
       inkscape:collect="always"
       xlink:href="#linearGradient6356"
       id="linearGradient6362"
       x1="101.60064"
       y1="442.98874"
       x2="109.95731"
       y2="442.98874"
       gradientUnits="userSpaceOnUse" />
    <linearGradient
       inkscape:collect="always"
       xlink:href="#linearGradient5546"
       id="linearGradient6399"
       gradientUnits="userSpaceOnUse"
       gradientTransform="matrix(0.976294, 0, 0, 0.949961, -63.9658, 0.697471)"
       x1="233.29645"
       y1="380.94595"
       x2="233.53377"
       y2="446.66025" />
    <linearGradient
       inkscape:collect="always"
       xlink:href="#linearGradient6257"
       id="linearGradient6403"
       gradientUnits="userSpaceOnUse"
       x1="239.10837"
       y1="499.03177"
       x2="240.62418"
       y2="535.1861"
       gradientTransform="matrix(0.886814, 0, 0, 0.949961, -46.2482, 14.2683)" />
    <radialGradient
       inkscape:collect="always"
       xlink:href="#linearGradient5425"
       id="radialGradient6414"
       gradientUnits="userSpaceOnUse"
       gradientTransform="matrix(0.73869, 0, 0, 0.641102, 31.8769, 224.126)"
       cx="264.14078"
       cy="327.7616"
       fx="264.14078"
       fy="327.7616"
       r="44.533203" />
    <radialGradient
       inkscape:collect="always"
       xlink:href="#linearGradient5425"
       id="radialGradient6417"
       gradientUnits="userSpaceOnUse"
       gradientTransform="matrix(0.777395, 0, 0, 0.674414, 31.0724, 214.606)"
       cx="102.31957"
       cy="341.84509"
       fx="102.31957"
       fy="341.84509"
       r="42.602184" />
    <radialGradient
       inkscape:collect="always"
       xlink:href="#linearGradient4408"
       id="radialGradient6420"
       gradientUnits="userSpaceOnUse"
       gradientTransform="matrix(0.708229, -0.0441503, 0.0320047, 0.609887, 24.4912, 262.185)"
       cx="183.73367"
       cy="498.98627"
       fx="183.73367"
       fy="498.98627"
       r="55.048241" />
    <linearGradient
       inkscape:collect="always"
       xlink:href="#linearGradient5456"
       id="linearGradient6423"
       gradientUnits="userSpaceOnUse"
       gradientTransform="matrix(1.04229, 0, 0, 0.795168, -67.2705, 163.018)"
       x1="338.55789"
       y1="241.62254"
       x2="287.56348"
       y2="236.26431" />
    <linearGradient
       inkscape:collect="always"
       xlink:href="#linearGradient5546"
       id="linearGradient6429"
       gradientUnits="userSpaceOnUse"
       x1="-413.0061"
       y1="360.66418"
       x2="-707.08044"
       y2="467.84494" />
    <linearGradient
       inkscape:collect="always"
       xlink:href="#linearGradient5546"
       id="linearGradient6432"
       gradientUnits="userSpaceOnUse"
       x1="-413.0061"
       y1="360.66418"
       x2="-707.08044"
       y2="467.84494" />
    <linearGradient
       inkscape:collect="always"
       xlink:href="#linearGradient5546"
       id="linearGradient6435"
       gradientUnits="userSpaceOnUse"
       x1="-413.0061"
       y1="360.66418"
       x2="-707.08044"
       y2="467.84494" />
    <linearGradient
       inkscape:collect="always"
       xlink:href="#linearGradient5546"
       id="linearGradient6438"
       gradientUnits="userSpaceOnUse"
       x1="-413.0061"
       y1="360.66418"
       x2="-707.08044"
       y2="467.84494" />
    <linearGradient
       inkscape:collect="always"
       xlink:href="#linearGradient5546"
       id="linearGradient6441"
       gradientUnits="userSpaceOnUse"
       x1="-413.0061"
       y1="360.66418"
       x2="-707.08044"
       y2="467.84494" />
    <linearGradient
       inkscape:collect="always"
       xlink:href="#linearGradient5546"
       id="linearGradient6444"
       gradientUnits="userSpaceOnUse"
       x1="-413.0061"
       y1="360.66418"
       x2="-707.08044"
       y2="467.84494" />
    <linearGradient
       inkscape:collect="always"
       xlink:href="#linearGradient5546"
       id="linearGradient6447"
       gradientUnits="userSpaceOnUse"
       x1="-413.0061"
       y1="360.66418"
       x2="-707.08044"
       y2="467.84494" />
    <linearGradient
       inkscape:collect="always"
       xlink:href="#linearGradient5546"
       id="linearGradient6450"
       gradientUnits="userSpaceOnUse"
       x1="-413.0061"
       y1="360.66418"
       x2="-707.08044"
       y2="467.84494" />
    <linearGradient
       inkscape:collect="always"
       xlink:href="#linearGradient5546"
       id="linearGradient6453"
       gradientUnits="userSpaceOnUse"
       x1="-413.0061"
       y1="360.66418"
       x2="-707.08044"
       y2="467.84494" />
    <linearGradient
       inkscape:collect="always"
       xlink:href="#linearGradient5546"
       id="linearGradient6456"
       gradientUnits="userSpaceOnUse"
       x1="-413.0061"
       y1="360.66418"
       x2="-707.08044"
       y2="467.84494" />
    <radialGradient
       inkscape:collect="always"
       xlink:href="#linearGradient5650"
       id="radialGradient6458"
       gradientUnits="userSpaceOnUse"
       gradientTransform="matrix(1.36758, -0.0833574, 0.0424568, 0.696557, -85.9428, 145.249)"
       cx="183.87425"
       cy="438.80008"
       fx="183.87425"
       fy="438.80008"
       r="100.20852" />
    <linearGradient
       inkscape:collect="always"
       xlink:href="#linearGradient5900"
       id="linearGradient6460"
       gradientUnits="userSpaceOnUse"
       gradientTransform="translate(231.429, 558.571)"
       x1="244.85619"
       y1="379.38571"
       x2="248.03873"
       y2="577.95715" />
    <radialGradient
       inkscape:collect="always"
       xlink:href="#linearGradient4408"
       id="radialGradient6464"
       gradientUnits="userSpaceOnUse"
       gradientTransform="matrix(0.726943, -0.0451869, 0.0328504, 0.624206, 21.5453, 255.024)"
       cx="183.73367"
       cy="498.98627"
       fx="183.73367"
       fy="498.98627"
       r="55.048241" />
    <linearGradient
       inkscape:collect="always"
       xlink:href="#linearGradient5900"
       id="linearGradient6524"
       gradientUnits="userSpaceOnUse"
       gradientTransform="translate(231.429, 558.571)"
       x1="244.85619"
       y1="379.38571"
       x2="248.03873"
       y2="577.95715" />
    <radialGradient
       inkscape:collect="always"
       xlink:href="#linearGradient4408"
       id="radialGradient6526"
       gradientUnits="userSpaceOnUse"
       gradientTransform="matrix(0.726943, -0.0451869, 0.0328504, 0.624206, 21.5453, 255.024)"
       cx="183.73367"
       cy="498.98627"
       fx="183.73367"
       fy="498.98627"
       r="55.048241" />
    <linearGradient
       inkscape:collect="always"
       xlink:href="#linearGradient5456"
       id="linearGradient6528"
       gradientUnits="userSpaceOnUse"
       gradientTransform="matrix(1.04229, 0, 0, 0.795168, -67.2705, 163.018)"
       x1="338.55789"
       y1="241.62254"
       x2="287.56348"
       y2="236.26431" />
    <radialGradient
       inkscape:collect="always"
       xlink:href="#linearGradient5425"
       id="radialGradient6530"
       gradientUnits="userSpaceOnUse"
       gradientTransform="matrix(0.777395, 0, 0, 0.674414, 31.0724, 214.606)"
       cx="102.31957"
       cy="341.84509"
       fx="102.31957"
       fy="341.84509"
       r="42.602184" />
    <radialGradient
       inkscape:collect="always"
       xlink:href="#linearGradient5425"
       id="radialGradient6532"
       gradientUnits="userSpaceOnUse"
       gradientTransform="matrix(0.73869, 0, 0, 0.641102, 31.8769, 224.126)"
       cx="264.14078"
       cy="327.7616"
       fx="264.14078"
       fy="327.7616"
       r="44.533203" />
    <linearGradient
       inkscape:collect="always"
       xlink:href="#linearGradient5344"
       id="linearGradient6534"
       gradientUnits="userSpaceOnUse"
       gradientTransform="matrix(0.800634, 0, 0, 0.814628, 94.9629, 175.107)"
       spreadMethod="reflect"
       x1="178.8042"
       y1="369.94928"
       x2="215.94055"
       y2="369.94925" />
    <radialGradient
       inkscape:collect="always"
       xlink:href="#linearGradient5650"
       id="radialGradient6536"
       gradientUnits="userSpaceOnUse"
       gradientTransform="matrix(1.36758, -0.0833574, 0.0424568, 0.696557, -85.9428, 145.249)"
       cx="183.87425"
       cy="438.80008"
       fx="183.87425"
       fy="438.80008"
       r="100.20852" />
    <linearGradient
       inkscape:collect="always"
       xlink:href="#linearGradient5816"
       id="linearGradient6538"
       gradientUnits="userSpaceOnUse"
       gradientTransform="matrix(1.07527, 0, 0, 0.921664, -16.8312, 44.2768)"
       x1="359.74289"
       y1="644.6792"
       x2="212.13286"
       y2="665.30988" />
    <linearGradient
       inkscape:collect="always"
       xlink:href="#linearGradient5832"
       id="linearGradient6540"
       gradientUnits="userSpaceOnUse"
       gradientTransform="matrix(1.07527, 0, 0, 0.921664, -16.8312, 44.2768)"
       x1="359.74289"
       y1="644.6792"
       x2="212.13286"
       y2="665.30988" />
    <linearGradient
       inkscape:collect="always"
       xlink:href="#linearGradient5456"
       id="linearGradient6542"
       gradientUnits="userSpaceOnUse"
       x1="71.26078"
       y1="218.35913"
       x2="7.0521426"
       y2="226.44035" />
    <linearGradient
       inkscape:collect="always"
       xlink:href="#linearGradient6257"
       id="linearGradient6544"
       gradientUnits="userSpaceOnUse"
       gradientTransform="matrix(0.886814, 0, 0, 0.949961, -46.2482, 14.2683)"
       x1="239.10837"
       y1="499.03177"
       x2="240.62418"
       y2="535.1861" />
    <linearGradient
       inkscape:collect="always"
       xlink:href="#linearGradient4402"
       id="linearGradient6546"
       gradientUnits="userSpaceOnUse"
       gradientTransform="matrix(1, 0, 0, 2.47431, 0, -580.57)"
       x1="-224.85715"
       y1="402.52972"
       x2="-226"
       y2="475.35431" />
    <linearGradient
       inkscape:collect="always"
       xlink:href="#linearGradient5546"
       id="linearGradient6548"
       gradientUnits="userSpaceOnUse"
       gradientTransform="matrix(0.976294, 0, 0, 0.949961, -63.9658, 0.697471)"
       x1="233.29645"
       y1="380.94595"
       x2="233.53377"
       y2="446.66025" />
    <linearGradient
       inkscape:collect="always"
       xlink:href="#linearGradient5546"
       id="linearGradient6550"
       gradientUnits="userSpaceOnUse"
       x1="-413.0061"
       y1="360.66418"
       x2="-707.08044"
       y2="467.84494" />
    <linearGradient
       inkscape:collect="always"
       xlink:href="#linearGradient6241"
       id="linearGradient6552"
       gradientUnits="userSpaceOnUse"
       x1="165.69444"
       y1="440.33987"
       x2="166.66046"
       y2="484.99857" />
    <linearGradient
       inkscape:collect="always"
       xlink:href="#linearGradient6356"
       id="linearGradient6554"
       gradientUnits="userSpaceOnUse"
       x1="101.60064"
       y1="442.98874"
       x2="109.95731"
       y2="442.98874" />
    <linearGradient
       inkscape:collect="always"
       xlink:href="#linearGradient6348"
       id="linearGradient6556"
       gradientUnits="userSpaceOnUse"
       x1="99.813812"
       y1="437.66907"
       x2="109.91686"
       y2="437.66907" />
    <linearGradient
       inkscape:collect="always"
       xlink:href="#linearGradient5546"
       id="linearGradient6664"
       gradientUnits="userSpaceOnUse"
       x1="-413.0061"
       y1="360.66418"
       x2="-707.08044"
       y2="467.84494" />
    <linearGradient
       inkscape:collect="always"
       xlink:href="#linearGradient4402"
       id="linearGradient6666"
       gradientUnits="userSpaceOnUse"
       gradientTransform="matrix(1, 0, 0, 2.47431, 0, -580.57)"
       x1="-224.85715"
       y1="402.52972"
       x2="-226"
       y2="475.35431" />
    <linearGradient
       inkscape:collect="always"
       xlink:href="#linearGradient5816"
       id="linearGradient6670"
       gradientUnits="userSpaceOnUse"
       gradientTransform="matrix(1.07527, 0, 0, 0.921664, -16.8312, 44.2768)"
       x1="359.74289"
       y1="644.6792"
       x2="212.13286"
       y2="665.30988" />
    <linearGradient
       inkscape:collect="always"
       xlink:href="#linearGradient5832"
       id="linearGradient6672"
       gradientUnits="userSpaceOnUse"
       gradientTransform="matrix(1.07527, 0, 0, 0.921664, -16.8312, 44.2768)"
       x1="359.74289"
       y1="644.6792"
       x2="212.13286"
       y2="665.30988" />
    <linearGradient
       inkscape:collect="always"
       xlink:href="#linearGradient6356"
       id="linearGradient4318"
       gradientUnits="userSpaceOnUse"
       gradientTransform="matrix(0.468516, 0, 0, 0.447015, -212.423, 167.574)"
       x1="-6.060915"
       y1="493.04184"
       x2="-11.111678"
       y2="463.74744" />
    <linearGradient
       inkscape:collect="always"
       xlink:href="#linearGradient6348"
       id="linearGradient4327"
       gradientUnits="userSpaceOnUse"
       gradientTransform="matrix(0.469941, 0, 0, 0.454244, -95.1902, -44.8858)"
       x1="-254.55336"
       y1="914.52081"
       x2="-305.70248"
       y2="913.51062" />
    <linearGradient
       inkscape:collect="always"
       xlink:href="#linearGradient6356"
       id="linearGradient4330"
       gradientUnits="userSpaceOnUse"
       gradientTransform="matrix(0.469941, 0, 0, 0.454244, -94.2284, -44.8858)"
       x1="-265.91757"
       y1="915.53094"
       x2="-215.7989"
       y2="914.77332" />
    <linearGradient
       inkscape:collect="always"
       xlink:href="#linearGradient5456"
       id="linearGradient4334"
       gradientUnits="userSpaceOnUse"
       gradientTransform="matrix(0.358009, 0, 0, 0.390496, -114.206, 11.9572)"
       x1="-224.75388"
       y1="868.65283"
       x2="-181.38091"
       y2="868.65283" />
    <linearGradient
       inkscape:collect="always"
       xlink:href="#linearGradient5456"
       id="linearGradient4340"
       gradientUnits="userSpaceOnUse"
       gradientTransform="matrix(0.46079, 0, 0, 0.33297, -98.6929, 63.8368)"
       x1="-294.04889"
       y1="883.09576"
       x2="-339.3494"
       y2="877.79248" />
    <linearGradient
       inkscape:collect="always"
       xlink:href="#linearGradient5900"
       id="linearGradient4344"
       gradientUnits="userSpaceOnUse"
       gradientTransform="matrix(0.48087, 0, 0, 0.454244, -91.8603, -44.8858)"
       x1="-265.67014"
       y1="796.54108"
       x2="-262.89221"
       y2="887.95984" />
    <linearGradient
       inkscape:collect="always"
       xlink:href="#linearGradient4078"
       id="linearGradient4347"
       gradientUnits="userSpaceOnUse"
       gradientTransform="matrix(0.48087, 0, 0, 0.454244, -91.8603, -44.8858)"
       x1="-206.57112"
       y1="804.87482"
       x2="-163.22552"
       y2="804.87482" />
    <linearGradient
       inkscape:collect="always"
       xlink:href="#linearGradient4086"
       id="linearGradient4350"
       gradientUnits="userSpaceOnUse"
       gradientTransform="matrix(0.48087, 0, 0, 0.454244, -91.8603, -44.8858)"
       x1="-314.40488"
       y1="798.44916"
       x2="-344.48508"
       y2="804.00494" />
    <radialGradient
       inkscape:collect="always"
       xlink:href="#linearGradient5425"
       id="radialGradient4403"
       gradientUnits="userSpaceOnUse"
       gradientTransform="matrix(-0.688856, 0.185517, 0.100338, 0.385131, -492.038, 70.461)"
       cx="-301.01501"
       cy="862.04047"
       fx="-301.01501"
       fy="862.04047"
       r="18.672283" />
    <radialGradient
       inkscape:collect="always"
       xlink:href="#linearGradient5425"
       id="radialGradient4418"
       gradientUnits="userSpaceOnUse"
       gradientTransform="matrix(-0.688856, 0.185517, 0.100338, 0.385131, -492.038, 70.461)"
       cx="-301.01501"
       cy="862.04047"
       fx="-301.01501"
       fy="862.04047"
       r="18.672283" />
    <filter
       inkscape:collect="always"
       id="filter4246"
       color-interpolation-filters="sRGB">
      <feGaussianBlur
         inkscape:collect="always"
         stdDeviation="0.29609964"
         id="feGaussianBlur4248" />
    </filter>
    <linearGradient
       inkscape:collect="always"
       xlink:href="#linearGradient4402"
       id="linearGradient5500"
       gradientUnits="userSpaceOnUse"
       gradientTransform="matrix(1,0,0,2.47431,0,-580.57)"
       x1="-224.85715"
       y1="402.52972"
       x2="-235.50763"
       y2="525.37927" />
    <linearGradient
       inkscape:collect="always"
       xlink:href="#linearGradient5816"
       id="linearGradient5506"
       gradientUnits="userSpaceOnUse"
       gradientTransform="matrix(1.07527,0,0,0.921664,-16.8312,44.2768)"
       x1="359.74289"
       y1="644.6792"
       x2="212.13286"
       y2="665.30988" />
    <linearGradient
       inkscape:collect="always"
       xlink:href="#linearGradient5832"
       id="linearGradient5508"
       gradientUnits="userSpaceOnUse"
       gradientTransform="matrix(1.07527,0,0,0.921664,-16.8312,44.2768)"
       x1="359.74289"
       y1="644.6792"
       x2="212.13286"
       y2="665.30988" />
    <linearGradient
       inkscape:collect="always"
       xlink:href="#linearGradient5546"
       id="linearGradient5538"
       gradientUnits="userSpaceOnUse"
       x1="-389.17096"
       y1="353.83209"
       x2="-707.08044"
       y2="467.84494" />
    <linearGradient
       inkscape:collect="always"
       xlink:href="#linearGradient4560"
       id="linearGradient5540"
       gradientUnits="userSpaceOnUse"
       gradientTransform="matrix(1,0,0,2.47431,0,-580.57)"
       x1="-226.6933"
       y1="404.95471"
       x2="-226"
       y2="475.35431" />
    <linearGradient
       inkscape:collect="always"
       xlink:href="#linearGradient4250"
       id="linearGradient5544"
       gradientUnits="userSpaceOnUse"
       x1="-312.52219"
       y1="465.03296"
       x2="-311.23737"
       y2="435.26855" />
    <linearGradient
       inkscape:collect="always"
       xlink:href="#linearGradient5330"
       id="linearGradient5548"
       gradientUnits="userSpaceOnUse"
       x1="-381.48923"
       y1="417.46164"
       x2="-384.42462"
       y2="373.51999"
       gradientTransform="matrix(0.583492,0,0,0.555692,-173.068,134.582)" />
    <linearGradient
       inkscape:collect="always"
       xlink:href="#linearGradient5420"
       id="linearGradient5553"
       gradientUnits="userSpaceOnUse"
       x1="-397.07181"
       y1="439.11545"
       x2="-310.82361"
       y2="460.83374"
       gradientTransform="matrix(0.583492,0,0,0.555692,-173.068,134.582)" />
    <linearGradient
       inkscape:collect="always"
       xlink:href="#linearGradient5280"
       id="linearGradient5557"
       gradientUnits="userSpaceOnUse"
       x1="-318.13156"
       y1="420.4827"
       x2="-307.49432"
       y2="369.21744"
       gradientTransform="matrix(0.583492,0,0,0.555692,-173.068,134.582)" />
    <linearGradient
       inkscape:collect="always"
       xlink:href="#linearGradient5280"
       id="linearGradient5560"
       gradientUnits="userSpaceOnUse"
       x1="-338.97781"
       y1="415.81467"
       x2="-327.62338"
       y2="364.80194"
       gradientTransform="matrix(0.583492,0,0,0.555692,-173.068,134.582)" />
    <linearGradient
       inkscape:collect="always"
       xlink:href="#linearGradient5456"
       id="linearGradient5577"
       gradientUnits="userSpaceOnUse"
       gradientTransform="matrix(-0.192954,0,0,0.187729,-372.517,163.817)"
       x1="-224.75388"
       y1="868.65283"
       x2="-164.26787"
       y2="865.51495" />
    <linearGradient
       inkscape:collect="always"
       xlink:href="#linearGradient6356"
       id="linearGradient5580"
       gradientUnits="userSpaceOnUse"
       gradientTransform="matrix(-0.224862,0,0,0.218376,-377.789,135.802)"
       x1="-265.91757"
       y1="915.53094"
       x2="-211.66884"
       y2="914.77332" />
    <radialGradient
       inkscape:collect="always"
       xlink:href="#linearGradient5425"
       id="radialGradient5585"
       gradientUnits="userSpaceOnUse"
       gradientTransform="matrix(0.32961,0.0891867,-0.0480105,0.18515,-187.043,191.521)"
       cx="-301.01501"
       cy="862.04047"
       fx="-301.01501"
       fy="862.04047"
       r="18.672283" />
    <linearGradient
       inkscape:collect="always"
       xlink:href="#linearGradient6356"
       id="linearGradient5588"
       gradientUnits="userSpaceOnUse"
       gradientTransform="matrix(0.22418,0,0,0.214901,-316.778,237.843)"
       x1="-6.060915"
       y1="493.04184"
       x2="-11.111678"
       y2="463.74744" />
    <radialGradient
       inkscape:collect="always"
       xlink:href="#linearGradient5425"
       id="radialGradient5593"
       gradientUnits="userSpaceOnUse"
       gradientTransform="matrix(-0.32961,0.0891867,0.0480105,0.18515,-450.57,191.157)"
       cx="-301.01501"
       cy="862.04047"
       fx="-301.01501"
       fy="862.04047"
       r="18.672283" />
    <linearGradient
       inkscape:collect="always"
       xlink:href="#linearGradient6356"
       id="linearGradient5596"
       gradientUnits="userSpaceOnUse"
       gradientTransform="matrix(0.224862,0,0,0.218376,-260.223,135.704)"
       x1="-265.91757"
       y1="915.53094"
       x2="-212.97946"
       y2="914.77332" />
    <linearGradient
       inkscape:collect="always"
       xlink:href="#linearGradient5456"
       id="linearGradient5599"
       gradientUnits="userSpaceOnUse"
       gradientTransform="matrix(0.192954,0,0,0.187729,-264.812,163.031)"
       x1="-224.75388"
       y1="868.65283"
       x2="-161.05917"
       y2="866.56091" />
    <linearGradient
       inkscape:collect="always"
       xlink:href="#linearGradient5900"
       id="linearGradient5603"
       gradientUnits="userSpaceOnUse"
       gradientTransform="matrix(0.230091,0,0,0.218376,-259.09,135.704)"
       x1="-265.67014"
       y1="796.54108"
       x2="-262.89221"
       y2="887.95984" />
    <linearGradient
       inkscape:collect="always"
       xlink:href="#linearGradient5379"
       id="linearGradient5609"
       gradientUnits="userSpaceOnUse"
       x1="-278.56659"
       y1="382.52341"
       x2="-240.85831"
       y2="407.52469"
       gradientTransform="matrix(0.583492,0,0,0.555692,-173.068,134.582)" />
    <linearGradient
       inkscape:collect="always"
       xlink:href="#linearGradient5280"
       id="linearGradient5615"
       gradientUnits="userSpaceOnUse"
       x1="-301.30469"
       y1="416.59869"
       x2="-294.94067"
       y2="375.94006"
       gradientTransform="matrix(0.583492,0,0,0.555692,-173.068,134.582)" />
    <linearGradient
       inkscape:collect="always"
       xlink:href="#linearGradient5355"
       id="linearGradient5625"
       gradientUnits="userSpaceOnUse"
       x1="-287.1828"
       y1="417.10681"
       x2="-266.96805"
       y2="412.81363"
       gradientTransform="matrix(0.583492,0,0,0.555692,-173.068,134.582)" />
    <linearGradient
       inkscape:collect="always"
       xlink:href="#linearGradient5371"
       id="linearGradient5630"
       gradientUnits="userSpaceOnUse"
       x1="-274.13632"
       y1="427.86267"
       x2="-257.0249"
       y2="421.80176"
       gradientTransform="matrix(0.583492,0,0,0.555692,-173.068,134.582)" />
    <linearGradient
       inkscape:collect="always"
       xlink:href="#linearGradient4086"
       id="linearGradient5635"
       gradientUnits="userSpaceOnUse"
       gradientTransform="matrix(0.230091,0,0,0.218376,-259.09,135.704)"
       x1="-314.40488"
       y1="798.44916"
       x2="-344.48508"
       y2="804.00494" />
    <linearGradient
       inkscape:collect="always"
       xlink:href="#linearGradient4078"
       id="linearGradient5639"
       gradientUnits="userSpaceOnUse"
       gradientTransform="matrix(0.230091,0,0,0.218376,-259.09,135.704)"
       x1="-206.57112"
       y1="804.87482"
       x2="-163.22552"
       y2="804.87482" />
    <linearGradient
       inkscape:collect="always"
       xlink:href="#linearGradient4042"
       id="linearGradient5702"
       gradientUnits="userSpaceOnUse"
       gradientTransform="matrix(0.591399,0,0,0.511348,-172.207,150.135)"
       x1="-234.30539"
       y1="372.81961"
       x2="-212.82298"
       y2="369.8566" />
  </defs>
  <sodipodi:namedview
     id="base"
     pagecolor="#ffffff"
     bordercolor="#666666"
     borderopacity="1.0"
     inkscape:pageopacity="0.0"
     inkscape:pageshadow="2"
     inkscape:zoom="3.959798"
     inkscape:cx="108.71309"
     inkscape:cy="39.954974"
     inkscape:document-units="px"
     inkscape:current-layer="layer1"
     showgrid="false"
     showguides="true"
     inkscape:guide-bbox="true"
     inkscape:window-width="1256"
     inkscape:window-height="701"
     inkscape:window-x="0"
     inkscape:window-y="37"
     inkscape:window-maximized="1"
     fit-margin-top="0"
     fit-margin-left="0"
     fit-margin-right="0"
     fit-margin-bottom="0" />
  <metadata
     id="metadata7">
    <rdf:RDF>
      <cc:Work
         rdf:about="">
        <dc:format>image/svg+xml</dc:format>
        <dc:type
           rdf:resource="http://purl.org/dc/dcmitype/StillImage" />
        <dc:title />
        <cc:license
           rdf:resource="http://creativecommons.org/licenses/publicdomain/" />
      </cc:Work>
      <cc:License
         rdf:about="http://creativecommons.org/licenses/publicdomain/">
        <cc:permits
           rdf:resource="http://creativecommons.org/ns#Reproduction" />
        <cc:permits
           rdf:resource="http://creativecommons.org/ns#Distribution" />
        <cc:permits
           rdf:resource="http://creativecommons.org/ns#DerivativeWorks" />
      </cc:License>
    </rdf:RDF>
  </metadata>
  <g
     inkscape:label="Layer 1"
     inkscape:groupmode="layer"
     id="layer1"
     transform="translate(415.521, -302.902)">
    <g
       id="g5642"
       transform="matrix(0.97572385,0,0,0.70745975,-10.072259,88.729759)">
      <path
         sodipodi:nodetypes="cssccsssscscsssscssssssssssscsc"
         inkscape:connector-curvature="0"
         id="path4014"
         d="m -337.88241,316.21257 c -0.51169,-3.26435 0.66823,0.13788 -0.0291,-2.34381 -0.69728,-2.48167 -2.76007,-7.58289 -2.64386,-8.35497 0.23243,-1.54415 1.16214,-1.43386 1.16214,-1.43386 l 1.97563,0.1103 c 0,0 1.27835,0.66178 1.85941,0.88238 0.58107,0.22059 5.46205,5.40453 7.32146,5.51483 1.85943,0.1103 2.55671,-1.21326 5.46205,-1.43386 2.90534,-0.22059 3.83506,-0.88237 6.97282,-0.33088 3.13777,0.55148 6.85661,2.86771 6.85661,2.86771 0,0 -0.23242,0.44119 0.46485,0.11029 0.69728,-0.33089 7.32146,-5.95602 7.32146,-5.95602 0,0 1.16214,-1.10296 1.97564,-1.65445 0.81349,-0.55148 1.7432,-1.98534 2.44048,-0.88237 0.69728,1.10297 -0.23243,7.50017 -0.46486,8.49284 -0.23242,0.99267 -0.11621,2.97802 -0.11621,3.6398 0,0.66178 -1.62699,3.75008 -1.62699,3.75008 0,0 1.62699,2.20593 1.97563,4.08098 0.34865,1.87505 0.40676,2.37137 0.40676,4.7979 0,2.42653 -2.03374,5.1288 -3.77695,6.23176 -1.74321,1.10297 -3.06391,1.84163 -5.17151,2.92287 -2.14995,1.10296 -2.93121,1.17902 -4.47006,2.41668 -1.13368,0.9118 -3.31625,3.09815 -4.5365,3.53934 -2.28319,0.82551 -5.46205,0.93753 -7.32146,-0.16545 -1.85942,-1.10296 -3.60262,-2.86771 -6.04311,-4.19127 -2.44048,-1.32356 -6.56607,-1.5993 -8.07685,-3.58464 -1.51078,-1.98534 -3.19588,-3.91553 -2.96345,-6.89355 0.23243,-2.978 0.46486,-3.63979 1.39456,-5.95602 0.92972,-2.31623 0.69729,-3.97068 0.69729,-3.97068 0,0 -0.79853,-0.62765 -1.04593,-2.20593 z"
         style="fill:#916f6f;fill-opacity:1;stroke:none" />
      <path
         inkscape:connector-curvature="0"
         id="path4018"
         d="m -306.50472,313.01397 1.27835,-2.31623 c 0,0 -0.34863,-0.66178 0.8135,-1.43387 1.16214,-0.77207 4.06748,-3.41919 4.06748,-3.41919 0,0 0.11621,-0.11029 1.04592,-1.10296 0.92971,-0.99267 2.09185,-0.99267 2.09185,-0.99267 0,0 0.69728,0.66178 0.34864,1.76474 -0.34864,1.10296 -0.58107,3.52949 -0.69729,4.08098 -0.1162,0.55149 -0.34863,4.19127 -0.34863,4.19127 0,0 0.11621,0.99268 -0.11622,1.87505 -0.23242,0.88238 -1.51078,3.52949 -1.51078,3.52949 l -3.60262,-1.98534 -2.5567,-1.43385 z"
         style="fill:url(#linearGradient5639);fill-opacity:1;stroke:none" />
      <path
         inkscape:connector-curvature="0"
         id="path4016"
         d="m -333.69871,307.27854 c 2.44049,2.97801 1.97563,2.20594 3.02155,3.08831 1.04593,0.88237 1.27835,2.53683 0.8135,2.75741 -0.46485,0.22059 -2.5567,2.97802 -2.5567,2.97802 l -3.60263,2.53682 -0.69728,0 -1.27835,-3.19861 0.46485,-1.32356 -1.04591,-3.63979 -1.04593,-3.1986 -0.46485,-1.98534 0.81349,-0.66178 c 0,0 -0.81349,-0.1103 0,0 0.81349,0.1103 2.5567,0.33088 2.5567,0.33088 z"
         style="fill:url(#linearGradient5635);fill-opacity:1;stroke:none" />
      <path
         sodipodi:nodetypes="cccsccccsccssscsssscssccssscccscccscscssscsccccssscscsccccc"
         inkscape:connector-curvature="0"
         id="path5328"
         d="m -344.50694,330.95194 -6.01652,-0.94691 -10.14692,-0.8612 c 0,0 -5.47811,0.67081 -5.47811,-1.00846 0,-1.7701 -6.51996,-5.68663 -6.51996,-5.68663 l -7.32331,-1.58809 -9.31937,0.11449 -5.20092,1.42991 c 0,0 -3.0812,1.54421 -4.4837,2.51631 -2.43956,1.69092 -3.83913,4.62663 -3.83913,4.62663 -1.10406,2.6795 -0.24474,4.4998 -2.21828,5.40047 0,0 -2.97751,0.31571 -5.48268,2.64793 -3.01514,2.80696 -2.88773,3.70972 -3.79172,10.54074 -0.19024,1.43763 -1.21769,8.12232 2.22154,19.5987 2.19165,7.31332 10.41163,16.6036 10.41163,16.6036 0,0 4.5341,3.3632 6.2134,4.07124 1.6793,0.70805 5.37375,2.47816 7.72476,3.54022 2.35102,1.06206 14.14995,2.50845 15.49338,2.50845 1.34343,0 10.41164,0.35402 11.25128,0.35402 0.83965,0 5.38039,-0.421 5.38039,-0.421 3.8312,-0.56133 0.60942,1.13592 4.17102,-1.12903 1.7231,-1.09579 1.79406,-1.32959 1.63815,-2.60094 -0.12866,-1.04919 -3.74225,-2.16081 -3.74225,-2.16081 -2.08149,-0.92947 -6.02064,-2.39775 -8.14626,-2.36654 -6.12381,-0.70167 -11.06278,-1.00784 -12.07035,-1.53887 -1.00758,-0.53103 -12.93857,-2.27198 -15.61018,-4.69956 -3.33801,-3.0331 -6.50477,-5.32786 -6.84064,-6.56694 -0.33585,-1.23907 -4.9589,-4.92119 -4.9589,-4.92119 0,0 4.39472,5.32769 6.38132,6.7264 2.72367,1.15655 5.14625,2.58603 8.39649,3.18619 1.1755,0.17701 5.117,1.94783 5.97636,2.12413 6.14426,1.26054 10.07789,1.66325 14.64573,0.97956 3.36685,-3.35274 0.75755,-3.04285 11.41837,-0.88357 l 5.73446,0.49644 c 5.08776,-0.57808 6.32456,-1.28442 7.50006,-1.10741 1.17551,0.17701 5.38796,-1.0239 5.38796,-1.0239 0,0 4.92175,-1.50571 6.09726,-1.32869 1.17549,0.177 6.25738,3.86935 6.25738,3.86935 0,0 6.1694,4.03308 8.01662,4.56411 1.84723,0.53103 9.57199,4.18575 11.58715,4.18575 2.01516,0 11.86043,3.37242 15.34321,-1.79446 3.08534,-4.57725 -4.45785,-8.75873 -6.64093,-9.37827 -4.45014,-1.15056 -5.13982,1.54112 -6.48326,0.30204 -0.84778,-0.78192 -3.16866,-1.94712 -3.16866,-1.94712 l -4.16231,-3.64088 0.9473,-1.36464 2.68687,2.30114 c 0,0 5.0952,3.68176 10.9658,4.63768 7.44994,1.21309 6.54711,1.29569 12.52186,0.0809 2.24314,-0.45606 2.71239,-4.68489 1.35204,-6.47559 -1.36036,-1.79072 -2.79801,-3.40539 -5.53274,-4.30871 -3.71241,-0.53268 -4.07574,0.8931 -5.25126,0.8931 -1.17549,0 -8.45052,-5.78853 -8.45052,-5.78853 0,0 5.7e-4,-2.07659 0.6331,-4.74243 0.19598,-0.82593 -0.0501,-9.50241 -0.0501,-9.50241 l -0.56985,-4.71639 -5.17948,-11.86708 -5.75761,3.91546 z"
         style="fill:#916f6f;stroke:none" />
      <path
         transform="matrix(0.110498,0,0,0.122268,-338.214,279.665)"
         sodipodi:nodetypes="ssssssss"
         inkscape:connector-curvature="0"
         id="path3621"
         d="M -1.8238431,465.19436 C -16.404915,499.78288 98.015041,637.4087 60.765925,662.02279 23.516809,686.63688 -90.248589,636.53512 -152.38062,636.53512 c -124.26407,0 -471.68573,-43.07761 -446.72676,-93.99376 42.14286,-85.97115 99.59745,-106.831 183.59011,-123.67722 126.15293,-25.30221 115.07716,-15.23947 177.07709,-12.83876 49.27234,1.90789 112.96243,3.86591 180.208035,14.45818 76.566587,12.06048 79.289755,-9.56749 56.4083019,44.7108 z"
         style="fill:url(#linearGradient5500);fill-opacity:1;stroke:none;filter:url(#filter4450)" />
      <path
         sodipodi:nodetypes="ccccccccc"
         inkscape:connector-curvature="0"
         id="path3032"
         d="m -326.39657,367.37462 c -1.81515,-0.24963 -3.73205,-0.16347 -5.35697,0.88904 -1.39425,0.84686 -2.8495,1.46687 -3.80601,2.92177 -1.01317,0.81139 -2.58312,2.35301 -1.19096,3.67858 1.27032,0.95927 2.61482,-0.50089 3.66513,-1.23581 1.19846,-1.45809 2.98976,-1.879 4.49381,-2.77492 1.58827,-0.71267 3.30506,0.0774 4.92344,-0.28397 0.62646,-0.41238 2.40465,-2.14878 1.85253,-2.27217 -0.94171,-0.37008 -2.76673,-0.73055 -4.58097,-0.92252 z"
         style="opacity:0.61478601;fill:url(#linearGradient5630);fill-opacity:1;stroke:none" />
      <path
         inkscape:connector-curvature="0"
         id="path3034"
         d="m -316.43272,371.14662 c -0.66038,-0.1512 -1.92346,0.80507 -2.76328,1.64473 -0.94491,1.13952 -2.18238,2.05026 -2.78337,3.49577 0.18576,1.30758 -1.06173,3.46469 0.0835,4.15046 1.36925,-0.555 1.87765,-2.40002 2.71143,-3.61661 0.25671,-1.65397 1.57507,-2.45616 2.23287,-3.83016 0.27579,-0.57774 0.34134,-1.23498 0.51883,-1.84419 z"
         style="opacity:0.61478601;fill:#000000;stroke:#000000;stroke-width:1px;stroke-linecap:butt;stroke-linejoin:miter;stroke-opacity:1" />
      <path
         sodipodi:nodetypes="cccccccccccc"
         inkscape:connector-curvature="0"
         id="path3036"
         d="m -325.87262,371.18247 c -0.90723,-0.22254 -1.40213,0.60656 -2.10338,0.99236 -0.57441,0.66565 -1.79817,-0.0268 -2.07047,1.05235 -0.28719,0.84466 0.47032,1.75991 0.93529,1.93808 0.70432,0.2047 1.17859,-0.68269 1.84258,-0.38026 0.61689,-0.48443 1.46652,0.27536 1.81888,-0.62922 0.43779,-0.44728 1.02505,-0.61614 1.47425,-1.03513 0.72687,-0.21087 1.48727,-0.18625 2.20804,-0.43097 0.8137,0.0874 1.22481,-0.82713 1.94101,-0.62877 0.49034,-0.20319 0.44556,-0.94967 0.4966,-1.46505 -0.0264,-0.16827 -0.21018,-0.25275 -0.71712,0.11902 -2.19439,0.46969 -4.05056,-0.14843 -5.82568,0.46759 z"
         style="opacity:0.61478601;fill:#000000;stroke:#000000;stroke-width:1px;stroke-linecap:butt;stroke-linejoin:miter;stroke-opacity:1" />
      <path
         inkscape:connector-curvature="0"
         id="path3038"
         d="m -327.65986,363.72069 c -1.08478,-1.41961 -2.93136,-0.66289 -4.36661,-0.86025 -2.00536,-0.3104 -4.02642,-0.3329 -5.99718,0.24178 -1.87925,0.18965 -3.22523,1.76375 -4.66284,2.94749 -1.2669,1.80031 1.68043,1.96217 2.70465,1.68 1.25107,-0.68848 2.65067,-0.46682 3.97074,-0.79196 1.33105,-0.5019 2.75058,-0.55557 4.1213,-0.50185 1.28119,-0.44642 3.12371,0.24915 3.91626,-1.23898 0.17486,-0.47074 0.21451,-0.98316 0.31368,-1.47623 z"
         style="opacity:0.61478601;fill:url(#linearGradient5625);fill-opacity:1;stroke:none" />
      <path
         sodipodi:nodetypes="cccccccccccccccccccc"
         inkscape:connector-curvature="0"
         id="path3040"
         d="m -319.20106,342.65178 c 1.29636,-0.0176 2.61954,-0.0432 3.87616,0.36967 0.93372,0.16084 1.95537,0.27147 2.79705,0.54255 0.85209,0.51566 1.60877,1.04224 2.4393,1.57736 0.84479,0.45193 2.07483,0.6803 2.82045,1.41225 3.69682,2.94198 2.87122,1.6483 5.22732,1.21138 0.40168,1.08387 -3.44362,0.30329 -4.18779,0.30036 -0.66711,-0.54908 -1.46671,-1.11137 -2.3567,-1.18634 -0.87353,-0.42868 -1.64442,-1.13056 -2.65197,-1.00869 -0.96636,-0.11704 -1.99303,-0.53652 -2.9913,-0.51363 -1.4424,-0.30365 -2.82504,0.30633 -4.23109,0.77081 -1.29607,0.1072 -2.35821,-0.4417 -3.66652,-0.55523 -1.0714,0.21743 -2.35097,-0.0236 -3.34627,0.57687 -1.65177,-0.0325 -3.7166,-1.21008 -5.36854,-1.22157 -0.65861,-0.63748 -2.00705,-1.73157 -1.97113,-2.96045 -0.19526,-1.60939 2.38011,1.29646 3.37108,1.29162 1.20962,-0.20581 2.24072,-0.77226 3.41334,-0.5571 0.94587,-0.29655 1.97657,0.64633 2.86193,-0.10126 0.92138,-0.27166 2.07406,-0.19018 3.0419,0.0514 z"
         style="opacity:0.61478601;fill:#000000;stroke:#000000;stroke-width:1px;stroke-linecap:butt;stroke-linejoin:miter;stroke-opacity:1" />
      <path
         sodipodi:nodetypes="ccccccccccccccccccccccc"
         inkscape:connector-curvature="0"
         id="path3042"
         d="m -299.50721,347.53812 c -0.71591,1.10761 -2.36849,2.86035 -3.24063,3.66366 -1.39206,1.30269 -2.86752,2.48003 -4.482,3.41423 -1.19089,1.10202 -2.78634,1.15861 -4.25232,1.02077 -1.29068,-0.10433 -2.61209,0.27448 -3.8524,-0.31837 -1.43217,-0.16349 -2.35481,-1.25287 -3.46539,-2.13014 -1.27532,-0.47343 -2.40839,-1.0371 -3.6891,-1.44116 -1.4469,-0.11273 -2.76463,-0.20805 -4.10058,-0.96405 -1.29844,-0.83039 -2.14134,-2.00856 -3.20475,-3.05575 -0.92773,-1.50856 -2.82092,-1.01308 -4.05347,-2.07447 -1.12856,-0.20558 -0.86697,-3.9993 -1.87165,-2.47948 -0.40089,1.3211 1.1796,3.48076 1.97462,4.28737 1.25731,0.287 0.63262,1.4704 1.87366,1.77342 1.37848,0.46646 2.18891,1.69428 3.51949,2.31875 1.05349,0.60023 2.64754,0.60809 3.37468,1.78751 1.15594,0.99406 2.66434,1.65405 3.81029,2.76685 1.12937,0.57486 1.8963,1.5115 3.24488,1.52217 1.44734,0.22707 2.89925,0.1795 4.30676,0.69805 1.81658,-0.17426 3.65695,-0.13292 5.48741,-0.13306 1.02877,-0.89231 2.43815,-1.09787 3.37177,-2.15914 0.96512,-1.20741 2.50113,-1.57068 3.09095,-3.26942 1.24851,-0.59824 0.67936,-2.61888 1.43591,-3.62275 0.47707,-0.2162 0.8684,-1.31061 0.72187,-1.60499 z"
         style="opacity:0.61478601;fill:#000000;stroke:#000000;stroke-width:1px;stroke-linecap:butt;stroke-linejoin:miter;stroke-opacity:1" />
      <path
         transform="matrix(0.132431,0,0,0.150494,-351.179,250.284)"
         inkscape:connector-curvature="0"
         id="path5814"
         d="m 367.16862,573.42731 c -24.725,8.63244 -34.75748,10.80421 -60.56006,17.07722 -20.00306,5.86841 -37.01549,17.3596 -53.80136,28.08025 -18.14013,14.57672 -27.68946,36.34521 -29.2045,57.23904 3.44589,23.1251 22.07072,41.51128 36.86808,60.06972 17.40243,18.46879 44.20602,29.91816 72.05279,29.51096 19.59853,5.9798 34.92989,-6.84243 43.97156,-20.0542 16.58108,-11.94319 25.45327,-30.71718 20.68583,-48.91356 5.37662,-17.99432 8.84225,-35.94843 10.08576,-54.51445 -0.12563,-20.08003 -18.63349,-29.78922 -25.37242,-49.24172 -2.14975,-9.81338 -5.49442,-15.54535 -14.72568,-19.25326 z"
         style="fill:url(#linearGradient5506);fill-opacity:1;stroke:url(#linearGradient5508);stroke-width:7.08346987px;stroke-linecap:butt;stroke-linejoin:miter;stroke-opacity:1;filter:url(#filter5876)"
         sodipodi:nodetypes="ccccccccccc" />
      <path
         inkscape:connector-curvature="0"
         id="path3044"
         d="m -305.20558,379.60873 c -0.7758,0.19987 -0.21627,1.48565 -0.94335,1.86382 -0.5258,0.63705 -1.31266,-0.19602 -1.83257,0.38743 -0.45253,0.64402 -0.0748,1.54213 -0.12905,2.29595 0.18042,0.96269 0.93162,-0.12281 1.3699,-0.36578 0.10897,-0.71883 0.41311,-1.50258 1.16893,-1.60028 0.60274,-0.5456 1.57157,0.31701 2.03307,-0.49047 0.46483,-0.89971 -0.46798,-1.63198 -0.39784,-2.4763 0.41906,-0.58007 -0.45714,-1.00718 -0.46049,-0.42893 0.35519,0.44579 -0.70004,0.46982 -0.8086,0.81456 z"
         style="opacity:0.61478601;fill:#000000;stroke:#000000;stroke-width:1px;stroke-linecap:butt;stroke-linejoin:miter;stroke-opacity:1" />
      <path
         sodipodi:nodetypes="cccccccccccc"
         inkscape:connector-curvature="0"
         id="path3046"
         d="m -311.4177,376.94304 c -0.80526,-0.12793 -1.01589,0.95876 -1.75208,0.99184 -0.5737,0.31963 -1.02414,0.89426 -1.32702,1.5183 -0.24075,0.68682 -0.66485,1.21041 -0.96948,1.85907 -0.27943,0.0716 -0.9785,0.1076 -0.26299,0.21661 0.7099,0.53158 1.61574,0.38781 2.43724,0.2806 0.31249,-0.66382 1.01305,-0.66022 1.22876,-1.39683 0.21062,-0.80802 0.34852,-2.10308 1.40257,-1.71931 0.5711,0.0887 2.16727,0.41984 1.85083,-0.68809 -0.46852,-0.4082 -0.0396,-1.08764 -0.10205,-1.36444 l -0.13859,0.37747 c -0.82032,0.44598 -1.63338,0.33441 -2.36719,-0.0752 z"
         style="opacity:0.61478601;fill:#000000;stroke:#000000;stroke-width:1px;stroke-linecap:butt;stroke-linejoin:miter;stroke-opacity:1" />
      <path
         inkscape:connector-curvature="0"
         id="path3048"
         d="m -301.51446,384.61691 c 0.51945,0.33754 1.10533,0.74003 1.7299,0.54575 0.49965,-0.002 0.99295,-0.12662 1.49185,-0.10536 0.47532,-0.0132 0.65628,0.51751 0.75058,0.94784 0.17326,0.58799 0.40632,1.19207 0.33643,1.82507 -0.13952,0.47865 -0.88773,0.57533 -1.0058,0.0281 -0.41893,-0.28489 -0.85745,-0.63921 -0.99618,-1.24234 -0.11142,-0.44466 -0.63765,-0.38679 -0.91713,-0.68121 -0.36776,-0.23392 -0.75287,-0.56747 -1.20239,-0.44959 -0.38582,0.18944 -0.90446,-0.21229 -0.42084,-0.56845 0.0923,-0.0871 0.16609,-0.18952 0.23358,-0.29988 z"
         style="opacity:0.61478601;fill:#000000;stroke:#000000;stroke-width:1px;stroke-linecap:butt;stroke-linejoin:miter;stroke-opacity:1" />
      <path
         inkscape:connector-curvature="0"
         id="path3050"
         d="m -297.82334,382.19916 c 0.4808,-0.29334 0.80125,0.26842 1.19997,0.33462 0.31627,-0.0137 0.0892,0.59386 0.41262,0.32653 0.22417,0.52463 0.32723,1.08003 0.56546,1.58751 -0.0648,0.40517 0.89566,0.33072 0.3369,0.7609 -0.30474,0.25447 -0.57241,0.60842 -1.0024,0.48182 -0.44325,0.0906 -0.46113,-0.32395 -0.46543,-0.70159 -0.41315,-0.28826 0.14874,-0.9189 -0.21459,-1.2501 -0.12408,-0.46622 -0.66806,-0.47054 -0.68142,-1.04631 -0.0413,-0.16803 -0.0914,-0.33255 -0.15111,-0.49338 z"
         style="opacity:0.61478601;fill:#000000;stroke:#000000;stroke-width:1px;stroke-linecap:butt;stroke-linejoin:miter;stroke-opacity:1" />
      <path
         inkscape:connector-curvature="0"
         id="path3068"
         d="m -343.96229,338.16169 c -0.91334,0.60617 -1.0608,1.93102 -1.81437,2.6812 -0.4538,1.00542 -0.5672,2.18008 -0.7755,3.26788 0.17702,1.20764 -0.57229,2.22649 -0.45898,3.42937 -0.0141,1.13191 -0.36465,2.22804 -0.74011,3.2654 -0.14401,1.04933 -0.64754,2.07224 -0.96597,3.12501 0.0928,0.38682 -0.37802,1.14924 -0.33804,0.36149 -0.15026,1.21465 -0.1797,2.54308 -0.70417,3.62005 -0.43172,1.29522 -0.39127,2.71328 -0.50239,4.07551 -0.0329,0.87407 -0.0344,1.74976 -0.0915,2.6226 0.36525,0.80516 0.18345,2.60187 1.01195,2.72929 0.24451,-1.00887 1.06224,-1.83419 1.52786,-2.85345 0.44673,-1.16617 1.31019,-2.24525 1.13416,-3.60355 0.17551,-1.20036 1.05885,-2.18853 0.86105,-3.48272 -0.12614,-1.25773 0.31168,-2.41308 0.48538,-3.62378 0.10368,-1.57666 -0.29138,-3.17822 0.12899,-4.73191 0.50096,-1.21907 -0.32074,-2.7568 0.57148,-3.82952 0.61785,-1.15634 0.0871,-2.6046 0.60415,-3.8229 0.29031,-1.05623 0.5636,-2.18838 0.066,-3.22997 z"
         style="opacity:0.61478601;fill:url(#linearGradient5615);fill-opacity:1;stroke:none" />
      <path
         inkscape:connector-curvature="0"
         id="path3070"
         d="m -339.96359,338.85247 c -0.28037,1.05726 -0.0315,2.25004 -0.54579,3.23517 -0.20098,0.94122 0.0256,1.92678 -0.19392,2.86513 0.10515,0.88349 0.13536,1.78426 0.35731,2.64512 -0.28649,1.11215 0.15701,2.22931 0.17879,3.34635 0.13403,0.82642 0.50787,1.59464 0.50732,2.44902 0.23144,0.89604 0.52985,1.79386 0.69188,2.69184 0.65885,0.26334 0.45638,1.12468 1.07084,1.44929 0.91299,0.69244 1.07695,-0.77737 1.06578,-1.47492 0.0491,-0.97408 -0.0947,-1.93241 -0.33077,-2.86665 0.006,-1.01334 -0.5567,-1.8367 -0.70459,-2.8012 0.1687,-0.7553 -0.002,-1.52792 -0.22071,-2.25018 -0.26503,-0.72576 -0.23006,-1.50341 -0.24411,-2.26445 -0.13994,-0.86905 0.26742,-1.66258 0.27531,-2.50377 -0.007,-0.71292 -0.0939,-1.4284 -0.0127,-2.13969 -0.32566,-0.84626 -0.48839,-1.76266 -0.74468,-2.62719 -0.28224,-0.50972 -1.33528,0.63092 -0.86521,-0.28245 0.24875,-0.40672 -0.14283,-0.69843 -0.16114,-0.12289 -0.033,0.21912 -0.0967,0.43103 -0.12356,0.65147 z"
         style="opacity:0.61478601;fill:#000000;stroke:#000000;stroke-width:1px;stroke-linecap:butt;stroke-linejoin:miter;stroke-opacity:1" />
      <path
         inkscape:connector-curvature="0"
         id="path3072"
         d="m -300.28409,370.62853 c -0.85635,-0.41893 -0.57556,1.24079 -1.31917,1.22548 -0.72782,0.14263 -1.12419,1.03437 -0.58395,1.65936 -0.0296,0.75909 0.35459,1.36668 0.41868,2.06261 -0.40671,-0.084 0.36972,-0.48199 0.63773,-0.28038 0.63126,-0.12037 1.60468,-0.0983 1.7523,-1.03301 -0.0352,-0.69379 0.2189,-1.42635 0.59883,-1.98258 0.29566,-0.69583 -0.1191,-1.34212 -0.7552,-1.34406 -0.23829,-0.13315 -0.48618,-0.25245 -0.74922,-0.30742 z"
         style="opacity:0.61478601;fill:#000000;stroke:#000000;stroke-width:1px;stroke-linecap:butt;stroke-linejoin:miter;stroke-opacity:1" />
      <path
         sodipodi:nodetypes="cccccc"
         inkscape:connector-curvature="0"
         id="path3074"
         d="m -297.10704,371.87577 c -1.03178,0.28645 -0.61997,1.60319 -0.87694,2.43352 -0.23781,0.80672 0.55182,1.66108 0.87584,0.59623 0.65143,-0.58734 1.05733,-1.38958 1.57614,-2.10205 0.40339,-0.43285 0.1678,-0.95686 0.70769,-1.48416 -0.44558,-0.18411 -1.28854,0.73389 -2.28273,0.55646 z"
         style="opacity:0.61478601;fill:#000000;stroke:#000000;stroke-width:1px;stroke-linecap:butt;stroke-linejoin:miter;stroke-opacity:1" />
      <path
         sodipodi:nodetypes="ccccccccccccccccccccc"
         inkscape:connector-curvature="0"
         id="path3076"
         d="m -336.6268,341.77996 c -0.097,1.20633 -0.0548,2.90018 0.60201,3.91914 -0.008,2.66015 2.63238,3.3452 2.0846,4.96295 1.08433,1.10852 2.40902,1.76515 3.47523,2.88126 1.3004,0.69491 2.53778,1.49589 3.7196,2.42315 1.33769,0.95322 2.84643,1.55695 4.32337,2.18142 1.42817,0.21169 2.92095,0.0105 4.31511,0.55022 1.30988,0.33095 2.68156,0.21052 3.98221,0.53152 0.55416,0.13635 1.90177,1.40501 1.21362,1.35714 0.48444,-0.13966 -1.16299,0.43919 -1.48857,0.72148 -0.95862,0.68771 -2.09168,0.19785 -3.14554,0.44301 -1.08772,0.14672 -2.20847,0.17903 -3.25935,-0.21388 -1.37024,-0.0564 -2.70726,-0.27856 -4.02133,-0.6957 -1.57149,-0.63042 -3.26791,-0.99904 -4.6343,-2.13837 -0.98589,-0.85223 -2.45868,-1.11176 -2.95684,-2.58198 -0.50442,-1.84667 -3.08221,-2.8395 -3.09873,-4.90274 -1.53913,-1.95048 1.09447,-2.82344 -1.78341,-5.14523 -0.0204,-1.67617 -0.12941,-3.2987 0.0464,-4.98579 -0.004,-1.0832 -1.5514,-2.45051 -1.42354,-3.43433 -0.2314,-0.68358 0.92826,1.06525 1.05366,0.72397 -0.70846,2.36217 1.2607,1.38371 0.99583,3.40276 z"
         style="opacity:0.61478601;fill:url(#linearGradient5609);fill-opacity:1;stroke:none" />
      <path
         sodipodi:nodetypes="ccccccccccc"
         inkscape:connector-curvature="0"
         id="path3264"
         d="m -298.61808,333.2366 -0.73925,4.93085 -0.1056,3.56118 0.71792,5.74423 -8.11041,-5.01372 -5.53083,-1.97331 0.54519,-0.70358 3.44329,-1.72147 3.23206,-2.87297 3.27382,-1.40334 z"
         style="fill:url(#linearGradient5702);fill-opacity:1;stroke:none" />
      <path
         sodipodi:nodetypes="ccsssccsssscscc"
         inkscape:connector-curvature="0"
         id="path4024"
         d="m -327.42318,310.58744 -1.16213,3.97068 c 0,0 -0.11621,2.42653 0.69728,3.1986 0.8135,0.77208 2.44049,2.64713 3.3702,3.75009 0.92971,1.10297 2.20805,2.20593 2.20805,3.86039 0,1.65444 0,3.1986 0,3.1986 l 0,1.87505 c 0,0 0.7136,-0.40866 1.91753,-0.55149 1.85943,-0.22059 4.47423,0.44118 4.47423,0 0,-0.44119 -0.46486,-4.41187 -0.11621,-5.29424 0.34864,-0.88238 3.83504,-5.29424 4.88097,-6.94869 1.04592,-1.65446 -0.8135,-7.61047 -0.8135,-7.61047 0,0 -3.71883,-1.54416 -5.34582,-1.43386 -1.62699,0.1103 -6.85661,0.66177 -6.85661,0.66177 z"
         style="fill:url(#linearGradient5603);fill-opacity:1;stroke:none" />
      <path
         sodipodi:nodetypes="cscsscccscc"
         inkscape:connector-curvature="0"
         id="path4026"
         d="m -322.5422,330.44085 c -0.41851,0.79395 -0.007,1.31524 0,1.32355 0.40658,0.51451 1.04592,-0.44118 1.04592,-0.44118 0,0 0.75539,-0.55148 1.33646,0.11029 0.58107,0.66178 0.75539,1.37871 0.75539,2.31623 0,0.39768 0.75539,0.0551 0.75539,0.0551 0.0772,-0.80132 0.26519,-2.6389 1.10403,-2.70228 0.58107,0 1.45267,0.77208 1.45267,0.77208 0,0 0.52296,0 0.63918,-0.55147 0.11621,-0.5515 -0.46486,-1.32357 -0.46486,-1.32357 -2.20806,0.14707 -3.54452,-0.75369 -6.62418,0.44119 z"
         style="fill:#782121;stroke:none" />
      <path
         sodipodi:nodetypes="cssssssccccccc"
         inkscape:connector-curvature="0"
         id="path4036"
         d="m -309.10322,328.18415 c 0.19492,1.42227 1.21523,1.40106 1.5076,1.68551 0.29236,0.28445 4.56037,2.12631 5.72985,1.41518 1.16948,-0.71113 3.37659,-2.47198 3.42531,-3.51498 0.0488,-1.04299 0.59621,-2.16736 0.20638,-2.87849 -0.38983,-0.71113 -1.99211,-6.64249 -3.40236,-5.45092 -0.52915,0.4471 -2.14117,-0.96161 -2.8721,-0.62976 -0.73091,0.33187 0.48154,2.3768 0.48154,2.3768 l -0.25509,3.27757 -0.77965,1.6119 -1.07202,1.13781 -2.43343,0.59011 -0.34109,0.0474 z"
         style="fill:url(#linearGradient5599);fill-opacity:1;stroke:none" />
      <path
         sodipodi:nodetypes="cccsssssssscc"
         inkscape:connector-curvature="0"
         id="path4034"
         d="m -318.88279,334.13578 c 0,0 0.0568,2.81256 0,2.92286 -0.0568,0.1103 -0.0568,0.1103 -0.0568,0.1103 0,0 0.62465,0.93752 1.81716,1.15811 1.19251,0.2206 2.64332,0.99935 3.15439,0.88905 0.51108,-0.1103 2.07481,0.57695 3.43767,-0.0297 0.8791,-0.3913 2.97301,-1.75931 3.02979,-2.47623 0.0568,-0.71694 0.53671,-2.62957 0.1392,-3.12589 -0.3975,-0.49634 -2.29397,-2.05097 -2.73612,-2.47079 -1.3442,-1.27631 -4.22151,-2.56585 -5.32496,-3.05577 -0.92571,-0.41101 0.9879,3.58422 -0.35722,3.90178 -1.67666,0.39584 -3.10313,2.17626 -3.10313,2.17626 z"
         style="fill:url(#linearGradient5596);fill-opacity:1;stroke:none" />
      <path
         sodipodi:nodetypes="cccccc"
         style="fill:url(#radialGradient5593);fill-opacity:1;stroke:none"
         d="m -309.30981,319.73223 c 1.56803,-0.17279 3.50087,0.71476 3.60247,2.52201 0.42531,2.14632 -0.49863,5.07503 -2.93268,5.41605 -1.84661,-0.27757 -2.63447,0.26248 -4.5445,-1.16456 -0.57557,-0.84263 -1.10178,-1.91453 -1.3711,-2.83743 0.67893,-2.3658 3.01042,-3.52549 5.24581,-3.93607 z"
         id="path4028"
         inkscape:connector-curvature="0" />
      <path
         sodipodi:nodetypes="ccccccccscccccccccscccsccccc"
         inkscape:connector-curvature="0"
         id="path4382"
         d="m -310.27599,319.55954 c -2.272,1.20114 -2.81665,1.24332 -4.82892,3.9426 0,0 0.24229,-0.35103 0.061,0.92374 0.33265,0.88318 0.62302,1.44928 0.90423,1.86145 l 0.6939,0.92435 0.63287,0.57576 c 2.26822,0.89604 2.96468,0.98971 4.47552,0.73005 l 0,0.015 c 1.6155,-0.88883 2.58497,-1.62163 3.19808,-2.91757 0.5977,-1.26335 0.91715,-2.43226 0.6747,-3.73776 l 0.0149,0 c -0.001,-0.0216 -0.0133,-0.0387 -0.0149,-0.0601 -0.001,-0.0152 -0.0604,-1.38052 -0.0604,-1.38052 0,0 -0.20939,-0.8822 -2.57929,-0.75559 -0.24168,-0.12141 -1.47995,-0.18211 -1.47995,-0.18211 z m 1.20595,0.33456 c 0.005,-4.6e-4 0.0102,4.4e-4 0.0149,0 0.70332,-0.0655 1.51813,0.10159 2.1233,0.46572 0.61748,0.37156 1.00487,0.88081 1.04669,1.6075 l 0,0.0451 0.0149,0.0451 c 0.20374,1.00439 0.0207,2.23378 -0.38877,3.23001 -0.40013,0.97347 -0.0299,0.57531 -1.42697,1.93923 l -0.61911,0.18212 c -1.73906,0.27412 -3.22788,0.0302 -4.78854,-1.15741 -3.12986,-2.8862 0.92508,-5.66106 3.90268,-6.2359 z"
         style="font-size:medium;font-style:normal;font-variant:normal;font-weight:normal;font-stretch:normal;text-indent:0pt;text-align:start;text-decoration:none;line-height:normal;letter-spacing:normal;word-spacing:normal;text-transform:none;direction:ltr;text-anchor:start;color:#000000;fill:#28170b;fill-opacity:1;fill-rule:nonzero;stroke:none;stroke-width:3;marker:none;visibility:visible;display:inline;overflow:visible;font-family:Sans" />
      <path
         inkscape:connector-curvature="0"
         id="path4052"
         d="m -310.23251,321.61711 c 0,0 -0.29054,0.60663 -0.23243,1.15811 0.0581,0.55149 0.29054,1.43386 0.29054,1.43386 l 0.46485,1.04783 0.52296,-1.26842 0,-0.82723 -0.17432,-0.71692 z"
         style="fill:#000000;stroke:#000000;stroke-width:1px;stroke-linecap:butt;stroke-linejoin:miter;stroke-opacity:1" />
      <path
         sodipodi:nodetypes="casccccc"
         inkscape:connector-curvature="0"
         id="path4232"
         d="m -324.9904,338.87075 c 1.39936,2.57064 3.6267,4.04689 6.17473,4.47878 1.54475,0.26184 3.45762,-0.38312 4.49868,-1.31822 1.32794,-1.19276 0.59934,-0.36342 1.66064,-2.22523 l -5.31653,-1.53613 -1.83172,-0.0982 -2.90602,0.68974 z"
         style="fill:url(#linearGradient5588);fill-opacity:1;stroke:none" />
      <path
         inkscape:connector-curvature="0"
         id="path4412"
         d="m -328.30365,320.09645 c -1.56803,-0.17278 -3.50086,0.71476 -3.60246,2.52201 -0.42531,2.14632 0.49863,5.07503 2.93268,5.41605 1.84661,-0.27756 2.63446,0.26249 4.54449,-1.16456 0.57558,-0.84263 1.10179,-1.91453 1.37111,-2.83743 -0.67893,-2.3658 -3.01042,-3.52549 -5.24582,-3.93607 z"
         style="fill:url(#radialGradient5585);fill-opacity:1;stroke:none"
         sodipodi:nodetypes="cccccc" />
      <path
         style="font-size:medium;font-style:normal;font-variant:normal;font-weight:normal;font-stretch:normal;text-indent:0pt;text-align:start;text-decoration:none;line-height:normal;letter-spacing:normal;word-spacing:normal;text-transform:none;direction:ltr;text-anchor:start;color:#000000;fill:#28170b;fill-opacity:1;fill-rule:nonzero;stroke:none;stroke-width:3;marker:none;visibility:visible;display:inline;overflow:visible;font-family:Sans"
         d="m -327.33747,319.92377 c 2.27201,1.20114 2.45415,1.1219 4.46642,3.82119 0,0 0.12022,-0.22963 0.30147,1.04514 -0.33264,0.88317 -0.62301,1.44928 -0.90422,1.86145 l -0.6939,0.92435 -0.63288,0.57577 c -2.26821,0.89603 -2.96467,0.9897 -4.47552,0.73004 l 0,0.015 c -1.61549,-0.88883 -2.58496,-1.62164 -3.19807,-2.91757 -0.5977,-1.26335 -0.91715,-2.43225 -0.6747,-3.73776 l -0.0149,0 c 10e-4,-0.0216 0.0133,-0.0387 0.0149,-0.0601 10e-4,-0.0152 0.0604,-1.38052 0.0604,-1.38052 0,0 0.20939,-0.8822 2.57929,-0.75559 0.24168,-0.12141 1.47995,-0.1821 1.47995,-0.1821 z m -1.20594,0.33455 c -0.005,-4.6e-4 -0.0102,4.5e-4 -0.0149,0 -0.70332,-0.0655 -1.51813,0.10158 -2.1233,0.46573 -0.61748,0.37154 -1.00488,0.8808 -1.04669,1.60749 l 0,0.0451 -0.0149,0.0451 c -0.20375,1.00439 -0.0207,2.23378 0.38877,3.23001 0.40013,0.97346 0.0299,0.5753 1.42696,1.93923 l 0.61912,0.18211 c 1.73905,0.27413 3.22788,0.0302 4.78854,-1.1574 3.12985,-2.88621 -0.92508,-5.66107 -3.90268,-6.2359 z"
         id="path4414"
         inkscape:connector-curvature="0"
         sodipodi:nodetypes="ccccccccscccccccccscccsccccc" />
      <path
         style="fill:#000000;stroke:#000000;stroke-width:1px;stroke-linecap:butt;stroke-linejoin:miter;stroke-opacity:1"
         d="m -327.38094,321.98133 c 0,0 0.29053,0.60663 0.23243,1.15812 -0.0581,0.55148 -0.29054,1.43385 -0.29054,1.43385 l -0.46485,1.04782 -0.52297,-1.26841 0,-0.82723 0.17432,-0.71692 z"
         id="path4416"
         inkscape:connector-curvature="0" />
      <path
         style="fill:url(#linearGradient5580);fill-opacity:1;stroke:none"
         d="m -319.12868,334.23396 c 0,0 -0.0568,2.81256 0,2.92286 0.0568,0.1103 0.0568,0.1103 0.0568,0.1103 0,0 -0.62465,0.93752 -1.81715,1.15811 -1.19252,0.22059 -2.64332,0.99934 -3.1544,0.88905 -0.51107,-0.1103 -2.0748,0.57695 -3.43767,-0.0297 -0.8791,-0.3913 -2.97301,-1.7593 -3.02979,-2.47623 -0.0568,-0.71693 -0.53671,-2.62957 -0.1392,-3.12589 0.3975,-0.49634 2.29397,-2.05097 2.73612,-2.47079 1.34421,-1.27631 4.22151,-2.56584 5.32496,-3.05577 0.92571,-0.41101 -0.9879,3.58423 0.35722,3.90179 1.67666,0.39583 3.10313,2.17625 3.10313,2.17625 z"
         id="path4049"
         inkscape:connector-curvature="0"
         sodipodi:nodetypes="cccsssssssscc" />
      <path
         style="fill:url(#linearGradient5577);fill-opacity:1;stroke:none"
         d="m -328.22589,328.96957 c -0.19492,1.42227 -1.21522,1.40106 -1.50759,1.68551 -0.29236,0.28445 -4.56038,2.12631 -5.72985,1.41518 -1.16948,-0.71113 -3.37659,-2.47198 -3.42532,-3.51497 -0.0488,-1.043 0.27939,-1.75084 0.66921,-2.46197 0.38983,-0.71113 1.11653,-7.05902 2.52677,-5.86744 0.52915,0.44709 2.14118,-0.96162 2.8721,-0.62976 0.73092,0.33186 -0.48153,2.37679 -0.48153,2.37679 l 0.25508,3.27757 0.77966,1.6119 1.07202,1.13781 2.43342,0.59011 0.3411,0.0474 z"
         id="path4053"
         inkscape:connector-curvature="0"
         sodipodi:nodetypes="cssssssccccccc" />
      <path
         inkscape:connector-curvature="0"
         id="path4057"
         d="m -307.91597,332.29679 c 1.43494,-0.27214 2.86828,-0.0582 4.26241,-0.01 1.23951,-0.0718 3.48348,-0.9961 4.09261,0.16103 -1.41187,1.3471 -3.51358,0.88339 -5.42953,1.01367 -1.03029,-0.27069 -1.80243,-0.99768 -2.92549,-1.16491 z"
         style="opacity:0.67315201;fill:#000000;stroke:#000000;stroke-width:1px;stroke-linecap:butt;stroke-linejoin:miter;stroke-opacity:1" />
      <path
         inkscape:connector-curvature="0"
         id="path4059"
         d="m -328.49217,331.32487 c -1.82011,-0.71371 -3.85779,-0.49383 -5.69129,-1.11075 -0.22608,-0.75273 -1.70431,-0.12621 -0.56922,0.38222 1.44354,0.67125 2.95276,0.75272 4.33686,1.29953 0.96503,0.3344 1.12457,-0.59781 1.92365,-0.571 z"
         style="opacity:0.67315201;fill:#000000;stroke:#000000;stroke-width:1px;stroke-linecap:butt;stroke-linejoin:miter;stroke-opacity:1" />
      <path
         inkscape:connector-curvature="0"
         id="path4061"
         d="m -303.82992,321.46692 c 1.51839,0.29197 1.65091,1.99702 2.57993,2.78723 0.88592,1.12341 2.74939,1.0993 3.39841,0.11588 0.66634,1.89034 -2.17415,2.67164 -3.34653,1.47078 -0.79109,-1.40316 -1.7139,-2.65227 -2.41479,-4.13143 -0.22104,-0.34365 -0.47215,-0.67788 -0.80074,-0.93668"
         style="opacity:0.67315201;fill:#000000;stroke:#000000;stroke-width:1px;stroke-linecap:butt;stroke-linejoin:miter;stroke-opacity:1" />
      <path
         inkscape:connector-curvature="0"
         id="path4063"
         d="m -333.01602,322.85537 c 1.25086,0.0862 -0.72726,0.042 0.29186,-0.55538 -1.21838,-0.38003 0.49869,0.68565 -0.80125,0.42859 -1.7021,0.0697 -2.11239,2.92808 -4.27076,2.04061 -1.19942,0.15204 0.33705,2.04938 0.86248,0.80049 1.73222,-0.44066 2.76342,-1.62768 3.92785,-2.86268 l 0.24001,-0.26556 0.18761,-0.28029"
         style="opacity:0.67315201;fill:#000000;stroke:#000000;stroke-width:1px;stroke-linecap:butt;stroke-linejoin:miter;stroke-opacity:1" />
      <path
         inkscape:connector-curvature="0"
         id="path4065"
         d="m -324.69798,319.66195 c -0.27938,-0.88605 -0.84182,-3.37893 0.47417,-3.45817 0.95962,0.92796 0.90615,2.87514 0.39213,3.81952 -0.28075,-0.13717 -0.57418,-0.2485 -0.8663,-0.36135 z"
         style="opacity:0.67315201;fill:#000000;stroke:#000000;stroke-width:1px;stroke-linecap:butt;stroke-linejoin:miter;stroke-opacity:1" />
      <path
         inkscape:connector-curvature="0"
         id="path4067"
         d="m -314.04505,314.94124 c -1.09315,0.76488 -0.92201,2.74239 -0.81219,4.10509 1.06849,1.64048 1.95659,-1.33453 1.31234,-2.24149 -0.10128,-0.69862 -1.02543,-1.11858 -0.50015,-1.8636 z"
         style="opacity:0.67315201;fill:#000000;stroke:#000000;stroke-width:1px;stroke-linecap:butt;stroke-linejoin:miter;stroke-opacity:1" />
      <path
         inkscape:connector-curvature="0"
         id="path4069"
         d="m -322.21716,312.99742 c 0.26337,1.50506 0.39337,3.10934 0.95906,4.51013 0.76425,0.55587 0.38762,-1.88938 0.14316,-2.41474 -0.52905,-0.68115 -0.4052,-1.54171 -1.10222,-2.09539 z"
         style="opacity:0.67315201;fill:#000000;stroke:#000000;stroke-width:1px;stroke-linecap:butt;stroke-linejoin:miter;stroke-opacity:1" />
      <path
         inkscape:connector-curvature="0"
         id="path4071"
         d="m -317.10959,312.85858 c -0.092,0.17611 -0.0629,0.4011 -0.20102,0.55436 -0.26337,0.0206 -0.0127,-0.28868 0.0778,-0.37182 0.054,-0.0425 0.24384,-0.28458 0.0796,-0.13299 -0.24002,0.28866 -0.49787,0.5705 -0.67676,0.89881 -0.0834,0.13933 0.13168,0.359 -0.0418,0.44927 -0.23398,-0.0633 -0.16219,0.30504 -0.21101,0.4438 -0.0741,0.58537 -0.0411,1.17529 -0.0484,1.76324 0,0.32573 0,0.65146 0,0.97719 -0.0678,-0.18575 0.008,-0.37101 0.23258,-0.36881 0.13393,-0.0112 -0.0115,-0.30731 0.10032,-0.13884 0.2009,10e-4 0.006,-0.28377 0.25083,-0.18657 0.037,-0.10406 -0.0986,-0.36273 0.13119,-0.26964 0.0624,-0.15476 0.0472,-0.34794 0.0757,-0.51784 0.0281,-0.24652 0.0418,-0.49533 0.085,-0.73981 0.25393,0.0829 0.11196,-0.2295 0.126,-0.3674 -0.11317,-0.30565 0.39202,-0.2013 0.36673,-0.47653 0.0103,-0.42567 -0.1333,-0.83823 -0.25272,-1.24377 -0.0298,-0.0914 -0.0594,-0.18284 -0.0941,-0.27265 z"
         style="opacity:0.645914;fill:#000000;stroke:#000000;stroke-width:1px;stroke-linecap:butt;stroke-linejoin:miter;stroke-opacity:1" />
      <path
         inkscape:connector-curvature="0"
         id="path4073"
         d="m -322.07123,310.35937 c 0.1946,0.23221 0.33529,0.52945 0.29186,0.83307"
         style="opacity:0.67315201;fill:none;stroke:#000000;stroke-width:1px;stroke-linecap:butt;stroke-linejoin:miter;stroke-opacity:1" />
      <path
         inkscape:connector-curvature="0"
         id="path4075"
         d="m -320.32007,309.94284 c 0.44225,0.70975 0.29187,1.55705 0.29187,2.36036"
         style="fill:none;stroke:#000000;stroke-width:1px;stroke-linecap:butt;stroke-linejoin:miter;stroke-opacity:1" />
      <path
         inkscape:connector-curvature="0"
         id="path4077"
         d="m -317.10959,308.97093 c -0.65784,0.66801 0.12052,1.78484 -0.72965,2.36036"
         style="opacity:0.67315201;fill:none;stroke:#000000;stroke-width:1px;stroke-linecap:butt;stroke-linejoin:miter;stroke-opacity:1" />
      <path
         inkscape:connector-curvature="0"
         id="path4079"
         d="m -315.35842,310.08169 c 0.35586,0.49737 0.009,1.14548 0.29185,1.66614"
         style="opacity:0.67315201;fill:none;stroke:#000000;stroke-width:1px;stroke-linecap:butt;stroke-linejoin:miter;stroke-opacity:1" />
      <path
         inkscape:connector-curvature="0"
         id="path4081"
         d="m -319.00669,309.52631 c 0.46985,0.61957 -0.0555,1.18758 -0.14593,1.80498"
         style="opacity:0.67315201;fill:none;stroke:#000000;stroke-width:1px;stroke-linecap:butt;stroke-linejoin:miter;stroke-opacity:1" />
      <path
         style="opacity:0.61478601;fill:#000000;stroke:#000000;stroke-width:1px;stroke-linecap:butt;stroke-linejoin:miter;stroke-opacity:1"
         d="m -371.11169,332.46615 c -1.47769,0.11913 -3.11053,-0.42941 -4.37054,0.62804 -0.88865,0.42105 -1.16669,1.25442 -2.12599,1.52774 -1.09105,0.78453 -1.98478,2.07356 -2.93235,3.18921 -1.02559,0.76241 -1.7227,1.6885 -2.68475,2.50092 -0.52562,1.35296 -2.01268,2.01998 -2.7068,3.37414 -0.87948,1.01314 -1.34842,2.25891 -2.03208,3.41273 -1.09815,1.09099 -1.43723,2.88965 -1.47839,4.32031 -0.29123,1.39583 -0.0801,2.75135 -0.033,4.14503 1.1e-4,1.68378 0.004,3.36756 5.5e-4,5.05133 -1.04616,1.04161 0.0436,2.61154 0.17344,3.82665 0.0388,0.96127 1.45645,2.08241 0.84753,2.95945 -0.32172,-0.54772 -0.12483,0.19961 0.0176,-0.64645 0.90791,-1.09883 2.3892,-1.57607 1.96509,-3.32165 0.042,-1.81555 -0.0823,-3.64597 0.008,-5.45185 0.64284,-1.21447 0.74001,-2.51721 0.91203,-3.8251 -0.11132,-1.69656 0.99022,-2.89505 1.60166,-4.34048 0.61452,-1.44425 1.58615,-2.74742 2.13253,-4.19481 0.89987,-1.2733 0.41884,-3.08459 1.65313,-4.17372 0.89843,-0.94673 1.32178,-2.0672 1.70765,-3.25022 0.95121,-1.02111 1.48876,-2.6997 3.01534,-3.18272 0.90572,-0.14618 1.86001,-0.47317 2.37167,-1.03569 0.95283,-0.0599 1.23444,-1.07164 1.95751,-1.51286 z"
         id="path3018"
         inkscape:connector-curvature="0" />
      <path
         inkscape:connector-curvature="0"
         id="path3020"
         d="m -362.63633,333.84772 c -0.89059,-0.12969 -0.78458,1.47133 -1.70265,1.29984 -1.32769,1.14257 -2.2796,2.56101 -2.54695,4.2786 -0.68267,1.31116 -1.38824,2.59629 -1.83039,4.00556 -0.57391,1.09348 -1.29417,2.0561 -1.77877,3.1884 -0.47983,1.38139 -0.94398,2.81541 -1.0158,4.27515 0.25833,1.60574 -0.74621,3.01892 -0.6914,4.61216 0.23637,1.57048 -0.55541,2.91744 -0.96967,4.36408 -0.17274,1.59491 0.049,3.22574 -0.22854,4.81515 -0.027,1.52776 -0.46396,3.35638 0.5785,4.64614 1.25597,1.00591 2.79263,-0.46056 2.9063,-1.74025 -0.0292,-1.69368 0.54756,-3.26084 0.59541,-4.93624 0.0756,-1.77408 0.2436,-3.52781 0.0829,-5.30498 0.42062,-1.45515 0.48891,-2.98576 0.8901,-4.45026 0.38737,-1.70825 0.29714,-3.54157 1.14164,-5.13865 0.72103,-1.49914 0.16616,-3.26603 0.99243,-4.70434 0.64151,-1.26187 1.37688,-2.44669 2.04888,-3.69004 0.42625,-1.23831 1.12972,-2.33082 1.30386,-3.65129 0.43258,-0.64021 0.52111,-1.14064 0.22418,-1.86903 z"
         style="opacity:0.61478601;fill:url(#linearGradient5560);fill-opacity:1;stroke:none" />
      <path
         sodipodi:nodetypes="ccccccccccccccccccccc"
         inkscape:connector-curvature="0"
         id="path3022"
         d="m -353.29886,338.93131 c -0.24508,1.52808 -0.12477,3.15143 -0.74824,4.59651 -0.72795,0.92375 -0.23111,2.25353 -0.82014,3.2721 -0.3911,1.11009 -0.68106,2.34718 -1.13013,3.32508 -0.34362,1.29735 -1.08816,2.4709 -1.44627,3.76165 -0.96494,0.88449 -0.73499,2.1363 -0.98308,3.27668 -0.57556,1.29866 -0.54801,2.67988 -0.67069,4.07991 0.0582,1.55872 -0.86067,3.00018 -0.57809,4.57138 -0.13153,1.19562 0.27936,2.33932 0.22748,3.4984 -0.0488,0.63049 -0.0512,1.35025 0.63663,0.75948 1.19573,-0.69925 1.38075,-2.3064 1.29482,-3.56806 0.0292,-1.27708 0.42683,-2.485 0.64778,-3.73567 -0.24875,-2.02871 -0.0393,-4.09507 -0.14715,-6.13927 0.24052,-1.43717 0.29892,-2.91102 0.98567,-4.18028 0.3057,-1.33101 0.6613,-2.50706 0.87273,-3.73254 0.29447,-1.20841 0.18388,-2.65991 1.01885,-3.68611 0.31643,-0.98264 0.97173,-1.77696 1.43595,-2.64028 0.36984,-1.05715 0.78246,-2.08404 0.91767,-3.19987 0.35012,-1.01298 0.90628,-2.07886 0.1982,-3.09651 -0.10098,-0.27524 -0.1519,-0.57348 0.4276,-0.77827 -0.63547,1.06379 -2.36236,1.83148 -2.13959,3.61567 z"
         style="opacity:0.61478601;fill:url(#linearGradient5557);fill-opacity:1;stroke:none" />
      <path
         sodipodi:nodetypes="cccccccccccccccccccccccc"
         inkscape:connector-curvature="0"
         id="path3026"
         d="m -377.4682,324.34944 c -1.13107,0.23857 -2.22932,-0.48148 -3.35483,-0.17269 -0.32897,0.40284 -0.98894,0.0826 -1.46762,0.17207 -1.7912,-0.009 -3.58724,0.0243 -5.37518,-0.0212 -0.64466,0.0445 -1.02061,0.54695 -1.29368,0.87466 -0.34506,-0.006 -0.91474,0.041 -0.64823,0.44657 -0.2793,0.16293 -0.53323,0.15715 -0.3734,0.37139 -0.55529,0.25273 -0.25348,1.13137 0.22663,1.37803 0.65616,-0.0345 0.84992,-0.78352 1.41742,-0.61389 0.19345,0.68408 1.10303,0.76122 1.6943,0.73108 0.70482,-0.17741 2.3982,0.0475 3.07995,-0.0639 0.93454,-0.0199 1.03113,0.90836 1.96597,1.0243 0.42867,-0.17526 1.30642,-0.86305 1.95072,-0.25164 0.38575,0.42885 0.99279,-0.0927 1.65384,0.0806 0.79346,0.29052 0.35884,0.42892 1.17357,0.56966 0.3934,-0.14435 0.46165,-0.52397 0.92456,-0.57159 0.28767,-0.33189 0.47112,-0.78661 0.69272,-0.94479 0.0698,-0.51052 0.67368,-0.86194 0.78237,-1.32871 -0.0568,-0.35576 0.11449,-0.86117 -0.36887,-0.86412 -0.0727,-0.19369 -0.20938,-0.22816 -0.25608,-0.0525 -0.0264,-0.26503 -0.23004,-0.51694 -0.45635,-0.45407 -0.002,-0.63241 -0.98871,-0.20303 -1.47221,-0.31421 -0.16518,0.002 -0.33045,0.004 -0.4956,0.005 z"
         style="opacity:0.61478601;fill:#000000;stroke:#000000;stroke-width:1px;stroke-linecap:butt;stroke-linejoin:miter;stroke-opacity:1" />
      <path
         style="opacity:0.52140096;fill:url(#linearGradient5553);fill-opacity:1;stroke:none"
         d="m -408.63463,371.3065 c -0.69215,0.0831 -0.52593,0.97481 0.91171,3.1084 3.6254,7.23237 3.03638,3.78142 3.40978,5.64375 0.99842,1.70762 2.85971,2.99971 4.33973,4.23715 1.38583,0.38775 1.74373,1.89192 3.08157,2.34433 0.60423,1.99026 3.73608,1.09114 4.95968,2.39642 1.88637,0.63284 3.45923,1.09094 5.2332,2.01438 1.1207,1.39587 3.97826,0.57912 5.12379,1.89283 1.93144,0.46271 3.50237,0.0484 5.47024,0.34731 1.87551,0.91156 4.18026,0.32401 6.25431,0.55569 2.10886,-0.0673 4.10699,1.0511 6.18137,0.65988 1.58077,-0.44576 2.84864,0.94508 3.00863,-1.33713 0.0712,0.35874 0.15588,0.71202 0.21881,1.04192 3.32518,0.2832 9.5617,0.60384 9.9923,-3.92457 -1.22476,-2.08338 -6.54432,-2.93255 -8.97119,-2.88266 -1.66437,1.85793 -1.56335,4.0418 -1.27639,5.57429 -3.92822,0.0545 -2.40174,-0.0579 -4.4856,-0.43414 -2.37783,-0.33559 -4.93328,0.32896 -7.29365,-0.0695 -1.93505,-0.2851 -3.7409,-0.51606 -5.72552,-0.3994 -1.08998,-0.27532 -2.14864,-0.83337 -3.20921,-1.33713 0.50344,0.1283 1.17345,-0.16028 1.36756,-0.88564 0.88212,-1.09481 1.5003,-2.37997 2.53455,-3.35152 0.49028,-0.10747 -0.48929,-0.58235 -0.67466,-0.41677 -1.70588,0.47726 -3.08424,1.87442 -3.738,3.42098 -0.18074,0.55203 -0.0313,0.92367 0.25528,1.11139 -0.62008,-0.28673 -1.24027,-0.55809 -1.87812,-0.71198 -1.78702,-0.65912 -3.3904,-1.77713 -5.3426,-2.15331 -1.59017,-0.54329 -2.20053,-2.15278 -3.9021,-2.58744 -0.0601,-0.05 -0.11924,-0.0957 -0.18235,-0.13892 0.88596,0.24321 1.98328,-0.54232 2.1881,-1.31977 0.0642,-0.23138 0.091,-0.47314 0.0729,-0.71198 -1.42666,0.006 -2.76974,-0.13973 -3.17274,1.12875 0.12031,0.29701 0.2773,0.50792 0.45585,0.65988 -1.06452,-0.47558 -2.37263,-0.38661 -3.30038,-1.19821 -1.10898,-1.31349 -2.09048,-1.62748 -2.88099,-3.07367 -0.53451,-1.4329 -1.88473,-1.80408 -2.9904,-3.24733 -0.0728,-1.56754 -1.46163,-2.66761 -1.82341,-4.16769 -1.96626,-1.13996 -3.51994,-1.87177 -4.21209,-1.78863 z m 23.5038,13.02403 c -0.0938,-0.004 -0.227,0.032 -0.38292,0.12156 l -0.18234,0.22575 c -0.96479,1.21117 -1.88642,1.00636 -2.60748,2.39642 0.77034,1.82632 1.78007,0.68676 2.46161,-0.31258 0.60401,-0.35953 1.36767,-2.40559 0.71113,-2.43115 z m 12.54509,2.17067 c -1.20066,1.01362 -2.19844,2.43517 -2.29751,3.99404 0.16734,1.59114 1.60795,1.05156 1.91459,-0.10419 -0.5606,-1.07862 0.29771,-2.86651 0.58349,-3.82039 l -0.20057,-0.0695 z m 6.18137,0.69462 -0.30998,0.0521 -0.27352,0.13892 c -1.01007,1.02919 -0.61294,2.57374 -0.83877,3.85511 -0.81213,1.07941 0.87189,1.51849 0.92994,0.27785 0.18865,-1.41849 -0.56798,-3.12129 0.49233,-4.32398 z"
         id="path3030"
         inkscape:connector-curvature="0" />
      <path
         sodipodi:nodetypes="ccccccscc"
         transform="matrix(0.0805797,-0.0676613,0.116568,0.00781826,-393.341,291.087)"
         inkscape:connector-curvature="0"
         id="path5535"
         d="m -404.63967,430.58622 c -7.22522,60.45799 -68.14504,117.51963 -99.8229,169.59802 -19.41029,18.82867 -3.53527,-18.01149 -1.14082,-38.60897 -5.9375,-37.58788 10.83889,-64.33111 -16.2604,-94.8629 -26.49103,-30.92684 -68.19843,-43.60478 -107.75613,-44.87157 -19.10289,0.50902 -41.07943,-19.61863 -25.69808,-38.03632 15.42318,-19.53871 50.35169,-48.8372 102.10481,-82.13686 46.78832,-30.10515 78.65674,-26.32487 122.33321,-5.71657 34.82596,18.12507 37.41386,86.93195 26.24031,134.63517 z"
         style="opacity:0.68093399;fill:url(#linearGradient5538);fill-opacity:1;stroke:none;filter:url(#filter5552)" />
      <path
         style="fill:url(#linearGradient5540);fill-opacity:1;stroke:none;filter:url(#filter4450)"
         d="m 30.95217,544.0924 c 19.789874,53.87612 -118.830951,61.78226 -243.09502,61.78226 -124.26407,0 -267.645,-16.84294 -260.95119,-44.52356 13.48489,-55.76344 5.16423,-121.55915 63.03202,-138.92506 119.1461,-35.7553 98.68109,-33.62922 160.68102,-31.22851 49.27234,1.90789 93.86294,-1.82401 183.122889,36.136 71.4624342,30.39117 64.7424479,28.36815 97.210281,116.75887 z"
         id="path4109"
         inkscape:connector-curvature="0"
         sodipodi:nodetypes="sssssss"
         transform="matrix(0.0802514,0,0,0.116941,-376.937,287.644)" />
      <path
         inkscape:connector-curvature="0"
         id="path3024"
         d="m -395.65492,342.13713 c -1.19646,0.29756 -2.62864,-0.50742 -3.67268,0.26444 -0.7105,0.22962 -1.13136,1.11094 -1.53151,1.72586 -0.26367,0.35085 -0.84672,1.25502 -0.94194,1.30054 -0.24124,0.38028 -0.0304,1.1216 -0.52358,1.30094 -0.10795,-0.23457 -0.003,1.09075 -0.0612,1.42264 -0.065,1.99406 -0.15072,4.00381 0.23676,5.97843 -0.19081,0.84854 0.034,1.67834 0.33897,2.48518 -0.30378,0.82863 0.0724,1.36063 0.68151,1.92809 0.087,0.81348 0.30453,1.62432 0.49033,2.42984 -0.0333,0.26389 0.18844,0.81545 0.60827,0.98652 -0.17603,0.80092 0.5322,1.13745 0.74432,1.94969 0.75948,0.17148 0.51642,0.97204 1.07048,1.1964 0.3025,0.48391 1.26428,0.68941 1.69245,1.2752 0.44922,0.53003 1.26704,1.47945 1.79878,0.48995 0.50959,-0.68349 0.79238,-1.38641 0.86901,-2.15846 0.009,-0.96233 0.042,-1.92721 -0.0343,-2.88792 -0.72449,-0.77954 -0.31165,-1.80797 -0.34613,-2.71047 0.22534,-1.0295 -0.192,-1.98622 -0.25957,-2.9909 0.11632,-2.68064 0.0719,-5.36421 0.0694,-8.04613 0.23005,-0.6247 0.24491,-1.41557 0.21827,-2.2411 -0.8329,-0.37525 -0.29301,-1.37017 -0.35637,-2.03682 0.22757,-0.79502 -0.40524,-1.06581 -0.20846,-1.83462 -0.30773,0.001 -0.58866,0.11556 -0.88285,0.1727 z"
         style="opacity:0.61478601;fill:url(#linearGradient5548);fill-opacity:1;stroke:none" />
      <path
         sodipodi:nodetypes="cccccccc"
         transform="matrix(0.625821,0,0,0.585174,-157.881,119.861)"
         inkscape:connector-curvature="0"
         id="path4226"
         d="m -346.3125,429.625 c 4.53036,8.28486 14.04514,12.23363 22.375,15.8125 11.87021,1.34448 23.15608,4.24192 34.59375,2.34375 5.04143,-2.23531 13.12161,-1.80249 15.09375,-8 1.46274,-3.90833 -3.35608,-6.45054 -6.59375,-4.875 -13.87469,1.22422 -28.11328,0.92079 -41.6875,-1.96875 -6.74154,-3.59561 -14.37659,-3.46263 -21.53125,-6.28125 -4.96261,-0.96895 -6.86781,-3.91909 -2.25,2.96875 z"
         style="fill:url(#linearGradient5544);fill-opacity:1;stroke:none;filter:url(#filter4246)" />
    </g>
  </g>
</svg>
