<?xml version="1.0" encoding="UTF-8" standalone="no"?>
<!-- Created with Inkscape (http://www.inkscape.org/) -->

<svg
   xmlns:dc="http://purl.org/dc/elements/1.1/"
   xmlns:cc="http://creativecommons.org/ns#"
   xmlns:rdf="http://www.w3.org/1999/02/22-rdf-syntax-ns#"
   xmlns:svg="http://www.w3.org/2000/svg"
   xmlns="http://www.w3.org/2000/svg"
   xmlns:xlink="http://www.w3.org/1999/xlink"
   xmlns:sodipodi="http://sodipodi.sourceforge.net/DTD/sodipodi-0.dtd"
   xmlns:inkscape="http://www.inkscape.org/namespaces/inkscape"
   width="128.00000px"
   height="128.00000px"
   id="svg2"
   sodipodi:version="0.32"
   inkscape:version="0.48.0 r9654"
   sodipodi:docname="elephant.svg"
   inkscape:export-filename="/home/nicu/Desktop/potato_guy.png"
   inkscape:export-xdpi="90.000000"
   inkscape:export-ydpi="90.000000"
   version="1.1">
  <defs
     id="defs3">
    <linearGradient
       inkscape:collect="always"
       id="linearGradient14422">
      <stop
         style="stop-color: rgb(0, 0, 0); stop-opacity: 1;"
         offset="0"
         id="stop14424" />
      <stop
         style="stop-color: rgb(0, 0, 0); stop-opacity: 0;"
         offset="1"
         id="stop14426" />
    </linearGradient>
    <linearGradient
       inkscape:collect="always"
       id="linearGradient14414">
      <stop
         style="stop-color: rgb(0, 0, 0); stop-opacity: 1;"
         offset="0"
         id="stop14416" />
      <stop
         style="stop-color: rgb(0, 0, 0); stop-opacity: 0;"
         offset="1"
         id="stop14418" />
    </linearGradient>
    <linearGradient
       id="linearGradient2424">
      <stop
         style="stop-color: rgb(222, 193, 100); stop-opacity: 1;"
         offset="0"
         id="stop2426" />
      <stop
         style="stop-color: rgb(213, 168, 100); stop-opacity: 1;"
         offset="1.0000000"
         id="stop2428" />
    </linearGradient>
    <linearGradient
       inkscape:collect="always"
       xlink:href="#linearGradient2424"
       id="linearGradient7610"
       gradientUnits="userSpaceOnUse"
       gradientTransform="translate(84, 5)"
       x1="114.00000"
       y1="112.36218"
       x2="197.00000"
       y2="288.36218" />
    <linearGradient
       inkscape:collect="always"
       xlink:href="#linearGradient14414"
       id="linearGradient14441"
       gradientUnits="userSpaceOnUse"
       x1="359.40097"
       y1="501.27704"
       x2="392.05878"
       y2="543.17145" />
    <linearGradient
       inkscape:collect="always"
       xlink:href="#linearGradient14422"
       id="linearGradient14443"
       gradientUnits="userSpaceOnUse"
       x1="408.05783"
       y1="499.79263"
       x2="448.46774"
       y2="546.30530" />
    <linearGradient
       id="linearGradient912">
      <stop
         id="stop913"
         offset="0.0000000"
         style="stop-color: rgb(255, 255, 255); stop-opacity: 1;" />
      <stop
         id="stop914"
         offset="1.0000000"
         style="stop-color: rgb(255, 255, 255); stop-opacity: 0;" />
    </linearGradient>
    <radialGradient
       inkscape:collect="always"
       xlink:href="#linearGradient912"
       id="radialGradient17463"
       gradientUnits="userSpaceOnUse"
       gradientTransform="scale(1.02248, 0.978019)"
       cx="44.699298"
       cy="42.720970"
       fx="44.699298"
       fy="42.720970"
       r="12.239094" />
    <filter
       color-interpolation-filters="sRGB"
       inkscape:collect="always"
       id="filter3984"
       x="-0.14601608"
       width="1.2920322"
       y="-0.33653909"
       height="1.6730782">
      <feGaussianBlur
         inkscape:collect="always"
         stdDeviation="8.9477205"
         id="feGaussianBlur3986" />
    </filter>
    <filter
       inkscape:collect="always"
       id="filter3887"
       x="-0.25159967"
       width="1.5031993"
       y="-0.25101879"
       height="1.5020376"
       color-interpolation-filters="sRGB">
      <feGaussianBlur
         inkscape:collect="always"
         stdDeviation="9.4662311"
         id="feGaussianBlur3889" />
    </filter>
    <filter
       inkscape:collect="always"
       id="filter3897"
       x="-0.24129052"
       width="1.482581"
       y="-0.090790667"
       height="1.1815813"
       color-interpolation-filters="sRGB">
      <feGaussianBlur
         inkscape:collect="always"
         stdDeviation="9.4324757"
         id="feGaussianBlur3899" />
    </filter>
    <filter
       inkscape:collect="always"
       id="filter3919"
       x="-0.17854904"
       width="1.3570981"
       y="-0.14020072"
       height="1.2804013"
       color-interpolation-filters="sRGB">
      <feGaussianBlur
         inkscape:collect="always"
         stdDeviation="9.6836866"
         id="feGaussianBlur3921" />
    </filter>
    <filter
       color-interpolation-filters="sRGB"
       inkscape:collect="always"
       id="filter3968"
       x="-0.68884802"
       width="2.377696"
       y="-0.32676128"
       height="1.6535225">
      <feGaussianBlur
         inkscape:collect="always"
         stdDeviation="12.694121"
         id="feGaussianBlur3970" />
    </filter>
    <filter
       color-interpolation-filters="sRGB"
       inkscape:collect="always"
       id="filter3994"
       x="-0.83721524"
       width="2.6744306"
       y="-0.39714062"
       height="1.7942812">
      <feGaussianBlur
         inkscape:collect="always"
         stdDeviation="15.42824"
         id="feGaussianBlur3996" />
    </filter>
  </defs>
  <sodipodi:namedview
     id="base"
     pagecolor="#ffffff"
     bordercolor="#666666"
     borderopacity="1.0"
     inkscape:pageopacity="0.0"
     inkscape:pageshadow="2"
     inkscape:zoom="1"
     inkscape:cx="252.66113"
     inkscape:cy="-45.991297"
     inkscape:document-units="px"
     inkscape:current-layer="layer1"
     inkscape:window-width="1152"
     inkscape:window-height="700"
     inkscape:window-x="0"
     inkscape:window-y="37"
     showguides="true"
     inkscape:guide-bbox="true"
     showgrid="false"
     inkscape:window-maximized="0" />
  <g
     inkscape:label="Layer 1"
     inkscape:groupmode="layer"
     id="layer1">
    <path
       style="fill:#4d4d4d;stroke:none"
       d="m 43.931583,79.842544 c 0,0.946629 -0.300951,29.503186 -0.300951,29.503186 l 18.35805,0.47331 -1.203806,-29.187638 z"
       id="path3770"
       inkscape:connector-curvature="0" />
    <path
       inkscape:connector-curvature="0"
       id="path3766"
       d="m 17.297369,79.369231 c 0,0.946629 -0.300954,29.503189 -0.300954,29.503189 l 18.358046,0.47331 -1.203805,-29.187644 z"
       style="fill:#4d4d4d;stroke:none" />
    <path
       sodipodi:nodetypes="csssc"
       inkscape:connector-curvature="0"
       id="path2991"
       d="m 84.026017,56.049884 c 0,0 0.03007,-56.35618777 -10.197468,-36.919852 C 63.601017,38.566361 53.400069,44.424902 53.226585,42.727246 53.053103,41.02959 65.865853,125.92257 70.214482,105.09511 74.56311,84.267648 84.026017,56.049884 84.026017,56.049884 z"
       style="fill:#666666;stroke:#000000;stroke-width:0.11326194px;stroke-linecap:butt;stroke-linejoin:miter;stroke-opacity:1" />
    <path
       style="fill:#b3b3b3;stroke:#000000;stroke-width:2.14824939;stroke-linecap:butt;stroke-linejoin:miter;stroke-miterlimit:4;stroke-opacity:1;stroke-dasharray:none"
       d="m 83.106962,47.753747 c 0,0 11.733852,12.082165 13.689493,10.396281 1.955642,-1.685883 1.955642,-1.966864 1.955642,-1.966864 0,0 -7.822566,-6.181574 -7.822566,-8.429417 0,-2.247847 -7.822569,0 -7.822569,0 z"
       id="path3780"
       inkscape:connector-curvature="0" />
    <path
       style="fill:#808080;fill-rule:evenodd;stroke:#000000;stroke-width:1.29427409;stroke-linecap:butt;stroke-linejoin:miter;stroke-miterlimit:4;stroke-opacity:1;stroke-dasharray:none"
       d="m 67.10486,12.316418 c -14.958991,0 -27.08377,11.157607 -27.08377,24.924864 0,2.099232 0.285466,4.140138 0.81633,6.08799 -0.963978,-0.07077 -1.935406,-0.110439 -2.922987,-0.110439 -17.131783,0 -31.0205948,10.886099 -31.0205948,24.317449 0,13.431346 13.8888118,24.317441 31.0205948,24.317441 17.131779,0 31.02059,-10.886095 31.02059,-24.317441 0,-1.849511 -0.264778,-3.652662 -0.763665,-5.383939 10.265136,-0.365928 19.067273,-5.98843 23.311529,-14.025845 2.207732,-0.04343 5.978311,0.768231 5.115231,7.102655 -1.203805,8.835177 1.653358,9.784765 11.283802,14.833436 6.56188,3.439998 9.25972,0.345368 11.75123,-4.486613 1.16512,-2.259621 4.95065,-2.298529 4.95065,-2.298529 l -1.50099,-11.202729 c 0,0 -5.41996,-0.002 -7.82757,6.30887 -2.40761,6.31084 -12.33996,-2.209782 -11.73806,-16.724717 C 104.11909,27.143936 89.9753,23.677904 89.9753,23.677904 l 0,0.207075 C 85.169449,16.931084 76.722889,12.316418 67.10486,12.316418 z"
       id="path2985"
       inkscape:connector-curvature="0" />
    <path
       sodipodi:type="arc"
       style="fill:#ffffff;fill-opacity:1;stroke:none"
       id="path3772"
       sodipodi:cx="555"
       sodipodi:cy="557.36218"
       sodipodi:rx="29.285715"
       sodipodi:ry="36.42857"
       d="m 584.28572,557.36218 a 29.285715,36.42857 0 1 1 -58.57144,0 29.285715,36.42857 0 1 1 58.57144,0 z"
       transform="matrix(0.21066615,0,0,0.22087945,-41.087164,-97.382849)" />
    <path
       style="fill:#000000;fill-opacity:1;stroke:none"
       d="m 77.034136,22.444072 c -1.796479,0.140399 -3.219242,1.791459 -3.219242,3.81017 0,2.110795 1.550546,3.823976 3.462824,3.823976 1.673244,0 3.074127,-1.309308 3.396992,-3.050899 -0.08195,0.0063 -0.160159,0.0138 -0.243583,0.0138 -1.912278,0 -3.462824,-1.71318 -3.462824,-3.823976 0,-0.266197 0.01891,-0.522222 0.06583,-0.773077 z"
       id="path3775"
       inkscape:connector-curvature="0" />
    <path
       style="fill:#999999;fill-opacity:1;stroke:#000000;stroke-width:1.29427409;stroke-miterlimit:4;stroke-opacity:1;stroke-dasharray:none"
       d="m 40.771588,79.369231 c 0,0.946629 -0.300945,29.503189 -0.300945,29.503189 l 18.358046,0.47331 -1.203806,-29.187644"
       id="path3768"
       inkscape:connector-curvature="0"
       sodipodi:nodetypes="cccc" />
    <path
       style="fill:#999999;stroke:#000000;stroke-width:1.29427409;stroke-linecap:butt;stroke-linejoin:miter;stroke-miterlimit:4;stroke-opacity:1;stroke-dasharray:none"
       d="m 11.729765,79.684776 c 0,0.946626 -0.300953,29.503184 -0.300953,29.503184 l 18.358037,0.47331 -1.203805,-29.187638"
       id="path3764"
       inkscape:connector-curvature="0"
       sodipodi:nodetypes="cccc" />
    <path
       inkscape:connector-curvature="0"
       id="path3782"
       d="m 81.301082,49.264432 c 0,0 9.149453,16.187087 10.674354,13.928422 1.524918,-2.25866 1.524918,-2.635106 1.524918,-2.635106 0,0 -6.099638,-8.281766 -6.099638,-11.293316"
       style="fill:#ffffff;stroke:#000000;stroke-width:2.19571447;stroke-linecap:butt;stroke-linejoin:miter;stroke-miterlimit:4;stroke-opacity:1;stroke-dasharray:none"
       sodipodi:nodetypes="cscc" />
    <path
       style="fill:#808080;stroke:#000000;stroke-width:1.29427409;stroke-linecap:butt;stroke-linejoin:miter;stroke-miterlimit:4;stroke-opacity:1;stroke-dasharray:none"
       d="m 13.375842,52.350095 c 0,0 -0.08903,-5.787498 -6.3211654,-2.987095 -6.23212689,2.800402 -3.5612226,8.027817 -4.8076446,8.027817 -1.246422,0 -1.246422,-0.186694 -1.246422,-0.186694 l 0.3561206,2.987096 c 0,0 0.7122411,1.12016 1.4244823,-0.560081 0.7122411,-1.680239 -0.1780519,-7.65443 3.0270417,-6.720962 3.2050936,0.933466 3.5166949,5.274087 3.5166949,5.274087"
       id="path3786"
       inkscape:connector-curvature="0"
       sodipodi:nodetypes="cssccssc" />
    <path
       style="fill:none;stroke:#000000;stroke-width:2.2363553;stroke-linecap:butt;stroke-linejoin:miter;stroke-miterlimit:4;stroke-opacity:1;stroke-dasharray:none"
       d="m 85.297569,54.668177 c 0,0 -5.913889,0 -7.506089,-2.618027 -1.592203,-2.618022 -1.592203,-2.618022 -1.592203,-2.618022"
       id="path3788"
       inkscape:connector-curvature="0" />
    <g
       transform="matrix(0.21066615,0,0,0.22087945,-17.161598,-35.22098)"
       id="g3796">
      <path
         inkscape:connector-curvature="0"
         id="path3790"
         d="m 194.27676,646.80634 c 0,0 -10.90759,-15.73835 -14.30302,-8.69262 -3.39544,7.04573 -3.91565,9.54541 -3.91565,9.54541"
         style="fill:#ffffff;stroke:#000000;stroke-width:1px;stroke-linecap:butt;stroke-linejoin:miter;stroke-opacity:1" />
      <path
         style="fill:#ffffff;stroke:#000000;stroke-width:0.90144402px;stroke-linecap:butt;stroke-linejoin:miter;stroke-opacity:1"
         d="m 217.48808,647.404 c 0,0 -8.86352,-15.73835 -11.62265,-8.69262 -2.75915,7.04573 -3.18187,9.54541 -3.18187,9.54541"
         id="path3792"
         inkscape:connector-curvature="0" />
      <path
         style="fill:#ffffff;stroke:#000000;stroke-width:1px;stroke-linecap:butt;stroke-linejoin:miter;stroke-opacity:1"
         d="m 167.97944,646.50751 c 0,0 -10.90759,-15.73835 -14.30302,-8.69262 -3.39544,7.04573 -3.91565,9.54541 -3.91565,9.54541"
         id="path3794"
         inkscape:connector-curvature="0" />
    </g>
    <path
       inkscape:connector-curvature="0"
       id="path3803"
       d="m 48.760643,107.64524 c 0,0 2.29786,-3.47628 3.013163,-1.92002 0.715304,1.55626 0.824894,2.10839 0.824894,2.10839"
       style="fill:#ffffff;stroke:#000000;stroke-width:0.21571235px;stroke-linecap:butt;stroke-linejoin:miter;stroke-opacity:1" />
    <path
       style="fill:#ffffff;stroke:#000000;stroke-width:0.19445263px;stroke-linecap:butt;stroke-linejoin:miter;stroke-opacity:1"
       d="m 43.870804,107.77726 c 0,0 1.867244,-3.47628 2.448499,-1.92002 0.581259,1.55626 0.670312,2.10838 0.670312,2.10838"
       id="path3805"
       inkscape:connector-curvature="0" />
    <path
       style="fill:#ffffff;stroke:#000000;stroke-width:0.21571235px;stroke-linecap:butt;stroke-linejoin:miter;stroke-opacity:1"
       d="m 54.300599,107.57924 c 0,0 2.29786,-3.47628 3.013163,-1.92002 0.715304,1.55626 0.824895,2.10838 0.824895,2.10838"
       id="path3807"
       inkscape:connector-curvature="0" />
    <path
       style="fill:#808080;stroke:#000000;stroke-width:0.21571235px;stroke-linecap:butt;stroke-linejoin:miter;stroke-opacity:1"
       d="m 30.776492,107.83194 c 0,0 2.297865,-3.47628 3.013162,-1.92001 0.715305,1.55624 0.824898,2.10838 0.824898,2.10838"
       id="path3812"
       inkscape:connector-curvature="0" />
    <path
       style="fill:#b3b3b3;stroke:#000000;stroke-width:1.29427409;stroke-linecap:butt;stroke-linejoin:miter;stroke-miterlimit:4;stroke-opacity:1;stroke-dasharray:none"
       d="m 46.605649,42.853463 c -0.173481,-1.697656 12.639268,83.195327 16.987898,62.367857 4.348628,-20.827454 13.811534,-49.045219 13.811534,-49.045219 0,0 2.359366,-42.560914 -12.086088,-35.2697"
       id="path2989"
       inkscape:connector-curvature="0"
       sodipodi:nodetypes="cscc" />
    <path
       style="fill:#000000;stroke:#000000;stroke-width:0.21571235px;stroke-linecap:butt;stroke-linejoin:miter;stroke-opacity:1"
       d="m 94.482564,26.02632 -1.246422,3.360481 3.205093,-2.240321 z"
       id="path3816"
       inkscape:connector-curvature="0" />
    <path
       style="fill:#000000;stroke:#000000;stroke-width:0.21571235px;stroke-linecap:butt;stroke-linejoin:miter;stroke-opacity:1"
       d="m 100.00245,29.760188 -1.780603,2.613708 2.848973,-0.560081 z"
       id="path3818"
       inkscape:connector-curvature="0" />
    <path
       style="fill:#000000;stroke:#000000;stroke-width:0.21571235px;stroke-linecap:butt;stroke-linejoin:miter;stroke-opacity:1"
       d="m 102.67336,35.734379 -2.31479,2.613706 2.84898,0 z"
       id="path3820"
       inkscape:connector-curvature="0" />
    <path
       style="fill:#000000;stroke:#000000;stroke-width:0.21571235px;stroke-linecap:butt;stroke-linejoin:miter;stroke-opacity:1"
       d="m 103.20755,43.015423 -1.95867,2.987095 2.67091,0.746773 -0.53418,-2.427015"
       id="path3822"
       inkscape:connector-curvature="0" />
    <path
       style="fill:#000000;stroke:#000000;stroke-width:0.21571235px;stroke-linecap:butt;stroke-linejoin:miter;stroke-opacity:1"
       d="m 104.27591,51.229934 -1.42449,2.427015 2.84898,-0.373388 z"
       id="path3824"
       inkscape:connector-curvature="0" />
    <path
       style="fill:#000000;stroke:#000000;stroke-width:0.21571235px;stroke-linecap:butt;stroke-linejoin:miter;stroke-opacity:1"
       d="m 106.76877,55.897269 -0.53419,4.107255 2.3148,-2.427014 z"
       id="path3826"
       inkscape:connector-curvature="0" />
    <path
       style="fill:#000000;stroke:#000000;stroke-width:0.21571235px;stroke-linecap:butt;stroke-linejoin:miter;stroke-opacity:1"
       d="m 111.75447,60.004524 0.35612,2.987096 -1.78061,-2.800401 z"
       id="path3828"
       inkscape:connector-curvature="0" />
    <path
       style="fill:#000000;stroke:#000000;stroke-width:0.21571235px;stroke-linecap:butt;stroke-linejoin:miter;stroke-opacity:1"
       d="m 115.84987,57.204123 1.78061,1.493549 -0.35612,-4.107256 z"
       id="path3830"
       inkscape:connector-curvature="0" />
    <path
       style="fill:none;stroke:#000000;stroke-width:0.21571235px;stroke-linecap:butt;stroke-linejoin:miter;stroke-opacity:1"
       d="m 119.94527,53.096867 0.71224,3.17379 1.24643,-3.73387 z"
       id="path3832"
       inkscape:connector-curvature="0" />
    <path
       style="fill:#333333;fill-opacity:1;stroke:#000000;stroke-width:1.18495595;stroke-miterlimit:4;stroke-opacity:1"
       d="m 126.18235,59.061218 c 0.11183,2.779814 -1.10847,5.156324 -3.1649,4.847485 -2.05644,-0.308843 -3.6361,-4.492934 -3.74792,-7.272749 -0.11183,-2.779817 1.64265,-5.249672 3.69908,-4.940833 1.11929,0.168098 3.408,1.443574 2.6971,2.612397 -0.81739,1.343945 0.46568,3.486902 0.51664,4.7537 z"
       id="path3834"
       inkscape:connector-curvature="0"
       sodipodi:nodetypes="ssssss" />
    <path
       sodipodi:type="arc"
       style="fill:#000000;fill-opacity:1;stroke:#000000;stroke-width:6;stroke-miterlimit:4;stroke-opacity:1;stroke-dasharray:none"
       id="path3837"
       sodipodi:cx="612.5788"
       sodipodi:cy="584.31732"
       sodipodi:rx="5.705287"
       sodipodi:ry="7.3957424"
       d="m 618.28408,584.31732 a 5.705287,7.3957424 0 1 1 -11.41057,0 5.705287,7.3957424 0 1 1 11.41057,0 z"
       transform="matrix(0.21066615,0,0,0.22087945,-7.2792355,-71.62611)" />
    <path
       transform="matrix(0.21066615,0,0,0.22087945,-4.6082975,-71.066181)"
       d="m 618.28408,584.31732 a 5.705287,7.3957424 0 1 1 -11.41057,0 5.705287,7.3957424 0 1 1 11.41057,0 z"
       sodipodi:ry="7.3957424"
       sodipodi:rx="5.705287"
       sodipodi:cy="584.31732"
       sodipodi:cx="612.5788"
       id="path3839"
       style="fill:#000000;fill-opacity:1;stroke:#000000;stroke-width:6;stroke-miterlimit:4;stroke-opacity:1;stroke-dasharray:none"
       sodipodi:type="arc" />
    <path
       style="fill:#000000;stroke:#000000;stroke-width:0.21571235px;stroke-linecap:butt;stroke-linejoin:miter;stroke-opacity:1"
       d="m 96.886386,61.311379 2.581883,-1.680241 -0.979332,3.827214 -1.1574,-2.053628"
       id="path3845"
       inkscape:connector-curvature="0" />
    <path
       style="fill:#000000;stroke:#000000;stroke-width:0.21571235px;stroke-linecap:butt;stroke-linejoin:miter;stroke-opacity:1"
       d="m 106.67974,69.245849 1.06836,-3.547175 0.62322,4.107256 z"
       id="path3849"
       inkscape:connector-curvature="0" />
    <path
       style="fill:#000000;stroke:#000000;stroke-width:0.21571235px;stroke-linecap:butt;stroke-linejoin:miter;stroke-opacity:1"
       d="m 118.2537,67.752302 -1.95868,-2.053628 3.02704,0.466732 z"
       id="path3853"
       inkscape:connector-curvature="0" />
    <path
       style="fill:#ffffff;stroke:none;filter:url(#filter3984)"
       d="m 141.99826,426.89367 c 17.74978,-26.20206 98.04641,-68.46344 115.79619,-63.39208 17.74979,5.07137 31.27343,14.36887 31.27343,14.36887 0,0 -72.68958,0 -78.60618,10.14274 -5.91659,10.14273 -68.46344,38.88047 -68.46344,38.88047 z"
       id="path3855"
       inkscape:connector-curvature="0"
       transform="matrix(0.21066615,0,0,0.29436162,-17.161598,-61.93171)" />
    <path
       style="fill:#ffffff;stroke:none;filter:url(#filter3887)"
       d="m 56.545706,74.015797 c 0,0 21.97593,-88.74891 55.785034,-88.74891 33.80911,0 33.80911,0 33.80911,0 0,0 -37.19002,-10.98796 -49.868434,21.9759202 -12.67842,32.9638798 -45.6423,58.3207098 -39.72571,66.7729898 z"
       id="path3877"
       inkscape:connector-curvature="0"
       transform="matrix(0.21066615,0,0,0.22087945,32.179072,20.879358)" />
    <path
       style="fill:#ffffff;stroke:none;filter:url(#filter3897)"
       d="m 85.283456,100.21786 c 4.22614,21.13069 37.190024,177.49782 37.190024,177.49782 l -5.9166,-131.85553 31.27343,113.26052 -10.98796,-141.15303 42.26138,60.8564 -18.68957,-103.720093 37.54622,15.41057 -9.85239,-44.2605 -36.05154,-17.88052 z"
       id="path3891"
       inkscape:connector-curvature="0"
       sodipodi:nodetypes="ccccccccccc"
       transform="matrix(0.21066615,0,0,0.22087945,32.179072,20.879358)" />
    <path
       style="opacity:0.67379701;fill:#ffffff;stroke:none;filter:url(#filter3919)"
       d="m 273.76924,37.671007 c 0,0 38.03524,11.83318 38.03524,29.58297 0,17.74978 6.76183,70.999133 14.36888,72.689583 7.60705,1.69046 40.57093,63.39208 51.55889,55.78503 10.98796,-7.60705 25.35683,-19.44024 25.35683,-19.44024 0,0 -4.22614,25.35683 -12.67842,27.04729 -8.45227,1.69045 -44.79707,-17.74978 -47.33275,-23.66638 -2.53568,-5.91659 -31.27342,-42.26138 -29.58297,-46.48752 1.69046,-4.22614 -10.14273,-42.261393 -10.14273,-42.261393 0,0 0.83357,-37.1171 1.69045,-32.11865 5.07137,29.58297 -71.84435,19.44023 -71.84435,19.44023 z"
       id="path3901"
       inkscape:connector-curvature="0"
       sodipodi:nodetypes="cssscssscscc"
       transform="matrix(0.21066615,0,0,0.22087945,32.179072,20.879358)" />
    <path
       style="opacity:0.78609595;fill:#ffffff;stroke:none;filter:url(#filter3968)"
       d="m 69.329285,316.49001 0,93.23593 44.227305,-1.19533 0,-86.06394 z"
       id="path3942"
       inkscape:connector-curvature="0"
       transform="matrix(0.14450244,0,0,0.22087945,7.2232169,11.653835)" />
    <path
       transform="matrix(0.14450244,0,0,0.22087945,36.18202,12.709859)"
       inkscape:connector-curvature="0"
       id="path3988"
       d="m 69.329285,316.49001 0,93.23593 44.227305,-1.19533 0,-86.06394 z"
       style="opacity:0.770054;fill:#ffffff;stroke:none;filter:url(#filter3994)" />
  </g>
  <metadata
     id="metadata31">
    <rdf:RDF>
      <cc:Work
         rdf:about="">
        <dc:title />
        <dc:description />
        <dc:subject>
          <rdf:Bag>
            <rdf:li>tie</rdf:li>
          </rdf:Bag>
        </dc:subject>
        <dc:publisher>
          <cc:Agent>
            <dc:title />
          </cc:Agent>
        </dc:publisher>
        <dc:creator>
          <cc:Agent>
            <dc:title>Nicu Buculei</dc:title>
          </cc:Agent>
        </dc:creator>
        <dc:rights>
          <cc:Agent>
            <dc:title>Nicu Buculei</dc:title>
          </cc:Agent>
        </dc:rights>
        <dc:date />
        <dc:format>image/svg+xml</dc:format>
        <dc:type
           rdf:resource="http://purl.org/dc/dcmitype/StillImage" />
        <cc:license
           rdf:resource="http://web.resource.org/cc/PublicDomain" />
        <dc:language>en</dc:language>
      </cc:Work>
      <cc:License
         rdf:about="http://web.resource.org/cc/PublicDomain">
        <cc:permits
           rdf:resource="http://web.resource.org/cc/Reproduction" />
        <cc:permits
           rdf:resource="http://web.resource.org/cc/Distribution" />
        <cc:permits
           rdf:resource="http://web.resource.org/cc/DerivativeWorks" />
      </cc:License>
    </rdf:RDF>
  </metadata>
</svg>
