/* XPM */
static char * stones_xpm[] = {
"128 128 40 1",
" 	c None",
".	c #6A6A6A",
"+	c #51404D",
"@	c #5B5C6A",
"#	c #727275",
"$	c #828487",
"%	c #A1A1AC",
"&	c #BCBBBD",
"*	c #3C3B3C",
"=	c #322E30",
"-	c #282828",
";	c #585858",
">	c #98969F",
",	c #616161",
"'	c #B2B2B6",
")	c #D1CCCD",
"!	c #C9C0C0",
"~	c #797979",
"{	c #E1DFDE",
"]	c #918E8C",
"^	c #484848",
"/	c #686B62",
"(	c #B1A1A7",
"_	c #564D52",
":	c #685B60",
"<	c #756069",
"[	c #635159",
"}	c #BEB0B7",
"|	c #ADA9A6",
"1	c #7C706D",
"2	c #8F8279",
"3	c #888E94",
"4	c #4D504F",
"5	c #A69496",
"6	c #70647C",
"7	c #857785",
"8	c #9A848C",
"9	c #816E73",
"0	c #371C1C",
"a	c #1C1C37",
".+@#$@#%#$&%#*=--;%&>,;$'>)!$$'#;.~~$'{&'>$$.*=--*...#.,;,;;;,.#.,;;#.]>.~~.;^--=/(_*::;/<;[[[/]!!!)}!}(|1~]2^---*#'&%&&&>$~$~@.",
";@@#3#.>>$%#=------^$.;,$]]'|%!#;4#$~]&&&)|,-------;$#.,.,,,.#.##;;,,#$~#$#^------=**_4;[1/_^[:5{{{!!!5}]114-------.%&&%'%~:..;+",
"+~~6$7~3%.=--=7)$=---*^;,~$>|)!#44;#~$>>>.=---;&~=---^##,,,.~###.,,,.#.,$4----,&#=---=4_;1:*4[:5)}{}!55!1=----.).---=~%>%%#4+4+4",
",>>~#~3@=--=$)%>%!$=---*4,.$|&$;4^;,#$~4----,)5/2'#=---4#..#]~,......;^*----,{(:1'#=---*;:__;;/}|8|!(25;----.{{){!,=--=,>%~44+##",
"3#&%#4---=$)7.67>&}&$*---*,.$|~;#.,;;4---=#{544:292|.=---*4,#,,..,,,^*----#{!5<:<12'~=---=;;112}(||!|*---=#{)))){)}',---=.$44,>'",
"%@%~---=$)$@6.<6>>87>'$=---*.$#;$%$;----]{{5;^_/11[[2|.----*,;,.;;.*---=1{&2[2<::2<:2}~=---+222|}]]_---=~))'!{{{{{]~%&;---=*46%!",
"%.---=])$@[[@667766778')$*---^.;,;=--*%{!){5[+_:2]/[/_1',----*,.,^---=${529::21[:<:152]}#=---_5!&^---=]{!.'%&{{{{)$$]>'';----@%%",
"=--=$)>7@:;;;6>8:[#77>!{!|$*-------*')|(]5)5;4_[~]:[^^_[]';----=---=${!2:9295582<:2!!581~|#=--=*---=]{|>'$&>&{){{)]%$$7])&4---==",
"-=]{'~~76@;++~%7;;<67}{{&@[%$*---4!!111225}5:^^;251;+^^;/:2';----*>{(229[955(5(2<9({58<[[_1&~=---*>{>33(||!|')!!{)]>~$~~){)'4---",
"-!{)%6676;@4@@83[;63%{{{'76;:'--.&115]111255:^+;551;_^_;:1215&*--{!(5229<255889<<28(99_::<585}--*{%~>%>%$')&&)!'})%3#~>|!{&&'|*-",
"-&'}(7~77@@@877>6<7}){{}(>7+@>--]:25)}]11121/_^1821[4^<:;1511}1--)!})(82(}}(29<:1229<<<:<88222-->%%>''>~>)))))!'&)|~.1'!|)(3&$*-",
"->}&7677777>%7<%%87>&!&%>7>@<%--%1|!{!2<11:_;__1]11<4[1;_1525}}--&({{!88())2<~9<:~2<:[::<91::_--'%%&)%#,>&''))'&{)~<;$&!|)|])|#-",
"-;{{<@667(}(%7@>%>767%'%>77>><-*58!{{51111;^_;/2]211::;:1]!!|5|--$()}!(85((::<:[:<:::::<<[[,_*-=%]'))%,.]]7~]>]){!#;.]&!&)&>!!.-",
"-^{&[+[~886>8~7776.[.8>>(37%};-,||!!}]111/__[[2221122/[1|({!]12*-#!(5!!5((2[[_4[<;_:<9<:[:[__*-/~]'%>~;1$#$~.~${{',_#3}))&&!!)>*",
"-*!74*+8>;;77@37:+4+<'}8%%77}*-.!!!52211[__;;11112]||21]!!{!2:<^-[(5}!){{!82<[:<:_+<2:__<:++_*-$.]%#,;;##]3$]$>){'~@#]&!!|&)))!*",
"--'@+^@%7^+77[87;++46))>'}767--]){(1128]/^__;//:2!}})2[|{{!51;1[-=(5!!){(5(59:99[_[:9:_[<:4+_-->~#~;,,;,'&]]%~]&)!%##>!&'''){{{4",
"--%+[6686^[(647>;+;+6'}'!}767--&()|11]5][^^_[;[1|{)!81~5(!|1__](--(2(!{(85(5~_[_[<1:22<92:___--}>,;;#~,>)&37]~~&{)'>>')|%&'&{{{~",
"--#<7%>7<+7&6+67;4[[6>>){%~6@-=|8!|21222;__;;::2}()!1:552522;;(|--]19()(5}(5<++_:922}(229+^+*-=&>~,.]~$!!%>$~7~){)!}|'!|()&>!{&:",
"=-477>>%77'}6[;;++;@@7>{{%7~;-4]]5|}]12]1[;::112]|{(21|511~5115|=-1299858889<[[<198!)}5<+++*0-,&%]73].%)|~>~#]$))))!%>'%])&>&)|/",
"4-^3@7%}}}'>7$<++;+[@7'{{%7@+-.]11|{|]|55<;1]]]9]!!|||52/:552225[-@52[[9:[29<2((29(})89_++__*-$(%||'~>!!>#>~.>>){){'$]'5$)&|!&%#",
"4-=%@7'))}>3(%6+;6@;@7%{{(6:--$}81|{|5(55115}|115!|5!(/[/]|}}2]|/-*59<___:(818(5(}&58<<[[<29-->3>>|!>&&'%$|]~>>!{{)>7>|%>)))&|%~",
";--(6>'!{&77&&~+<7@@@67(>76@--&)|8]|55(215})(211|}1181_[15}(}5|(:--(:<[_+18991:9((889<92]}!}--']$>)!(&&&&}&%'>]){{']>]]'&''!'>%]",
".-->7>(){}@6%>@[#666666@@[.<-=)!}5225}8125}52211}|211[;_:]5||}55]-->[__[_2922[[<<<::[<8825)(-=!5.3{&]&!))&|!)$'{{']%>#$&!>>|'>>>",
"~--,77%&&>.7>7@76:676@;+;+6@-^!}|112|}22]221~]21]5!8:<1;[12]|(]55--$_+_<<2(}8<:[::_[[9(59<2_-;)>#%{'])!)&>'))#}{!~]|$~$>]>>$>%>]",
"%$-47387767>><7%7@@66;;:[+77-.{51/~85521]}812]2115||11<::1112]]55+-.:^_<:9!!2:::<[+:8!)89:<+-$'%>'{&|){&5'&|>~!{|~]3~7$$#>>..>%>",
"&~-*>77.@#7>77}'76<6[+66;;7.-$!1_1]|2212}){(28511:1521/_;121112(|_-47[:::92(<_[[_+:!!)8221<=-%>(|&{|&))>%)|~~3'}'%$#]]'&#>3/;#3'",
"';--&7<;<87<6!)(876@+676;:@--|2_[2||]115}}{!||2<211|]1[_[1]1__2|]4-=}81:2825[+_+_:!)(8~222<--!!''))>|))%'&]!!($>!'~.$3!'.~~@;:>)",
"7;--'7@;~'7+7!!%%%6;7'>6::;-=}1;:1]|~:2|(5()!51115]]2/;/</]2^_22<1--&}2<8!58:_+_<(!(}89<282-={)'!)'~$!)!|~|{{|~%&%$#7'!%,.@,,#>!",
"#,--$6[@7}647%(&)&66}!>6.@;-^([:115211]||]5}|12211~21_,[1:]14_.[_1--]259289<:[+[2((!!1[:(!_-4{!&)'>2.&{{$(!))%|']#$$|)&~.,_:$$](",
"~]4-4;4;<7@;@<677>,7>7@:;_4-,]_/8~111|5|55}}215]81/:[;[[:11:___^^/0-,:29<:^+++;::<12[^+:99=-~{!)&3]7#!{)('!!&&)}.17]'{'~~>~~%]>>",
"&)*--------------------------_[12[:28!|55|)}11]]5]1;___/;[;/[;;*+;--------------------------=!)!%]3#$){'>||&){{%##~]&!%~]|$]>]%|",
"{>--^,,,,,,,,,,,,,,,,,,,,,,--=/2.[258|(|](}5211(|52:4^;[___/11_+;*--+,,,,,,,,,,,,,,,,,,,,,,--.{!|>7,]!&$$]|&{{)>.##$%(%>>%]$>%')",
"&--*)[<2<:<::::255925<^_<21*--*1111128525|55}58)(221:_;_;;_/5<__+--,{1$('&&!&!}|%1.1#_4,:..*--])'>#/~>$2#~%&{{)]~3$>%>>(%%]~>'){",
"a--)]9<[:[:9<:98298}8+^_<98<=--;1/;1:11]||(}!!|!21]21___1:_<5[__--=)1,2}'(|'|&'(]#.<44#1#:,,=-=&']~@:#]>~1|)){)]$&|('%%%%%$7|')&",
"--]|::[[:[<8299(}582~_:<2()8[--*<[_:;[])!!)}!}(|12]81/^_21;11[/*--%|,#|%]]5%%}%$1,;^^<~#,4;<;--;%]71##$%>#~&'!)(>)&&'>>]>]||]>)^",
"-;)[^+9~9<2((<<8}5<:822<8){}([--*14+;/5{{{!!!5}519||1/_:52[_/1_--,)1~%(~<$>>'5#.;4;*+:1,44<2%;--.|%>$~2|%.;$%'!)!!]!!!'>~>!%~>4-",
"=)9[+_<81<((9:<99:[182<<9}}289=--_^^[;8!|)!}55!1:])51;_/|5/[12--*{|%|'$;,~]((#;_;,:^^,.,;13(&~---%&%]3%>~.@#%')){'>''&)&<%}$$#--",
"'8<____[[95<[[<[_[2829:[:<<[:82--=_;;:}|8|!|2|(2/]|1[_;25521]4--|)&&!%[*,~]&$;44,.;*;~~<#>|}$4=--:)%>&&~.,,,]'&&{%%%$'{)~%%]|=--",
"!<[+^__++9<++[__[:5(22<[_[__9(5:--*11~}}5|}|22|2:<21;_/555]1[--#{|&)&$_*,2|];^^4[4*;~]~#]}}];^4=--]'')}%$,,;~>'&{(~#~>{)$>%';--]",
"8<[_[:__[<[+*++[[<5(5<__[_[<((92^--1225}82|(122:1122:;/5]11:--={|(!!(.^^<(>;*^^44;;:17.#(}%1;44*---'')%%7@,,.$|!)'$~]$')(]%>--*{",
"58<<<:[::::++4+_+1889;+++_[<82922--=15))21|5551:25]1[_951;/=--'!]%&(#_^;>>;^^^;<#,+4.,,~&|]1,4^*---;>)$]~,<#;.]!!&>|5#]|'$|*--!8",
"8!21<::[_:<_[[+^492:_+_^^++[<992(7--*1|5:/1/11_4/1;_^4:<^^=--#{~#]>$~##]5,^^4<>].4+4,[.(|5$.+4^*^*--4$;;;4,,;^,]>$~~#;;.#@*--2'<",
"259[_____[:::[[::<___[+^++_:91<2!5*-------------------------*{~,7((%'}||.^4;~|}24^^4,/]|]$<4^4+4[]*-------------------------=)9<",
"92:[_++__:<:[[:22[4_:[__[:[<225!!8--*#1.#<#.####1####1#1#1^--'$]|!|11'!14[,~'!%@^4++;#|%2#;4^^4<$&--^######.1.1...#.#.####*-=(<:",
"(822:+_[:::::::1:_+[[[[:921[:5}))!--]$>>'>$>.;..>#;.>%33'&.--!!|$.+*<}%^;..]}%.*[,;^;$&5$~.^*+$>(&--5#$~~1~]|!){{{{)!))5#2.--(:~",
"!58~:[+<9<:259<[_^+[__[[[<:[<88()!--'#,+#%>%3@@;#.;.$>$.#3~--|~:_**[(&<4[;4#$.*,~#_^,2&(>3<*^~]2']--%$55>$#~75||}!{&(]#.}!|--(2{",
"(8<[[_:8295(}29:++_[__[_[995}8<})<-='$@4+@%'>$@4.@;.3>3@4;@--##;4+,]|]^*^**;,^:~<._^,]|&|],^;1~$&_-*%](|$:;,.#~~$>%2#;,])!>--]()",
"21[::<552558859__[_::[:[[225!(2!!:-;%3.+,@4#~>3@@;+;#''~+#@*-.~;,<#1#,^*,~,_4,~..#,*[~>&><;+4[.(5*-#5$]>~.;_;;/<1#:;.2())&2*-2(5",
"<:<<:28229<888:++_+[+[9<[((2(8!}8+-@%>#@4@#@;#3#+@.@;$&%.$%+-^2;#,44<~#1>%<4,$~.~],^;.(],4[;^;]&~--$$~$~<,;;;;,;;$$7(&){)5~*-[59",
"::[:<91::;:55<+^+_+^+:5(()!28({5<--$>%3$#4#>3@@@44#$@6%%3.'.--%@:^*:(&||}'~.]]:.]~+4,]%;*:#4+,%|#--%>]~.@,,[[,[4/2]5'){{|$>4--(:",
"[:<<<[[[[_:::_+^[:__[9()))!5(!{82--&$>'%%.;$>$#@;+~>~~>'>.$%--%.4^,'|'&|>'%]2@^;.4;:~&.*,].^+,((.--)}]<./,,,,,+^4@.$&{{!%'{{--(:",
"11<[[:[____4_:<<199<<25((!(!!}(2:-=}33%&'>@##.$>3.@>$3%%%#4~--$.:#}]#]>2]}(~[^^^+4.~}]44~~**4,|%*-*!|]1#1#<.,_444+^<&{{)!){{--%:",
"2<__<<+++[_+4:258228522(}(5!)(29[-4>~>'%>%~@64;>'$;$$3%>%34+=-#]>&>;41$7%'$4^_;4^;~|&$+_.4^^^:'5*-,|]2#1~~1#,_444^^#|{{)!!){*-]1",
"1:[[<:_+_[[+*:282:<2891}{(})!}1:_-.>.3&%$%>4#++#'>;@#>%%%%@**-.&!>;*;$(|&544,~~#:$'!|;****^^^~&5*-$]$#1#~2$11@,4^^,~|{{{!'|'*-19",
"28<98:____[+_99:<::[9<:8!(!(!}<_--$'##%'3>'@;;4.>>;;@3&%'&>;*-=!%:4,]&!!}#^1>'}%>&&(#^**=**^4%}#-->1#<#~$]$~#<;+*_#]5|{{!5~#*-*2",
"(}229_^++_[[<82;[:_<59:9225582<:--%3>#3%>3%74;@@>>.;#$'%&&'3+--!$#2%}&}'>4#(%]&}!|5$4^^****^1&]*--%,..<~~1#..@+*^@<$$>&{!].~,-=}",
"{!(<+++**_[;<2<_[[:25<<<<958::2<-=%$%3~>%>%%;4@@$>~;.3%%>''%$--|$2'&&&(>#[%$_1!)'5]:^444^*^[>(4^-*];;;[[;4;;_^*^;.~~7>>]~.,#1--&",
"!89[++[_+_[:<1<<9::<[:<<12(~_:2<-^%3>%33>%'!$;+;;$$@46%%3>'&3--~](!&}%~<4]#^_%&(2$#;;:#.[;_.|~4*-,<^**^4^*^^^*4,~7]]~1/;;;:.,--%",
"5<:::12229<<<:12:[[+__[1998:[:2:-.#3>%>3>'&&%$;4[@.;;@3%>~>&>4-#|&&|%.44~$_+~'5##1~2]]]2~.,$'.4*-$4*^*^^*^**^[.~]]2]#,;_+44_;=->",
"8:228})!(82<998<++_4++[991<<::2+-$;.>&%>>&&%%3~4@#@+@..3%$#%%;-;&(|]_;,#',^4$],4.](''&}>$#15|;;=->^^4_;+;4*^,#$~##$2~<,;^***^=-#",
"5<8828!&8258({8[+___++[[92:<:<(--|34~'&%'&&%3$3#;..+.~#:$>63&@--|~<^[~~55;*_#;*,5!'%('!|]]>|%_~-->4;@;;;_^^;<$~..#~$$$#;^***^=-=",
"|9((2:98828}(2[__[[_+_+:2<::95}-=|%3;>}&&'}%$6##.4@;@#3.#>$$'%--'<4^.#1|54*^_4[%&]~~~$''(|%'~#]-*]:1#<.;4^,<~$1.1$2$]2#;4+^4_;--",
"]))59<<2}525<+^+__:[[<[~9[_2((:-^~.%.#>&'%%%~4+;+4+###3$#>%>%%--],*4.1]&$^**^[]&><,;;1&!!%~'<;*-,>2$7]53;,#~$~#]||%~1.;;;@,:<#--",
".)8229:9}(9<+*+++[9:12189_:(59[-,;4#>+$>>3%%$+44@.,>3##$3>%&'%*-,44<2%}]4^+^4$&(#4^^+~!)}#['~^*-$!!&&!!(<2]]2~]'&']1;^+_,.#$2]=-",
"-0:92219289<[[[__:[_[:22[:92<*---=*;3#@3$@$>3;4;$%~$%36.$%%%$*---0#|''>[^4^4~}%~4+,_;]!&#*4'<=---.!)}%$/>'>$$5'}&|>#;^^4[1]|~*--",
"---a:52<<9<[+++[:[++_<2[[2<=-------=.>;.$[;$$;4@3!>@''$@#>$*-------^$].^4+4~'%2,*#<^#|!~**_*-------*#~,~}(2<~>}!&&%~#:;4,7$=----",
"%;---*[[:[;[[[_::[[:152++=--=$)|~=---*44@#@,.@4#%'%$~!%#@*---4!{%^---=[,;;~}|>~^,1^_~}%^*=---;!&#----*[|%$~.$(&!&(]~>$.,_*---,))",
".]%4---=_[[<9:_;_:2()}<*--=$)]44#|~=----*@#;@.;~'>>%@>>*---4!{{{{{%^---*,2%&'],_1.*;~&.=---;!!76$%#----42]1~]>('><,<~1;0---,!&%%",
";15|%4---0;9<++[925{}*--=$)5:,[;;;1|~=---=;;;~#6'3>>~*---4!{(')){{)'%^---*]&(#41$4=@~*---;!!'%#@@+#|#----*#2~~~2..#14=---,!)>>|5",
".]$;[>%4---=^_<~25(;--=${|1,,;,,,,_^#'$=---=^#$#>3#*---;!)'!|')!!))>>|%^---^:4~~;*^*---,!}7>}8<[@@++#%1=---*@./,<$.----,){}%|%'#",
";[^^_,.'|4---=[92_---]{)|~<#1.:,,_4444#&$=---*.#@*---;!)%7'{)!)!'')|]#~'%^---*,;*=---,!%:@<386;@77[+^,$|#=---*44*=---:!%~&!!%~':",
"^^+;#~]&(||4-------${)}|>$1~~##.;4^44^4$){$=-------;!{&]#])))))!'!)|~.#'!&%^-------[!|++:[;;@+;7)>[4+@@@3'#=-------,!%4^$&)|<,}#",
"4;,.$(&'%|}&|4--=${{&%]]$1#1~$~#:;;+^^[$&{{)$=---;!)!)'#,$}|>!)|&{)$.;~&!')!%^---[!'@++<@;@+4^@!{74+;;<787(&~=---,!%_,_;5)}1*;'1",
";~1$|&&'|&&''&--.{{{}%2~#.<~22$##.[^*;1>|){{&&;--&>|))%;.]$~1~7$){)#;.]'!!)&%!--4&64++;@4@<@[;6)!6+4;@7>>7%}!)^--),*#.^#'&~**<(@",
"~]$|&'||&&'&||--'){{%~<..<1$$$1#<,4*4,~]2%{{'$,--%7'>$#;#~#$$#~${{&@_#]'))&&)!--%<;^+;;+@66$6@687<;+@787>7>&))~--|*:#^;$}5**^(~,",
"]>(&|||'|>5'|%--){{|~:@,,,..:,,,;+*^;.1~](&}]<:--]$>.,;;<#%]$]]]){&$@.]!!&|')%--%4+[6@+@67876;@6~6@@@6#7>%8}!&7--%;~,*_2&<*^2(;#",
"]|&||(|(~#5&!~-*))%1,;_4+^44+^44^*^;<$]2~2#,,,.--.~#;,.;,&!]]>~$&))|~~>!'|'|)#-*8;;~7@:77>%7@;[~6<<6@@@6})7>(>6--]~~4*,(>4+.}~4#",
"%&|'||(14~|&&~-[&]<,,_^***^^****^4:~>]]$1[;44_,*-,$;;~~,>)&>7]~~}{)&%>'!'%!''.-#>6686+67777@:;;6@@#<@;;<%)6~>7<*-$2;*[%&~4;%%:_~",
"'(|&&&2^:]%|&+-#(#.,[4^*+4444^*^,#~$$~22#,;4+4^=-^|.#]~7!!>>$~7~){))&||&|%)!5*-$%>>7;;<76@<[@@[6@:@[;@6@7!76377*-;14<|!|~.~}24,%",
"(5&))%,;#2%}]-->$.,,,44;@;;;_^^,#~~<.#$$~~.4***=--'3>].')|#]~.$$!)))!>3'%$)!>-->%>87;@<6<:#@:@+67@;+;<6~>{(7777*-=5$'!&&}>|%,42&",
"%'!!'$[,.]}%#--'~##.[;[../[_4^[.~21@<~~2]~.4^*^^--&(&$>!&%#>$.]>!{{)'27'%$!!'--'777:@6677776@;+6$:++:67%&{!>6#76--&|||]$!}&$+~'|",
"}&}|>.[.~|'5[-*'>%5$###~~~~.4;#~$~#25%]~$#,;_4;[--~'!%}&'%]%>~>]&{{)>$3|%>!)#-*>@67;:8>77677<+:~6;;66:7}&}&>6~76--%|]#[#&&|[#>|'",
"&}'|]~~~(}&%;-4'}&&(5%5%|&&>[~$2~1]'}|]#;_4;,:.~*-.{)%&&!!&&'&%]){{|]>2$'!||.-.7:76;6&%8@<6~@466;;77@.777}}77677*-]]#44~}&~;2]]|",
"||&}}|>]%'&>+-.|&&&!{{{)!'>#>%]$$>|}&|$:4^^_,1]>:-,{!$&!))'(!{$%{{'$%>#~'&>3;-$7~77.>)%<@.<@+;76[@(>@:;[6{&.@677+-$];4^1|>;~>~]'",
"~2(!)|]$]|&>--]&&&!{{!|>>$.~&($1$(&&&|].[_44.]'':--{!])))&%'))#'{!#]($~$3$>>--%37>%7}}7;@6@++@~77766@;:[6{};4:684-*~^,4;#;15]]']",
":~%&}]#.$|']--&))!|(]~1##/[(%2#.]|&!&|]$]#[;#%'|$--{&'){'>'!%]~&{'$$]$$2]#>>--'8>}(7}%6;66:6<;[>{%[;;+@@#!7+^;>7+--]#]:4+#>5%|],",
".]'($.[,$|&3-=!}(#;4_4;;_.'}>~#~>|&&(#.~]~.<12>]~--|''))>%)|~$>(%'|$1]]'&#]#-*'>){>6>%7<:@'!$;[>!8;++;@:67@^*@'6^--%}']$$]5'&].:",
"$|>/[;44.]&2-^%.$1,4444:%{{}>$~2$2>].,<#,<~$2~<..--#>%))||']!)|~]!}~.~]!}#~4-.%&{&>77>76@7&{%@@6~@;+;::@@;+;@7>@*-->&&&}%>|&>#1#",
"|]_*^^^*^_#.-.:#>><;[,$){!52~1~$1<#<#$$,;.2>]~.<#^-.>~&))%~|{{'$%'>$#$'!>,,*-]!)%>%77%>$7>>&%~6@+;+;<7.@66:7>77@+*-$]2'&('}>~~$>",
"$_4^^*,~,^,*-$.~]21#$|{{|~~~#1~#.,;;,#._[#]]]$$2#^-^%.'{{>(!)!%'}$#$$%)&~#.=-'))777~>}86777>>6<;+[;[6>7637@8%>8#7+-,3$|!&&5$~5|(",
"4.~[^<|'.4~--%1$~<$5}))51<##1~~<,[4*4+^4,#~~#1~#,*--'#&{)|'&!&!)&#.~]'{'1~>--){(77.@(%6;<67736@;+@@@7%(>>7:67%'((;-=%2}!']](''2,",
"2]~.<|)}4,>-=|#1~2>5((]<,,..#$~#:4+**^^4,.:,,:,4+^-->~){%]>|&{{{'##~$'!>$]|-^}!(76:@>6;;;7766<;+;:@78>%86:;@7}))}>--($>2~>||%.4#",
"(>~~%))~[]<-^2,,$|||%$.@[,,#~1<.,;^4;[;;[,,;44;@.:--$$&'$~$|&{{{>###$%%%%%;-.7'%7#:@.[@[[8(6@6:;.<@7%>76;+;6%}){'7-->.#.>|~._#(|",
"_^^4_,;=*4*-;].,2('|].;,.#~1#....;[~]]#;44+_;,1]53*-*^4^^**_;@#,4*^^^4^444*-;68>836;;:6@@#>3~73<6767776[++@7>'{{(@=-4***,*=*^;;;",
"-------------4#~$]%5~..1~1#..::,;;.#$2#4*^;#~](&&~---------------------------+.7>>7:;@77@+6>%&!>>868~6@@;@678())84--------------",
"|||||||||||=-=$>]2]]]]~####.:@_^,/.~$~[^^4<2%&!&|*-*||||'||||||||||||||||||--*@@7776::6<[+:%{{{)&7776<6:;76~7>>76=-^||||%|||||||",
"'%%>%>36;~.4--^(>]$22~<,,..,+*4:.[@<:4++;;.$|))&,--&#,,4^.~;;44^^,;^44;;^^;*--+@<77776;+;[@>{)(&)67@;<7@:766776<*--)>3@~!%%3%&'&",
"%%3#~>&%6;@^*--.|5]>$#.;,,_*^4:.;^^^**^;,,.~|{)]--~%4;^^,#.,;;4^44,;,;,;^444*--+6778'7;:<@[6%'%}}:@+4.>7:6<77<[4-->'$>>#%!%%&&&%",
"%%>#4@%%%.4+;--*}}'52#/,,;^*^44+***^^44[,:.~()!*-*!^;^4.~,4;;4^^44.,,444;,,.,--=7>8886@77@[[6>&)(6+++@(>@.637[;=-4&@6$%~@3>%'%%'",
"%%%%.4@%&>~..4--,{)|]1.,[4^**^44^4;[[:.<.,,#2>,--!,4;,#~,^^4^^44;.#..;;..####^--:&%7$7[76:#[;6}{!7;;;:%%~@67~@*--);^4@#.;4;3%%%&",
"'>>'>@4~>>%>#;*--%)}]1..;^**^[.#<#.,.~$2.[;,@_--$>^4.~$,^^4*^4;;..,,;,.#..,..+=-->!876;.[@6#[;7{{366@@676636:^--%!3@4;;+@@.@>!'&",
"%>%%%>3##$>%3;4--*!%2~._^4;__#1.;;.~]5%~[;;;4=-^)^,~>>.4^^^*4;;,.;^*4#>~....;**--^&876;@<@77@;6&)>777~<66~76[=-;)%'>++4,$@~#.%!&",
"%%>33%'>$$>'>#;^--^~#,44;,[444,1;4,~]~:]]@4^*--!/#>||#4^^**4;,..,4^4,%{>#..,4***--;766666@7>6+:7'>67%>6.<6~@*-={>%'%>;4;$.;3.@%'",
"3>'3#>&%33%%%~;+*--*4;:.:;4^=^,~.44^;#>!!2:+--]|$>>#;;;4^*4,.##.,;,,.]!].;;44^4^=--;@~77#[6>74+:66@7%%>>7#@^--|&>%%>%3+@#.@#3,@3",
";#>%$>&%>>'''3;4@---4:..;^^**4;,#~<.1]|!!71--4)>%#,;.~~;^4,#$~....#.,.$#;4^444^4^--=:6787[;>>;^@:;@~8}!{}6+--.|~&%%>>%~;##@+33@;",
".@@$>%'&%>&%&%.^;;--=***=====****+***^444*=--)>~,;.~$%~,,.~$~,.,,.#,;,#~,;44^*^^^*--a**^^**4+*a*****^++;+*--=)*+>'%>3%>;#3$,$>$#",
"3$~#@%&!&''%%&3@+@*-------------------------#'<..~~2%'$]]]$#...,;,#,;,,.,,;44^**^;*------------------------->'44#>>>$3%#43'$;>>3",
">3>%$;%&'%'%%&%$@@--;&&&&&&&&&&&&&&&&&&&&&#--%,$>$~>!&|||!>~~.,4;.;;;^^^4;,;**^^4.--*&&&&&&&&&&&&&&&&&&&&&;--'>~..~3$~>%@@'&#@>%",
"'>>'%>@3'&%>>%%>#+--],;#]'%]]#;44;##.,4^^44--%]|]1$'!>$~>)|~#,;4,,,;***^;..4^^44,.--|1]{{!!}]2211[^__;1:112--'%%%$,.$$~%>@~&'6.%",
">%%%%&%.~>%%~>%>~^--|..~>|)!|%.4;.###~;^^^;--$'']$>!']~#]|%~.;,,##.4*^^4#]~,4;;,.+--!]5}!){|1128];___[:/15)--%#3$>>.#3~$%~@$%'6#",
"@>%%>%%>;@~>>3&'$*--'$$]>>'{{&%.;,$#.$#^444--.!'|%')'>1#$'|##,..~~.44^^.$~#.,,,.#^-=}]285(!|11]52[4__;;[2}!--$#~.@>%3%3.3>;;#%>@",
";.>%33'&~;4@%'')'4-4>~]>]]&){{!]#,%|##~,^4;4-.|&)!!)>$$##'!].,.,~#,;4^4,.$~..,.~#^-1]/</15}(52122[_;;::1]|(;-$~+#..3>%%~$>@;@~%.",
";@$>$.$%3@@;#$#>%*-;%..~~~'{!||!'#$%$..,44.4-*|$|&&$~~~,.!{>.....;;4*^;.>|]$$~>]~=-~111/:]]|!]15]1/;:1192]!:-^>@;~~#@;3%3>6;@@$.",
";.3>3.+@.@@;4[4;@--~|$..$$%)']~])%,#..,444.,--|,#$$~$#,;~))>#..;^^^*^^#|{|>|%){%~-->/]5]51<!{|5|55:;255225)/--%@+.3~@4+$''>~@4.@",
"+@~%%#4@;4;4;+4#.--|$)$~~|!))|#.~],4;;4444,>-->,.~~~~,;.>&%.;.;**^*^4,>!|##.#&|~,--%[15|}525{5|(]]22}}511|!5--%*4#37@4@;.$3>~;:@",
"@;;3&%@$3:4;.4+#@--'$'||$>)!'>#,;,,4^^^4;;,$--~#.#~#;4^.%>,4;;^***^^4$|~;;;;.#,.*-*]_18))(|]5]||11|!!5211!|1-->#.3%3.@@..+;3>.4,",
"<~;.%%3.'>#~>#4~@-4'>>]>]$&{$#,444^4^^4;.#.$;-,~;;,;4^4~>,4,.4*****4;%~,4,.,.,,.*-.1;15!!}]225}]1]2(22]19|55*-]%>%%%$~@;~>#@#@44",
"~>~#>%%.3'%&&>@$;-,'|]]]>]%)$,4^^^*^^^^4.$~].-4~^4;,,,4,,44;;444*^;;,#,;;..;;,#.*-$/:]!}(8112||2]2]11]]212|!_-$&'%3%%>3;@3>~@;4+",
".>3$%''#;3%>~>3@--~>']~%|>$]~44^^^^^^^*^;.~~;-->^;~>'].,.,;;;,,44,#4;;.;4;;4;#.;--515{{{]:1]55]115!(822]11]5^-0&&%$>'&'$@~~#$3~@",
"+$33%%%34;$'4[>#--|'{'~$|']$$,4;444;,4^^4,##.--%..$%!)%%$~###.,4.~.44,#,;,.#$~,;--&(}{|(;;15|211]!){|]5]12:1]--&%3$>%%%%...4@%%#",
"@.~3%>%%@^@>#*$$-=||{)],#$$$~.4.#;;#~.^^^.##.--]#,,~%&']~~#..,4;~#44;;...;#'%,;*-*|({&51[:2||2<1|}|{!|(1<2225--%%7#%&>3%~+.+;$'3",
"@;@7&%%&34+3%#6#-^]$!)],,..##,;;$~4.$]#;4;#~#--#,#]|'%].##..;^4,.;4;;;.$..~$,;.*-.|{{!5/;/1]51/]||55)!21195]2--]3%:~&'$%%@@;4#%3",
".;#$'%&&%$;3%3>~-,>.')$.;,.#~.44.~,;#>%]#;#$$^-,%>&)>$...,,;^444^4,,4,~.;,,;;##*-]}{{|2_<2151125(5]|}]1]2~111*-~~>3#>%3>%#4;;6>3",
"~4#3%%%&'%6~'>%*-]&#~&$.,.,.~,4^,.,;#]'!|$,$]4-*|$|%]~,,;44^^^^*4.#,;##;;,,;;,;--%!{!51_181<1](5|5|!}115]51/;*-;33>$$%>>%7+;@@>%",
"3@;~%%3>'&>4%%&--||],>',.~#;##4^;..,#'&||>~.>,--%#]%$,;44^^4^*^^4;44,.,,;,.;,4;--!))51[;~1;1]5!||5|)(1125581[*-=>3%%$3>%&&#+;4@3",
"#@+:3%3$>&%#3%%-=&%%#.&$,~>#;#4^;,##${']$]$;#|--%]%>.;^**^;^^***4**^4,.,;.,##,.-4!)}1_[12/:]]](|58}(]]12}|]21_-->3%%33>&&&>#44;.",
"@+@@#3%~$>%#[>#-^)!&];~'~$>$,..4;.~$%)%]#~$.,]--$|~,;4*^4;^^^*^4^*444,#..;#].#^-#!)14_1<1111112]2|(5|!||)5121/-->#%'%>%&&%>3@+..",
".+.#6.33.3&>@@;-;&!)>,,%>%!'##>,;#~~>!!|>~~~,.;-4,;;,;;;,;4444;,.,;4,#~]#.$#;#^-<}!;^[1:11[[1[11||(!}}!|}12]21*-$+3&%%%&&>>33.;#"};
