/* XPM */
static char * puzzle_xpm[] = {
"128 64 21 1",
" 	c None",
".	c #634848",
"+	c #362828",
"@	c #000000",
"#	c #636363",
"$	c #848484",
"%	c #7B7B7B",
"&	c #737373",
"*	c #6B6B6B",
"=	c #B5B5B5",
"-	c #BDBDBD",
";	c #ADADAD",
">	c #9E9E9E",
",	c #7B4A4A",
"'	c #966A6A",
")	c #845454",
"!	c #8B5F5F",
"~	c #A37474",
"{	c #5A5A5A",
"]	c #DADADA",
"^	c #CF8A8A",
".+@@@@@#$$$#%%$&&*$#%#*$#$$*@=-=---;>=>=>$#++@@@@@,'')!)~!!,,!),),))')@+%$$&*$$*%#%$&#{+@@@@@+--;=>-;>;-=-;=-;--@+!!))')'))))!,.",
"@@@.-]+@.$$&*##%#&%$$$&$&%%$@%-=--=-->${+@@@@.>=>@@+''!,!,',)'',!~,,''+@*#&*&$%$#{{++@@@@@@,+@+--->;;;=-=->;;;--*@!)))~),,,..+++",
"#]]]]--+@+$$#$&&*$#$%*&##$%$@.--->$%{+@@@+*;--=>$&+@+''~),!)'',,'',,''!@*%&&*{{+++@@@@@!~^^^'+@#---;;--=--;=;>;-;@)!!,....++@@@@",
"]-->;=--*@+&$&*##$$&$%*##*%$.@-$%{+@@@+$--=;$#%#*$%.@@!'!,',~,,!,',)!')@+#{.++@@@@@!~~^^^^'!''+@#--=-;--;-----;--@+..,)++@@@@$-]",
";=->-===->@@#$$&$*#*$$%#&&#$&@{+@@@.>--;>$&&*&$*%#*%{@@)'),'',)',),,'!!+@++@@@@)~~^^^^~'~'!))''+@#--->;>;;;=;>;--{@)+@@@@&=]]]]]",
">;>>->===-=+@.$**%##%{&$$*%%$@@@{>-=>%#**&&&*${${##*%*+@+'),~!''),,',!'!@@@.)~^^^^~~)~,'),~~'))'+@{--=;-;=--->=;->@@@.>-]]]]]]-;",
";>;;===;=---{@+%%$#%{#&&&#$*$*--;$*&*$%#&*&&%%${{&*#*%%+@+!!,)!''!))~,')'^^^^^^!,,~~!),!,)!,',)!'+@{--;;;-=>=-=>--=]]]]]]]--=>-=",
"=>-=-=>>-;---%@@*$%%&*$%##&&&%&&#*&$%#$*%&%###%&**$%$%%%{@@)'),'')'')),'^^^''!!!)',~,~),~,'))'),!'+@#--;=;=;=;=-;-]]]-=-=;>-=;=-",
"---=;=-;--=>-->@@{%$##%###&####%%$*%#*%###$##%*$#$#%##$&%#@@.))))')'~)','')!,),)'),''!')),'),~))!)'+@{---=;>;>--;>==-=;=;;==-;-;",
";->-=;==-->=;---@@$%*$%%%###{%*&*%{%#&%&%#%*$$$*&&$*$#$#%%&@@''),)!!!~,~~,!))!')'!,)!,~))',~),,))!)'+@#---;=>>;;=--->;=-;>;;=---",
">-;;;==---=;->--=@%$*$%&$#&*$#$#&#$%*&*%*$#&*&##%${%*%$&&%%+@+!,''')'',)~,,,,!~,)~,!!)!,)'',)'!,~)')!+@{-->-===>-;>>;=-;;--=>=>>",
">;--;;;==>-;=>-$+@*#&##&&##%###*{$**$&#$$*#&##$${##$*%&*%{.+@@~,,)''!!!)')~!'','))~)',,)!,,)'),)',!',.@@--=--;;;=;>;;-;=;;;=;=-;",
"=;-->;=--;-=>;*@@#-$%{#$$#$#$$%$*$$#&&#$*&%%$%#%$&##%##$#.+@@)'~'!!!)''!')!!,))''),))'~~~,),~))!~!)..@@&]]===;;--;>>-=;-====;>-=",
">==;;;=>>;==>{@@$->###%&#%#*#$#%#$#%%#*$&*&$&&$$##&###%{.+@@'~''~,!~'~)'!)),,)~~~,!!))'!!~~),)',').+@@>]]]=;;;>;>;=;;>>;=>=;==>;",
";==-;>;=>>-$+@@;->{$#$*#&$#${{##%#%#***%&*&$$*$#$&%$#%{.+@+^~~)'~'')',..,,!!!!~!))!)'!,,~)!!',')..+@@=]]-->;=->;;;&>;>=>>-==>;->",
";>=--===;;&+@+--%*$%$&**$$${+++..{{{{##%$**&#*$*%$$*#{+@@+^','!,,)')),..,,.,,,')!',)!,~!,~!',',..+@@-]]=;--;>;=;%$$$*&$>;;=;=-=-",
"->>;=>>;>{@@+-=&{#$*${**#%#{+@@@@+++..{{#*&#{%#&*$##{+@@)^!~!'!!!,,)),+@@@++,..,,)'~!)),,)!',..+@@@]]]>=>;=>;>;-*{@@.#%&*$>>>;--",
";==>->>$.@@#-=$$###%%#$#&*{.@+]>+@@@@+++...{{{*&*%&.+@@~^~,!,!'',!)~!.+@>#+@@++.,..,,,)!')~,..+@@>]]-==>;>=-;==>&@@)@@@@.#&*%>;-",
"%>;;-=&+@@>-;#%%%#$$$&%#&&{+@*]]]]]-$+@@@@+++..{{#.+@+^^!~~'!,~))!,)!.@.=>>=%+@@@++.,...,,)..+@@-]]-=;=--;-;;=;$$@+^^~)+@@@@.#*&",
"+.#&%#+@@=->&##&$$${**#{*#{+@-]=-==]]]]]>#++@@+++{@@+^^'!,)),))~~,),,.@%>$*$$>=>{@@@++.,,...+@@]]];;>->-;-=>;->&{@'^~~^^^^)+@@@+",
"@@@>{@@+=-$*#%$$$%#%$&&%&#.@+]-;>>-;;=;-]]]]+@@@@@@)^^!'~''!!~','!,!.+@=$*#*##%%>=;*+@@@+++@@@]]];;>>;;=-=-=;=>*@@^''!!)!~^^^^)+",
"^@@@@@+-->$***#%%**$#$%$#{.@#]>;->->-;;>;>--$@@@@@)^^)~))~,!)!,)!,!'.@+-**%&#&$&&&>>==.@@@@@>]]]>;-=-;-==;;-->>%@+^),~'!!',,'~^^",
"'+@@@{-=$&#&*$$#$*%{*#*%&{+@-];--;>=>=->==--=+@@@~^^'~,)~',',,'!,),).@#;$#%%##&$&*$#$%$@@@@-]]-;;-;=;-;;--;;>=&%@'^!,!!')~!,~,,,",
"',@@%-=$&%&$#$**#*$*#$*#*.++]-=;-=---=;=-=---#@@~^^',)~'),'~)!''),~,+@>>#$##$$$**$##&{$.@@]]]-=>->;-;>=;>-=>=;*@@^'!,,')!~!,!,!~",
"''+@->%%#$&*$##$&$&*#{&&#.@#]=;;;->=-;;;=----$@.^~~))!'')''~~')',',.+@-$$&&{#%#%%{#*$&$$@{]]=>;-=;->;-;>>;=;;>&@+^~,'!!''!!,'!))",
"'',@{%%$*$%&**#*#$%#&&%&{+@-]=>>>->-;=>>>-;;--@+)!''''',),~))'!,,').@.;%$*%*$#%&$#&#*#&$@+-;>;;-;;;;;>;>;--=;$&@'^),!)))'',,!!~)",
"~''+@%*&&%$#%%#*&*$#$#%&.++]]==;->>--;=;>;;=--.+!~,),,'!,'~'','!,!).@$>&$$%%{$*$#%&&$%%${@-->-;->---=;==->>;-*@@^'))!','~~)'')!'",
",'',@{%*%**&&#%%*$$*{$%#.@{]=-;=;;-->;>;->;=--$@!,'~!'),)'',,,'!)!.+@=>&#%$%*&%*#$#$%$%$&@;-==>->=>;;->;=;-;>&@+^)'',,)!',)!)'!~",
",))'+@%***%%&%&##{$$#%%{+@-]-====->-=;;;---=;--@.!),'')!'!~',)~!,!.@+-*$#{**&$##%{%&#*$&$@$-=;=---;;=;>->>=>$&@'^'))~,,!!~)'!'''",
"'!'',@{%&#$#$**#$*$&#$%{++]->>;=;;=-=;>>>-;;=--+@',)!'~,',)))')'',.@#;$$##*#{$*$&%%#%*$*$+@--=;-;>;=;;>>-==-&@@^~,~!~,,!',,)!~,!",
",'))'@+%**###$#{{#&%*##.@{]----;=>>;;>;;===-=--%@')~,',~'!',''','.+@;${$#$**$##%&%{*##*#$.@---=;>;=>--;=>=->*@+^'!)!~)',''!))~',",
",',,',@{$%#&**#$$##{{{{.@@.=--======--;;;;===--=@.!~,,))!'),~!)!).+@+*$$$$#$#$##*#%%#$&*%#@--=>-;;;=-;>-;==$*@@))'!)',,!!',!,'!)",
")'),''@+%$$$#%*{#{{{.+@@@@@@>--=;=;;;---;-=;;;--+@',',~''!,!~,,,..@@@@+$$&&*&#$#*#***&**#%@@--;;-=;;=>;>=>$*+@@@,!''!',!)),'!!)'",
"'~!))'.@{%#{{{{{++@@@@@@@@+@@$--;=;-==;=-;>;=>=-#@'),''',,,,..,.++@@@@@+$$$$#*%*#&#$$$#&%%@@---=-=;==>$%*&*+@@@@@+!'''~~!')!),)!",
"!,~,!)'@+&{.++@@@@@@@,''^^^^+@{--;-;-==;-=>>;=;-;@,')),....+++@@@@+*]]-@@&$$#$##$%$#{##*$$+@;-->;>>%&#{.+@@@@+{;*@@,''),',),~)))",
"),,!!)'+@++@@@@@.!!'^^^^^^')'+@+--=-===-;>=->-;--+@..).++@@@@+.]]]]]]-->@@{$%*{#$%&#$#$$$$.+@=>$&{.+@@@@+{>=-;>>>{@@.''),,!),)~,",
"),'','''@@@+,~'^^^^^^'!))!,~''.@+;-==;=>=;-;>;;--#@.+@@@@+;]]]]]-=>;;----@@{$*&#*%$&$$%%*%{@@.++@@@+.>--;>>&&${&%*#+@.)'',,,~)!'",
"'~),!,'''~^^^^^'~),,)!)~')'!))!)@@$-;-;--=;-;;>-->@@+$-]]]]]-=--;>---=>---@@+$&%%&#&%*%%$##@@@+.$==>>>$&*$$*&&*%$&$%+@+)''!),!!'",
"~'''~~'^^^'')!)',,''!'!')),)!!~'!+@{-->===---->----]]]]-==>=->;;>;->;-;;---.@+%%%#$$&#{&&$&$-=;>>*%$$$%%${*#$%*&$$#*$+@@'''',)~,",
"))~'~!~'~!),!,')),'')~),~~'),!))''+@+-=-;-=;;->;=-;-;;;-->-=;-;----;=-=;;=--{@@*$$$##$$%&%*&$%#$#$$#%*%$*$##&&&%%%$$$&{@@.''''~)",
"',)',~!!''',))''~!)),))''~,)))!,')',@@>-=-;-;-->=>;;--;->;>;>>>=>;>=;>;;;-;--%@@{$#%&*%${*#$&{#*##*#&{${$$$%%$$##*$*#&%{@@+''',)",
"')~,!,~),,',!))'~',)),!'~)),!,!!~!)')@@]-=>;;->=>-;>-;>=->=-=;>;;=>-==;=;=;;---@@$&##*$%$&*%&$$%${*$$&*#&*%*{$**$$%*{%$$*+@+''''",
"'!''),)'~!!'!),!)!~,!,~)),!)!~,,,,!,!+@+-;;-=--;;=--->-==>->>--==-=;--;==-=;--;;+@{$**%$%%**#*%%$${#%%%$&%$*$$&$#$%%$%%$%$+@''''",
",,~)'~,~)')!!)!!)')')~,~,!)'~~~))))~)+@]]=;;>;>;;==;-;;--==;==>===;=;>>-;;==-;=;%+@*#%#**{*$##$%$#&#$*%*#$***#$**#%$##{$&{+@^^),",
"!~,)'),')!)')!))')~,)''~)!),))!!''),+@%];;;=-=;-;=;=->>>-;=;->;->---==>-=>>=;-;#@@{=$$##**#%&$#&&**&%#*%%$$$&&%*$*%$%%$#.@@,^^,'",
")'!,,'',~!',)!'~'')!,),)'!',,,!!)!.@@$]]-=;>;;-;>;>=;;;;;->->>=;=-;->=-;->=;=>.@@$=>%%$$%%*&%%$%$$*#$%##&#%%**###$$#$#&+@@'^!')!",
"~~',,!,,...,)')),),'~,''',!))~'~!.@@>]]>;==>;;;--==;=;==>=;>-=;;-==;;;===;;>%+@@>;$#%#%%&##*...****$#$*$*$$*%&#%#*$$${+@@~^!,,!)",
")',''!'.+@.....,.)!!)),!),)')~!)+@@>]]==-->=->;>;;*&%$>;-;>;->=--==>;;=;->>#+@+=>$${*$$$$#$#.{{...{*{*%#*&#%%$*$%$$*{+@@^^~!')~'",
")',,,~..+@@@+++.......,,,,),)')+@@;]];=>=-;-=;->=&@@@@+{#&$>>>;->;;--;;=>${@@{=>$$#*$${%&$&{{@@@+++++..{&*&%#$##*##.+@+^^)!),))!",
",,!!'!.)@{$*++@@@++++.....,,'!+@@-]]--==-;--->=;-.@'!+@@@@@.{*&$>>;==;-=%+@@>=%&$*&&%%*$*%*.+@;%@@@@@@+++.{#&&###{.@@+^^)'~,)!'~",
"),)!!,.@@;&>;=->%.+@@@@++++..+@@-]]>-=>=;;;;;=;=>+@^^^^~'.+@@@@@{#**&$%#+@+;;>$**$%*#%%%$**.@{]]]]]->@@@@@@+++.*{+@@)^')',),!~,!",
",)'~!..@+=*#{#%$>=--=$.@@@@.+@@]]];=;-;=-=;>=;==%@@^^!'~^^^^^',+@@@@@{.@@.=>*$#&&$${%##$$#..@;]-]]]]]]]]]-++@@@.+@@'^'),,~',))'!",
"~'~,!.,@$>%&$#$#%##$>;--@@@@@@]]]==;>;--;;=-;>=;{@)^~')!,~!,~~~^^^@@@@@@&=>#$%*##$$%#&%&{$.+@]]>;-=;---]]]]]]@@@@@^^!,',,'!~~,')",
"',)),.@@-&%###%&*&$##{*$&@@@@]]]>--=;;;---;-;;;>+@'^)')!,')'!,',,')@@@@;;%$%&#%*${&#&$##$&.@.]-=;>;-;==;----;@@@@^^'!,,)'!!'~)!~",
"'!'!..@.;#$&#&$$#*$%##$$$@@@]]];;;;=;;;>-;>==>-&+@^~,',')'!,,')~)''@@.=>$##&$###&###$&##${.@>]==;-==>;===-=--@@+^^'!),!'!'~'!~,,",
"),,!.,@>$#*%*$&%%&$%#*#%$@@]]]=;;=--=>;;;;-;==;*@+^~~,!~'!',,',,,)'@@=>**%#$$$$&%&#$#%#{{.+@]];;==;--;>>==>--@@^~'!'!')),~),~!)~",
")!,!.@+-%$#*$*{$**{##%*&${@=]=-===;>>;=;==;-;-${@'^,!',')!'!))),,)',@{&****&&%#*$&##*#*##.@.]-=====>===-=->-->@),',',,,'!'),!,,)",
"~)',,@#;$%*&%{%%**#*$#&&$%@%-;===;=;=>;--->===&.@^^~')'~,,''))))')'!@+&%%**$&$#{#{$&$#&$*.@>]=;;====-;>>=>->--@+!')')~,',!,'~!')",
"!~'.+@;>$%#%%$&%#&$&&$##%$@.--=>==;;;==>-;;->>*@+^'~,)'))',),)''')'!@+#&%$#$%$$#%&#####${+@]];;->-;=;->;>=;=--@+!~)!',,))~,')'')",
"!,,.@+-###%%$###$$%$*%%*$$@+-=>==--=>;-->=;=;$&@)^~',))')',!'!!'!)!'.@*&*#$*$&&*&*##*$${.+@]-=>;;>;;->=---;---$@!''!'!',,),)!!!)",
"',..@%>$*#&#$#$%&#*&&&%**$#@=-->-;->>-;;>;--=**@^^,~~),))!,!)~!!)!,',@{&&$$&*%{*&%$&#*&&.@$]->->=>;;=>=>>------@.!~)!)'!'))'!,!!",
"!).@@->#$%$$#**$&&$&$&%%#$%@%-;--->---=;;->>>&@+^~)~))''!!,!'!')~!)''@+{#%%%#$#$##*$#&*.+@]];;==--==-;===->;---@+!,''!!)',)'~),~",
"!).@@*$$%##$*#*$$#*&$%%#$%$@.->=-;;->===;-==%$@@^'!)),,)',,'~!,,,!,!'+@$$*$&*$%$&#$&&$%.+@@#----;=;=->;;>===---&@!~)')))'~)')!')",
"..+@@@%$$*$##&%**&#$&&&##*$@@-=;=;>;-;;--=-**@@@@)''',,)',),,)',,''!''@.&#&*%#$%%&%#%&&.@@@@#--;>=>--=->=>-=;=-=@.),!,')''!~)',~"};
