/* XPM */
static char * recessed_xpm[] = {
"80 80 230 2",
"  	c None",
". 	c #777777",
"+ 	c #818181",
"@ 	c #838383",
"# 	c #7C7C7C",
"$ 	c #606060",
"% 	c #323232",
"& 	c #616161",
"* 	c #878787",
"= 	c #787878",
"- 	c #7E7E7E",
"; 	c #848484",
"> 	c #767676",
", 	c #545454",
"' 	c #333333",
") 	c #2F2F2F",
"! 	c #4B4B4B",
"~ 	c #7B7B7B",
"{ 	c #8D8D8D",
"] 	c #6A6A6A",
"^ 	c #828282",
"/ 	c #858585",
"( 	c #636363",
"_ 	c #383838",
": 	c #2A2A2A",
"< 	c #494949",
"[ 	c #747474",
"} 	c #6C6C6C",
"| 	c #696969",
"1 	c #7D7D7D",
"2 	c #5E5E5E",
"3 	c #343434",
"4 	c #5D5D5D",
"5 	c #868686",
"6 	c #707070",
"7 	c #6B6B6B",
"8 	c #8B8B8B",
"9 	c #5C5C5C",
"0 	c #303030",
"a 	c #666666",
"b 	c #808080",
"c 	c #8A8A8A",
"d 	c #909090",
"e 	c #4E4E4E",
"f 	c #393939",
"g 	c #8E8E8E",
"h 	c #7F7F7F",
"i 	c #595959",
"j 	c #353535",
"k 	c #656565",
"l 	c #5F5F5F",
"m 	c #2B2B2B",
"n 	c #292929",
"o 	c #181818",
"p 	c #212121",
"q 	c #626262",
"r 	c #898989",
"s 	c #646464",
"t 	c #2E2E2E",
"u 	c #1A1A1A",
"v 	c #262626",
"w 	c #242424",
"x 	c #2C2C2C",
"y 	c #3F3F3F",
"z 	c #717171",
"A 	c #1E1E1E",
"B 	c #191919",
"C 	c #272727",
"D 	c #1C1C1C",
"E 	c #3E3E3E",
"F 	c #131313",
"G 	c #676767",
"H 	c #1F1F1F",
"I 	c #373737",
"J 	c #3D3D3D",
"K 	c #7A7A7A",
"L 	c #727272",
"M 	c #8C8C8C",
"N 	c #888888",
"O 	c #424242",
"P 	c #2D2D2D",
"Q 	c #282828",
"R 	c #686868",
"S 	c #929292",
"T 	c #939393",
"U 	c #222222",
"V 	c #111111",
"W 	c #575757",
"X 	c #757575",
"Y 	c #8F8F8F",
"Z 	c #515151",
"` 	c #6D6D6D",
" .	c #797979",
"..	c #585858",
"+.	c #434343",
"@.	c #5B5B5B",
"#.	c #404040",
"$.	c #565656",
"%.	c #9A9A9A",
"&.	c #6E6E6E",
"*.	c #4F4F4F",
"=.	c #979797",
"-.	c #959595",
";.	c #3C3C3C",
">.	c #535353",
",.	c #5A5A5A",
"'.	c #484848",
").	c #737373",
"!.	c #313131",
"~.	c #9E9E9E",
"{.	c #919191",
"].	c #A5A5A5",
"^.	c #9C9C9C",
"/.	c #A2A2A2",
"(.	c #3B3B3B",
"_.	c #9D9D9D",
":.	c #414141",
"<.	c #454545",
"[.	c #969696",
"}.	c #A3A3A3",
"|.	c #525252",
"1.	c #505050",
"2.	c #A1A1A1",
"3.	c #4C4C4C",
"4.	c #6F6F6F",
"5.	c #989898",
"6.	c #A6A6A6",
"7.	c #A0A0A0",
"8.	c #B7B7B7",
"9.	c #B2B2B2",
"0.	c #A8A8A8",
"a.	c #949494",
"b.	c #A4A4A4",
"c.	c #9B9B9B",
"d.	c #A9A9A9",
"e.	c #ACACAC",
"f.	c #999999",
"g.	c #AEAEAE",
"h.	c #B8B8B8",
"i.	c #B5B5B5",
"j.	c #B0B0B0",
"k.	c #C0C0C0",
"l.	c #B3B3B3",
"m.	c #C5C5C5",
"n.	c #BEBEBE",
"o.	c #ADADAD",
"p.	c #CCCCCC",
"q.	c #BABABA",
"r.	c #AAAAAA",
"s.	c #C2C2C2",
"t.	c #B1B1B1",
"u.	c #AFAFAF",
"v.	c #B4B4B4",
"w.	c #BBBBBB",
"x.	c #CFCFCF",
"y.	c #B9B9B9",
"z.	c #C8C8C8",
"A.	c #CDCDCD",
"B.	c #C3C3C3",
"C.	c #BCBCBC",
"D.	c #D5D5D5",
"E.	c #D6D6D6",
"F.	c #D9D9D9",
"G.	c #B6B6B6",
"H.	c #C6C6C6",
"I.	c #BFBFBF",
"J.	c #BDBDBD",
"K.	c #D4D4D4",
"L.	c #3A3A3A",
"M.	c #464646",
"N.	c #0F0F0F",
"O.	c #363636",
"P.	c #9F9F9F",
"Q.	c #4D4D4D",
"R.	c #141414",
"S.	c #252525",
"T.	c #A7A7A7",
"U.	c #0C0C0C",
"V.	c #232323",
"W.	c #121212",
"X.	c #4A4A4A",
"Y.	c #474747",
"Z.	c #555555",
"`.	c #ABABAB",
" +	c #CBCBCB",
".+	c #EDEDED",
"++	c #D1D1D1",
"@+	c #C9C9C9",
"#+	c #CACACA",
"$+	c #D2D2D2",
"%+	c #D7D7D7",
"&+	c #C1C1C1",
"*+	c #DCDCDC",
"=+	c #F4F4F4",
"-+	c #DDDDDD",
";+	c #C7C7C7",
">+	c #171717",
",+	c #151515",
"'+	c #202020",
")+	c #0E0E0E",
"!+	c #444444",
"~+	c #C4C4C4",
"{+	c #101010",
"]+	c #080808",
"^+	c #060606",
"/+	c #050505",
"(+	c #000000",
"_+	c #1B1B1B",
":+	c #161616",
"<+	c #0B0B0B",
"[+	c #FCFCFC",
"}+	c #FFFFFF",
"|+	c #F9F9F9",
"1+	c #F6F6F6",
"2+	c #F8F8F8",
"3+	c #F0F0F0",
"4+	c #CECECE",
"5+	c #E1E1E1",
"6+	c #EBEBEB",
"7+	c #DBDBDB",
"8+	c #E3E3E3",
"9+	c #D0D0D0",
"0+	c #1D1D1D",
"a+	c #0A0A0A",
"b+	c #010101",
"c+	c #DEDEDE",
"d+	c #D3D3D3",
"e+	c #E6E6E6",
"f+	c #ECECEC",
"g+	c #F1F1F1",
". + @ # $ % % & * = - ; - + > , ' ) ! ~ { - = @ ] ^ / ( _ : < [ } + | [ { 1 2 % 3 4 = 5 6 7 8 ~ ~ 9 0 ' a b - @ c 1 ^ d - e 3 f , - g 8 d c h / i ) j k h @ + = ",
"# - l 3 m ' n o p q r g 8 s t u v w x y & * 8 z @ a ) A 3 x B C [ . h d 7 w D E ' F D k r > 7 G m H I J u v 2 K L M N ( O 0 : P Q j R S T N $ U V v ' t _ s ; @ ",
"r | W & X b > $ f I R Y z Z 4 ` X #  ...+.l z ..@.P #.> * c - $.: } %.&.#.Z a ] 2 2 *.O z %.R U i K =.-.&.;.t O >.} 4 +.,.1 ^ ~  ...'.).T q !.J ] 1 @ X & W R * ",
"~.R q @ - & $.$.s n O [ & q {.].=.^./.- +.J 9 G (.n W @  .; _.{ s 6 M ( :.9 l ..i & l <.R S . 7 5 [.5 .  .,.% ) & ..(.+.h }._.=._.h |.2  .O C R , 1...X b s } 2.",
"r = = . ] ).; + X 6 $.3.a - ; c c b + . 9 i 6 1 R 5 L ( + @ - 2.5 s 4.| q ).z . # [ ).2 ( ] l @ Y 1  .} 4 X ^ ( ~ &.i 9 X 1 K ^ K > L 4 '...L ).; + ] 2 7 &.` 1 ",
"5 c ; &.s = * - M d 1 | [ ; @ # r N # 4.L ~ - - [ { K | ^ 5 = / ; { {.L R @ * K . / + a 6 g r h . + ^ L } ~ - ` h h ~ 6 7 X h h K ; + R 9 . Y * @ N [ @.& [ . 6 ",
"- c N - 1 h h @ ~ b S %.d N + ).. * ~ ).r g b ^ _.5 ; 1 G X r # b 5 + c * X 1 { r ~ > 8 Y * M / ~ { > G - ^ h 5.^ h 8 / ` X + 6 = / c { {.5  .K 4.4.[ . ~ * M ^ ",
"* 6.7.@ - + 1 + K 8.}.- %.^.h N + c K * 9.6.b @ 0.a.N r 5 ^ ^ + 2.b.8 7.0.b K h ; 1 + 6.~.c ].}.* X - r ~ h c.d.b # 2.e.+ > N b 5 K _.].@ f.g.h ~ # ; ^ @ ^.2.^ ",
"~ T h.i.r > - - r j.; > Y k.f.* = ; ^ l.m.d # - 1 n.0.~ 8 5 b o.p.1 1 Y i.g.> X b L g.h.* ~ @ m.c.. * { = /.q.1 @ [ * k.r.. @ + [ c.s.{.+ @ t.u.# . z M v.g.8 # ",
"~ ` 5 w.x.k.o.6.9.> # ).Y + y.z.i.s.9.}.Y L  .S K Y l.A.p.k.n.B.8 - ^ Y a.C.l.p.D.h.p.}.8 - / Y h.h.B.E.F.C.{.. - h @ 6.B.B.q.r.A.9.; -.).Y a.G.s.q.w.H.w.{.. 1 ",
",.6 @ [.j.y.r.f. .1 g 5.K - ~ G b Y %.{ + X ] ~ 5 &.* G.I.r.+ Z >.R S b {.r 6.r.g.0.T _.^ -.).9 s { g.s.J.d > c g X r Y * ].d./ &.q L r 5.+ # - c.n.K.y.d h X & ",
"@.,.W 4 ..L.y &.M -.{.[ X 1.O M.V N.O...; P./ ; c ~.Y ,.C V C |.e >.:.K h Y ( M.M.i ^  .1 Q.2 |.k 3 R.S...S T.=.* _.]. .l ;.U.p ;.l R ).~ ~.%.a.7 O E ,.$ @.W 3.",
"^ g $ U H I 3 S.) / ; * >.).(.V.I w x m >.{.a.S g ] 3 W.R.V.t ' [ ).K ,.& O.(.H U O.v >.i b > X V.Q Q u R.' } [.-.^ {.q w v x !.: I q >.c.~ 7 O.n t P D V.$ { ; ",
"- @.L.+.G K - / 9 C | . G U ,.7 - @ = O % ( + # ` (.X.).).~ K , P 6 + | Q Y.$ ; 8 ` Q.w s  .| !.Y.> - [ } y ' 7 ~ ; W S.M.4.X g &.2 ' z 4.L J ..+ # + X X.O.2 T ",
"K &.k s 6 @ @ 6 h W ` 1 >...^ / [ 5 c X Z.4 b 1 $ Q.R ;  .- c . |.4  .Q.,.).# K # M - @.1.[ , ,.+ g K 6 K 2 +.$.X z l $ ).5 / G b | 1.2 6 W Z./ K h . &.[  .[ 6 ",
"@ s 6 S g - - + ; K a ] } 5 5 @ r = L g = @. .b & * / z # @ # ^ = a X R ] c > r ^  .* G [ 1 s h / > . .  .Y / 1.L K 4 L r 6 6 # . + 6 , 4.` ).@ ; b [ . # | ( - ",
"b ; h / {.; = 5 + - = S 8 5 ).- h # - ^ + # K 1 r X - Y @ K b h * b - / 5 + b ; h 5  ./ + 6 ^ @ @ K [ - * # = 5 / L # c h K b # a.} K b h z ^ ).+ 4.X b [ L 1 1 ",
"c [.g - @ Y c b b c.`.r /.1 b Y 5 @ + N =.P.-.; 6.{ + 5 5 ; + ~ ~ d /.7.a.* ~ L ).* 5 [.^.[.f.; [  .N T { ; c [.K h {.S K X b h ^ ^ / b.+ c.{.; ` 1 c / + { g # ",
"= 5.e.=.~ . [ ( Z.d Y d l.o. .z / / d }.e.c.# k [ b r S 5.g 1 . o.{.Y o.9.M ] s ] |  .0.j.S T P.b K / r # 1 / # k ).[.e.^.N ^ h s / i.9.=.N # $.& [ = # 5.`.[.X ",
"g d.A.w. .|.Z 1.~ 8 q 6 =. +j.e.=.S ~.e.f.` $.,.l 1 ^ K ; S T.m..+e./ [._.1 $ l l ..` %.7.g ].++G.5.g ; ).1 1 @.W Z } %.d.f.M g e.G.@+{.> a * h s l W > G.#+e.a.",
"# @ c.P.8 d 0.u.P.1 z $.= =.$+%+p.&+j.f.1 &. .g * f.T { 0.m.*+=+=.T h ] z T 9.I.8.G.6.+ 6 1 M [.-+A.p.w.%.f.f.~ N  .L 5 T.n. +%+D.;+[.# |.> d u.y.l.c.-.T.P.; K ",
"{ ^ . > M g.i.7.c &.X [ R [ =.-.g.`.g s W ] ~ ~ = ~ ~ M o.8.7.* @ Y N 6 ] 5 r.n.C.e.-.&.| @ c { d /.q.g.5  .+ # + M K k ~ ].w.&+/.{ ).L > b b ; 7.h.i.-.b h 5 Y ",
"> > } |  .; b K 8 + ` @ | b z &.. - -  .~ ^ + = g ^ K . [ = . ` ~ [ [ - / @ + ^ / > - . X = 6 h > K - 1  .1 / r ~ Y * X ~ + ~ K @ . h ` {  .@ ~ K h ^ . | 4.- b ",
"1 N 5  .@.!.3 s . h ; > g # 4.q 3 _ W @ M . z b 1  . .,.v S.Z.. z 1 + - + # ..P Q Q.^ - ~ c - ^ 5 9 0 j s / ; 1 + 1 X - b i O.J l + N Y # + = N l 0 t ,.K N 8 b ",
"~ =.& 0 : C n B Q ] [ N 5 . N.x !.v ) % $ S b = ^ a V.F J j >+C 7 7 * =.} ,+S.w '+C >+k g 5 L X : u j _ )+U | / ` N T 4 ;.' U E w A b h ; L R !.m U ' !.t ` %. .",
"; R Y.4 1 M =.h Z t L d K !.$ L / + [ ..M.R Y @ ).(.i @ z b 8 Z.' R / &.0 Q.7 b r  .,.' 7 ^ a !.Z.b X L / *.% > N c q !+,.. 1 [ 6 ,.S.. ^.- P 3.K 5 -./ i X.( ~ ",
"= < 3.5 {.; c K 1 W L - ` _ K R & 6 1 / @.,.M [ ..1.~ ^.5 ~ > W L.*.[ L 9 / . b = . c $ X = Z.#.>.&.> r 7.= ! W [ ^ & G . 4.} e i 7 f K h a |.@ * . ` - ^ 9 ! ] ",
"3._ *.^ { / S ^.%.=.L b e } ] 1.4 $.4  .).L -.[.` d Y b # 2 Q.R ( y e $.* =.%.=.[.^.c.r >.M.3 W 4 >.G . ~ =.[.q g Y - - ` *.$.4 i 9 l Q.~ &.-.M Y 5 - b &.:.I W ",
"{ / 6 a - { N {._.h b d X.4.[ ^ N K 7 $ ~ { @ f.[.8 r # a } b + ^ M ~ 4 4.[ S b ^ a.X &.i ).+ = K N [ 4 L { g c -.; ; 6 ( &.> { N &.| <.5 b h 5 L ~ N 1 $ &  .* ",
"N c.5 2 [ {./ c ^ 1 7.z M = ~ -.~ { r G r P.X + }.^ = L a # 8 L } 7.8 d ~ - * + - @ ~ # T g ].X K M K R L ).- ].. ~ [.. a ; b @ @ K 5 S G f.~  .r ; # 7 } Y [.z ",
"# c.g.5 z # )..  .e./.$ o.P.@ # 1 M r @ 5._.c { c.0.r z @ / > - v.T.^ =.-.r &.~ / L 8 %.%.h /.t.* ).+ c . 5 ].b.* { 2.-. .~ ; ^ # ^ =.0.] g.r.&.~ { @ > 8 b.f.^ ",
"^ c 9.=.| 4.z L d y.@ * b t.}.^ @ ~ # g.j.@ ~ &.@ o._.h 8 r * d.w.; # b w.u.5 * h ~ 6.w.; - ; n./.@ 5 N # ~.u.@ - > @ 8.`.+ 5 K + r.l.b 8 K j./.> g = . r.g.; K ",
"6 1 c d.z.I.g.y.v.; b d X %.w.0.o.=.j.&+-.= h 1 5 @ j.++&+I.A.&+* ~ b . =.t.A.J.8.z.;+b.~ * ).g ~+x.y.v.x.w.M + ~ . # ^.k.&+t.u.B.j.5.+ c ^ 5.w.;+i.v.~+w.-.K . ",
"8 h L N v.J.o.`.@ } 1 8 r 4.1 r /.}.5.@  .^ ;  .).+ a./.r.`.=.~ r ^ . =.- -.%.i.~+P.Y R d c N ~ K _.k.;+t.Y ~ K - M c * f.u.8.q.6.5 ~ T / h = - b.i.&+9.g > b =.",
"k b c  .9 (.) (.4 z ^ ~ P.- | & ' < $.&.Y 8 6 | |  .R < #.E 3.7 ).- g r c 1 Z V D *.&.M d * ~ [ = >.'.$.l 4.> G ,.` h r ~ , L.y 4.K g }.K r  .,.j j L.Z.+ %.* q ",
"b.=.L !+U W.)+{+N.! 3.{ > h P m % ' 3 E Q.1.1.W & j F A I 3 n t b 5 d.r W ]+^+/+(+^+/+&.-.[.r S E P v V._+V.#.i 2 2 @.i 1.L.% #.n f * X S Z ! W.,+V N.'+*.; ^.f.",
"=.&.+.O.Q.z b K s (.s $.&.m k r [.Y - Q.: >.^ # [ L.j q + 8 # ..w = 8 2 :+< z + 1 ^ M.<+..{.{.U 1. .@ ] ! t :.1 # b ..: ;.L N + ; ] n } l l m k h @ K @.(.E 7 5.",
"~ ` } z ).K # 6 X $...# 1.Z.} M + # c ).<...+ K ..... ~ $ . f.c q $ @.,...).@ + h r &.e i ( G 1.# M [ s . G *.$ + b & Y.l ^ b } b k < 3./ |.M.. ~ . K 1 L s | = ",
"= s ] 1 ^ N c - { K 7 } 9 1 M b @ > h / 6 a X + & > 8 ^ z - r = X L = Q.G K =.X [ 8 ~ ).$.).$ L . h > > 8 c ` i @ ).q | ~ K X 1 ).^ L $.4.} [ 8 ; ~ . K X ] G ` ",
"5 = 5 S b . + @ ^ ~ ^ h / # ^ b ~ c + > @ M / @ # / 1 . ^ ^ K - + #  .{ # @ K K @ > c > r ^  .c b - h . z ^ N L h ^ K ).K - h * 1 ; # h ~ ; X &.z &.&.L . ~ h @ ",
"z 2.K ; g L M c * / _.).n.# / * > + N ~ S 5.X / r.- [ N N b b 1 @ r.1 /.-.h > / * L 1 T %.. 0.- ~ > # * ; h * a.M > -.{ = d r z 1 c ` 6.; /.z - / * 6 Y + L 7.# ",
"d %.~.N 5 ; ` K z 5.2.M 6.].{.# Y ~ X S C.0.. # f.o.T  ./ ^ . / S 0.Y b.d.N . ~ K b * }.d.S ].c.+ r { * h + [.e.~ + ].o.{ 6 4.8 1 > 2.I.4.P.d.s b z N c / T g c ",
"O h ~+%.- S ~ # t.v.-.M * b.Y  .k X 5 l.&+S - T ^ i.8.5.Y 5  .b b.G z T [+8.T z  .c y.}+8 ).= T.1 7 # g T t.w.a.* z ~.D.j.+ ).Q.[ { j.# =.r G.8.^ b %.c T.A.* ! ",
"| 3.i S 9.l.w.H.H.c./ 5  .6 ).> . { r b.o.g c * -.d.%+%+b.{.a.b *.G Z.7 T |+1+2+3+}+=+5 ).W l @.g M 8 7.4+5+G.~ * _.g ^.b.r Y 5.h 5 R @ b T d ;+6+7+p.;+/.& 3.( ",
"~ } 2 7 a.B.@+T.2.c / 1 l & h g /.^.6 | &.z S f.S K * d - { f.. r z ~ $ ^ * w.8+6+u.r M Z.= 1 @ > l.P.^ }.-.).g a.+ K r ).h v.6.7.N 6 |.d h { ~.r.@+B.5.> z b { ",
". 4.c | <.L.P i } + b . i ~ X $.m f X.| = > # = } + L y A x ,.^ = +  .6 &.4.|.C C q ).} - h  .h + 2 _ O.i 1 5 -  .5 6 &.X , (.:.Z.* ~ a z r K K l !.L.O R g ).. ",
"- @ | n _+x w ) I Q.> 1 # ( M.u ;.m v Q Q.@ M - 5 ..v ,+V.P V.W.X 1 c [ @.V S.o A U B | X M ; 4.n ,+Q ) W.w & 1 h ^ * l 0 : t !.v : 6 8 L &.4.' S.H n o x X S c ",
"^ > : *./ X / ~ *.j . 4.5 V.Z.b ).; * !+3 L b [ z ) X.M c ^ - ,.v @ K ~ C <.K M 5 K M.n b K # '+X. .} G h e 3 - ^ c L !.+.@ ^ 1  .$ F . ^ c P ..+ d b c |.P > # ",
"@ |...; r = K @ h '.q {.1.@.^ + + . -  .9 ,.L 1 Z.& # c h .  . .i 2 = |.( - ^ # b @ ^ i Z.b '.>.b # K b @ . ( W N  .,.$.6 X 4.~  .1 , 4 M 4 ;.; N 5 @ r b i , - ",
"1 X b 8 * N ^ } N + 6 &.&. .K ^ h - {.=.+ . # K q X @ * c M N ^ ^ } &.6 + ^ b N b @ = . X z ` c / 1 g {. .K  ...z z | z 5 ^ z [ h h  .4.4.# +  .a L # M d . ` ; ",
"= = / M h > X &.6 a . d 2.Y @ K .  .r S /  .).] & [ ~ ^ {.c # ^ &.+ ; {.* # 4.l & @ = c [.. + R [ 5 N * M  .& & 2 G &.# 8 ; X X ).- { a.c 4.W Q.l 7 z K N 5 ~ ~ ",
"e.u.e.a.4.i ,.& a q X b P.a.5.a.5.S { 5 K 4.G l > 4.9 } T S * _.~.C.}.c.} 4 ( $ $.| 2 X }.P.s.7.Y [.Y N # l @.~ @.s 4.# r d a.%.M r -._.; $ W & i 4 i l @ 0.j.].",
"@ e.o.# q L + h 4.6.N |.%.`.=.a.g { 5 + + h K  .T.5.] W > / ; a.g.].^ ~./ ` ).@ @ 4. .c c./ }.G.%.4.; + Y.s 6.%.> = 1 h - + / ; 5 ^ 6.T W ~ d.1 + . G $ . c.c.b ",
" .5.%.b X  .h 5 }.u.8 G T `._.M ^ Y d g T g ; ; T C.v.5  .* T ^.t.[.= d P.%.@ } h + r.^.- > { i.P.h + ~ [ o.m.N 5 / { d r r * K c %.6.+ $ 8 t.=./ b b ^ { 7.c.1 ",
"4.[ K S d./.P.G.s.8 X # 7 @ 2.}.r.y.j._.[.5 >  .G c.n.h.u.8.n.w.*  .[ | S s.9+;+~+&+n.Y 2 [ * -.i.m.j./.&+B.T &.h K N [.~.l.k.9.y.y.Y z 1 ^ Y y.h.l.q.i._.S c > ",
"L 1  .; 0.9.}.~.1 / ~ b 7 X ~ -.f.0.f.^ - K ~ 8 @ ` > ~.w.q.7.^ /  .-.1 + / P.;+n.f.1 8 ~ M 5 1 r T.I.&+`.@ > { 8  .. ~ + P.i.r.P.5 K + @ # h c t.e.8.u.* X 1 - ",
"h X ; M 1 + 5 L b ).@ > . z 5 K ~ = 5 / X + N 4.K ] 4.= X h c ^ b > N h h N [ ~ ; ).5 / / ; 4.- d Y @ / T * X ~ b - - @ * 5 b  ./ c . * / * [ 5 = ^ # ^ S ; = g ",
"= - / h 9 3 f l  .* 1 * 5 [.[ @.f P !+1 %.^ 4.K L {.; W f P < h N - 1 {.Y ` 1.y 0 , K {.N X  .+ K e f J e  .a.; b # 8 %.; >.I f , > f.^ ; + 8 X ( f j k N r + b ",
"$ 1 $ !.% 3 V.0+!.q ^ 7.5 & U V >+U H _ z b X b - ,.!.n ' C V U.4 = . b l : : A A ' O.a r / - |.a+o !.O.n O.& ; 1 r / R !+x '+u N.Q a ^ ^.r } ' S.: ;.f I ( - $ ",
"k +.S.+.; _.a.T Z., + 5 k U P <...7 e n M.b =.a.5.e ../ X s ,.!.)+Y.9 Z.Y.W / S 5.# X.X.& $ y b+) $.i a ; s 1.@ {.T [ :.) '.,.$.e x '+7 M - |.9 c._.}.^ y S.+.q ",
"M ..< G ~ / M c ^.4 ] } >.+.~ { c +  .( *.a c S ] , - =.G $ + # 9 ( a X.|.b { {.M ; K Z.'.i W 9  .; 4 Z.@ = $.] Y X i 1.,.] . 1 Y [ (.>.| 4 e T @ r ^ > q '.W r ",
"h [ # = G # T ^ * G k . Z X 8 # # L ^ b 4 4  .1 $ K ~ ] ` # ; / # $ k @.} * . b 1 ~ c k Z.R k K ^ M * ` q = - a > 7 2 2 &.1 . G > { . X.&.q & . ` @ ).k  .# 6  .",
"^ X  ./ h [ ~ N ~ * h - R @ ; b ~ ; N - > + r + [ Y ; 4.1 * h + - ~ ^ @ b 1 K @ h . ).6 ~ 5 # L = = @ h )./ * s . 5 ; ).> N ; &.K 5 / q = @ M  .b 4.7 1 ; z } - ",
"K ]._.K ^ d @ .  .g S @ 6.{ b / 5 { # = {.{.b ; ~.- = @ b + ; ~ # %.{.g ^ K M h h 8 - M d r f.M + 5 + @ 5 = 1 7.~ b r { + [ = * 1 &.# _.- r 8 ^ * @ N 1 z 8 [.. ",
"= 6.-.> c 8 > h N 7.d {._./.* r 5 * X N d.].b b 6./.[.N ^ @ + K P.~.^ T.g./ ~ r /  .5 9.0.+ /.o.)./ h X + r Y 2.* 1 ^.6.- X r ^ - ~ f.c.[.[.P.b # - 8 5 1 -.^.= ",
"&.[ 2.6.6 k @ ; ].h.[.T h `.Y # > . a.j.@+8 6 1 M 8.6.8 f.8 b d.k.{ b a.z.b.h = ~ @ r.9+-.. h v.]. .~ g T l.w.{ 1 z b.%+w.{ b ~ b c.q./ c / e./.> N z @ z.C.@ ^ ",
"= X 6.D.;+6.5.d * ).. ` # @ }.].G.o.H.c+/ b # | @.^ g.z.x.H.h.t.1 8 { Y a.@+~.2._.[.n.8 r c g N w.n.++*+4+9.5 ..}  .] / A.K.G.B.~+&+~.T h / b -.2.`.o.B.d+7.6 # ",
"=.{.M =._.@ } z s s e K  .7.c.G.q.~+@+8 @ ..2 Z.Z.#.i d w.%+;+a.^.; P.; { k 6 r d &.2 * + ~.r 6.S m.e+++=.$ Z l >.Z.G X 5 w.f+g+l.S [.X - , & W L L c /.c.8 { -.",
"@ N / $ % ) X.W [ 1 L :.+ + b G Y.(.O X $.4.] |  .1 i j ' J 4 S h 5.6 } < k , j 3 Z.} ,.h K f.# [.>.L.E :.` d = S * 4.` > @.L.L.k @ N c < = ^ = >.'.3 _ q * g c ",
"; g G % V.H u V.S.& > N - k n 0+S.0 P D a &.b d 8 @.Q F >+V.C U X [ . R >.W.!.S.Q j _+( = h . > V.V.V.D >+t l * 1 ` # R n C O !.V.: q # 8 1 | x ' p U A A ..{ * ",
"@ z ;._ ).* # g $.O z L G ) ,.= r + 4.Z.n R c [ l (.$.K 6 ~ - 1.p a ^ 7 0 1.` } @ - i !.s [ 9 0+L.X = `  .Z.E 4.@ d l t < ).~ 1 + ,.C & [ K '...* X {./ (.y ~ 5 ",
"1 < 2 M @ - 8 b + < | h 2 W * + + [ Y b |.@.* 1 i k . @ +  .~ ; >.q 5 9 Z - { - . 5 K Q.Z.1 l i c @ z [ / > W 1.G L >.'.z b . / = r $ & ).Z._  .b @ h ; 1 Z.|.; ",
"/ s K {.K # c [ / ).} # s ~ ^ # + ~ N g = a X 8 2 = / @ / @ h ^ - l X = z 1 1 M - . h [ = L l @ r = / N ).K K , - [ &.K @ [ &.1 # ; 6 & | ( & = | K # @ { = | - ",
"+ + r T -.g * ; + 1 ^ { a.^ h 8 ; N * ; 5 * b = [ 1 b ; c ^ K h  .# - 5 N 8 r > K / h - @ b K L / # # ; N 5 1 ).- b ^ @ * 8 / = r  .~ * @ =  .b / = = @ r * - L ",
"&.g r ; c.Y = / 1 f.`.~.l.5 ] a ] ).&.K 7.d.g ~ T.=.* { =./ } a . Y @ [.c.@ ; z 1 / ~ T [.* 8 ] 4 | 4.h T M r 7./ M _.%.^ K [ 2 ( l b _.[.f.[.= ).4.8 5./ b  .W ",
"O ] } 7 8 T c f.{ 9.i.8 { ^ 7 Q.|...,.1 t.o.d a.8.g.[.+ [ ( i $ > &.4 * e.%.a.^._.=.7.v.{ l ] &.4 @.,.7 N ^.0.i.Y { r.g.K W $.1.*.| ^ @ c g.v.Y [.T T b k k G , ",
"> ; 5 ~ ~ 5 8 5 J.q._.K q S b.{.X b # * 2.-./ 5./.C.i.c | G b P.C.* R X ].`.r S M 5 `.T. .] / 8./.h 6 ).@ g.n.P.{ ; c.b.+ L h - c 2.r ( ).P.G.J.r d - L N f.S { ",
"~ K r g { `.~+y.w.[.> . 9 8 `.v.t.B.j.M + 1  .b ^ T.v.].}.g.G.q.-.b h z d n.y.@+@+g.`.+ ` + h g w.u.w.j.T /.0.# + 1 ^ / Y v.@+w.y.G.8 | ).~ M v.u.H.G.7.].[.. ).",
"/ + r g Y 2.j.0.; 4.k 4.7 &.~ M u.h.r.N X . K > 7 - N -.j.8./.{ 1 N S ^ K a.r.j.i.].5 } # T N  .T r.~+q.-.* ; X h - = . Y v.&+i.}.T @ h # z [ N u.y.9.f.; ~ - * ",
" .~ = = + @ h b  ./ * . d ~ K * + . ~ + 1 # ^ ^  .1 K ~ / ^ K # b - [ / # X c ).).Y 1 + ; z 1 ; = ^ 1 K ^ - = ^ / @ # # ^ - ~ ; ^ 6 K / ~ + r K ^ . @ N . # / X "};
