<?xml version="1.0" encoding="UTF-8" standalone="no"?>
<!-- Created with Sodipodi ("http://www.sodipodi.com/") -->

<svg
   xmlns:dc="http://purl.org/dc/elements/1.1/"
   xmlns:cc="http://creativecommons.org/ns#"
   xmlns:rdf="http://www.w3.org/1999/02/22-rdf-syntax-ns#"
   xmlns:svg="http://www.w3.org/2000/svg"
   xmlns="http://www.w3.org/2000/svg"
   xmlns:xlink="http://www.w3.org/1999/xlink"
   xmlns:sodipodi="http://sodipodi.sourceforge.net/DTD/sodipodi-0.dtd"
   xmlns:inkscape="http://www.inkscape.org/namespaces/inkscape"
   id="svg1277"
   sodipodi:version="0.34"
   width="300"
   height="128.15657"
   xml:space="preserve"
   sodipodi:docname="Eole.svg"
   version="1.1"
   inkscape:version="0.47pre4 r22446"><metadata
     id="metadata133"><rdf:RDF><cc:Work
         rdf:about=""><dc:format>image/svg+xml</dc:format><dc:type
           rdf:resource="http://purl.org/dc/dcmitype/StillImage" /></cc:Work></rdf:RDF></metadata><defs
     id="defs1279"><inkscape:perspective
       sodipodi:type="inkscape:persp3d"
       inkscape:vp_x="0 : 526.18109 : 1"
       inkscape:vp_y="0 : 1000 : 0"
       inkscape:vp_z="744.09448 : 526.18109 : 1"
       inkscape:persp3d-origin="372.04724 : 350.78739 : 1"
       id="perspective135" /><linearGradient
       id="linearGradient1236"><stop
         style="stop-color:#cccccc;stop-opacity:1;"
         offset="0"
         id="stop1237" /><stop
         style="stop-color:#ffffff;stop-opacity:1;"
         offset="1"
         id="stop1238" /></linearGradient><linearGradient
       id="linearGradient973"><stop
         style="stop-color:#f3f2f3;stop-opacity:1;"
         offset="0"
         id="stop974" /><stop
         style="stop-color:#191919;stop-opacity:1;"
         offset="1"
         id="stop975" /></linearGradient><linearGradient
       id="linearGradient884"><stop
         style="stop-color:#f0da00;stop-opacity:1;"
         offset="0"
         id="stop885" /><stop
         style="stop-color:#ca6f00;stop-opacity:1;"
         offset="1"
         id="stop886" /></linearGradient><linearGradient
       id="linearGradient1396"><stop
         style="stop-color:#0097ff;stop-opacity:1;"
         offset="0"
         id="stop1397" /><stop
         style="stop-color:#bfffff;stop-opacity:1;"
         offset="1"
         id="stop1398" /></linearGradient><linearGradient
       id="linearGradient1306"><stop
         style="stop-color:#4f2700;stop-opacity:1;"
         offset="0"
         id="stop1307" /><stop
         style="stop-color:#bf8d00;stop-opacity:1;"
         offset="1"
         id="stop1308" /></linearGradient><linearGradient
       id="linearGradient1302"><stop
         style="stop-color:#000;stop-opacity:1;"
         offset="0"
         id="stop1303" /><stop
         style="stop-color:#fff;stop-opacity:1;"
         offset="1"
         id="stop1304" /></linearGradient><linearGradient
       xlink:href="#linearGradient1396"
       id="linearGradient1305"
       x1="141.7805"
       y1="723.90515"
       x2="158.16017"
       y2="672.18793"
       gradientTransform="matrix(0.56280534,0,0,0.25581237,8.0505257,-119.8034)"
       gradientUnits="userSpaceOnUse" /><linearGradient
       xlink:href="#linearGradient1306"
       id="linearGradient1309"
       x1="-591.27002"
       y1="-423.79285"
       x2="-658.90405"
       y2="-377.5155"
       spreadMethod="pad"
       gradientTransform="scale(0.65058704,1.5370734)"
       gradientUnits="userSpaceOnUse" /><linearGradient
       xlink:href="#linearGradient1306"
       id="linearGradient1310"
       x1="-639.91406"
       y1="-390.55759"
       x2="-637.18719"
       y2="-390.43036"
       spreadMethod="reflect"
       gradientTransform="scale(0.65058704,1.5370734)"
       gradientUnits="userSpaceOnUse" /><linearGradient
       xlink:href="#linearGradient1396"
       id="linearGradient1311"
       x1="206.73689"
       y1="565.59637"
       x2="209.72357"
       y2="554.63043"
       spreadMethod="pad"
       gradientTransform="matrix(0.45679163,0,0,0.31518216,8.0505257,-119.8034)"
       gradientUnits="userSpaceOnUse" /><linearGradient
       xlink:href="#linearGradient1396"
       id="linearGradient1399"
       x1="222.67285"
       y1="479.2561"
       x2="314.33582"
       y2="504.90768"
       gradientTransform="matrix(0.32653107,0,0,0.44091536,8.0505257,-119.8034)"
       gradientUnits="userSpaceOnUse" /><linearGradient
       xlink:href="#linearGradient1396"
       id="linearGradient1400"
       x1="400.31772"
       y1="448.90692"
       x2="241.72192"
       y2="521.53717"
       gradientTransform="matrix(0.33956181,0,0,0.42399516,8.0505257,-119.8034)"
       gradientUnits="userSpaceOnUse" /><linearGradient
       xlink:href="#linearGradient1396"
       id="linearGradient1401"
       x1="358.03973"
       y1="599.15717"
       x2="399.04977"
       y2="615.47723"
       gradientTransform="matrix(0.38560458,0,0,0.3733684,8.0505257,-119.8034)"
       gradientUnits="userSpaceOnUse" /><linearGradient
       xlink:href="#linearGradient1396"
       id="linearGradient1406"
       x1="351.95029"
       y1="584.82648"
       x2="304.49384"
       y2="678.44531"
       gradientTransform="matrix(0.5070636,0,0,0.28393395,8.0505257,-119.8034)"
       gradientUnits="userSpaceOnUse" /><linearGradient
       xlink:href="#linearGradient1396"
       id="linearGradient1407"
       x1="365.33197"
       y1="584.63263"
       x2="419.74722"
       y2="760.18427"
       gradientTransform="matrix(0.61863542,0,0,0.23272603,8.0505257,-119.8034)"
       gradientUnits="userSpaceOnUse" /><linearGradient
       xlink:href="#linearGradient1396"
       id="linearGradient1408"
       x1="318.80801"
       y1="713.25568"
       x2="267.11484"
       y2="631.836"
       gradientTransform="matrix(0.70128753,0,0,0.20529748,8.0505257,-119.8034)"
       gradientUnits="userSpaceOnUse" /><linearGradient
       xlink:href="#linearGradient1396"
       id="linearGradient1410"
       x1="167.91939"
       y1="856.28741"
       x2="251.08772"
       y2="797.2384"
       gradientTransform="matrix(0.64592682,0,0,0.222893,8.0505257,-119.8034)"
       gradientUnits="userSpaceOnUse" /><linearGradient
       xlink:href="#linearGradient1396"
       id="linearGradient1412"
       x1="278.4563"
       y1="752.8382"
       x2="386.64825"
       y2="771.35724"
       gradientTransform="matrix(0.53089975,0,0,0.27118597,8.0505257,-119.8034)"
       gradientUnits="userSpaceOnUse" /><linearGradient
       xlink:href="#linearGradient1396"
       id="linearGradient1414"
       x1="271.90204"
       y1="848.62531"
       x2="277.22809"
       y2="712.9436"
       gradientTransform="matrix(0.54630695,0,0,0.26353785,8.0505257,-119.8034)"
       gradientUnits="userSpaceOnUse" /><linearGradient
       xlink:href="#linearGradient1396"
       id="linearGradient1415"
       gradientTransform="matrix(0.60765474,0,0,0.23693153,8.0505257,-119.8034)"
       x1="-13.24852"
       y1="657.81647"
       x2="127.7283"
       y2="657.81647"
       gradientUnits="userSpaceOnUse" /><linearGradient
       xlink:href="#linearGradient1396"
       id="linearGradient1416"
       x1="92.341835"
       y1="812.79419"
       x2="93.7939"
       y2="790.80414"
       gradientTransform="matrix(0.64429137,0,0,0.22345879,8.0505257,-119.8034)"
       gradientUnits="userSpaceOnUse" /><linearGradient
       xlink:href="#linearGradient1396"
       id="linearGradient1418"
       x1="219.32526"
       y1="715.98834"
       x2="213.37251"
       y2="677.7865"
       gradientTransform="matrix(0.58515381,0,0,0.24604226,8.0505257,-119.8034)"
       gradientUnits="userSpaceOnUse" /><linearGradient
       xlink:href="#linearGradient1396"
       id="linearGradient1421"
       x1="136.31586"
       y1="828.94849"
       x2="411.29611"
       y2="516.86884"
       gradientTransform="matrix(0.64968575,0,0,0.22160338,8.0505257,-119.8034)"
       gradientUnits="userSpaceOnUse" /><linearGradient
       xlink:href="#linearGradient973"
       id="linearGradient883"
       x1="1027.507"
       y1="104.62423"
       x2="986.32605"
       y2="159.09984"
       gradientTransform="scale(0.68196394,1.4663532)"
       gradientUnits="userSpaceOnUse" /><radialGradient
       xlink:href="#linearGradient884"
       id="radialGradient957"
       gradientTransform="scale(1.0716088,0.93317637)"
       cx="518.95105"
       cy="250.77138"
       fx="518.95105"
       fy="250.77138"
       r="29.485888"
       gradientUnits="userSpaceOnUse" /><radialGradient
       xlink:href="#linearGradient884"
       id="radialGradient958"
       cx="634.22205"
       cy="245.02542"
       r="27.5991"
       fx="634.22205"
       fy="245.02542"
       gradientTransform="scale(1.0295592,0.97128944)"
       gradientUnits="userSpaceOnUse" /><radialGradient
       xlink:href="#linearGradient973"
       id="radialGradient963"
       cx="399.73233"
       cy="448.7034"
       r="4.2430081"
       fx="399.73233"
       fy="448.7034"
       gradientUnits="userSpaceOnUse" /><radialGradient
       xlink:href="#linearGradient884"
       id="radialGradient964"
       gradientTransform="matrix(3.499509,0,0,2.5717893,-1530.387,-400.72788)"
       cx="513.6499"
       cy="156.51167"
       fx="513.6499"
       fy="156.51167"
       r="0.69490826"
       gradientUnits="userSpaceOnUse" /><radialGradient
       xlink:href="#linearGradient973"
       id="radialGradient976"
       cx="400.14761"
       cy="449.28473"
       r="4.1524897"
       fx="400.14761"
       fy="449.28473"
       gradientUnits="userSpaceOnUse" /><radialGradient
       xlink:href="#linearGradient973"
       id="radialGradient977"
       gradientTransform="scale(1.2133506,0.8241641)"
       cx="507.42322"
       cy="130.35054"
       fx="507.42322"
       fy="130.35054"
       r="12.898515"
       gradientUnits="userSpaceOnUse" /><linearGradient
       xlink:href="#linearGradient1306"
       id="linearGradient978"
       x1="369.62036"
       y1="876.63013"
       x2="448.3703"
       y2="876.63013"
       gradientUnits="userSpaceOnUse" /><radialGradient
       xlink:href="#linearGradient973"
       id="radialGradient979"
       cx="648.43866"
       cy="174.16226"
       r="97.208031"
       fx="648.43866"
       fy="174.16226"
       gradientTransform="scale(0.93549402,1.0689539)"
       gradientUnits="userSpaceOnUse" /><linearGradient
       xlink:href="#linearGradient1306"
       id="linearGradient1013"
       x1="183.2933"
       y1="254.74509"
       x2="235.35805"
       y2="254.74509"
       gradientTransform="scale(0.68406673,1.4618457)"
       gradientUnits="userSpaceOnUse" /><linearGradient
       xlink:href="#linearGradient1306"
       id="linearGradient1014"
       x1="166.80354"
       y1="383.11731"
       x2="233.14105"
       y2="383.11731"
       gradientTransform="scale(0.99961961,1.0003805)"
       gradientUnits="userSpaceOnUse" /><linearGradient
       xlink:href="#linearGradient1306"
       id="linearGradient1015"
       x1="117.83271"
       y1="401.71802"
       x2="179.23495"
       y2="401.71802"
       gradientTransform="scale(0.88442592,1.130677)"
       gradientUnits="userSpaceOnUse" /><linearGradient
       xlink:href="#linearGradient1306"
       id="linearGradient1016"
       x1="245.76761"
       y1="295.11841"
       x2="294.21429"
       y2="295.11841"
       gradientTransform="scale(0.64487079,1.5506982)"
       gradientUnits="userSpaceOnUse" /><radialGradient
       xlink:href="#linearGradient973"
       id="radialGradient1022"
       cx="173.53561"
       cy="418.32071"
       r="6.8111048"
       fx="173.53561"
       fy="418.32071"
       gradientTransform="scale(0.92672779,1.0790655)"
       gradientUnits="userSpaceOnUse" /><radialGradient
       xlink:href="#linearGradient973"
       id="radialGradient1191"
       cx="328.12747"
       cy="812.30835"
       r="2.0254464"
       fx="328.12747"
       fy="812.30835"
       gradientTransform="scale(1.0141835,0.98601481)"
       gradientUnits="userSpaceOnUse" /><radialGradient
       xlink:href="#linearGradient1302"
       id="radialGradient1197"
       cx="545.84412"
       cy="718.66193"
       r="179.61993"
       fx="545.84412"
       fy="718.66193"
       gradientUnits="userSpaceOnUse" /><linearGradient
       xlink:href="#linearGradient1236"
       id="linearGradient1235"
       x1="186.25455"
       y1="694.21063"
       x2="192.09557"
       y2="640.75616"
       gradientTransform="matrix(0.4528218,0,0,0.31794529,8.0505257,-119.8034)"
       gradientUnits="userSpaceOnUse" /><linearGradient
       inkscape:collect="always"
       xlink:href="#linearGradient1306"
       id="linearGradient2975"
       x1="369.62036"
       y1="876.63013"
       x2="448.3703"
       y2="876.63013"
       gradientUnits="userSpaceOnUse" /><radialGradient
       inkscape:collect="always"
       xlink:href="#linearGradient973"
       id="radialGradient2977"
       gradientTransform="scale(1.0141835,0.98601481)"
       cx="328.12747"
       cy="812.30835"
       fx="328.12747"
       fy="812.30835"
       r="2.0254464"
       gradientUnits="userSpaceOnUse" /><radialGradient
       inkscape:collect="always"
       xlink:href="#linearGradient1302"
       id="radialGradient2979"
       cx="545.84412"
       cy="718.66193"
       fx="545.84412"
       fy="718.66193"
       r="179.61993"
       gradientUnits="userSpaceOnUse" /><linearGradient
       inkscape:collect="always"
       xlink:href="#linearGradient1306"
       id="linearGradient2981"
       spreadMethod="reflect"
       x1="-644.89185"
       y1="-389.5238"
       x2="-642.16498"
       y2="-389.39658"
       gradientTransform="scale(0.65058704,1.5370734)"
       gradientUnits="userSpaceOnUse" /><linearGradient
       inkscape:collect="always"
       xlink:href="#linearGradient1306"
       id="linearGradient2983"
       spreadMethod="reflect"
       x1="-613.62274"
       y1="-396.35974"
       x2="-610.89587"
       y2="-396.23251"
       gradientTransform="scale(0.6505871,1.5370732)"
       gradientUnits="userSpaceOnUse" /><linearGradient
       inkscape:collect="always"
       xlink:href="#linearGradient1306"
       id="linearGradient2985"
       spreadMethod="reflect"
       x1="-617.51355"
       y1="-395.58118"
       x2="-614.78668"
       y2="-395.45395"
       gradientTransform="scale(0.65058704,1.5370734)"
       gradientUnits="userSpaceOnUse" /><linearGradient
       inkscape:collect="always"
       xlink:href="#linearGradient1306"
       id="linearGradient2987"
       spreadMethod="reflect"
       x1="-621.79633"
       y1="-394.57852"
       x2="-619.06946"
       y2="-394.45129"
       gradientTransform="scale(0.650587,1.5370734)"
       gradientUnits="userSpaceOnUse" /><linearGradient
       inkscape:collect="always"
       xlink:href="#linearGradient1306"
       id="linearGradient2989"
       spreadMethod="reflect"
       x1="-626.39313"
       y1="-393.65158"
       x2="-623.66626"
       y2="-393.52435"
       gradientTransform="scale(0.650587,1.5370734)"
       gradientUnits="userSpaceOnUse" /><linearGradient
       inkscape:collect="always"
       xlink:href="#linearGradient1306"
       id="linearGradient2991"
       spreadMethod="reflect"
       x1="-630.8103"
       y1="-392.63174"
       x2="-628.08344"
       y2="-392.50452"
       gradientTransform="scale(0.650587,1.5370734)"
       gradientUnits="userSpaceOnUse" /><linearGradient
       inkscape:collect="always"
       xlink:href="#linearGradient1306"
       id="linearGradient2993"
       spreadMethod="reflect"
       x1="-635.22772"
       y1="-391.61188"
       x2="-632.50085"
       y2="-391.48465"
       gradientTransform="scale(0.650587,1.5370734)"
       gradientUnits="userSpaceOnUse" /><radialGradient
       inkscape:collect="always"
       xlink:href="#linearGradient884"
       id="radialGradient2995"
       gradientTransform="scale(1.3242365,0.75515215)"
       cx="313.15128"
       cy="610.22949"
       fx="313.15128"
       fy="610.22949"
       r="15.496073"
       gradientUnits="userSpaceOnUse" /><linearGradient
       inkscape:collect="always"
       xlink:href="#linearGradient1306"
       id="linearGradient2997"
       x1="369.62036"
       y1="876.63013"
       x2="448.3703"
       y2="876.63013"
       gradientUnits="userSpaceOnUse" /><radialGradient
       inkscape:collect="always"
       xlink:href="#linearGradient973"
       id="radialGradient2999"
       gradientTransform="scale(1.0141835,0.98601481)"
       cx="328.12747"
       cy="812.30835"
       fx="328.12747"
       fy="812.30835"
       r="2.0254464"
       gradientUnits="userSpaceOnUse" /><radialGradient
       inkscape:collect="always"
       xlink:href="#linearGradient1302"
       id="radialGradient3001"
       cx="545.84412"
       cy="718.66193"
       fx="545.84412"
       fy="718.66193"
       r="179.61993"
       gradientUnits="userSpaceOnUse" /><linearGradient
       inkscape:collect="always"
       xlink:href="#linearGradient1306"
       id="linearGradient3003"
       x1="369.62036"
       y1="876.63013"
       x2="448.3703"
       y2="876.63013"
       gradientUnits="userSpaceOnUse" /><radialGradient
       inkscape:collect="always"
       xlink:href="#linearGradient973"
       id="radialGradient3005"
       gradientTransform="scale(1.0141835,0.98601481)"
       cx="328.12747"
       cy="812.30835"
       fx="328.12747"
       fy="812.30835"
       r="2.0254464"
       gradientUnits="userSpaceOnUse" /><radialGradient
       inkscape:collect="always"
       xlink:href="#linearGradient1302"
       id="radialGradient3007"
       cx="545.84412"
       cy="718.66193"
       fx="545.84412"
       fy="718.66193"
       r="179.61993"
       gradientUnits="userSpaceOnUse" /><radialGradient
       inkscape:collect="always"
       xlink:href="#linearGradient884"
       id="radialGradient3009"
       gradientTransform="matrix(4.3465374,0,0,2.0706138,-1530.387,-400.72788)"
       cx="419.34024"
       cy="194.59991"
       fx="419.34024"
       fy="194.59991"
       r="0.90068042"
       gradientUnits="userSpaceOnUse" /></defs><sodipodi:namedview
     id="base"
     showgrid="false"
     inkscape:zoom="0.44851479"
     inkscape:cx="219.98214"
     inkscape:cy="263.27247"
     inkscape:window-width="818"
     inkscape:window-height="493"
     inkscape:window-x="4"
     inkscape:window-y="21"
     inkscape:window-maximized="0"
     inkscape:current-layer="svg1277" /><path
     style="fill:none;stroke:#000000;stroke-width:0.37943716pt;stroke-linecap:butt;stroke-linejoin:miter;stroke-opacity:1"
     d="m 93.511388,50.741423 13.347072,-7.26004"
     id="path1217"
     sodipodi:nodetypes="cc" /><g
     id="g1210"
     transform="matrix(0.12427098,0.06017457,-0.05220297,0.16119212,109.08888,-28.538063)"><path
       style="font-size:12px;fill:url(#linearGradient978);fill-rule:evenodd"
       d="m 408.9952,906.437 c 5.2843,0 -5.2843,0 0,0 z m 5.6433,8.1607 c 0.6483,4.3611 27.6822,-1.3646 27.6991,0.203 -0.1016,11.0403 -3.46,20.06 -13.1741,27.1968 -1.1886,0.8352 -13.4014,-22.9449 -17.2171,-21.331 -3.8159,1.614 10.7488,25.7519 9.1817,26.2997 -11.9476,4.0996 -19.3387,3.4384 -30.6412,-3.3436 -1.2519,-0.8001 16.9041,-20.7706 14.0962,-23.6951 -2.8058,-2.9637 -20.0594,19.3086 -21.0221,18.156 -7.107,-8.7735 -9.8984,-19.3586 -6.6561,-32.0766 0.3898,-1.4317 24.6868,11.5559 26.3006,7.7404 1.614,-3.8159 -23.3852,-14.4261 -22.3135,-15.948 6.7734,-9.8395 13.7302,-14.8185 27.1705,-15.5794 1.5172,-0.0609 -2.4626,27.2609 1.6696,27.5613 3.9328,0.325 6.1265,-26.5884 7.9268,-26.2395 11.7405,2.0968 21.4488,11.2421 23.6346,22.0274 0.2659,1.3998 -27.337,4.7039 -26.655,9.0286 z m 33.7315,1.408 c 0,21.7462 -17.6288,39.375 -39.375,39.375 -21.7462,0 -39.3749,-17.6288 -39.3749,-39.375 0,-21.7463 17.6287,-39.375 39.3749,-39.375 21.7462,0 39.375,17.6287 39.375,39.375 z"
       id="path1211"
       sodipodi:nodetypes="cccssssssssssssccccccss"
       transform="translate(136.9157,-195.3537)" /><path
       sodipodi:type="arc"
       style="font-size:12px;fill:url(#radialGradient1191);fill-rule:evenodd"
       id="path1212"
       d="m 336.75958,801.00787 c 0,2.13569 -1.78078,3.86701 -3.97748,3.86701 -2.1967,0 -3.97747,-1.73132 -3.97747,-3.86701 0,-2.13568 1.78077,-3.867 3.97747,-3.867 2.1967,0 3.97748,1.73132 3.97748,3.867 z"
       sodipodi:cx="332.7821"
       sodipodi:cy="801.00787"
       sodipodi:rx="3.977478"
       sodipodi:ry="3.8670044"
       transform="matrix(2.113111,0,0,2.144916,-157.6425,-998.1246)" /><path
       style="font-size:12px;fill:url(#radialGradient1197);fill-rule:evenodd;stroke-width:1"
       d="m 584.5958,720.7502 c 0,21.401 -17.349,38.75 -38.7501,38.75 -21.401,0 -38.7499,-17.349 -38.7499,-38.75 0,-21.401 17.3489,-38.75 38.7499,-38.75 21.4011,0 38.7501,17.349 38.7501,38.75 z m 5.8123,-2e-4 c 0,24.6112 -19.9513,44.5624 -44.5626,44.5624 -24.6111,0 -44.5624,-19.9512 -44.5624,-44.5624 0,-24.6112 19.9513,-44.5625 44.5624,-44.5625 24.6113,0 44.5626,19.9513 44.5626,44.5625 z"
       id="path1213" /></g><g
     id="g1206"
     transform="matrix(0.0755854,0.05081651,-0.05010355,0.09168644,70.621537,12.230903)"><path
       style="font-size:12px;fill:url(#linearGradient3003);fill-rule:evenodd"
       d="m 408.9952,906.437 c 5.2843,0 -5.2843,0 0,0 z m 5.6433,8.1607 c 0.6483,4.3611 27.6822,-1.3646 27.6991,0.203 -0.1016,11.0403 -3.46,20.06 -13.1741,27.1968 -1.1886,0.8352 -13.4014,-22.9449 -17.2171,-21.331 -3.8159,1.614 10.7488,25.7519 9.1817,26.2997 -11.9476,4.0996 -19.3387,3.4384 -30.6412,-3.3436 -1.2519,-0.8001 16.9041,-20.7706 14.0962,-23.6951 -2.8058,-2.9637 -20.0594,19.3086 -21.0221,18.156 -7.107,-8.7735 -9.8984,-19.3586 -6.6561,-32.0766 0.3898,-1.4317 24.6868,11.5559 26.3006,7.7404 1.614,-3.8159 -23.3852,-14.4261 -22.3135,-15.948 6.7734,-9.8395 13.7302,-14.8185 27.1705,-15.5794 1.5172,-0.0609 -2.4626,27.2609 1.6696,27.5613 3.9328,0.325 6.1265,-26.5884 7.9268,-26.2395 11.7405,2.0968 21.4488,11.2421 23.6346,22.0274 0.2659,1.3998 -27.337,4.7039 -26.655,9.0286 z m 33.7315,1.408 c 0,21.7462 -17.6288,39.375 -39.375,39.375 -21.7462,0 -39.3749,-17.6288 -39.3749,-39.375 0,-21.7463 17.6287,-39.375 39.3749,-39.375 21.7462,0 39.375,17.6287 39.375,39.375 z"
       id="path1207"
       sodipodi:nodetypes="cccssssssssssssccccccss"
       transform="translate(136.9157,-195.3537)" /><path
       sodipodi:type="arc"
       style="font-size:12px;fill:url(#radialGradient3005);fill-rule:evenodd"
       id="path1208"
       d="m 336.75958,801.00787 c 0,2.13569 -1.78078,3.86701 -3.97748,3.86701 -2.1967,0 -3.97747,-1.73132 -3.97747,-3.86701 0,-2.13568 1.78077,-3.867 3.97747,-3.867 2.1967,0 3.97748,1.73132 3.97748,3.867 z"
       sodipodi:cx="332.7821"
       sodipodi:cy="801.00787"
       sodipodi:rx="3.977478"
       sodipodi:ry="3.8670044"
       transform="matrix(2.113111,0,0,2.144916,-157.6425,-998.1246)" /><path
       style="font-size:12px;fill:url(#radialGradient3007);fill-rule:evenodd;stroke-width:1"
       d="m 584.5958,720.7502 c 0,21.401 -17.349,38.75 -38.7501,38.75 -21.401,0 -38.7499,-17.349 -38.7499,-38.75 0,-21.401 17.3489,-38.75 38.7499,-38.75 21.4011,0 38.7501,17.349 38.7501,38.75 z m 5.8123,-2e-4 c 0,24.6112 -19.9513,44.5624 -44.5626,44.5624 -24.6111,0 -44.5624,-19.9512 -44.5624,-44.5624 0,-24.6112 19.9513,-44.5625 44.5624,-44.5625 24.6113,0 44.5626,19.9513 44.5626,44.5625 z"
       id="path1209" /></g><g
     id="g1202"
     transform="matrix(0.14584085,0.07325414,-0.06877868,0.17983501,63.479808,-56.419115)"><path
       style="font-size:12px;fill:url(#linearGradient2997);fill-rule:evenodd"
       d="m 408.9952,906.437 c 5.2843,0 -5.2843,0 0,0 z m 5.6433,8.1607 c 0.6483,4.3611 27.6822,-1.3646 27.6991,0.203 -0.1016,11.0403 -3.46,20.06 -13.1741,27.1968 -1.1886,0.8352 -13.4014,-22.9449 -17.2171,-21.331 -3.8159,1.614 10.7488,25.7519 9.1817,26.2997 -11.9476,4.0996 -19.3387,3.4384 -30.6412,-3.3436 -1.2519,-0.8001 16.9041,-20.7706 14.0962,-23.6951 -2.8058,-2.9637 -20.0594,19.3086 -21.0221,18.156 -7.107,-8.7735 -9.8984,-19.3586 -6.6561,-32.0766 0.3898,-1.4317 24.6868,11.5559 26.3006,7.7404 1.614,-3.8159 -23.3852,-14.4261 -22.3135,-15.948 6.7734,-9.8395 13.7302,-14.8185 27.1705,-15.5794 1.5172,-0.0609 -2.4626,27.2609 1.6696,27.5613 3.9328,0.325 6.1265,-26.5884 7.9268,-26.2395 11.7405,2.0968 21.4488,11.2421 23.6346,22.0274 0.2659,1.3998 -27.337,4.7039 -26.655,9.0286 z m 33.7315,1.408 c 0,21.7462 -17.6288,39.375 -39.375,39.375 -21.7462,0 -39.3749,-17.6288 -39.3749,-39.375 0,-21.7463 17.6287,-39.375 39.3749,-39.375 21.7462,0 39.375,17.6287 39.375,39.375 z"
       id="path1203"
       sodipodi:nodetypes="cccssssssssssssccccccss"
       transform="translate(136.9157,-195.3537)" /><path
       sodipodi:type="arc"
       style="font-size:12px;fill:url(#radialGradient2999);fill-rule:evenodd"
       id="path1204"
       d="m 336.75958,801.00787 c 0,2.13569 -1.78078,3.86701 -3.97748,3.86701 -2.1967,0 -3.97747,-1.73132 -3.97747,-3.86701 0,-2.13568 1.78077,-3.867 3.97747,-3.867 2.1967,0 3.97748,1.73132 3.97748,3.867 z"
       sodipodi:cx="332.7821"
       sodipodi:cy="801.00787"
       sodipodi:rx="3.977478"
       sodipodi:ry="3.8670044"
       transform="matrix(2.113111,0,0,2.144916,-157.6425,-998.1246)" /><path
       style="font-size:12px;fill:url(#radialGradient3001);fill-rule:evenodd;stroke-width:1"
       d="m 584.5958,720.7502 c 0,21.401 -17.349,38.75 -38.7501,38.75 -21.401,0 -38.7499,-17.349 -38.7499,-38.75 0,-21.401 17.3489,-38.75 38.7499,-38.75 21.4011,0 38.7501,17.349 38.7501,38.75 z m 5.8123,-2e-4 c 0,24.6112 -19.9513,44.5624 -44.5626,44.5624 -24.6111,0 -44.5624,-19.9512 -44.5624,-44.5624 0,-24.6112 19.9513,-44.5625 44.5624,-44.5625 24.6113,0 44.5626,19.9513 44.5626,44.5625 z"
       id="path1205" /></g><g
     id="g995"
     transform="matrix(0.06428386,0,0,0.06488376,111.30581,93.820706)"><g
       id="g990"><path
         style="font-size:12px;fill-rule:evenodd"
         d="m 356.0647,411.9914 c -21.7217,-0.2386 -34.4652,14.7144 -31.0251,53.7871 1.2475,14.3874 -72.9747,96.5981 14.1935,107.5238 l 31.9272,0.5906 c 58.82,-3.5435 47.8693,-55.8232 45.8403,-61.786 -5.9842,-20.5838 -25.8455,-39.9779 -25.9855,-51.0269 -0.1359,-33.7348 -12.405,-49.441 -34.9504,-49.0886 z"
         id="path756"
         sodipodi:nodetypes="csccsss"
         transform="matrix(3,0,0,3,-795.8882,-1413.188)" /><path
         sodipodi:type="arc"
         style="font-size:12px;fill:url(#radialGradient977);fill-rule:evenodd"
         id="path860"
         d="m 631.33267,107.43024 c 0,5.87106 -7.00693,10.63049 -15.65042,10.63049 -8.64349,0 -15.65042,-4.75943 -15.65042,-10.63049 0,-5.87106 7.00693,-10.630496 15.65042,-10.630496 8.64349,0 15.65042,4.759436 15.65042,10.630496 z"
         sodipodi:cx="615.68225"
         sodipodi:cy="107.43024"
         sodipodi:rx="15.650421"
         sodipodi:ry="10.630493"
         transform="matrix(2.038695,0.9474,-0.945636,1.891647,-834.2363,-927.1913)" /><path
         style="font-size:12px;fill:#f8f7f7;fill-rule:evenodd"
         d="m 643.6524,226.2441 c -10.3464,12.6273 -24.7695,22.0723 -47.9866,21.6773 -23.6637,-0.8201 -31.1195,-12.2229 -29.8924,-42.2055 0.7308,-12.7552 4.7969,-23.3799 9.398,-31.3371 2.3856,-5.9679 8.7849,-8.0458 12.7238,-26.3723 6.2448,6.2093 12.6296,8.3276 15.1713,8.358 4.8382,0.0984 16.7798,-5.6772 20.6843,-10.0028 4.5477,15.7803 9.5585,21.1197 12.834,24.9404 19.9527,23.6912 9.3665,51.6267 7.0676,54.942 z"
         id="path793"
         sodipodi:nodetypes="cssccscss"
         transform="matrix(3,0,0,3,-1551.604,-463.8486)" /><path
         style="font-size:12px;fill:url(#radialGradient979);fill-rule:evenodd"
         d="m 594.8524,209.0117 c 0,11.0899 2.5217,16.5364 1.217,16.5364 -1.3047,0 -4.4801,-5.6553 -4.4801,-16.7452 0,-11.0896 4.2194,-23.2055 5.5241,-23.2055 1.3047,0 -2.261,12.3247 -2.261,23.4143 z M 632.27,169.5802 c 4.1762,3.7165 7.6897,8.0949 8.7337,13.4818 -7.1585,-6.2222 -19.1194,-9.1034 -26.0694,-10.7319 6.1145,-0.2088 15.1883,0.1733 17.3357,-2.7499 z m -36.6425,2.5791 c 2.2841,2.1198 1.645,3.6133 2.4676,6.3595 0.3598,-2.6078 4.4778,-4.5893 6.7167,-6.5707 -2.8526,0.488 -6.3317,0.5584 -9.1843,0.2112 z m -16.643,-3.8573 c -2.3118,2.6556 -5.1948,6.937 -7.9957,14.4901 5.9059,-6.6397 11.6998,-7.1631 18.2321,-9.8356 -5.9058,-0.2087 -8.0891,-1.7314 -10.2364,-4.6545 z m 45.5519,-22.7573 c -2.9528,8.7093 -16.5308,16.5145 -23.6186,16.5145 -4.135,0 -12.5149,-6.3179 -13.9914,-15.027 5.5041,5.4235 11.5196,9.1433 16.1568,9.3275 5.128,0.1284 16.6937,-5.7897 21.4532,-10.815 z"
         id="path871"
         sodipodi:nodetypes="cccccccccccccccccccccc"
         transform="matrix(3,0,0,3,-1551.604,-463.8486)" /></g><path
       style="font-size:12px;fill-rule:evenodd"
       d="m 566.1781,204.0047 c 0,20.5935 27.3055,21.0005 21.6298,28.5173 -5.168,7.388 -37.0883,-5.9867 -37.0883,-26.5801 2.088,-15.5825 4.8465,-20.4373 23.9256,-49.5759 12.8951,2.8315 -8.4671,27.0452 -8.4671,47.6387 z"
       id="path758"
       sodipodi:nodetypes="csccc"
       transform="matrix(3,0,0,3,-1551.604,-463.8486)" /><path
       style="font-size:12px;fill:url(#linearGradient883);fill-rule:evenodd"
       d="m 649.8842,196.2501 c -0.4524,24.5645 -17.8932,24.6646 -13.2778,33.1111 6.2704,11.8931 32.9122,-10.5805 32.9122,-31.1738 0,-20.1761 -28.1999,-47.8022 -31.2695,-45.9399 -19.1464,14.2409 12.4296,23.5404 11.6351,44.0026 z"
       id="path857"
       sodipodi:nodetypes="cscss"
       transform="matrix(3,0,0,3,-1551.604,-463.8486)" /><g
       id="g980"><path
         style="font-size:12px;fill:url(#radialGradient958);fill-opacity:1;fill-rule:evenodd"
         d="m 662.6023,249.8415 c -9.646,4.8787 -19.5787,19.563 -32.3096,13.5204 -8.9401,-4.1473 -4.6293,-14.1981 -5.1364,-19.8308 -0.4883,-12.9806 -1.6492,-32.3999 6.7905,-32.3471 10.2079,0.062 6.079,4.0705 13.4728,6.1601 8.0854,1.9619 13.3193,-8.2974 19.4274,-3.7346 4.6317,6.3345 -0.2253,9.7125 5.358,15.8811 2.9635,3.5696 7.5456,3.4933 10.1489,6.4067 5.4197,5.4505 -12.0338,10.7571 -17.7516,13.9442 z"
         id="path842"
         sodipodi:nodetypes="csssscsss"
         transform="matrix(3,0,0,3,-1551.604,-463.8486)" /><path
         style="font-size:12px;fill:url(#radialGradient957);fill-rule:evenodd"
         d="m 550.8908,255.4014 c 11.7039,1.2518 23.4762,12.4023 33.7124,1.1382 7.2285,-7.815 0.1398,-17.1482 -4.0877,-21.7494 -9.7814,-9.9628 -15.2747,-28.3632 -24.2926,-28.2916 -7.6347,0.3106 -6.1597,4.4839 -11.522,8.7354 -7.2056,5.4148 -11.7118,1.005 -16.0617,7.9166 -2.6521,3.7449 -1.8807,8.6282 -0.7528,13.8005 0.7921,4.9203 -0.7888,5.9983 -2.4701,7.5989 -5.4831,6.1829 15.4367,9.4825 25.4745,10.8514 z"
         id="path843"
         sodipodi:nodetypes="cssssssss"
         transform="matrix(3,0,0,3,-1551.604,-463.8486)" /></g><g
       id="g983"><path
         style="font-size:12px;fill:#f3f3f3;fill-opacity:1;fill-rule:evenodd"
         d="m 409.6376,449.1857 c -4.76,0.4334 -9.0891,2.4489 -11.9877,4.8207 -1.772,1.2526 -4.099,-4.2023 -4.099,-8.2836 0,-5.5074 2.3164,-9.5871 8.2571,-9.5871 5.4491,0 8.7184,6.2541 7.8296,13.05 z"
         id="path699"
         sodipodi:nodetypes="ccccc"
         transform="matrix(3,0,0,3,-979.2641,-1412.302)" /><path
         style="font-size:12px;fill:#f3f3f3;fill-opacity:1;fill-rule:evenodd"
         d="m 416.2332,449.481 c 4.6129,0.5166 10.4887,2.8432 14.0173,4.7077 1.9645,1.2524 3.5223,-4.0893 3.5223,-8.1706 0,-4.3262 -2.7286,-10.1777 -9.3149,-10.1777 -6.9271,0 -9.2101,5.0729 -8.2247,13.6406 z"
         id="path703"
         sodipodi:nodetypes="ccccc"
         transform="matrix(3,0,0,3,-979.2641,-1412.302)" /><path
         sodipodi:type="arc"
         style="font-size:12px;fill:url(#radialGradient976);fill-rule:evenodd"
         id="path714"
         d="m 407.20691,448.78644 c 0,2.93553 -2.37972,5.31524 -5.31525,5.31524 -2.93553,0 -5.31524,-2.37971 -5.31524,-5.31524 0,-2.93553 2.37971,-5.31525 5.31524,-5.31525 2.93553,0 5.31525,2.37972 5.31525,5.31525 z"
         sodipodi:cx="401.89166"
         sodipodi:cy="448.78644"
         sodipodi:rx="5.3152466"
         sodipodi:ry="5.3152466"
         transform="matrix(3,0,0,3,-981.0359,-1414.96)" /><path
         sodipodi:type="arc"
         style="font-size:12px;fill:url(#radialGradient963);fill-rule:evenodd"
         id="path719"
         d="m 407.20691,448.78644 c 0,2.93553 -2.37972,5.31524 -5.31525,5.31524 -2.93553,0 -5.31524,-2.37971 -5.31524,-5.31524 0,-2.93553 2.37971,-5.31525 5.31524,-5.31525 2.93553,0 5.31525,2.37972 5.31525,5.31525 z"
         sodipodi:cx="401.89166"
         sodipodi:cy="448.78644"
         sodipodi:rx="5.3152466"
         sodipodi:ry="5.3152466"
         transform="matrix(3,0,0,3,-911.9379,-1416.732)" /><path
         style="font-size:12px;fill:url(#radialGradient2995);fill-rule:evenodd"
         d="m 435.2039,458.1105 c 0.2577,5.9309 -16.6315,14.4075 -23.0726,14.4075 -5.2671,0 -17.5856,-8.1647 -17.9621,-13.6649 -0.201,-2.6403 8.7727,-9.9433 18.3595,-9.7345 7.6535,0 22.465,5.133 22.6752,8.9919 z"
         id="path691"
         sodipodi:nodetypes="ccscs"
         transform="matrix(3,0,0,3,-979.2641,-1412.302)" /><path
         style="font-size:12px;fill:none;stroke:#000000;stroke-linecap:round"
         d="m 395.7393,458.8976 c 2.2871,-0.4699 4.8622,7.7639 13.9933,8.0717 7.8092,0.2834 17.7014,-6.3336 23.9606,-8.6333"
         id="path692"
         sodipodi:nodetypes="csc"
         transform="matrix(3,0,0,3,-979.2641,-1412.302)" /></g></g><g
     id="g1379"
     transform="matrix(0.37943717,0,0,0.37943717,3.6227446,-223.17204)"><rect
       style="font-size:12px;fill:url(#linearGradient2981);fill-rule:evenodd"
       id="rect1354"
       width="31.628338"
       height="74.724937"
       x="-419.13989"
       y="-646.90558"
       ry="5.8038669"
       transform="matrix(-0.954363,-0.298649,0.164483,-0.98638,0,0)" /><rect
       style="font-size:12px;fill:url(#linearGradient2983);fill-rule:evenodd"
       id="rect1312"
       width="31.628338"
       height="74.724922"
       x="-398.79666"
       y="-657.41284"
       ry="5.8038659"
       transform="matrix(-0.954363,-0.298649,0.164483,-0.98638,23.1265,-4.667847)" /><rect
       style="font-size:12px;fill:url(#linearGradient2985);fill-rule:evenodd"
       id="rect1360"
       width="31.628338"
       height="74.724937"
       x="-401.32794"
       y="-656.21619"
       ry="5.8038669"
       transform="matrix(-0.954363,-0.298649,0.164483,-0.98638,23.1265,-4.667847)" /><rect
       style="font-size:12px;fill:url(#linearGradient2987);fill-rule:evenodd"
       id="rect1359"
       width="31.628338"
       height="74.724945"
       x="-404.11423"
       y="-654.67505"
       ry="5.8038673"
       transform="matrix(-0.954363,-0.298649,0.164483,-0.98638,23.1265,-4.667847)" /><rect
       style="font-size:12px;fill:url(#linearGradient2989);fill-rule:evenodd"
       id="rect1358"
       width="31.628338"
       height="74.724945"
       x="-407.10483"
       y="-653.25031"
       ry="5.8038673"
       transform="matrix(-0.954363,-0.298649,0.164483,-0.98638,23.1265,-4.667847)" /><rect
       style="font-size:12px;fill:url(#linearGradient2991);fill-rule:evenodd"
       id="rect1357"
       width="31.628338"
       height="74.724945"
       x="-409.97861"
       y="-651.68274"
       ry="5.8038673"
       transform="matrix(-0.954363,-0.298649,0.164483,-0.98638,23.1265,-4.667847)" /><rect
       style="font-size:12px;fill:url(#linearGradient2993);fill-rule:evenodd"
       id="rect1356"
       width="31.628338"
       height="74.724945"
       x="-412.85251"
       y="-650.11511"
       ry="5.8038673"
       transform="matrix(-0.954363,-0.298649,0.164483,-0.98638,23.1265,-4.667847)" /><rect
       style="font-size:12px;fill:url(#linearGradient1310);fill-rule:evenodd"
       id="rect1355"
       width="31.628338"
       height="74.724937"
       x="-415.9014"
       y="-648.49457"
       ry="5.8038669"
       transform="matrix(-0.954363,-0.298649,0.164483,-0.98638,23.1265,-4.667847)" /><rect
       style="font-size:12px;fill:url(#linearGradient1309);fill-rule:evenodd"
       id="rect1361"
       width="31.628338"
       height="74.724937"
       x="-419.13989"
       y="-646.90558"
       ry="5.8038669"
       transform="matrix(-0.954363,-0.298649,0.164483,-0.98638,23.1265,-4.667847)" /></g><path
     style="font-size:12px;fill:url(#linearGradient1399);fill-rule:evenodd;stroke:none"
     d="m 89.267381,71.803639 c 3.671587,19.897948 -16.097923,23.027541 -18.781417,32.257201 7.936042,0.54563 27.73462,14.30421 33.625876,15.04396 l 9.25944,-57.678883 c -3.95256,-1.528758 -12.58031,4.888094 -24.103899,10.377722 z"
     id="path1392"
     sodipodi:nodetypes="ccccc" /><path
     style="fill:#78631d;fill-opacity:1;fill-rule:evenodd;stroke:none"
     d="m 95.506769,67.683708 c 8.732671,-4.366567 55.300011,-21.858457 69.542611,-30.633212 13.49376,-5.37716 34.6451,-12.306704 52.73,-16.582355 12.79321,-3.024604 22.422,-2.991445 35.144,-6.319755 13.5201,-3.537148 48.13035,-15.9818919 47.05048,-13.9191942 -6.91867,2.994482 -10.62554,5.1914556 -9.35237,13.6567062 -29.29209,7.618221 -44.85245,10.980072 -45.44034,45.375968 -9.34546,-1.978906 -68.40163,-15.559684 -37.00407,36.871289 -5.1067,1.859689 -15.38937,7.708525 -17.27863,14.655025 -0.13667,3.62792 -11.49417,-12.656576 -32.01121,-6.98918 -2.46453,-1.22446 -3.62234,-2.80841 -5.93353,-4.548466 2.31191,-2.046956 5.11766,-3.696329 6.48196,-5.934068 -2.6967,-1.634918 -10.03497,-6.233045 -10.25899,-11.200252 -3.7142,-4.240291 -25.68122,-14.267371 -36.60658,-16.198633 -4.57206,-0.808201 -6.97342,1.494873 -14.562533,4.080394 -1.96526,1.307154 -4.125092,0.729196 -2.500798,-2.314267 z"
     id="path1285"
     sodipodi:nodetypes="cccccccccccccscc" /><path
     style="fill:url(#linearGradient1415);fill-opacity:1;fill-rule:evenodd;stroke:none"
     d="m 0,36.37605 c 2.5256779,2.525603 12.037326,8.208208 15.97564,16.08472 10.455748,0.15173 19.858342,2.848354 31.782151,7.754855 8.545912,-0.138492 20.260807,2.201416 37.907444,9.240284 -3.13457,-2.653107 -9.330703,-6.535955 -11.267388,-9.431098 -0.08731,-0.266862 -3.264374,-0.468497 -3.57593,-0.522903 C 65.74649,58.615498 57.96966,57.055104 52.998539,55.754388 47.47568,54.309312 46.245279,53.187421 41.37787,50.085148 37.377271,47.535331 19.433524,45.185291 9.7008351,38.652284 7.5548978,37.453 1.0420217,36.054852 0.51369708,36.054056 0.49363874,36.054016 0.55380395,36.054016 0,36.37605 z"
     id="path1298"
     sodipodi:nodetypes="ccccccccccc" /><path
     style="font-size:12px;fill:url(#linearGradient1311);fill-rule:evenodd;stroke-width:1"
     d="m 73.749731,52.70034 39.835549,8.970424 c 0.61242,-4.414595 -0.20398,-5.339893 -3.6045,-7.282535 -5.53545,-2.630749 -23.682717,-5.799014 -37.165793,-4.681418 1.229035,1.525791 0.915203,2.155737 0.934744,2.993529 z m 62.768209,40.009029 c -1.43538,3.488973 1.4354,-3.489002 0,0 z"
     id="path1344"
     sodipodi:nodetypes="ccccccc" /><path
     style="fill:url(#linearGradient1416);fill-opacity:1;fill-rule:evenodd;stroke:none"
     d="m 47.900535,60.286513 c 8.310775,0.08049 20.107286,7.534331 25.712409,12.33201 5.243821,4.488391 2.459359,-2.934985 4.879258,-4.515349 2.337901,0.03214 4.016494,0.466109 9.233111,2.999229 C 85.833321,68.895061 77.296861,65.72031 75.917987,65.922397 64.387384,61.986008 53.833377,59.843244 47.900535,60.286513 z"
     id="path1389"
     sodipodi:nodetypes="cccccc" /><path
     style="font-size:12px;fill:url(#linearGradient1305);fill-opacity:1;fill-rule:evenodd;stroke:none"
     d="m 69.563438,55.598481 c 2.308382,3.778703 15.293674,13.191935 19.709292,16.859949 14.29826,-7.795837 15.88628,-9.5137 23.61549,-11.354508 -5.65027,-1.01814 -34.468984,-7.458972 -39.268219,-8.337933 -0.05904,1.847815 -1.821944,3.443805 -4.056563,2.832492 z"
     id="path1393"
     sodipodi:nodetypes="cccccc" /><path
     style="font-size:12px;fill:url(#linearGradient1401);fill-opacity:1;fill-rule:evenodd;stroke-width:1"
     d="m 119.60976,85.307731 c 1.43541,-3.488963 -1.43537,3.489003 0,0 z m 17.85992,37.726219 c 5.43665,-0.2274 8.26846,-0.0585 13.53988,0.75224 -2.22172,-5.10036 -3.47599,-8.45739 -1.73407,-17.5201 1.89198,-7.832076 12.53485,-11.827507 12.31049,-14.405746 -4.3622,-2.800503 -7.56002,-5.999549 -12.04481,-9.12296 l -12.07149,40.296566 z"
     id="path1395"
     sodipodi:nodetypes="cccccccc" /><path
     style="fill:url(#linearGradient1406);fill-opacity:1;fill-rule:evenodd;stroke:none"
     d="m 166.22558,41.556352 c -7.73281,2.435413 -24.05399,12.9138 -17.62204,18.779751 2.75236,2.864255 21.40534,14.594319 26.37828,20.187423 3.0841,2.101438 27.29012,14.094914 33.06477,15.887104 C 186.73151,57.188584 207.06976,53.962689 245.139,59.083385 220.56528,52.70835 169.61712,40.93472 166.22558,41.556352 z"
     id="path1403"
     sodipodi:nodetypes="cccccc" /><path
     style="fill:url(#linearGradient1407);fill-opacity:1;fill-rule:evenodd;stroke:none"
     d="m 174.66244,38.258587 c 29.2767,-5.476312 107.98854,-23.878857 113.02167,-23.510426 -8.89215,4.209599 -42.12997,6.839768 -42.19485,43.876251 -4.92852,-2.021559 -64.14166,-15.322729 -72.41456,-16.991267 -1.968,-0.671635 -3.98854,-1.422963 1.58774,-3.374558 z"
     id="path1404"
     sodipodi:nodetypes="ccccc" /><path
     style="fill:url(#linearGradient1408);fill-opacity:1;fill-rule:evenodd;stroke:none"
     d="m 171.76906,37.908897 c 12.47597,-5.189411 26.47579,-10.123872 42.04205,-13.795503 15.56622,-3.67166 24.72916,-4.258914 37.77813,-6.902233 26.96466,-5.932651 39.73174,-13.7874541 45.79639,-16.0757172 -1.02702,2.3767813 -6.60073,8.4226285 -6.52541,12.0800972 -19.36574,2.605481 -88.34864,18.593221 -119.09116,24.693356 z"
     id="path1405"
     sodipodi:nodetypes="cssccc" /><path
     style="fill:url(#linearGradient1412);fill-opacity:1;fill-rule:evenodd;stroke:none"
     d="m 149.73706,83.210352 c 8.6409,0.76662 22.83207,-0.421019 25.43767,-1.365629 4.48908,2.961471 29.35372,14.19729 31.76511,15.104898 -0.62747,0.492663 -14.90217,5.970059 -15.87234,14.114529 -9.87137,-5.86621 -26.79313,-17.431154 -29.1314,-19.51449 -0.94124,1.123396 -5.28857,-3.072258 -12.19904,-8.339308 z"
     id="path1411"
     sodipodi:nodetypes="cccccc" /><path
     style="fill:url(#linearGradient1414);fill-opacity:1;fill-rule:evenodd;stroke:none"
     d="m 152.86966,99.616454 c 2.35855,-1.40695 8.04851,-6.46648 8.46396,-7.370294 0.16008,-0.348206 15.89113,11.27429 22.95325,15.14796 -15.28657,-7.17231 -24.42054,-2.70842 -26.3612,-3.00378 -0.92284,-1.40266 -3.72809,-3.31192 -5.05601,-4.773886 z"
     id="path1413"
     sodipodi:nodetypes="ccccc" /><path
     style="fill:url(#linearGradient1418);fill-opacity:1;fill-rule:evenodd;stroke:none"
     d="m 124.62197,58.434855 c 4.43536,-1.610102 26.05565,-10.555073 28.05362,-11.658439 -4.54949,3.798093 -8.2627,7.644067 -6.58938,11.79583 -4.91471,-3.148993 -9.19077,-2.513848 -21.46424,-0.137391 z"
     id="path1417"
     sodipodi:nodetypes="cccc" /><path
     style="font-size:12px;fill:#808080;fill-rule:evenodd"
     d="m 120.77523,34.097251 c -0.81548,-0.152182 0.6,0.01248 0.3971,1.09975 l -4.57828,24.533106 c -0.2029,1.087288 0.29024,2.085115 1.10572,2.237297 0.81548,0.152182 1.63535,-0.60061 1.83825,-1.687908 l 4.57828,-24.533107 c 0.2029,-1.087278 -2.52555,-1.496946 -3.34107,-1.649138 z"
     id="path1218"
     sodipodi:nodetypes="ccccccc" /><g
     id="g1036"
     transform="matrix(0.37943717,0,0,0.37943717,9.7935232,-118.37732)"><path
       sodipodi:type="arc"
       style="fill:url(#radialGradient1022);fill-opacity:1;fill-rule:evenodd;stroke:none"
       id="path1390"
       d="m 171.00893,452.664 c 0,4.98007 -3.4672,9.01721 -7.74421,9.01721 -4.277,0 -7.7442,-4.03714 -7.7442,-9.01721 0,-4.98007 3.4672,-9.01721 7.7442,-9.01721 4.27701,0 7.74421,4.03714 7.74421,9.01721 z"
       sodipodi:cx="163.26472"
       sodipodi:cy="452.664"
       sodipodi:rx="7.7442017"
       sodipodi:ry="9.0172119"
       transform="matrix(1.068493,0,0,1.04706,-10.65208,-21.72664)" /><path
       style="font-size:12px;fill:url(#linearGradient1016);fill-rule:evenodd"
       d="m 168.6194,458.0773 c -6.3169,10.4398 -8.7939,13.7565 -2.9271,18.4556 16.1277,11.7682 24.4515,46.8222 24.0221,56.0797 -3.4198,3.0304 -24.4183,-39.8149 -28.1018,-47.1728 -4.644,-10.2202 -4.6423,-18.1987 3.6478,-27.8002 l 3.359,0.4377 z"
       id="path1290"
       sodipodi:nodetypes="cccccc" /><path
       style="font-size:12px;fill:url(#linearGradient1015);fill-rule:evenodd"
       d="m 156.9257,454.2839 c -5.9482,0.9207 -18.1675,5.9476 -27.3445,15.6716 -9.1227,9.3471 -20.4271,42.0649 -25.3669,53.6839 24.1269,-17.1221 26.3578,-51.8545 37.3907,-58.8037 4.7992,-3.0851 8.565,-5.5165 16.6861,-8.0809 0.8438,-1.4918 -0.8808,-2.873 -1.3654,-2.4709 z"
       id="path1289"
       sodipodi:nodetypes="cscccc" /><path
       style="font-size:12px;fill:url(#linearGradient1013);fill-rule:evenodd"
       d="m 159.0669,448.5086 c -3.5616,-3.2281 -12.1099,-6.0019 -15.7142,-9.2674 -12.1532,-11.0105 -21.1459,-37.4412 -16.9011,-55.7629 4.4767,-15.6933 4.2561,-15.0131 8.2707,3.9394 7.4665,24.8119 16.3712,24.2718 11.3164,39.7318 -3.8042,11.7868 3.5457,9.9908 14.9619,18.1063 l -1.9337,3.2528 z"
       id="path1293"
       sodipodi:nodetypes="ccccccc" /><path
       style="font-size:12px;fill:url(#linearGradient1014);fill-rule:evenodd"
       d="m 166.7401,447.6552 c 0.6499,-14.1558 7.3275,-21.1937 9.8744,-24.5712 10.9314,-13.1861 36.6913,-37.9202 56.3945,-39.8209 1.239,0.1465 -24.4318,25.9482 -30.7674,34.5161 -6.5155,7.4367 -12.2501,13.6277 -26.8269,13.9814 -2.8664,3.11 -7.3574,10.9623 -5.2072,17.3952 -2.0659,1.0673 -3.4647,0.2108 -3.4674,-1.5006 z"
       id="path1288"
       sodipodi:nodetypes="ccccccc" /></g><path
     style="font-size:12px;fill:url(#linearGradient1400);fill-opacity:1;fill-rule:evenodd;stroke-width:1"
     d="m 136.1959,92.226308 c -1.43537,3.488963 -6.27588,4.804627 -10.81156,2.938592 -4.53565,-1.866036 -7.04892,-6.2071 -5.61355,-9.696102 1.43542,-3.488954 6.27596,-4.804618 10.81161,-2.938622 4.53568,1.866036 7.04892,6.207129 5.6135,9.696132 z M 103.9508,119.1048 c 5.9818,-0.0547 26.36683,2.06444 33.67991,4.09022 L 149.7022,82.670712 C 146.93045,78.520473 122.33343,65.531578 112.7111,66.084495 l -8.7603,53.020305 z"
     id="path1394"
     sodipodi:nodetypes="cccccccccc" /><path
     style="fill:url(#linearGradient1421);fill-opacity:1;fill-rule:evenodd;stroke:none"
     d="m 95.506769,67.911485 c 8.732671,-4.366567 55.461011,-22.180491 69.703601,-30.955207 13.49377,-5.377189 34.48411,-12.306743 52.56901,-16.582394 12.79321,-3.024604 24.33793,-3.446881 37.05993,-6.775151 13.52018,-3.537188 46.21439,-15.2044622 45.13458,-13.1417645 -3.45929,1.4972214 -19.30148,8.7831278 -47.09586,17.0231765 -38.73723,5.318803 -56.50862,11.318391 -86.17644,22.531635 -8.92243,5.598746 -60.10664,26.463838 -67.695758,29.04932 -1.965263,0.808054 -4.624206,2.226624 -3.499063,-1.149615 z"
     id="path1402"
     sodipodi:nodetypes="ccccccccc" /><path
     style="fill:url(#linearGradient1410);fill-opacity:1;fill-rule:evenodd;stroke:none"
     d="m 103.44054,67.904468 c 7.9772,-4.118408 35.35618,-14.453635 42.48801,-7.338809 2.09699,1.300028 26.43729,17.315993 28.34721,20.590614 -5.65616,0.977345 -17.78235,1.791286 -24.74529,1.23833 -2.93529,-1.963546 -31.25197,-22.853954 -46.08993,-14.490135 z"
     id="path1409"
     sodipodi:nodetypes="ccccc" /><path
     style="font-size:12px;fill:#78641c;fill-opacity:1;fill-rule:evenodd"
     d="m 135.26822,57.791288 -23.29809,18.389051 c -0.19286,0.152182 -0.25046,0.655085 0.45559,0.68389 l 1.55338,0.06339 c 0.32059,0.01307 0.93148,-0.02133 1.2844,-0.299254 l 23.86159,-18.791554 -3.85687,-0.0455 z"
     id="path1420"
     sodipodi:nodetypes="csssscc" /><g
     id="g1198"
     transform="matrix(0.14836031,0.0680069,-0.06232217,0.1821731,70.539426,-48.933686)"><path
       style="font-size:12px;fill:url(#linearGradient2975);fill-rule:evenodd"
       d="m 408.9952,906.437 c 5.2843,0 -5.2843,0 0,0 z m 5.6433,8.1607 c 0.6483,4.3611 27.6822,-1.3646 27.6991,0.203 -0.1016,11.0403 -3.46,20.06 -13.1741,27.1968 -1.1886,0.8352 -13.4014,-22.9449 -17.2171,-21.331 -3.8159,1.614 10.7488,25.7519 9.1817,26.2997 -11.9476,4.0996 -19.3387,3.4384 -30.6412,-3.3436 -1.2519,-0.8001 16.9041,-20.7706 14.0962,-23.6951 -2.8058,-2.9637 -20.0594,19.3086 -21.0221,18.156 -7.107,-8.7735 -9.8984,-19.3586 -6.6561,-32.0766 0.3898,-1.4317 24.6868,11.5559 26.3006,7.7404 1.614,-3.8159 -23.3852,-14.4261 -22.3135,-15.948 6.7734,-9.8395 13.7302,-14.8185 27.1705,-15.5794 1.5172,-0.0609 -2.4626,27.2609 1.6696,27.5613 3.9328,0.325 6.1265,-26.5884 7.9268,-26.2395 11.7405,2.0968 21.4488,11.2421 23.6346,22.0274 0.2659,1.3998 -27.337,4.7039 -26.655,9.0286 z m 33.7315,1.408 c 0,21.7462 -17.6288,39.375 -39.375,39.375 -21.7462,0 -39.3749,-17.6288 -39.3749,-39.375 0,-21.7463 17.6287,-39.375 39.3749,-39.375 21.7462,0 39.375,17.6287 39.375,39.375 z"
       id="path818"
       sodipodi:nodetypes="cccssssssssssssccccccss"
       transform="translate(136.9157,-195.3537)" /><path
       sodipodi:type="arc"
       style="font-size:12px;fill:url(#radialGradient2977);fill-rule:evenodd"
       id="path847"
       d="m 336.75958,801.00787 c 0,2.13569 -1.78078,3.86701 -3.97748,3.86701 -2.1967,0 -3.97747,-1.73132 -3.97747,-3.86701 0,-2.13568 1.78077,-3.867 3.97747,-3.867 2.1967,0 3.97748,1.73132 3.97748,3.867 z"
       sodipodi:cx="332.7821"
       sodipodi:cy="801.00787"
       sodipodi:rx="3.977478"
       sodipodi:ry="3.8670044"
       transform="matrix(2.113111,0,0,2.144916,-157.6425,-998.1246)" /><path
       style="font-size:12px;fill:url(#radialGradient2979);fill-rule:evenodd;stroke-width:1"
       d="m 584.5958,720.7502 c 0,21.401 -17.349,38.75 -38.7501,38.75 -21.401,0 -38.7499,-17.349 -38.7499,-38.75 0,-21.401 17.3489,-38.75 38.7499,-38.75 21.4011,0 38.7501,17.349 38.7501,38.75 z m 5.8123,-2e-4 c 0,24.6112 -19.9513,44.5624 -44.5626,44.5624 -24.6111,0 -44.5624,-19.9512 -44.5624,-44.5624 0,-24.6112 19.9513,-44.5625 44.5624,-44.5625 24.6113,0 44.5626,19.9513 44.5626,44.5625 z"
       id="path1196" /></g><path
     style="fill:none;stroke:#000000;stroke-width:0.37943716pt;stroke-linecap:butt;stroke-linejoin:miter;stroke-opacity:1"
     d="m 119.14757,79.68823 -3.61107,32.59456 12.36313,1.43055 c 1.00816,0.11664 2.22411,-0.49543 2.72599,-1.75956 3.13244,-6.885 18.62114,-36.481065 -11.47805,-32.26555 z"
     id="path1391"
     sodipodi:nodetypes="ccssc" /><path
     sodipodi:type="arc"
     style="fill:none;stroke:#000000;stroke-width:1pt;stroke-linecap:butt;stroke-linejoin:miter;stroke-opacity:1"
     id="path1541"
     d="m 339.66049,561.77478 a 24.004272,18.903351 0 1 1 -48.00854,0 24.004272,18.903351 0 1 1 48.00854,0 z"
     sodipodi:cx="315.65622"
     sodipodi:cy="561.77478"
     sodipodi:rx="24.004272"
     sodipodi:ry="18.903351"
     transform="matrix(0.35354818,0.11651795,-0.11762173,0.35022999,82.366104,-144.75583)" /><path
     style="fill:none;stroke:#000000;stroke-width:0.37943716pt;stroke-linecap:butt;stroke-linejoin:miter;stroke-opacity:1"
     d="M 92.570194,56.223533 121.85261,39.918584"
     id="path1215" /><path
     style="fill:none;stroke:#000000;stroke-width:0.37943716pt;stroke-linecap:butt;stroke-linejoin:miter;stroke-opacity:1"
     d="m 121.85261,39.585818 9.98265,12.311943"
     id="path1216" /><path
     style="font-size:36px;font-style:italic;font-weight:normal;fill:url(#linearGradient1235);stroke-width:1;font-family:URW Chancery L"
     d="m 87.468355,96.042121 c -0.467577,-0.850087 0.339259,-2.586584 2.500303,-2.397096 0.457567,0.0401 1.203196,0.546313 0.767068,1.696085 l 0.646605,-0.791012 c 0.573363,-0.759966 -0.059,-1.320214 -0.495131,-1.452908 -0.601825,-0.18311 -2.704706,-0.510225 -3.949411,1.641718 -0.353861,0.637258 -0.434304,1.411239 0.147714,1.965895 0.52055,0.516151 0.935128,0.640648 1.556603,0.44088 -0.787819,0.481912 -1.89984,2.883377 0.234759,3.693017 1.149735,0.3232 1.66725,0.12046 2.207228,-0.10522 0.930184,-0.35712 1.133907,-0.59253 1.658594,-1.367986 0.390172,-0.57667 0.651569,-1.55725 0.52214,-1.39208 -0.880826,1.12401 -1.575879,1.74905 -2.949895,2.203926 -1.576218,0.55762 -2.657387,-1.746476 -0.850128,-2.837923 0.524192,-0.251835 1.060983,-0.143799 1.187072,-0.127799 0.289357,0.05612 0.243558,-1.223304 -0.51467,-0.793853 -1.026036,0.416469 -2.007526,0.601564 -2.668851,-0.375644 z m 7.435604,-2.234811 c -0.421291,0.172722 -0.970103,0.754513 -1.401487,1.472751 -0.466786,0.781912 -0.49164,2.071582 -0.0641,3.114273 0.263442,0.64247 0.789947,0.90639 1.348137,0.67752 0.294898,-0.12093 0.546622,-0.34715 0.927464,-0.79857 0.405689,-0.51083 0.645304,-0.916639 0.731247,-1.247125 0.188087,-0.7415 0.101916,-1.911833 -0.196053,-2.638572 -0.233204,-0.568739 -0.786994,-0.809144 -1.345183,-0.580277 z m -0.344718,0.719565 c 0.421291,-0.172751 0.853012,0.130031 1.112131,0.761991 0.181367,0.442345 0.25847,1.050464 0.206752,1.674494 -0.04874,0.721275 -0.294024,1.203234 -0.694255,1.367334 -0.431796,0.17705 -0.865418,-0.10036 -1.111599,-0.700701 -0.500928,-1.221751 -0.250272,-2.800857 0.486971,-3.103118 z m 4.894361,1.028578 c -0.11292,0.144713 -0.181793,0.246754 -0.215335,0.285111 -0.563953,0.784831 -0.630958,0.861556 -0.778373,0.921996 -0.09484,0.03892 -0.241396,-0.04865 -0.30188,-0.196092 l -0.03883,-0.09484 -0.03883,-0.09474 c -0.07775,-0.189606 -0.441588,-2.427149 -0.660787,-4.071933 -0.224061,-1.716654 -0.221596,-2.284627 0.25646,-2.135167 0.231036,0.09602 0.912206,3.007759 0.08348,4.470416 l 0.07244,0.04943 c 1.338049,-2.231322 0.567371,-4.78853 0.08374,-5.035313 -0.358411,-0.139072 -0.872627,0.109618 -1.19249,0.769833 -0.107838,0.282006 -0.155006,0.962703 -0.136486,1.397962 0.01942,0.287382 0.164941,1.224217 0.249631,1.730845 l 0.59333,3.607495 c 0.01535,0.06742 0.03078,0.135003 0.05667,0.198176 0.129538,0.316 0.415031,0.580312 0.583538,0.511212 l 0.09061,-0.0371 0.03167,-0.013 c 0.105289,-0.0431 0.422429,-0.529994 1.356484,-2.032562 l -0.09494,-0.231649 z m 3.303108,-1.45282 c -0.50924,1.00846 -0.89384,1.510685 -1.29406,1.674788 -0.26329,0.107958 -0.55789,0.01966 -0.74389,-0.224012 -0.11126,-0.151288 -0.16926,-0.262793 -0.29448,-0.568209 0.35303,-0.489213 0.57834,-0.839964 1.00967,-1.558163 0.39171,-0.665001 0.47036,-1.103287 0.27601,-1.577238 -0.15113,-0.368588 -0.47349,-0.494747 -0.84212,-0.343616 -0.23172,0.09503 -0.37864,0.216769 -0.56475,0.453008 -0.30522,0.395791 -0.546696,0.826981 -0.664245,1.170411 -0.201596,0.648609 -0.08462,1.953993 0.265151,2.807107 0.254744,0.621376 0.741034,0.877221 1.278214,0.656962 0.6214,-0.254793 1.20884,-1.012371 1.69976,-2.185564 l -0.12526,-0.305474 z m -2.45631,0.490451 c -0.28303,-1.200346 -0.15698,-2.273157 0.29591,-2.458862 0.17906,-0.07341 0.36832,0.05808 0.47195,0.31087 0.2159,0.526628 0.0611,0.959223 -0.76786,2.147992 z"
     id="path1227"
     sodipodi:nodetypes="ccccccsccsccccccccccccccccsccccccccccccccccccccccccccccccsccscccccscc" /></svg>