<?xml version="1.0" encoding="UTF-8" standalone="no"?>
<!-- Created with Inkscape (http://www.inkscape.org/) -->
<svg
   xmlns:dc="http://purl.org/dc/elements/1.1/"
   xmlns:cc="http://web.resource.org/cc/"
   xmlns:rdf="http://www.w3.org/1999/02/22-rdf-syntax-ns#"
   xmlns:svg="http://www.w3.org/2000/svg"
   xmlns="http://www.w3.org/2000/svg"
   xmlns:sodipodi="http://sodipodi.sourceforge.net/DTD/sodipodi-0.dtd"
   xmlns:inkscape="http://www.inkscape.org/namespaces/inkscape"
   width="100"
   height="100"
   id="svg2"
   sodipodi:version="0.32"
   inkscape:version="0.44.1"
   version="1.0"
   sodipodi:docbase="/home/mat/Travaux/Inkscape/Gcompris/boardicons"
   sodipodi:docname="warning.svg">
  <defs
     id="defs4" />
  <sodipodi:namedview
     id="base"
     pagecolor="#ffffff"
     bordercolor="#666666"
     borderopacity="1.0"
     inkscape:pageopacity="0.0"
     inkscape:pageshadow="2"
     inkscape:zoom="5.0088019"
     inkscape:cx="50.573074"
     inkscape:cy="48.306818"
     inkscape:document-units="px"
     inkscape:current-layer="layer1"
     width="100px"
     height="100px"
     showguides="true"
     inkscape:guide-bbox="true"
     inkscape:window-width="1033"
     inkscape:window-height="933"
     inkscape:window-x="61"
     inkscape:window-y="8" />
  <metadata
     id="metadata7">
    <rdf:RDF>
      <cc:Work
         rdf:about="">
        <dc:format>image/svg+xml</dc:format>
        <dc:type
           rdf:resource="http://purl.org/dc/dcmitype/StillImage" />
      </cc:Work>
    </rdf:RDF>
  </metadata>
  <g
     inkscape:label="Calque 1"
     inkscape:groupmode="layer"
     id="layer1">
    <path
       style="fill:black;fill-opacity:1;fill-rule:evenodd;stroke:none;stroke-width:1px;stroke-linecap:butt;stroke-linejoin:miter;stroke-opacity:1"
       d="M 14.117284,60.048087 C 15.352546,58.124607 19.641408,49.69956 20.046543,49.030728 C 20.451678,48.361896 25.834629,39.719198 26.540493,38.872161 C 27.246357,38.025124 31.481543,28.566543 32.32858,27.860679 C 33.175617,27.154815 35.857901,21.190262 37.975494,17.131543 C 40.093086,13.072824 40.234258,12.049322 40.79895,11.625803 C 41.363641,11.202285 42.669491,8.9082255 46.022346,9.3670373 C 49.375201,9.825849 50.751635,10.002315 54.21037,13.46105 C 57.669104,16.919785 59.433765,22.213766 59.857284,23.201976 C 60.280803,24.190186 65.326692,31.933587 65.96197,33.098263 C 66.597248,33.133556 71.433457,44.095556 71.998148,45.366111 C 72.562839,45.789629 75.668642,56.095247 76.374506,57.22463 C 77.08037,58.354012 80.609691,62.024507 81.597901,64.283272 C 82.586111,66.542037 86.53895,73.035988 86.680123,74.16537 C 86.821296,75.294752 90.774135,81.365185 89.221234,84.329815 C 87.668333,87.294445 81.456728,88.282654 80.186173,88.423827 C 78.915617,88.565 72.562838,88.423827 68.045308,88.423827 C 63.527778,88.423827 51.386914,88.706173 50.398704,88.565 C 49.410494,88.423827 42.634197,88.423827 41.363642,88.423827 C 40.093086,88.423827 30.210988,88.282654 29.222778,88.282654 C 28.234568,88.282654 22.728828,88.609287 22.164136,88.609287 C 21.599444,88.609287 16.234877,88.988519 13.129074,88.565 C 10.052447,88.048383 4.5415332,83.713914 3.9528395,80.518148 C 4.5175308,78.824074 4.6587037,74.871235 6.3527778,72.894815 C 9.5583708,69.148911 12.029385,64.47944 14.117284,60.048087 z "
       id="path11693"
       sodipodi:nodetypes="ccccccccccccccccccccccccc" />
    <path
       style="fill:#fc0;fill-opacity:1;fill-rule:evenodd;stroke:none;stroke-width:1px;stroke-linecap:butt;stroke-linejoin:miter;stroke-opacity:1"
       d="M 18.905851,59.557348 C 19.95579,57.890629 23.601205,53.531187 23.945559,52.951636 C 24.289912,52.372085 28.865275,41.942118 29.465239,41.20815 C 30.065204,40.474182 33.664997,32.278207 34.384955,31.666567 C 35.104913,31.054927 37.243609,27.86299 39.043505,24.34606 C 40.801848,20.442549 44.184581,14.707603 46.447802,14.653391 C 49.297637,15.050958 48.846158,16.791023 51.785989,19.788059 C 54.725818,22.785095 56.42538,27.572042 56.785359,28.428338 C 57.145339,29.284634 61.923362,36.406777 62.463331,37.415983 C 63.0033,37.446565 67.623033,45.734286 68.103006,46.835237 C 68.582977,47.202221 71.222825,56.132164 71.82279,57.110788 C 72.422756,58.089411 74.293199,62.399323 75.13315,64.35657 C 75.973102,66.313818 79.050562,71.799732 79.170555,72.778355 C 79.290549,73.756979 83.497391,79.86412 83.448023,80.456588 C 82.128099,83.025476 77.13075,83.458253 76.050814,83.580581 C 74.970875,83.702909 68.582976,82.733544 64.743199,82.733544 C 60.903422,82.733544 50.584019,84.389928 49.744068,84.2676 C 48.904116,84.145272 43.709139,84.709963 42.629202,84.709963 C 41.549265,84.709963 32.58506,84.022944 31.745108,84.022944 C 30.905157,84.022944 26.084256,84.33372 25.604282,84.33372 C 25.12431,84.33372 20.705747,84.634584 18.065899,84.2676 C 15.45085,83.819945 10.766724,80.064075 10.26635,77.294905 C 10.746322,75.826969 11.148662,73.531169 12.588578,71.818577 C 15.313245,68.572706 17.131193,63.397169 18.905851,59.557348 z "
       id="path12580"
       sodipodi:nodetypes="cccccccccccccccccccccccc" />
    <path
       style="fill:black;fill-opacity:1;fill-rule:evenodd;stroke:none;stroke-width:1px;stroke-linecap:butt;stroke-linejoin:miter;stroke-opacity:1"
       d="M 44.321977,61.467831 L 42.924437,52.483646 C 42.924437,52.483646 41.926194,46.294542 42.325491,45.09665 C 42.724789,43.898759 40.728303,38.3086 41.327249,37.110709 C 41.926194,35.912817 41.327249,31.720198 42.325491,30.322658 C 43.323734,28.925118 44.920922,26.529336 45.719517,26.529336 C 46.518111,26.529336 49.31319,26.329687 49.31319,26.329687 C 52.586534,28.184065 51.439375,29.684127 51.110028,32.71844 C 51.309677,34.315629 50.311433,36.91106 50.311433,38.108951 C 50.311433,39.306843 49.712488,43.499462 49.712488,44.897002 C 49.712488,46.294542 49.113542,51.685052 49.113542,51.685052 L 47.915651,56.476617 L 47.316705,60.469588 L 44.321977,61.467831 z "
       id="path12582"
       sodipodi:nodetypes="ccssssccsscccc" />
    <path
       style="fill:black;fill-opacity:1;fill-rule:evenodd;stroke:none;stroke-width:1px;stroke-linecap:butt;stroke-linejoin:miter;stroke-opacity:1"
       d="M 42.728231,67.452652 C 42.728231,67.452652 45.957029,64.221443 47.802058,65.961325 C 49.647085,67.701207 51.261485,68.44687 51.492113,70.435307 C 51.722742,72.423743 51.722742,75.654952 50.800228,76.400616 C 49.877713,77.146279 45.726401,78.637607 45.726401,78.637607 L 41.113831,76.64917 L 40.129358,71.07511 L 42.728231,67.452652 z "
       id="path12584"
       sodipodi:nodetypes="cssscccc" />
    <path
       style="fill:black;fill-opacity:0.21407625;fill-rule:evenodd;stroke:none;stroke-width:1px;stroke-linecap:butt;stroke-linejoin:miter;stroke-opacity:0.27272728"
       d="M 50.111784,14.550423 L 86.048522,79.4362 C 86.048522,79.4362 86.447819,84.227765 84.251685,85.026359 C 82.055551,85.824953 14.773992,86.623548 14.773992,86.623548 L 18.168017,81.632334 L 29.348336,82.430928 L 46.118814,81.233037 L 63.288588,79.835497 L 74.468907,81.432685 L 78.861175,80.634091 L 76.066095,73.646392 L 72.073124,64.063262 L 67.081911,56.875915 L 66.283316,49.488918 L 58.497023,37.510006 L 52.307918,23.334959 L 48.115299,17.944449 L 50.111784,14.550423 z "
       id="path13471" />
    <path
       style="fill:white;fill-opacity:1;fill-rule:evenodd;stroke:none;stroke-width:1px;stroke-linecap:butt;stroke-linejoin:miter;stroke-opacity:1"
       d="M 10.98067,74.444986 L 13.77575,70.851313 L 17.569072,63.464317 L 19.16626,59.471346 L 24.157474,53.082592 L 28.74939,42.501219 L 34.339549,32.319144 L 37.334278,28.126524 L 41.726546,19.14234 L 44.122328,15.947963 L 44.521625,18.743043 L 40.528654,25.131796 L 35.337792,34.115981 L 28.949039,45.895245 L 26.153959,53.481889 L 20.763449,60.868885 L 16.970126,68.255882 L 13.975398,72.248852 L 10.581373,77.639363 L 10.98067,74.444986 z "
       id="path14358"
       sodipodi:nodetypes="cccccccccccccccccccc" />
  </g>
</svg>
