<?xml version="1.0" encoding="UTF-8" standalone="no"?>
<!-- Created with Inkscape (http://www.inkscape.org/) -->

<svg
   xmlns:dc="http://purl.org/dc/elements/1.1/"
   xmlns:cc="http://creativecommons.org/ns#"
   xmlns:rdf="http://www.w3.org/1999/02/22-rdf-syntax-ns#"
   xmlns:svg="http://www.w3.org/2000/svg"
   xmlns="http://www.w3.org/2000/svg"
   xmlns:xlink="http://www.w3.org/1999/xlink"
   xmlns:sodipodi="http://sodipodi.sourceforge.net/DTD/sodipodi-0.dtd"
   xmlns:inkscape="http://www.inkscape.org/namespaces/inkscape"
   width="119.18"
   height="113.34"
   id="svg3035"
   version="1.1"
   inkscape:version="0.48.0 r9654"
   sodipodi:docname="ok.svg">
  <defs
     id="defs3">
    <linearGradient
       y2="480.46399"
       x2="324.22366"
       y1="284.70993"
       x1="274.81769"
       gradientTransform="matrix(0.26600376,0,0,0.28801645,-40.082155,-0.282699)"
       gradientUnits="userSpaceOnUse"
       id="linearGradient4189"
       xlink:href="#linearGradient2806"
       inkscape:collect="always" />
    <linearGradient
       id="linearGradient2806">
      <stop
         style="stop-color:white;stop-opacity:1;"
         offset="0"
         id="stop2808" />
      <stop
         style="stop-color:white;stop-opacity:0;"
         offset="1"
         id="stop2810" />
    </linearGradient>
  </defs>
  <sodipodi:namedview
     id="base"
     pagecolor="#ffffff"
     bordercolor="#666666"
     borderopacity="1.0"
     inkscape:pageopacity="0.0"
     inkscape:pageshadow="2"
     inkscape:zoom="1.2"
     inkscape:cx="160"
     inkscape:cy="82.083333"
     inkscape:document-units="mm"
     inkscape:current-layer="layer1"
     showgrid="false"
     inkscape:window-width="1256"
     inkscape:window-height="701"
     inkscape:window-x="0"
     inkscape:window-y="37"
     inkscape:window-maximized="1" />
  <metadata
     id="metadata3039">
    <rdf:RDF>
      <cc:Work
         rdf:about="">
        <dc:format>image/svg+xml</dc:format>
        <dc:type
           rdf:resource="http://purl.org/dc/dcmitype/StillImage" />
        <dc:title></dc:title>
      </cc:Work>
    </rdf:RDF>
  </metadata>
  <g
     inkscape:label="Layer 1"
     inkscape:groupmode="layer"
     id="layer1"
     transform="translate(0,-77.997377)">
    <path
       transform="matrix(-0.24892052,0,0,0.26951955,-23.4339,49.522885)"
       d="m -157.47986,322.08786 c 0,92.94252 -75.3448,168.28732 -168.28732,168.28732 -92.94252,0 -168.28732,-75.3448 -168.28732,-168.28732 0,-92.94252 75.3448,-168.28732 168.28732,-168.28732 92.94252,0 168.28732,75.3448 168.28732,168.28732 z"
       sodipodi:ry="168.28732"
       sodipodi:rx="168.28732"
       sodipodi:cy="322.08786"
       sodipodi:cx="-325.76718"
       id="path16228"
       style="fill:#d40000;fill-opacity:1;stroke-width:10.87713146;stroke-linecap:round;stroke-miterlimit:4;stroke-dasharray:none;display:inline"
       sodipodi:type="arc" />
    <path
       inkscape:connector-curvature="0"
       id="path5882"
       d="m 58.311268,89.526394 c -23.913004,0 -43.320662,21.013726 -43.320662,46.905576 0,25.89187 19.407658,46.90559 43.320662,46.90559 23.913005,0 43.320532,-21.01372 43.320662,-46.90559 0,-25.89185 -19.407657,-46.905576 -43.320662,-46.905576 z m -21.871924,22.216026 7.14967,0 c 5.52067,0 9.941684,4.83267 9.941684,10.81029 l 0,27.71276 c 0,5.97761 -4.421014,10.81027 -9.941684,10.81027 l -7.14967,0 c -5.520677,0 -9.941686,-4.83266 -9.941686,-10.81027 l 0,-27.71276 c 0,-5.97762 4.421009,-10.81029 9.941686,-10.81029 z m 44.547579,0.41226 c 1.275521,-0.15181 2.632692,0.24969 3.722872,1.19096 2.180242,1.88254 2.532905,5.30178 0.803731,7.64965 l -9.603241,13.00896 13.156886,17.86442 c 1.729321,2.34788 1.376518,5.72131 -0.803731,7.60386 -2.180375,1.88253 -5.335879,1.52332 -7.065052,-0.82451 L 69.479881,142.70744 c -0.01347,0.0163 -0.02867,0.031 -0.04235,0.0457 l 0,12.00124 c 0,3.29777 -2.245625,5.95482 -5.034263,5.95482 -2.788632,0 -5.034402,-2.65705 -5.034402,-5.95482 l 0,-36.59919 c 0,-3.29776 2.245639,-5.95481 5.034402,-5.95481 2.788638,0 5.034263,2.65705 5.034263,5.95481 l 0,7.19157 8.207234,-11.17671 c 0.864653,-1.17393 2.066667,-1.86367 3.342188,-2.01548 z m -42.051496,10.3522 c -1.488607,0 -2.707543,1.2789 -2.707543,2.88579 l 0,22.03282 c 0,1.60689 1.2188,2.88579 2.707543,2.88579 l 2.157502,0 c 1.488605,0 2.707542,-1.2789 2.707542,-2.88579 l 0,-22.03282 c 0,-1.60689 -1.218937,-2.88579 -2.707542,-2.88579 l -2.157502,0 z"
       style="fill:#f8d600;fill-opacity:1;stroke:#000000;stroke-width:2.8173449;stroke-linecap:round;stroke-miterlimit:4;stroke-dasharray:none;display:inline" />
    <path
       inkscape:connector-curvature="0"
       sodipodi:nodetypes="csss"
       id="path5909"
       d="m 97.909317,130.83197 c 0.089,10.14988 -80.484238,9.2175 -80.494931,0 -0.02532,-21.90445 18.030871,-39.682 40.247468,-39.682 22.21659,0 40.055633,17.7824 40.247463,39.682 z"
       style="fill:url(#linearGradient4189);fill-opacity:1;stroke-width:2;stroke-linecap:round;stroke-miterlimit:4;stroke-dasharray:none;display:inline" />
  </g>
</svg>
