<?xml version="1.0" encoding="UTF-8" standalone="no"?>
<!-- Created with Sodipodi ("http://www.sodipodi.com/") -->
<svg
   xmlns:xml="http://www.w3.org/XML/1998/namespace"
   xmlns:dc="http://purl.org/dc/elements/1.1/"
   xmlns:cc="http://web.resource.org/cc/"
   xmlns:rdf="http://www.w3.org/1999/02/22-rdf-syntax-ns#"
   xmlns:svg="http://www.w3.org/2000/svg"
   xmlns="http://www.w3.org/2000/svg"
   xmlns:xlink="http://www.w3.org/1999/xlink"
   xmlns:sodipodi="http://inkscape.sourceforge.net/DTD/sodipodi-0.dtd"
   xmlns:inkscape="http://www.inkscape.org/namespaces/inkscape"
   inkscape:version="0.41"
   sodipodi:docname="railroad-bg.svg"
   sodipodi:docbase="/home/franck/Dessins/Vectoriels/Background"
   xml:space="preserve"
   height="297mm"
   width="210mm"
   sodipodi:version="0.32"
   id="svg841">
  <metadata
     id="metadata84">
    <rdf:RDF
       id="RDF86">
      <cc:Work
         id="Work88"
         rdf:about="">
        <dc:format
           id="format90">image/svg+xml</dc:format>
        <dc:type
           rdf:resource="http://purl.org/dc/dcmitype/StillImage"
           id="type92" />
      </cc:Work>
    </rdf:RDF>
  </metadata>
  <defs
     id="defs843">
    <linearGradient
       id="linearGradient913">
      <stop
         id="stop914"
         offset="0"
         style="stop-color:#7f0000;stop-opacity:1;" />
      <stop
         id="stop915"
         offset="1"
         style="stop-color:#ff0000;stop-opacity:1;" />
    </linearGradient>
    <linearGradient
       id="linearGradient882">
      <stop
         id="stop883"
         offset="0"
         style="stop-color:#0097ff;stop-opacity:1;" />
      <stop
         id="stop884"
         offset="1"
         style="stop-color:#ffffff;stop-opacity:1;" />
    </linearGradient>
    <linearGradient
       id="linearGradient850">
      <stop
         id="stop851"
         offset="0"
         style="stop-color:#c5c5bd;stop-opacity:1;" />
      <stop
         id="stop852"
         offset="1"
         style="stop-color:#ffffff;stop-opacity:1;" />
    </linearGradient>
    <linearGradient
       id="linearGradient846">
      <stop
         id="stop847"
         offset="0"
         style="stop-color:#000;stop-opacity:1;" />
      <stop
         id="stop848"
         offset="1"
         style="stop-color:#fff;stop-opacity:1;" />
    </linearGradient>
    <linearGradient
       y2="1.40625012"
       x2="0.4797979"
       y1="9.37500671e-2"
       x1="0.49999988"
       id="linearGradient849"
       xlink:href="#linearGradient850" />
    <linearGradient
       y2="-0.31249997"
       x2="0.48993292"
       y1="1.22916675"
       x1="0.49664435"
       id="linearGradient881"
       xlink:href="#linearGradient882" />
    <linearGradient
       gradientTransform="scale(0.958425,1.043378)"
       y2="0.85193187"
       x2="0.93808341"
       y1="0.85193187"
       x1="8.61506388e-2"
       id="linearGradient888"
       xlink:href="#linearGradient850" />
    <linearGradient
       y2="0.82926828"
       x2="0.5000003"
       y1="0.18292719"
       x1="0.21812214"
       id="linearGradient909"
       xlink:href="#linearGradient850" />
    <linearGradient
       y2="3.33332345e-2"
       x2="0.60402685"
       y1="0.89999843"
       x1="0.18456337"
       id="linearGradient912"
       xlink:href="#linearGradient913" />
    <linearGradient
       y2="-2.66666436"
       x2="0.76174498"
       y1="6.3333354"
       x1="0.2684519"
       id="linearGradient918"
       xlink:href="#linearGradient846" />
    <linearGradient
       gradientTransform="translate(1.565249e-6,2.579907e-8)"
       y2="0.6640625"
       x2="0.83333838"
       y1="0.10156339"
       x1="0.16682342"
       id="linearGradient999"
       xlink:href="#linearGradient850" />
    <linearGradient
       y2="0.25"
       x2="0.9230777"
       y1="0.8203125"
       x1="0.73075986"
       id="linearGradient1000"
       xlink:href="#linearGradient850" />
    <linearGradient
       gradientTransform="translate(1.024364e-6,1.17295e-8)"
       y2="0.8203125"
       x2="1.04901993"
       y1="1.5625637e-2"
       x1="-0.85288423"
       id="linearGradient1017"
       xlink:href="#linearGradient882" />
    <linearGradient
       y2="1.2109375"
       x2="1.4166677"
       y1="1.56270582e-2"
       x1="-2.3822904e-5"
       id="linearGradient1020"
       xlink:href="#linearGradient850" />
    <linearGradient
       gradientUnits="userSpaceOnUse"
       gradientTransform="scale(1.166501,0.857265)"
       y2="153.73005"
       x2="516.67694"
       y1="157.80261"
       x1="516.53214"
       id="linearGradient875"
       xlink:href="#linearGradient688" />
    <radialGradient
       gradientUnits="userSpaceOnUse"
       r="37.421351"
       fy="173.57755"
       fx="647.78207"
       cy="173.57755"
       cx="647.78207"
       gradientTransform="scale(0.935494,1.068954)"
       id="radialGradient866"
       xlink:href="#linearGradient863" />
    <linearGradient
       gradientUnits="userSpaceOnUse"
       gradientTransform="scale(1.448846,0.690205)"
       y2="191.44445"
       x2="416.71438"
       y1="195.51713"
       x1="416.56958"
       id="linearGradient862"
       xlink:href="#linearGradient688" />
    <radialGradient
       gradientUnits="userSpaceOnUse"
       gradientTransform="scale(1.213351,0.824164)"
       fy="129.27283"
       fx="507.87173"
       r="10.994515"
       cy="129.27283"
       cx="507.87173"
       id="radialGradient861"
       xlink:href="#linearGradient863" />
    <radialGradient
       gradientUnits="userSpaceOnUse"
       gradientTransform="scale(0.869312,1.150335)"
       fy="467.00380"
       fx="436.16490"
       r="375.85541"
       cy="467.00380"
       cx="436.16490"
       id="radialGradient859"
       xlink:href="#linearGradient621" />
    <linearGradient
       gradientUnits="userSpaceOnUse"
       gradientTransform="scale(0.695796,1.437203)"
       y2="164.06831"
       x2="792.34630"
       y1="119.42756"
       x1="753.22681"
       id="linearGradient858"
       xlink:href="#linearGradient716" />
    <radialGradient
       gradientUnits="userSpaceOnUse"
       gradientTransform="scale(1.324236,0.755152)"
       fy="612.65090"
       fx="316.48979"
       r="19.193341"
       cy="612.65090"
       cx="316.48979"
       id="radialGradient856"
       xlink:href="#linearGradient635" />
    <radialGradient
       gradientUnits="userSpaceOnUse"
       gradientTransform="scale(1.029559,0.971289)"
       fy="238.98836"
       fx="627.73271"
       r="32.215871"
       cy="238.98836"
       cx="627.73271"
       id="radialGradient845"
       xlink:href="#linearGradient635" />
    <radialGradient
       gradientUnits="userSpaceOnUse"
       gradientTransform="scale(1.071609,0.933176)"
       fy="255.83875"
       fx="518.95083"
       r="35.748644"
       cy="255.83875"
       cx="518.95083"
       id="radialGradient844"
       xlink:href="#linearGradient635" />
    <linearGradient
       gradientUnits="userSpaceOnUse"
       gradientTransform="scale(0.681964,1.466353)"
       y2="131.21860"
       x2="963.12239"
       y1="107.62695"
       x1="976.84371"
       id="linearGradient852"
       xlink:href="#linearGradient716" />
    <linearGradient
       gradientTransform="translate(2.988028e-8,1.287356e-6)"
       y2="0.73214781"
       x2="0.44630876"
       y1="-0.17842805"
       x1="0.46980006"
       id="linearGradient851"
       xlink:href="#linearGradient716" />
    <linearGradient
       y2="0.55364496"
       x2="1.66557574"
       y1="0.59407485"
       x1="0.2053477"
       id="linearGradient839"
       xlink:href="#linearGradient621" />
    <radialGradient
       spreadMethod="reflect"
       gradientTransform="translate(-7.996448e-8,-1.684752e-6)"
       fy="0.47593319"
       fx="0.48727369"
       r="0.71674091"
       cy="0.47593319"
       cx="0.48727369"
       id="radialGradient817"
       xlink:href="#linearGradient716" />
    <linearGradient
       y2="0.88281232"
       x2="0.61797768"
       y1="0.46874478"
       x1="0.62363487"
       id="linearGradient816"
       xlink:href="#linearGradient716" />
    <radialGradient
       gradientUnits="userSpaceOnUse"
       fy="448.45495"
       fx="398.81260"
       r="3.2000804"
       cy="448.45495"
       cx="398.81260"
       id="radialGradient715"
       xlink:href="#linearGradient716" />
    <linearGradient
       y2="-3.90630327e-2"
       x2="0.71120477"
       y1="0.96091604"
       x1="4.25257767e-3"
       id="linearGradient693"
       xlink:href="#linearGradient635" />
    <linearGradient
       spreadMethod="reflect"
       y2="0.79629445"
       x2="0.5805366"
       y1="0.81473005"
       x1="0.47649938"
       id="linearGradient737"
       xlink:href="#linearGradient738" />
    <radialGradient
       fy="0.50796008"
       fx="4.36384603e-2"
       r="1.12104344"
       cy="0.50796008"
       cx="4.36384603e-2"
       id="radialGradient703"
       xlink:href="#linearGradient635" />
    <linearGradient
       y2="0.6640628"
       x2="-0.17187244"
       y1="7.03449547e-2"
       x1="1.29696345"
       id="linearGradient664"
       xlink:href="#linearGradient688" />
    <linearGradient
       gradientTransform="translate(-1.354258e-6,2.60932e-8)"
       y2="0.984375"
       x2="9.99913663e-2"
       y1="1.56269036e-2"
       x1="0.79970354"
       id="linearGradient663"
       xlink:href="#linearGradient688" />
    <linearGradient
       y2="-0.57142854"
       x2="0.51006711"
       y1="4.28565168"
       x1="0.49999797"
       id="linearGradient662"
       xlink:href="#linearGradient635" />
    <linearGradient
       gradientTransform="translate(-1.736693e-8,1.12503e-6)"
       y2="-0.2083268"
       x2="0.50335562"
       y1="0.68763548"
       x1="0.49328572"
       id="linearGradient645"
       xlink:href="#linearGradient635" />
    <linearGradient
       y2="-4.68753278e-2"
       x2="1.20175433"
       y1="0.96872169"
       x1="2.63154171e-2"
       id="linearGradient640"
       xlink:href="#linearGradient635" />
    <linearGradient
       y2="-0.2173906"
       x2="0.60067159"
       y1="1.04349411"
       x1="1.34380655e-2"
       id="linearGradient639"
       xlink:href="#linearGradient635" />
    <linearGradient
       y2="0.49218762"
       x2="1.21691191"
       y1="0.5078156"
       x1="0.20220785"
       id="linearGradient638"
       xlink:href="#linearGradient635" />
    <radialGradient
       fy="0.53182161"
       fx="0.40272298"
       r="1.42084932"
       cy="0.53182161"
       cx="0.40272298"
       id="radialGradient634"
       xlink:href="#linearGradient635" />
    <radialGradient
       gradientTransform="translate(3.571768e-8,1.016935e-6)"
       fy="0.50006461"
       fx="2.72250941e-6"
       r="0.87587297"
       cy="0.50006461"
       cx="2.72250941e-6"
       id="radialGradient633"
       xlink:href="#linearGradient635" />
    <radialGradient
       gradientTransform="translate(6.098844e-7,1.225341e-6)"
       fy="0.50796098"
       fx="4.36388515e-2"
       r="1.12104344"
       cy="0.50796098"
       cx="4.36388515e-2"
       id="radialGradient629"
       xlink:href="#linearGradient635" />
    <linearGradient
       y2="-0.48837268"
       x2="0.19798657"
       y1="1.09299111"
       x1="0.61744964"
       id="linearGradient628"
       xlink:href="#linearGradient635" />
    <linearGradient
       spreadMethod="reflect"
       y2="0.37499994"
       x2="0.39285502"
       y1="0.99219495"
       x1="0.39273584"
       id="linearGradient624"
       xlink:href="#linearGradient635" />
    <linearGradient
       id="linearGradient621">
      <stop
         id="stop622"
         offset="0"
         style="stop-color:#000;stop-opacity:1;" />
      <stop
         id="stop623"
         offset="1"
         style="stop-color:#fff;stop-opacity:1;" />
    </linearGradient>
    <linearGradient
       id="linearGradient635">
      <stop
         id="stop636"
         offset="0"
         style="stop-color:#ffed00;stop-opacity:1;" />
      <stop
         id="stop637"
         offset="1"
         style="stop-color:#ca6d00;stop-opacity:1;" />
    </linearGradient>
    <linearGradient
       id="linearGradient688">
      <stop
         id="stop689"
         offset="0"
         style="stop-color:#ab7200;stop-opacity:1;" />
      <stop
         id="stop690"
         offset="1"
         style="stop-color:#000000;stop-opacity:1;" />
    </linearGradient>
    <linearGradient
       id="linearGradient738">
      <stop
         id="stop739"
         offset="0"
         style="stop-color:#ffffff;stop-opacity:1;" />
      <stop
         id="stop740"
         offset="1"
         style="stop-color:#aadae5;stop-opacity:1;" />
    </linearGradient>
    <linearGradient
       id="linearGradient716">
      <stop
         id="stop717"
         offset="0"
         style="stop-color:#ffffff;stop-opacity:1;" />
      <stop
         id="stop718"
         offset="1"
         style="stop-color:#000000;stop-opacity:1;" />
    </linearGradient>
    <linearGradient
       id="linearGradient863">
      <stop
         id="stop864"
         offset="0"
         style="stop-color:#ffffff;stop-opacity:1;" />
      <stop
         id="stop865"
         offset="1"
         style="stop-color:#000000;stop-opacity:0;" />
    </linearGradient>
    <radialGradient
       gradientUnits="userSpaceOnUse"
       r="3.2000804"
       fy="448.45495"
       fx="398.81260"
       cy="448.45495"
       cx="398.81260"
       id="radialGradient1667"
       xlink:href="#linearGradient716"
       inkscape:collect="always" />
  </defs>
  <sodipodi:namedview
     inkscape:current-layer="svg841"
     inkscape:window-y="0"
     inkscape:window-x="0"
     inkscape:window-height="590"
     inkscape:window-width="790"
     inkscape:cy="1056.8375"
     inkscape:cx="409.67871"
     inkscape:zoom="0.91202290"
     id="base" />
  <rect
     y="-64.5750198"
     x="-99.0997162"
     height="137.500031"
     width="999.999451"
     id="rect880"
     style="font-size:12;fill:url(#linearGradient881);fill-rule:evenodd;stroke-width:1;" />
  <g
     transform="matrix(8.435191e-2,0.000000,0.000000,7.687670e-2,349.0601,-24.81242)"
     id="g1591">
    <g
       style="font-size:12.000000"
       transform="matrix(3.000000,0.000000,0.000000,3.000000,-1413.112,-53.16440)"
       id="g1060">
      <path
         transform="translate(244.7176,-320.8214)"
         sodipodi:nodetypes="csccsss"
         id="path756"
         d="M 356.06470,411.99140 C 334.34300,411.75280 321.59950,426.70580 325.03960,465.77850 C 326.28710,480.16590 252.06490,562.37660 339.23310,573.30230 L 371.16030,573.89290 C 429.98030,570.34940 419.02960,518.06970 417.00060,512.10690 C 411.01640,491.52310 391.15510,472.12900 391.01510,461.08000 C 390.87920,427.34520 378.61010,411.63900 356.06470,411.99140 z "
         style="fill:url(#radialGradient859);fill-rule:evenodd" />
      <path
         transform="matrix(0.679565,0.315800,-0.315212,0.630549,231.9349,-158.8226)"
         sodipodi:ry="10.630493"
         sodipodi:rx="15.650421"
         sodipodi:cy="107.43024"
         sodipodi:cx="615.68225"
         d="M 631.33267 107.43024 A 15.650421 10.630493 0 1 1  600.03183,107.43024 A 15.650421 10.630493 0 1 1  631.33267 107.43024 z"
         id="path860"
         style="fill:url(#radialGradient861);fill-rule:evenodd"
         sodipodi:type="arc" />
      <path
         transform="translate(-7.187500,-4.375031)"
         sodipodi:nodetypes="cssccscss"
         id="path793"
         d="M 643.65240,226.24410 C 633.30600,238.87140 618.88290,248.31640 595.66580,247.92140 C 572.00210,247.10130 564.54630,235.69850 565.77340,205.71590 C 566.50420,192.96070 570.57030,182.33600 575.17140,174.37880 C 577.55700,168.41090 583.95630,166.33300 587.89520,148.00650 C 594.14000,154.21580 600.52480,156.33410 603.06650,156.36450 C 607.90470,156.46290 619.84630,150.68730 623.75080,146.36170 C 628.29850,162.14200 633.30930,167.48140 636.58480,171.30210 C 656.53750,194.99330 645.95130,222.92880 643.65240,226.24410 z "
         style="fill:#f8f7f7;fill-rule:evenodd" />
      <path
         transform="translate(-7.187500,-4.375031)"
         sodipodi:nodetypes="cccccccccccccccccccccc"
         id="path871"
         d="M 594.85240,209.01170 C 594.85240,220.10160 597.37410,225.54810 596.06940,225.54810 C 594.76470,225.54810 591.58930,219.89280 591.58930,208.80290 C 591.58930,197.71330 595.80870,185.59740 597.11340,185.59740 C 598.41810,185.59740 594.85240,197.92210 594.85240,209.01170 z M 632.27000,169.58020 C 636.44620,173.29670 639.95970,177.67510 641.00370,183.06200 C 633.84520,176.83980 621.88430,173.95860 614.93430,172.33010 C 621.04880,172.12130 630.12260,172.50340 632.27000,169.58020 z M 595.62750,172.15930 C 597.91160,174.27910 597.27250,175.77260 598.09510,178.51880 C 598.45490,175.91100 602.57290,173.92950 604.81180,171.94810 C 601.95920,172.43610 598.48010,172.50650 595.62750,172.15930 z M 578.98450,168.30200 C 576.67270,170.95760 573.78970,175.23900 570.98880,182.79210 C 576.89470,176.15240 582.68860,175.62900 589.22090,172.95650 C 583.31510,172.74780 581.13180,171.22510 578.98450,168.30200 z M 624.53640,145.54470 C 621.58360,154.25400 608.00560,162.05920 600.91780,162.05920 C 596.78280,162.05920 588.40290,155.74130 586.92640,147.03220 C 592.43050,152.45570 598.44600,156.17550 603.08320,156.35970 C 608.21120,156.48810 619.77690,150.57000 624.53640,145.54470 z "
         style="fill:url(#radialGradient866);fill-rule:evenodd" />
    </g>
    <path
       transform="matrix(3.000000,0.000000,0.000000,3.000000,-1434.675,-66.28949)"
       sodipodi:nodetypes="csccc"
       id="path758"
       d="M 566.17810,204.00470 C 566.17810,224.59820 593.48360,225.00520 587.80790,232.52200 C 582.63990,239.91000 550.71960,226.53530 550.71960,205.94190 C 552.80760,190.35940 555.56610,185.50460 574.64520,156.36600 C 587.54030,159.19750 566.17810,183.41120 566.17810,204.00470 z "
       style="font-size:12.000000;fill:url(#linearGradient858);fill-rule:evenodd" />
    <g
       style="font-size:12.000000"
       transform="matrix(3.000000,0.000000,0.000000,3.000000,-1413.112,-53.16440)"
       id="g1051">
      <path
         transform="translate(183.5923,-320.5262)"
         sodipodi:nodetypes="ccccc"
         id="path699"
         d="M 409.63760,449.18570 C 404.87760,449.61910 400.54850,451.63460 397.64990,454.00640 C 395.87790,455.25900 393.55090,449.80410 393.55090,445.72280 C 393.55090,440.21540 395.86730,436.13570 401.80800,436.13570 C 407.25710,436.13570 410.52640,442.38980 409.63760,449.18570 z "
         style="fill:#ffffff;fill-rule:evenodd" />
      <path
         transform="translate(183.5923,-320.5262)"
         sodipodi:nodetypes="ccccc"
         id="path703"
         d="M 416.23320,449.48100 C 420.84610,449.99760 426.72190,452.32420 430.25050,454.18870 C 432.21500,455.44110 433.77280,450.09940 433.77280,446.01810 C 433.77280,441.69190 431.04420,435.84040 424.45790,435.84040 C 417.53080,435.84040 415.24780,440.91330 416.23320,449.48100 z "
         style="fill:#ffffff;fill-rule:evenodd" />
      <path
         transform="translate(183.0017,-321.4121)"
         sodipodi:ry="5.3152466"
         sodipodi:rx="5.3152466"
         sodipodi:cy="448.78644"
         sodipodi:cx="401.89166"
         d="M 407.20691 448.78644 A 5.3152466 5.3152466 0 1 1  396.57642,448.78644 A 5.3152466 5.3152466 0 1 1  407.20691 448.78644 z"
         id="path714"
         style="fill:url(#radialGradient1667);fill-rule:evenodd"
         sodipodi:type="arc" />
      <path
         transform="translate(206.0344,-322.0027)"
         sodipodi:ry="5.3152466"
         sodipodi:rx="5.3152466"
         sodipodi:cy="448.78644"
         sodipodi:cx="401.89166"
         d="M 407.20691 448.78644 A 5.3152466 5.3152466 0 1 1  396.57642,448.78644 A 5.3152466 5.3152466 0 1 1  407.20691 448.78644 z"
         id="path719"
         style="fill:url(#radialGradient715);fill-rule:evenodd"
         sodipodi:type="arc" />
      <path
         transform="translate(183.5923,-320.5262)"
         sodipodi:nodetypes="ccscs"
         id="path691"
         d="M 435.20390,458.11050 C 435.46160,464.04140 418.57240,472.51800 412.13130,472.51800 C 406.86420,472.51800 394.54570,464.35330 394.16920,458.85310 C 393.96820,456.21280 402.94190,448.90980 412.52870,449.11860 C 420.18220,449.11860 434.99370,454.25160 435.20390,458.11050 z "
         style="fill:url(#radialGradient856);fill-rule:evenodd" />
      <path
         transform="translate(183.5923,-320.5262)"
         sodipodi:nodetypes="csc"
         id="path692"
         d="M 395.34560,459.68500 C 397.63270,459.21510 400.60150,466.66150 409.73260,466.96930 C 417.54180,467.25270 427.43400,460.63570 433.69320,458.33600"
         style="fill:none;fill-rule:evenodd;stroke:#000000;stroke-linecap:round" />
      <path
         transform="translate(-7.187500,-4.375031)"
         sodipodi:nodetypes="ccss"
         id="path873"
         d="M 608.78090,134.08050 C 608.24550,134.40900 606.52160,134.98420 606.34620,134.93210 C 605.97740,134.85220 606.82920,134.24240 606.97300,133.86700 C 607.10150,133.51410 609.31650,133.75190 608.78090,134.08050 z "
         style="fill:url(#linearGradient862);fill-rule:evenodd" />
      <path
         transform="translate(-7.187500,-4.375031)"
         sodipodi:nodetypes="cccc"
         id="path874"
         d="M 598.36360,133.83130 C 598.35890,134.15500 598.73730,134.76180 599.05100,134.76740 C 599.33850,134.37650 599.62410,134.06180 599.94620,133.74470 C 600.27730,133.45300 598.36830,133.57730 598.36360,133.83130 z "
         style="fill:url(#linearGradient875);fill-rule:evenodd" />
    </g>
    <g
       style="font-size:12.000000"
       transform="matrix(3.000000,0.000000,0.000000,3.000000,-1413.112,-53.16440)"
       id="g1065">
      <path
         transform="translate(-7.187500,-4.375031)"
         sodipodi:nodetypes="csssscsss"
         id="path842"
         d="M 662.60230,249.84150 C 652.95630,254.72020 643.02360,269.40450 630.29270,263.36190 C 621.35260,259.21460 625.66340,249.16380 625.15630,243.53110 C 624.66800,230.55050 623.50710,211.13120 631.94680,211.18400 C 642.15470,211.24600 638.02580,215.25450 645.41960,217.34410 C 653.50500,219.30600 658.73890,209.04670 664.84700,213.60950 C 669.47870,219.94400 664.62170,223.32200 670.20500,229.49060 C 673.16850,233.06020 677.75060,232.98390 680.35390,235.89730 C 685.77360,241.34780 668.32010,246.65440 662.60230,249.84150 z "
         style="fill:url(#radialGradient845);fill-rule:evenodd" />
      <path
         transform="translate(-7.187500,-4.375031)"
         sodipodi:nodetypes="cssssssss"
         id="path843"
         d="M 550.89080,255.40140 C 562.59470,256.65320 574.36700,267.80370 584.60320,256.53960 C 591.83170,248.72460 584.74300,239.39140 580.51550,234.79020 C 570.73410,224.82740 565.24080,206.42700 556.22290,206.49860 C 548.58820,206.80920 550.06320,210.98250 544.70090,215.23400 C 537.49530,220.64880 532.98910,216.23900 528.63920,223.15060 C 525.98710,226.89550 526.75850,231.77880 527.88640,236.95110 C 528.67850,241.87140 527.09760,242.94940 525.41630,244.55000 C 519.93320,250.73290 540.85300,254.03250 550.89080,255.40140 z "
         style="fill:url(#radialGradient844);fill-rule:evenodd" />
    </g>
    <path
       transform="matrix(3.000000,0.000000,0.000000,3.000000,-1434.675,-66.28949)"
       sodipodi:nodetypes="cscss"
       id="path857"
       d="M 649.88420,196.25010 C 649.43180,220.81460 631.99100,220.91470 636.60640,229.36120 C 642.87680,241.25430 669.51860,218.78070 669.51860,198.18740 C 669.51860,178.01130 641.31870,150.38520 638.24910,152.24750 C 619.10270,166.48840 650.67870,175.78790 649.88420,196.25010 z "
       style="font-size:12.000000;fill:url(#linearGradient852);fill-rule:evenodd" />
  </g>
  <g
     transform="matrix(0.69465,0,0,1.340564,139.8462,-8.410522)"
     style="fill:url(#linearGradient1000);"
     id="g978">
    <rect
       y="58.3365517"
       x="458.144905"
       height="1.91940308"
       width="17.7175369"
       id="rect937"
       style="font-size:12;fill:url(#linearGradient1000);fill-rule:evenodd;stroke-width:1;" />
    <rect
       transform="translate(-2.436111,-0.544037)"
       y="44.4578438"
       x="460.581062"
       height="1.91940308"
       width="17.7175369"
       id="rect919"
       style="font-size:12;fill:url(#linearGradient1000);fill-rule:evenodd;" />
    <rect
       transform="translate(-1.40259,-0.575089)"
       y="42.6860695"
       x="459.547554"
       height="1.91940308"
       width="17.7175369"
       id="rect920"
       style="font-size:12;fill:url(#linearGradient1000);fill-rule:evenodd;" />
    <rect
       transform="translate(-1.845551,-0.458512)"
       y="40.7666664"
       x="459.990517"
       height="1.91940308"
       width="17.7175369"
       id="rect921"
       style="font-size:12;fill:url(#linearGradient1000);fill-rule:evenodd;" />
    <rect
       transform="translate(-1.697851,-0.48964)"
       y="38.9949684"
       x="459.842812"
       height="1.91940308"
       width="17.7175369"
       id="rect922"
       style="font-size:12;fill:url(#linearGradient1000);fill-rule:evenodd;" />
    <rect
       transform="translate(-1.845551,-0.520691)"
       y="37.2231941"
       x="459.990517"
       height="1.91940308"
       width="17.7175369"
       id="rect923"
       style="font-size:12;fill:url(#linearGradient1000);fill-rule:evenodd;" />
    <rect
       transform="translate(-1.84551,-0.404114)"
       y="35.303791"
       x="459.990456"
       height="1.91940308"
       width="17.7175369"
       id="rect924"
       style="font-size:12;fill:url(#linearGradient1000);fill-rule:evenodd;" />
    <rect
       transform="translate(-1.40259,-0.139832)"
       y="33.2366829"
       x="459.547554"
       height="1.91940308"
       width="17.7175369"
       id="rect925"
       style="font-size:12;fill:url(#linearGradient1000);fill-rule:evenodd;" />
    <rect
       transform="translate(-0.959631,-0.171113)"
       y="31.4650612"
       x="459.104561"
       height="1.91940308"
       width="17.7175369"
       id="rect926"
       style="font-size:12;fill:url(#linearGradient1000);fill-rule:evenodd;" />
    <rect
       transform="translate(-0.812,-5.445862e-2)"
       y="29.5455818"
       x="458.956947"
       height="1.91940308"
       width="17.7175369"
       id="rect927"
       style="font-size:12;fill:url(#linearGradient1000);fill-rule:evenodd;" />
    <rect
       transform="translate(-0.812,-0.233216)"
       y="27.9215126"
       x="458.956947"
       height="1.91940308"
       width="17.7175369"
       id="rect928"
       style="font-size:12;fill:url(#linearGradient1000);fill-rule:evenodd;" />
    <rect
       transform="translate(-0.812,-0.116562)"
       y="26.0020332"
       x="458.956947"
       height="1.91940308"
       width="17.7175369"
       id="rect929"
       style="font-size:12;fill:url(#linearGradient1000);fill-rule:evenodd;" />
    <rect
       transform="translate(-1.254961,-0.326371)"
       y="56.8600349"
       x="459.39991"
       height="1.91940308"
       width="17.7175369"
       id="rect930"
       style="font-size:12;fill:url(#linearGradient1000);fill-rule:evenodd;" />
    <rect
       transform="translate(-1.254961,-0.505204)"
       y="55.236042"
       x="459.39991"
       height="1.91940308"
       width="17.7175369"
       id="rect931"
       style="font-size:12;fill:url(#linearGradient1000);fill-rule:evenodd;" />
    <rect
       transform="translate(-0.812,-0.536255)"
       y="53.4642677"
       x="458.956947"
       height="1.91940308"
       width="17.7175369"
       id="rect932"
       style="font-size:12;fill:url(#linearGradient1000);fill-rule:evenodd;" />
    <rect
       transform="translate(-1.40259,-0.271973)"
       y="51.3971596"
       x="459.547554"
       height="1.91940308"
       width="17.7175369"
       id="rect933"
       style="font-size:12;fill:url(#linearGradient1000);fill-rule:evenodd;" />
    <rect
       transform="translate(-0.959631,-0.303177)"
       y="49.6254616"
       x="459.104561"
       height="1.91940308"
       width="17.7175369"
       id="rect934"
       style="font-size:12;fill:url(#linearGradient1000);fill-rule:evenodd;" />
    <rect
       transform="translate(-1.69788,-0.334229)"
       y="47.8536873"
       x="459.842842"
       height="1.91940308"
       width="17.7175369"
       id="rect935"
       style="font-size:12;fill:url(#linearGradient1000);fill-rule:evenodd;" />
    <rect
       transform="translate(-1.40255,-0.365281)"
       y="46.081913"
       x="459.547493"
       height="1.91940308"
       width="17.7175369"
       id="rect936"
       style="font-size:12;fill:url(#linearGradient1000);fill-rule:evenodd;" />
    <rect
       transform="translate(-0.812,-6.103516e-5)"
       y="24.0827065"
       x="458.956947"
       height="1.91940308"
       width="17.7175369"
       id="rect938"
       style="font-size:12;fill:url(#linearGradient1000);fill-rule:evenodd;" />
  </g>
  <rect
     y="60.866188"
     x="-99.10009"
     height="524.718628"
     width="999.999756"
     id="rect845"
     style="font-size:12;fill:url(#linearGradient849);fill-rule:evenodd;stroke-width:1;fill-opacity:1;" />
  <g
     transform="matrix(0.91818,0,0,1,-7.007167,-3.051758e-5)"
     id="g873">
    <rect
       y="459.698456"
       x="-99.389782"
       height="6.68159485"
       width="1089.11157"
       id="rect853"
       style="font-size:12;fill:#808080;fill-rule:evenodd;" />
    <rect
       y="359.807556"
       x="-99.389782"
       height="6.68159485"
       width="1089.11157"
       id="rect854"
       style="font-size:12;fill:#808080;fill-rule:evenodd;" />
    <rect
       y="259.916687"
       x="-99.3897743"
       height="6.68159485"
       width="1089.11157"
       id="rect855"
       style="font-size:12;fill:#808080;fill-rule:evenodd;" />
    <rect
       y="160.025772"
       x="-99.3897743"
       height="6.68159485"
       width="1089.11157"
       id="rect856"
       style="font-size:12;fill:#808080;fill-rule:evenodd;" />
    <rect
       y="60.1348267"
       x="-99.3897743"
       height="6.68159485"
       width="1089.11157"
       id="rect857"
       style="font-size:12;fill:#808080;fill-rule:evenodd;" />
    <rect
       y="559.589325"
       x="-99.3897743"
       height="6.68159485"
       width="1089.11157"
       id="rect858"
       style="font-size:12;fill:#808080;fill-rule:evenodd;" />
  </g>
  <rect
     y="20.0440318"
     x="309.027283"
     height="40.0900275"
     width="148.667145"
     id="rect885"
     style="font-size:12;fill:url(#linearGradient909);fill-rule:evenodd;stroke-width:1;" />
  <path
     id="path908"
     d="M 295.664 -9.188624 L 295.664 10.0212 L 310.6978 10.0212 L 310.6978 -9.188624 L 295.664 -9.188624 z M 312.9946 -9.188664 L 312.9946 10.02116 L 328.0284 10.02116 L 328.0284 -9.188664 L 312.9946 -9.188664 z M 330.3252 -9.188664 L 330.3252 10.02116 L 345.359 10.02116 L 345.359 -9.188664 L 330.3252 -9.188664 z M 347.6557 -9.188632 L 347.6557 10.02119 L 371.0416 10.02119 L 371.0416 -9.188632 L 347.6557 -9.188632 z M 373.3384 -9.18866 L 373.3384 10.02116 L 396.7243 10.02116 L 396.7243 -9.18866 L 373.3384 -9.18866 z M 399.0211 -9.18866 L 399.0211 10.02116 L 422.407 10.02116 L 422.407 -9.18866 L 399.0211 -9.18866 z M 424.7039 -9.188659 L 424.7039 10.02117 L 439.7376 10.02117 L 439.7376 -9.188659 L 424.7039 -9.188659 z M 442.0344 -9.18866 L 442.0344 10.02116 L 457.0682 10.02116 L 457.0682 -9.18866 L 442.0344 -9.18866 z M 459.365 -9.18866 L 459.365 10.02116 L 474.3988 10.02116 L 474.3988 -9.18866 L 459.365 -9.18866 z M 293.9935 -20.04596 L 293.9935 25.05536 L 476.069 25.05536 L 476.069 -20.04596 L 293.9935 -20.04596 z "
     style="font-size:12;fill:url(#linearGradient888);fill-rule:evenodd;" />
  <path
     sodipodi:nodetypes="cssssssss"
     id="path911"
     d="M 301.928 -32.15687 C 299.6145 -32.16854 299.4197 -29.58439 297.752 -27.98084 L 286.8943 -17.5407 C 285.2266 -15.93715 288.7568 -13.36467 291.0703 -13.36467 L 478.9924 -13.36467 C 481.3059 -13.36467 484.9295 -16.04046 483.1684 -17.5407 L 471.8931 -27.14565 C 470.1319 -28.64597 470.0306 -31.31 467.7171 -31.32168 L 301.928 -32.15687 z "
     style="font-size:12;fill:url(#linearGradient912);fill-rule:evenodd;" />
  <path
     sodipodi:nodetypes="csccscc"
     id="path917"
     d="M 301.4061 -32.15683 C 301.0012 -32.15683 300.2635 -31.76941 300.0489 -31.42601 L 299.0049 -29.75563 L 470.1184 -29.75563 L 469.0743 -31.32164 C 468.8496 -31.65863 468.7484 -32.05246 468.3435 -32.05246 L 301.4061 -32.15683 z "
     style="font-size:12;fill:url(#linearGradient918);fill-rule:evenodd;" />
  <rect
     ry="0.41763306"
     y="36.7449799"
     x="321.347603"
     height="24.0122986"
     width="13.1546021"
     id="rect1001"
     style="font-size:12;fill:url(#linearGradient999);fill-rule:evenodd;" />
  <g
     transform="translate(786.6592,-0.295288)"
     id="g1025">
    <rect
       y="40.0890427"
       x="31.736616"
       height="21.7153931"
       width="41.7598967"
       id="rect1022"
       style="font-size:12;fill:url(#linearGradient909);fill-rule:evenodd;stroke-width:1;" />
    <path
       sodipodi:nodetypes="cssssssss"
       id="path1023"
       d="M 29.94204 21.29664 C 29.33371 21.28497 29.28248 23.86912 28.84397 25.47267 L 25.98894 35.91281 C 25.55042 37.51636 26.47868 40.08884 27.08702 40.08884 L 76.50101 40.08884 C 77.10934 40.08884 78.06216 37.41305 77.59908 35.91281 L 74.63425 26.30786 C 74.17114 24.80754 74.14451 22.14351 73.53618 22.13183 L 29.94204 21.29664 z "
       style="font-size:12;fill:url(#linearGradient912);fill-rule:evenodd;" />
    <path
       sodipodi:nodetypes="csccscc"
       id="path1024"
       d="M 29.77695 21.19514 C 29.67002 21.19514 29.53434 21.90063 29.41855 22.51015 L 28.84757 25.51582 L 74.62417 25.66345 L 74.05315 22.69798 C 73.93797 22.09976 73.96709 21.38298 73.86018 21.38298 L 29.77695 21.19514 z "
       style="font-size:12;fill:url(#linearGradient918);fill-rule:evenodd;" />
  </g>
  <g
     transform="matrix(0.91818,0,0,1,-7.007167,-3.051758e-5)"
     id="g1002">
    <rect
       y="459.698456"
       x="-99.389782"
       height="6.68159485"
       width="1089.11157"
       id="rect1003"
       style="font-size:12;fill:#808080;fill-rule:evenodd;" />
    <rect
       y="359.807556"
       x="-99.389782"
       height="6.68159485"
       width="1089.11157"
       id="rect1004"
       style="font-size:12;fill:#808080;fill-rule:evenodd;" />
    <rect
       y="259.916687"
       x="-99.3897743"
       height="6.68159485"
       width="1089.11157"
       id="rect1005"
       style="font-size:12;fill:#808080;fill-rule:evenodd;" />
    <rect
       y="160.025772"
       x="-99.3897743"
       height="6.68159485"
       width="1089.11157"
       id="rect1006"
       style="font-size:12;fill:#808080;fill-rule:evenodd;" />
    <rect
       y="60.1348267"
       x="-99.3897743"
       height="6.68159485"
       width="1089.11157"
       id="rect1007"
       style="font-size:12;fill:#808080;fill-rule:evenodd;" />
    <rect
       y="559.589325"
       x="-99.3897743"
       height="6.68159485"
       width="1089.11157"
       id="rect1008"
       style="font-size:12;fill:#808080;fill-rule:evenodd;" />
  </g>
  <g
     transform="matrix(0.91818,0,0,1,-7.007167,-3.051758e-5)"
     id="g1009">
    <rect
       y="459.698456"
       x="-99.389782"
       height="6.68159485"
       width="1089.11157"
       id="rect1010"
       style="font-size:12;fill:#808080;fill-rule:evenodd;" />
    <rect
       y="359.807556"
       x="-99.389782"
       height="6.68159485"
       width="1089.11157"
       id="rect1011"
       style="font-size:12;fill:#808080;fill-rule:evenodd;" />
    <rect
       y="259.916687"
       x="-99.3897743"
       height="6.68159485"
       width="1089.11157"
       id="rect1012"
       style="font-size:12;fill:#808080;fill-rule:evenodd;" />
    <rect
       y="160.025772"
       x="-99.3897743"
       height="6.68159485"
       width="1089.11157"
       id="rect1013"
       style="font-size:12;fill:#808080;fill-rule:evenodd;" />
    <rect
       y="60.1348267"
       x="-99.3897743"
       height="6.68159485"
       width="1089.11157"
       id="rect1014"
       style="font-size:12;fill:#808080;fill-rule:evenodd;" />
    <rect
       y="559.589325"
       x="-99.3897743"
       height="6.68159485"
       width="1089.11157"
       id="rect1015"
       style="font-size:12;fill:#808080;fill-rule:evenodd;" />
  </g>
  <rect
     ry="0.40673755"
     y="36.7449237"
     x="323.644409"
     height="23.3858486"
     width="13.1546021"
     id="rect1016"
     style="font-size:12;fill:#008c00;fill-rule:evenodd;fill-opacity:1;" />
  <rect
     ry="0.62644958"
     y="36.5362244"
     x="341.810303"
     height="13.1546021"
     width="11.0665588"
     id="rect1018"
     style="font-size:12;fill:url(#linearGradient1020);fill-rule:evenodd;" />
  <rect
     ry="0.56678754"
     y="36.5359672"
     x="343.480723"
     height="11.9017797"
     width="9.39613944"
     id="rect1019"
     style="font-size:12;fill:url(#linearGradient1017);fill-rule:evenodd;" />
</svg>
