<?xml version="1.0" encoding="UTF-8" standalone="no"?>
<!-- Created with Sodipodi ("http://www.sodipodi.com/") -->

<svg
   xmlns:dc="http://purl.org/dc/elements/1.1/"
   xmlns:cc="http://creativecommons.org/ns#"
   xmlns:rdf="http://www.w3.org/1999/02/22-rdf-syntax-ns#"
   xmlns:svg="http://www.w3.org/2000/svg"
   xmlns="http://www.w3.org/2000/svg"
   xmlns:xlink="http://www.w3.org/1999/xlink"
   xmlns:sodipodi="http://sodipodi.sourceforge.net/DTD/sodipodi-0.dtd"
   xmlns:inkscape="http://www.inkscape.org/namespaces/inkscape"
   id="svg602"
   sodipodi:version="0.32"
   width="83.127678"
   height="65.000015"
   xml:space="preserve"
   sodipodi:docname="plus.svg"
   inkscape:version="0.48.0 r9654"
   inkscape:output_extension="org.inkscape.output.svg.inkscape"
   sodipodi:modified="true"
   version="1.0"><metadata
   id="metadata28"><rdf:RDF><cc:Work
       rdf:about=""><dc:format>image/svg+xml</dc:format><dc:type
         rdf:resource="http://purl.org/dc/dcmitype/StillImage" /><dc:title></dc:title></cc:Work></rdf:RDF></metadata><defs
   id="defs604"><linearGradient
   id="linearGradient3294"><stop
     id="stop3296"
     offset="0"
     style="stop-color:#cf4700;stop-opacity:0.29019609;" /><stop
     id="stop3298"
     offset="1"
     style="stop-color:#ffffff;stop-opacity:1;" /></linearGradient><inkscape:perspective
   sodipodi:type="inkscape:persp3d"
   inkscape:vp_x="0 : 32.500008 : 1"
   inkscape:vp_y="6.1230318e-14 : 1000 : 0"
   inkscape:vp_z="83.127678 : 32.500008 : 1"
   inkscape:persp3d-origin="41.563839 : 21.666672 : 1"
   id="perspective2440" /><linearGradient
   id="linearGradient641"><stop
     style="stop-color:#005d00;stop-opacity:0.2902;"
     offset="0"
     id="stop642" /><stop
     style="stop-color:#ffffff;stop-opacity:1;"
     offset="1"
     id="stop643" /></linearGradient><linearGradient
   id="linearGradient612"><stop
     style="stop-color:#00cf00;stop-opacity:0.2902;"
     offset="0"
     id="stop613" /><stop
     style="stop-color:#ffffff;stop-opacity:1;"
     offset="1"
     id="stop614" /></linearGradient><linearGradient
   id="linearGradient608"><stop
     style="stop-color:#d7d7d5;stop-opacity:1;"
     offset="0"
     id="stop609" /><stop
     style="stop-color:#ffffff;stop-opacity:1;"
     offset="1"
     id="stop610" /></linearGradient><linearGradient
   xlink:href="#linearGradient612"
   id="linearGradient611"
   x1="0.49664423"
   y1="0.98913556"
   x2="0.48993284"
   y2="-0.22826068" /><linearGradient
   xlink:href="#linearGradient641"
   id="linearGradient634" /><linearGradient
   xlink:href="#linearGradient641"
   id="linearGradient635"
   x1="0.015384111"
   y1="0.023437124"
   x2="0.98461509"
   y2="0.9843747" /><linearGradient
   xlink:href="#linearGradient641"
   id="linearGradient644"
   x1="0.011364"
   y1="0.0078126118"
   x2="1.0454547"
   y2="1.0000002" /><radialGradient
   xlink:href="#linearGradient608"
   id="radialGradient646" /><radialGradient
   xlink:href="#linearGradient608"
   id="radialGradient647"
   cx="0.50781542"
   cy="0.5"
   r="0.3381981"
   fx="0.50781542"
   fy="0.5" /><linearGradient
   xlink:href="#linearGradient641"
   id="linearGradient770" /><radialGradient
   xlink:href="#linearGradient608"
   id="radialGradient784"
   cx="0.50000006"
   cy="0.5"
   r="0.5"
   fx="0.50000006"
   fy="0.5"
   spreadMethod="pad" /><linearGradient
   inkscape:collect="always"
   xlink:href="#linearGradient612"
   id="linearGradient2188"
   x1="234.46304"
   y1="735.4422"
   x2="233.05591"
   y2="480.19824"
   gradientTransform="scale(1.8041932,0.5542644)"
   gradientUnits="userSpaceOnUse" /><linearGradient
   inkscape:collect="always"
   xlink:href="#linearGradient641"
   id="linearGradient2190"
   x1="67.778114"
   y1="71.016434"
   x2="104.75815"
   y2="107.68004"
   gradientTransform="scale(1.0001571,0.9998429)"
   gradientUnits="userSpaceOnUse" /><radialGradient
   inkscape:collect="always"
   xlink:href="#linearGradient608"
   id="radialGradient2192"
   cx="93.844109"
   cy="89.748573"
   fx="93.844109"
   fy="89.748573"
   r="14.205347"
   gradientTransform="scale(0.9547881,1.0473528)"
   gradientUnits="userSpaceOnUse" />
<radialGradient
   inkscape:collect="always"
   xlink:href="#linearGradient608"
   id="radialGradient2454"
   gradientUnits="userSpaceOnUse"
   gradientTransform="matrix(0.9424924,0,0,1.0338651,-46.984201,-58.319797)"
   cx="91.066788"
   cy="89.851685"
   fx="91.066788"
   fy="89.851685"
   r="14.205347" /><linearGradient
   inkscape:collect="always"
   xlink:href="#linearGradient612"
   id="linearGradient2460"
   gradientUnits="userSpaceOnUse"
   gradientTransform="matrix(0.3737772,0,0,0.1148277,-46.724535,-58.643902)"
   x1="234.46304"
   y1="735.4422"
   x2="233.05591"
   y2="480.19824" /></defs><sodipodi:namedview
   id="base"
   inkscape:zoom="5.7622747"
   inkscape:cx="34.127764"
   inkscape:cy="29.590706"
   inkscape:window-width="822"
   inkscape:window-height="700"
   inkscape:window-x="197"
   inkscape:window-y="37"
   inkscape:current-layer="svg602"
   showgrid="false"
   inkscape:window-maximized="0" /><g
   id="g2422"
   transform="translate(-0.5206277,0.3470856)"><g
     transform="translate(0.6941703,-0.1735426)"
     style="opacity:0.7;fill:#800080"
     id="g2464"><rect
       style="font-size:12px;fill:#800080;fill-opacity:1;fill-rule:evenodd"
       id="rect2446"
       width="83.127678"
       height="65.000015"
       x="-0.26069063"
       y="0.047550984"
       ry="9.5005054"
       rx="9.5005054" /><rect
       style="font-size:12px;fill:#800080;fill-opacity:1;fill-rule:evenodd"
       id="rect2448"
       width="78.367561"
       height="60.06572"
       x="1.7308865"
       y="2.0391586"
       ry="6.7028937"
       rx="6.7028937" /><rect
       style="font-size:12px;fill:#800080;fill-opacity:1;fill-rule:evenodd"
       id="rect2450"
       width="78.367561"
       height="24.07522"
       x="1.7308865"
       y="2.0391586"
       ry="7.2771926"
       rx="7.2771926" /></g></g><path
   style="font-size:72px;font-weight:bold;fill:#cccccc;stroke-width:1;font-family:Courier"
   d="M -19.900433,31.947129 L -19.961601,20.626508 L -8.1616362,20.626508 C -5.8162992,20.626508 -4.2038802,19.157902 -4.2038802,16.881562 C -4.2038802,14.678652 -5.7551202,12.708384 -8.1004572,12.708384 L -19.900433,12.708384 L -19.900433,0.95954189 C -19.900433,-1.3902281 -21.366269,-2.9322747 -23.638314,-2.9322747 C -25.837067,-2.9322747 -27.731131,-1.3902281 -27.731131,0.95954189 L -27.731131,12.708384 L -39.029588,12.708384 C -41.374925,12.708384 -43.048512,14.605212 -43.048512,16.881562 C -43.048512,19.084471 -41.436093,20.626508 -39.090756,20.626508 L -27.73112,20.68767 L -27.669952,32.008321 C -27.669952,34.358091 -26.204127,35.973558 -23.932072,35.973558 C -21.733318,35.973558 -19.900433,34.296899 -19.900433,31.947129 z"
   id="path1103"
   sodipodi:nodetypes="ccccccccccccccccc" /><text
   style="font-size:71.07279204999998967px;font-style:normal;font-weight:bold;writing-mode:lr-tb;text-anchor:start;fill:url(#radialGradient2454);fill-opacity:1;stroke:none;stroke-width:1pt;stroke-linecap:butt;stroke-linejoin:miter;stroke-opacity:1;font-family:Courier"
   x="19.654245"
   y="54.475109"
   id="text1097"
   transform="scale(0.9944733,1.0055574)"><tspan
     id="tspan1098"
     style="fill:url(#radialGradient2454)" /></text>





<path
   sodipodi:type="arc"
   style="opacity:0.82743363;fill:#ffffff;fill-opacity:0.92920353"
   id="path2567"
   sodipodi:cx="43.906273"
   sodipodi:cy="38.448002"
   sodipodi:rx="1.2147981"
   sodipodi:ry="0"
   d="M 45.121071,38.448002 A 1.2147981,0 0 1 1 42.691475,38.448002 A 1.2147981,0 0 1 1 45.121071,38.448002 z" /><path
   style="opacity:0.82743363000000003;fill:#800080;fill-opacity:0.92920353000000000"
   d="M 8.2703701,65.058008 C 4.7957527,64.649801 1.9157859,62.354654 0.53023236,58.889619 L 0.11386901,57.848364 L 0.067571317,33.244912 C 0.01645088,6.0776856 -0.035322077,7.4657364 1.1105223,5.2828433 C 1.9311635,3.719485 3.6464757,2.0694751 5.233375,1.3169563 C 5.9492382,0.97749141 6.9487827,0.6140759 7.4545846,0.50937072 C 8.1031896,0.37510604 18.155666,0.31899972 41.562625,0.31899972 C 77.7472,0.31899972 75.6049,0.26186777 77.713566,1.2831068 C 80.338958,2.5545995 82.298863,5.1930402 82.801947,8.1331204 C 82.937945,8.9279367 82.979469,16.336247 82.94392,33.465632 L 82.893678,57.674821 L 82.442461,58.833862 C 81.271517,61.841711 79.080358,63.874633 75.951975,64.85564 C 75.178031,65.098331 71.530461,65.13058 42.197944,65.154038 C 24.110469,65.168503 8.8430606,65.125287 8.2703701,65.058006 L 8.2703701,65.058008 z"
   id="path2575" /><path
   style="opacity:0.82743363;fill:#ffffff;fill-opacity:0.92920353"
   d="M 40.355601,49.793712 C 39.574252,49.438887 38.885319,48.632934 38.577517,47.713614 C 38.463326,47.372549 38.380008,45.975102 38.380008,44.400826 C 38.380008,42.903241 38.328586,40.142553 38.265737,38.265961 L 38.151465,34.853973 L 32.460601,34.853973 C 26.288542,34.853973 25.421322,34.761886 24.361192,33.993933 C 23.418687,33.311185 23.019642,32.424858 23.029482,31.036037 C 23.038384,29.779469 23.422923,28.849692 24.263781,28.051634 C 25.296437,27.07154 25.507092,27.044557 32.126901,27.044557 L 38.206465,27.044557 L 38.210707,21.100724 C 38.213154,17.67423 38.29042,14.826145 38.393147,14.375949 C 38.806883,12.562765 40.305683,11.425726 42.282017,11.425726 C 44.103867,11.425726 45.379362,12.351719 45.839557,14.00845 C 45.941314,14.374783 46.014349,17.217723 46.014913,20.834442 L 46.015881,27.032624 L 52.580074,27.081975 L 59.144259,27.131329 L 59.859265,27.604683 C 61.188509,28.484686 61.832892,30.150831 61.556587,31.99336 C 61.460513,32.634008 61.269597,32.969764 60.624148,33.633181 C 59.483443,34.805642 59.141781,34.853973 51.994559,34.853973 L 46.015881,34.853973 L 46.015881,40.677574 C 46.015881,44.525574 45.947481,46.772811 45.814254,47.301903 C 45.551287,48.346244 44.303028,49.666587 43.325971,49.933881 C 42.301126,50.214249 41.163424,50.16056 40.355601,49.793712 z"
   id="path2577" /><path
   style="opacity:0.82743363;fill:#f9f9f9;fill-opacity:0.92920353"
   d="M -7.6087756,3.6000642 C -7.4048546,3.4555552 -7.4505366,3.4318692 -7.8196496,3.4907272 C -8.0788016,3.5320512 -8.3130866,3.5049752 -8.3402766,3.4305582 C -8.3674676,3.3561422 -8.5037226,3.2698742 -8.6430616,3.2388532 C -8.7824006,3.2078302 -9.1626296,2.8700752 -9.4880146,2.4882812 C -9.8133986,2.1064882 -10.128915,1.7550642 -10.189156,1.7073402 C -10.249397,1.6596152 -10.321627,1.4643802 -10.349663,1.2734832 C -10.392196,0.98390317 -10.691319,-8.7188898 -10.722833,-10.831112 L -10.732543,-11.481896 L -16.242519,-11.506524 C -19.273007,-11.520067 -21.44012,-11.581064 -21.058326,-11.642071 C -20.490755,-11.732764 -20.650933,-11.771433 -21.936628,-11.854102 C -22.801485,-11.909712 -23.668641,-12.040591 -23.863633,-12.144949 C -24.467193,-12.467965 -25.646479,-13.517285 -25.533225,-13.630539 C -25.47415,-13.689615 -25.497401,-13.738024 -25.584894,-13.738115 C -25.672389,-13.738205 -25.769084,-14.319548 -25.799771,-15.029986 C -25.843087,-16.032719 -25.778031,-16.496976 -25.508983,-17.105207 C -25.158707,-17.897071 -24.199795,-18.975768 -23.738594,-19.096759 C -22.890866,-19.31915 -20.079744,-19.444398 -15.721892,-19.453935 L -10.732543,-19.464855 L -10.689157,-24.19389 C -10.665295,-26.794859 -10.645771,-29.716075 -10.645771,-30.685482 C -10.645771,-31.654889 -10.578834,-32.406528 -10.497023,-32.35579 C -10.415208,-32.305054 -10.404053,-32.439288 -10.472229,-32.65409 C -10.540405,-32.868892 -10.529248,-33.005444 -10.447435,-32.957536 C -10.365625,-32.90963 -10.027266,-33.245402 -9.6955266,-33.703696 C -9.3637876,-34.161991 -9.0514126,-34.527361 -9.0013556,-34.515628 C -8.7978566,-34.467926 -8.1295096,-34.769958 -8.1967156,-34.879253 C -8.3394906,-35.111444 -6.2892496,-35.069768 -5.4264016,-34.82294 C -4.7844626,-34.639308 -4.3584756,-34.365367 -3.8556056,-33.812811 C -3.4761106,-33.39582 -3.1956576,-32.964523 -3.2323756,-32.854369 C -3.2690936,-32.744218 -3.2340576,-32.654274 -3.1545156,-32.654498 C -3.0749746,-32.654722 -3.0199696,-32.010445 -3.0322806,-31.222772 C -3.0526996,-29.916541 -3.0435456,-29.874549 -2.9281816,-30.745122 C -2.8586136,-31.270088 -2.8094956,-28.946752 -2.8190266,-25.582154 L -2.8363546,-19.4647 L -0.31998764,-19.452896 C 1.0640144,-19.446402 4.1044214,-19.403907 6.4364714,-19.358461 L 10.676562,-19.275832 L 11.261401,-18.632789 C 12.17442,-17.628903 12.527215,-16.709191 12.570722,-15.219484 C 12.591736,-14.499819 12.545755,-13.911116 12.468535,-13.911249 C 12.391316,-13.911383 12.353895,-13.852922 12.385377,-13.781335 C 12.47156,-13.585369 10.86167,-12.09725 10.496923,-12.035723 C 9.1007974,-11.80021 6.1321084,-11.671009 1.9527314,-11.663866 L -2.9765686,-11.655439 L -2.8858836,-5.7983768 C -2.8360116,-2.5769928 -2.8537286,-0.37083283 -2.9252576,-0.89579883 C -3.0497606,-1.8095408 -3.0543396,-1.7928558 -3.0326036,-0.50492383 C -3.0201176,0.23502517 -3.0632066,0.84025317 -3.1283596,0.84003117 C -3.1935126,0.83981117 -3.2980336,1.0009802 -3.3606256,1.1981882 C -3.5055486,1.6548072 -4.9389186,3.2780932 -5.0760776,3.1409332 C -5.1327836,3.0842262 -5.1791796,3.1335512 -5.1791796,3.2505412 C -5.1791796,3.3675292 -5.2572736,3.4149852 -5.3527226,3.3559942 C -5.4481706,3.2970042 -5.5262646,3.3329302 -5.5262646,3.4358312 C -5.5262646,3.5515442 -5.7016576,3.5788992 -5.9860056,3.5075332 C -6.3095576,3.4263292 -6.4093396,3.4510522 -6.3228496,3.5909992 C -6.2369196,3.7300302 -6.4510126,3.7890512 -7.0345196,3.7871942 C -7.6718986,3.7851652 -7.8075826,3.7409502 -7.6087756,3.6000642 z"
   id="path2579" /><path
   style="opacity:0.82743363000000003;fill:#ff0000;fill-opacity:0.92920353000000000"
   d="M 40.375538,49.663465 C 39.594189,49.30864 38.905256,48.502687 38.597454,47.583367 C 38.483263,47.242302 38.399945,45.844855 38.399945,44.270579 C 38.399945,42.772994 38.348523,40.012306 38.285674,38.135714 L 38.171402,34.723726 L 32.480538,34.723726 C 26.308479,34.723726 25.441259,34.631639 24.381129,33.863686 C 23.438624,33.180938 23.039579,32.294611 23.049419,30.90579 C 23.058321,29.649222 23.44286,28.719445 24.283718,27.921387 C 25.316374,26.941293 25.527029,26.91431 32.146838,26.91431 L 38.226402,26.91431 L 38.230644,20.970477 C 38.233091,17.543983 38.310357,14.695898 38.413084,14.245702 C 38.82682,12.432518 40.32562,11.295479 42.301954,11.295479 C 44.123804,11.295479 45.399299,12.221472 45.859494,13.878203 C 45.961251,14.244536 46.034286,17.087476 46.03485,20.704195 L 46.035818,26.902377 L 52.600011,26.951728 L 59.164196,27.001082 L 59.879202,27.474436 C 61.208446,28.354439 61.852829,30.020584 61.576524,31.863113 C 61.48045,32.503761 61.289534,32.839517 60.644085,33.502934 C 59.50338,34.675395 59.161718,34.723726 52.014496,34.723726 L 46.035818,34.723726 L 46.035818,40.547327 C 46.035818,44.395327 45.967418,46.642564 45.834191,47.171656 C 45.571224,48.215997 44.322965,49.53634 43.345908,49.803634 C 42.321063,50.084002 41.183361,50.030313 40.375538,49.663465 z"
   id="path2805" /></svg>