<?xml version="1.0" encoding="UTF-8" standalone="no"?>
<!-- Created with Inkscape (http://www.inkscape.org/) -->

<svg
   xmlns:dc="http://purl.org/dc/elements/1.1/"
   xmlns:cc="http://creativecommons.org/ns#"
   xmlns:rdf="http://www.w3.org/1999/02/22-rdf-syntax-ns#"
   xmlns:svg="http://www.w3.org/2000/svg"
   xmlns="http://www.w3.org/2000/svg"
   xmlns:sodipodi="http://sodipodi.sourceforge.net/DTD/sodipodi-0.dtd"
   xmlns:inkscape="http://www.inkscape.org/namespaces/inkscape"
   width="100"
   height="100"
   id="svg2885"
   sodipodi:version="0.32"
   inkscape:version="0.48.0 r9654"
   version="1.0"
   sodipodi:docname="tux.svg">
  <defs
     id="defs2887" />
  <sodipodi:namedview
     id="base"
     pagecolor="#ffffff"
     bordercolor="#666666"
     borderopacity="1.0"
     inkscape:pageopacity="0.0"
     inkscape:pageshadow="2"
     inkscape:zoom="3.4577522"
     inkscape:cx="74.195726"
     inkscape:cy="37.220307"
     inkscape:document-units="px"
     inkscape:current-layer="layer1"
     height="100px"
     width="100px"
     inkscape:window-width="1256"
     inkscape:window-height="701"
     inkscape:window-x="0"
     inkscape:window-y="37"
     showgrid="false"
     inkscape:window-maximized="1" />
  <metadata
     id="metadata2890">
    <rdf:RDF>
      <cc:Work
         rdf:about="">
        <dc:format>image/svg+xml</dc:format>
        <dc:type
           rdf:resource="http://purl.org/dc/dcmitype/StillImage" />
        <dc:title></dc:title>
      </cc:Work>
    </rdf:RDF>
  </metadata>
  <g
     inkscape:label="Calque 1"
     inkscape:groupmode="layer"
     id="layer1">
    <g
       style="fill:#ffffff;fill-opacity:1;stroke:none"
       id="g11309"
       transform="matrix(0.31123819,0,0,0.3692183,102.02142,5.0025741)">
      <path
         style="fill-rule:evenodd;stroke:#000000;stroke-linecap:round;stroke-linejoin:round"
         d="m -177.46417,83.851927 c -55.41083,-20.22815 -59.92867,111.800913 -44.31337,114.725873 25.80298,17.41866 78.00661,14.56136 92.07317,1.46973 9.23475,-7.56016 21.43273,-128.269643 -47.7598,-116.195603 z"
         id="path11311"
         sodipodi:nodetypes="cccc"
         inkscape:connector-curvature="0" />
    </g>
    <path
       d="M 47.191671,2.0558397 C 23.974309,3.1973348 21.630815,67.120192 26.437248,76.923283 40.523015,87.98161 61.575916,85.151077 69.254809,76.83979 75.168661,66.350232 76.927959,-0.36563691 47.191671,2.0558397 z m 0.835986,1.7745111 C 24.810293,4.9718448 22.4668,68.894704 27.273232,78.697804 41.359002,89.756123 62.411901,86.925589 70.090797,78.6143 76.004646,68.124741 77.763944,1.4088705 48.027657,3.8303485 z"
       style="fill:#111414;fill-opacity:1;fill-rule:nonzero;stroke:#000000;stroke-width:2.08851743;stroke-linecap:round;stroke-linejoin:round;stroke-miterlimit:4;stroke-opacity:1"
       id="path11315"
       inkscape:connector-curvature="0" />
    <path
       style="fill:#ffffff;fill-opacity:1;fill-rule:evenodd;stroke:none"
       d="M 48.404228,26.296989 C 44.9713,12.475886 66.973656,6.2403724 58.428642,28.391973"
       id="path2186"
       sodipodi:nodetypes="cc"
       inkscape:connector-curvature="0" />
    <path
       style="fill:#ffffff;fill-opacity:1;fill-rule:evenodd;stroke:none"
       d="M 39.90776,28.720648 C 32.21874,9.7954332 47.841308,9.3621034 49.754753,27.197537"
       id="path5435"
       sodipodi:nodetypes="cc"
       inkscape:connector-curvature="0" />
    <path
       sodipodi:nodetypes="cccccccccccc"
       id="path12075"
       style="fill:#ff8a00;fill-opacity:1;fill-rule:nonzero;stroke:#000000;stroke-width:1.67081416;stroke-linecap:round;stroke-linejoin:round;stroke-miterlimit:4;stroke-opacity:1"
       d="m 39.303709,82.146118 0.416054,6.654316 4.253767,5.724845 C 38.652997,98.198101 25.337509,95.388224 25.105257,91.409964 L 34.40075,88.78652 c -0.864947,3.148129 -0.864947,-8.394998 -0.864947,-8.394998 m 4.585566,2.279281 0.416052,6.654325 4.253767,5.724844 c -5.320531,3.672815 -18.636019,0.862939 -18.868271,-3.115323 l 9.295492,-2.623435 c -0.864947,3.148129 -0.864947,-8.395007 -0.864947,-8.395007"
       inkscape:connector-curvature="0" />
    <path
       sodipodi:nodetypes="cccccccccccc"
       id="path5438"
       style="fill:#ff8a00;fill-opacity:1;fill-rule:nonzero;stroke:#000000;stroke-width:1.67081416;stroke-linecap:round;stroke-linejoin:round;stroke-miterlimit:4;stroke-opacity:1"
       d="m 56.091286,82.967346 -0.416054,6.654326 -4.253767,5.724836 c 5.320535,3.672815 18.636019,0.862946 18.868272,-3.115315 l -9.295491,-2.623435 c 0.864947,3.148119 0.864947,-8.395007 0.864947,-8.395007 m -4.585566,2.27929 -0.416055,6.654316 -4.253767,5.724837 c 5.320536,3.672822 18.636019,0.862946 18.868272,-3.115317 l -9.29549,-2.623434 c 0.864947,3.148129 0.864947,-8.394998 0.864947,-8.394998"
       inkscape:connector-curvature="0" />
    <path
       style="fill:#ffffff;fill-opacity:1;fill-rule:evenodd;stroke:#000000;stroke-width:1.20263481;stroke-linecap:round;stroke-linejoin:round;stroke-miterlimit:4;stroke-opacity:1"
       d="m 47.82349,36.563796 c -17.245934,-7.46863 -18.652057,41.279109 -13.791986,42.359057 8.030859,6.431313 24.278592,5.376341 28.656634,0.542651 2.8742,-2.791355 6.670672,-47.359681 -14.864648,-42.901708 z"
       id="path13611"
       sodipodi:nodetypes="cccc"
       inkscape:connector-curvature="0" />
    <path
       sodipodi:nodetypes="cccccccc"
       d="M 47.958856,47.168976 C 39.720177,44.121399 36.366838,31.726846 37.950656,26.4665 c 8.23998,3.257404 11.663502,0.715401 22.081857,0.371201 -0.336655,9.727943 -4.223773,17.311122 -12.073657,20.331275 z m -0.613688,0.605471 C 37.388436,42.693741 36.325836,32.840602 37.909651,27.580255 53.594544,26.26313 45.564356,26.770813 59.991514,27.951451 59.654856,37.679398 55.195055,46.787409 47.345168,47.774447 z"
       style="fill:#ff8a00;fill-opacity:1;fill-rule:nonzero;stroke:#000000;stroke-width:1.50138378;stroke-linecap:round;stroke-linejoin:round;stroke-miterlimit:4;stroke-opacity:1"
       id="path5441"
       inkscape:connector-curvature="0" />
    <path
       style="fill:#000000;fill-opacity:1;fill-rule:evenodd;stroke:#000000;stroke-width:4.11306334;stroke-linecap:round;stroke-linejoin:round;stroke-miterlimit:4;stroke-opacity:1"
       d="m 54.557265,22.359179 c 2.629317,2.662974 -0.536607,0.349358 -0.536607,0.349358"
       id="path2188"
       sodipodi:nodetypes="cc"
       inkscape:connector-curvature="0" />
    <path
       style="fill:#000000;fill-opacity:1;fill-rule:evenodd;stroke:#000000;stroke-width:4.11306334;stroke-linecap:round;stroke-linejoin:round;stroke-miterlimit:4;stroke-opacity:1"
       d="m 43.373597,22.457374 c 2.629319,2.66298 -0.536599,0.349358 -0.536599,0.349358"
       id="path5462"
       sodipodi:nodetypes="cc"
       inkscape:connector-curvature="0" />
    <path
       d="M 69.96087,29.469387 C 79.719739,42.589759 89.794365,58.039524 85.061075,61.974262 72.472136,57.361834 78.536907,56.381479 70.972573,49.819272 m -0.004,-21.050585 C 80.727482,41.889057 90.80211,57.338823 86.068818,61.273559 73.479881,56.661124 79.544652,55.680778 71.98032,49.118579"
       style="fill:#111414;fill-opacity:1;fill-rule:nonzero;stroke:#000000;stroke-width:1.67081416;stroke-linecap:round;stroke-linejoin:round;stroke-miterlimit:4;stroke-opacity:1"
       id="path13605"
       inkscape:connector-curvature="0" />
    <path
       style="fill:#000000;fill-opacity:1;fill-rule:evenodd;stroke:#000000;stroke-width:1.70816946;stroke-linecap:round;stroke-linejoin:round;stroke-miterlimit:4;stroke-opacity:1"
       d="m 45.867497,39.010322 c 1.110005,1.087968 -0.226531,0.142725 -0.226531,0.142725"
       id="path13607"
       sodipodi:nodetypes="cc"
       inkscape:connector-curvature="0" />
    <path
       style="fill:#000000;fill-opacity:1;fill-rule:evenodd;stroke:#000000;stroke-width:1.70816946;stroke-linecap:round;stroke-linejoin:round;stroke-miterlimit:4;stroke-opacity:1"
       d="m 50.448978,39.010322 c 1.110007,1.087968 -0.22653,0.142725 -0.22653,0.142725"
       id="path13609"
       sodipodi:nodetypes="cc"
       inkscape:connector-curvature="0" />
    <path
       d="M 29.364463,29.819731 C 19.605594,42.940101 9.5309639,58.389867 14.264258,62.324603 26.853196,57.712177 20.788425,56.731822 28.352756,50.169623 m 0.004,-21.050589 C 18.597865,42.239404 8.5232352,57.689166 13.25653,61.623901 25.845468,57.011474 19.780697,56.031111 27.345029,49.468922"
       style="fill:#111414;fill-opacity:1;fill-rule:nonzero;stroke:#000000;stroke-width:1.67081416;stroke-linecap:round;stroke-linejoin:round;stroke-miterlimit:4;stroke-opacity:1"
       id="path5464"
       inkscape:connector-curvature="0" />
  </g>
</svg>
