<?xml version="1.0" encoding="UTF-8" standalone="no"?>
<!-- Created with Inkscape (http://www.inkscape.org/) -->

<svg
   xmlns:dc="http://purl.org/dc/elements/1.1/"
   xmlns:cc="http://creativecommons.org/ns#"
   xmlns:rdf="http://www.w3.org/1999/02/22-rdf-syntax-ns#"
   xmlns:svg="http://www.w3.org/2000/svg"
   xmlns="http://www.w3.org/2000/svg"
   xmlns:sodipodi="http://sodipodi.sourceforge.net/DTD/sodipodi-0.dtd"
   xmlns:inkscape="http://www.inkscape.org/namespaces/inkscape"
   width="100"
   height="100"
   id="svg2885"
   sodipodi:version="0.32"
   inkscape:version="0.48.0 r9654"
   version="1.0"
   sodipodi:docname="tuxpaint.svg">
  <defs
     id="defs2887" />
  <sodipodi:namedview
     id="base"
     pagecolor="#ffffff"
     bordercolor="#666666"
     borderopacity="1.0"
     inkscape:pageopacity="0.0"
     inkscape:pageshadow="2"
     inkscape:zoom="3.4577522"
     inkscape:cx="74.195726"
     inkscape:cy="39.967757"
     inkscape:document-units="px"
     inkscape:current-layer="layer1"
     height="100px"
     width="100px"
     inkscape:window-width="1256"
     inkscape:window-height="701"
     inkscape:window-x="0"
     inkscape:window-y="37"
     showgrid="false"
     inkscape:window-maximized="1" />
  <metadata
     id="metadata2890">
    <rdf:RDF>
      <cc:Work
         rdf:about="">
        <dc:format>image/svg+xml</dc:format>
        <dc:type
           rdf:resource="http://purl.org/dc/dcmitype/StillImage" />
      </cc:Work>
    </rdf:RDF>
  </metadata>
  <g
     inkscape:label="Calque 1"
     inkscape:groupmode="layer"
     id="layer1">
    <g
       style="fill:white;fill-opacity:1;stroke:none;stroke-width:3.54768729;stroke-miterlimit:4;stroke-opacity:1"
       id="g11309"
       transform="matrix(0.229689,0,0,0.301668,89.1006,9.489927)">
      <path
         style="fill-rule:evenodd;stroke:black;stroke-linecap:round;stroke-linejoin:round"
         d="M -177.46417,83.851927 C -232.875,63.623777 -237.39284,195.65284 -221.77754,198.5778 C -195.97456,215.99646 -143.77093,213.13916 -129.70437,200.04753 C -120.46962,192.48737 -108.27164,71.777887 -177.46417,83.851927 z "
         id="path11311"
         sodipodi:nodetypes="cccc" />
    </g>
    <path
       d="M 48.637091,7.0823121 C 31.503034,8.0149651 29.773571,60.242822 33.320646,68.25239 C 43.715726,77.287541 59.252443,74.974868 64.919348,68.184172 C 69.28368,59.61373 70.582015,5.1038565 48.637091,7.0823121 z M 49.254036,8.5321677 C 32.119978,9.4648197 30.390516,61.692678 33.937589,69.702253 C 44.332671,78.737398 59.869387,76.424725 65.536294,69.634029 C 69.900624,61.063586 71.198959,6.5537109 49.254036,8.5321677 z "
       style="fill:#111414;fill-opacity:1;fill-rule:nonzero;stroke:black;stroke-width:1.62175322;stroke-linecap:round;stroke-linejoin:round;stroke-miterlimit:4;stroke-opacity:1"
       id="path11315" />
    <path
       style="fill:white;fill-opacity:1;fill-rule:evenodd;stroke:none;stroke-width:7.37193298;stroke-linecap:round;stroke-linejoin:round;stroke-miterlimit:4;stroke-opacity:1"
       d="M 49.531939,26.888424 C 46.998492,15.595959 63.235892,10.501264 56.929803,28.600121"
       id="path2186"
       sodipodi:nodetypes="cc" />
    <path
       style="fill:white;fill-opacity:1;fill-rule:evenodd;stroke:none;stroke-width:6.53224468;stroke-linecap:round;stroke-linejoin:round;stroke-miterlimit:4;stroke-opacity:1"
       d="M 43.261677,28.868663 C 37.587298,13.405909 49.116513,13.051859 50.528607,27.624213"
       id="path5435"
       sodipodi:nodetypes="cc" />
    <path
       sodipodi:nodetypes="cccccccccccc"
       id="path12075"
       style="fill:#ff8a00;fill-opacity:1;fill-rule:nonzero;stroke:black;stroke-width:1.29740274;stroke-linecap:round;stroke-linejoin:round;stroke-miterlimit:4;stroke-opacity:1"
       d="M 42.815896,72.519681 L 43.122938,77.956558 L 46.262152,82.634014 C 42.335681,85.634875 32.509056,83.339079 32.337657,80.088661 L 39.197588,77.945189 C 38.55927,80.517353 38.55927,71.086097 38.55927,71.086097 M 41.943347,72.948372 L 42.250388,78.385256 L 45.389602,83.062712 C 41.463132,86.063567 31.636507,83.767772 31.465108,80.517353 L 38.325038,78.373888 C 37.68672,80.946051 37.68672,71.514789 37.68672,71.514789" />
    <path
       sodipodi:nodetypes="cccccccccccc"
       id="path5438"
       style="fill:#ff8a00;fill-opacity:1;fill-rule:nonzero;stroke:black;stroke-width:1.29740274;stroke-linecap:round;stroke-linejoin:round;stroke-miterlimit:4;stroke-opacity:1"
       d="M 55.20487,73.190662 L 54.897829,78.627546 L 51.758614,83.304995 C 55.685087,86.30585 65.51171,84.010061 65.683109,80.759642 L 58.82318,78.616178 C 59.461497,81.188333 59.461497,71.757078 59.461497,71.757078 M 56.077419,73.619361 L 55.770378,79.056237 L 52.631163,83.733687 C 56.557636,86.734548 66.384259,84.438753 66.555658,81.188333 L 59.695729,79.044869 C 60.334046,81.617032 60.334046,72.185777 60.334046,72.185777" />
    <path
       style="fill:white;fill-opacity:1;fill-rule:evenodd;stroke:black;stroke-width:0.9338572;stroke-linecap:round;stroke-linejoin:round;stroke-miterlimit:4;stroke-opacity:1"
       d="M 49.103364,35.276869 C 36.376129,29.174661 35.338433,69.003762 38.92509,69.886128 C 44.851741,75.140801 56.842318,74.278842 60.073246,70.329499 C 62.194361,68.048836 64.996099,31.634504 49.103364,35.276869 z "
       id="path13611"
       sodipodi:nodetypes="cccc" />
    <path
       sodipodi:nodetypes="cccccccc"
       d="M 49.203262,43.941779 C 43.123243,41.451771 40.648531,31.324863 41.817364,27.026922 C 47.898343,29.688368 50.424849,27.611437 58.113435,27.33021 C 57.864989,35.278379 54.996356,41.474178 49.203262,43.941779 z M 48.75037,44.436476 C 41.402454,40.28531 40.618272,32.234851 41.787103,27.93691 C 53.362313,26.86076 47.436157,27.27556 58.083179,28.240194 C 57.83473,36.188366 54.543465,43.630021 48.75037,44.436476 z "
       style="fill:#ff8a00;fill-opacity:1;fill-rule:nonzero;stroke:black;stroke-width:1.16583848;stroke-linecap:round;stroke-linejoin:round;stroke-miterlimit:4;stroke-opacity:1"
       id="path5441" />
    <path
       style="fill:black;fill-opacity:1;fill-rule:evenodd;stroke:black;stroke-width:3.19383216;stroke-linecap:round;stroke-linejoin:round;stroke-miterlimit:4;stroke-opacity:1"
       d="M 54.072786,23.671056 C 56.013182,25.846826 53.676779,23.956497 53.676779,23.956497"
       id="path2188"
       sodipodi:nodetypes="cc" />
    <path
       style="fill:black;fill-opacity:1;fill-rule:evenodd;stroke:black;stroke-width:3.19383216;stroke-linecap:round;stroke-linejoin:round;stroke-miterlimit:4;stroke-opacity:1"
       d="M 45.819411,23.751286 C 47.759808,25.927061 45.423409,24.036727 45.423409,24.036727"
       id="path5462"
       sodipodi:nodetypes="cc" />
    <path
       d="M 65.44041,29.480417 C 72.642305,40.200352 80.077225,52.823507 76.584129,56.038365 C 67.293686,52.269803 71.769394,51.468809 66.187032,46.10719 M 66.184144,28.907913 C 73.38604,39.627847 80.82096,52.251002 77.327863,55.465859 C 68.037422,51.697292 72.513129,50.896305 66.930768,45.534692"
       style="fill:#111414;fill-opacity:1;fill-rule:nonzero;stroke:black;stroke-width:1.29740274;stroke-linecap:round;stroke-linejoin:round;stroke-miterlimit:4;stroke-opacity:1"
       id="path13605" />
    <path
       style="fill:black;fill-opacity:1;fill-rule:evenodd;stroke:black;stroke-width:1.32640958;stroke-linecap:round;stroke-linejoin:round;stroke-miterlimit:4;stroke-opacity:1"
       d="M 47.659871,37.275791 C 48.479038,38.164709 47.492695,37.392403 47.492695,37.392403"
       id="path13607"
       sodipodi:nodetypes="cc" />
    <path
       style="fill:black;fill-opacity:1;fill-rule:evenodd;stroke:black;stroke-width:1.32640958;stroke-linecap:round;stroke-linejoin:round;stroke-miterlimit:4;stroke-opacity:1"
       d="M 51.040934,37.275791 C 51.860101,38.164709 50.873758,37.392403 50.873758,37.392403"
       id="path13609"
       sodipodi:nodetypes="cc" />
    <path
       d="M 35.480885,29.766664 C 28.27899,40.486597 20.844068,53.109753 24.337166,56.324609 C 33.627609,52.556049 29.151901,51.755055 34.734262,46.393443 M 34.73715,29.194162 C 27.535255,39.914096 20.100333,52.537248 23.593432,55.752105 C 32.883874,51.983544 28.408167,51.182543 33.990528,45.820938"
       style="fill:#111414;fill-opacity:1;fill-rule:nonzero;stroke:black;stroke-width:1.29740274;stroke-linecap:round;stroke-linejoin:round;stroke-miterlimit:4;stroke-opacity:1"
       id="path5464" />
  </g>
</svg>
