<?xml version="1.0" encoding="UTF-8" standalone="no"?>
<!-- Created with Sodipodi ("http://www.sodipodi.com/") -->

<svg
   xmlns:dc="http://purl.org/dc/elements/1.1/"
   xmlns:cc="http://creativecommons.org/ns#"
   xmlns:rdf="http://www.w3.org/1999/02/22-rdf-syntax-ns#"
   xmlns:svg="http://www.w3.org/2000/svg"
   xmlns="http://www.w3.org/2000/svg"
   xmlns:xlink="http://www.w3.org/1999/xlink"
   xmlns:sodipodi="http://sodipodi.sourceforge.net/DTD/sodipodi-0.dtd"
   xmlns:inkscape="http://www.inkscape.org/namespaces/inkscape"
   id="svg792"
   sodipodi:version="0.32"
   width="113.35"
   height="94.360001"
   xml:space="preserve"
   sodipodi:docname="cycle.svg"
   inkscape:version="0.48.0 r9654"
   inkscape:output_extension="org.inkscape.output.svg.inkscape"
   sodipodi:modified="true"
   version="1.0"><metadata
     id="metadata44"><rdf:RDF><cc:Work
         rdf:about=""><dc:format>image/svg+xml</dc:format><dc:type
           rdf:resource="http://purl.org/dc/dcmitype/StillImage" /><dc:title /></cc:Work></rdf:RDF></metadata><defs
     id="defs794"><inkscape:perspective
       sodipodi:type="inkscape:persp3d"
       inkscape:vp_x="0 : 197.29335 : 1"
       inkscape:vp_y="0 : 1000 : 0"
       inkscape:vp_z="577.7746 : 197.29335 : 1"
       inkscape:persp3d-origin="288.8873 : 131.5289 : 1"
       id="perspective55" /><linearGradient
       id="linearGradient641"><stop
         style="stop-color:#c20000;stop-opacity:1;"
         offset="0"
         id="stop642" /><stop
         style="stop-color:#ffffff;stop-opacity:1;"
         offset="1"
         id="stop643" /></linearGradient><linearGradient
       id="linearGradient837"><stop
         style="stop-color:#7f7f7f;stop-opacity:1;"
         offset="0"
         id="stop838" /><stop
         style="stop-color:#ffffff;stop-opacity:1;"
         offset="1"
         id="stop839" /></linearGradient><linearGradient
       id="linearGradient822"><stop
         style="stop-color:#c5efff;stop-opacity:1;"
         offset="0"
         id="stop823" /><stop
         style="stop-color:#ffffff;stop-opacity:1;"
         offset="1"
         id="stop824" /></linearGradient><linearGradient
       id="linearGradient817"><stop
         style="stop-color:#ff0000;stop-opacity:1;"
         offset="0"
         id="stop818" /><stop
         style="stop-color:#ffffff;stop-opacity:1;"
         offset="1"
         id="stop819" /></linearGradient><linearGradient
       xlink:href="#linearGradient817"
       id="linearGradient820"
       x1="0.47651008"
       y1="1.9615818"
       x2="0.147651"
       y2="-1.7692232" /><linearGradient
       xlink:href="#linearGradient822"
       id="linearGradient821"
       x1="-0.18279675"
       y1="0.17968646"
       x2="0.94086021"
       y2="0.90624994" /><linearGradient
       xlink:href="#linearGradient822"
       id="linearGradient825" /><linearGradient
       xlink:href="#linearGradient822"
       id="linearGradient826" /><radialGradient
       xlink:href="#linearGradient837"
       id="radialGradient836"
       cx="0.53906167"
       cy="0.52344126"
       r="0.73574668"
       fx="0.53906167"
       fy="0.52344126" /><linearGradient
       xlink:href="#linearGradient837"
       id="linearGradient842"
       x1="0.49651298"
       y1="-0.038699955"
       x2="0.50335413"
       y2="2.4807649"
       gradientTransform="translate(-3.75943e-7,-1.774755e-6)" /><linearGradient
       xlink:href="#linearGradient817"
       id="linearGradient635"
       x1="0.30536914"
       y1="0.83332908"
       x2="0.29530203"
       y2="-0.10000066" /><linearGradient
       xlink:href="#linearGradient641"
       id="linearGradient640"
       x1="0.43287358"
       y1="-0.061892509"
       x2="0.42617431"
       y2="1.4583448"
       gradientTransform="translate(-1.789022e-8,1.461358e-6)" /></defs><sodipodi:namedview
     id="base"
     inkscape:zoom="1.0186359"
     inkscape:cx="299.17373"
     inkscape:cy="8.0295114"
     inkscape:window-width="822"
     inkscape:window-height="700"
     inkscape:window-x="426"
     inkscape:window-y="37"
     inkscape:current-layer="svg792"
     showgrid="false"
     inkscape:window-maximized="0" /><g
     id="g3854"
     transform="matrix(0.16470093,0,0,0.2057576,-2.0154778,-1.8115003)"><path
       sodipodi:nodetypes="ccc"
       id="path3664"
       d="m 287.80152,51.905548 c -29.04226,0 -46.57539,-13.259156 -59.28138,15.05703 22.87079,14.521129 30.77506,16.795872 54.73489,14.98076"
       style="fill:none;stroke:#000000;stroke-width:14.50230026;stroke-linecap:square;stroke-linejoin:round;stroke-opacity:1"
       inkscape:connector-curvature="0" /><path
       id="path3666"
       d="m 227.46809,66.795546 -5.92571,57.787564"
       style="fill:none;stroke:#000000;stroke-width:14.50230026;stroke-linecap:butt;stroke-linejoin:miter;stroke-opacity:1"
       inkscape:connector-curvature="0" /><path
       transform="matrix(0.87099,0,0,0.87099,-31.5747,12.704)"
       d="m 324.74464,348.07648 c 0,68.89456 -55.85008,124.74463 -124.74464,124.74463 -68.89456,0 -124.744637,-55.85007 -124.744637,-124.74463 0,-68.89456 55.850077,-124.74464 124.744637,-124.74464 68.89456,0 124.74464,55.85008 124.74464,124.74464 z"
       sodipodi:ry="124.74464"
       sodipodi:rx="124.74464"
       sodipodi:cy="348.07648"
       sodipodi:cx="200"
       id="path2822"
       style="fill:#ffffff;fill-opacity:1;stroke:#000000;stroke-width:16;stroke-linecap:square;stroke-linejoin:round;stroke-miterlimit:4;stroke-opacity:1;stroke-dasharray:none;stroke-dashoffset:0"
       sodipodi:type="arc" /><path
       id="path2850"
       d="m 33.953813,307.22838 216.333987,7.1812"
       style="fill:none;stroke:#000000;stroke-width:0.87098998px;stroke-linecap:butt;stroke-linejoin:miter;stroke-opacity:1"
       inkscape:connector-curvature="0" /><path
       id="path2852"
       d="M 238.61832,359.29217 49.213888,258.7552"
       style="fill:none;stroke:#000000;stroke-width:0.87098998px;stroke-linecap:butt;stroke-linejoin:miter;stroke-opacity:1"
       inkscape:connector-curvature="0" /><path
       id="path2854"
       d="M 38.442087,345.82737 242.20892,272.21999"
       style="fill:none;stroke:#000000;stroke-width:0.87098998px;stroke-linecap:butt;stroke-linejoin:miter;stroke-opacity:1"
       inkscape:connector-curvature="0" /><path
       style="fill:none;stroke:#000000;stroke-width:0.87098998px;stroke-linecap:butt;stroke-linejoin:miter;stroke-opacity:1"
       d="M 84.859316,400.80845 202.45976,219.08863"
       id="path2856"
       inkscape:connector-curvature="0" /><path
       style="fill:none;stroke:#000000;stroke-width:0.87098998px;stroke-linecap:butt;stroke-linejoin:miter;stroke-opacity:1"
       d="M 234.91692,252.21196 51.174402,362.7579"
       id="path2858"
       inkscape:connector-curvature="0" /><path
       style="fill:none;stroke:#000000;stroke-width:0.87098998px;stroke-linecap:butt;stroke-linejoin:miter;stroke-opacity:1"
       d="m 120.25456,416.84603 41.88277,-212.5672"
       id="path2860"
       inkscape:connector-curvature="0" /><path
       style="fill:none;stroke:#000000;stroke-width:0.87098998px;stroke-linecap:butt;stroke-linejoin:miter;stroke-opacity:1"
       d="M 172.84716,412.75028 114.81975,204.22024"
       id="path2862"
       inkscape:connector-curvature="0" /><path
       style="fill:none;stroke:#000000;stroke-width:0.87098998px;stroke-linecap:butt;stroke-linejoin:miter;stroke-opacity:1"
       d="M 208.3235,396.89286 76.994921,224.57981"
       id="path2864"
       inkscape:connector-curvature="0" /><path
       transform="matrix(0.87099,0,0,0.87099,391.726,12.704)"
       sodipodi:type="arc"
       style="fill:#ffffff;fill-opacity:1;stroke:#000000;stroke-width:16;stroke-linecap:square;stroke-linejoin:round;stroke-miterlimit:4;stroke-opacity:1;stroke-dasharray:none;stroke-dashoffset:0"
       id="path2866"
       sodipodi:cx="200"
       sodipodi:cy="348.07648"
       sodipodi:rx="124.74464"
       sodipodi:ry="124.74464"
       d="m 324.74464,348.07648 c 0,68.89456 -55.85008,124.74463 -124.74464,124.74463 -68.89456,0 -124.744637,-55.85007 -124.744637,-124.74463 0,-68.89456 55.850077,-124.74464 124.744637,-124.74464 68.89456,0 124.74464,55.85008 124.74464,124.74464 z" /><path
       style="fill:none;stroke:#000000;stroke-width:0.87098998px;stroke-linecap:butt;stroke-linejoin:miter;stroke-opacity:1"
       d="m 457.25486,307.22838 216.33399,7.1812"
       id="path2868"
       inkscape:connector-curvature="0" /><path
       style="fill:none;stroke:#000000;stroke-width:0.87098998px;stroke-linecap:butt;stroke-linejoin:miter;stroke-opacity:1"
       d="M 661.91937,359.29217 472.51494,258.7552"
       id="path2870"
       inkscape:connector-curvature="0" /><path
       style="fill:none;stroke:#000000;stroke-width:0.87098998px;stroke-linecap:butt;stroke-linejoin:miter;stroke-opacity:1"
       d="M 461.74314,345.82737 665.50997,272.21999"
       id="path2872"
       inkscape:connector-curvature="0" /><path
       id="path2874"
       d="M 508.16037,400.80845 625.76084,219.08863"
       style="fill:none;stroke:#000000;stroke-width:0.87098998px;stroke-linecap:butt;stroke-linejoin:miter;stroke-opacity:1"
       inkscape:connector-curvature="0" /><path
       id="path2876"
       d="M 658.21797,252.21196 474.47545,362.7579"
       style="fill:none;stroke:#000000;stroke-width:0.87098998px;stroke-linecap:butt;stroke-linejoin:miter;stroke-opacity:1"
       inkscape:connector-curvature="0" /><path
       id="path2878"
       d="m 543.55562,416.84603 41.88276,-212.5672"
       style="fill:none;stroke:#000000;stroke-width:0.87098998px;stroke-linecap:butt;stroke-linejoin:miter;stroke-opacity:1"
       inkscape:connector-curvature="0" /><path
       id="path2880"
       d="M 596.14821,412.75028 538.12084,204.22024"
       style="fill:none;stroke:#000000;stroke-width:0.87098998px;stroke-linecap:butt;stroke-linejoin:miter;stroke-opacity:1"
       inkscape:connector-curvature="0" /><path
       id="path2882"
       d="M 631.62455,396.89286 500.29597,224.57981"
       style="fill:none;stroke:#000000;stroke-width:0.87098998px;stroke-linecap:butt;stroke-linejoin:miter;stroke-opacity:1"
       inkscape:connector-curvature="0" /><path
       transform="matrix(0.807692,0,0,0.807692,195.54,103.41)"
       d="m -45.237122,263.05243 c 0,11.19962 -9.079087,20.27871 -20.278709,20.27871 -11.199622,0 -20.278709,-9.07909 -20.278709,-20.27871 0,-11.19962 9.079087,-20.27871 20.278709,-20.27871 11.199622,0 20.278709,9.07909 20.278709,20.27871 z"
       sodipodi:ry="20.278709"
       sodipodi:rx="20.278709"
       sodipodi:cy="263.05243"
       sodipodi:cx="-65.515831"
       id="path3054"
       style="fill:#808080;fill-opacity:1;stroke:none"
       sodipodi:type="arc" /><path
       sodipodi:nodetypes="ccc"
       id="path2884"
       d="m 142.6895,311.46361 62.07781,-115.44289 16.84975,-76.23587"
       style="fill:none;stroke:#800000;stroke-width:18.12789917;stroke-linecap:butt;stroke-linejoin:miter;stroke-opacity:1"
       inkscape:connector-curvature="0" /><path
       sodipodi:type="arc"
       style="fill:#808080;fill-opacity:1;stroke:none"
       id="path3056"
       sodipodi:cx="-65.515831"
       sodipodi:cy="263.05243"
       sodipodi:rx="20.278709"
       sodipodi:ry="20.278709"
       d="m -45.237122,263.05243 c 0,11.19962 -9.079087,20.27871 -20.278709,20.27871 -11.199622,0 -20.278709,-9.07909 -20.278709,-20.27871 0,-11.19962 9.079087,-20.27871 20.278709,-20.27871 11.199622,0 20.278709,9.07909 20.278709,20.27871 z"
       transform="matrix(0.807692,0,0,0.807692,618.841,103.41)" /><path
       id="path2888"
       d="M 208.03456,179.68448 504.26541,178.59537 383.37708,310.37454 208.03456,179.68448 z"
       style="fill:none;stroke:#800000;stroke-width:18.12789917;stroke-linecap:butt;stroke-linejoin:bevel;stroke-opacity:1"
       inkscape:connector-curvature="0" /><path
       id="path3662"
       d="m 509.71085,176.41719 151.38266,0 -89.30489,126.33376 -4.35632,4.35633"
       style="fill:none;stroke:#000000;stroke-width:10.8767004;stroke-linecap:butt;stroke-linejoin:round;stroke-opacity:1"
       inkscape:connector-curvature="0" /><path
       transform="matrix(1.81279,0,0,1.81279,-224.067,-206.36)"
       d="m 426.89801,175.62404 c 0,1.76426 -10.27155,3.19447 -22.94214,3.19447 -12.67059,0 -22.94214,-1.43021 -22.94214,-3.19447 0,-1.76426 10.27155,-3.19448 22.94214,-3.19448 12.67059,0 22.94214,1.43022 22.94214,3.19448 z"
       sodipodi:ry="3.1944749"
       sodipodi:rx="22.942137"
       sodipodi:cy="175.62404"
       sodipodi:cx="403.95587"
       id="path3674"
       style="fill:#000000;fill-opacity:1;stroke:#000000;stroke-width:8;stroke-linecap:square;stroke-linejoin:round;stroke-miterlimit:4;stroke-opacity:1;stroke-dasharray:none;stroke-dashoffset:0"
       sodipodi:type="arc" /><path
       sodipodi:nodetypes="ccc"
       id="path3678"
       d="m 373.97624,243.09423 0,67.38509 0,86.33719"
       style="fill:none;stroke:#000000;stroke-width:7.25115013;stroke-linecap:butt;stroke-linejoin:miter;stroke-opacity:1"
       inkscape:connector-curvature="0" /><path
       transform="matrix(1.81279,0,0,1.81279,-238.807,-205.307)"
       d="m 338.03353,332.44373 c 0,1.76426 -4.42066,3.19447 -9.87383,3.19447 -5.45317,0 -9.87383,-1.43021 -9.87383,-3.19447 0,-1.76426 4.42066,-3.19448 9.87383,-3.19448 5.45317,0 9.87383,1.43022 9.87383,3.19448 z"
       sodipodi:ry="3.1944749"
       sodipodi:rx="9.8738317"
       sodipodi:cy="332.44373"
       sodipodi:cx="328.1597"
       id="path3680"
       style="fill:#000000;fill-opacity:1;stroke:#000000;stroke-width:4;stroke-linecap:square;stroke-linejoin:round;stroke-miterlimit:4;stroke-opacity:1;stroke-dasharray:none;stroke-dashoffset:0"
       sodipodi:type="arc" /><path
       sodipodi:type="arc"
       style="fill:#000000;fill-opacity:1;stroke:#000000;stroke-width:4;stroke-linecap:square;stroke-linejoin:round;stroke-miterlimit:4;stroke-opacity:1;stroke-dasharray:none;stroke-dashoffset:0"
       id="path3682"
       sodipodi:cx="328.1597"
       sodipodi:cy="332.44373"
       sodipodi:rx="9.8738317"
       sodipodi:ry="3.1944749"
       d="m 338.03353,332.44373 c 0,1.76426 -4.42066,3.19447 -9.87383,3.19447 -5.45317,0 -9.87383,-1.43021 -9.87383,-3.19447 0,-1.76426 4.42066,-3.19448 9.87383,-3.19448 5.45317,0 9.87383,1.43022 9.87383,3.19448 z"
       transform="matrix(1.81279,0,0,1.81279,-203.009,-356.924)" /><path
       sodipodi:nodetypes="ccccc"
       id="path3684"
       d="m 371.82066,286.458 c 0,0 204.97599,14.48642 206.6673,17.32783 9.89432,9.79968 3.47282,23.63841 -1.88015,25.99628 -9.38364,10.81379 -197.3671,34.39475 -197.3671,34.39475 l -4.21157,-33.69258"
       style="fill:none;stroke:#000000;stroke-width:3.62558007;stroke-linecap:butt;stroke-linejoin:miter;stroke-opacity:1"
       inkscape:connector-curvature="0" /><path
       style="fill:none;stroke:#800000;stroke-width:18.12789917;stroke-linecap:butt;stroke-linejoin:miter;stroke-opacity:1"
       d="m 567.32501,311.46361 -62.07781,-115.44289 1.08911,-76.2359"
       id="path2886"
       inkscape:connector-curvature="0" /><path
       sodipodi:type="arc"
       style="fill:#808080;fill-opacity:1;stroke:#1a1a1a;stroke-width:1.26875997;stroke-linecap:square;stroke-linejoin:round;stroke-miterlimit:4;stroke-opacity:1;stroke-dasharray:1.26876, 2.53753;stroke-dashoffset:2.03002"
       id="path3058"
       sodipodi:cx="330.19254"
       sodipodi:cy="278.71844"
       sodipodi:rx="19.230545"
       sodipodi:ry="19.230545"
       d="m 349.42308,278.71844 c 0,10.62074 -8.60981,19.23055 -19.23054,19.23055 -10.62074,0 -19.23055,-8.60981 -19.23055,-19.23055 0,-10.62073 8.60981,-19.23054 19.23055,-19.23054 10.62073,0 19.23054,8.60981 19.23054,19.23054 z"
       transform="matrix(2.03489,0,0,2.03489,-298.456,-241.892)" /><g
       id="g3838"><path
         style="fill:#ffffff;stroke:#000000;stroke-width:0.689556px;stroke-linecap:butt;stroke-linejoin:miter;stroke-opacity:1"
         d="m 396.75342,343.52544 c 0.081,4.84302 -5.76715,10.28577 -11.09654,9.56291 -4.9388,-7.44473 -5.94818,-19.14758 -5.94818,-19.14758 0,0 11.72006,3.61064 17.04472,9.58467 z"
         id="path3834"
         inkscape:connector-curvature="0"
         sodipodi:nodetypes="cccc" /><path
         sodipodi:nodetypes="cccc"
         inkscape:connector-curvature="0"
         id="path3836"
         d="m 349.70121,306.49956 c -0.081,-4.84302 5.76715,-10.28577 11.09654,-9.56291 4.9388,7.44473 5.94818,19.14758 5.94818,19.14758 0,0 -11.72006,-3.61064 -17.04472,-9.58467 z"
         style="fill:#ffffff;stroke:#000000;stroke-width:0.689556px;stroke-linecap:butt;stroke-linejoin:miter;stroke-opacity:1" /></g><g
       transform="matrix(0,1,-1,0,698.24,-48.2148)"
       id="g3842"><path
         sodipodi:nodetypes="cccc"
         inkscape:connector-curvature="0"
         id="path3844"
         d="m 396.75342,343.52544 c 0.081,4.84302 -5.76715,10.28577 -11.09654,9.56291 -4.9388,-7.44473 -5.94818,-19.14758 -5.94818,-19.14758 0,0 11.72006,3.61064 17.04472,9.58467 z"
         style="fill:#ffffff;stroke:#000000;stroke-width:0.689556px;stroke-linecap:butt;stroke-linejoin:miter;stroke-opacity:1" /><path
         style="fill:#ffffff;stroke:#000000;stroke-width:0.689556px;stroke-linecap:butt;stroke-linejoin:miter;stroke-opacity:1"
         d="m 349.70121,306.49956 c -0.081,-4.84302 5.76715,-10.28577 11.09654,-9.56291 4.9388,7.44473 5.94818,19.14758 5.94818,19.14758 0,0 -11.72006,-3.61064 -17.04472,-9.58467 z"
         id="path3846"
         inkscape:connector-curvature="0"
         sodipodi:nodetypes="cccc" /></g><path
       sodipodi:nodetypes="ccsc"
       inkscape:connector-curvature="0"
       id="path3848"
       d="m 353.39214,299.32979 11.65029,8.64946 c 0,0 -3.35388,-10.94422 -4.41299,-10.94422 -1.05912,0 -3.53039,-0.8826 -7.2373,2.29476 z"
       style="fill:#800000;fill-opacity:1;stroke:none" /><path
       style="fill:#800000;fill-opacity:1;stroke:none"
       d="m 398.52486,305.45169 -13.01518,12.51591 c 0,0 0.1877,-0.18299 -2.77732,0.17196 0.38196,-3.32969 5.58338,-13.29347 9.26128,-16.5713 2.04646,0.79186 4.04741,0.86746 6.53122,3.88343 z"
       id="path3850"
       inkscape:connector-curvature="0"
       sodipodi:nodetypes="ccccc" /><path
       transform="matrix(1,0,0,0.821429,-0.353039,56.4652)"
       d="m 378.45791,325.10165 c 0,2.7297 -1.97576,4.94255 -4.41299,4.94255 -2.43722,0 -4.41299,-2.21285 -4.41299,-4.94255 0,-2.72969 1.97577,-4.94254 4.41299,-4.94254 2.43723,0 4.41299,2.21285 4.41299,4.94254 z"
       sodipodi:ry="4.9425473"
       sodipodi:rx="4.4129887"
       sodipodi:cy="325.10165"
       sodipodi:cx="374.04492"
       id="path3852"
       style="fill:#000000;fill-opacity:1;stroke:none"
       sodipodi:type="arc" /></g></svg>