/* XPM */
static char * brightwood_xpm[] = {
"50 50 735 2",
"  	c None",
". 	c #E38044",
"+ 	c #DB7F48",
"@ 	c #D97848",
"# 	c #D17448",
"$ 	c #C67146",
"% 	c #CB7146",
"& 	c #CD6B44",
"* 	c #C97148",
"= 	c #C87448",
"- 	c #C06B44",
"; 	c #C46B44",
"> 	c #C47148",
", 	c #C26B46",
"' 	c #C66B46",
") 	c #C86E46",
"! 	c #CD7848",
"~ 	c #C26E46",
"{ 	c #C06B4B",
"] 	c #C2714D",
"^ 	c #BD714B",
"/ 	c #BB6E4B",
"( 	c #B7684D",
"_ 	c #C46B48",
": 	c #CB6B44",
"< 	c #D67444",
"[ 	c #D97B44",
"} 	c #D27844",
"| 	c #D67B46",
"1 	c #D77B44",
"2 	c #D97444",
"3 	c #D97442",
"4 	c #D67844",
"5 	c #DB7B48",
"6 	c #D27144",
"7 	c #C96E4B",
"8 	c #B06548",
"9 	c #A25F48",
"0 	c #A55F48",
"a 	c #A56248",
"b 	c #B46548",
"c 	c #BB6848",
"d 	c #C6744D",
"e 	c #CF7848",
"f 	c #CF7B48",
"g 	c #CD7148",
"h 	c #D68048",
"i 	c #C9744D",
"j 	c #C6714D",
"k 	c #D2714B",
"l 	c #D67448",
"m 	c #D2744D",
"n 	c #CF744F",
"o 	c #CB7148",
"p 	c #CF7146",
"q 	c #CF7446",
"r 	c #CD7146",
"s 	c #CB7B48",
"t 	c #C97146",
"u 	c #C96E46",
"v 	c #C26544",
"w 	c #C26244",
"x 	c #C87148",
"y 	c #CF784F",
"z 	c #DA7846",
"A 	c #D27848",
"B 	c #CB744D",
"C 	c #D17B4B",
"D 	c #C27148",
"E 	c #BD6E48",
"F 	c #BD6B48",
"G 	c #B96B48",
"H 	c #B96848",
"I 	c #C26B48",
"J 	c #C67148",
"K 	c #D47848",
"L 	c #DE7844",
"M 	c #E48444",
"N 	c #D98048",
"O 	c #D28048",
"P 	c #CD7B48",
"Q 	c #D77F48",
"R 	c #D27444",
"S 	c #D97844",
"T 	c #DB7444",
"U 	c #D17146",
"V 	c #CF7148",
"W 	c #C9714B",
"X 	c #BD6B4B",
"Y 	c #C67448",
"Z 	c #B26B4B",
"` 	c #B4684B",
" .	c #B4654B",
"..	c #BB6E4D",
"+.	c #B2654B",
"@.	c #B9714D",
"#.	c #C0714D",
"$.	c #C2714B",
"%.	c #CD744D",
"&.	c #C8744B",
"*.	c #C9744B",
"=.	c #C66E48",
"-.	c #CF6E44",
";.	c #CF7448",
">.	c #C97448",
",.	c #DB8046",
"'.	c #D77F46",
").	c #DD8748",
"!.	c #DD8044",
"~.	c #D77B46",
"{.	c #D2804B",
"].	c #CB7448",
"^.	c #D97F48",
"/.	c #DD7B48",
"(.	c #E17B44",
"_.	c #E37F44",
":.	c #DF7F46",
"<.	c #D97846",
"[.	c #E28044",
"}.	c #D77B48",
"|.	c #D17446",
"1.	c #D9804D",
"2.	c #D67B48",
"3.	c #D47448",
"4.	c #CB7446",
"5.	c #CB7144",
"6.	c #D27448",
"7.	c #D26B44",
"8.	c #D27146",
"9.	c #CF744D",
"0.	c #C06E46",
"a.	c #BD6B46",
"b.	c #B97148",
"c.	c #C06B48",
"d.	c #D6804B",
"e.	c #CF7B4B",
"f.	c #D27F48",
"g.	c #CF804B",
"h.	c #C97144",
"i.	c #CB7B4B",
"j.	c #CB7848",
"k.	c #C06B46",
"l.	c #D27846",
"m.	c #D77444",
"n.	c #DA7B44",
"o.	c #D47B46",
"p.	c #D47B48",
"q.	c #D67848",
"r.	c #D27B46",
"s.	c #C66E44",
"t.	c #C86B44",
"u.	c #BD6846",
"v.	c #CB6E44",
"w.	c #B76848",
"x.	c #C66548",
"y.	c #CB744B",
"z.	c #DB874B",
"A.	c #C9784D",
"B.	c #CB784B",
"C.	c #C66B44",
"D.	c #C67144",
"E.	c #C46544",
"F.	c #D97B46",
"G.	c #CF7444",
"H.	c #D78046",
"I.	c #DD8446",
"J.	c #E28744",
"K.	c #E38744",
"L.	c #E88744",
"M.	c #E98E44",
"N.	c #EA9144",
"O.	c #E78742",
"P.	c #E48742",
"Q.	c #E48442",
"R.	c #DF7B42",
"S.	c #E4843F",
"T.	c #E68442",
"U.	c #E17F44",
"V.	c #EA873F",
"W.	c #E9873F",
"X.	c #E48042",
"Y.	c #DD7B44",
"Z.	c #D67F48",
"`.	c #D77448",
" +	c #CD6E46",
".+	c #C2784D",
"++	c #D17148",
"@+	c #DE8746",
"#+	c #DE7F44",
"$+	c #DE8044",
"%+	c #DA8448",
"&+	c #DF8746",
"*+	c #E28444",
"=+	c #E38442",
"-+	c #E98742",
";+	c #D47B4B",
">+	c #CB7444",
",+	c #C97446",
"'+	c #D17848",
")+	c #D47444",
"!+	c #E98B42",
"~+	c #ED9744",
"{+	c #EE943F",
"]+	c #ED8E3F",
"^+	c #EA843F",
"/+	c #E8803F",
"(+	c #DD7B42",
"_+	c #DB7B44",
":+	c #E28B48",
"<+	c #DA7B46",
"[+	c #D97F46",
"}+	c #CF744B",
"|+	c #D1744B",
"1+	c #DF8B48",
"2+	c #C46E46",
"3+	c #C46B46",
"4+	c #C46844",
"5+	c #C66844",
"6+	c #D16E44",
"7+	c #C86E44",
"8+	c #C9714D",
"9+	c #D27442",
"0+	c #D2744B",
"a+	c #C07448",
"b+	c #B46E4B",
"c+	c #B46546",
"d+	c #BB6B46",
"e+	c #D67F46",
"f+	c #E79446",
"g+	c #E88E44",
"h+	c #EF8E3F",
"i+	c #EB873F",
"j+	c #E27F42",
"k+	c #DD7442",
"l+	c #D67846",
"m+	c #D47B44",
"n+	c #C87146",
"o+	c #C06844",
"p+	c #C06846",
"q+	c #DD7B46",
"r+	c #DD7842",
"s+	c #DB7844",
"t+	c #D17444",
"u+	c #CF7144",
"v+	c #C96B44",
"w+	c #CD6E44",
"x+	c #D2784B",
"y+	c #D2784D",
"z+	c #CD7B4D",
"A+	c #DB7B46",
"B+	c #E48E48",
"C+	c #E68B44",
"D+	c #DF8046",
"E+	c #B46B48",
"F+	c #AD5F46",
"G+	c #B25F44",
"H+	c #BB6544",
"I+	c #BD7148",
"J+	c #C66E46",
"K+	c #DF7B44",
"L+	c #E27B42",
"M+	c #E68042",
"N+	c #EB8E42",
"O+	c #EB9144",
"P+	c #DF8446",
"Q+	c #ED8B3F",
"R+	c #E9803F",
"S+	c #E27F44",
"T+	c #E17B42",
"U+	c #E77F3F",
"V+	c #E77F42",
"W+	c #DE7444",
"X+	c #DD7444",
"Y+	c #DA7442",
"Z+	c #DA7444",
"`+	c #DA7144",
" @	c #D97144",
".@	c #D77144",
"+@	c #E28442",
"@@	c #E28742",
"#@	c #E78B44",
"$@	c #E68744",
"%@	c #E18446",
"&@	c #D9874B",
"*@	c #CB7F4B",
"=@	c #C4784D",
"-@	c #AD6B4B",
";@	c #A05D46",
">@	c #9D5D46",
",@	c #975A46",
"'@	c #9A5A46",
")@	c #B96B46",
"!@	c #E18444",
"~@	c #ED9142",
"{@	c #F1943F",
"]@	c #ED9442",
"^@	c #EE8B3F",
"/@	c #EA803F",
"(@	c #EB803F",
"_@	c #DF7F44",
":@	c #DF8044",
"<@	c #D67B4B",
"[@	c #D27B4B",
"}@	c #C06E48",
"|@	c #BD6E4D",
"1@	c #BD714D",
"2@	c #C4744D",
"3@	c #C97B4B",
"4@	c #CD7B4B",
"5@	c #D27B48",
"6@	c #CD7F4B",
"7@	c #D17B48",
"8@	c #C6784B",
"9@	c #AA684B",
"0@	c #A05A46",
"a@	c #A85F46",
"b@	c #F4A242",
"c@	c #F4A542",
"d@	c #F2973F",
"e@	c #F1913F",
"f@	c #EE8E3F",
"g@	c #DA8044",
"h@	c #D9804B",
"i@	c #E1914B",
"j@	c #DB8B4B",
"k@	c #DB8048",
"l@	c #C26546",
"m@	c #BD6544",
"n@	c #B26848",
"o@	c #A85D44",
"p@	c #A25A44",
"q@	c #9D5A46",
"r@	c #AD6248",
"s@	c #DF8744",
"t@	c #E39146",
"u@	c #E49448",
"v@	c #E18B46",
"w@	c #D78748",
"x@	c #DA8748",
"y@	c #DB8748",
"z@	c #DB7F44",
"A@	c #D27446",
"B@	c #D77848",
"C@	c #F4A544",
"D@	c #F2A042",
"E@	c #ED9D46",
"F@	c #EA9444",
"G@	c #E28746",
"H@	c #DA8048",
"I@	c #B9714B",
"J@	c #C0744B",
"K@	c #C47448",
"L@	c #BD7146",
"M@	c #E4803F",
"N@	c #CD7446",
"O@	c #EE9442",
"P@	c #F0943F",
"Q@	c #EB9746",
"R@	c #E18046",
"S@	c #E38446",
"T@	c #E78042",
"U@	c #E7843F",
"V@	c #E7803F",
"W@	c #E2783F",
"X@	c #DB7F46",
"Y@	c #D97448",
"Z@	c #DE8042",
"`@	c #E68E46",
" #	c #E48E46",
".#	c #E18744",
"+#	c #DB8044",
"@#	c #B46544",
"##	c #AA5F46",
"$#	c #A86248",
"%#	c #B26548",
"&#	c #E18746",
"*#	c #E49748",
"=#	c #EE9D46",
"-#	c #D67B44",
";#	c #BB6844",
">#	c #AD5D44",
",#	c #A05F48",
"'#	c #A86548",
")#	c #B4714B",
"!#	c #C96E44",
"~#	c #C2744B",
"{#	c #BB6E48",
"]#	c #BB6B48",
"^#	c #BD744B",
"/#	c #BD744D",
"(#	c #B96E48",
"_#	c #C0714B",
":#	c #C47B4D",
"<#	c #C4744B",
"[#	c #AD6848",
"}#	c #B06B4B",
"|#	c #B26E4B",
"1#	c #D1804B",
"2#	c #E68746",
"3#	c #E28042",
"4#	c #DF7442",
"5#	c #DD7F44",
"6#	c #E37F42",
"7#	c #E48744",
"8#	c #E78744",
"9#	c #E7873F",
"0#	c #ED873F",
"a#	c #E88B44",
"b#	c #E18044",
"c#	c #DE8448",
"d#	c #E48044",
"e#	c #DF7842",
"f#	c #EC873F",
"g#	c #EF943F",
"h#	c #EE9742",
"i#	c #EC9442",
"j#	c #DB874D",
"k#	c #DA8B4D",
"l#	c #D17F4B",
"m#	c #CD7448",
"n#	c #DD8B48",
"o#	c #DE8B48",
"p#	c #D27B4D",
"q#	c #C26E48",
"r#	c #B46848",
"s#	c #C67B4D",
"t#	c #C97F4D",
"u#	c #CB7B4D",
"v#	c #D17B46",
"w#	c #D98748",
"x#	c #DA7F44",
"y#	c #D67442",
"z#	c #DB8448",
"A#	c #DE8748",
"B#	c #E38E48",
"C#	c #E49148",
"D#	c #DA8046",
"E#	c #D7874B",
"F#	c #DD8448",
"G#	c #BB714D",
"H#	c #B06B48",
"I#	c #B06848",
"J#	c #9D5F48",
"K#	c #945A48",
"L#	c #AD5F44",
"M#	c #B26B48",
"N#	c #C8784B",
"O#	c #C97B4F",
"P#	c #CD7B4F",
"Q#	c #D27F4B",
"R#	c #D47846",
"S#	c #CF784D",
"T#	c #D98046",
"U#	c #DB7F42",
"V#	c #DF8E46",
"W#	c #E18E46",
"X#	c #D18048",
"Y#	c #CF8048",
"Z#	c #B76E4B",
"`#	c #CF7B46",
" $	c #B26546",
".$	c #AD6246",
"+$	c #AA6246",
"@$	c #B06244",
"#$	c #B46846",
"$$	c #D17F48",
"%$	c #D17846",
"&$	c #D78448",
"*$	c #C87848",
"=$	c #C07148",
"-$	c #D68448",
";$	c #E28B44",
">$	c #DD8046",
",$	c #D77844",
"'$	c #D9844B",
")$	c #D47F4B",
"!$	c #CF804D",
"~$	c #D4804B",
"{$	c #D47F48",
"]$	c #E18748",
"^$	c #DE8444",
"/$	c #DD8444",
"($	c #D6844B",
"_$	c #DA7F46",
":$	c #DD8746",
"<$	c #DF8748",
"[$	c #E99142",
"}$	c #E78B42",
"|$	c #DB8446",
"1$	c #E28E48",
"2$	c #E28B46",
"3$	c #E79146",
"4$	c #E89446",
"5$	c #E38746",
"6$	c #DF8B46",
"7$	c #EA9446",
"8$	c #E99446",
"9$	c #E99748",
"0$	c #E79448",
"a$	c #E99444",
"b$	c #EB9744",
"c$	c #EC9746",
"d$	c #EB9444",
"e$	c #D97B48",
"f$	c #D48048",
"g$	c #CF7F4B",
"h$	c #C97848",
"i$	c #D4804D",
"j$	c #D2804D",
"k$	c #CD7846",
"l$	c #C27448",
"m$	c #DD8B4B",
"n$	c #DF8E48",
"o$	c #E29148",
"p$	c #D97F44",
"q$	c #D67446",
"r$	c #DE7B48",
"s$	c #DE8046",
"t$	c #E89146",
"u$	c #EC9744",
"v$	c #D78048",
"w$	c #E69148",
"x$	c #E99448",
"y$	c #E48B46",
"z$	c #E28448",
"A$	c #DD7F48",
"B$	c #DF8048",
"C$	c #E78444",
"D$	c #F1973F",
"E$	c #F29A3F",
"F$	c #F3A03F",
"G$	c #F0A044",
"H$	c #E38742",
"I$	c #E68742",
"J$	c #E48746",
"K$	c #E69146",
"L$	c #F09D44",
"M$	c #E89748",
"N$	c #E79748",
"O$	c #EA9746",
"P$	c #E99148",
"Q$	c #EF9744",
"R$	c #F09742",
"S$	c #F19D42",
"T$	c #F19A42",
"U$	c #F39D3F",
"V$	c #F3A242",
"W$	c #F3A042",
"X$	c #F09A42",
"Y$	c #ED9A46",
"Z$	c #DE8E48",
"`$	c #E38E46",
" %	c #ED943F",
".%	c #E39448",
"+%	c #E69748",
"@%	c #DA804D",
"#%	c #EC9444",
"$%	c #F2A244",
"%%	c #ED9A44",
"&%	c #EF9742",
"*%	c #ED9444",
"=%	c #EF9A42",
"-%	c #E39148",
";%	c #DA874B",
">%	c #D9844D",
",%	c #DD8E4B",
"'%	c #E38B46",
")%	c #DF8E4B",
"!%	c #E89448",
"~%	c #E78E44",
"{%	c #E88E42",
"]%	c #EA8E42",
"^%	c #ED8E42",
"/%	c #EF9A44",
"(%	c #EE9A44",
"_%	c #E49446",
":%	c #E99746",
"<%	c #EC9A46",
"[%	c #EA9748",
"}%	c #DF8444",
"|%	c #EB8E44",
"1%	c #EF9D44",
"2%	c #F29D3F",
"3%	c #DE7F48",
"4%	c #DA7F48",
"5%	c #DE8048",
"6%	c #E38748",
"7%	c #DA8446",
"8%	c #E78E46",
"9%	c #EA8B42",
"0%	c #EE913F",
"a%	c #E88042",
"b%	c #D67148",
"c%	c #D7844B",
"d%	c #D6874D",
"e%	c #E18E48",
"f%	c #DB804B",
"g%	c #DA804B",
"h%	c #CD6E48",
"i%	c #C8714B",
"j%	c #CF784B",
"k%	c #EA9448",
"l%	c #EB9448",
"m%	c #E89144",
"n%	c #DD8E4D",
"o%	c #D9874D",
"p%	c #E48B44",
"q%	c #D98448",
"r%	c #E28446",
"s%	c #D6874B",
"t%	c #D4874B",
"u%	c #E28E46",
"v%	c #E18B44",
"w%	c #E28E44",
"x%	c #E38B44",
"y%	c #D47B4D",
"z%	c #D1784B",
"A%	c #CF7B4D",
"B%	c #C2744D",
"C%	c #D17844",
"D%	c #B76B46",
"E%	c #B06546",
"F%	c #AA5F44",
"G%	c #DD8048",
"H%	c #CF7F48",
"I%	c #CD7F48",
"J%	c #C97B4D",
"K%	c #B76B48",
"L%	c #AD6548",
"M%	c #9A5D48",
"N%	c #AA6548",
"O%	c #C47146",
"P%	c #C06E44",
"Q%	c #D67842",
"R%	c #D6743F",
"S%	c #D97842",
"T%	c #D67144",
"U%	c #D2844B",
"V%	c #E37B42",
"W%	c #E8843F",
"X%	c #E38444",
"Y%	c #E47F42",
"Z%	c #E88742",
"`%	c #D47142",
" &	c #E88E46",
".&	c #C6744B",
"+&	c #BD784D",
"@&	c #B96E4B",
"#&	c #B9744B",
"$&	c #B26246",
"%&	c #B25F46",
"&&	c #BD6844",
"*&	c #D26E42",
"=&	c #E68E44",
"-&	c #DF7B46",
";&	c #DF8448",
">&	c #E48448",
",&	c #E48446",
"'&	c #EF913F",
")&	c #D67F4B",
"!&	c #C4714B",
"~&	c #C27B4D",
"{&	c #F29D42",
"]&	c #C26B4B",
"^&	c #B96246",
"/&	c #B46246",
"(&	c #9D5A44",
"_&	c #A85A44",
":&	c #B76546",
"<&	c #B76246",
"[&	c #DB8E4D",
"}&	c #DB8444",
"|&	c #B06248",
"1&	c #A25F46",
"2&	c #A25D46",
"3&	c #CD7F4D",
"4&	c #C6784D",
"5&	c #DD7F46",
"6&	c #ED913F",
"7&	c #DA7844",
"8&	c #DB7144",
"9&	c #E17842",
"0&	c #DE7B42",
"a&	c #DE7B44",
"b&	c #D9743F",
"c&	c #D1784D",
"d&	c #D26E44",
"e&	c #D47446",
"f&	c #CF714B",
"g&	c #C96E48",
"h&	c #DA7842",
"i&	c #E78442",
"j&	c #EC8E3F",
"k&	c #B76544",
"l&	c #BB714B",
"m&	c #BB744B",
"n&	c #CD7144",
"o&	c #C66E4B",
"p&	c #C46E48",
"q&	c #CD714D",
"r&	c #CB714B",
"s&	c #CD7444",
"t&	c #DE8744",
"u&	c #C4714D",
"v&	c #E37B3F",
"w&	c #E47F3F",
"x&	c #E88B42",
"y&	c #C9784B",
"z&	c #C8744D",
"A&	c #C86E48",
"B&	c #B96846",
"C&	c #CB6E46",
"D&	c #CF7846",
"E&	c #D77B4B",
"F&	c #C6714B",
"G&	c #CB6E4B",
"H&	c #D7804D",
"I&	c #DE7F46",
"J&	c #C86E4B",
"K&	c #CF6B44",
"L&	c #B96548",
"M&	c #D77442",
"N&	c #E27B44",
"O&	c #D17144",
"P&	c #C26E4B",
"Q&	c #D2744F",
"R&	c #CB7B4F",
"S&	c #B96546",
"T&	c #C06544",
"U&	c #D1744F",
"V&	c #D4744B",
"W&	c #C46E4D",
"X&	c #C66B48",
"Y&	c #D47144",
"Z&	c #C66544",
". + @ # $ % & * = - ; > , ' ) ! ~ { ] ^ / ( _ : < [ } | 1 2 3 3 3 4 5 6 7 8 9 0 a b c d e f ! g h h ",
"i j j j k l m n o p q r s s t u v w v v x i y m z A x B C > D E F G H I B J r % t r K + L M N O P ) ",
"Q R S T U V W X F Y > Z 8 `  ... . . . .+.Z @.#.$.%.&.*.=.-.q ;.p J >.R < ,.'.r % ;.e Q ).!.~.N {.].",
"D >.^./.(._.:.<.5 . [.}.|.1.2.3.;.4.4.5.r 6.-.7.8.9.x B 9.~ 0.0.a.b.c.B 7 o # ! * * ~.d.e.f.g.! h.;.",
"i.j.> k.r l.m.[ 4 S n.n.o.p.2.p.q.4 | r.5.s.x t.r u.) 5.v.a.a.J ) F w.J x.J x y.e h z.A.X ] $ B.].d.",
"t C.s.D.; E.-.F.r.t G.H.I.J.K.L.M.N.O.P.Q.R.S.P.T.U.V.V.W.X.R.Y.N | |.;.g Z.| | ^.F.`.y.g  +.+>.h.++",
"@+#+$+%+I.&+*+=+O.X.-+X.n.;+;+;+q >+4.,+,+|.r '+t Y f P = )+#+!+~+{+]+^+/+M (+_+:+<+o %.Q [+}+|+^.1+",
"2+3+, F 4+5+-.6+v.7+8+E a.k.H D = 9+K 0+;.S S 6 % o.| q t a+b+c+d+e+f+g+h+i+-+O.j+k+T l+R m+n+o+p+u.",
"q+2 r+s+t+u+u+5.v+w+< 3.t+R A x+q < y+z+z+|.1 3 A+Y.B+C+D+n.2.>.E+F+G+H+I+J+6 [ K+L+M+^+N+O+P+_+q+q+",
"Q+^+-+R+j+L+S+Y.T+U+V+W+X+Y+<++ Z+`+ @.@m.~.F.<+<+_++@@@*+#@$@%@).&@*@=@-@;@>@,@'@)@!@~@{@{@]@]+]+^@",
"-+/@/@/@Q+Q+(@U+_@:@+ <@[@q t $ }@|@1@2@3@x * B.4@5@q ;.f.6@4@7@5@R 7@8@9@,@0@a@F 4 ]+b@c@b@d@{@e@f@",
"g@h@i@j@&@+ k@2.=.I l@m@G n@F+o@p@q@q@r@w.a.u+l+).s@t@u@v@w@x@y@N z@D+4 A@Z.B@_@(@{@b@c@C@D@E@F@G@H@",
"I@J@=@W - c.K@L@$ F.*+M@Y.2 < N@e 6.6.^.).%@M.O@P@Q@R@q+S@T@U@V@W@_+X@6 Y@m.Z@G@`@ #.#+#q 3+@###$#%#",
"&#*#M.^@d@{@e@e@]@=#$@-#C.;#@#o@p@>#>#>#F+,#'#)#I@!#~#{#H ]#{#^#/#(#~#_#:#.+8@<#G [#%#}#|#%#5.1#l+2.",
"2#*+3#$@ #D+[ R < `+T B@Y.4#Y.<+5#L+6#7#&#G@G@8#9#V.0#a#T@[.b#%@c#[.8#X.j+. d#. . S+4#e#^+f#g#h#~@i#",
"j#k#l#m#7.}.n#o#^.5@p#[ r.q#]#r#(#]#D ^ (#~#s#t#u#v#r.f.w#k@,.,.~.4 x#5#y#z#Z.&@A#A#A#c#B#C#7#_+D#@+",
"t $ n+* P {.E#F#g@o G#H#I#[#J#K#9 L#M#E+r#n@(#^#N#O#P#Q#R#S#5@O 7@4 _+,.2 T#U#+#V#W#z@f.X#Y#P j.s 4.",
"Z#G j.h `#G.l+F.Z.>.J {# $ $.$a@+$@$c+#$)@2+s $$O s f %$|.N@4.q q.h &$&$h q v.v#v#5@P s s s *$=$=$X ",
"-$!.;$!@>$_+,$%+'$[@f |+[@{.)$p#!$~$~${$N Q#5@^.k@p.p.o.l.[ _+A+D+J.*+*+*+>$&$&@&@n#H@]$z#N ^$'.h -$",
"/$l+R#&@{.g.f i o 5@2.<.| k@&+,.~.F.^.o.5@&@w#k@!.[ '.($7@2.2.Q _$D#^./$:$n#).).).).k@%@M M <$<$<$D+",
"[$}$|$N e 5@| p.5@1 :@X.1$7#P.[.,.:@&+y@y@2$K.3$4$g+U@5$Y.2.^.z#y@y@).6$O.7$8$4$9$0$f+f+a$F@Q@b$c$d$",
", G E G _#A e$2.Y >.f$F#<$X@7@g$h$>.j.i$j$P r.f.m#Y#k$= l$j.8@Y ].g$($m$A#]$A#y@m$H@n$o$X@p$&@| d.}+",
"u+q$r$S+s$7#d$O.#@t$u$u$ #v$! ! 5@x@).1$C#]$w$x$]$7#7#*+y$z$A$5 B$C$~@D$E$F$b@c@c@D$G$~+g+H$J.+#R % ",
"f+:@#@I$G@J$K$!@K.O+L$=#d$M$N$N$M$9$9$9$O$9$9$9$9$9$N$N$N$x$P$x$Q@Q$R$S$T$U$U$U$V$W$b@U$F$b@X$X$~+Y$",
"d@P@h#]@]@d$a#g+2$Z$1$G@`$f+0$0$N. %8$B+.%+%n$u@0$7#F@J$5$1$@%z.C#F@#%#%#%$%c@O$+%N$E@%%&%&%&%R$U$U$",
"E@E@*%~+u$E@E@E@E@.%=%c@$%%%%%F@t$-%;%>%,%G@&#'%D+!@A#<$g+N$+%+%0$u@+%0$f+2$o#,%)%`@!%~%{%]%]@h#]@T$",
"^%&%U$U$b@U$U$F$C@C@c@c@V$/%/%R$(%c$x$P$!%_%N$9$:%N$N$N$N$<%<%[%9$M$N$!%M$F@E@L$D$!+!.J.*+}%9#9#).C#",
"J 5@k@).-+|%1%L$2%U$W$U$E$h#h#~@8#3%4%N 5%B$/.6%3%'%8$4$`@u@C#).7%f * f w#B+8%d$#%9%9%0%a%_@. /.b%l ",
"0+~${$c%l#d%e%2$f%<$]$]$B+A#).g%2.h%>.>.o >.j.&.7@i%6@i.i.l#P ! ].m#}+j%N B#&+{$s *$B.v$i.I+(#/ E > ",
"F@c$d$u$k%k%l%7$x$9$9$N$m%y$)%).m$n%o%d.Z.Y.J$Q.-+8%p%y$5$y@q%&+*+,.[.Q.r%b#5#q%O q p.r.7@4.Z.z#I$[$",
"D#&+&+&+G@5$r%;%).F#F#n#J.).^.e$H@D+s$s$A+f ~$[ >$k@x@w#s%5@l.e$F.B@>$_@2.o.@ @ B@q ].4@g.g$h R#q$+#",
"t%&$x#J.u%u%v%w%n#&@'$h ).x%*+*+s@F#z#H@[+K 2.p.2.,.k@5@f N {$d.y%z%x+;+Q#A%e.# [@h +#n.5#.#z@2$s@!.",
"J@B%l$s >.s P f.l.v#v#C%q f.&$&$h ~$5@4.4.6.k$5@5@|.f.].J ]#D%G E%F%a@F+c+ $E J f h G%r.`#`#h f I+E ",
"J+H%P I%X#O h $+s@V#z@[ '.[ ,.S < p.[ | R#A@e P#J%$ E F K%E+M#Z L%>@K#M%N%M#n@@.>.k@g%c%{.>.v+O%P%; ",
"I.,.Y.!@;$&+>$s$F#A#>$H.^.Q%n.[ [ R%S%n._$&@f.r.r.g$i.8@q#I@I@J@I+(#r#F > 5@[ A%A%v$<$+ <+T%A 1#U%z.",
"]@~@&%g#f#^+V%V%. . M+W%#@X%. p%. . Y%[.:@T@Z%0#0#U@O.8#X%G@J.6#L+Y.`%r+e##+B@T `+6 r.[+P+8% &j+3#x$",
"G%B@| v.%#|#}#n@b+Z#^#.&J@+&b+/#(#/#/#I@@&c.E J >.#&)#'#0 $&%&>#L#F+>#@#&&, *&$@=#/%e@e@d@P@0#M.d$5$",
"##0 %#F+&&%$!.!@=&~%1$_@k@3.G.5 q+-&d#M.8#;&>&,&F@D$'&M.y$A#;%)&{.u#r < 2 K+r%J.[+% > Y C.- !&B%~&I+",
").2$F@E@{&b@c@F$h+(@U.K+T#l.2 #+Y.N w@E#-$:$N$u%!..#v$J ]&^&/&;@q@(&_&_&##n@%#:&<&u.R#k@5#&@[&[&T#}&",
"e@e@{@d@U$c@b@]+< u.|&1&2&L%_#e |.{$Z.1#4@;.R u+7@3&3@4&4&s#d ] ^ I+J n+q e |.4%5&U.U+(@Q+]+/@/@/@f#",
"^@f@]+6&{@{@g#*+; 2&,@,@9 %#B%P p.&#J$#@#@&#C+&#N k@<+7&7&< )+m.2 `+n.7&8&X+9&X.6#T+Y.(.6#J./@]+^+-+",
"_+s$0&[.W.V.R+d#_@a&<.b&5.E ]#%&%#Z#.&j$k@Z$o$B#y@A@4 _+T '+S#p#l.q c&6.d&7.d&e&f&g&5.-.u+R h&x#6 [+",
"&&D &&h.9+9+< Z+s+j+i&-+j&Q+]+i&(+C.k&l&m&~ q l.'+;.r e$_+n&].e e x o&I F ]#p&8+8+* u+5.5+4+a.Y $ 0.",
"!@>$6 T%p$v$q&r&< ,._+(+G@S+a%0#0%O@I$A#m#> j.j.J % 4.4.q 4.,+4.s&9+y#~.Z.n.X.O.O.Z%K.3#}%t&5#_@5#5#",
"-.h.u&].: * *.A g@| | '.h@[@l.)+S X+L v&w&W.i+V.b#Q.P.P.R.Q.P.x&#%8#X%K.$+p$h % $ 7@}.A@t.4+t N@7+-.",
"# *.*.N@9.=$y&z.N >.z&i A&p&$.G G I .&B&c.C&U 7 q#n+' Y Y t D&r.r.| }.2.p.,.K+A+E&<@_+n.<@].w._ >.O ",
"4.5.f s%l#f.{$# > J ;.# t F&~#E ]#a.k.k.~ >.r&G&].C&C&g ;.t $ $ n+4.A@2.H&R e$-&r$e$}.I&6#Y.5 }.>.= ",
"t Q#v$q$^$z#h@j%! % q '.'.-#p J&x U -.K&& x x =.&.d ] ] L&b %#%# . .` ` ` 8 K%q#I E ^ W 4@>.M&S p.Q ",
"$ = O [+j+N&_@l+O&% % N@o W P&G F q#> D $.%.9.9.Q&B.y R&u&=$S&:&w.T&].s s ! p ;.q ;.U&V&m n W&j j i ",
"N Z.A A [@A B ]&]#a J#'#b X&A 5 Y.Z+X@n.n.A++ ,$p$<+Y&) ]#X&Z&Z&Z&Z&s x ' E G x $ n+V -.e B '+}./.. "};
