<?xml version="1.0" encoding="UTF-8" standalone="no"?>
<!-- Creator: CorelDRAW -->

<svg
   xmlns:dc="http://purl.org/dc/elements/1.1/"
   xmlns:cc="http://creativecommons.org/ns#"
   xmlns:rdf="http://www.w3.org/1999/02/22-rdf-syntax-ns#"
   xmlns:svg="http://www.w3.org/2000/svg"
   xmlns="http://www.w3.org/2000/svg"
   xmlns:sodipodi="http://sodipodi.sourceforge.net/DTD/sodipodi-0.dtd"
   xmlns:inkscape="http://www.inkscape.org/namespaces/inkscape"
   xml:space="preserve"
   width="98.796272"
   height="99.487717"
   style="fill-rule:evenodd"
   viewBox="0 0 27.882503 28.077644"
   id="svg2"
   version="1.1"
   inkscape:version="0.48.3.1 r9886"
   sodipodi:docname="lang.svg"><sodipodi:namedview
   pagecolor="#ffffff"
   bordercolor="#666666"
   borderopacity="1"
   objecttolerance="10"
   gridtolerance="10"
   guidetolerance="10"
   inkscape:pageopacity="0"
   inkscape:pageshadow="2"
   inkscape:window-width="1366"
   inkscape:window-height="744"
   id="namedview18"
   showgrid="false"
   fit-margin-top="0"
   fit-margin-left="0"
   fit-margin-right="0"
   fit-margin-bottom="0"
   inkscape:zoom="6.0007408"
   inkscape:cx="47.154152"
   inkscape:cy="49.743858"
   inkscape:window-x="0"
   inkscape:window-y="24"
   inkscape:window-maximized="1"
   inkscape:current-layer="_171993512" />
 <defs
   id="defs4">
  <style
   type="text/css"
   id="style6">
   
    .str0 {stroke:#373435;stroke-width:0.7056}
    .fil1 {fill:#00A859}
    .fil4 {fill:#00AFEF}
    .fil2 {fill:#373435}
    .fil3 {fill:#ED3237}
    .fil0 {fill:#FFF212}
   
  </style>
 </defs>
 <g
   id="Camada_x0020_1"
   transform="translate(0.15683097,0.15670824)">
  <metadata
   id="CorelCorpID_0Corel-Layer" />
  <g
   id="_171993512"
   transform="matrix(0.27544937,0,0,0.27544937,-0.00113169,-0.00104263)">
   <path
   id="_171992312"
   class="fil0 str0"
   d="M 35.4044,15.825887 54.1032,1.3929873 c 1.7968,-1.38690002 3.8547,-0.59180002 5.0802,1.3185 L 71.2977,21.593687 c 1.2256,1.9103 0.5893,3.3419 -1.2782,4.6316 l -9.0074,6.2204 c -0.696,0.4807 -0.5609,0.714 -0.4685,1.5506 0.4734,4.2821 -0.2215,7.3135 -1.3704,10.1897 -0.6827,-3.8118 -2.3073,-5.7399 -4.6181,-6.2956 -0.8675,-0.2086 -1.1202,-0.2119 -1.8226,0.2732 l -2.371,1.6375 c -1.8676,1.2897 -3.6839,-0.2033 -4.9379,-2.0951 L 33.922,20.355287 c -1.254,-1.8918 -0.3144,-3.1426 1.4824,-4.5294 z"
   inkscape:connector-curvature="0"
   style="fill:#fff212;stroke:#000000;stroke-width:2.34528279;stroke-miterlimit:4;stroke-opacity:1;stroke-dasharray:none" />
   <path
   id="_171992576"
   class="fil1 str0"
   d="m 7.1787873,55.3792 -5.89,-17.6579 c -0.80300001,-2.4073 -1.31240001,-6.6641 2.0126,-7.8429 L 24.651787,22.309 c 2.1818,-0.7735 3.3459,0.3379 3.9344,2.4897 l 2.787,10.1904 c 0.2409,0.8807 0.1542,0.8706 1.0581,1.0007 4.2056,0.605 7.0215,1.3338 9.353,3.2285 -4.0694,-0.3996 -6.6934,0.4622 -7.9662,2.7602 -0.4439,0.8019 -0.187,1.1662 0.0315,1.9903 l 0.6382,2.4077 c 0.5719,2.1573 -1.3401,3.0999 -3.5032,3.9342 l -20.0361,7.7276 C 8.7852873,58.8726 7.8825873,57.4891 7.1787873,55.3792 z"
   inkscape:connector-curvature="0"
   style="fill:#00a859;stroke:#000000;stroke-width:2.34528279;stroke-miterlimit:4;stroke-opacity:1;stroke-dasharray:none" />
   <path
   id="_171992168"
   class="fil2 str0"
   d="M 34.0049,89.465 13.6763,91.6551 C 11.4339,91.8967 10.0387,89.8128 9.8894,87.5329 L 8.6051,67.9061 c -0.1492,-2.2799 1.671,-4.4009 3.914,-4.521 l 10.3846,-0.5558 c 0.8691,-0.0465 1.0523,0.1463 1.4646,-0.6661 2.0145,-3.9715 3.4695,-5.5221 6.0926,-7.4254 -1.6778,3.7205 -1.6472,5.4739 -0.0841,6.9835 0.5568,0.5376 0.7214,0.6389 1.487,0.6039 l 3.1491,-0.1441 c 2.2426,-0.1026 2.2783,3.1672 2.3344,5.4583 l 0.4581,18.7036 c 0.0561,2.2912 -1.5581,2.8804 -3.8005,3.122 z"
   inkscape:connector-curvature="0"
   style="fill:#b979af;fill-opacity:1;stroke:#000000;stroke-width:2.34528275;stroke-miterlimit:4;stroke-dasharray:none;stroke-opacity:1" />
   <path
   id="_171993416"
   class="fil3 str0"
   d="m 79.6073,78.036913 -8.6031,19.5468 c -0.9412,2.1384 -3.3097,2.993897 -5.4002,2.2802 l -20.2893,-6.9271 c -2.0905,-0.7137 -3.2646,-2.9832 -2.392,-5.148 l 4.2436,-10.527 c 0.2656,-0.6592 0.2601,-0.5918 -0.1685,-1.1038 -2.7424,-3.2762 -3.7059,-6.2544 -4.2859,-9.3464 2.5981,2.2077 5.9742,6.5296 8.0367,1.5167 l 0.9255,-2.2495 c 0.8883,-2.1588 3.9127,-1.2574 5.9777,-0.4784 l 20.7841,7.8407 c 2.0651,0.7791 2.1125,2.4573 1.1714,4.5958 z"
   inkscape:connector-curvature="0"
   style="fill:#ed3237;stroke:#000000;stroke-width:2.34528279;stroke-miterlimit:4;stroke-opacity:1;stroke-dasharray:none" />
   <path
   id="_171993440"
   class="fil4 str0"
   d="m 80.4043,27.6052 17.7174,12.7833 c 1.8916,1.3648 2.112,4.0808 0.7489,5.8139 L 84.3712,64.6371 c -1.3631,1.7331 -3.692,2.2617 -5.6008,0.9241 l -8.7105,-6.1039 c -0.8615,-0.6037 -0.801,-0.486 -1.7075,-0.0759 -3.6973,1.673 -6.6009,2.2312 -9.6324,1.9699 2.8234,-1.9111 7.8737,-4.6573 3.5975,-7.9883 -1.4213,-1.1071 -2.9112,-1.1143 -2.0432,-3.4174 0.3785,-1.0043 1.0713,-2.0357 1.6658,-2.8831 L 75.6627,27.5014 c 1.2684,-1.8079 2.8501,-1.261 4.7416,0.1038 z"
   inkscape:connector-curvature="0"
   style="fill:#00afef;stroke:#000000;stroke-width:2.34528275;stroke-miterlimit:4;stroke-dasharray:none;stroke-opacity:1" />
  </g>
 </g>
<metadata
   id="metadata16"><rdf:RDF><cc:Work><dc:format>image/svg+xml</dc:format><dc:type
         rdf:resource="http://purl.org/dc/dcmitype/StillImage" /><cc:license
         rdf:resource="http://creativecommons.org/licenses/publicdomain/" /><dc:publisher><cc:Agent
           rdf:about="http://openclipart.org/"><dc:title>Open Clip Art Library</dc:title></cc:Agent></dc:publisher><dc:title>Universala Esperanto Asocio</dc:title><dc:date>2010-10-25T19:46:25</dc:date><dc:description>Logomarko de Universala Esperanto Asocio</dc:description><dc:source>http://openclipart.org/detail/92701/universala-esperanto-asocio-by-esperanton</dc:source><dc:creator><cc:Agent><dc:title>esperanton</dc:title></cc:Agent></dc:creator><dc:subject><rdf:Bag><rdf:li>Artoj</rdf:li><rdf:li>Asocioj</rdf:li><rdf:li>Esperanto</rdf:li><rdf:li>Institucio</rdf:li><rdf:li>Language</rdf:li><rdf:li>Languages</rdf:li><rdf:li>Lingvoj</rdf:li><rdf:li>Media</rdf:li><rdf:li>clip art</rdf:li><rdf:li>clipart</rdf:li></rdf:Bag></dc:subject></cc:Work><cc:License
       rdf:about="http://creativecommons.org/licenses/publicdomain/"><cc:permits
         rdf:resource="http://creativecommons.org/ns#Reproduction" /><cc:permits
         rdf:resource="http://creativecommons.org/ns#Distribution" /><cc:permits
         rdf:resource="http://creativecommons.org/ns#DerivativeWorks" /></cc:License></rdf:RDF></metadata></svg>