<?xml version="1.0" encoding="UTF-8" standalone="no"?>
<!-- Created with Inkscape (http://www.inkscape.org/) -->
 <!DOCTYPE svg PUBLIC "-//W3C//DTD SVG 1.1//EN" "http://www.w3.org/Graphics/SVG/1.1/DTD/svg11.dtd" [
     <!ENTITY ns_svg "http://www.w3.org/2000/svg">
     <!ENTITY ns_xlink " http://www.w3.org/1999/xlink">
     <!ENTITY stroke_color "#000000">
     <!ENTITY fill_color "#AAAAAA">
 ]>
<svg
   xmlns:dc="http://purl.org/dc/elements/1.1/"
   xmlns:cc="http://web.resource.org/cc/"
   xmlns:rdf="http://www.w3.org/1999/02/22-rdf-syntax-ns#"
   xmlns:svg="http://www.w3.org/2000/svg"
   xmlns="http://www.w3.org/2000/svg"
   xmlns:sodipodi="http://sodipodi.sourceforge.net/DTD/sodipodi-0.dtd"
   xmlns:inkscape="http://www.inkscape.org/namespaces/inkscape"
   width="44"
   height="59"
   id="svg2"
   sodipodi:version="0.32"
   inkscape:version="0.45"
   sodipodi:docbase="/home/bruno/Projets/gcompris/gcomprixo/src"
   sodipodi:docname="activity-gcompris.svg"
   inkscape:output_extension="org.inkscape.output.svg.inkscape"
   version="1.0"
   sodipodi:modified="true">
  <defs
     id="defs4">
    <linearGradient
       id="linearGradient3452">
      <stop
         style="stop-color:#000000;stop-opacity:1;"
         offset="0"
         id="stop3454" />
      <stop
         style="stop-color:#AAAAAA;stop-opacity:0;"
         offset="1"
         id="stop3456" />
    </linearGradient>
  </defs>
  <sodipodi:namedview
     id="base"
     pagecolor="#ffffff"
     bordercolor="#666666"
     borderopacity="1.0"
     inkscape:pageopacity="0.0"
     inkscape:pageshadow="2"
     inkscape:zoom="5.5254237"
     inkscape:cx="22"
     inkscape:cy="46.470846"
     inkscape:document-units="px"
     inkscape:current-layer="layer2"
     inkscape:window-width="1270"
     inkscape:window-height="856"
     inkscape:window-x="0"
     inkscape:window-y="25"
     width="44px"
     height="59px" />
  <metadata
     id="metadata7">
    <rdf:RDF>
      <cc:Work
         rdf:about="">
        <dc:format>image/svg+xml</dc:format>
        <dc:type
           rdf:resource="http://purl.org/dc/dcmitype/StillImage" />
        <dc:title>icône Gcompris</dc:title>
        <dc:date>24 maris 2007</dc:date>
        <dc:creator>
          <cc:Agent>
            <dc:title>Elisa de Castro Guerra</dc:title>
          </cc:Agent>
        </dc:creator>
        <cc:license
           rdf:resource="http://creativecommons.org/licenses/GPL/2.0/" />
      </cc:Work>
      <cc:License
         rdf:about="http://creativecommons.org/licenses/GPL/2.0/">
        <cc:permits
           rdf:resource="http://web.resource.org/cc/Reproduction" />
        <cc:permits
           rdf:resource="http://web.resource.org/cc/Distribution" />
        <cc:requires
           rdf:resource="http://web.resource.org/cc/Notice" />
        <cc:permits
           rdf:resource="http://web.resource.org/cc/DerivativeWorks" />
        <cc:requires
           rdf:resource="http://web.resource.org/cc/ShareAlike" />
        <cc:requires
           rdf:resource="http://web.resource.org/cc/SourceCode" />
      </cc:License>
    </rdf:RDF>
  </metadata>
  <g
     inkscape:label="Calque 1"
     inkscape:groupmode="layer"
     id="layer1"
     style="display:inline"
     transform="translate(455.79673,-1568.6856)" />
  <g
     inkscape:groupmode="layer"
     id="layer3"
     style="display:inline" />
  <g
     inkscape:groupmode="layer"
     id="layer2"
     style="display:inline"
     transform="translate(455.79673,-1568.6856)">
    <path
       style="fill:&fill_color;;fill-opacity:1;stroke:none;stroke-width:5;stroke-miterlimit:4;stroke-dasharray:none;stroke-opacity:1"
       d="M -441.69974,1591.1477 C -442.01959,1588.0659 -439.41425,1586.421 -437.8749,1586.2701 C -434.04836,1585.8952 -428.17173,1592.784 -428.89944,1594.5523 C -430.04984,1597.3476 -434.21475,1599.9898 -435.71883,1600.1062 C -437.2998,1600.2287 -441.90391,1594.0609 -441.69974,1591.1477 z "
       id="path3552"
       sodipodi:nodetypes="csssc" />
    <path
       id="path3564"
       d="M -424.07823,1595.4606 L -425.05688,1608.8982 L -423.09959,1605.4556 L -422.74372,1596.1269 L -424.07823,1595.4606 z "
       style="fill:&fill_color;;fill-opacity:1;fill-rule:evenodd;stroke:none;stroke-width:2.0999999;stroke-linecap:butt;stroke-linejoin:miter;stroke-miterlimit:4;stroke-dasharray:none;stroke-opacity:1" />
    <path
       sodipodi:nodetypes="csssc"
       id="path3566"
       d="M -431.08808,1589.4219 C -431.08808,1591.2647 -431.89323,1591.0116 -433.5572,1592.4937 C -433.82933,1592.736 -438.30202,1591.0053 -437.35467,1590.0895 C -436.43281,1589.1983 -435.51835,1587.9345 -433.9539,1586.8461 C -432.09308,1585.5515 -431.08808,1587.5788 -431.08808,1589.4219 z "
       style="fill:&fill_color;;fill-opacity:1;stroke:none;stroke-width:4.15880203;stroke-miterlimit:4;stroke-opacity:1" />
    <path
       sodipodi:nodetypes="csssc"
       id="path3532"
       d="M -441.67611,1591.3971 C -441.99272,1588.3738 -439.41373,1586.7598 -437.88995,1586.6121 C -434.10208,1586.244 -428.28488,1593.0025 -429.00523,1594.7373 C -430.144,1597.4798 -434.26679,1600.0718 -435.75566,1600.1861 C -437.32065,1600.3064 -441.87822,1594.2555 -441.67611,1591.3971 z "
       style="fill:&fill_color;;fill-opacity:1;stroke:&stroke_color;;stroke-width:3.78871727;stroke-miterlimit:4;stroke-dasharray:none;stroke-opacity:1" />
    <path
       style="fill:&fill_color;;fill-opacity:1;stroke:&stroke_color;;stroke-width:3.78871727;stroke-miterlimit:4;stroke-dasharray:none;stroke-opacity:1"
       d="M -445.23504,1604.6456 C -445.22223,1605.4119 -433.13195,1590.1897 -431.23958,1590.8829 C -426.02869,1592.7922 -419.25751,1598.6513 -420.17334,1603.1632 C -421.32041,1608.8144 -431.52248,1613.0312 -433.12449,1613.1233 C -436.12105,1613.2956 -450.62979,1615.484 -451.60381,1614.5254 C -453.7796,1612.3838 -455.79299,1603.1282 -450.7738,1597.5589 C -449.3323,1595.9594 -447.14942,1601.7496 -445.23504,1604.6456 z "
       id="path3243"
       sodipodi:nodetypes="csssssc" />
    <path
       style="fill:&fill_color;;fill-opacity:1;stroke:&stroke_color;;stroke-width:3.78871727;stroke-miterlimit:4;stroke-dasharray:none;stroke-opacity:1"
       d="M -419.97114,1606.4484 C -419.44273,1609.4263 -421.89823,1611.3118 -423.40579,1611.6235 C -427.15332,1612.3986 -433.4245,1606.2931 -432.8291,1604.4871 C -431.88786,1601.6323 -427.96333,1598.6056 -426.48818,1598.3312 C -424.93762,1598.0429 -419.97114,1603.5795 -419.97114,1606.4484 z "
       id="path3238"
       sodipodi:nodetypes="csssc" />
    <path
       sodipodi:nodetypes="csssc"
       id="path3241"
       d="M -438.75786,1615.9171 C -438.71761,1618.3237 -440.50076,1618.9917 -441.70698,1618.9471 C -444.70543,1618.8366 -447.48484,1614.1171 -446.79993,1612.8313 C -445.7172,1610.7988 -443.44755,1608.4364 -442.27106,1608.5034 C -441.03441,1608.5743 -438.40236,1613.6952 -438.75786,1615.9171 z "
       style="fill:&fill_color;;fill-opacity:1;stroke:&stroke_color;;stroke-width:3.78871727;stroke-miterlimit:4;stroke-dasharray:none;stroke-opacity:1" />
    <path
       style="fill:&fill_color;;fill-opacity:1;fill-rule:evenodd;stroke:&stroke_color;;stroke-width:2.16498137;stroke-linecap:butt;stroke-linejoin:miter;stroke-miterlimit:4;stroke-dasharray:none;stroke-opacity:1"
       d="M -424.23276,1595.6284 L -425.20152,1608.812 L -423.26401,1605.4344 L -422.91173,1596.2823 L -424.23276,1595.6284 z "
       id="path3236" />
    <path
       style="fill:#241c1c;fill-opacity:1;stroke:&stroke_color;;stroke-width:0.40328619;stroke-miterlimit:4;stroke-opacity:1"
       d="M -429.05811,1594.28 C -429.05811,1596.0881 -429.85513,1595.8398 -431.50227,1597.2937 C -431.77166,1597.5316 -436.19912,1595.8335 -435.26135,1594.9351 C -434.34881,1594.0607 -433.4436,1592.8208 -431.89495,1591.753 C -430.05295,1590.4828 -429.05811,1592.4718 -429.05811,1594.28 z "
       id="path3245"
       sodipodi:nodetypes="csssc" />
    <path
       style="fill:&fill_color;;fill-opacity:1;fill-rule:evenodd;stroke:&stroke_color;;stroke-width:3.78871727;stroke-linecap:butt;stroke-linejoin:miter;stroke-miterlimit:4;stroke-dasharray:none;stroke-opacity:1"
       d="M -434.42952,1577.3341 C -436.32302,1577.2927 -439.44395,1579.5148 -439.04477,1581.5676 C -438.56055,1584.0576 -436.24222,1587.9276 -433.2253,1591.7298 C -433.22485,1591.7304 -433.22302,1591.7293 -433.22258,1591.7298 C -432.76711,1591.4698 -432.2432,1591.3221 -431.6887,1591.3221 C -429.9143,1591.3221 -428.47654,1592.8349 -428.47654,1594.6993 C -428.47654,1595.3743 -428.66379,1596.0019 -428.98875,1596.5296 C -424.80548,1600.7894 -420.30994,1604.0088 -417.59773,1603.5237 C -415.72463,1603.1887 -413.50366,1601.3469 -413.15138,1599.1115 C -413.4156,1593.1716 -426.23121,1578.9973 -434.06717,1577.3745 C -434.18108,1577.3509 -434.30328,1577.3368 -434.42952,1577.3341 z "
       id="path2221" />
  </g>
</svg>
