<?xml version="1.0" encoding="UTF-8" standalone="no"?>
<!-- Generator: Adobe Illustrator 10.0, SVG Export Plug-In . SVG Version: 3.0.0 Build 77)  -->
<svg
   xmlns:i="http://ns.adobe.com/AdobeIllustrator/10.0/"
   xmlns:dc="http://purl.org/dc/elements/1.1/"
   xmlns:cc="http://web.resource.org/cc/"
   xmlns:rdf="http://www.w3.org/1999/02/22-rdf-syntax-ns#"
   xmlns:svg="http://www.w3.org/2000/svg"
   xmlns="http://www.w3.org/2000/svg"
   xmlns:sodipodi="http://inkscape.sourceforge.net/DTD/sodipodi-0.dtd"
   xmlns:inkscape="http://www.inkscape.org/namespaces/inkscape"
   enable-background="new 0 0 536.543 303.57"
   height="303.57"
   i:pageBounds="0 792 612 0"
   i:rulerOrigin="0 0"
   i:viewOrigin="37 547"
   overflow="visible"
   space="preserve"
   viewBox="0 0 536.543 303.57"
   width="536.543"
   id="svg2"
   sodipodi:version="0.32"
   inkscape:version="0.42"
   sodipodi:docname="variable_resistor.svg"
   sodipodi:docbase="/home/bruno/Projets/gcompris/gcompris/boards/electric">
  <defs
     id="defs118" />
  <sodipodi:namedview
     inkscape:window-height="516"
     inkscape:window-width="808"
     inkscape:pageshadow="2"
     inkscape:pageopacity="0.0"
     borderopacity="1.0"
     bordercolor="#666666"
     pagecolor="#ffffff"
     id="base"
     inkscape:zoom="3.3635147"
     inkscape:cx="18.161135"
     inkscape:cy="175.32402"
     inkscape:window-x="17"
     inkscape:window-y="71"
     inkscape:current-layer="svg2" />
  <metadata
     id="metadata4">
    <rdf:RDF>
      <cc:Work
         rdf:about="">
        <dc:title>Resistors</dc:title>
        <dc:description>Resistors</dc:description>
        <dc:subject>
          <rdf:Bag>
            <rdf:li>science</rdf:li>
            <rdf:li>resistor</rdf:li>
            <rdf:li>electronic</rdf:li>
          </rdf:Bag>
        </dc:subject>
        <dc:publisher>
          <cc:Agent
             rdf:about="http://www.openclipart.org/">
            <dc:title>Open Clip Art Project</dc:title>
          </cc:Agent>
        </dc:publisher>
        <dc:creator>
          <cc:Agent
             rdf:about="http://web.resource.org/cc/PublicDomain">
            <dc:title>Gerald G.</dc:title>
          </cc:Agent>
        </dc:creator>
        <dc:rights>
          <cc:Agent
             rdf:about="http://web.resource.org/cc/PublicDomain">
            <dc:title>Public Domain</dc:title>
          </cc:Agent>
        </dc:rights>
        <dc:date>2005/05/31</dc:date>
        <dc:format>image/svg+xml</dc:format>
        <dc:type
           rdf:resource="http://purl.org/dc/dcmitype/StillImage" />
        <cc:license
           rdf:resource="http://web.resource.org/cc/PublicDomain" />
        <dc:language>en</dc:language>
      </cc:Work>
      <cc:License
         rdf:about="http://web.resource.org/cc/PublicDomain">
        <cc:permits
           rdf:resource="http://web.resource.org/cc/Reproduction" />
        <cc:permits
           rdf:resource="http://web.resource.org/cc/Distribution" />
        <cc:permits
           rdf:resource="http://web.resource.org/cc/DerivativeWorks" />
      </cc:License>
    </rdf:RDF>
  </metadata>
  <path
     clip-rule="evenodd"
     d="M 32.214730,99.820925 L 32.214730,226.24333 L 34.914730,225.45940 L 34.914730,99.023923 L 32.214730,99.820925 z "
     i:knockout="Off"
     id="path9"
     style="fill:#808080;fill-rule:evenodd"
     inkscape:export-filename="/home/bruno/Projets/gcompris/gcompris/boards/electric/resistor_track.png"
     inkscape:export-xdpi="119.25220"
     inkscape:export-ydpi="119.25220" />
  <path
     clip-rule="evenodd"
     d="M 52.734730,116.77070 C 52.734730,116.77070 43.914730,115.97870 34.554730,115.97870 C 25.194730,115.97870 15.294730,116.77070 15.294730,116.77070 L 15.294730,206.73470 C 15.294730,206.73470 24.906730,208.71470 34.266730,208.71470 C 43.626730,208.71470 52.734730,206.73470 52.734730,206.73470 L 52.734730,116.77070 L 52.734730,116.77070 z "
     i:knockout="Off"
     stroke-miterlimit="10"
     id="path11"
     style="fill:#6d2203;fill-rule:evenodd;stroke:#000000;stroke-width:0.035999998;stroke-miterlimit:10.000000"
     inkscape:export-filename="/home/bruno/Projets/gcompris/gcompris/boards/electric/resistor_track.png"
     inkscape:export-xdpi="119.25220"
     inkscape:export-ydpi="119.25220" />
  <path
     clip-rule="evenodd"
     d="M 46.290730,116.37470 L 46.290730,207.81470 L 41.718730,208.39070 L 41.718730,116.19470 L 46.290730,116.37470 z "
     i:knockout="Off"
     id="path13"
     style="fill:#8d5c25;fill-rule:evenodd"
     inkscape:export-filename="/home/bruno/Projets/gcompris/gcompris/boards/electric/resistor_track.png"
     inkscape:export-xdpi="119.25220"
     inkscape:export-ydpi="119.25220" />
  <path
     clip-rule="evenodd"
     d="M 40.530730,116.05070 L 40.530730,208.39070 L 37.578730,208.60670 L 37.578730,116.01470 L 40.530730,116.05070 z "
     i:knockout="Off"
     id="path15"
     style="fill:#b0722e;fill-rule:evenodd"
     inkscape:export-filename="/home/bruno/Projets/gcompris/gcompris/boards/electric/resistor_track.png"
     inkscape:export-xdpi="119.25220"
     inkscape:export-ydpi="119.25220" />
  <path
     clip-rule="evenodd"
     d="M 52.503142,154.70369 C 46.999012,154.93529 41.245185,155.21223 34.957861,155.61195 C 28.668705,155.98174 22.132599,156.44176 15.062080,157.00960 L 15.197632,159.22499 C 22.269067,158.67212 28.805173,158.21210 35.093413,157.82734 C 41.381653,157.44259 47.132733,157.12074 52.637778,156.90411 L 52.503142,154.70369 L 52.503142,154.70369 z "
     i:knockout="Off"
     id="path23"
     style="fill:#f0a04a;fill-rule:evenodd"
     inkscape:export-filename="/home/bruno/Projets/gcompris/gcompris/boards/electric/resistor_track.png"
     inkscape:export-xdpi="119.25220"
     inkscape:export-ydpi="119.25220" />
  <path
     clip-rule="evenodd"
     d="M 52.503142,157.77462 C 46.999012,158.00622 41.245185,158.28316 34.957861,158.68288 C 28.668705,159.05267 22.132599,159.51269 15.062080,160.08053 L 15.197632,162.29592 C 22.269067,161.74305 28.805173,161.28303 35.093413,160.89827 C 41.381653,160.51352 47.132733,160.19167 52.637778,159.97504 L 52.503142,157.77462 L 52.503142,157.77462 z "
     i:knockout="Off"
     id="path1564"
     style="fill:#f0a04a;fill-rule:evenodd"
     inkscape:export-filename="/home/bruno/Projets/gcompris/gcompris/boards/electric/resistor_track.png"
     inkscape:export-xdpi="119.25220"
     inkscape:export-ydpi="119.25220" />
  <path
     clip-rule="evenodd"
     d="M 52.503142,160.84554 C 46.999012,161.07714 41.245185,161.35408 34.957861,161.75380 C 28.668705,162.12359 22.132599,162.58361 15.062080,163.15145 L 15.197632,165.36684 C 22.269067,164.81397 28.805173,164.35395 35.093413,163.96919 C 41.381653,163.58444 47.132733,163.26259 52.637778,163.04596 L 52.503142,160.84554 L 52.503142,160.84554 z "
     i:knockout="Off"
     id="path1566"
     style="fill:#f0a04a;fill-rule:evenodd"
     inkscape:export-filename="/home/bruno/Projets/gcompris/gcompris/boards/electric/resistor_track.png"
     inkscape:export-xdpi="119.25220"
     inkscape:export-ydpi="119.25220" />
  <path
     clip-rule="evenodd"
     d="M 52.503142,163.91646 C 46.999012,164.14806 41.245185,164.42500 34.957861,164.82472 C 28.668705,165.19451 22.132599,165.65453 15.062080,166.22237 L 15.197632,168.43776 C 22.269067,167.88489 28.805173,167.42487 35.093413,167.04011 C 41.381653,166.65536 47.132733,166.33351 52.637778,166.11688 L 52.503142,163.91646 L 52.503142,163.91646 z "
     i:knockout="Off"
     id="path1568"
     style="fill:#f0a04a;fill-rule:evenodd"
     inkscape:export-filename="/home/bruno/Projets/gcompris/gcompris/boards/electric/resistor_track.png"
     inkscape:export-xdpi="119.25220"
     inkscape:export-ydpi="119.25220" />
  <path
     clip-rule="evenodd"
     d="M 52.503142,142.42001 C 46.999012,142.65161 41.245185,142.92855 34.957861,143.32827 C 28.668705,143.69806 22.132599,144.15808 15.062080,144.72592 L 15.197632,146.94131 C 22.269067,146.38844 28.805173,145.92842 35.093413,145.54366 C 41.381653,145.15891 47.132733,144.83706 52.637778,144.62043 L 52.503142,142.42001 L 52.503142,142.42001 z "
     i:knockout="Off"
     id="path1570"
     style="fill:#f0a04a;fill-rule:evenodd"
     inkscape:export-filename="/home/bruno/Projets/gcompris/gcompris/boards/electric/resistor_track.png"
     inkscape:export-xdpi="119.25220"
     inkscape:export-ydpi="119.25220" />
  <path
     clip-rule="evenodd"
     d="M 52.503142,145.49094 C 46.999012,145.72254 41.245185,145.99948 34.957861,146.39920 C 28.668705,146.76899 22.132599,147.22901 15.062080,147.79685 L 15.197632,150.01224 C 22.269067,149.45937 28.805173,148.99935 35.093413,148.61459 C 41.381653,148.22984 47.132733,147.90799 52.637778,147.69136 L 52.503142,145.49094 L 52.503142,145.49094 z "
     i:knockout="Off"
     id="path1572"
     style="fill:#f0a04a;fill-rule:evenodd"
     inkscape:export-filename="/home/bruno/Projets/gcompris/gcompris/boards/electric/resistor_track.png"
     inkscape:export-xdpi="119.25220"
     inkscape:export-ydpi="119.25220" />
  <path
     clip-rule="evenodd"
     d="M 52.503142,148.56185 C 46.999012,148.79345 41.245185,149.07039 34.957861,149.47011 C 28.668705,149.83990 22.132599,150.29992 15.062080,150.86776 L 15.197632,153.08315 C 22.269067,152.53028 28.805173,152.07026 35.093413,151.68550 C 41.381653,151.30075 47.132733,150.97890 52.637778,150.76227 L 52.503142,148.56185 L 52.503142,148.56185 z "
     i:knockout="Off"
     id="path1574"
     style="fill:#f0a04a;fill-rule:evenodd"
     inkscape:export-filename="/home/bruno/Projets/gcompris/gcompris/boards/electric/resistor_track.png"
     inkscape:export-xdpi="119.25220"
     inkscape:export-ydpi="119.25220" />
  <path
     clip-rule="evenodd"
     d="M 52.503142,151.63278 C 46.999012,151.86438 41.245185,152.14132 34.957861,152.54104 C 28.668705,152.91083 22.132599,153.37085 15.062080,153.93869 L 15.197632,156.15408 C 22.269067,155.60121 28.805173,155.14119 35.093413,154.75643 C 41.381653,154.37168 47.132733,154.04983 52.637778,153.83320 L 52.503142,151.63278 L 52.503142,151.63278 z "
     i:knockout="Off"
     id="path1576"
     style="fill:#f0a04a;fill-rule:evenodd"
     inkscape:export-filename="/home/bruno/Projets/gcompris/gcompris/boards/electric/resistor_track.png"
     inkscape:export-xdpi="119.25220"
     inkscape:export-ydpi="119.25220" />
  <path
     clip-rule="evenodd"
     d="M 52.503142,130.13632 C 46.999012,130.36792 41.245185,130.64486 34.957861,131.04458 C 28.668705,131.41437 22.132599,131.87439 15.062080,132.44223 L 15.197632,134.65762 C 22.269067,134.10475 28.805173,133.64473 35.093413,133.25997 C 41.381653,132.87522 47.132733,132.55337 52.637778,132.33674 L 52.503142,130.13632 L 52.503142,130.13632 z "
     i:knockout="Off"
     id="path1578"
     style="fill:#f0a04a;fill-rule:evenodd"
     inkscape:export-filename="/home/bruno/Projets/gcompris/gcompris/boards/electric/resistor_track.png"
     inkscape:export-xdpi="119.25220"
     inkscape:export-ydpi="119.25220" />
  <path
     clip-rule="evenodd"
     d="M 52.503142,133.20725 C 46.999012,133.43885 41.245185,133.71579 34.957861,134.11551 C 28.668705,134.48530 22.132599,134.94532 15.062080,135.51316 L 15.197632,137.72855 C 22.269067,137.17568 28.805173,136.71566 35.093413,136.33090 C 41.381653,135.94615 47.132733,135.62430 52.637778,135.40767 L 52.503142,133.20725 L 52.503142,133.20725 z "
     i:knockout="Off"
     id="path1580"
     style="fill:#f0a04a;fill-rule:evenodd"
     inkscape:export-filename="/home/bruno/Projets/gcompris/gcompris/boards/electric/resistor_track.png"
     inkscape:export-xdpi="119.25220"
     inkscape:export-ydpi="119.25220" />
  <path
     clip-rule="evenodd"
     d="M 52.503142,136.27817 C 46.999012,136.50977 41.245185,136.78671 34.957861,137.18643 C 28.668705,137.55622 22.132599,138.01624 15.062080,138.58408 L 15.197632,140.79947 C 22.269067,140.24660 28.805173,139.78658 35.093413,139.40182 C 41.381653,139.01707 47.132733,138.69522 52.637778,138.47859 L 52.503142,136.27817 L 52.503142,136.27817 z "
     i:knockout="Off"
     id="path1582"
     style="fill:#f0a04a;fill-rule:evenodd"
     inkscape:export-filename="/home/bruno/Projets/gcompris/gcompris/boards/electric/resistor_track.png"
     inkscape:export-xdpi="119.25220"
     inkscape:export-ydpi="119.25220" />
  <path
     clip-rule="evenodd"
     d="M 52.503142,139.34909 C 46.999012,139.58069 41.245185,139.85763 34.957861,140.25735 C 28.668705,140.62714 22.132599,141.08716 15.062080,141.65500 L 15.197632,143.87039 C 22.269067,143.31752 28.805173,142.85750 35.093413,142.47274 C 41.381653,142.08799 47.132733,141.76614 52.637778,141.54951 L 52.503142,139.34909 L 52.503142,139.34909 z "
     i:knockout="Off"
     id="path1584"
     style="fill:#f0a04a;fill-rule:evenodd"
     inkscape:export-filename="/home/bruno/Projets/gcompris/gcompris/boards/electric/resistor_track.png"
     inkscape:export-xdpi="119.25220"
     inkscape:export-ydpi="119.25220" />
  <path
     clip-rule="evenodd"
     d="M 52.503142,117.85264 C 46.999012,118.08424 41.245185,118.36118 34.957861,118.76090 C 28.668705,119.13069 22.132599,119.59071 15.062080,120.15855 L 15.197632,122.37394 C 22.269067,121.82107 28.805173,121.36105 35.093413,120.97629 C 41.381653,120.59154 47.132733,120.26969 52.637778,120.05306 L 52.503142,117.85264 L 52.503142,117.85264 z "
     i:knockout="Off"
     id="path1586"
     style="fill:#f0a04a;fill-rule:evenodd"
     inkscape:export-filename="/home/bruno/Projets/gcompris/gcompris/boards/electric/resistor_track.png"
     inkscape:export-xdpi="119.25220"
     inkscape:export-ydpi="119.25220" />
  <path
     clip-rule="evenodd"
     d="M 52.503142,120.92356 C 46.999012,121.15516 41.245185,121.43210 34.957861,121.83182 C 28.668705,122.20161 22.132599,122.66163 15.062080,123.22947 L 15.197632,125.44486 C 22.269067,124.89199 28.805173,124.43197 35.093413,124.04721 C 41.381653,123.66246 47.132733,123.34061 52.637778,123.12398 L 52.503142,120.92356 L 52.503142,120.92356 z "
     i:knockout="Off"
     id="path1588"
     style="fill:#f0a04a;fill-rule:evenodd"
     inkscape:export-filename="/home/bruno/Projets/gcompris/gcompris/boards/electric/resistor_track.png"
     inkscape:export-xdpi="119.25220"
     inkscape:export-ydpi="119.25220" />
  <path
     clip-rule="evenodd"
     d="M 52.503142,123.99448 C 46.999012,124.22608 41.245185,124.50302 34.957861,124.90274 C 28.668705,125.27253 22.132599,125.73255 15.062080,126.30039 L 15.197632,128.51578 C 22.269067,127.96291 28.805173,127.50289 35.093413,127.11813 C 41.381653,126.73338 47.132733,126.41153 52.637778,126.19490 L 52.503142,123.99448 L 52.503142,123.99448 z "
     i:knockout="Off"
     id="path1590"
     style="fill:#f0a04a;fill-rule:evenodd"
     inkscape:export-filename="/home/bruno/Projets/gcompris/gcompris/boards/electric/resistor_track.png"
     inkscape:export-xdpi="119.25220"
     inkscape:export-ydpi="119.25220" />
  <path
     clip-rule="evenodd"
     d="M 52.503142,127.06541 C 46.999012,127.29701 41.245185,127.57395 34.957861,127.97367 C 28.668705,128.34346 22.132599,128.80348 15.062080,129.37132 L 15.197632,131.58671 C 22.269067,131.03384 28.805173,130.57382 35.093413,130.18906 C 41.381653,129.80431 47.132733,129.48246 52.637778,129.26583 L 52.503142,127.06541 L 52.503142,127.06541 z "
     i:knockout="Off"
     id="path1592"
     style="fill:#f0a04a;fill-rule:evenodd"
     inkscape:export-filename="/home/bruno/Projets/gcompris/gcompris/boards/electric/resistor_track.png"
     inkscape:export-xdpi="119.25220"
     inkscape:export-ydpi="119.25220" />
  <path
     clip-rule="evenodd"
     d="M 52.503142,191.55476 C 46.999012,191.78636 41.245185,192.06330 34.957861,192.46302 C 28.668705,192.83281 22.132599,193.29283 15.062081,193.86067 L 15.197633,196.07606 C 22.269067,195.52319 28.805173,195.06317 35.093413,194.67841 C 41.381653,194.29366 47.132733,193.97181 52.637778,193.75518 L 52.503142,191.55476 L 52.503142,191.55476 z "
     i:knockout="Off"
     id="path1602"
     style="fill:#f0a04a;fill-rule:evenodd"
     inkscape:export-filename="/home/bruno/Projets/gcompris/gcompris/boards/electric/resistor_track.png"
     inkscape:export-xdpi="119.25220"
     inkscape:export-ydpi="119.25220" />
  <path
     clip-rule="evenodd"
     d="M 52.503141,194.62568 C 46.999012,194.85728 41.245185,195.13422 34.957861,195.53394 C 28.668705,195.90373 22.132599,196.36375 15.062081,196.93159 L 15.197632,199.14698 C 22.269067,198.59411 28.805173,198.13409 35.093412,197.74933 C 41.381653,197.36458 47.132733,197.04273 52.637777,196.82610 L 52.503141,194.62568 L 52.503141,194.62568 z "
     i:knockout="Off"
     id="path1604"
     style="fill:#f0a04a;fill-rule:evenodd"
     inkscape:export-filename="/home/bruno/Projets/gcompris/gcompris/boards/electric/resistor_track.png"
     inkscape:export-xdpi="119.25220"
     inkscape:export-ydpi="119.25220" />
  <path
     clip-rule="evenodd"
     d="M 52.503142,197.69660 C 46.999012,197.92820 41.245185,198.20514 34.957861,198.60486 C 28.668705,198.97465 22.132599,199.43467 15.062081,200.00251 L 15.197633,202.21790 C 22.269067,201.66503 28.805173,201.20501 35.093413,200.82025 C 41.381653,200.43550 47.132733,200.11365 52.637778,199.89702 L 52.503142,197.69660 L 52.503142,197.69660 z "
     i:knockout="Off"
     id="path1606"
     style="fill:#f0a04a;fill-rule:evenodd"
     inkscape:export-filename="/home/bruno/Projets/gcompris/gcompris/boards/electric/resistor_track.png"
     inkscape:export-xdpi="119.25220"
     inkscape:export-ydpi="119.25220" />
  <path
     clip-rule="evenodd"
     d="M 52.503142,200.76752 C 46.999012,200.99912 41.245185,201.27606 34.957861,201.67578 C 28.668705,202.04557 22.132599,202.50559 15.062081,203.07343 L 15.197633,205.28882 C 22.269067,204.73595 28.805173,204.27593 35.093413,203.89117 C 41.381653,203.50642 47.132733,203.18457 52.637778,202.96794 L 52.503142,200.76752 L 52.503142,200.76752 z "
     i:knockout="Off"
     id="path1608"
     style="fill:#f0a04a;fill-rule:evenodd"
     inkscape:export-filename="/home/bruno/Projets/gcompris/gcompris/boards/electric/resistor_track.png"
     inkscape:export-xdpi="119.25220"
     inkscape:export-ydpi="119.25220" />
  <path
     clip-rule="evenodd"
     d="M 52.503142,179.27107 C 46.999012,179.50267 41.245185,179.77961 34.957861,180.17933 C 28.668705,180.54912 22.132599,181.00914 15.062081,181.57698 L 15.197633,183.79237 C 22.269067,183.23950 28.805173,182.77948 35.093413,182.39472 C 41.381653,182.00997 47.132733,181.68812 52.637778,181.47149 L 52.503142,179.27107 L 52.503142,179.27107 z "
     i:knockout="Off"
     id="path1610"
     style="fill:#f0a04a;fill-rule:evenodd"
     inkscape:export-filename="/home/bruno/Projets/gcompris/gcompris/boards/electric/resistor_track.png"
     inkscape:export-xdpi="119.25220"
     inkscape:export-ydpi="119.25220" />
  <path
     clip-rule="evenodd"
     d="M 52.503141,182.34199 C 46.999012,182.57359 41.245185,182.85053 34.957861,183.25025 C 28.668705,183.62004 22.132599,184.08006 15.062081,184.64790 L 15.197633,186.86329 C 22.269067,186.31042 28.805173,185.85040 35.093412,185.46564 C 41.381653,185.08089 47.132733,184.75904 52.637777,184.54241 L 52.503141,182.34199 L 52.503141,182.34199 z "
     i:knockout="Off"
     id="path1612"
     style="fill:#f0a04a;fill-rule:evenodd"
     inkscape:export-filename="/home/bruno/Projets/gcompris/gcompris/boards/electric/resistor_track.png"
     inkscape:export-xdpi="119.25220"
     inkscape:export-ydpi="119.25220" />
  <path
     clip-rule="evenodd"
     d="M 52.503142,185.41292 C 46.999012,185.64452 41.245185,185.92146 34.957861,186.32118 C 28.668705,186.69097 22.132599,187.15099 15.062081,187.71883 L 15.197633,189.93422 C 22.269067,189.38135 28.805173,188.92133 35.093413,188.53657 C 41.381653,188.15182 47.132733,187.82997 52.637778,187.61334 L 52.503142,185.41292 L 52.503142,185.41292 z "
     i:knockout="Off"
     id="path1614"
     style="fill:#f0a04a;fill-rule:evenodd"
     inkscape:export-filename="/home/bruno/Projets/gcompris/gcompris/boards/electric/resistor_track.png"
     inkscape:export-xdpi="119.25220"
     inkscape:export-ydpi="119.25220" />
  <path
     clip-rule="evenodd"
     d="M 52.503142,188.48383 C 46.999012,188.71543 41.245185,188.99237 34.957861,189.39209 C 28.668705,189.76188 22.132599,190.22190 15.062081,190.78974 L 15.197633,193.00513 C 22.269067,192.45226 28.805173,191.99224 35.093412,191.60748 C 41.381653,191.22273 47.132733,190.90088 52.637777,190.68425 L 52.503142,188.48383 L 52.503142,188.48383 z "
     i:knockout="Off"
     id="path1616"
     style="fill:#f0a04a;fill-rule:evenodd"
     inkscape:export-filename="/home/bruno/Projets/gcompris/gcompris/boards/electric/resistor_track.png"
     inkscape:export-xdpi="119.25220"
     inkscape:export-ydpi="119.25220" />
  <path
     clip-rule="evenodd"
     d="M 52.503142,166.98738 C 46.999012,167.21898 41.245185,167.49592 34.957861,167.89564 C 28.668705,168.26543 22.132599,168.72545 15.062081,169.29330 L 15.197633,171.50869 C 22.269067,170.95582 28.805173,170.49580 35.093413,170.11104 C 41.381653,169.72629 47.132733,169.40444 52.637778,169.18780 L 52.503142,166.98738 L 52.503142,166.98738 z "
     i:knockout="Off"
     id="path1618"
     style="fill:#f0a04a;fill-rule:evenodd"
     inkscape:export-filename="/home/bruno/Projets/gcompris/gcompris/boards/electric/resistor_track.png"
     inkscape:export-xdpi="119.25220"
     inkscape:export-ydpi="119.25220" />
  <path
     clip-rule="evenodd"
     d="M 52.503142,170.05831 C 46.999012,170.28991 41.245185,170.56685 34.957861,170.96657 C 28.668705,171.33636 22.132599,171.79638 15.062081,172.36422 L 15.197633,174.57961 C 22.269067,174.02674 28.805173,173.56672 35.093413,173.18196 C 41.381653,172.79721 47.132733,172.47536 52.637778,172.25873 L 52.503142,170.05831 L 52.503142,170.05831 z "
     i:knockout="Off"
     id="path1620"
     style="fill:#f0a04a;fill-rule:evenodd"
     inkscape:export-filename="/home/bruno/Projets/gcompris/gcompris/boards/electric/resistor_track.png"
     inkscape:export-xdpi="119.25220"
     inkscape:export-ydpi="119.25220" />
  <path
     clip-rule="evenodd"
     d="M 52.503142,173.12923 C 46.999012,173.36083 41.245185,173.63777 34.957861,174.03749 C 28.668705,174.40728 22.132599,174.86730 15.062081,175.43514 L 15.197633,177.65053 C 22.269067,177.09766 28.805173,176.63764 35.093413,176.25288 C 41.381653,175.86813 47.132733,175.54628 52.637778,175.32965 L 52.503142,173.12923 L 52.503142,173.12923 z "
     i:knockout="Off"
     id="path1622"
     style="fill:#f0a04a;fill-rule:evenodd"
     inkscape:export-filename="/home/bruno/Projets/gcompris/gcompris/boards/electric/resistor_track.png"
     inkscape:export-xdpi="119.25220"
     inkscape:export-ydpi="119.25220" />
  <path
     clip-rule="evenodd"
     d="M 52.503142,176.20015 C 46.999012,176.43175 41.245185,176.70869 34.957861,177.10841 C 28.668705,177.47820 22.132599,177.93822 15.062081,178.50606 L 15.197633,180.72145 C 22.269067,180.16858 28.805173,179.70856 35.093413,179.32380 C 41.381653,178.93905 47.132733,178.61720 52.637778,178.40057 L 52.503142,176.20015 L 52.503142,176.20015 z "
     i:knockout="Off"
     id="path1624"
     style="fill:#f0a04a;fill-rule:evenodd"
     inkscape:export-filename="/home/bruno/Projets/gcompris/gcompris/boards/electric/resistor_track.png"
     inkscape:export-xdpi="119.25220"
     inkscape:export-ydpi="119.25220" />
  <rect
     style="opacity:1.0000000;color:#000000;fill:#404040;fill-opacity:0.90691489;fill-rule:nonzero;stroke:#000000;stroke-width:1.9167597;stroke-linecap:round;stroke-linejoin:round;marker:none;marker-start:none;marker-mid:none;marker-end:none;stroke-miterlimit:4.0000000;stroke-dasharray:none;stroke-dashoffset:0.0000000;stroke-opacity:1.0000000;visibility:visible;display:inline;overflow:visible"
     id="rect1626"
     width="34.861069"
     height="13.658566"
     x="65.964363"
     y="116.72070"
     rx="6.1306028"
     ry="6.1306028"
     inkscape:export-filename="/home/bruno/Projets/gcompris/gcompris/boards/electric/resistor_wiper.png"
     inkscape:export-xdpi="122.35634"
     inkscape:export-ydpi="122.35634" />
  <path
     sodipodi:type="arc"
     style="opacity:1.0000000;color:#000000;fill:#726161;fill-opacity:1.0000000;fill-rule:nonzero;stroke:#000000;stroke-width:0.0000000;stroke-linecap:round;stroke-linejoin:round;marker:none;marker-start:none;marker-mid:none;marker-end:none;stroke-miterlimit:4.0000000;stroke-dasharray:none;stroke-dashoffset:0.0000000;stroke-opacity:1.0000000;visibility:visible;display:inline;overflow:visible"
     id="path3080"
     sodipodi:cx="-21.703495"
     sodipodi:cy="129.05019"
     sodipodi:rx="7.4327011"
     sodipodi:ry="4.4596205"
     d="M -14.270794 129.05019 A 7.4327011 4.4596205 0 1 1  -29.136196,129.05019 A 7.4327011 4.4596205 0 1 1  -14.270794 129.05019 z"
     transform="matrix(0.561891,0.000000,0.000000,1.000000,95.29258,-5.946160)"
     inkscape:export-filename="/home/bruno/Projets/gcompris/gcompris/boards/electric/resistor_wiper.png"
     inkscape:export-xdpi="122.35634"
     inkscape:export-ydpi="122.35634" />
</svg>
