<?xml version="1.0" encoding="UTF-8" standalone="no"?>
<!-- Created with Inkscape (http://www.inkscape.org/) -->

<svg
   xmlns:dc="http://purl.org/dc/elements/1.1/"
   xmlns:cc="http://creativecommons.org/ns#"
   xmlns:rdf="http://www.w3.org/1999/02/22-rdf-syntax-ns#"
   xmlns:svg="http://www.w3.org/2000/svg"
   xmlns="http://www.w3.org/2000/svg"
   xmlns:sodipodi="http://sodipodi.sourceforge.net/DTD/sodipodi-0.dtd"
   xmlns:inkscape="http://www.inkscape.org/namespaces/inkscape"
   width="74.922989"
   height="77.923302"
   id="svg10560"
   version="1.1"
   inkscape:version="0.48.1 r9760"
   sodipodi:docname="white_butterfly.svg">
  <defs
     id="defs10562">
    <inkscape:perspective
       sodipodi:type="inkscape:persp3d"
       inkscape:vp_x="0 : 0.5 : 1"
       inkscape:vp_y="0 : 1000 : 0"
       inkscape:vp_z="1 : 0.5 : 1"
       inkscape:persp3d-origin="0.5 : 0.33333333 : 1"
       id="perspective11478" />
    <inkscape:perspective
       id="perspective10705"
       inkscape:persp3d-origin="372.04724 : 350.78739 : 1"
       inkscape:vp_z="744.09448 : 526.18109 : 1"
       inkscape:vp_y="0 : 1000 : 0"
       inkscape:vp_x="0 : 526.18109 : 1"
       sodipodi:type="inkscape:persp3d" />
    <inkscape:path-effect
       fuse_tolerance="0"
       vertical_pattern="false"
       prop_units="false"
       tang_offset="0"
       normal_offset="0"
       spacing="0"
       scale_y_rel="false"
       prop_scale="1"
       copytype="single_stretched"
       pattern="m 185.52914,340.54624 c 0,64.30172 -78.26605,55 -159.999977,37.14286 -80.54822,-17.59809 -168.571433,-59.26971 -168.571433,-123.57143 0,-64.30173 88.875593,-98.20987 169.285713,-116.42858 44.136,-10 120.902377,-22.54697 148.231727,4.61889 19.90137,19.78232 11.05397,171.14376 11.05397,198.23826 z"
       is_visible="true"
       id="path-effect11375"
       effect="skeletal" />
  </defs>
  <sodipodi:namedview
     id="base"
     pagecolor="#ebd931"
     bordercolor="#666666"
     borderopacity="1.0"
     inkscape:pageopacity="0.0"
     inkscape:pageshadow="2"
     inkscape:zoom="7.9195959"
     inkscape:cx="65.343204"
     inkscape:cy="28.37557"
     inkscape:document-units="px"
     inkscape:current-layer="layer1-0"
     showgrid="false"
     fit-margin-top="5"
     fit-margin-left="5"
     fit-margin-right="5"
     fit-margin-bottom="5"
     inkscape:window-width="1680"
     inkscape:window-height="1026"
     inkscape:window-x="0"
     inkscape:window-y="24"
     inkscape:window-maximized="1" />
  <metadata
     id="metadata10565">
    <rdf:RDF>
      <cc:Work
         rdf:about="">
        <dc:format>image/svg+xml</dc:format>
        <dc:type
           rdf:resource="http://purl.org/dc/dcmitype/StillImage" />
        <dc:title></dc:title>
      </cc:Work>
    </rdf:RDF>
  </metadata>
  <g
     inkscape:label="Calque 1"
     inkscape:groupmode="layer"
     id="layer1"
     transform="translate(1.7669454,-126.37667)">
    <g
       id="layer1-54"
       inkscape:label="Layer 1"
       transform="translate(239.835,239.34116)">
      <g
         transform="matrix(0.6817788,0.7315584,-0.7315584,0.6817788,280.43181,-146.52369)"
         id="g3199" />
      <g
         transform="translate(-227.14286,-28.571429)"
         id="g3464">
        <g
           id="layer1-0"
           inkscape:label="Calque 1"
           transform="matrix(0.06725509,0,0,0.06725509,-12.949471,-73.82934)">
          <g
             id="g12641"
             transform="matrix(1.710208,0,0,1.710208,-1391.8385,-1820.7245)">
            <path
               inkscape:connector-curvature="0"
               style="fill:#ebd931;fill-opacity:1;fill-rule:evenodd;stroke:#000000;stroke-width:7.99999952;stroke-linecap:round;stroke-linejoin:miter;stroke-miterlimit:4;stroke-opacity:1;stroke-dashoffset:0"
               d="m 1151.0441,1235.9762 c 0,70.2191 -114.3655,167.1429 -181.42861,167.1429 -67.06316,0 -121.42858,-56.9238 -121.42858,-127.1429 0,-37.07 46.58014,-173.2917 110.7527,-25.1033 -66.95563,-117.9249 79.01659,-230.611 110.67589,-230.611 67.0631,0 81.4286,145.4953 81.4286,215.7143 z"
               id="path10711"
               sodipodi:nodetypes="csscsc" />
            <path
               inkscape:connector-curvature="0"
               sodipodi:nodetypes="csscsc"
               id="path11224"
               d="m 1206.0926,1310.7126 c -69.1051,-12.4576 -184.781,82.8983 -196.6788,148.8976 -11.89767,65.9994 34.4781,129.6012 103.5833,142.0588 36.4819,6.5766 178.8066,-15.0974 44.3538,-104.5422 104.1756,86.8146 240.9712,-36.8504 246.5878,-68.0074 11.8978,-65.9993 -128.7409,-105.9492 -197.8461,-118.4068 z"
               style="fill:#ebd931;fill-opacity:1;fill-rule:evenodd;stroke:#000000;stroke-width:7.99999952;stroke-linecap:round;stroke-linejoin:miter;stroke-miterlimit:4;stroke-opacity:1;stroke-dashoffset:0" />
            <path
               sodipodi:type="arc"
               style="fill:#000000;fill-opacity:1;fill-rule:evenodd;stroke:#000000;stroke-width:8;stroke-linecap:round;stroke-linejoin:miter;stroke-miterlimit:4;stroke-opacity:1;stroke-dasharray:none;stroke-dashoffset:0"
               id="path11226"
               sodipodi:cx="350"
               sodipodi:cy="556.64789"
               sodipodi:rx="147.14287"
               sodipodi:ry="41.428574"
               d="m 497.14287,556.64789 c 0,22.88037 -65.87811,41.42857 -147.14287,41.42857 -81.26476,0 -147.14287,-18.5482 -147.14287,-41.42857 0,-22.88037 65.87811,-41.42858 147.14287,-41.42858 81.26476,0 147.14287,18.54821 147.14287,41.42858 z"
               transform="matrix(0.78562396,-0.61870425,0.61870425,0.78562396,470.24668,1129.4925)" />
            <path
               inkscape:connector-curvature="0"
               style="fill:none;stroke:#000000;stroke-width:7.99999952;stroke-linecap:butt;stroke-linejoin:miter;stroke-miterlimit:4;stroke-opacity:1;stroke-dasharray:none"
               d="m 1223.9907,1120.6888 c -3.3172,19.4364 -16.3579,32.4214 -33.5962,28.6237 -19.9148,-4.3874 -21.0243,-28.0131 -16.9414,-49.5274 4.6417,-24.4582 31.6377,-29.3204 53.4434,-24.1163 24.4725,5.8405 38.3989,42.9153 33.0357,69.4619 -2.1361,10.5733 -8.7114,21.5371 -16.9216,29.9846 -2.6208,2.6965 -22.5694,22.411 -41.322,54.9933 -32.0709,55.7227 -83.2255,55.2718 -86.3287,56.5859"
               id="path11230"
               sodipodi:nodetypes="cssssssc" />
            <path
               inkscape:connector-curvature="0"
               style="fill:none;stroke:#000000;stroke-width:7.99999952;stroke-linecap:butt;stroke-linejoin:miter;stroke-miterlimit:4;stroke-opacity:1;stroke-dasharray:none"
               d="m 1329.5824,1217.3613 c -18.7275,6.169 -29.6301,20.9947 -23.3126,37.4771 7.2984,19.0417 30.8266,16.6275 51.4952,9.3924 23.4967,-8.2251 24.2927,-35.644 15.9056,-56.434 -9.4129,-23.3327 -36.0238,-29.574 -61.4785,-20.325 -10.1384,3.6839 -28.0844,13.8358 -35.2179,23.2104 -2.2771,2.9924 -22.8484,21.6089 -52.2818,44.9957 -50.3374,39.9963 -56.431,41.0183 -57.2693,44.2823"
               id="path11230-8"
               sodipodi:nodetypes="cssssssc" />
            <path
               inkscape:connector-curvature="0"
               style="fill:#000000;fill-opacity:1;fill-rule:evenodd;stroke:none"
               id="path11506"
               d="m 1201.7401,1383.0155 c 12.8383,7.9142 25.8323,15.7242 39.4569,22.232 10.6164,5.0709 22.3624,9.5836 33.2588,13.9618 13.8753,4.8552 27.7201,10.5198 42.2985,13.0156 3.7185,0.6367 10.0099,1.4784 14.0125,-0.1729 0.7627,-0.3148 1.0739,-1.2533 1.6108,-1.8798 -2.0928,-0.2533 -1.5228,0.3161 -1.3218,-2.0235 0,0 9.9137,0.4177 9.9137,0.4177 l 0,0 c -1.096,7.9772 0.4775,4.1639 -5.6092,11.0312 -1.7789,0.3924 -3.5151,1.1694 -5.3368,1.177 -3.4158,0.014 -12.6243,-2.9885 -14.9667,-3.8165 -13.9332,-4.9248 -27.2451,-11.4744 -41.114,-16.5654 -16.3978,-6.2025 -32.7488,-12.5196 -49.2234,-18.5163 -2.1285,-0.7748 -17.1115,-6.2156 -20.67,-7.3037 -1.5258,-0.4666 -3.1066,-0.7291 -4.6598,-1.0937 0,0 2.3505,-10.4635 2.3505,-10.4635 z" />
            <path
               inkscape:connector-curvature="0"
               style="fill:#000000;fill-opacity:1;fill-rule:evenodd;stroke:none"
               id="path11508"
               d="m 1143.8194,1426.176 c 12.9289,9.0882 26.9271,16.6879 41.2674,23.2828 3.3757,1.4118 6.7409,2.849 10.1271,4.2353 3.4814,1.4253 6.9273,2.9489 10.4753,4.1993 10.6101,3.7394 21.8207,5.9766 32.7453,8.5983 4.4805,1.3781 9.0392,2.4112 13.6454,3.2467 0,0 -2.893,9.4566 -2.893,9.4566 l 0,0 c -4.5541,-1.4516 -8.9071,-3.3118 -13.3692,-5.0293 -17.8539,-6.1551 -35.8565,-11.9812 -53.1552,-19.6277 -11.2922,-4.679 -8.9583,-3.6153 -19.7661,-8.4585 -4.8979,-2.1949 -9.692,-4.622 -14.6299,-6.7253 -4.2928,-1.8286 -5.6402,-2.1528 -9.6939,-3.4029 0,0 5.2468,-9.7753 5.2468,-9.7753 z" />
            <path
               inkscape:connector-curvature="0"
               style="fill:#000000;fill-opacity:1;fill-rule:evenodd;stroke:none"
               id="path11510"
               d="m 1088.5402,1476.2929 c 0.5315,11.8615 6.8682,23.3128 14.025,32.5132 2.1334,2.7424 4.6501,5.1639 6.9751,7.7459 2.7589,2.3672 5.5179,4.7344 8.2768,7.1016 0,0 -3.5503,4.1735 -3.5503,4.1735 l 0,0 c -3.0054,-2.4579 -6.0108,-4.9158 -9.0162,-7.3736 -2.465,-2.7344 -5.0571,-5.3593 -7.395,-8.2031 -8.5564,-10.4078 -16.1567,-22.2965 -20.2611,-35.1825 0,0 10.9457,-0.775 10.9457,-0.775 z" />
            <path
               inkscape:connector-curvature="0"
               style="fill:#000000;fill-opacity:1;fill-rule:evenodd;stroke:none"
               id="path11512"
               d="m 1078.6603,1141.9738 c -0.8113,19.1334 2.2619,38.1518 5.1455,57.0003 1.6522,11.3301 3.0891,23.126 7.917,33.6729 0.9182,2.0056 2.332,3.7447 3.498,5.6171 0,0 -7.1242,3.5637 -7.1242,3.5637 l 0,0 c -0.8034,-2.3988 -1.7717,-4.7486 -2.41,-7.1965 -2.9608,-11.3557 -4.1459,-23.1526 -6.5481,-34.6201 -3.2429,-18.5133 -6.1486,-37.1742 -11.0872,-55.3249 0,0 10.609,-2.7125 10.609,-2.7125 z" />
            <path
               inkscape:connector-curvature="0"
               style="fill:#000000;fill-opacity:1;fill-rule:evenodd;stroke:none"
               id="path11514"
               d="m 1020.0715,1200.5627 c 0.1085,1.2265 0.086,2.472 0.3279,3.6796 0.2906,1.4572 0.8397,2.8506 1.2596,4.276 0.5158,2.2014 1.1271,4.3826 1.5473,6.6043 0.4598,2.4307 2.3014,15.6807 2.6394,17.5799 0.7084,3.98 1.5986,7.9255 2.3979,11.8882 8.2305,30.5933 20.1057,60.5099 38.0671,86.7808 2.8807,4.2135 6.2347,8.0831 9.3521,12.1246 1.2942,1.4316 8.7427,10.5898 12.2742,11.9972 0.5565,0.2218 1.5064,-1.6337 0.9134,-1.548 -2.5384,0.3666 -4.8583,1.6458 -7.2874,2.4687 0,0 10.3058,-0.9514 10.3058,-0.9514 l 0,0 c -2.3821,2.828 -3.867,6.7753 -7.1461,8.484 -1.3194,0.6875 -2.3803,-1.8571 -3.2359,-3.0742 -3.3957,-4.8304 -4.3072,-11.17 -8.369,-15.6118 -9.151,-15.9689 -18.5155,-31.84 -26.568,-48.407 -3.0434,-6.2614 -5.7186,-12.6954 -8.639,-19.015 -12.7478,-27.5858 -3.6337,-6.7769 -14.3252,-31.7397 -1.3536,-3.9261 -2.8496,-7.806 -4.061,-11.7783 -1.6512,-5.4145 -2.5145,-11.049 -4.1721,-16.4616 -1.4609,-4.7701 -2.5222,-6.3513 -4.4183,-10.826 -0.5248,-1.2386 -0.9812,-2.5052 -1.4717,-3.7578 0,0 10.609,-2.7125 10.609,-2.7125 z" />
            <path
               inkscape:connector-curvature="0"
               style="fill:#000000;fill-opacity:1;fill-rule:evenodd;stroke:none"
               id="path11520"
               d="m 921.41566,1286.5626 c 9.1897,15.5855 19.81919,30.646 34.13617,41.9932 4.90882,3.8906 10.28096,7.1579 15.42144,10.7368 0,0 -0.52337,0.798 -0.52337,0.798 l 0,0 c -5.56598,-3.1362 -11.33117,-5.9425 -16.69795,-9.4086 -7.60562,-4.912 -16.32565,-12.2545 -22.6853,-18.8682 -6.03601,-6.2771 -10.87643,-13.7934 -17.81807,-19.2323 0,0 8.16708,-6.0189 8.16708,-6.0189 z" />
          </g>
        </g>
      </g>
    </g>
  </g>
</svg>
